<svg width="64" height="64" viewBox="0 0 64 64" fill="none" xmlns="http://www.w3.org/2000/svg">
<path fill-rule="evenodd" clip-rule="evenodd" d="M55.0933 13.0133C55.28 13.3067 55.44 13.6 55.5733 13.92C55.84 14.56 56 15.2533 56 16V53.3333C56 54.4267 55.6533 55.4667 55.0933 56.32C54.72 56.88 54.2133 57.3867 53.6533 57.76C53.36 57.9467 53.0667 58.1067 52.7467 58.24C52.1067 58.5067 51.4133 58.6667 50.6667 58.6667H13.3333C10.3733 58.6667 8 56.2667 8 53.3333V16C8 15.2533 8.16 14.56 8.42667 13.92C8.56 13.6 8.72 13.3067 8.90667 13.0133C9.28 12.4533 9.78667 11.9467 10.3467 11.5733C11.2 11.0133 12.2133 10.6667 13.3333 10.6667H16V5.33334H21.3333V10.6667H42.6667V5.33334H48V10.6667H50.6667C51.4133 10.6667 52.1067 10.8267 52.7467 11.0933C53.0667 11.2267 53.36 11.3867 53.6533 11.5733C54.2133 11.9467 54.72 12.4533 55.0933 13.0133ZM13.3333 16V53.3333H50.6667V16H13.3333ZM32 37.0133C26.5867 37.0133 16 39.8933 16 46.56V50.6667H48V46.5867C48 39.8933 37.4133 37.0133 32 37.0133ZM32 42.3467C28.5067 42.3467 24 43.84 22.16 45.3333H41.84C40.0267 43.84 35.4933 42.3467 32 42.3467ZM32 34.6667C36.4 34.6667 40 31.0667 40 26.6667C40 22.2667 36.4 18.6667 32 18.6667C27.6 18.6667 24 22.2667 24 26.6667C24 31.0667 27.6 34.6667 32 34.6667ZM34.6667 26.6667C34.6667 25.2 33.4667 24 32 24C30.5333 24 29.3333 25.2 29.3333 26.6667C29.3333 28.1333 30.5333 29.3333 32 29.3333C33.4667 29.3333 34.6667 28.1333 34.6667 26.6667Z" fill="black" fill-opacity="0.54"/>
</svg>
