<svg width="77" height="13" viewBox="0 0 77 13" fill="none" xmlns="http://www.w3.org/2000/svg">
<path d="M2.04723 10H0.857227L4.28723 0.983999H5.63123L9.04723 10H7.87123L6.91923 7.522H2.99923L2.04723 10ZM3.19523 6.612H6.70923L4.94523 1.978L3.19523 6.612ZM15.409 9.776C14.821 10.0187 14.1397 10.14 13.365 10.14C12.2264 10.14 11.3724 9.846 10.803 9.258C10.2337 8.66067 9.94902 7.802 9.94902 6.682C9.94902 5.54333 10.257 4.68467 10.873 4.106C11.4984 3.518 12.3617 3.224 13.463 3.224C13.883 3.224 14.2377 3.25667 14.527 3.322C14.8164 3.378 15.1057 3.47133 15.395 3.602V4.512C14.891 4.26933 14.317 4.148 13.673 4.148C12.8237 4.148 12.1797 4.34867 11.741 4.75C11.3117 5.15133 11.097 5.79533 11.097 6.682C11.097 7.56867 11.293 8.21267 11.685 8.614C12.077 9.01533 12.7257 9.216 13.631 9.216C14.275 9.216 14.8677 9.09467 15.409 8.852V9.776ZM17.1848 3.364V1.726L18.3328 1.376V3.364H20.1668L20.0968 4.274H18.3328V8.096C18.3328 8.50667 18.4215 8.796 18.5988 8.964C18.7855 9.132 19.1028 9.216 19.5508 9.216C19.7935 9.216 20.0595 9.16933 20.3488 9.076V9.944C20.0035 10.0747 19.6068 10.14 19.1588 10.14C18.5148 10.14 18.0248 9.96733 17.6888 9.622C17.3528 9.27667 17.1848 8.78667 17.1848 8.152V4.274H16.1768V3.364H17.1848ZM22.6644 1.81V0.76H23.9384V1.81H22.6644ZM23.9244 10H22.7764V4.274H21.7544L21.8664 3.364H23.9244V10ZM25.617 3.364H26.807L28.865 8.936L30.923 3.364H32.113L29.509 10H28.221L25.617 3.364ZM34.2171 1.81V0.76H35.4911V1.81H34.2171ZM35.4771 10H34.3291V4.274H33.3071L33.4191 3.364H35.4771V10ZM37.8977 3.364V1.726L39.0457 1.376V3.364H40.8797L40.8097 4.274H39.0457V8.096C39.0457 8.50667 39.1344 8.796 39.3117 8.964C39.4984 9.132 39.8157 9.216 40.2637 9.216C40.5064 9.216 40.7724 9.16933 41.0617 9.076V9.944C40.7164 10.0747 40.3197 10.14 39.8717 10.14C39.2277 10.14 38.7377 9.96733 38.4017 9.622C38.0657 9.27667 37.8977 8.78667 37.8977 8.152V4.274H36.8897V3.364H37.8977ZM42.7484 3.364L45.0584 8.712L47.4384 3.364H48.6144L45.8284 9.706C45.5577 10.3313 45.3057 10.8353 45.0724 11.218C44.8391 11.6007 44.5591 11.904 44.2324 12.128C43.9151 12.352 43.5324 12.464 43.0844 12.464C42.6457 12.464 42.2631 12.4033 41.9364 12.282V11.358C42.1977 11.4513 42.4824 11.498 42.7904 11.498C43.0984 11.498 43.3411 11.442 43.5184 11.33C43.7051 11.2273 43.8637 11.0733 43.9944 10.868C44.1251 10.672 44.2884 10.3593 44.4844 9.93L41.5584 3.364H42.7484ZM61.2825 9.104V10H55.3325V0.983999H56.4805V9.104H61.2825ZM65.6576 3.224C67.8696 3.224 68.9756 4.37667 68.9756 6.682C68.9756 7.83 68.705 8.69333 68.1636 9.272C67.6316 9.85067 66.7963 10.14 65.6576 10.14C64.519 10.14 63.679 9.85067 63.1376 9.272C62.6056 8.69333 62.3396 7.83 62.3396 6.682C62.3396 4.37667 63.4456 3.224 65.6576 3.224ZM65.6576 9.16C66.4416 9.16 66.997 8.964 67.3236 8.572C67.6596 8.18 67.8276 7.55 67.8276 6.682C67.8276 5.814 67.6596 5.184 67.3236 4.792C66.9876 4.4 66.4323 4.204 65.6576 4.204C64.883 4.204 64.3276 4.4 63.9916 4.792C63.6556 5.184 63.4876 5.814 63.4876 6.682C63.4876 7.55 63.651 8.18 63.9776 8.572C64.3136 8.964 64.8736 9.16 65.6576 9.16ZM74.7165 10.77C74.7165 10.5273 74.6279 10.3547 74.4505 10.252C74.2825 10.1493 73.9792 10.098 73.5405 10.098H71.7765C71.1699 10.098 70.7125 9.99533 70.4045 9.79C70.0965 9.57533 69.9425 9.26733 69.9425 8.866C69.9425 8.57667 70.0312 8.31533 70.2085 8.082C70.3859 7.83933 70.6425 7.66667 70.9785 7.564C70.2505 7.20933 69.8865 6.556 69.8865 5.604C69.8865 4.78267 70.1245 4.18067 70.6005 3.798C71.0765 3.41533 71.8139 3.224 72.8125 3.224C73.1579 3.224 73.5405 3.27067 73.9605 3.364H76.3545L76.3125 4.148H75.1085C75.5099 4.49333 75.7105 4.97867 75.7105 5.604C75.7105 6.35067 75.4912 6.92467 75.0525 7.326C74.6232 7.72733 73.9699 7.928 73.0925 7.928C72.8965 7.928 72.6259 7.90467 72.2805 7.858C71.9725 7.87667 71.6972 7.96533 71.4545 8.124C71.2119 8.27333 71.0905 8.46467 71.0905 8.698C71.0905 8.866 71.1559 8.98733 71.2865 9.062C71.4172 9.12733 71.6459 9.16 71.9725 9.16H73.8065C74.4692 9.16 74.9779 9.29533 75.3325 9.566C75.6872 9.83667 75.8645 10.224 75.8645 10.728C75.8645 11.3533 75.6032 11.7967 75.0805 12.058C74.5672 12.3287 73.7879 12.464 72.7425 12.464C71.6319 12.464 70.7452 12.3473 70.0825 12.114V11.162C70.4465 11.2833 70.8572 11.3767 71.3145 11.442C71.7812 11.5073 72.2385 11.54 72.6865 11.54C73.1999 11.54 73.5965 11.5213 73.8765 11.484C74.1565 11.4467 74.3665 11.372 74.5065 11.26C74.6465 11.1573 74.7165 10.994 74.7165 10.77ZM72.8125 7.06C73.4659 7.06 73.9185 6.95267 74.1705 6.738C74.4319 6.52333 74.5625 6.14533 74.5625 5.604C74.5625 5.06267 74.4272 4.67067 74.1565 4.428C73.8952 4.18533 73.4472 4.064 72.8125 4.064C72.1872 4.064 71.7345 4.18533 71.4545 4.428C71.1745 4.66133 71.0345 5.05333 71.0345 5.604C71.0345 6.12667 71.1699 6.5 71.4405 6.724C71.7112 6.948 72.1685 7.06 72.8125 7.06Z" fill="black"/>
</svg>
