<svg width="137" height="15" viewBox="0 0 137 15" fill="none" xmlns="http://www.w3.org/2000/svg">
<path d="M6.90426 4.378C7.19359 4.77 7.33826 5.33467 7.33826 6.072V11H6.19026V7.528H3.78226C3.13826 7.528 2.66692 7.63533 2.36826 7.85C2.07892 8.06467 1.93426 8.41 1.93426 8.886C1.93426 9.35267 2.06492 9.684 2.32626 9.88C2.59692 10.0667 3.03559 10.16 3.64226 10.16C4.00626 10.16 4.32359 10.1227 4.59426 10.048V11C4.23959 11.0933 3.81959 11.14 3.33426 11.14C2.56892 11.14 1.95759 10.958 1.50026 10.594C1.04292 10.2207 0.814258 9.65133 0.814258 8.886C0.814258 8.158 1.05692 7.59333 1.54226 7.192C2.02759 6.78133 2.75092 6.576 3.71226 6.576H6.19026V5.988C6.19026 5.54933 6.12492 5.20867 5.99426 4.966C5.86359 4.72333 5.64426 4.55067 5.33626 4.448C5.03759 4.336 4.61292 4.28 4.06226 4.28C3.18492 4.28 2.37759 4.40133 1.64026 4.644V3.692C1.99492 3.57067 2.40559 3.47733 2.87226 3.412C3.33892 3.33733 3.80559 3.3 4.27226 3.3C4.71092 3.3 5.14026 3.34667 5.56026 3.44H7.96826L7.91226 4.378H6.90426ZM13.6077 9.068C13.6077 8.79733 13.5424 8.58267 13.4117 8.424C13.2904 8.26533 13.1224 8.13933 12.9077 8.046C12.7024 7.95267 12.3897 7.84067 11.9697 7.71L11.4657 7.542C10.9524 7.374 10.5324 7.206 10.2057 7.038C9.87908 6.87 9.60841 6.65067 9.39374 6.38C9.18841 6.1 9.08574 5.75467 9.08574 5.344C9.08574 4.68133 9.33308 4.17733 9.82774 3.832C10.3224 3.47733 11.0504 3.3 12.0117 3.3C12.4037 3.3 12.8004 3.33267 13.2017 3.398C13.6031 3.46333 13.9484 3.54267 14.2377 3.636V4.644C13.6124 4.40133 12.9264 4.28 12.1797 4.28C11.4984 4.28 11.0037 4.35467 10.6957 4.504C10.3877 4.644 10.2337 4.91467 10.2337 5.316C10.2337 5.57733 10.3131 5.792 10.4717 5.96C10.6397 6.11867 10.8497 6.24933 11.1017 6.352C11.3631 6.44533 11.7971 6.59 12.4037 6.786C12.9264 6.954 13.3511 7.13133 13.6777 7.318C14.0137 7.49533 14.2751 7.724 14.4617 8.004C14.6577 8.284 14.7557 8.634 14.7557 9.054C14.7557 10.4447 13.7571 11.14 11.7597 11.14C11.2837 11.14 10.8217 11.1073 10.3737 11.042C9.93508 10.9767 9.57108 10.888 9.28174 10.776V9.754C9.97241 10.0247 10.7331 10.16 11.5637 10.16C12.3011 10.16 12.8237 10.09 13.1317 9.95C13.4491 9.80067 13.6077 9.50667 13.6077 9.068ZM12.3461 1.34H15.4121L15.3561 2.166H11.5201V0.85H10.4141V0.0239995H12.3461V1.34ZM19.4721 6.114C19.4721 5.65667 19.4254 5.302 19.3321 5.05C19.2481 4.798 19.0754 4.60667 18.8141 4.476C18.5621 4.34533 18.1794 4.28 17.6661 4.28C17.3674 4.28 17.0408 4.31267 16.6861 4.378C16.3408 4.44333 16.0234 4.532 15.7341 4.644V3.692C16.0234 3.58 16.3594 3.48667 16.7421 3.412C17.1248 3.33733 17.5028 3.3 17.8761 3.3C18.8374 3.3 19.5328 3.51467 19.9621 3.944C20.4008 4.364 20.6201 5.04533 20.6201 5.988V11H19.4721V6.114ZM25.3444 3.44H25.9604C27.0151 3.44 27.7804 3.72467 28.2564 4.294C28.7324 4.86333 28.9704 5.75 28.9704 6.954C28.9704 8.37267 28.6671 9.42733 28.0604 10.118C27.4631 10.7993 26.6651 11.14 25.6664 11.14C25.1158 11.14 24.7051 11.0887 24.4344 10.986L22.3064 5.806H23.4264L25.2184 10.16L25.4984 10.174C26.2918 10.174 26.8751 9.91267 27.2484 9.39C27.6311 8.858 27.8224 8.05067 27.8224 6.968C27.8224 6.296 27.7618 5.778 27.6404 5.414C27.5191 5.04067 27.3138 4.77467 27.0244 4.616C26.7444 4.45733 26.3478 4.378 25.8344 4.378H25.3444V3.44ZM30.6529 4.826C30.6529 4.42467 30.7742 4.09333 31.0169 3.832C31.2595 3.57067 31.5815 3.44 31.9829 3.44H33.1869L33.2289 4.392H32.4869C32.2349 4.392 32.0529 4.448 31.9409 4.56C31.8382 4.672 31.7869 4.86333 31.7869 5.134V9.404L33.9009 5.75H34.4469L36.5609 9.404V3.44H37.6809V11H36.5049L34.1809 6.926L31.8289 11H30.6529V4.826ZM37.6753 11.882V13.422C37.6753 13.7673 37.5399 14.052 37.2693 14.276C36.9986 14.5 36.6346 14.612 36.1773 14.612C35.7386 14.612 35.3886 14.4953 35.1273 14.262C34.8566 14.038 34.7213 13.758 34.7213 13.422V12.638H33.9793L34.0213 11.882H35.5753V13.352C35.5753 13.5107 35.6266 13.632 35.7293 13.716C35.8319 13.8 35.9813 13.842 36.1773 13.842C36.3733 13.842 36.5273 13.7953 36.6393 13.702C36.7513 13.618 36.8073 13.5013 36.8073 13.352V11.882H37.6753ZM35.5473 1.34H38.6133L38.5573 2.166H34.7213V0.85H33.6153V0.0239995H35.5473V1.34ZM39.4533 6.198C39.4533 5.68467 39.5513 5.26467 39.7473 4.938C39.9526 4.61133 40.2326 4.28 40.5873 3.944C40.8113 3.72 40.9746 3.538 41.0773 3.398C41.1799 3.24867 41.2313 3.09 41.2313 2.922C41.2313 2.642 41.1473 2.45067 40.9793 2.348C40.8206 2.24533 40.5639 2.194 40.2093 2.194C39.6959 2.194 39.1779 2.33867 38.6553 2.628V1.732C38.9259 1.57333 39.2293 1.452 39.5653 1.368C39.9013 1.284 40.2326 1.242 40.5593 1.242C41.1659 1.242 41.6233 1.382 41.9313 1.662C42.2486 1.942 42.4073 2.334 42.4073 2.838C42.4073 3.146 42.3373 3.40267 42.1973 3.608C42.0666 3.81333 41.8613 4.056 41.5813 4.336C41.2639 4.63467 41.0213 4.91933 40.8533 5.19C40.6853 5.45133 40.6013 5.792 40.6013 6.212V9.376C40.6013 9.60933 40.6526 9.782 40.7553 9.894C40.8673 10.006 41.0353 10.062 41.2593 10.062H42.0573V11H40.7413C40.3399 11 40.0226 10.8787 39.7893 10.636C39.5653 10.384 39.4533 10.0573 39.4533 9.656V6.198ZM49.7025 8.396C49.7025 9.27333 49.4271 9.95 48.8765 10.426C48.3351 10.902 47.5791 11.14 46.6085 11.14C45.6191 11.14 44.8585 10.9067 44.3265 10.44C43.8038 9.97333 43.5425 9.29667 43.5425 8.41V7.388C43.5425 7.11733 43.6078 6.86067 43.7385 6.618C43.8785 6.366 44.0745 6.06733 44.3265 5.722C44.5131 5.45133 44.6485 5.246 44.7325 5.106C44.8165 4.966 44.8585 4.83067 44.8585 4.7C44.8585 4.55067 44.8258 4.45267 44.7605 4.406C44.6951 4.35933 44.5738 4.336 44.3965 4.336H43.3885L43.4865 3.44H45.0405C45.6845 3.44 46.0065 3.75733 46.0065 4.392C46.0065 4.68133 45.9458 4.94733 45.8245 5.19C45.7125 5.42333 45.5398 5.70333 45.3065 6.03C45.0918 6.338 44.9331 6.59 44.8305 6.786C44.7371 6.982 44.6905 7.19667 44.6905 7.43V8.536C44.6905 9.61867 45.3298 10.16 46.6085 10.16C47.9058 10.16 48.5545 9.60933 48.5545 8.508V7.542C48.5545 7.02867 48.4705 6.674 48.3025 6.478C48.1345 6.282 47.8265 6.184 47.3785 6.184H46.9865L47.0425 5.274H47.3505C47.8078 5.274 48.1205 5.17133 48.2885 4.966C48.4658 4.75133 48.5545 4.40133 48.5545 3.916V3.3H49.7025V3.902C49.7025 4.39667 49.6278 4.78867 49.4785 5.078C49.3385 5.36733 49.0678 5.582 48.6665 5.722C49.0865 5.88067 49.3618 6.10467 49.4925 6.394C49.6325 6.674 49.7025 7.066 49.7025 7.57V8.396ZM47.5785 1.34H50.6445L50.5885 2.166H46.7525V0.85H45.6465V0.0239995H47.5785V1.34ZM54.4245 3.44H55.0405C56.0952 3.44 56.8605 3.72467 57.3365 4.294C57.8125 4.86333 58.0505 5.75 58.0505 6.954C58.0505 8.37267 57.7472 9.42733 57.1405 10.118C56.5432 10.7993 55.7452 11.14 54.7465 11.14C54.1959 11.14 53.7852 11.0887 53.5145 10.986L51.3865 5.806H52.5065L54.2985 10.16L54.5785 10.174C55.3719 10.174 55.9552 9.91267 56.3285 9.39C56.7112 8.858 56.9025 8.05067 56.9025 6.968C56.9025 6.296 56.8419 5.778 56.7205 5.414C56.5992 5.04067 56.3939 4.77467 56.1045 4.616C55.8245 4.45733 55.4279 4.378 54.9145 4.378H54.4245V3.44ZM62.7709 6.114C62.7709 5.65667 62.7243 5.302 62.6309 5.05C62.5469 4.798 62.3743 4.60667 62.1129 4.476C61.8609 4.34533 61.4783 4.28 60.9649 4.28C60.6663 4.28 60.3396 4.31267 59.9849 4.378C59.6396 4.44333 59.3223 4.532 59.0329 4.644V3.692C59.3223 3.58 59.6583 3.48667 60.0409 3.412C60.4236 3.33733 60.8016 3.3 61.1749 3.3C62.1363 3.3 62.8316 3.51467 63.2609 3.944C63.6996 4.364 63.9189 5.04533 63.9189 5.988V11H62.7709V6.114ZM67.0333 3.44V8.41C67.0333 9.026 67.1686 9.474 67.4393 9.754C67.7193 10.0247 68.1673 10.16 68.7833 10.16C69.2406 10.16 69.6699 10.0667 70.0713 9.88C70.4819 9.69333 70.8366 9.44133 71.1353 9.124V3.44H72.2833V11H71.2473L71.1773 10.09C70.4026 10.79 69.4786 11.14 68.4053 11.14C67.5933 11.14 66.9679 10.9067 66.5293 10.44C66.0999 9.97333 65.8853 9.30133 65.8853 8.424V3.44H67.0333ZM77.1648 6.632C76.8195 6.73467 76.5815 6.87933 76.4508 7.066C76.3295 7.25267 76.2688 7.55133 76.2688 7.962V9.46C76.2688 10.4867 75.7881 11 74.8268 11H73.9588V10.062H74.5188C74.7335 10.062 74.8875 10.0107 74.9808 9.908C75.0741 9.796 75.1208 9.62333 75.1208 9.39V7.934C75.1208 7.514 75.1908 7.16867 75.3308 6.898C75.4801 6.618 75.7368 6.41733 76.1008 6.296L74.4348 5.932V4.588C74.8268 4.21467 75.3215 3.90667 75.9188 3.664C76.5255 3.42133 77.2021 3.3 77.9488 3.3C79.0595 3.3 79.8901 3.538 80.4408 4.014C80.9915 4.48067 81.2668 5.204 81.2668 6.184V11H80.1188V6.142C80.1188 5.45133 79.9555 4.97067 79.6288 4.7C79.3021 4.42 78.7421 4.28 77.9488 4.28C77.4261 4.28 76.9361 4.35467 76.4788 4.504C76.0308 4.644 75.6855 4.83533 75.4428 5.078V5.372L77.1648 5.764V6.632ZM86.2592 6.114C86.2592 5.65667 86.2125 5.302 86.1192 5.05C86.0352 4.798 85.8625 4.60667 85.6012 4.476C85.3492 4.34533 84.9665 4.28 84.4532 4.28C84.1545 4.28 83.8279 4.31267 83.4732 4.378C83.1279 4.44333 82.8105 4.532 82.5212 4.644V3.692C82.8105 3.58 83.1465 3.48667 83.5292 3.412C83.9119 3.33733 84.2899 3.3 84.6632 3.3C85.6245 3.3 86.3199 3.51467 86.7492 3.944C87.1879 4.364 87.4072 5.04533 87.4072 5.988V11H86.2592V6.114ZM91.5856 4.28C90.7176 4.28 90.2836 4.658 90.2836 5.414C90.2836 5.81533 90.4142 6.114 90.6756 6.31C90.9369 6.506 91.2962 6.604 91.7536 6.604H92.5516L92.6216 7.472H91.7116C91.2169 7.472 90.8482 7.58867 90.6056 7.822C90.3629 8.05533 90.2416 8.396 90.2416 8.844C90.2416 9.292 90.4142 9.62333 90.7596 9.838C91.1142 10.0527 91.6556 10.16 92.3836 10.16C93.1116 10.16 93.6529 10.02 94.0076 9.74C94.3622 9.46 94.5396 9.02133 94.5396 8.424V3.44H95.6876V8.228C95.6876 9.18933 95.4216 9.91733 94.8896 10.412C94.3576 10.8973 93.5362 11.14 92.4256 11.14C91.3802 11.14 90.5636 10.9487 89.9756 10.566C89.3876 10.1833 89.0936 9.60933 89.0936 8.844C89.0936 8.41467 89.1916 8.05067 89.3876 7.752C89.5929 7.444 89.8776 7.21067 90.2416 7.052C89.9056 6.94933 89.6349 6.758 89.4296 6.478C89.2336 6.198 89.1356 5.84333 89.1356 5.414C89.1356 4.73267 89.3409 4.21 89.7516 3.846C90.1622 3.482 90.7036 3.3 91.3756 3.3C91.8236 3.3 92.2109 3.35133 92.5376 3.454V4.406C92.2856 4.322 91.9682 4.28 91.5856 4.28ZM97.463 6.198C97.463 5.68467 97.561 5.26467 97.757 4.938C97.9624 4.61133 98.2424 4.28 98.597 3.944C98.821 3.72 98.9844 3.538 99.087 3.398C99.1897 3.24867 99.241 3.09 99.241 2.922C99.241 2.642 99.157 2.45067 98.989 2.348C98.8304 2.24533 98.5737 2.194 98.219 2.194C97.7057 2.194 97.1877 2.33867 96.665 2.628V1.732C96.9357 1.57333 97.239 1.452 97.575 1.368C97.911 1.284 98.2424 1.242 98.569 1.242C99.1757 1.242 99.633 1.382 99.941 1.662C100.258 1.942 100.417 2.334 100.417 2.838C100.417 3.146 100.347 3.40267 100.207 3.608C100.076 3.81333 99.871 4.056 99.591 4.336C99.2737 4.63467 99.031 4.91933 98.863 5.19C98.695 5.45133 98.611 5.792 98.611 6.212V9.376C98.611 9.60933 98.6624 9.782 98.765 9.894C98.877 10.006 99.045 10.062 99.269 10.062H100.067V11H98.751C98.3497 11 98.0324 10.8787 97.799 10.636C97.575 10.384 97.463 10.0573 97.463 9.656V6.198ZM102.826 3.44V8.41C102.826 9.026 102.962 9.474 103.232 9.754C103.512 10.0247 103.96 10.16 104.576 10.16C105.034 10.16 105.463 10.0667 105.864 9.88C106.275 9.69333 106.63 9.44133 106.928 9.124V3.44H108.076V11H107.04L106.97 10.09C106.196 10.79 105.272 11.14 104.198 11.14C103.386 11.14 102.761 10.9067 102.322 10.44C101.893 9.97333 101.678 9.30133 101.678 8.424V3.44H102.826ZM114.274 9.068C114.274 8.79733 114.208 8.58267 114.078 8.424C113.956 8.26533 113.788 8.13933 113.574 8.046C113.368 7.95267 113.056 7.84067 112.636 7.71L112.132 7.542C111.618 7.374 111.198 7.206 110.872 7.038C110.545 6.87 110.274 6.65067 110.06 6.38C109.854 6.1 109.752 5.75467 109.752 5.344C109.752 4.68133 109.999 4.17733 110.494 3.832C110.988 3.47733 111.716 3.3 112.678 3.3C113.07 3.3 113.466 3.33267 113.868 3.398C114.269 3.46333 114.614 3.54267 114.904 3.636V4.644C114.278 4.40133 113.592 4.28 112.846 4.28C112.164 4.28 111.67 4.35467 111.362 4.504C111.054 4.644 110.9 4.91467 110.9 5.316C110.9 5.57733 110.979 5.792 111.138 5.96C111.306 6.11867 111.516 6.24933 111.768 6.352C112.029 6.44533 112.463 6.59 113.07 6.786C113.592 6.954 114.017 7.13133 114.344 7.318C114.68 7.49533 114.941 7.724 115.128 8.004C115.324 8.284 115.422 8.634 115.422 9.054C115.422 10.4447 114.423 11.14 112.426 11.14C111.95 11.14 111.488 11.1073 111.04 11.042C110.601 10.9767 110.237 10.888 109.948 10.776V9.754C110.638 10.0247 111.399 10.16 112.23 10.16C112.967 10.16 113.49 10.09 113.798 9.95C114.115 9.80067 114.274 9.50667 114.274 9.068ZM117.814 4.672V5.358H119.984L119.942 6.24H116.82V4.672H117.814ZM117.814 8.536V9.236H119.984L119.942 10.104H116.82V8.536H117.814ZM124.985 10.16C125.703 10.16 126.245 10.006 126.609 9.698C126.973 9.39 127.155 8.9 127.155 8.228V3.44H128.303V8.144C128.303 9.13333 128.018 9.88 127.449 10.384C126.879 10.888 126.058 11.14 124.985 11.14C123.911 11.14 123.09 10.888 122.521 10.384C121.951 9.88 121.667 9.13333 121.667 8.144V3.44H122.815V8.228C122.815 8.9 122.997 9.39 123.361 9.698C123.725 10.006 124.266 10.16 124.985 10.16ZM133.584 10.16C134.303 10.16 134.844 10.006 135.208 9.698C135.572 9.39 135.754 8.9 135.754 8.228V3.44H136.902V8.144C136.902 9.13333 136.617 9.88 136.048 10.384C135.479 10.888 134.657 11.14 133.584 11.14C132.511 11.14 131.689 10.888 131.12 10.384C130.551 9.88 130.266 9.13333 130.266 8.144V3.44H131.414V8.228C131.414 8.9 131.596 9.39 131.96 9.698C132.324 10.006 132.865 10.16 133.584 10.16Z" fill="black"/>
</svg>
