<svg width="109" height="13" viewBox="0 0 109 13" fill="none" xmlns="http://www.w3.org/2000/svg">
<path d="M6.96578 5.378C7.25511 5.77 7.39978 6.33467 7.39978 7.072V12H6.25178V8.528H3.84378C3.19978 8.528 2.72845 8.63533 2.42978 8.85C2.14045 9.06467 1.99578 9.41 1.99578 9.886C1.99578 10.3527 2.12645 10.684 2.38778 10.88C2.65845 11.0667 3.09711 11.16 3.70378 11.16C4.06778 11.16 4.38511 11.1227 4.65578 11.048V12C4.30111 12.0933 3.88111 12.14 3.39578 12.14C2.63045 12.14 2.01911 11.958 1.56178 11.594C1.10445 11.2207 0.875781 10.6513 0.875781 9.886C0.875781 9.158 1.11845 8.59333 1.60378 8.192C2.08911 7.78133 2.81245 7.576 3.77378 7.576H6.25178V6.988C6.25178 6.54933 6.18645 6.20867 6.05578 5.966C5.92511 5.72333 5.70578 5.55067 5.39778 5.448C5.09911 5.336 4.67445 5.28 4.12378 5.28C3.24645 5.28 2.43911 5.40133 1.70178 5.644V4.692C2.05645 4.57067 2.46711 4.47733 2.93378 4.412C3.40045 4.33733 3.86711 4.3 4.33378 4.3C4.77245 4.3 5.20178 4.34667 5.62178 4.44H8.02978L7.97378 5.378H6.96578ZM1.89527 3.166L1.95127 2.34H7.45327V3.166H1.89527ZM14.6773 12V7.016C14.6773 6.40933 14.5326 5.97067 14.2433 5.7C13.9539 5.42 13.5059 5.28 12.8993 5.28C12.4419 5.28 12.0173 5.37333 11.6253 5.56C11.2333 5.74667 10.8833 6.00333 10.5753 6.33V12H9.42727V4.44H10.4633L10.5333 5.35C10.9066 5.014 11.3173 4.75733 11.7653 4.58C12.2133 4.39333 12.7266 4.3 13.3053 4.3C14.1079 4.3 14.7286 4.53333 15.1673 5C15.6059 5.46667 15.8253 6.134 15.8253 7.002V12H14.6773ZM20.4828 11.16C21.1361 11.16 21.6168 11.062 21.9248 10.866C22.2328 10.67 22.3868 10.3247 22.3868 9.83C22.3868 9.438 22.3074 9.13933 22.1488 8.934C21.9901 8.72867 21.7661 8.57933 21.4768 8.486C21.1968 8.39267 20.7254 8.27133 20.0628 8.122C19.5028 8.00067 19.0501 7.87933 18.7048 7.758C18.3688 7.63667 18.0841 7.45 17.8508 7.198C17.6174 6.946 17.5008 6.60533 17.5008 6.176C17.5008 4.92533 18.5414 4.3 20.6228 4.3C21.0801 4.3 21.5468 4.33733 22.0228 4.412C22.4988 4.47733 22.8768 4.56133 23.1568 4.664V5.672C22.8394 5.56 22.4614 5.46667 22.0228 5.392C21.5934 5.31733 21.1781 5.28 20.7768 5.28C20.0674 5.28 19.5261 5.336 19.1528 5.448C18.7794 5.56 18.5928 5.79333 18.5928 6.148C18.5928 6.36267 18.6581 6.53533 18.7888 6.666C18.9194 6.78733 19.0921 6.88533 19.3068 6.96C19.5214 7.02533 19.8388 7.10467 20.2588 7.198L21.0288 7.38C21.6074 7.52933 22.0648 7.68333 22.4008 7.842C22.7461 8.00067 23.0214 8.23867 23.2268 8.556C23.4321 8.864 23.5348 9.28867 23.5348 9.83C23.5348 10.5953 23.2688 11.174 22.7368 11.566C22.2141 11.9487 21.4908 12.14 20.5668 12.14C20.0161 12.14 19.4841 12.0887 18.9708 11.986C18.4574 11.8833 18.0141 11.7573 17.6408 11.608V8.738H18.7048V10.866C19.2368 11.062 19.8294 11.16 20.4828 11.16ZM17.6863 3.166L17.7423 2.34H23.2443V3.166H17.6863ZM27.5843 7.632C27.2203 7.72533 26.9543 7.87467 26.7863 8.08C26.6183 8.28533 26.5343 8.57933 26.5343 8.962V12H25.3863V8.934C25.3863 8.52333 25.4749 8.178 25.6523 7.898C25.8389 7.60867 26.1283 7.408 26.5203 7.296L24.9383 6.932V5.588C25.3303 5.21467 25.8249 4.90667 26.4223 4.664C27.0289 4.42133 27.7056 4.3 28.4523 4.3C29.5629 4.3 30.3936 4.538 30.9443 5.014C31.4949 5.48067 31.7703 6.204 31.7703 7.184V12H30.6223V7.142C30.6223 6.45133 30.4589 5.97067 30.1323 5.7C29.8056 5.42 29.2456 5.28 28.4523 5.28C27.9296 5.28 27.4396 5.35467 26.9823 5.504C26.5343 5.644 26.1889 5.83533 25.9463 6.078V6.372L27.5843 6.764V7.632ZM36.7739 7.114C36.7739 6.65667 36.7272 6.302 36.6339 6.05C36.5499 5.798 36.3772 5.60667 36.1159 5.476C35.8639 5.34533 35.4812 5.28 34.9679 5.28C34.6692 5.28 34.3425 5.31267 33.9879 5.378C33.6425 5.44333 33.3252 5.532 33.0359 5.644V4.692C33.3252 4.58 33.6612 4.48667 34.0439 4.412C34.4265 4.33733 34.8045 4.3 35.1779 4.3C36.1392 4.3 36.8345 4.51467 37.2639 4.944C37.7025 5.364 37.9219 6.04533 37.9219 6.988V12H36.7739V7.114ZM44.1302 10.068C44.1302 9.79733 44.0649 9.58267 43.9342 9.424C43.8129 9.26533 43.6449 9.13933 43.4302 9.046C43.2249 8.95267 42.9122 8.84067 42.4922 8.71L41.9882 8.542C41.4749 8.374 41.0549 8.206 40.7282 8.038C40.4015 7.87 40.1309 7.65067 39.9162 7.38C39.7109 7.1 39.6082 6.75467 39.6082 6.344C39.6082 5.68133 39.8555 5.17733 40.3502 4.832C40.8449 4.47733 41.5729 4.3 42.5342 4.3C42.9262 4.3 43.3229 4.33267 43.7242 4.398C44.1255 4.46333 44.4709 4.54267 44.7602 4.636V5.644C44.1349 5.40133 43.4489 5.28 42.7022 5.28C42.0209 5.28 41.5262 5.35467 41.2182 5.504C40.9102 5.644 40.7562 5.91467 40.7562 6.316C40.7562 6.57733 40.8355 6.792 40.9942 6.96C41.1622 7.11867 41.3722 7.24933 41.6242 7.352C41.8855 7.44533 42.3195 7.59 42.9262 7.786C43.4489 7.954 43.8735 8.13133 44.2002 8.318C44.5362 8.49533 44.7975 8.724 44.9842 9.004C45.1802 9.284 45.2782 9.634 45.2782 10.054C45.2782 11.4447 44.2795 12.14 42.2822 12.14C41.8062 12.14 41.3442 12.1073 40.8962 12.042C40.4575 11.9767 40.0935 11.888 39.8042 11.776V10.754C40.4949 11.0247 41.2555 11.16 42.0862 11.16C42.8235 11.16 43.3462 11.09 43.6542 10.95C43.9715 10.8007 44.1302 10.5067 44.1302 10.068ZM48.1046 4.44V10.376C48.1046 10.6093 48.1559 10.782 48.2586 10.894C48.3706 11.006 48.5386 11.062 48.7626 11.062H49.5606V12H48.2446C47.8432 12 47.5259 11.8787 47.2926 11.636C47.0686 11.384 46.9566 11.0573 46.9566 10.656V4.44H48.1046ZM51.1099 8.388C51.1099 8.11733 51.1752 7.86067 51.3059 7.618C51.4459 7.366 51.6419 7.06733 51.8939 6.722C52.0805 6.45133 52.2159 6.246 52.2999 6.106C52.3839 5.966 52.4259 5.83067 52.4259 5.7C52.4259 5.55067 52.3932 5.45267 52.3279 5.406C52.2625 5.35933 52.1412 5.336 51.9639 5.336H50.9559L51.0539 4.44H52.6079C53.2519 4.44 53.5739 4.75733 53.5739 5.392C53.5739 5.68133 53.5132 5.94733 53.3919 6.19C53.2799 6.42333 53.1072 6.70333 52.8739 7.03C52.6592 7.338 52.5005 7.59 52.3979 7.786C52.3045 7.982 52.2579 8.19667 52.2579 8.43V9.536C52.2579 10.6187 52.8972 11.16 54.1759 11.16C55.4732 11.16 56.1219 10.6093 56.1219 9.508V4.44H57.2699V9.396C57.2699 10.2733 56.9945 10.95 56.4439 11.426C55.9025 11.902 55.1465 12.14 54.1759 12.14C53.1865 12.14 52.4259 11.9067 51.8939 11.44C51.3712 10.9733 51.1099 10.2967 51.1099 9.41V8.388ZM55.1459 2.34H58.2119L58.1559 3.166H54.3199V1.85H53.2139V1.024H55.1459V2.34ZM62.2719 7.114C62.2719 6.65667 62.2252 6.302 62.1319 6.05C62.0479 5.798 61.8752 5.60667 61.6139 5.476C61.3619 5.34533 60.9792 5.28 60.4659 5.28C60.1672 5.28 59.8406 5.31267 59.4859 5.378C59.1406 5.44333 58.8232 5.532 58.5339 5.644V4.692C58.8232 4.58 59.1592 4.48667 59.5419 4.412C59.9246 4.33733 60.3026 4.3 60.6759 4.3C61.6372 4.3 62.3326 4.51467 62.7619 4.944C63.2006 5.364 63.4199 6.04533 63.4199 6.988V12H62.2719V7.114ZM66.7023 10.376C66.7023 10.6093 66.7536 10.782 66.8563 10.894C66.9683 11.006 67.1363 11.062 67.3603 11.062H68.1583V12H66.8423C66.4409 12 66.1236 11.8787 65.8903 11.636C65.6663 11.384 65.5543 11.0573 65.5543 10.656V8.934C65.5543 8.52333 65.6429 8.178 65.8203 7.898C66.0069 7.60867 66.2963 7.408 66.6883 7.296L65.1063 6.932V5.588C65.4983 5.21467 65.9929 4.90667 66.5903 4.664C67.1969 4.42133 67.8736 4.3 68.6203 4.3C69.7309 4.3 70.5616 4.538 71.1123 5.014C71.6629 5.48067 71.9383 6.204 71.9383 7.184V12H70.7903V7.142C70.7903 6.45133 70.6269 5.97067 70.3003 5.7C69.9736 5.42 69.4136 5.28 68.6203 5.28C68.0976 5.28 67.6076 5.35467 67.1503 5.504C66.7023 5.644 66.3569 5.83533 66.1143 6.078V6.372L67.7523 6.764V7.632C67.3883 7.72533 67.1223 7.87467 66.9543 8.08C66.7863 8.28533 66.7023 8.57933 66.7023 8.962V10.376ZM69.7598 2.018C69.7598 1.682 69.8672 1.416 70.0818 1.22C70.2965 1.01467 70.5812 0.911999 70.9358 0.911999C71.3185 0.911999 71.6125 1.01933 71.8178 1.234C72.0138 1.44867 72.1118 1.70533 72.1118 2.004C72.1118 2.34 71.9998 2.62 71.7758 2.844C71.5518 3.05867 71.2532 3.166 70.8798 3.166H66.3718L66.4278 2.34H69.8298C69.7832 2.24667 69.7598 2.13933 69.7598 2.018ZM70.3898 2.018C70.3898 2.158 70.4412 2.284 70.5438 2.396C70.6465 2.49867 70.7772 2.55 70.9358 2.55C71.0945 2.55 71.2252 2.49867 71.3278 2.396C71.4305 2.29333 71.4818 2.16733 71.4818 2.018C71.4818 1.85933 71.4305 1.72867 71.3278 1.626C71.2252 1.514 71.0945 1.458 70.9358 1.458C70.7865 1.458 70.6605 1.50933 70.5578 1.612C70.4458 1.71467 70.3898 1.85 70.3898 2.018ZM76.6618 4.44H77.2778C78.3325 4.44 79.0978 4.72467 79.5738 5.294C80.0498 5.86333 80.2878 6.75 80.2878 7.954C80.2878 9.37267 79.9845 10.4273 79.3778 11.118C78.7805 11.7993 77.9825 12.14 76.9838 12.14C76.4332 12.14 76.0225 12.0887 75.7518 11.986L73.6238 6.806H74.7438L76.5358 11.16L76.8158 11.174C77.6092 11.174 78.1925 10.9127 78.5658 10.39C78.9485 9.858 79.1398 9.05067 79.1398 7.968C79.1398 7.296 79.0792 6.778 78.9578 6.414C78.8365 6.04067 78.6312 5.77467 78.3418 5.616C78.0618 5.45733 77.6652 5.378 77.1518 5.378H76.6618V4.44ZM86.2122 10.068C86.2122 9.79733 86.1469 9.58267 86.0162 9.424C85.8949 9.26533 85.7269 9.13933 85.5122 9.046C85.3069 8.95267 84.9942 8.84067 84.5742 8.71L84.0702 8.542C83.5569 8.374 83.1369 8.206 82.8102 8.038C82.4836 7.87 82.2129 7.65067 81.9982 7.38C81.7929 7.1 81.6902 6.75467 81.6902 6.344C81.6902 5.68133 81.9376 5.17733 82.4322 4.832C82.9269 4.47733 83.6549 4.3 84.6162 4.3C85.0082 4.3 85.4049 4.33267 85.8062 4.398C86.2076 4.46333 86.5529 4.54267 86.8422 4.636V5.644C86.2169 5.40133 85.5309 5.28 84.7842 5.28C84.1029 5.28 83.6082 5.35467 83.3002 5.504C82.9922 5.644 82.8382 5.91467 82.8382 6.316C82.8382 6.57733 82.9176 6.792 83.0762 6.96C83.2442 7.11867 83.4542 7.24933 83.7062 7.352C83.9676 7.44533 84.4016 7.59 85.0082 7.786C85.5309 7.954 85.9556 8.13133 86.2822 8.318C86.6182 8.49533 86.8796 8.724 87.0662 9.004C87.2622 9.284 87.3602 9.634 87.3602 10.054C87.3602 11.4447 86.3616 12.14 84.3642 12.14C83.8882 12.14 83.4262 12.1073 82.9782 12.042C82.5396 11.9767 82.1756 11.888 81.8862 11.776V10.754C82.5769 11.0247 83.3376 11.16 84.1682 11.16C84.9056 11.16 85.4282 11.09 85.7362 10.95C86.0536 10.8007 86.2122 10.5067 86.2122 10.068ZM89.7526 5.672V6.358H91.9226L91.8806 7.24H88.7586V5.672H89.7526ZM89.7526 9.536V10.236H91.9226L91.8806 11.104H88.7586V9.536H89.7526ZM96.923 11.16C97.6417 11.16 98.183 11.006 98.547 10.698C98.911 10.39 99.093 9.9 99.093 9.228V4.44H100.241V9.144C100.241 10.1333 99.9563 10.88 99.387 11.384C98.8177 11.888 97.9963 12.14 96.923 12.14C95.8497 12.14 95.0283 11.888 94.459 11.384C93.8897 10.88 93.605 10.1333 93.605 9.144V4.44H94.753V9.228C94.753 9.9 94.935 10.39 95.299 10.698C95.663 11.006 96.2043 11.16 96.923 11.16ZM105.523 11.16C106.241 11.16 106.783 11.006 107.147 10.698C107.511 10.39 107.693 9.9 107.693 9.228V4.44H108.841V9.144C108.841 10.1333 108.556 10.88 107.987 11.384C107.417 11.888 106.596 12.14 105.523 12.14C104.449 12.14 103.628 11.888 103.059 11.384C102.489 10.88 102.205 10.1333 102.205 9.144V4.44H103.353V9.228C103.353 9.9 103.535 10.39 103.899 10.698C104.263 11.006 104.804 11.16 105.523 11.16Z" fill="black"/>
</svg>
