<svg width="118" height="15" viewBox="0 0 118 15" fill="none" xmlns="http://www.w3.org/2000/svg">
<path d="M3.59976 10.16C4.31842 10.16 4.85976 10.006 5.22376 9.698C5.58776 9.39 5.76976 8.9 5.76976 8.228V3.44H6.91776V8.144C6.91776 9.13333 6.63309 9.88 6.06376 10.384C5.49442 10.888 4.67309 11.14 3.59976 11.14C2.52642 11.14 1.70509 10.888 1.13576 10.384C0.566425 9.88 0.281758 9.13333 0.281758 8.144V3.44H1.42976V8.228C1.42976 8.9 1.61176 9.39 1.97576 9.698C2.33976 10.006 2.88109 10.16 3.59976 10.16ZM13.1234 9.068C13.1234 8.79733 13.058 8.58267 12.9274 8.424C12.806 8.26533 12.638 8.13933 12.4234 8.046C12.218 7.95267 11.9054 7.84067 11.4854 7.71L10.9814 7.542C10.468 7.374 10.048 7.206 9.72137 7.038C9.3947 6.87 9.12403 6.65067 8.90937 6.38C8.70403 6.1 8.60137 5.75467 8.60137 5.344C8.60137 4.68133 8.8487 4.17733 9.34337 3.832C9.83803 3.47733 10.566 3.3 11.5274 3.3C11.9194 3.3 12.316 3.33267 12.7174 3.398C13.1187 3.46333 13.464 3.54267 13.7534 3.636V4.644C13.128 4.40133 12.442 4.28 11.6954 4.28C11.014 4.28 10.5194 4.35467 10.2114 4.504C9.90337 4.644 9.74937 4.91467 9.74937 5.316C9.74937 5.57733 9.8287 5.792 9.98737 5.96C10.1554 6.11867 10.3654 6.24933 10.6174 6.352C10.8787 6.44533 11.3127 6.59 11.9194 6.786C12.442 6.954 12.8667 7.13133 13.1934 7.318C13.5294 7.49533 13.7907 7.724 13.9774 8.004C14.1734 8.284 14.2714 8.634 14.2714 9.054C14.2714 10.4447 13.2727 11.14 11.2754 11.14C10.7994 11.14 10.3374 11.1073 9.88937 11.042C9.4507 10.9767 9.0867 10.888 8.79737 10.776V9.754C9.48803 10.0247 10.2487 10.16 11.0794 10.16C11.8167 10.16 12.3394 10.09 12.6474 9.95C12.9647 9.80067 13.1234 9.50667 13.1234 9.068ZM8.41773 2.166L8.47373 1.34H13.9757V2.166H8.41773ZM17.0977 5.89H19.6037C20.2011 5.89 20.6211 5.76867 20.8637 5.526C21.1064 5.274 21.2277 4.88667 21.2277 4.364V3.44H22.3757V4.35C22.3757 5.42333 21.9744 6.086 21.1717 6.338C21.6104 6.478 21.9044 6.70667 22.0537 7.024C22.2124 7.332 22.2917 7.738 22.2917 8.242V11H21.1437V8.382C21.1437 7.98067 21.0924 7.668 20.9897 7.444C20.8964 7.22 20.7331 7.06133 20.4997 6.968C20.2757 6.87467 19.9537 6.828 19.5337 6.828H17.0977V11H15.9497V3.44H17.0977V5.89ZM27.2866 6.114C27.2866 5.65667 27.2399 5.302 27.1466 5.05C27.0626 4.798 26.8899 4.60667 26.6286 4.476C26.3766 4.34533 25.9939 4.28 25.4806 4.28C25.1819 4.28 24.8552 4.31267 24.5006 4.378C24.1552 4.44333 23.8379 4.532 23.5486 4.644V3.692C23.8379 3.58 24.1739 3.48667 24.5566 3.412C24.9392 3.33733 25.3172 3.3 25.6906 3.3C26.6519 3.3 27.3472 3.51467 27.7766 3.944C28.2152 4.364 28.4346 5.04533 28.4346 5.988V11H27.2866V6.114ZM34.6429 9.068C34.6429 8.79733 34.5776 8.58267 34.4469 8.424C34.3256 8.26533 34.1576 8.13933 33.9429 8.046C33.7376 7.95267 33.4249 7.84067 33.0049 7.71L32.5009 7.542C31.9876 7.374 31.5676 7.206 31.2409 7.038C30.9142 6.87 30.6436 6.65067 30.4289 6.38C30.2236 6.1 30.1209 5.75467 30.1209 5.344C30.1209 4.68133 30.3682 4.17733 30.8629 3.832C31.3576 3.47733 32.0856 3.3 33.0469 3.3C33.4389 3.3 33.8356 3.33267 34.2369 3.398C34.6382 3.46333 34.9836 3.54267 35.2729 3.636V4.644C34.6476 4.40133 33.9616 4.28 33.2149 4.28C32.5336 4.28 32.0389 4.35467 31.7309 4.504C31.4229 4.644 31.2689 4.91467 31.2689 5.316C31.2689 5.57733 31.3482 5.792 31.5069 5.96C31.6749 6.11867 31.8849 6.24933 32.1369 6.352C32.3982 6.44533 32.8322 6.59 33.4389 6.786C33.9616 6.954 34.3862 7.13133 34.7129 7.318C35.0489 7.49533 35.3102 7.724 35.4969 8.004C35.6929 8.284 35.7909 8.634 35.7909 9.054C35.7909 10.4447 34.7922 11.14 32.7949 11.14C32.3189 11.14 31.8569 11.1073 31.4089 11.042C30.9702 10.9767 30.6062 10.888 30.3169 10.776V9.754C31.0076 10.0247 31.7682 10.16 32.5989 10.16C33.3362 10.16 33.8589 10.09 34.1669 9.95C34.4842 9.80067 34.6429 9.50667 34.6429 9.068ZM39.7093 4.28C38.8506 4.28 38.0573 4.40133 37.3293 4.644V3.692C38.1133 3.43067 39.0093 3.3 40.0173 3.3C42.5093 3.3 43.7553 4.57867 43.7553 7.136C43.7553 7.98533 43.6013 8.71333 43.2933 9.32C42.9853 9.91733 42.5699 10.37 42.0473 10.678C41.5246 10.986 40.9506 11.14 40.3253 11.14C40.1479 11.14 39.9566 11.126 39.7513 11.098C39.5459 11.07 39.3826 11.0327 39.2613 10.986L38.0853 7.85H37.1893L37.2453 6.912H38.8273L40.0453 10.16L40.2833 10.174C40.9553 10.174 41.5106 9.92667 41.9493 9.432C42.3879 8.928 42.6073 8.16267 42.6073 7.136C42.6073 6.42667 42.5139 5.86667 42.3273 5.456C42.1406 5.04533 41.8373 4.74667 41.4173 4.56C40.9973 4.37333 40.4279 4.28 39.7093 4.28ZM41.408 0.318V1.34H45.174L45.118 2.166H40.442V0.318H41.408ZM48.94 3.3C49.724 3.3 50.3726 3.44 50.886 3.72C51.4086 3.99067 51.7913 4.35467 52.034 4.812C52.2766 5.26 52.398 5.75933 52.398 6.31V11H51.25V6.324C51.25 5.68933 51.0633 5.19 50.69 4.826C50.326 4.462 49.7333 4.28 48.912 4.28C47.9973 4.28 47.3346 4.53667 46.924 5.05C46.5133 5.554 46.308 6.30067 46.308 7.29C46.308 8.326 46.476 9.06333 46.812 9.502C47.1573 9.94067 47.68 10.16 48.38 10.16C48.8 10.16 49.122 10.1227 49.346 10.048V11C49.038 11.0933 48.6506 11.14 48.184 11.14C47.2693 11.14 46.5366 10.8227 45.986 10.188C45.4353 9.544 45.16 8.578 45.16 7.29C45.16 6.03 45.4726 5.05 46.098 4.35C46.7326 3.65 47.68 3.3 48.94 3.3ZM56.72 6.632C56.356 6.72533 56.09 6.87467 55.922 7.08C55.754 7.28533 55.67 7.57933 55.67 7.962V11H54.522V7.934C54.522 7.52333 54.6107 7.178 54.788 6.898C54.9747 6.60867 55.264 6.408 55.656 6.296L54.074 5.932V4.588C54.466 4.21467 54.9607 3.90667 55.558 3.664C56.1647 3.42133 56.8414 3.3 57.588 3.3C58.6987 3.3 59.5294 3.538 60.08 4.014C60.6307 4.48067 60.906 5.204 60.906 6.184V11H59.758V6.142C59.758 5.45133 59.5947 4.97067 59.268 4.7C58.9414 4.42 58.3814 4.28 57.588 4.28C57.0654 4.28 56.5754 4.35467 56.118 4.504C55.67 4.644 55.3247 4.83533 55.082 5.078V5.372L56.72 5.764V6.632ZM65.9096 6.114C65.9096 5.65667 65.8629 5.302 65.7696 5.05C65.6856 4.798 65.5129 4.60667 65.2516 4.476C64.9996 4.34533 64.6169 4.28 64.1036 4.28C63.8049 4.28 63.4783 4.31267 63.1236 4.378C62.7783 4.44333 62.4609 4.532 62.1716 4.644V3.692C62.4609 3.58 62.7969 3.48667 63.1796 3.412C63.5623 3.33733 63.9403 3.3 64.3136 3.3C65.2749 3.3 65.9703 3.51467 66.3996 3.944C66.8383 4.364 67.0576 5.04533 67.0576 5.988V11H65.9096V6.114ZM73.2659 9.068C73.2659 8.79733 73.2006 8.58267 73.0699 8.424C72.9486 8.26533 72.7806 8.13933 72.5659 8.046C72.3606 7.95267 72.0479 7.84067 71.6279 7.71L71.1239 7.542C70.6106 7.374 70.1906 7.206 69.8639 7.038C69.5373 6.87 69.2666 6.65067 69.0519 6.38C68.8466 6.1 68.7439 5.75467 68.7439 5.344C68.7439 4.68133 68.9913 4.17733 69.4859 3.832C69.9806 3.47733 70.7086 3.3 71.6699 3.3C72.0619 3.3 72.4586 3.33267 72.8599 3.398C73.2613 3.46333 73.6066 3.54267 73.8959 3.636V4.644C73.2706 4.40133 72.5846 4.28 71.8379 4.28C71.1566 4.28 70.6619 4.35467 70.3539 4.504C70.0459 4.644 69.8919 4.91467 69.8919 5.316C69.8919 5.57733 69.9713 5.792 70.1299 5.96C70.2979 6.11867 70.5079 6.24933 70.7599 6.352C71.0213 6.44533 71.4553 6.59 72.0619 6.786C72.5846 6.954 73.0093 7.13133 73.3359 7.318C73.6719 7.49533 73.9333 7.724 74.1199 8.004C74.3159 8.284 74.4139 8.634 74.4139 9.054C74.4139 10.4447 73.4153 11.14 71.4179 11.14C70.9419 11.14 70.4799 11.1073 70.0319 11.042C69.5933 10.9767 69.2293 10.888 68.9399 10.776V9.754C69.6306 10.0247 70.3913 10.16 71.2219 10.16C71.9593 10.16 72.4819 10.09 72.7899 9.95C73.1073 9.80067 73.2659 9.50667 73.2659 9.068ZM76.0923 4.826C76.0923 4.42467 76.2136 4.09333 76.4563 3.832C76.699 3.57067 77.021 3.44 77.4223 3.44H78.6263L78.6683 4.392H77.9263C77.6743 4.392 77.4923 4.448 77.3803 4.56C77.2776 4.672 77.2263 4.86333 77.2263 5.134V9.404L79.3403 5.75H79.8863L82.0003 9.404V3.44H83.1203V11H81.9443L79.6203 6.926L77.2683 11H76.0923V4.826ZM83.1147 11.882V13.422C83.1147 13.7673 82.9794 14.052 82.7087 14.276C82.4381 14.5 82.0741 14.612 81.6167 14.612C81.1781 14.612 80.8281 14.4953 80.5667 14.262C80.2961 14.038 80.1607 13.758 80.1607 13.422V12.638H79.4187L79.4607 11.882H81.0147V13.352C81.0147 13.5107 81.0661 13.632 81.1687 13.716C81.2714 13.8 81.4207 13.842 81.6167 13.842C81.8127 13.842 81.9667 13.7953 82.0787 13.702C82.1907 13.618 82.2467 13.5013 82.2467 13.352V11.882H83.1147ZM80.9867 1.34H84.0527L83.9967 2.166H80.1607V0.85H79.0547V0.0239995H80.9867V1.34ZM84.8927 6.198C84.8927 5.68467 84.9907 5.26467 85.1867 4.938C85.3921 4.61133 85.6721 4.28 86.0267 3.944C86.2507 3.72 86.4141 3.538 86.5167 3.398C86.6194 3.24867 86.6707 3.09 86.6707 2.922C86.6707 2.642 86.5867 2.45067 86.4187 2.348C86.2601 2.24533 86.0034 2.194 85.6487 2.194C85.1354 2.194 84.6174 2.33867 84.0947 2.628V1.732C84.3654 1.57333 84.6687 1.452 85.0047 1.368C85.3407 1.284 85.6721 1.242 85.9987 1.242C86.6054 1.242 87.0627 1.382 87.3707 1.662C87.6881 1.942 87.8467 2.334 87.8467 2.838C87.8467 3.146 87.7767 3.40267 87.6367 3.608C87.5061 3.81333 87.3007 4.056 87.0207 4.336C86.7034 4.63467 86.4607 4.91933 86.2927 5.19C86.1247 5.45133 86.0407 5.792 86.0407 6.212V9.376C86.0407 9.60933 86.0921 9.782 86.1947 9.894C86.3067 10.006 86.4747 10.062 86.6987 10.062H87.4967V11H86.1807C85.7794 11 85.4621 10.8787 85.2287 10.636C85.0047 10.384 84.8927 10.0573 84.8927 9.656V6.198ZM95.1419 8.396C95.1419 9.27333 94.8666 9.95 94.3159 10.426C93.7746 10.902 93.0186 11.14 92.0479 11.14C91.0586 11.14 90.2979 10.9067 89.7659 10.44C89.2433 9.97333 88.9819 9.29667 88.9819 8.41V7.388C88.9819 7.11733 89.0473 6.86067 89.1779 6.618C89.3179 6.366 89.5139 6.06733 89.7659 5.722C89.9526 5.45133 90.0879 5.246 90.1719 5.106C90.2559 4.966 90.2979 4.83067 90.2979 4.7C90.2979 4.55067 90.2653 4.45267 90.1999 4.406C90.1346 4.35933 90.0133 4.336 89.8359 4.336H88.8279L88.9259 3.44H90.4799C91.1239 3.44 91.4459 3.75733 91.4459 4.392C91.4459 4.68133 91.3853 4.94733 91.2639 5.19C91.1519 5.42333 90.9793 5.70333 90.7459 6.03C90.5313 6.338 90.3726 6.59 90.2699 6.786C90.1766 6.982 90.1299 7.19667 90.1299 7.43V8.536C90.1299 9.61867 90.7693 10.16 92.0479 10.16C93.3453 10.16 93.9939 9.60933 93.9939 8.508V7.542C93.9939 7.02867 93.9099 6.674 93.7419 6.478C93.5739 6.282 93.2659 6.184 92.8179 6.184H92.4259L92.4819 5.274H92.7899C93.2473 5.274 93.5599 5.17133 93.7279 4.966C93.9053 4.75133 93.9939 4.40133 93.9939 3.916V3.3H95.1419V3.902C95.1419 4.39667 95.0673 4.78867 94.9179 5.078C94.7779 5.36733 94.5073 5.582 94.1059 5.722C94.5259 5.88067 94.8013 6.10467 94.9319 6.394C95.0719 6.674 95.1419 7.066 95.1419 7.57V8.396ZM93.018 1.34H96.084L96.028 2.166H92.192V0.85H91.086V0.0239995H93.018V1.34ZM99.864 3.44H100.48C101.535 3.44 102.3 3.72467 102.776 4.294C103.252 4.86333 103.49 5.75 103.49 6.954C103.49 8.37267 103.187 9.42733 102.58 10.118C101.983 10.7993 101.185 11.14 100.186 11.14C99.6353 11.14 99.2246 11.0887 98.954 10.986L96.826 5.806H97.946L99.738 10.16L100.018 10.174C100.811 10.174 101.395 9.91267 101.768 9.39C102.151 8.858 102.342 8.05067 102.342 6.968C102.342 6.296 102.281 5.778 102.16 5.414C102.039 5.04067 101.833 4.77467 101.544 4.616C101.264 4.45733 100.867 4.378 100.354 4.378H99.864V3.44ZM108.21 6.114C108.21 5.65667 108.164 5.302 108.07 5.05C107.986 4.798 107.814 4.60667 107.552 4.476C107.3 4.34533 106.918 4.28 106.404 4.28C106.106 4.28 105.779 4.31267 105.424 4.378C105.079 4.44333 104.762 4.532 104.472 4.644V3.692C104.762 3.58 105.098 3.48667 105.48 3.412C105.863 3.33733 106.241 3.3 106.614 3.3C107.576 3.3 108.271 3.51467 108.7 3.944C109.139 4.364 109.358 5.04533 109.358 5.988V11H108.21V6.114ZM112.473 3.44V8.41C112.473 9.026 112.608 9.474 112.879 9.754C113.159 10.0247 113.607 10.16 114.223 10.16C114.68 10.16 115.109 10.0667 115.511 9.88C115.921 9.69333 116.276 9.44133 116.575 9.124V3.44H117.723V11H116.687L116.617 10.09C115.842 10.79 114.918 11.14 113.845 11.14C113.033 11.14 112.407 10.9067 111.969 10.44C111.539 9.97333 111.325 9.30133 111.325 8.424V3.44H112.473Z" fill="black"/>
</svg>
