<svg width="77" height="68" viewBox="0 0 77 68" fill="none" xmlns="http://www.w3.org/2000/svg">
<path fill-rule="evenodd" clip-rule="evenodd" d="M53.3717 12.6067C53.5525 12.8908 53.7075 13.175 53.8367 13.485C54.095 14.105 54.25 14.7767 54.25 15.5V51.6667C54.25 52.7258 53.9142 53.7333 53.3717 54.56C53.01 55.1025 52.5192 55.5933 51.9767 55.955C51.6925 56.1358 51.4083 56.2908 51.0983 56.42C50.4783 56.6783 49.8067 56.8333 49.0833 56.8333H12.9167C10.0492 56.8333 7.75 54.5083 7.75 51.6667V15.5C7.75 14.7767 7.905 14.105 8.16333 13.485C8.2925 13.175 8.4475 12.8908 8.62833 12.6067C8.99 12.0642 9.48083 11.5733 10.0233 11.2117C10.85 10.6692 11.8317 10.3333 12.9167 10.3333H15.5V5.16666H20.6667V10.3333H41.3333V5.16666H46.5V10.3333H49.0833C49.8067 10.3333 50.4783 10.4883 51.0983 10.7467C51.4083 10.8758 51.6925 11.0308 51.9767 11.2117C52.5192 11.5733 53.01 12.0642 53.3717 12.6067ZM12.9167 15.5V51.6667H49.0833V15.5H12.9167ZM31 35.8567C25.7558 35.8567 15.5 38.6467 15.5 45.105V49.0833H46.5V45.1308C46.5 38.6467 36.2442 35.8567 31 35.8567ZM31 41.0233C27.6158 41.0233 23.25 42.47 21.4675 43.9167H40.5325C38.7758 42.47 34.3842 41.0233 31 41.0233ZM31 33.5833C35.2625 33.5833 38.75 30.0958 38.75 25.8333C38.75 21.5708 35.2625 18.0833 31 18.0833C26.7375 18.0833 23.25 21.5708 23.25 25.8333C23.25 30.0958 26.7375 33.5833 31 33.5833ZM33.5833 25.8333C33.5833 24.4125 32.4208 23.25 31 23.25C29.5792 23.25 28.4167 24.4125 28.4167 25.8333C28.4167 27.2542 29.5792 28.4167 31 28.4167C32.4208 28.4167 33.5833 27.2542 33.5833 25.8333Z" fill="black" fill-opacity="0.54"/>
<path fill-rule="evenodd" clip-rule="evenodd" d="M64.99 46C59.47 46 55 50.48 55 56C55 61.52 59.47 66 64.99 66C70.52 66 75 61.52 75 56C75 50.48 70.52 46 64.99 46ZM65 64C60.58 64 57 60.42 57 56C57 51.58 60.58 48 65 48C69.42 48 73 51.58 73 56C73 60.42 69.42 64 65 64ZM64 51H65.5V56.25L70 58.92L69.25 60.15L64 57V51Z" fill="black" fill-opacity="0.54"/>
</svg>
