<svg xmlns="http://www.w3.org/2000/svg" viewBox="0 0 52.52 45.09"><defs><style>.cls-1{fill:#ed8566;}.cls-2{fill:none;}.cls-10,.cls-3,.cls-5,.cls-7,.cls-8,.cls-9{fill:#e32a25;}.cls-3,.cls-4,.cls-5,.cls-7,.cls-9{stroke:#e32a25;}.cls-3,.cls-4,.cls-5,.cls-6{stroke-miterlimit:10;}.cls-4{fill:#f6bda7;}.cls-5{stroke-width:1.5px;}.cls-6{fill:#fff;stroke-width:0.3px;}.cls-10,.cls-6,.cls-8{stroke:#fff;}.cls-10,.cls-7,.cls-8,.cls-9{stroke-linecap:round;stroke-linejoin:round;}.cls-7{stroke-width:0.8px;}.cls-8{stroke-width:0.5px;}.cls-10{stroke-width:0.7px;}</style></defs><title>center</title><g id="Layer_2" data-name="Layer 2"><g id="Layer_1-2" data-name="Layer 1"><path class="cls-1" d="M9.78,20.94,7.52,23.31V43.73A1.51,1.51,0,0,0,9.1,45.09H22a1.27,1.27,0,0,0,1.14-1.36V34.05h6.07v9.68c0,.68,0,1.36.92,1.36H43.39c.9,0,.93-.68.93-1.36V23L42,20.52"/><polygon class="cls-2" points="42.03 20.52 44.32 22.95 44.32 20.52 42.03 20.52"/><path class="cls-2" d="M9.81,42.59h11V33.36a1.74,1.74,0,0,1,1.8-1.59H30.1c.89,0,1.34.68,1.34,1.59v9.23H42V20.52h0L26.25,3.67,9.78,20.94a3.38,3.38,0,0,1,0,.47Z"/><path class="cls-2" d="M8.2,19.61c-.9,0-.92.43-.92,1.56v1.89L9.53,20.7A1.08,1.08,0,0,0,8.2,19.61Z"/><path class="cls-3" d="M44.32,23l5.17,5.52a1.19,1.19,0,0,0,.9.45,1.85,1.85,0,0,0,1.13-.45c.66-.68.66-1.15,0-1.61C41.81,16.51,36,10.2,27.15,1a1.13,1.13,0,0,0-.9-.47c-.45,0-.68.23-1.13.47L1,26.65c-.67.68-.43.32-.49.51s.26.62.49.86c.76.8,1.35.86,2,0l4.49-4.71"/><polyline class="cls-4" points="7.38 23.46 26.25 3.67 44.46 23.09"/><path class="cls-5" d="M34.73,33.62a2.08,2.08,0,0,1-2.94-.16.7.7,0,0,1-.13-.16L22.74,22.15l-2,.65a.18.18,0,0,1-.16,0l-3.22-1.63a.21.21,0,0,1-.1-.13l-.67-2.53a.19.19,0,0,1,0-.13l.5-1.27a.19.19,0,0,1,.18-.13.2.2,0,0,1,.2.11l1.35,2.67,1.93,1,2-.64.86-1.87-.74-2-2.49-1.66a.18.18,0,0,1-.09-.2.2.2,0,0,1,.15-.17l1.32-.34a.2.2,0,0,1,.13,0l2.43,1a.23.23,0,0,1,.12.12l1.24,3.39a.22.22,0,0,1,0,.16l-.89,1.91,10,10.18.15.15A2.08,2.08,0,0,1,34.73,33.62Z"/><path class="cls-6" d="M34.11,32.92a1.13,1.13,0,1,1-1.51-1.69,1.13,1.13,0,0,1,1.51,1.69Zm-1.24-1.39a.73.73,0,1,0,1,.06A.75.75,0,0,0,32.87,31.53Z"/><path class="cls-7" d="M23,27.37a.83.83,0,0,0,0-.15l.82-.52-.2-.45-.93.26a2.41,2.41,0,0,0-.86-.82l.2-1-.46-.17-.47.84a2.53,2.53,0,0,0-1.19,0l-.52-.81-.45.2.26.92-.15.11-.08.07a.69.69,0,0,0-.13.11,2.56,2.56,0,0,0-.46.58l-.94-.21-.18.46.84.48a2.67,2.67,0,0,0,0,1.19l-.81.51.2.46.93-.26a2.47,2.47,0,0,0,.86.81l-.2,1,.45.17.48-.83a2.53,2.53,0,0,0,1.19,0l.52.81.45-.2L21.88,30a2.61,2.61,0,0,0,.82-.87l.94.21.18-.46L23,28.41c0-.12,0-.23.05-.34a2.43,2.43,0,0,0,0-.27.48.48,0,0,0,0-.12l0-.2A.52.52,0,0,0,23,27.37Z"/><path class="cls-8" d="M21.67,27.36A1.27,1.27,0,1,1,20,26.72,1.27,1.27,0,0,1,21.67,27.36Z"/><path class="cls-7" d="M36.62,25.26l0-.09.5-.33L37,24.57l-.57.16a1.52,1.52,0,0,0-.53-.51l.12-.58-.28-.11-.29.52a1.55,1.55,0,0,0-.74,0l-.31-.5-.28.12.15.57-.09.07,0,0-.08.07a1.45,1.45,0,0,0-.28.36l-.58-.13-.11.28.52.29a1.55,1.55,0,0,0,0,.74l-.5.32.12.28.57-.16a1.52,1.52,0,0,0,.54.5l-.13.58.28.11.29-.52a1.43,1.43,0,0,0,.74,0l.32.5.28-.12-.16-.57a1.58,1.58,0,0,0,.5-.53l.58.12.11-.28-.52-.29a.76.76,0,0,0,0-.21,1,1,0,0,0,0-.17s0-.05,0-.07,0-.08,0-.12S36.62,25.28,36.62,25.26Z"/><path class="cls-8" d="M35.8,25.25a.78.78,0,1,1-1-.39A.77.77,0,0,1,35.8,25.25Z"/><path class="cls-9" d="M34.79,17.88a1.42,1.42,0,0,0,0-.22l1.15-.74-.28-.64-1.32.37a3.55,3.55,0,0,0-1.22-1.16l.29-1.34-.65-.25L32,15.09a3.54,3.54,0,0,0-1.68,0L29.62,14l-.65.29.37,1.31-.22.16-.11.08-.18.16a3.46,3.46,0,0,0-.65.83l-1.34-.3-.24.65,1.18.68a3.54,3.54,0,0,0,0,1.68l-1.15.74.28.64,1.32-.36A3.56,3.56,0,0,0,29.5,21.7L29.21,23l.65.25.68-1.19a3.54,3.54,0,0,0,1.68,0L33,23.2l.65-.29-.37-1.31a3.59,3.59,0,0,0,1.16-1.23l1.34.3L36,20l-1.19-.67a3.85,3.85,0,0,0,.08-.47c0-.14,0-.26,0-.39s0-.12,0-.17a1.27,1.27,0,0,0,0-.28Z"/><path class="cls-10" d="M32.92,17.86A1.79,1.79,0,1,1,30.56,17,1.79,1.79,0,0,1,32.92,17.86Z"/></g></g></svg>