<svg xmlns="http://www.w3.org/2000/svg" viewBox="0 0 29.29 42.47"><defs><style>.cls-1{fill:none;}.cls-2{fill:#e6e6e6;}.cls-3{fill:#58595b;}.cls-4{fill:#808285;}.cls-5{fill:#939598;}.cls-6{fill:#fff;}.cls-7{fill:#f9d2c1;}.cls-11,.cls-14,.cls-15,.cls-16,.cls-17,.cls-8{fill:#e32a25;}.cls-10,.cls-9{fill:#f6bda7;}.cls-10{stroke:#f6bda7;}.cls-10,.cls-11,.cls-16{stroke-miterlimit:10;}.cls-11,.cls-14,.cls-16{stroke:#e32a25;}.cls-12{fill:#e85e40;}.cls-13{fill:#eb7353;}.cls-14,.cls-15,.cls-17{stroke-linecap:round;stroke-linejoin:round;}.cls-14,.cls-17{stroke-width:0.3px;}.cls-15,.cls-17{stroke:#fff;}.cls-15{stroke-width:0.2px;}.cls-16{stroke-width:0.5px;}</style></defs><title>four-two-new</title><g id="Layer_2" data-name="Layer 2"><g id="Layer_1-2" data-name="Layer 1"><path class="cls-1" d="M20.22,5.69H9.07a1.58,1.58,0,0,0-1.41.88h14A1.58,1.58,0,0,0,20.22,5.69Z"/><path class="cls-2" d="M22.4,6.57a2.33,2.33,0,0,1,.11.7V9.21a.36.36,0,0,1-.36.35h-15a.35.35,0,0,1-.35-.35V7.27a2.33,2.33,0,0,1,.11-.7H.55V42.05H28.74V6.57Z"/><path class="cls-3" d="M0,20.65V6.45a.36.36,0,0,1,.36-.36H7.29a.35.35,0,0,1,.3.17.37.37,0,0,1,0,.34,1.5,1.5,0,0,0-.15.67V8.85H21.77V7.27a1.56,1.56,0,0,0-.15-.67.37.37,0,0,1,0-.34.35.35,0,0,1,.3-.17h7a.36.36,0,0,1,.36.36V42.11a.36.36,0,0,1-.36.36H.36A.36.36,0,0,1,0,42.11v-13m.71.16V41.76H28.58V6.8H22.43a2.42,2.42,0,0,1,.05.47V9.2a.36.36,0,0,1-.36.36h-15a.36.36,0,0,1-.36-.36V7.27a2.42,2.42,0,0,1,0-.47H.71V20.47"/><path class="cls-3" d="M20.22,5H9.07A2.3,2.3,0,0,0,6.78,7.27v2a.36.36,0,0,0,.35.36h15a.36.36,0,0,0,.36-.36v-2A2.31,2.31,0,0,0,20.22,5Z"/><path class="cls-4" d="M18.05,3.37H16.36a.34.34,0,0,0-.31.18,1.62,1.62,0,0,1-2.82,0,.33.33,0,0,0-.31-.18H11.23a.35.35,0,0,0-.35.35V6.53a.35.35,0,0,0,.35.35h6.82a.36.36,0,0,0,.36-.35V3.72A.35.35,0,0,0,18.05,3.37Z"/><path class="cls-5" d="M17,2.81A2.32,2.32,0,1,1,14.64.5,2.32,2.32,0,0,1,17,2.81Z"/><path class="cls-6" d="M16.35,2.83a1.66,1.66,0,0,1-3.31,0,1.66,1.66,0,0,1,3.31,0Z"/><path class="cls-3" d="M20.2,24.54c0-.27-.15-.49-.33-.49H4.46c-.18,0-.33.22-.33.49h0c0,.27.15.49.33.49H19.87c.18,0,.33-.22.33-.49Z"/><path class="cls-3" d="M20.2,27.11c0-.27-.15-.49-.33-.49H4.46c-.18,0-.33.22-.33.49h0c0,.27.15.49.33.49H19.87c.18,0,.33-.22.33-.49Z"/><path class="cls-3" d="M20.2,29.6c0-.27-.15-.49-.33-.49H4.46c-.18,0-.33.22-.33.49h0c0,.28.15.5.33.5H19.87c.18,0,.33-.22.33-.5Z"/><path class="cls-3" d="M25.59,24.56a.49.49,0,0,1-.48.49H21.92a.49.49,0,0,1-.49-.49h0a.49.49,0,0,1,.49-.49h3.19a.49.49,0,0,1,.48.49Z"/><path class="cls-3" d="M25.57,27.13a.48.48,0,0,1-.48.49H21.9a.49.49,0,0,1-.49-.49h0a.49.49,0,0,1,.49-.49h3.19a.48.48,0,0,1,.48.49Z"/><path class="cls-3" d="M25.57,29.66a.48.48,0,0,1-.48.49H21.9a.49.49,0,0,1-.49-.49h0a.48.48,0,0,1,.49-.48h3.19a.47.47,0,0,1,.48.48Z"/><path class="cls-3" d="M20.2,17.15c0-.27-.15-.49-.33-.49H4.46c-.18,0-.33.22-.33.49h0c0,.27.15.49.33.49H19.87c.18,0,.33-.22.33-.49Z"/><path class="cls-3" d="M20.2,19.72c0-.27-.15-.49-.33-.49H4.46c-.18,0-.33.22-.33.49h0c0,.28.15.5.33.5H19.87c.18,0,.33-.22.33-.5Z"/><path class="cls-3" d="M20.2,22.22c0-.27-.15-.49-.33-.49H4.46c-.18,0-.33.22-.33.49h0c0,.27.15.49.33.49H19.87c.18,0,.33-.22.33-.49Z"/><path class="cls-3" d="M25.59,17.17a.49.49,0,0,1-.48.49H21.92a.49.49,0,0,1-.49-.49h0a.48.48,0,0,1,.49-.48h3.19a.48.48,0,0,1,.48.48Z"/><path class="cls-3" d="M25.57,19.74a.48.48,0,0,1-.48.49H21.9a.49.49,0,0,1-.49-.49h0a.48.48,0,0,1,.49-.48h3.19a.47.47,0,0,1,.48.48Z"/><path class="cls-3" d="M25.57,22.28a.47.47,0,0,1-.48.48H21.9a.48.48,0,0,1-.49-.48h0a.49.49,0,0,1,.49-.49h3.19a.48.48,0,0,1,.48.49Z"/><path class="cls-1" d="M20.22,5.69H9.07a1.58,1.58,0,0,0-1.41.88h14A1.58,1.58,0,0,0,20.22,5.69Z"/><path class="cls-7" d="M22.4,6.57a2.33,2.33,0,0,1,.11.7V9.21a.36.36,0,0,1-.36.35h-15a.35.35,0,0,1-.35-.35V7.27a2.33,2.33,0,0,1,.11-.7H.55V42.05H28.74V6.57Z"/><path class="cls-8" d="M0,20.65V6.45a.36.36,0,0,1,.36-.36H7.29a.35.35,0,0,1,.3.17.37.37,0,0,1,0,.34,1.5,1.5,0,0,0-.15.67V8.85H21.77V7.27a1.56,1.56,0,0,0-.15-.67.37.37,0,0,1,0-.34.35.35,0,0,1,.3-.17h7a.36.36,0,0,1,.36.36V42.11a.36.36,0,0,1-.36.36H.36A.36.36,0,0,1,0,42.11v-13m.71.16V41.76H28.58V6.8H22.43a2.42,2.42,0,0,1,.05.47V9.2a.36.36,0,0,1-.36.36h-15a.36.36,0,0,1-.36-.36V7.27a2.42,2.42,0,0,1,0-.47H.71V20.47"/><path class="cls-8" d="M20.22,5H9.07A2.3,2.3,0,0,0,6.78,7.27v2a.36.36,0,0,0,.35.36h15a.36.36,0,0,0,.36-.36v-2A2.31,2.31,0,0,0,20.22,5Z"/><path class="cls-9" d="M18.05,3.37H16.36a.34.34,0,0,0-.31.18,1.62,1.62,0,0,1-2.82,0,.33.33,0,0,0-.31-.18H11.23a.35.35,0,0,0-.35.35V6.53a.35.35,0,0,0,.35.35h6.82a.36.36,0,0,0,.36-.35V3.72A.35.35,0,0,0,18.05,3.37Z"/><path class="cls-10" d="M17,2.81A2.32,2.32,0,1,1,14.64.5,2.32,2.32,0,0,1,17,2.81Z"/><path class="cls-11" d="M16.35,2.83a1.66,1.66,0,0,1-3.31,0,1.66,1.66,0,0,1,3.31,0Z"/><path class="cls-12" d="M20.2,31.85c0-.27-.15-.49-.33-.49H4.46c-.18,0-.33.22-.33.49h0c0,.27.15.49.33.49H19.87c.18,0,.33-.22.33-.49Z"/><path class="cls-12" d="M20.2,34.42c0-.27-.15-.49-.33-.49H4.46c-.18,0-.33.22-.33.49h0c0,.27.15.49.33.49H19.87c.18,0,.33-.22.33-.49Z"/><path class="cls-12" d="M20.2,36.91c0-.27-.15-.49-.33-.49H4.46c-.18,0-.33.22-.33.49h0c0,.28.15.5.33.5H19.87c.18,0,.33-.22.33-.5Z"/><path class="cls-12" d="M25.59,31.87a.49.49,0,0,1-.48.49H21.92a.49.49,0,0,1-.49-.49h0a.49.49,0,0,1,.49-.49h3.19a.49.49,0,0,1,.48.49Z"/><path class="cls-12" d="M25.57,34.44a.48.48,0,0,1-.48.49H21.9a.49.49,0,0,1-.49-.49h0A.49.49,0,0,1,21.9,34h3.19a.48.48,0,0,1,.48.49Z"/><path class="cls-12" d="M25.57,37a.48.48,0,0,1-.48.49H21.9a.49.49,0,0,1-.49-.49h0a.48.48,0,0,1,.49-.48h3.19a.47.47,0,0,1,.48.48Z"/><circle class="cls-13" cx="14.95" cy="20.34" r="8.72"/><path class="cls-8" d="M15.82,27a1,1,0,0,1-1.47-.19l-.06-.08-4.07-5.91-1,.26H9.12l-1.55-.94a.08.08,0,0,1-.05-.07l-.25-1.29a.13.13,0,0,1,0-.06l.3-.62a.09.09,0,0,1,.09-.06.1.1,0,0,1,.09.07l.59,1.38.93.56,1-.25.5-.91-.3-1L9.29,17a.1.1,0,0,1,0-.18l.68-.13h.06l1.19.57a.13.13,0,0,1,.05.07l.5,1.74a.08.08,0,0,1,0,.08l-.51.92L16,25.49l.07.08A1.05,1.05,0,0,1,15.82,27Z"/><path class="cls-6" d="M15.53,26.66a.57.57,0,1,1,.11-.8A.57.57,0,0,1,15.53,26.66ZM15,25.92a.37.37,0,0,0,.45.58.37.37,0,0,0,.06-.51A.37.37,0,0,0,15,25.92Z"/><path class="cls-14" d="M18.51,22l-.08,0-.3-.4-.22.12.17.47a1.29,1.29,0,0,0-.39.48l-.49-.07-.07.25.45.2a1.42,1.42,0,0,0,.07.61l-.39.3.12.22.46-.17.07.08,0,0a.17.17,0,0,0,.06.06,1.26,1.26,0,0,0,.32.21l-.06.5.24.07.21-.45a1.42,1.42,0,0,0,.61-.07l.29.39.23-.12-.17-.46a1.58,1.58,0,0,0,.38-.48l.49.06.07-.24-.45-.21a1.28,1.28,0,0,0-.07-.61l.4-.3-.13-.22-.46.17a1.47,1.47,0,0,0-.48-.38l.07-.49-.25-.07L19,22h-.38l-.1,0Z"/><path class="cls-15" d="M18.56,22.67a.65.65,0,0,1,.88.25.65.65,0,1,1-1.14.63A.65.65,0,0,1,18.56,22.67Z"/><path class="cls-14" d="M20.08,18.34l-.08,0-.3-.4-.22.12.17.47a1.18,1.18,0,0,0-.38.48L18.78,19l-.07.24.45.21a1.28,1.28,0,0,0,.06.61l-.39.3.13.22.46-.17.06.08,0,0,.06.06a1.11,1.11,0,0,0,.32.21l-.07.49.24.08.21-.45a1.42,1.42,0,0,0,.61-.07l.3.39.22-.12-.17-.47a1.22,1.22,0,0,0,.38-.47l.5.06.07-.24-.45-.21a1.42,1.42,0,0,0-.07-.61l.39-.3-.12-.22-.47.17a1.24,1.24,0,0,0-.47-.38l.06-.49-.24-.07-.21.45h-.38l-.09,0Z"/><path class="cls-15" d="M20.13,19a.65.65,0,1,1-.25.88A.64.64,0,0,1,20.13,19Z"/><path class="cls-16" d="M14.78,17.46l-.12,0-.47-.61-.34.19.26.72a2,2,0,0,0-.59.75l-.76-.11-.11.38.7.32a2.05,2.05,0,0,0,.1.95l-.61.46.19.35.72-.27.1.12.05.05.1.1a2,2,0,0,0,.49.32l-.1.77.38.11.32-.7a2,2,0,0,0,.94-.11l.47.61.35-.19L16.58,21a1.92,1.92,0,0,0,.59-.74l.77.1L18,20l-.69-.33a2.17,2.17,0,0,0-.11-.94l.61-.47-.19-.34-.72.26a2.22,2.22,0,0,0-.74-.59l.1-.76-.38-.11-.32.7-.27,0-.22,0H15l-.15,0Z"/><path class="cls-17" d="M14.86,18.51a1,1,0,1,1-.4,1.37A1,1,0,0,1,14.86,18.51Z"/></g></g></svg>