<svg width="88" height="76" viewBox="0 0 88 76" fill="none" xmlns="http://www.w3.org/2000/svg">
<path fill-rule="evenodd" clip-rule="evenodd" d="M66.0602 58.9216C63.0145 61.0209 59.3227 62.25 55.3438 62.25C44.9021 62.25 36.4375 53.7854 36.4375 43.3438C36.4375 32.9021 44.9021 24.4375 55.3438 24.4375C65.7854 24.4375 74.25 32.9021 74.25 43.3438C74.25 47.3227 73.0209 51.0145 70.9216 54.0602L83.5557 66.6943L78.6943 71.5557L66.0602 58.9216ZM55.3438 55.375C61.9884 55.375 67.375 49.9884 67.375 43.3438C67.375 36.6991 61.9884 31.3125 55.3438 31.3125C48.6991 31.3125 43.3125 36.6991 43.3125 43.3438C43.3125 49.9884 48.6991 55.375 55.3438 55.375Z" fill="#828282"/>
<path fill-rule="evenodd" clip-rule="evenodd" d="M43.5417 7.5H33.9625C33 4.6 30.4792 2.5 27.5 2.5C24.5208 2.5 22 4.6 21.0375 7.5H11.4583C8.9375 7.5 6.875 9.75 6.875 12.5V52.5C6.875 55.25 8.9375 57.5 11.4583 57.5H43.5417C46.0625 57.5 48.125 55.25 48.125 52.5V12.5C48.125 9.75 46.0625 7.5 43.5417 7.5ZM27.5 7.5C28.7604 7.5 29.7916 8.625 29.7916 10C29.7916 11.375 28.7604 12.5 27.5 12.5C26.2395 12.5 25.2083 11.375 25.2083 10C25.2083 8.625 26.2395 7.5 27.5 7.5ZM11.4583 12.5V52.5H43.5416V12.5H38.9583V20H16.0416V12.5H11.4583Z" fill="#828282"/>
<path d="M15.1095 37.08C14.6668 37.08 14.3095 36.968 14.0375 36.744C13.7708 36.5147 13.6375 36.1627 13.6375 35.688C13.6375 35.2347 13.7842 34.888 14.0775 34.648C14.3762 34.4027 14.7922 34.28 15.3255 34.28H16.4135V34.168C16.4135 34.008 16.3388 33.8907 16.1895 33.816C16.0455 33.736 15.8242 33.696 15.5255 33.696C15.0295 33.696 14.5362 33.7707 14.0455 33.92V32.88C14.2802 32.7947 14.5575 32.728 14.8775 32.68C15.2028 32.6267 15.5175 32.6 15.8215 32.6C16.0882 32.6 16.3495 32.6267 16.6055 32.68H18.3095L18.2375 33.776H17.7815C17.8242 33.856 17.8562 33.9627 17.8775 34.096C17.9042 34.224 17.9175 34.352 17.9175 34.48V37H16.4135V35.304H15.6695C15.4828 35.304 15.3442 35.3333 15.2535 35.392C15.1682 35.4453 15.1255 35.5467 15.1255 35.696C15.1255 35.84 15.1628 35.9413 15.2375 36C15.3122 36.0533 15.4322 36.08 15.5975 36.08C15.7522 36.08 15.8882 36.064 16.0055 36.032V36.96C15.7922 37.04 15.4935 37.08 15.1095 37.08ZM18.6297 35.92H19.8137V37H18.6297V35.92ZM21.0716 33.24L20.2156 33.368V32.112L22.5756 31.768V37H21.0716V33.24ZM25.3055 37.08C23.8602 37.08 23.1375 36.384 23.1375 34.992V34C23.1375 33.5733 23.2335 33.192 23.4255 32.856C23.6228 32.5147 23.9055 32.248 24.2735 32.056C24.6415 31.864 25.0735 31.768 25.5695 31.768C25.8522 31.768 26.1002 31.7867 26.3135 31.824C26.5268 31.856 26.7348 31.9093 26.9375 31.984V33.152C26.5962 33.0027 26.1882 32.928 25.7135 32.928C25.3455 32.928 25.0575 33 24.8495 33.144C24.6468 33.2827 24.5455 33.464 24.5455 33.688V33.832C24.6788 33.7467 24.8468 33.68 25.0495 33.632C25.2522 33.5787 25.4442 33.552 25.6255 33.552C26.2495 33.552 26.7082 33.6987 27.0015 33.992C27.3002 34.28 27.4495 34.7067 27.4495 35.272C27.4495 35.8267 27.2762 36.2667 26.9295 36.592C26.5828 36.9173 26.0415 37.08 25.3055 37.08ZM25.3135 36.016C25.5748 36.016 25.7722 35.9573 25.9055 35.84C26.0388 35.7227 26.1055 35.552 26.1055 35.328C26.1055 35.0933 26.0442 34.9173 25.9215 34.8C25.8042 34.6827 25.6068 34.624 25.3295 34.624C25.0735 34.624 24.8122 34.704 24.5455 34.864V35.24C24.5455 35.5067 24.6095 35.704 24.7375 35.832C24.8655 35.9547 25.0575 36.016 25.3135 36.016ZM29.7204 31.704H31.2644L29.3924 37H27.8484L29.7204 31.704ZM33.8449 36.032H31.5009V35.048L34.0449 31.848H35.3489V34.816H35.8129V36.032H35.3489V37H33.8449V36.032ZM34.1089 34.88V33.48L32.9489 34.88H34.1089ZM38.2196 37.08C36.7742 37.08 36.0516 36.384 36.0516 34.992V34C36.0516 33.5733 36.1476 33.192 36.3396 32.856C36.5369 32.5147 36.8196 32.248 37.1876 32.056C37.5556 31.864 37.9876 31.768 38.4836 31.768C38.7662 31.768 39.0142 31.7867 39.2276 31.824C39.4409 31.856 39.6489 31.9093 39.8516 31.984V33.152C39.5102 33.0027 39.1022 32.928 38.6276 32.928C38.2596 32.928 37.9716 33 37.7636 33.144C37.5609 33.2827 37.4596 33.464 37.4596 33.688V33.832C37.5929 33.7467 37.7609 33.68 37.9636 33.632C38.1662 33.5787 38.3582 33.552 38.5396 33.552C39.1636 33.552 39.6222 33.6987 39.9156 33.992C40.2142 34.28 40.3636 34.7067 40.3636 35.272C40.3636 35.8267 40.1902 36.2667 39.8436 36.592C39.4969 36.9173 38.9556 37.08 38.2196 37.08ZM38.2276 36.016C38.4889 36.016 38.6862 35.9573 38.8196 35.84C38.9529 35.7227 39.0196 35.552 39.0196 35.328C39.0196 35.0933 38.9582 34.9173 38.8356 34.8C38.7182 34.6827 38.5209 34.624 38.2436 34.624C37.9876 34.624 37.7262 34.704 37.4596 34.864V35.24C37.4596 35.5067 37.5236 35.704 37.6516 35.832C37.7796 35.9547 37.9716 36.016 38.2276 36.016Z" fill="#8F8F8F"/>
</svg>
