<svg xmlns="http://www.w3.org/2000/svg" viewBox="0 0 39.57 44.92"><defs><style>.cls-1{fill:none;}.cls-2,.cls-5{fill:#f9d2c1;}.cls-3{fill:#e32a25;}.cls-4{fill:#ed8566;}.cls-5{stroke:#e32a25;stroke-linecap:round;stroke-linejoin:round;stroke-width:0.8px;}</style></defs><title>four-one-new</title><g id="Layer_2" data-name="Layer 2"><g id="Layer_1-2" data-name="Layer 1"><path class="cls-1" d="M29.86,5.55H17.93a1.67,1.67,0,0,0-1.51,1h15A1.68,1.68,0,0,0,29.86,5.55Z"/><path class="cls-2" d="M32.2,6.5a2.61,2.61,0,0,1,.11.75V9.32a.38.38,0,0,1-.38.38H15.86a.38.38,0,0,1-.38-.38V7.25a2.61,2.61,0,0,1,.11-.75H8.81v38H39V6.5Z"/><path class="cls-3" d="M14.88,15.3V16a2.06,2.06,0,0,0-.35,0,2.39,2.39,0,0,0-.48,0,1.12,1.12,0,0,1,.26.81v2.49h-1V17.73H13c-.9,0-1.27.15-1.27.54s.2.45.55.45a2.06,2.06,0,0,0,.46-.07l.13.64a2,2,0,0,1-.75.12c-.84,0-1.36-.42-1.36-1.14s.7-1.22,2.16-1.22h.47v-.15c0-.51-.27-.73-.88-.73a2.6,2.6,0,0,0-1.28.33l-.3-.68a3.74,3.74,0,0,1,1.64-.39,2,2,0,0,1,1.19.29,1.31,1.31,0,0,1,1.09-.43Z"/><path class="cls-3" d="M15.47,18.82a.57.57,0,0,1,1.14,0,.57.57,0,0,1-1.14,0Z"/><path class="cls-3" d="M19.6,14.3v5.06H18.55v-4l-.82.55-.46-.64,1.49-1Z"/><path class="cls-3" d="M24.39,17.7a1.68,1.68,0,0,1-1.86,1.73c-1.28,0-1.94-.85-1.94-2.47,0-1.81.79-2.73,2.34-2.73a3.1,3.1,0,0,1,1.21.23l-.28.78a2.32,2.32,0,0,0-.92-.2c-.81,0-1.26.51-1.31,1.52a1.37,1.37,0,0,1,1.09-.48A1.54,1.54,0,0,1,24.39,17.7Zm-1,0a.81.81,0,0,0-.86-.88.87.87,0,0,0-.89.65c.07.74.37,1.12.91,1.12A.81.81,0,0,0,23.39,17.74Z"/><path class="cls-3" d="M27.09,14.08H28L25.52,20.5h-.85Z"/><path class="cls-3" d="M32.38,17.59v.76h-.6v1h-1v-1H28.49v-.67l2.22-3.38h1.07v3.29Zm-1.62,0V15.52l-1.33,2.07Z"/><path class="cls-3" d="M36.64,17.7a1.68,1.68,0,0,1-1.86,1.73c-1.27,0-1.93-.85-1.93-2.47,0-1.81.79-2.73,2.34-2.73a3.1,3.1,0,0,1,1.21.23l-.28.78a2.32,2.32,0,0,0-.92-.2c-.81,0-1.26.51-1.31,1.52A1.36,1.36,0,0,1,35,16.08,1.53,1.53,0,0,1,36.64,17.7Zm-1,0a.81.81,0,0,0-.87-.88.87.87,0,0,0-.88.65c.06.74.37,1.12.91,1.12A.81.81,0,0,0,35.65,17.74Z"/><path class="cls-3" d="M8.22,21.57V6.36A.39.39,0,0,1,8.6,6H16a.38.38,0,0,1,.32.18.38.38,0,0,1,0,.37,1.71,1.71,0,0,0-.15.71v1.7H31.52V7.24a1.6,1.6,0,0,0-.16-.71.4.4,0,0,1,0-.37A.37.37,0,0,1,31.71,6h7.48a.39.39,0,0,1,.38.38V44.54a.38.38,0,0,1-.38.38H8.6a.38.38,0,0,1-.38-.38V30.66m.76.17V44.16H38.81V6.75H32.23a2,2,0,0,1,.05.49V9.32a.38.38,0,0,1-.38.38H15.83a.38.38,0,0,1-.38-.38V7.24a2,2,0,0,1,.05-.49H9V21.38"/><path class="cls-4" d="M28.34,22.53H14.18a.38.38,0,1,1,0-.76H28.34a.38.38,0,1,1,0,.76Z"/><path class="cls-4" d="M35.19,22.53H31.37a.38.38,0,0,1,0-.76h3.82a.38.38,0,1,1,0,.76Z"/><path class="cls-4" d="M28.34,25.88H13.71a.38.38,0,1,1,0-.76H28.34a.38.38,0,1,1,0,.76Z"/><path class="cls-4" d="M35.19,25.88H31.37a.38.38,0,0,1,0-.76h3.82a.38.38,0,1,1,0,.76Z"/><path class="cls-4" d="M28.34,29.23H12.52a.38.38,0,0,1,0-.76H28.34a.38.38,0,1,1,0,.76Z"/><path class="cls-4" d="M35.19,29.23H31.37a.38.38,0,0,1,0-.76h3.82a.38.38,0,0,1,0,.76Z"/><path class="cls-4" d="M28.34,32.58H12.52a.38.38,0,0,1,0-.76H28.34a.38.38,0,1,1,0,.76Z"/><path class="cls-4" d="M35.19,32.58H31.37a.38.38,0,1,1,0-.76h3.82a.38.38,0,0,1,0,.76Z"/><path class="cls-4" d="M28.34,35.93H12.52a.38.38,0,1,1,0-.76H28.34a.38.38,0,1,1,0,.76Z"/><path class="cls-4" d="M35.19,35.93H31.37a.38.38,0,1,1,0-.76h3.82a.38.38,0,1,1,0,.76Z"/><path class="cls-4" d="M28.34,39.28H12.52a.38.38,0,1,1,0-.76H28.34a.38.38,0,1,1,0,.76Z"/><path class="cls-4" d="M35.19,39.28H31.37a.38.38,0,0,1,0-.76h3.82a.38.38,0,1,1,0,.76Z"/><path class="cls-5" d="M7.28,34.82a6,6,0,1,1,6.52-5.36A6,6,0,0,1,7.28,34.82Z"/><path class="cls-5" d="M8.59,21.46a7.46,7.46,0,1,0,6.7,8.14A7.43,7.43,0,0,0,8.59,21.46Z"/><path class="cls-5" d="M8.44,22.94A6,6,0,1,1,1.92,28.3,6,6,0,0,1,8.44,22.94Z"/><path class="cls-3" d="M12,35.06a7,7,0,0,0,1.08-.88l1.08,1.31-1.08.89Z"/><path class="cls-3" d="M17.85,43.8l-5-6.58a.48.48,0,0,1,.06-.7l1.41-1.16a.49.49,0,0,1,.7.07l5.49,6.19A1.65,1.65,0,0,1,21,42.91a1.76,1.76,0,0,1-1.9,1.56A1.81,1.81,0,0,1,17.85,43.8Z"/><path class="cls-3" d="M21,42.91a1.76,1.76,0,0,1-1.9,1.56,1.81,1.81,0,0,1-1.23-.67l-5-6.58a.48.48,0,0,1,.06-.7l1.41-1.16a.49.49,0,0,1,.7.07l5.49,6.19A1.65,1.65,0,0,1,21,42.91Z"/><path class="cls-3" d="M12,35.06l1.08,1.32,1.08-.89-1.08-1.31A7,7,0,0,1,12,35.06Z"/><path class="cls-3" d="M29.86,4.77H17.93a2.47,2.47,0,0,0-2.45,2.48V9.34a.38.38,0,0,0,.38.38H31.93a.38.38,0,0,0,.38-.38V7.25A2.47,2.47,0,0,0,29.86,4.77Z"/><path class="cls-4" d="M27.54,3.07h-1.8a.36.36,0,0,0-.33.19,1.74,1.74,0,0,1-3,0,.36.36,0,0,0-.33-.19h-1.8a.38.38,0,0,0-.38.38v3a.38.38,0,0,0,.38.38h7.29a.38.38,0,0,0,.38-.38v-3A.38.38,0,0,0,27.54,3.07Z"/><path class="cls-4" d="M26.38,2.48A2.49,2.49,0,1,1,23.89,0,2.47,2.47,0,0,1,26.38,2.48Z"/><path class="cls-3" d="M25.72,2.49a1.77,1.77,0,0,1-3.54,0,1.77,1.77,0,0,1,3.54,0Z"/></g></g></svg>