<svg width="55" height="55" viewBox="0 0 55 55" fill="none" xmlns="http://www.w3.org/2000/svg">
<path fill-rule="evenodd" clip-rule="evenodd" d="M30.1506 5.22522L48.6012 15.4755C51.022 16.8204 51.022 19.8456 48.6012 21.1905L45.4947 22.9163L48.6012 24.6422C51.022 25.9871 51.022 29.0123 48.6012 30.3572L45.4947 32.083L48.6012 33.8089C51.022 35.1538 51.022 38.1789 48.6012 39.5238L30.1506 49.7741C28.6093 50.6304 26.391 50.6304 24.8497 49.7741L6.3991 39.5238C3.97829 38.1789 3.97829 35.1538 6.3991 33.8089L9.50566 32.083L6.3991 30.3572C3.97829 29.0123 3.97829 25.9871 6.3991 24.6422L9.50567 22.9163L6.3991 21.1905C3.97829 19.8456 3.97829 16.8204 6.3991 15.4755L24.8497 5.22522C26.391 4.36894 28.6093 4.36894 30.1506 5.22522ZM30.1506 31.4408L40.7758 25.5379L44.307 27.4997L40.7758 29.4614L36.057 32.083L27.9248 36.6009C27.7678 36.6882 27.2326 36.6882 27.0755 36.6009L18.9433 32.083L14.2245 29.4614L10.6933 27.4997L14.2245 25.5379L24.8497 31.4408C26.391 32.2971 28.6093 32.2971 30.1506 31.4408ZM14.2245 34.7046L10.6933 36.6663L27.0755 45.7676C27.2326 45.8548 27.7678 45.8548 27.9248 45.7676L44.307 36.6663L40.7758 34.7046L30.1506 40.6075C28.6093 41.4638 26.391 41.4638 24.8497 40.6075L14.2245 34.7046ZM27.0754 9.23177C27.2325 9.14453 27.7676 9.14453 27.9247 9.23177L44.3069 18.333L27.9247 27.4342C27.7676 27.5215 27.2325 27.5215 27.0754 27.4342L10.6932 18.333L27.0754 9.23177Z" fill="#828282"/>
</svg>
