<svg width="64" height="64" viewBox="0 0 64 64" fill="none" xmlns="http://www.w3.org/2000/svg">
<path fill-rule="evenodd" clip-rule="evenodd" d="M56.0002 10.6663V37.333C56.0002 40.2785 53.6124 42.6664 50.6668 42.6664H34.6668V46.4898L46.7055 53.713L43.9615 58.2863L34.6668 52.7095V58.6664H29.3335V52.7095L20.0388 58.2863L17.2948 53.713L29.3335 46.4898V42.6664H13.3335C10.388 42.6664 8.00016 40.2785 8.00016 37.333V10.6663H5.3335V5.33301H58.6668V10.6663H56.0002ZM13.3335 10.6663V37.333H50.6668V10.6663H13.3335ZM21.3335 31.9997H26.6668V21.333H21.3335V31.9997ZM34.6668 31.9997H29.3335V15.9997H34.6668V31.9997ZM37.3335 31.9997H42.6668V23.9997H37.3335V31.9997Z" fill="#828282"/>
</svg>
