<svg xmlns="http://www.w3.org/2000/svg" viewBox="0 0 37.7 44.14"><defs><style>.cls-1{fill:none;}.cls-2{fill:#e6e6e6;}.cls-3{fill:#58595b;}.cls-4{fill:#808285;}.cls-5{fill:#939598;}.cls-6{fill:#fff;}.cls-13,.cls-7{fill:#f9d2c1;}.cls-11,.cls-12,.cls-8{fill:#e32a25;}.cls-10,.cls-9{fill:#f6bda7;}.cls-10{stroke:#f6bda7;}.cls-10,.cls-11,.cls-12{stroke-miterlimit:10;}.cls-11,.cls-12,.cls-13{stroke:#e32a25;}.cls-12{stroke-width:0.3px;}.cls-13{stroke-linecap:round;stroke-linejoin:round;stroke-width:0.5px;}</style></defs><title>four-three-new</title><g id="Layer_2" data-name="Layer 2"><g id="Layer_1-2" data-name="Layer 1"><path class="cls-1" d="M17.46,5H7.83a1.38,1.38,0,0,0-1.22.76H18.68A1.35,1.35,0,0,0,17.46,5Z"/><path class="cls-2" d="M19.35,5.74a2,2,0,0,1,.09.61V8a.31.31,0,0,1-.31.31h-13A.3.3,0,0,1,5.86,8V6.35A2,2,0,0,1,6,5.74H.47V36.39H24.82V5.74Z"/><path class="cls-3" d="M0,17.91V5.64a.31.31,0,0,1,.31-.31h6a.29.29,0,0,1,.26.14.29.29,0,0,1,0,.3,1.36,1.36,0,0,0-.13.57V7.71H18.8V6.34a1.28,1.28,0,0,0-.13-.57.35.35,0,0,1,0-.3A.31.31,0,0,1,19,5.33h6a.3.3,0,0,1,.3.31v30.8a.3.3,0,0,1-.3.31H.31A.31.31,0,0,1,0,36.44V25.24m.61.13V36.13H24.68V5.94H19.37a1.83,1.83,0,0,1,.05.4V8a.3.3,0,0,1-.31.3h-13A.3.3,0,0,1,5.83,8V6.34a2.71,2.71,0,0,1,0-.4H.61V17.75"/><path class="cls-3" d="M17.46,4.35H7.83a2,2,0,0,0-2,2V8a.3.3,0,0,0,.3.31h13A.31.31,0,0,0,19.44,8V6.35A2,2,0,0,0,17.46,4.35Z"/><path class="cls-4" d="M15.59,3H14.13a.28.28,0,0,0-.26.15,1.4,1.4,0,0,1-2.44,0A.31.31,0,0,0,11.16,3H9.7a.3.3,0,0,0-.3.3V5.71a.3.3,0,0,0,.3.3h5.89a.3.3,0,0,0,.31-.3V3.28A.3.3,0,0,0,15.59,3Z"/><path class="cls-5" d="M14.65,2.5a2,2,0,1,1-2-2A2,2,0,0,1,14.65,2.5Z"/><path class="cls-6" d="M14.12,2.51a1.43,1.43,0,0,1-2.86,0,1.43,1.43,0,0,1,2.86,0Z"/><path class="cls-3" d="M17.44,21.26c0-.23-.12-.42-.28-.42H3.85c-.15,0-.28.19-.28.42h0c0,.24.13.43.28.43H17.16c.16,0,.28-.19.28-.43Z"/><path class="cls-3" d="M17.44,23.48c0-.23-.12-.42-.28-.42H3.85c-.15,0-.28.19-.28.42h0c0,.24.13.43.28.43H17.16c.16,0,.28-.19.28-.43Z"/><path class="cls-3" d="M17.44,25.64c0-.24-.12-.43-.28-.43H3.85c-.15,0-.28.19-.28.43h0c0,.23.13.42.28.42H17.16c.16,0,.28-.19.28-.42Z"/><path class="cls-3" d="M22.11,21.28a.42.42,0,0,1-.42.42H18.93a.42.42,0,0,1-.42-.42h0a.42.42,0,0,1,.42-.42h2.76a.42.42,0,0,1,.42.42Z"/><path class="cls-3" d="M22.09,23.5a.42.42,0,0,1-.42.42H18.92a.42.42,0,0,1-.42-.42h0a.42.42,0,0,1,.42-.42h2.75a.42.42,0,0,1,.42.42Z"/><path class="cls-3" d="M22.09,25.69a.42.42,0,0,1-.42.42H18.92a.42.42,0,0,1-.42-.42h0a.42.42,0,0,1,.42-.42h2.75a.42.42,0,0,1,.42.42Z"/><path class="cls-3" d="M17.44,14.88c0-.23-.12-.42-.28-.42H3.85c-.15,0-.28.19-.28.42h0c0,.24.13.43.28.43H17.16c.16,0,.28-.19.28-.43Z"/><path class="cls-3" d="M17.44,17.1c0-.23-.12-.42-.28-.42H3.85c-.15,0-.28.19-.28.42h0c0,.24.13.43.28.43H17.16c.16,0,.28-.19.28-.43Z"/><path class="cls-3" d="M17.44,19.26c0-.24-.12-.43-.28-.43H3.85c-.15,0-.28.19-.28.43h0c0,.23.13.42.28.42H17.16c.16,0,.28-.19.28-.42Z"/><path class="cls-3" d="M22.11,14.9a.42.42,0,0,1-.42.42H18.93a.42.42,0,0,1-.42-.42h0a.42.42,0,0,1,.42-.42h2.76a.42.42,0,0,1,.42.42Z"/><path class="cls-3" d="M22.09,17.12a.42.42,0,0,1-.42.42H18.92a.42.42,0,0,1-.42-.42h0a.42.42,0,0,1,.42-.42h2.75a.42.42,0,0,1,.42.42Z"/><path class="cls-3" d="M22.09,19.31a.42.42,0,0,1-.42.42H18.92a.42.42,0,0,1-.42-.42h0a.42.42,0,0,1,.42-.42h2.75a.42.42,0,0,1,.42.42Z"/><path class="cls-1" d="M17.46,5H7.83a1.38,1.38,0,0,0-1.22.76H18.68A1.35,1.35,0,0,0,17.46,5Z"/><path class="cls-7" d="M19.35,5.74a2,2,0,0,1,.09.61V8a.31.31,0,0,1-.31.31h-13A.3.3,0,0,1,5.86,8V6.35A2,2,0,0,1,6,5.74H.47V36.39H24.82V5.74Z"/><path class="cls-8" d="M0,17.91V5.64a.31.31,0,0,1,.31-.31h6a.29.29,0,0,1,.26.14.29.29,0,0,1,0,.3,1.36,1.36,0,0,0-.13.57V7.71H18.8V6.34a1.28,1.28,0,0,0-.13-.57.35.35,0,0,1,0-.3A.31.31,0,0,1,19,5.33h6a.3.3,0,0,1,.3.31v30.8a.3.3,0,0,1-.3.31H.31A.31.31,0,0,1,0,36.44V25.24m.61.13V36.13H24.68V5.94H19.37a1.83,1.83,0,0,1,.05.4V8a.3.3,0,0,1-.31.3h-13A.3.3,0,0,1,5.83,8V6.34a2.71,2.71,0,0,1,0-.4H.61V17.75"/><path class="cls-8" d="M17.46,4.35H7.83a2,2,0,0,0-2,2V8a.3.3,0,0,0,.3.31h13A.31.31,0,0,0,19.44,8V6.35A2,2,0,0,0,17.46,4.35Z"/><path class="cls-9" d="M15.59,3H14.13a.28.28,0,0,0-.26.15,1.4,1.4,0,0,1-2.44,0A.31.31,0,0,0,11.16,3H9.7a.3.3,0,0,0-.3.3V5.71a.3.3,0,0,0,.3.3h5.89a.3.3,0,0,0,.31-.3V3.28A.3.3,0,0,0,15.59,3Z"/><path class="cls-10" d="M14.65,2.5a2,2,0,1,1-2-2A2,2,0,0,1,14.65,2.5Z"/><path class="cls-11" d="M14.12,2.51a1.43,1.43,0,0,1-2.86,0,1.43,1.43,0,0,1,2.86,0Z"/><path class="cls-8" d="M14.8,14.88H10.35a.23.23,0,0,1-.24-.23V10.19a.24.24,0,0,1,.24-.24A4.71,4.71,0,0,1,15,14.65.23.23,0,0,1,14.8,14.88Zm-4.22-.47h4a4.23,4.23,0,0,0-4-4Z"/><path class="cls-12" d="M20.87,20.08H9.6a.23.23,0,0,1-.23-.24.23.23,0,0,1,.23-.23H20.87a.23.23,0,0,1,.23.23A.23.23,0,0,1,20.87,20.08Z"/><path class="cls-12" d="M16.26,19.74A.23.23,0,0,1,16,19.5V15.64a.23.23,0,0,1,.23-.24.24.24,0,0,1,.24.24V19.5A.24.24,0,0,1,16.26,19.74Z"/><path class="cls-12" d="M18.54,19.78a.23.23,0,0,1-.23-.23V13.13a.23.23,0,0,1,.23-.24.24.24,0,0,1,.24.24v6.42A.23.23,0,0,1,18.54,19.78Z"/><path class="cls-12" d="M20.27,19.79a.22.22,0,0,1-.22-.22v-5a.22.22,0,1,1,.44,0v5A.22.22,0,0,1,20.27,19.79Z"/><path class="cls-12" d="M18.67,34.32H6a.11.11,0,0,1-.11-.11V21.59A.11.11,0,0,1,6,21.48a.1.1,0,0,1,.1.11V34.11H18.67a.1.1,0,0,1,.11.1A.11.11,0,0,1,18.67,34.32Z"/><path class="cls-12" d="M6,34.32l0,0a.1.1,0,0,1,0-.14L8.44,29.6a.1.1,0,0,1,.14,0,.1.1,0,0,1,0,.14L6.13,34.26A.1.1,0,0,1,6,34.32ZM11,31.17a.09.09,0,0,1-.07,0L9.22,29.61a.11.11,0,1,1,.14-.16L11,31a.11.11,0,0,1,0,.14A.1.1,0,0,1,11,31.17Zm.58-.19h0a.11.11,0,0,1-.09-.13l.83-4.13a.1.1,0,1,1,.2,0l-.82,4.13A.11.11,0,0,1,11.53,31Zm2.83-2.68a.11.11,0,0,1-.08,0l-1.46-1.61a.1.1,0,1,1,.15-.14l1.47,1.6a.11.11,0,0,1,0,.15A.09.09,0,0,1,14.36,28.3Zm.71-.1H15a.11.11,0,0,1,0-.14l2.36-4.67a.11.11,0,1,1,.19.09l-2.36,4.67A.1.1,0,0,1,15.07,28.2Z"/><path class="cls-12" d="M17.55,24.71a.11.11,0,0,1-.1-.09l-.11-1-.89.52a.1.1,0,0,1-.14,0,.1.1,0,0,1,0-.15l1-.6a.09.09,0,0,1,.1,0,.09.09,0,0,1,.06.08l.13,1.19a.1.1,0,0,1-.09.11Z"/><path class="cls-12" d="M8.83,29.83a.73.73,0,1,1,0-1.46.73.73,0,1,1,0,1.46Zm0-1.25a.52.52,0,1,0,.52.52A.52.52,0,0,0,8.83,28.58Z"/><path class="cls-12" d="M11.41,32.22a.73.73,0,1,1,0-1.46.73.73,0,0,1,0,1.46Zm0-1.25a.52.52,0,0,0,0,1,.52.52,0,0,0,0-1Z"/><path class="cls-12" d="M12.47,26.86a.74.74,0,1,1,.73-.73A.73.73,0,0,1,12.47,26.86Zm0-1.25a.52.52,0,0,0-.52.52.52.52,0,1,0,1,0A.52.52,0,0,0,12.47,25.61Z"/><path class="cls-12" d="M14.78,29.39a.74.74,0,1,1,.74-.73A.73.73,0,0,1,14.78,29.39Zm0-1.25a.52.52,0,0,0-.52.52.53.53,0,0,0,.52.52.52.52,0,0,0,.52-.52A.52.52,0,0,0,14.78,28.14Z"/><path class="cls-13" d="M35.27,25.68a1.9,1.9,0,0,1,2.18,1.91h-4V27.4A1.86,1.86,0,0,1,35.27,25.68Z"/><path class="cls-13" d="M31.71,43.76s-13.59.06-14.76,0-1.69-1.59-1.69-1.59l3.62,0,11.38.09A1.57,1.57,0,0,0,31.71,43.76Z"/><path class="cls-13" d="M30.26,42.29,18.88,42.2V27.13a1.56,1.56,0,0,1,1.66-1.45H35.27a1.86,1.86,0,0,0-1.8,1.72c0,.07,0,.13,0,.19h0v14.5c0,1.22-.12,1.67-1.76,1.67A1.57,1.57,0,0,1,30.26,42.29Z"/><path class="cls-13" d="M34.84,25.67c1-.08,2.61.56,2.61,1.92h-4"/><path class="cls-13" d="M18.88,42.09v-15a1.56,1.56,0,0,1,1.66-1.45H35.28"/><path class="cls-13" d="M31.71,43.86a1.57,1.57,0,0,1-1.45-1.47l-11.38-.1-3.62,0s.51,1.54,1.69,1.6,14.76,0,14.76,0c1.64,0,1.77-.45,1.77-1.68V27"/><line class="cls-13" x1="28.47" y1="39.14" x2="21.66" y2="39.14"/><line class="cls-13" x1="26.89" y1="36.02" x2="21.66" y2="36.02"/><line class="cls-13" x1="28.47" y1="32.89" x2="21.66" y2="32.89"/><line class="cls-13" x1="25.68" y1="29.77" x2="21.66" y2="29.77"/><line class="cls-13" x1="27.79" y1="29.77" x2="28.63" y2="29.77"/><line class="cls-13" x1="29.8" y1="32.89" x2="30.64" y2="32.89"/><line class="cls-13" x1="28.52" y1="36.02" x2="29.36" y2="36.02"/><line class="cls-13" x1="30.18" y1="39.14" x2="31.02" y2="39.14"/><path class="cls-8" d="M14.06,15.15H9.84V10.93a.23.23,0,0,0-.24-.23A4.69,4.69,0,0,0,8.93,20a4.57,4.57,0,0,0,.67,0,4.7,4.7,0,0,0,4.69-4.69A.23.23,0,0,0,14.06,15.15Z"/></g></g></svg>