<svg width="86" height="71" viewBox="0 0 86 71" fill="none" xmlns="http://www.w3.org/2000/svg">
<path fill-rule="evenodd" clip-rule="evenodd" d="M19.0833 1.41699H33.8368L41.75 9.33019V29.7503C41.75 31.3151 40.4815 32.5837 38.9167 32.5837H19.0833C17.5185 32.5837 16.25 31.3151 16.25 29.7503V4.25033C16.25 2.68552 17.5185 1.41699 19.0833 1.41699ZM30.4166 4.25033H19.0834V29.7503H38.9167V12.7503H33.25C31.6852 12.7503 30.4166 11.4818 30.4166 9.91699V4.25033ZM33.25 4.83706V9.91699H38.3299L33.25 4.83706Z" fill="#828282"/>
<path fill-rule="evenodd" clip-rule="evenodd" d="M13.9134 25.1722C13.5064 25.1713 13.1141 25.2174 12.7413 25.3049C12.2302 24.1785 11.5551 23.1679 10.7873 22.4001C9.48407 21.0968 7.42872 20.583 4.5835 20.583V25.1663C6.32161 25.1663 7.32181 25.4164 7.54638 25.641C8.41256 26.5071 9.16683 28.2671 9.16683 29.7497L9.18986 30.0738L11.4354 45.7925C7.67806 45.9874 4.76728 48.9053 4.58631 52.5528L4.5835 54.958C4.80538 58.7254 7.70647 61.6234 11.3284 61.8293L11.8487 61.8301C12.7916 64.5019 15.339 66.4163 18.3335 66.4163C21.3269 66.4163 23.8735 64.5032 24.8173 61.833H30.183C31.1268 64.5032 33.6734 66.4163 36.6668 66.4163C40.4638 66.4163 43.5418 63.3383 43.5418 59.5413C43.5418 55.7444 40.4638 52.6663 36.6668 52.6663C33.6734 52.6663 31.1268 54.5794 30.183 57.2497H24.8173C23.8735 54.5794 21.3269 52.6663 18.3335 52.6663C15.3401 52.6663 12.7935 54.5794 11.8497 57.2497H11.4585C10.2898 57.1795 9.24139 56.1323 9.16272 54.8208L9.16683 52.6663C9.22862 51.4777 10.2698 50.4365 11.5721 50.3719L16.0961 50.373L16.1289 50.3747H39.2263L39.5645 50.2673C41.3021 49.716 42.6931 48.4076 43.3517 46.7138L43.5931 46.236L43.8848 45.6582L44.3775 44.6819C45.189 43.0732 46.0005 41.4618 46.7914 39.8876C48.7283 36.0313 49.9466 33.5806 50.2163 32.9788C51.6017 29.8882 48.7953 27.5095 45.9268 27.4588L13.9134 25.1722ZM38.4301 45.7913H16.3005C16.1533 45.7504 16.0412 45.6258 16.0192 45.4705L13.7736 29.7514L45.5891 32.0297C45.0324 33.165 44.0205 35.1927 42.6956 37.8303L42.6624 37.8964C41.9062 39.4018 41.0958 41.011 40.2854 42.6175L39.7932 43.5928L39.5019 44.1696L39.2049 44.7574L39.0931 45.0173C38.9735 45.3508 38.7358 45.6249 38.4301 45.7913ZM36.6668 61.833C37.9325 61.833 38.9585 60.807 38.9585 59.5413C38.9585 58.2757 37.9325 57.2497 36.6668 57.2497C35.4012 57.2497 34.3751 58.2757 34.3751 59.5413C34.3751 60.807 35.4012 61.833 36.6668 61.833ZM20.6252 59.5413C20.6252 60.807 19.5992 61.833 18.3335 61.833C17.0679 61.833 16.0419 60.807 16.0419 59.5413C16.0419 58.2757 17.0679 57.2497 18.3335 57.2497C19.5992 57.2497 20.6252 58.2757 20.6252 59.5413Z" fill="#828282"/>
<path d="M15.9678 29.75L42.5807 31.914L36.7017 37.2903H15.9678V29.75Z" fill="white"/>
<path fill-rule="evenodd" clip-rule="evenodd" d="M79.5858 39.0001H65V37.0001H79.5858L73.2929 30.7072L74.7071 29.293L83.4142 38.0001L74.7071 46.7072L73.2929 45.293L79.5858 39.0001Z" fill="#828282"/>
<path d="M23.8214 15.56H26.6914C27.4047 15.56 27.9414 15.7567 28.3014 16.15C28.6681 16.5433 28.8514 17.0633 28.8514 17.71C28.8514 18.35 28.6514 18.8633 28.2514 19.25C27.8581 19.6367 27.3247 19.83 26.6514 19.83H24.9114V22H23.8214V15.56ZM26.4514 18.97C26.8714 18.97 27.1947 18.86 27.4214 18.64C27.6481 18.4133 27.7614 18.1033 27.7614 17.71C27.7614 17.2967 27.6547 16.9767 27.4414 16.75C27.2281 16.5233 26.9147 16.41 26.5014 16.41H24.9114V18.97H26.4514ZM32.3159 22.1C31.2893 22.1 30.5226 21.8333 30.0159 21.3C29.5159 20.76 29.2659 19.9267 29.2659 18.8C29.2659 17.64 29.5159 16.7933 30.0159 16.26C30.5159 15.7267 31.2826 15.46 32.3159 15.46C33.3493 15.46 34.1159 15.7267 34.6159 16.26C35.1159 16.7933 35.3659 17.64 35.3659 18.8C35.3659 19.9267 35.1126 20.76 34.6059 21.3C34.1059 21.8333 33.3426 22.1 32.3159 22.1ZM32.3159 21.18C32.9959 21.18 33.4926 20.9933 33.8059 20.62C34.1193 20.2467 34.2759 19.64 34.2759 18.8C34.2759 17.9267 34.1193 17.3067 33.8059 16.94C33.4993 16.5733 33.0026 16.39 32.3159 16.39C31.6359 16.39 31.1393 16.5733 30.8259 16.94C30.5193 17.3067 30.3659 17.9267 30.3659 18.8C30.3659 19.6333 30.5226 20.24 30.8359 20.62C31.1493 20.9933 31.6426 21.18 32.3159 21.18Z" fill="#8F8F8F"/>
</svg>
