<svg width="81" height="72" viewBox="0 0 81 72" fill="none" xmlns="http://www.w3.org/2000/svg">
<path fill-rule="evenodd" clip-rule="evenodd" d="M34.3736 16.5158L19.2403 31.6491C18.5737 32.3158 18.5737 33.3658 19.2403 33.9991L23.0737 37.8325C23.7236 38.4825 24.7736 38.4825 25.4236 37.8325L40.607 22.6491C44.4736 24.0991 48.9903 23.2825 52.0903 20.1825C55.9236 16.3658 56.2736 10.3825 53.1736 6.14914L46.7903 12.5325L44.4236 10.1825L50.8236 3.76581C46.5736 0.665805 40.607 1.0158 36.7736 4.84914C33.6236 8.01581 32.8236 12.6158 34.3736 16.5158ZM40.007 18.5491L24.2403 34.3157L22.7737 32.8324L38.5237 17.0824C37.757 16.0991 37.257 14.9991 37.057 13.8157C36.6403 11.4991 37.3237 9.01574 39.1237 7.21574C40.707 5.64908 42.7903 4.91574 44.857 5.03241L39.707 10.1824L46.7737 17.2491L51.9237 12.0991C52.0403 14.1657 51.307 16.2657 49.7237 17.8324C47.9903 19.5657 45.607 20.2491 43.3403 19.9157C42.157 19.7491 41.0237 19.2991 40.007 18.5491Z" fill="black" fill-opacity="0.54"/>
<path fill-rule="evenodd" clip-rule="evenodd" d="M13.9134 26.1722C13.5064 26.1713 13.1141 26.2174 12.7413 26.3049C12.2302 25.1785 11.5551 24.1679 10.7873 23.4001C9.48407 22.0968 7.42872 21.583 4.5835 21.583V26.1663C6.32161 26.1663 7.32181 26.4164 7.54638 26.641C8.41256 27.5071 9.16683 29.2671 9.16683 30.7497L9.18986 31.0738L11.4354 46.7925C7.67806 46.9874 4.76728 49.9053 4.58631 53.5528L4.5835 55.958C4.80538 59.7254 7.70647 62.6234 11.3284 62.8293L11.8487 62.8301C12.7916 65.5019 15.339 67.4163 18.3335 67.4163C21.3269 67.4163 23.8735 65.5032 24.8173 62.833H30.183C31.1268 65.5032 33.6734 67.4163 36.6668 67.4163C40.4638 67.4163 43.5418 64.3383 43.5418 60.5413C43.5418 56.7444 40.4638 53.6663 36.6668 53.6663C33.6734 53.6663 31.1268 55.5794 30.183 58.2497H24.8173C23.8735 55.5794 21.3269 53.6663 18.3335 53.6663C15.3401 53.6663 12.7935 55.5794 11.8497 58.2497H11.4585C10.2898 58.1795 9.24139 57.1323 9.16272 55.8208L9.16683 53.6663C9.22862 52.4777 10.2698 51.4365 11.5721 51.3719L16.0961 51.373L16.1289 51.3747H39.2263L39.5645 51.2673C41.3021 50.716 42.6931 49.4076 43.3517 47.7138L43.5931 47.236L43.8848 46.6582L44.3775 45.6819C45.189 44.0732 46.0005 42.4618 46.7914 40.8876C48.7283 37.0313 49.9466 34.5806 50.2163 33.9788C51.6017 30.8882 48.7953 28.5095 45.9268 28.4588L13.9134 26.1722ZM38.4301 46.7913H16.3005C16.1533 46.7504 16.0412 46.6258 16.0192 46.4705L13.7736 30.7514L45.5891 33.0297C45.0324 34.165 44.0205 36.1927 42.6956 38.8303L42.6624 38.8964C41.9062 40.4018 41.0958 42.011 40.2854 43.6175L39.7932 44.5928L39.5019 45.1696L39.2049 45.7574L39.0931 46.0173C38.9735 46.3508 38.7358 46.6249 38.4301 46.7913ZM36.6668 62.833C37.9325 62.833 38.9585 61.807 38.9585 60.5413C38.9585 59.2757 37.9325 58.2497 36.6668 58.2497C35.4012 58.2497 34.3751 59.2757 34.3751 60.5413C34.3751 61.807 35.4012 62.833 36.6668 62.833ZM20.6252 60.5413C20.6252 61.807 19.5992 62.833 18.3335 62.833C17.0679 62.833 16.0419 61.807 16.0419 60.5413C16.0419 59.2757 17.0679 58.2497 18.3335 58.2497C19.5992 58.2497 20.6252 59.2757 20.6252 60.5413Z" fill="#828282"/>
<path d="M15.9678 30.75L42.5807 32.914L36.7017 38.2903H15.9678V30.75Z" fill="white"/>
<path fill-rule="evenodd" clip-rule="evenodd" d="M74.5858 46.0001H60V44.0001H74.5858L68.2929 37.7072L69.7071 36.293L78.4142 45.0001L69.7071 53.7072L68.2929 52.293L74.5858 46.0001Z" fill="#828282"/>
</svg>
