<svg xmlns="http://www.w3.org/2000/svg" viewBox="0 0 61.91 39.62"><defs><style>.cls-1,.cls-3,.cls-4{fill:#e32a25;}.cls-2{fill:#fff;}.cls-3{stroke:#e32a25;}.cls-3,.cls-4{stroke-linecap:round;stroke-linejoin:round;stroke-width:0.5px;}.cls-4{stroke:#fff;}.cls-5{fill:#ed8566;}.cls-6{fill:#f09779;stroke:#f09779;stroke-miterlimit:10;}.cls-7{fill:#fce6dc;}</style></defs><title>one-three-new</title><g id="Layer_2" data-name="Layer 2"><g id="Layer_1-2" data-name="Layer 1"><path class="cls-1" d="M8.6,32.7a1.88,1.88,0,0,1,.18-.24L21.17,16.32l-1.58-2.55a.28.28,0,0,1,0-.22l1.16-5a.34.34,0,0,1,.15-.2l3.27-1.78a.37.37,0,0,1,.18,0l1.93.26a.28.28,0,0,1,.24.2.3.3,0,0,1-.09.31l-3.23,2.78-.7,3L24,15.57l2.88.56,2.56-1.73,1.45-4a.27.27,0,0,1,.25-.2.29.29,0,0,1,.28.15l.92,1.72a.25.25,0,0,1,0,.17l-.5,3.7a.28.28,0,0,1-.13.2L27.49,19a.33.33,0,0,1-.22.05l-2.94-.58L13.67,35.83l-.16.25A3,3,0,0,1,8.6,32.7Z"/><path class="cls-2" d="M9.72,33.47a1.62,1.62,0,1,1,.41,2.25A1.62,1.62,0,0,1,9.72,33.47Zm.48.33a1,1,0,0,0,.27,1.44A1,1,0,0,0,11.9,35a1,1,0,0,0-.26-1.43A1,1,0,0,0,10.2,33.8Z"/><path class="cls-3" d="M8.28,23.14h.16l.31-.91.48.09,0,1a2.28,2.28,0,0,1,1,.63l.85-.43.28.4-.69.66a2.49,2.49,0,0,1,.26,1.15l.9.3-.09.48-1,0a1.15,1.15,0,0,1-.06.17.36.36,0,0,0,0,.09c0,.05-.05.11-.08.15a2.15,2.15,0,0,1-.45.58l.43.86-.4.28-.66-.69a2.52,2.52,0,0,1-1.16.25l-.29.91L7.56,29l0-.95a2.5,2.5,0,0,1-1-.64l-.85.43-.28-.4.69-.66a2.62,2.62,0,0,1-.26-1.15l-.9-.3.08-.49,1,0a2.51,2.51,0,0,1,.63-1L6.24,23l.4-.28.65.69.31-.12.27-.08.11,0,.19,0Z"/><path class="cls-4" d="M8.61,24.4a1.25,1.25,0,0,0-.43,2.47,1.25,1.25,0,0,0,1.45-1A1.27,1.27,0,0,0,8.61,24.4Z"/><path class="cls-3" d="M3.55,17.13h.16l.3-.91.48.09,0,1a2.47,2.47,0,0,1,1,.63l.86-.42.28.4-.7.66a2.48,2.48,0,0,1,.26,1.14l.9.31L7,20.46l-1,0s0,.11-.07.17a.36.36,0,0,0,0,.09l-.08.15a2.32,2.32,0,0,1-.45.58l.43.86-.4.28-.66-.69a2.65,2.65,0,0,1-1.15.25l-.3.9L2.82,23l0-1a2.54,2.54,0,0,1-1-.63L1,21.79l-.28-.4.69-.66a2.48,2.48,0,0,1-.25-1.15l-.91-.3.08-.49,1,0a2.44,2.44,0,0,1,.63-1L1.5,17l.4-.28.66.69.31-.13.26-.07.11,0,.2,0Z"/><path class="cls-4" d="M3.87,18.39a1.25,1.25,0,1,0,1,1.45A1.26,1.26,0,0,0,3.87,18.39Z"/><path class="cls-3" d="M12.26,12.57h.24l.48-1.4.74.13,0,1.48a3.8,3.8,0,0,1,1.55,1l1.33-.66.43.62-1.07,1a3.86,3.86,0,0,1,.39,1.78l1.4.47-.13.75-1.48,0A2.15,2.15,0,0,1,16,18l-.06.14a2.68,2.68,0,0,1-.12.24,4,4,0,0,1-.7.9l.66,1.32-.62.44-1-1.08a3.74,3.74,0,0,1-1.79.4l-.47,1.4-.74-.13,0-1.48a3.77,3.77,0,0,1-1.54-1l-1.32.66-.44-.62,1.07-1a4,4,0,0,1-.39-1.79L7.14,15.9l.14-.75,1.48,0a3.84,3.84,0,0,1,1-1.54l-.66-1.33.62-.43,1,1.08a3.26,3.26,0,0,1,.48-.2l.41-.12.18,0,.3,0Z"/><path class="cls-4" d="M12.77,14.54a1.94,1.94,0,1,0,1.57,2.24A1.94,1.94,0,0,0,12.77,14.54Z"/><path class="cls-5" d="M28.94,6.55a7.46,7.46,0,0,1,.45-1A11.11,11.11,0,0,1,31,3.26a9.55,9.55,0,0,1,1.41-1.33A8.81,8.81,0,0,1,34.35.74,7.21,7.21,0,0,1,36.85,0a6.92,6.92,0,0,1,2.87.33,7.2,7.2,0,0,1,2.39,1.5,4.94,4.94,0,0,1,.88,1,7.86,7.86,0,0,1,.68,1,8.68,8.68,0,0,1,.92,2,11.32,11.32,0,0,1,.5,1.84,11.12,11.12,0,0,1,.21,1.58,8.73,8.73,0,0,1,0,1.21c0,.68-.05,1.07-.05,1.07v0a.12.12,0,0,1-.11.09.11.11,0,0,1-.08-.07l-.28-1c-.09-.3-.19-.68-.34-1.1s-.29-.9-.51-1.4a16.86,16.86,0,0,0-.73-1.6,12.71,12.71,0,0,0-1-1.67,8.06,8.06,0,0,0-1.38-1.54,5.63,5.63,0,0,0-1.81-1.07A5.79,5.79,0,0,0,35,2.39a12.38,12.38,0,0,0-3.21,1.82,19.08,19.08,0,0,0-2,1.74c-.45.45-.69.73-.69.73a.09.09,0,0,1-.13,0,.1.1,0,0,1,0-.1Z"/><polygon class="cls-5" points="40.42 9.36 40.96 8.51 45.1 11.19 47.47 6.87 48.34 7.35 45.46 12.61 40.42 9.36"/><path class="cls-6" d="M61.12,15.54H39.43L39,13.66a.29.29,0,0,0-.29-.23H34a.29.29,0,0,0-.29.29v3.64a.34.34,0,0,0,0,.1v6a.31.31,0,0,0,.3.3h19l8.11,14v-.52l.25-21.41A.29.29,0,0,0,61.12,15.54Z"/><polygon class="cls-7" points="38.25 19.07 39.06 37.03 60.1 38 60.1 19.06 38.25 19.07"/><path class="cls-1" d="M61.47,39,53.29,23.88a.3.3,0,0,0-.26-.15H26a.29.29,0,0,0-.26.43L33.9,39.23a.29.29,0,0,0,.26.16H61.21a.31.31,0,0,0,.26-.15A.3.3,0,0,0,61.47,39Z"/></g></g></svg>