<svg xmlns="http://www.w3.org/2000/svg" viewBox="0 0 62.9 42.09"><defs><style>.cls-1{fill:none;}.cls-2{fill:#f3aa8f;}.cls-3,.cls-6,.cls-7,.cls-8,.cls-9{fill:#e32a25;}.cls-4{fill:#ed8566;}.cls-5{fill:#eb7353;}.cls-6,.cls-8{stroke:#e32a25;}.cls-6,.cls-8,.cls-9{stroke-miterlimit:10;}.cls-6,.cls-9{stroke-width:0.5px;}.cls-7,.cls-9{stroke:#fff;}.cls-7{stroke-linecap:round;stroke-linejoin:round;stroke-width:0.3px;}.cls-10{fill:#e85e40;}.cls-11{fill:#fce6dc;fill-rule:evenodd;}</style></defs><title>one-two-new</title><g id="Layer_2" data-name="Layer 2"><g id="Layer_1-2" data-name="Layer 1"><path class="cls-1" d="M53.84,5.34H42.7a1.58,1.58,0,0,0-1.41.88h14A1.58,1.58,0,0,0,53.84,5.34Z"/><path class="cls-2" d="M56,6.22a2.33,2.33,0,0,1,.11.7V8.85a.36.36,0,0,1-.36.36h-15a.36.36,0,0,1-.36-.36V6.92a2.33,2.33,0,0,1,.11-.7H34.19V41.67H62.35V6.22Z"/><path class="cls-3" d="M33.64,20.29V6.1A.36.36,0,0,1,34,5.74h6.93a.34.34,0,0,1,.3.17.37.37,0,0,1,0,.34,1.5,1.5,0,0,0-.15.67V8.5h14.3V6.92a1.56,1.56,0,0,0-.15-.67.37.37,0,0,1,0-.34.35.35,0,0,1,.3-.17h7a.36.36,0,0,1,.35.36V41.74a.35.35,0,0,1-.35.35H34a.35.35,0,0,1-.35-.35v-13m.71.16V41.38H62.19V6.45H56.05a2.42,2.42,0,0,1,.05.47V8.85a.36.36,0,0,1-.35.36h-15a.36.36,0,0,1-.36-.36V6.92a2.42,2.42,0,0,1,0-.47H34.35V20.11"/><path class="cls-3" d="M53.84,4.61H42.7a2.31,2.31,0,0,0-2.29,2.31V8.87a.36.36,0,0,0,.36.36h15a.36.36,0,0,0,.36-.36V6.92A2.31,2.31,0,0,0,53.84,4.61Z"/><path class="cls-4" d="M51.68,3H50a.35.35,0,0,0-.31.18,1.62,1.62,0,0,1-2.82,0A.35.35,0,0,0,46.55,3H44.87a.36.36,0,0,0-.36.35V6.18a.36.36,0,0,0,.36.35h6.81A.35.35,0,0,0,52,6.18V3.37A.35.35,0,0,0,51.68,3Z"/><path class="cls-4" d="M50.59,2.47A2.32,2.32,0,1,1,48.27.16,2.32,2.32,0,0,1,50.59,2.47Z"/><path class="cls-3" d="M50,2.48a1.65,1.65,0,0,1-3.3,0,1.65,1.65,0,0,1,3.3,0Z"/><path class="cls-1" d="M20.2,5.18H9.06a1.58,1.58,0,0,0-1.41.89h14A1.58,1.58,0,0,0,20.2,5.18Z"/><path class="cls-2" d="M22.38,6.07a2.26,2.26,0,0,1,.11.69V8.7a.35.35,0,0,1-.35.35h-15a.36.36,0,0,1-.36-.35V6.76a2.26,2.26,0,0,1,.11-.69H.55V41.52H28.71V6.07Z"/><path class="cls-3" d="M0,20.14V5.94a.36.36,0,0,1,.36-.35H7.28a.35.35,0,0,1,.3.16.34.34,0,0,1,0,.34,1.71,1.71,0,0,0-.14.67V8.34H21.75V6.76a1.56,1.56,0,0,0-.15-.67.37.37,0,0,1,0-.34.37.37,0,0,1,.3-.16h7a.35.35,0,0,1,.35.35V41.58a.35.35,0,0,1-.35.35H.36A.35.35,0,0,1,0,41.58v-13m.71.16V41.23H28.55V6.3H22.41a1.8,1.8,0,0,1,.05.46V8.7a.35.35,0,0,1-.35.35H7.1a.35.35,0,0,1-.35-.35V6.76a2.32,2.32,0,0,1,0-.46H.71V20"/><path class="cls-3" d="M20.2,4.46H9.06a2.3,2.3,0,0,0-2.29,2.3v2a.36.36,0,0,0,.36.35h15a.35.35,0,0,0,.35-.35v-2A2.3,2.3,0,0,0,20.2,4.46Z"/><path class="cls-4" d="M18,2.86H16.35A.37.37,0,0,0,16,3a1.61,1.61,0,0,1-2.82,0,.35.35,0,0,0-.31-.18H11.23a.36.36,0,0,0-.36.36V6a.36.36,0,0,0,.36.36H18A.36.36,0,0,0,18.39,6V3.22A.36.36,0,0,0,18,2.86Z"/><path class="cls-4" d="M17,2.31A2.32,2.32,0,1,1,14.63,0,2.31,2.31,0,0,1,17,2.31Z"/><path class="cls-3" d="M16.34,2.33a1.66,1.66,0,0,1-3.31,0,1.66,1.66,0,0,1,3.31,0Z"/><path class="cls-5" d="M22.13,19.75a7.92,7.92,0,1,1-7.92-7.92A7.92,7.92,0,0,1,22.13,19.75Z"/><path class="cls-5" d="M56.59,20.1a7.92,7.92,0,1,1-7.92-7.92A7.93,7.93,0,0,1,56.59,20.1Z"/><path class="cls-6" d="M15.26,21.4l-.08,0L14.9,21l-.22.12.17.45a1.18,1.18,0,0,0-.37.46L14,22l-.07.24.44.19a1.19,1.19,0,0,0,.06.59l-.38.29.12.21.44-.17.06.08,0,0,.06.06a1.21,1.21,0,0,0,.3.2l-.06.47.23.07.2-.43a1.35,1.35,0,0,0,.59-.07l.28.38.22-.12-.17-.44a1.26,1.26,0,0,0,.37-.46l.47.06.07-.23-.43-.2a1.29,1.29,0,0,0-.07-.58l.38-.29L17,21.66l-.44.17a1.47,1.47,0,0,0-.46-.37L16.2,21,16,20.92l-.2.44a.49.49,0,0,0-.17,0h-.19l-.1,0Z"/><path class="cls-7" d="M15.31,22.05a.62.62,0,0,1,.85.24.63.63,0,0,1-1.1.6A.62.62,0,0,1,15.31,22.05Z"/><path class="cls-6" d="M16.77,17.89l-.07,0-.29-.38-.21.12.16.44a1.26,1.26,0,0,0-.37.46l-.47-.06-.07.23.44.2a1.16,1.16,0,0,0,.06.58l-.38.29.12.22.45-.17a.13.13,0,0,0,.06.07l0,0,.06.06a1.1,1.1,0,0,0,.31.2l-.07.47.24.07.19-.43a1.32,1.32,0,0,0,.59-.07l.29.38.21-.12-.17-.44a1.34,1.34,0,0,0,.37-.46l.47.06.07-.23-.43-.2a1.32,1.32,0,0,0-.07-.59l.38-.28-.12-.22-.44.17a1.18,1.18,0,0,0-.46-.37l.06-.47-.23-.07-.2.43h-.36l-.09,0Z"/><path class="cls-7" d="M16.82,18.54a.64.64,0,0,1,.85.25.62.62,0,1,1-.85-.25Z"/><path class="cls-8" d="M11.69,17.05l-.12,0-.45-.58-.33.18.26.69a1.85,1.85,0,0,0-.57.71L9.75,18l-.11.36.67.31a1.9,1.9,0,0,0,.1.91L9.83,20l.18.33.69-.26.09.11.05.06.1.09a1.82,1.82,0,0,0,.47.31l-.1.73.37.11.3-.67a2,2,0,0,0,.91-.1l.45.58.33-.18-.26-.69a2,2,0,0,0,.57-.71l.73.09.11-.36-.67-.31a2,2,0,0,0-.1-.9l.58-.45-.18-.33-.69.25a2.13,2.13,0,0,0-.71-.56l.09-.74-.36-.1-.31.67-.26,0L12,17h-.08l-.15,0Z"/><path class="cls-9" d="M11.76,18.06a1,1,0,1,1-.38,1.32A1,1,0,0,1,11.76,18.06Z"/><path class="cls-3" d="M14.44,16a.17.17,0,0,1-.14-.07l-2.72-3.66a.19.19,0,0,1,0-.19.19.19,0,0,1,.16-.1h1.35V8.46a.18.18,0,0,1,.18-.18h2.38a.18.18,0,0,1,.18.18v3.48h1.35a.18.18,0,0,1,.16.1.19.19,0,0,1,0,.19l-2.71,3.66A.21.21,0,0,1,14.44,16Z"/><path class="cls-10" d="M19.83,30.15c0-.27-.15-.49-.33-.49H4.11c-.18,0-.33.22-.33.49h0c0,.28.15.5.33.5H19.5c.18,0,.33-.22.33-.5Z"/><path class="cls-10" d="M19.83,32.72c0-.27-.15-.49-.33-.49H4.11c-.18,0-.33.22-.33.49h0c0,.28.15.5.33.5H19.5c.18,0,.33-.22.33-.5Z"/><path class="cls-10" d="M19.83,35.22c0-.28-.15-.49-.33-.49H4.11c-.18,0-.33.21-.33.49h0c0,.27.15.49.33.49H19.5c.18,0,.33-.22.33-.49Z"/><path class="cls-10" d="M25.22,30.17a.48.48,0,0,1-.48.49H21.55a.49.49,0,0,1-.48-.49h0a.49.49,0,0,1,.48-.48h3.19a.48.48,0,0,1,.48.48Z"/><path class="cls-10" d="M25.2,32.74a.48.48,0,0,1-.48.49H21.54a.49.49,0,0,1-.49-.49h0a.48.48,0,0,1,.49-.48h3.18a.47.47,0,0,1,.48.48Z"/><path class="cls-10" d="M25.2,35.27a.48.48,0,0,1-.48.49H21.54a.49.49,0,0,1-.49-.49h0a.49.49,0,0,1,.49-.48h3.18a.48.48,0,0,1,.48.48Z"/><path class="cls-10" d="M53.82,30.15c0-.27-.15-.49-.33-.49H38.1c-.18,0-.33.22-.33.49h0c0,.28.15.5.33.5H53.49c.18,0,.33-.22.33-.5Z"/><path class="cls-10" d="M53.82,32.72c0-.27-.15-.49-.33-.49H38.1c-.18,0-.33.22-.33.49h0c0,.28.15.5.33.5H53.49c.18,0,.33-.22.33-.5Z"/><path class="cls-10" d="M53.82,35.22c0-.28-.15-.49-.33-.49H38.1c-.18,0-.33.21-.33.49h0c0,.27.15.49.33.49H53.49c.18,0,.33-.22.33-.49Z"/><path class="cls-3" d="M37.47,24.85a.23.23,0,0,1-.1.2l-5,3.7a.25.25,0,0,1-.26,0,.26.26,0,0,1-.13-.22V26.72H27.26a.25.25,0,0,1-.25-.25V23.23a.25.25,0,0,1,.25-.24H32V21.15a.25.25,0,0,1,.13-.22.27.27,0,0,1,.26,0l5,3.71A.22.22,0,0,1,37.47,24.85Z"/><path class="cls-11" d="M47.13,19.88l.21.23-1.72,1.72a1,1,0,0,0,0,1.4h0a1,1,0,0,0,1.4,0l1.64-1.63,1.85,2.06a.86.86,0,0,0,1.26,0h0a.87.87,0,0,0,0-1.27l-2.06-1.84L50,20.3,49.6,20l.74-.74-.15-.17.68-.67.12.11h0a.28.28,0,0,0,.41,0,.15.15,0,0,0,0-.11L52,17.14c0-.05,0-.09,0-.13l-.09-.08-.09-.1a.17.17,0,0,0-.12,0l-1.23.56s-.07,0-.11,0a.29.29,0,0,0,0,.41h0l.11.12-.67.68-.16-.15-.75.76-.37-.36-.31.32L48,19a1.63,1.63,0,0,0-2-2.18l1.42,1.41-1,1L45,17.85a1.64,1.64,0,0,0,.38,1.68,1.68,1.68,0,0,0,1.8.35Z"/></g></g></svg>