<svg xmlns="http://www.w3.org/2000/svg" viewBox="0 0 53.1 57.14"><defs><style>.cls-1{fill:#f09779;}.cls-2{fill:#fce6dc;}.cls-3{fill:#f6bda7;}.cls-4,.cls-6,.cls-7{fill:#e32a25;}.cls-5{fill:#fff;}.cls-6,.cls-7{stroke:#fff;stroke-linecap:round;stroke-linejoin:round;}.cls-7{stroke-width:1.5px;}</style></defs><title>one-one-new</title><g id="Layer_2" data-name="Layer 2"><g id="Layer_1-2" data-name="Layer 1"><path class="cls-1" d="M52.52,22h-32l-.64-2.77a.44.44,0,0,0-.42-.34H12.6a.44.44,0,0,0-.43.44v5.36a.32.32,0,0,0,0,.14v8.84a.44.44,0,0,0,.43.44h28l11.94,22,.39.64V22.41A.44.44,0,0,0,52.52,22Z"/><polygon class="cls-2" points="19.89 14.92 28.51 6.3 47.98 6.3 47.98 49.29 19.89 49.29 19.89 14.92"/><polygon class="cls-3" points="28.51 6.3 28.51 14.92 19.89 14.92 28.51 6.3"/><rect class="cls-1" x="24.37" y="19.34" width="19.13" height="1.34"/><rect class="cls-1" x="24.37" y="22.02" width="19.13" height="1.34"/><rect class="cls-1" x="24.37" y="24.7" width="19.13" height="1.34"/><rect class="cls-1" x="24.37" y="27.38" width="19.13" height="1.34"/><path class="cls-4" d="M4.13,20.89a2.28,2.28,0,0,1,0-3.22l.17-.16L15.85,7,15,4.85a.25.25,0,0,1,0-.17L16.56,1A.24.24,0,0,1,16.7.92L19.42,0a.22.22,0,0,1,.14,0L21,.47a.21.21,0,0,1,.16.18A.22.22,0,0,1,21,.87L18.2,2.53l-.93,2.18.83,2.1,2.1.82,2.17-1L24,3.83a.24.24,0,0,1,.22-.11.22.22,0,0,1,.19.16l.47,1.42a.33.33,0,0,1,0,.14L24,8.16a.24.24,0,0,1-.12.14L20.26,9.89a.23.23,0,0,1-.18,0l-2.14-.83L7.51,20.73l-.15.17A2.3,2.3,0,0,1,4.13,20.89Z"/><path class="cls-5" d="M4.85,20.17A1.25,1.25,0,1,1,6.61,18.4a1.25,1.25,0,0,1-1.76,1.77Zm1.44-1.45a.79.79,0,1,0,0,1.12A.79.79,0,0,0,6.29,18.72Z"/><path class="cls-4" d="M5.88,11.14,5.79,11l.48-.69L6,10l-.65.53a2.05,2.05,0,0,0-1-.36l-.15-.82H3.75l-.09.84a2.22,2.22,0,0,0-.94.42L2,10.2l-.29.31.53.65a.67.67,0,0,0-.09.14.3.3,0,0,0,0,.08.75.75,0,0,0-.06.13,2,2,0,0,0-.17.62l-.82.15,0,.43.83.09a2.12,2.12,0,0,0,.43.94l-.47.69.31.29.65-.52a2.32,2.32,0,0,0,1,.35l.16.82h.42l.1-.83a2.16,2.16,0,0,0,.93-.44l.69.47.29-.31L5.9,13.6a2.19,2.19,0,0,0,.35-1l.82-.15v-.43L6.23,12c0-.1-.05-.19-.08-.29a1.28,1.28,0,0,0-.09-.22l0-.09-.09-.14A.22.22,0,0,0,5.88,11.14Z"/><path class="cls-6" d="M4.83,11.58a1.1,1.1,0,0,1-1.49,1.61,1.1,1.1,0,1,1,1.49-1.61Z"/><path class="cls-4" d="M11.13,2.78,11,2.6l.73-1.07-.49-.45-1,.81a3.34,3.34,0,0,0-1.5-.55L8.49.07l-.66,0L7.68,1.38a3.23,3.23,0,0,0-1.44.67L5.17,1.32l-.46.49.81,1A2.39,2.39,0,0,0,5.39,3l-.06.12a1,1,0,0,0-.1.21,3.18,3.18,0,0,0-.26,1L3.7,4.56l0,.66L5,5.36a3.37,3.37,0,0,0,.67,1.45L5,7.89l.49.45,1-.81A3.34,3.34,0,0,0,8,8.08l.24,1.27.66,0L9,8a3.43,3.43,0,0,0,1.45-.67l1.07.73L12,7.61l-.81-1a3.34,3.34,0,0,0,.55-1.5L13,4.86l0-.66-1.29-.15a3.6,3.6,0,0,0-.12-.44c0-.11-.08-.23-.13-.34l-.08-.14a1.71,1.71,0,0,0-.13-.23Z"/><path class="cls-7" d="M9.5,3.46a1.7,1.7,0,1,1-2.4.09A1.71,1.71,0,0,1,9.5,3.46Z"/><path class="cls-4" d="M53.05,56.5,41,34.28a.44.44,0,0,0-.38-.23H.71a.43.43,0,0,0-.38.64L12.39,56.91a.45.45,0,0,0,.39.23H52.67a.43.43,0,0,0,.38-.64Z"/><path class="cls-1" d="M4.89,37.4.06,30.89a.32.32,0,0,1,0-.33.33.33,0,0,1,.29-.18h2.4V24.2A.32.32,0,0,1,3,23.88H7.26a.32.32,0,0,1,.32.32v6.18H10a.33.33,0,0,1,.29.18.32.32,0,0,1,0,.33L5.41,37.4a.32.32,0,0,1-.52,0Z"/><path class="cls-1" d="M35.33,14.75c0,1-.71,1.65-1.92,1.65h-.69v1.73h-1v-5h1.74C34.62,13.1,35.33,13.71,35.33,14.75Zm-.95,0c0-.54-.35-.86-1-.86h-.69v1.72h.69C34,15.61,34.38,15.29,34.38,14.75Z"/><path class="cls-1" d="M35.76,15.61a2.59,2.59,0,1,1,5.17,0,2.59,2.59,0,1,1-5.17,0Zm4.1,0c0-1.07-.59-1.78-1.52-1.78s-1.51.71-1.51,1.78.59,1.79,1.51,1.79S39.86,16.69,39.86,15.61Z"/></g></g></svg>