<svg width="80" height="55" viewBox="0 0 80 55" fill="none" xmlns="http://www.w3.org/2000/svg">
<path fill-rule="evenodd" clip-rule="evenodd" d="M13.9134 9.17216C13.5064 9.17129 13.1141 9.21735 12.7413 9.30493C12.2302 8.17848 11.5551 7.16788 10.7873 6.40005C9.48407 5.09685 7.42872 4.58301 4.5835 4.58301V9.16634C6.32161 9.16634 7.32181 9.41639 7.54638 9.64096C8.41256 10.5071 9.16683 12.2671 9.16683 13.7497L9.18986 14.0738L11.4354 29.7925C7.67806 29.9874 4.76728 32.9053 4.58631 36.5528L4.5835 38.958C4.80538 42.7254 7.70647 45.6234 11.3284 45.8293L11.8487 45.8301C12.7916 48.5019 15.339 50.4163 18.3335 50.4163C21.3269 50.4163 23.8735 48.5032 24.8173 45.833H30.183C31.1268 48.5032 33.6734 50.4163 36.6668 50.4163C40.4638 50.4163 43.5418 47.3383 43.5418 43.5413C43.5418 39.7444 40.4638 36.6663 36.6668 36.6663C33.6734 36.6663 31.1268 38.5794 30.183 41.2497H24.8173C23.8735 38.5794 21.3269 36.6663 18.3335 36.6663C15.3401 36.6663 12.7935 38.5794 11.8497 41.2497H11.4585C10.2898 41.1795 9.24139 40.1323 9.16272 38.8208L9.16683 36.6663C9.22862 35.4777 10.2698 34.4365 11.5721 34.3719L16.0961 34.373L16.1289 34.3747H39.2263L39.5645 34.2673C41.3021 33.716 42.6931 32.4076 43.3517 30.7138L43.5931 30.236L43.8848 29.6582L44.3775 28.6819C45.189 27.0732 46.0005 25.4618 46.7914 23.8876C48.7283 20.0313 49.9466 17.5806 50.2163 16.9788C51.6017 13.8882 48.7953 11.5095 45.9268 11.4588L13.9134 9.17216ZM38.4301 29.7913H16.3005C16.1533 29.7504 16.0412 29.6258 16.0192 29.4705L13.7736 13.7514L45.5891 16.0297C45.0324 17.165 44.0205 19.1927 42.6956 21.8303L42.6624 21.8964C41.9062 23.4018 41.0958 25.011 40.2854 26.6175L39.7932 27.5928L39.5019 28.1696L39.2049 28.7574L39.0931 29.0173C38.9735 29.3508 38.7358 29.6249 38.4301 29.7913ZM36.6668 45.833C37.9325 45.833 38.9585 44.807 38.9585 43.5413C38.9585 42.2757 37.9325 41.2497 36.6668 41.2497C35.4012 41.2497 34.3751 42.2757 34.3751 43.5413C34.3751 44.807 35.4012 45.833 36.6668 45.833ZM20.6252 43.5413C20.6252 44.807 19.5992 45.833 18.3335 45.833C17.0679 45.833 16.0419 44.807 16.0419 43.5413C16.0419 42.2757 17.0679 41.2497 18.3335 41.2497C19.5992 41.2497 20.6252 42.2757 20.6252 43.5413Z" fill="#828282"/>
<path d="M15.9678 13.75L42.5807 15.914L36.7017 21.2903H15.9678V13.75Z" fill="white"/>
<path fill-rule="evenodd" clip-rule="evenodd" d="M73.5858 31.0001H59V29.0001H73.5858L67.2929 22.7072L68.7071 21.293L77.4142 30.0001L68.7071 38.7072L67.2929 37.293L73.5858 31.0001Z" fill="#828282"/>
</svg>
