<svg width="100" height="13" viewBox="0 0 100 13" fill="none" xmlns="http://www.w3.org/2000/svg">
<path d="M1.21394 4.44V10.376C1.21394 10.6093 1.26527 10.782 1.36794 10.894C1.47994 11.006 1.64794 11.062 1.87194 11.062H2.66994V12H1.35394C0.952604 12 0.635271 11.8787 0.401938 11.636C0.177938 11.384 0.0659375 11.0573 0.0659375 10.656V4.44H1.21394ZM7.66323 11.16C8.3819 11.16 8.92323 11.006 9.28723 10.698C9.65123 10.39 9.83323 9.9 9.83323 9.228V4.44H10.9812V9.144C10.9812 10.1333 10.6966 10.88 10.1272 11.384C9.5579 11.888 8.73657 12.14 7.66323 12.14C6.5899 12.14 5.76857 11.888 5.19923 11.384C4.6299 10.88 4.34523 10.1333 4.34523 9.144V4.44H5.49323V9.228C5.49323 9.9 5.67523 10.39 6.03923 10.698C6.40323 11.006 6.94457 11.16 7.66323 11.16ZM5.41284 3.166L5.46884 2.34H10.9708V3.166H5.41284ZM15.3108 7.632C14.9468 7.72533 14.6808 7.87467 14.5128 8.08C14.3448 8.28533 14.2608 8.57933 14.2608 8.962V12H13.1128V8.934C13.1128 8.52333 13.2015 8.178 13.3788 7.898C13.5655 7.60867 13.8548 7.408 14.2468 7.296L12.6648 6.932V5.588C13.0568 5.21467 13.5515 4.90667 14.1488 4.664C14.7555 4.42133 15.4322 4.3 16.1788 4.3C17.2895 4.3 18.1202 4.538 18.6708 5.014C19.2215 5.48067 19.4968 6.204 19.4968 7.184V12H18.3488V7.142C18.3488 6.45133 18.1855 5.97067 17.8588 5.7C17.5322 5.42 16.9722 5.28 16.1788 5.28C15.6562 5.28 15.1662 5.35467 14.7088 5.504C14.2608 5.644 13.9155 5.83533 13.6728 6.078V6.372L15.3108 6.764V7.632ZM23.7444 5.28C22.8484 5.28 22.0318 5.40133 21.2944 5.644V4.692C21.6584 4.57067 22.0784 4.47733 22.5544 4.412C23.0398 4.33733 23.5344 4.3 24.0384 4.3C25.3078 4.3 26.2318 4.622 26.8104 5.266C27.3891 5.91 27.6784 6.89933 27.6784 8.234C27.6784 9.54067 27.3891 10.5207 26.8104 11.174C26.2318 11.818 25.3218 12.14 24.0804 12.14C23.5391 12.14 23.0118 12.0933 22.4984 12C21.9944 11.8973 21.5558 11.7667 21.1824 11.608V7.8H23.9544L24.0104 8.738H22.3304V10.88C22.8718 11.0667 23.4458 11.16 24.0524 11.16C24.6684 11.16 25.1538 11.0667 25.5084 10.88C25.8631 10.6933 26.1198 10.39 26.2784 9.97C26.4464 9.54067 26.5304 8.962 26.5304 8.234C26.5304 7.478 26.4418 6.89 26.2644 6.47C26.0871 6.04067 25.7978 5.73733 25.3964 5.56C25.0044 5.37333 24.4538 5.28 23.7444 5.28ZM30.0788 5.672V6.358H32.2488L32.2068 7.24H29.0848V5.672H30.0788ZM30.0788 9.536V10.236H32.2488L32.2068 11.104H29.0848V9.536H30.0788ZM34.1692 5.602C34.1692 5.042 34.2765 4.56133 34.4912 4.16C34.7058 3.75867 35.0045 3.44133 35.3872 3.208H33.0212V2.284H36.8012V3.194C36.2412 3.43667 35.8538 3.768 35.6392 4.188C35.4245 4.608 35.3172 5.20533 35.3172 5.98V10.376C35.3172 10.6093 35.3685 10.782 35.4712 10.894C35.5832 11.006 35.7512 11.062 35.9752 11.062H36.7732V12H35.4572C35.0558 12 34.7385 11.8787 34.5052 11.636C34.2812 11.384 34.1692 11.0573 34.1692 10.656V5.602ZM39.2081 6.89H41.7141C42.3114 6.89 42.7314 6.76867 42.9741 6.526C43.2167 6.274 43.3381 5.88667 43.3381 5.364V4.44H44.4861V5.35C44.4861 6.42333 44.0847 7.086 43.2821 7.338C43.7207 7.478 44.0147 7.70667 44.1641 8.024C44.3227 8.332 44.4021 8.738 44.4021 9.242V12H43.2541V9.382C43.2541 8.98067 43.2027 8.668 43.1001 8.444C43.0067 8.22 42.8434 8.06133 42.6101 7.968C42.3861 7.87467 42.0641 7.828 41.6441 7.828H39.2081V12H38.0601V4.44H39.2081V6.89ZM49.3269 5.28C48.4496 5.28 47.6422 5.40133 46.9049 5.644V4.692C47.2596 4.57067 47.6702 4.47733 48.1369 4.412C48.6036 4.33733 49.0702 4.3 49.5369 4.3C50.6009 4.3 51.3756 4.524 51.8609 4.972C52.3556 5.41067 52.6029 6.11067 52.6029 7.072V12H51.4549V8.528H49.0469C48.4029 8.528 47.9316 8.63533 47.6329 8.85C47.3436 9.06467 47.1989 9.41 47.1989 9.886C47.1989 10.3527 47.3296 10.684 47.5909 10.88C47.8616 11.0667 48.3002 11.16 48.9069 11.16C49.2709 11.16 49.5882 11.1227 49.8589 11.048V12C49.5042 12.0933 49.0842 12.14 48.5989 12.14C47.8336 12.14 47.2222 11.958 46.7649 11.594C46.3076 11.2207 46.0789 10.6513 46.0789 9.886C46.0789 9.158 46.3216 8.59333 46.8069 8.192C47.2922 7.78133 48.0156 7.576 48.9769 7.576H51.4549V6.988C51.4549 6.54933 51.3896 6.20867 51.2589 5.966C51.1282 5.72333 50.9089 5.55067 50.6009 5.448C50.3022 5.336 49.8776 5.28 49.3269 5.28ZM51.468 3.166V0.897999H52.616V3.166H51.468ZM54.8 5.602C54.8 5.042 54.9074 4.56133 55.122 4.16C55.3367 3.75867 55.6354 3.44133 56.018 3.208H53.652V2.284H57.432V3.194C56.872 3.43667 56.4847 3.768 56.27 4.188C56.0554 4.608 55.948 5.20533 55.948 5.98V10.376C55.948 10.6093 55.9994 10.782 56.102 10.894C56.214 11.006 56.382 11.062 56.606 11.062H57.404V12H56.088C55.6867 12 55.3694 11.8787 55.136 11.636C54.912 11.384 54.8 11.0573 54.8 10.656V5.602ZM62.0089 11.16C62.7276 11.16 63.2689 11.006 63.6329 10.698C63.9969 10.39 64.1789 9.9 64.1789 9.228V2.2H65.3269V9.144C65.3269 10.1333 65.0423 10.88 64.4729 11.384C63.9036 11.888 63.0823 12.14 62.0089 12.14C60.9356 12.14 60.1143 11.888 59.5449 11.384C58.9756 10.88 58.6909 10.1333 58.6909 9.144V4.44H59.8389V9.228C59.8389 9.9 60.0209 10.39 60.3849 10.698C60.7489 11.006 61.2903 11.16 62.0089 11.16ZM67.1085 7.198C67.1085 6.68467 67.2065 6.26467 67.4025 5.938C67.6079 5.61133 67.8879 5.28 68.2425 4.944C68.4665 4.72 68.6299 4.538 68.7325 4.398C68.8352 4.24867 68.8865 4.09 68.8865 3.922C68.8865 3.642 68.8025 3.45067 68.6345 3.348C68.4759 3.24533 68.2192 3.194 67.8645 3.194C67.3512 3.194 66.8332 3.33867 66.3105 3.628V2.732C66.5812 2.57333 66.8845 2.452 67.2205 2.368C67.5565 2.284 67.8879 2.242 68.2145 2.242C68.8212 2.242 69.2785 2.382 69.5865 2.662C69.9039 2.942 70.0625 3.334 70.0625 3.838C70.0625 4.146 69.9925 4.40267 69.8525 4.608C69.7219 4.81333 69.5165 5.056 69.2365 5.336C68.9192 5.63467 68.6765 5.91933 68.5085 6.19C68.3405 6.45133 68.2565 6.792 68.2565 7.212V10.376C68.2565 10.6093 68.3079 10.782 68.4105 10.894C68.5225 11.006 68.6905 11.062 68.9145 11.062H69.7125V12H68.3965C67.9952 12 67.6779 11.8787 67.4445 11.636C67.2205 11.384 67.1085 11.0573 67.1085 10.656V7.198ZM77.3578 9.396C77.3578 10.2733 77.0824 10.95 76.5318 11.426C75.9904 11.902 75.2344 12.14 74.2638 12.14C73.2744 12.14 72.5138 11.9067 71.9818 11.44C71.4591 10.9733 71.1978 10.2967 71.1978 9.41V8.388C71.1978 8.11733 71.2631 7.86067 71.3938 7.618C71.5338 7.366 71.7298 7.06733 71.9818 6.722C72.1684 6.45133 72.3038 6.246 72.3878 6.106C72.4718 5.966 72.5138 5.83067 72.5138 5.7C72.5138 5.55067 72.4811 5.45267 72.4158 5.406C72.3504 5.35933 72.2291 5.336 72.0518 5.336H71.0438L71.1418 4.44H72.6958C73.3398 4.44 73.6618 4.75733 73.6618 5.392C73.6618 5.68133 73.6011 5.94733 73.4798 6.19C73.3678 6.42333 73.1951 6.70333 72.9618 7.03C72.7471 7.338 72.5884 7.59 72.4858 7.786C72.3924 7.982 72.3458 8.19667 72.3458 8.43V9.536C72.3458 10.6187 72.9851 11.16 74.2638 11.16C75.5611 11.16 76.2098 10.6093 76.2098 9.508V8.542C76.2098 8.02867 76.1258 7.674 75.9578 7.478C75.7898 7.282 75.4818 7.184 75.0338 7.184H74.6418L74.6978 6.274H75.0058C75.4631 6.274 75.7758 6.17133 75.9438 5.966C76.1211 5.75133 76.2098 5.40133 76.2098 4.916V4.3H77.3578V4.902C77.3578 5.39667 77.2831 5.78867 77.1338 6.078C76.9938 6.36733 76.7231 6.582 76.3218 6.722C76.7418 6.88067 77.0171 7.10467 77.1478 7.394C77.2878 7.674 77.3578 8.066 77.3578 8.57V9.396ZM75.2338 2.34H78.2998L78.2438 3.166H74.4078V1.85H73.3018V1.024H75.2338V2.34ZM82.0798 4.44H82.6958C83.7505 4.44 84.5158 4.72467 84.9918 5.294C85.4678 5.86333 85.7058 6.75 85.7058 7.954C85.7058 9.37267 85.4025 10.4273 84.7958 11.118C84.1985 11.7993 83.4005 12.14 82.4018 12.14C81.8511 12.14 81.4405 12.0887 81.1698 11.986L79.0418 6.806H80.1618L81.9538 11.16L82.2338 11.174C83.0271 11.174 83.6105 10.9127 83.9838 10.39C84.3665 9.858 84.5578 9.05067 84.5578 7.968C84.5578 7.296 84.4971 6.778 84.3758 6.414C84.2545 6.04067 84.0491 5.77467 83.7598 5.616C83.4798 5.45733 83.0831 5.378 82.5698 5.378H82.0798V4.44ZM90.4262 7.114C90.4262 6.65667 90.3795 6.302 90.2862 6.05C90.2022 5.798 90.0295 5.60667 89.7682 5.476C89.5162 5.34533 89.1335 5.28 88.6202 5.28C88.3215 5.28 87.9949 5.31267 87.6402 5.378C87.2949 5.44333 86.9775 5.532 86.6882 5.644V4.692C86.9775 4.58 87.3135 4.48667 87.6962 4.412C88.0789 4.33733 88.4569 4.3 88.8302 4.3C89.7915 4.3 90.4869 4.51467 90.9162 4.944C91.3549 5.364 91.5742 6.04533 91.5742 6.988V12H90.4262V7.114ZM94.6885 4.44V9.41C94.6885 10.026 94.8239 10.474 95.0945 10.754C95.3745 11.0247 95.8225 11.16 96.4385 11.16C96.8959 11.16 97.3252 11.0667 97.7265 10.88C98.1372 10.6933 98.4919 10.4413 98.7905 10.124V4.44H99.9385V12H98.9025L98.8325 11.09C98.0579 11.79 97.1339 12.14 96.0605 12.14C95.2485 12.14 94.6232 11.9067 94.1845 11.44C93.7552 10.9733 93.5405 10.3013 93.5405 9.424V4.44H94.6885Z" fill="black"/>
</svg>
