<svg width="162" height="13" viewBox="0 0 162 13" fill="none" xmlns="http://www.w3.org/2000/svg">
<path d="M4.25698 5.28C3.53831 5.28 3.00164 5.41533 2.64698 5.686C2.30164 5.95667 2.12898 6.386 2.12898 6.974V8.724C2.56764 8.34133 3.10898 8.15 3.75298 8.15H4.67698L4.73298 9.088H3.72498C3.09031 9.088 2.55831 9.27 2.12898 9.634V12H0.980977V7.1C0.980977 5.23333 2.07298 4.3 4.25698 4.3C6.42231 4.3 7.50498 5.23333 7.50498 7.1V12H6.35698V6.974C6.35698 6.386 6.17964 5.95667 5.82498 5.686C5.47964 5.41533 4.95698 5.28 4.25698 5.28ZM4.86521 1.15H5.73321V2.34H6.62921V1.15H7.49721V3.166H1.93921L1.99521 2.34H4.86521V1.15ZM10.6192 4.44V9.41C10.6192 10.026 10.7545 10.474 11.0252 10.754C11.3052 11.0247 11.7532 11.16 12.3692 11.16C12.8265 11.16 13.2559 11.0667 13.6572 10.88C14.0679 10.6933 14.4225 10.4413 14.7212 10.124V4.44H15.8692V12H14.8332L14.7632 11.09C13.9885 11.79 13.0645 12.14 11.9912 12.14C11.1792 12.14 10.5539 11.9067 10.1152 11.44C9.68588 10.9733 9.47121 10.3013 9.47121 9.424V4.44H10.6192ZM20.1067 5.28C19.2107 5.28 18.3941 5.40133 17.6567 5.644V4.692C18.0207 4.57067 18.4407 4.47733 18.9167 4.412C19.4021 4.33733 19.8967 4.3 20.4007 4.3C21.6701 4.3 22.5941 4.622 23.1727 5.266C23.7514 5.91 24.0407 6.89933 24.0407 8.234C24.0407 9.54067 23.7514 10.5207 23.1727 11.174C22.5941 11.818 21.6841 12.14 20.4427 12.14C19.9014 12.14 19.3741 12.0933 18.8607 12C18.3567 11.8973 17.9181 11.7667 17.5447 11.608V7.8H20.3167L20.3727 8.738H18.6927V10.88C19.2341 11.0667 19.8081 11.16 20.4147 11.16C21.0307 11.16 21.5161 11.0667 21.8707 10.88C22.2254 10.6933 22.4821 10.39 22.6407 9.97C22.8087 9.54067 22.8927 8.962 22.8927 8.234C22.8927 7.478 22.8041 6.89 22.6267 6.47C22.4494 6.04067 22.1601 5.73733 21.7587 5.56C21.3667 5.37333 20.8161 5.28 20.1067 5.28ZM26.4411 5.672V6.358H28.6111L28.5691 7.24H25.4471V5.672H26.4411ZM26.4411 9.536V10.236H28.6111L28.5691 11.104H25.4471V9.536H26.4411ZM30.5315 5.602C30.5315 5.042 30.6388 4.56133 30.8535 4.16C31.0681 3.75867 31.3668 3.44133 31.7495 3.208H29.3835V2.284H33.1635V3.194C32.6035 3.43667 32.2161 3.768 32.0015 4.188C31.7868 4.608 31.6795 5.20533 31.6795 5.98V10.376C31.6795 10.6093 31.7308 10.782 31.8335 10.894C31.9455 11.006 32.1135 11.062 32.3375 11.062H33.1355V12H31.8195C31.4181 12 31.1008 11.8787 30.8675 11.636C30.6435 11.384 30.5315 11.0573 30.5315 10.656V5.602ZM35.5704 6.89H38.0764C38.6737 6.89 39.0937 6.76867 39.3364 6.526C39.579 6.274 39.7004 5.88667 39.7004 5.364V4.44H40.8484V5.35C40.8484 6.42333 40.447 7.086 39.6444 7.338C40.083 7.478 40.377 7.70667 40.5264 8.024C40.685 8.332 40.7644 8.738 40.7644 9.242V12H39.6164V9.382C39.6164 8.98067 39.565 8.668 39.4624 8.444C39.369 8.22 39.2057 8.06133 38.9724 7.968C38.7484 7.87467 38.4264 7.828 38.0064 7.828H35.5704V12H34.4224V4.44H35.5704V6.89ZM45.6892 5.28C44.8119 5.28 44.0045 5.40133 43.2672 5.644V4.692C43.6219 4.57067 44.0325 4.47733 44.4992 4.412C44.9659 4.33733 45.4325 4.3 45.8992 4.3C46.9632 4.3 47.7379 4.524 48.2232 4.972C48.7179 5.41067 48.9652 6.11067 48.9652 7.072V12H47.8172V8.528H45.4092C44.7652 8.528 44.2939 8.63533 43.9952 8.85C43.7059 9.06467 43.5612 9.41 43.5612 9.886C43.5612 10.3527 43.6919 10.684 43.9532 10.88C44.2239 11.0667 44.6625 11.16 45.2692 11.16C45.6332 11.16 45.9505 11.1227 46.2212 11.048V12C45.8665 12.0933 45.4465 12.14 44.9612 12.14C44.1959 12.14 43.5845 11.958 43.1272 11.594C42.6699 11.2207 42.4412 10.6513 42.4412 9.886C42.4412 9.158 42.6839 8.59333 43.1692 8.192C43.6545 7.78133 44.3779 7.576 45.3392 7.576H47.8172V6.988C47.8172 6.54933 47.7519 6.20867 47.6212 5.966C47.4905 5.72333 47.2712 5.55067 46.9632 5.448C46.6645 5.336 46.2399 5.28 45.6892 5.28ZM47.8303 3.166V0.897999H48.9783V3.166H47.8303ZM53.9203 2.732H55.0823L51.8063 12H50.6443L53.9203 2.732ZM61.0042 10.068C61.0042 9.79733 60.9389 9.58267 60.8082 9.424C60.6869 9.26533 60.5189 9.13933 60.3042 9.046C60.0989 8.95267 59.7862 8.84067 59.3662 8.71L58.8622 8.542C58.3489 8.374 57.9289 8.206 57.6022 8.038C57.2756 7.87 57.0049 7.65067 56.7902 7.38C56.5849 7.1 56.4822 6.75467 56.4822 6.344C56.4822 5.68133 56.7296 5.17733 57.2242 4.832C57.7189 4.47733 58.4469 4.3 59.4082 4.3C59.8002 4.3 60.1969 4.33267 60.5982 4.398C60.9996 4.46333 61.3449 4.54267 61.6342 4.636V5.644C61.0089 5.40133 60.3229 5.28 59.5762 5.28C58.8949 5.28 58.4002 5.35467 58.0922 5.504C57.7842 5.644 57.6302 5.91467 57.6302 6.316C57.6302 6.57733 57.7096 6.792 57.8682 6.96C58.0362 7.11867 58.2462 7.24933 58.4982 7.352C58.7596 7.44533 59.1936 7.59 59.8002 7.786C60.3229 7.954 60.7476 8.13133 61.0742 8.318C61.4102 8.49533 61.6716 8.724 61.8582 9.004C62.0542 9.284 62.1522 9.634 62.1522 10.054C62.1522 11.4447 61.1536 12.14 59.1562 12.14C58.6802 12.14 58.2182 12.1073 57.7702 12.042C57.3316 11.9767 56.9676 11.888 56.6782 11.776V10.754C57.3689 11.0247 58.1296 11.16 58.9602 11.16C59.6976 11.16 60.2202 11.09 60.5282 10.95C60.8456 10.8007 61.0042 10.5067 61.0042 10.068ZM59.7986 1.318V2.34H63.5646L63.5086 3.166H58.8326V1.318H59.7986ZM67.1486 11.16C67.8673 11.16 68.4086 11.006 68.7726 10.698C69.1366 10.39 69.3186 9.9 69.3186 9.228V4.44H70.4666V9.144C70.4666 10.1333 70.1819 10.88 69.6126 11.384C69.0433 11.888 68.2219 12.14 67.1486 12.14C66.0753 12.14 65.2539 11.888 64.6846 11.384C64.1153 10.88 63.8306 10.1333 63.8306 9.144V4.44H64.9786V9.228C64.9786 9.9 65.1606 10.39 65.5246 10.698C65.8886 11.006 66.4299 11.16 67.1486 11.16ZM75.7062 5.28C74.9875 5.28 74.4509 5.41533 74.0962 5.686C73.7509 5.95667 73.5782 6.386 73.5782 6.974V8.724C74.0169 8.34133 74.5582 8.15 75.2022 8.15H76.1262L76.1822 9.088H75.1742C74.5395 9.088 74.0075 9.27 73.5782 9.634V12H72.4302V7.1C72.4302 5.23333 73.5222 4.3 75.7062 4.3C77.8715 4.3 78.9542 5.23333 78.9542 7.1V12H77.8062V6.974C77.8062 6.386 77.6289 5.95667 77.2742 5.686C76.9289 5.41533 76.4062 5.28 75.7062 5.28ZM76.3144 1.15H77.1824V2.34H78.0784V1.15H78.9464V3.166H73.3884L73.4444 2.34H76.3144V1.15ZM82.0684 4.44V9.41C82.0684 10.026 82.2038 10.474 82.4744 10.754C82.7544 11.0247 83.2024 11.16 83.8184 11.16C84.2758 11.16 84.7051 11.0667 85.1064 10.88C85.5171 10.6933 85.8718 10.4413 86.1704 10.124V4.44H87.3184V12H86.2824L86.2124 11.09C85.4378 11.79 84.5138 12.14 83.4404 12.14C82.6284 12.14 82.0031 11.9067 81.5644 11.44C81.1351 10.9733 80.9204 10.3013 80.9204 9.424V4.44H82.0684ZM91.5559 5.28C90.6599 5.28 89.8433 5.40133 89.1059 5.644V4.692C89.4699 4.57067 89.8899 4.47733 90.3659 4.412C90.8513 4.33733 91.3459 4.3 91.8499 4.3C93.1193 4.3 94.0433 4.622 94.6219 5.266C95.2006 5.91 95.4899 6.89933 95.4899 8.234C95.4899 9.54067 95.2006 10.5207 94.6219 11.174C94.0433 11.818 93.1333 12.14 91.8919 12.14C91.3506 12.14 90.8233 12.0933 90.3099 12C89.8059 11.8973 89.3673 11.7667 88.9939 11.608V7.8H91.7659L91.8219 8.738H90.1419V10.88C90.6833 11.0667 91.2573 11.16 91.8639 11.16C92.4799 11.16 92.9653 11.0667 93.3199 10.88C93.6746 10.6933 93.9313 10.39 94.0899 9.97C94.2579 9.54067 94.3419 8.962 94.3419 8.234C94.3419 7.478 94.2533 6.89 94.0759 6.47C93.8986 6.04067 93.6093 5.73733 93.2079 5.56C92.8159 5.37333 92.2653 5.28 91.5559 5.28ZM97.8903 5.672V6.358H100.06L100.018 7.24H96.8963V5.672H97.8903ZM97.8903 9.536V10.236H100.06L100.018 11.104H96.8963V9.536H97.8903ZM101.981 5.602C101.981 5.042 102.088 4.56133 102.303 4.16C102.517 3.75867 102.816 3.44133 103.199 3.208H100.833V2.284H104.613V3.194C104.053 3.43667 103.665 3.768 103.451 4.188C103.236 4.608 103.129 5.20533 103.129 5.98V10.376C103.129 10.6093 103.18 10.782 103.283 10.894C103.395 11.006 103.563 11.062 103.787 11.062H104.585V12H103.269C102.867 12 102.55 11.8787 102.317 11.636C102.093 11.384 101.981 11.0573 101.981 10.656V5.602ZM107.02 6.89H109.526C110.123 6.89 110.543 6.76867 110.786 6.526C111.028 6.274 111.15 5.88667 111.15 5.364V4.44H112.298V5.35C112.298 6.42333 111.896 7.086 111.094 7.338C111.532 7.478 111.826 7.70667 111.976 8.024C112.134 8.332 112.214 8.738 112.214 9.242V12H111.066V9.382C111.066 8.98067 111.014 8.668 110.912 8.444C110.818 8.22 110.655 8.06133 110.422 7.968C110.198 7.87467 109.876 7.828 109.456 7.828H107.02V12H105.872V4.44H107.02V6.89ZM117.138 5.28C116.261 5.28 115.454 5.40133 114.716 5.644V4.692C115.071 4.57067 115.482 4.47733 115.948 4.412C116.415 4.33733 116.882 4.3 117.348 4.3C118.412 4.3 119.187 4.524 119.672 4.972C120.167 5.41067 120.414 6.11067 120.414 7.072V12H119.266V8.528H116.858C116.214 8.528 115.743 8.63533 115.444 8.85C115.155 9.06467 115.01 9.41 115.01 9.886C115.01 10.3527 115.141 10.684 115.402 10.88C115.673 11.0667 116.112 11.16 116.718 11.16C117.082 11.16 117.4 11.1227 117.67 11.048V12C117.316 12.0933 116.896 12.14 116.41 12.14C115.645 12.14 115.034 11.958 114.576 11.594C114.119 11.2207 113.89 10.6513 113.89 9.886C113.89 9.158 114.133 8.59333 114.618 8.192C115.104 7.78133 115.827 7.576 116.788 7.576H119.266V6.988C119.266 6.54933 119.201 6.20867 119.07 5.966C118.94 5.72333 118.72 5.55067 118.412 5.448C118.114 5.336 117.689 5.28 117.138 5.28ZM119.28 3.166V0.897999H120.428V3.166H119.28ZM128.184 5.378C128.473 5.77 128.618 6.33467 128.618 7.072V12H127.47V8.528H125.062C124.418 8.528 123.946 8.63533 123.648 8.85C123.358 9.06467 123.214 9.41 123.214 9.886C123.214 10.3527 123.344 10.684 123.606 10.88C123.876 11.0667 124.315 11.16 124.922 11.16C125.286 11.16 125.603 11.1227 125.874 11.048V12C125.519 12.0933 125.099 12.14 124.614 12.14C123.848 12.14 123.237 11.958 122.78 11.594C122.322 11.2207 122.094 10.6513 122.094 9.886C122.094 9.158 122.336 8.59333 122.822 8.192C123.307 7.78133 124.03 7.576 124.992 7.576H127.47V6.988C127.47 6.54933 127.404 6.20867 127.274 5.966C127.143 5.72333 126.924 5.55067 126.616 5.448C126.317 5.336 125.892 5.28 125.342 5.28C124.464 5.28 123.657 5.40133 122.92 5.644V4.692C123.274 4.57067 123.685 4.47733 124.152 4.412C124.618 4.33733 125.085 4.3 125.552 4.3C125.99 4.3 126.42 4.34667 126.84 4.44H129.248L129.192 5.378H128.184ZM127.551 3.166V0.897999H128.699V3.166H127.551ZM133.403 4.44H134.019C135.074 4.44 135.839 4.72467 136.315 5.294C136.791 5.86333 137.029 6.75 137.029 7.954C137.029 9.37267 136.726 10.4273 136.119 11.118C135.522 11.7993 134.724 12.14 133.725 12.14C133.174 12.14 132.764 12.0887 132.493 11.986L130.365 6.806H131.485L133.277 11.16L133.557 11.174C134.35 11.174 134.934 10.9127 135.307 10.39C135.69 9.858 135.881 9.05067 135.881 7.968C135.881 7.296 135.82 6.778 135.699 6.414C135.578 6.04067 135.372 5.77467 135.083 5.616C134.803 5.45733 134.406 5.378 133.893 5.378H133.403V4.44ZM138.599 8.654C138.599 8.38333 138.683 8.108 138.851 7.828C139.019 7.548 139.253 7.21667 139.551 6.834C139.785 6.53533 139.953 6.302 140.055 6.134C140.167 5.95667 140.223 5.798 140.223 5.658C140.223 5.42467 140.111 5.308 139.887 5.308C139.682 5.308 139.491 5.39667 139.313 5.574V6.12H138.431V4.44H139.313V4.832C139.593 4.57067 139.929 4.44 140.321 4.44C140.629 4.44 140.872 4.52867 141.049 4.706C141.236 4.874 141.329 5.11667 141.329 5.434C141.329 5.70467 141.259 5.96133 141.119 6.204C140.989 6.44667 140.788 6.74533 140.517 7.1C140.247 7.464 140.051 7.758 139.929 7.982C139.808 8.206 139.747 8.43933 139.747 8.682V9.536C139.747 10.6187 140.387 11.16 141.665 11.16C142.963 11.16 143.611 10.6093 143.611 9.508V8.542C143.611 8.02867 143.527 7.674 143.359 7.478C143.191 7.282 142.883 7.184 142.435 7.184H142.043L142.099 6.274H142.407C142.865 6.274 143.177 6.17133 143.345 5.966C143.523 5.75133 143.611 5.40133 143.611 4.916V4.3H144.759V4.902C144.759 5.39667 144.685 5.78867 144.535 6.078C144.395 6.36733 144.125 6.582 143.723 6.722C144.143 6.88067 144.419 7.10467 144.549 7.394C144.689 7.674 144.759 8.066 144.759 8.57V9.396C144.759 10.2733 144.484 10.95 143.933 11.426C143.392 11.902 142.636 12.14 141.665 12.14C140.676 12.14 139.915 11.9067 139.383 11.44C138.861 10.9733 138.599 10.2967 138.599 9.41V8.654ZM143.629 3.166V0.897999H144.777V3.166H143.629ZM149.005 5.28C148.109 5.28 147.292 5.40133 146.555 5.644V4.692C146.919 4.57067 147.339 4.47733 147.815 4.412C148.3 4.33733 148.795 4.3 149.299 4.3C150.568 4.3 151.492 4.622 152.071 5.266C152.65 5.91 152.939 6.89933 152.939 8.234C152.939 9.54067 152.65 10.5207 152.071 11.174C151.492 11.818 150.582 12.14 149.341 12.14C148.8 12.14 148.272 12.0933 147.759 12C147.255 11.8973 146.816 11.7667 146.443 11.608V7.8H149.215L149.271 8.738H147.591V10.88C148.132 11.0667 148.706 11.16 149.313 11.16C149.929 11.16 150.414 11.0667 150.769 10.88C151.124 10.6933 151.38 10.39 151.539 9.97C151.707 9.54067 151.791 8.962 151.791 8.234C151.791 7.478 151.702 6.89 151.525 6.47C151.348 6.04067 151.058 5.73733 150.657 5.56C150.265 5.37333 149.714 5.28 149.005 5.28ZM161.024 9.424C161.024 10.3013 160.8 10.9733 160.352 11.44C159.913 11.9067 159.288 12.14 158.476 12.14C157.897 12.14 157.388 12.0513 156.95 11.874C156.52 11.6967 156.114 11.4353 155.732 11.09L155.662 12H154.626V4.44H155.774V10.124C156.082 10.4413 156.432 10.6933 156.824 10.88C157.216 11.0667 157.64 11.16 158.098 11.16C158.714 11.16 159.162 11.0247 159.442 10.754C159.731 10.474 159.876 10.026 159.876 9.41V4.44H161.024V9.424Z" fill="black"/>
</svg>
