<svg width="73" height="13" viewBox="0 0 73 13" fill="none" xmlns="http://www.w3.org/2000/svg">
<path d="M6.93746 5.378C7.22679 5.77 7.37146 6.33467 7.37146 7.072V12H6.22346V8.528H3.81546C3.17146 8.528 2.70013 8.63533 2.40146 8.85C2.11213 9.06467 1.96746 9.41 1.96746 9.886C1.96746 10.3527 2.09813 10.684 2.35946 10.88C2.63013 11.0667 3.06879 11.16 3.67546 11.16C4.03946 11.16 4.35679 11.1227 4.62746 11.048V12C4.27279 12.0933 3.85279 12.14 3.36746 12.14C2.60213 12.14 1.99079 11.958 1.53346 11.594C1.07613 11.2207 0.847461 10.6513 0.847461 9.886C0.847461 9.158 1.09013 8.59333 1.57546 8.192C2.06079 7.78133 2.78413 7.576 3.74546 7.576H6.22346V6.988C6.22346 6.54933 6.15813 6.20867 6.02746 5.966C5.89679 5.72333 5.67746 5.55067 5.36946 5.448C5.07079 5.336 4.64613 5.28 4.09546 5.28C3.21813 5.28 2.41079 5.40133 1.67346 5.644V4.692C2.02813 4.57067 2.43879 4.47733 2.90546 4.412C3.37213 4.33733 3.83879 4.3 4.30546 4.3C4.74413 4.3 5.17346 4.34667 5.59346 4.44H8.00146L7.94546 5.378H6.93746ZM6.30495 3.166V0.897999H7.45295V3.166H6.30495ZM12.1569 4.44H12.7729C13.8276 4.44 14.5929 4.72467 15.0689 5.294C15.5449 5.86333 15.7829 6.75 15.7829 7.954C15.7829 9.37267 15.4796 10.4273 14.8729 11.118C14.2756 11.7993 13.4776 12.14 12.4789 12.14C11.9283 12.14 11.5176 12.0887 11.2469 11.986L9.11895 6.806H10.2389L12.0309 11.16L12.3109 11.174C13.1043 11.174 13.6876 10.9127 14.0609 10.39C14.4436 9.858 14.6349 9.05067 14.6349 7.968C14.6349 7.296 14.5743 6.778 14.4529 6.414C14.3316 6.04067 14.1263 5.77467 13.8369 5.616C13.5569 5.45733 13.1603 5.378 12.6469 5.378H12.1569V4.44ZM17.3534 8.654C17.3534 8.38333 17.4374 8.108 17.6054 7.828C17.7734 7.548 18.0067 7.21667 18.3054 6.834C18.5387 6.53533 18.7067 6.302 18.8094 6.134C18.9214 5.95667 18.9774 5.798 18.9774 5.658C18.9774 5.42467 18.8654 5.308 18.6414 5.308C18.436 5.308 18.2447 5.39667 18.0674 5.574V6.12H17.1854V4.44H18.0674V4.832C18.3474 4.57067 18.6834 4.44 19.0754 4.44C19.3834 4.44 19.626 4.52867 19.8034 4.706C19.99 4.874 20.0834 5.11667 20.0834 5.434C20.0834 5.70467 20.0134 5.96133 19.8734 6.204C19.7427 6.44667 19.542 6.74533 19.2714 7.1C19.0007 7.464 18.8047 7.758 18.6834 7.982C18.562 8.206 18.5014 8.43933 18.5014 8.682V9.536C18.5014 10.6187 19.1407 11.16 20.4194 11.16C21.7167 11.16 22.3654 10.6093 22.3654 9.508V8.542C22.3654 8.02867 22.2814 7.674 22.1134 7.478C21.9454 7.282 21.6374 7.184 21.1894 7.184H20.7974L20.8534 6.274H21.1614C21.6187 6.274 21.9314 6.17133 22.0994 5.966C22.2767 5.75133 22.3654 5.40133 22.3654 4.916V4.3H23.5134V4.902C23.5134 5.39667 23.4387 5.78867 23.2894 6.078C23.1494 6.36733 22.8787 6.582 22.4774 6.722C22.8974 6.88067 23.1727 7.10467 23.3034 7.394C23.4434 7.674 23.5134 8.066 23.5134 8.57V9.396C23.5134 10.2733 23.238 10.95 22.6874 11.426C22.146 11.902 21.39 12.14 20.4194 12.14C19.43 12.14 18.6694 11.9067 18.1374 11.44C17.6147 10.9733 17.3534 10.2967 17.3534 9.41V8.654ZM22.3831 3.166V0.897999H23.5311V3.166H22.3831ZM27.7591 5.28C26.8631 5.28 26.0464 5.40133 25.3091 5.644V4.692C25.6731 4.57067 26.0931 4.47733 26.5691 4.412C27.0544 4.33733 27.5491 4.3 28.0531 4.3C29.3224 4.3 30.2464 4.622 30.8251 5.266C31.4037 5.91 31.6931 6.89933 31.6931 8.234C31.6931 9.54067 31.4037 10.5207 30.8251 11.174C30.2464 11.818 29.3364 12.14 28.0951 12.14C27.5537 12.14 27.0264 12.0933 26.5131 12C26.0091 11.8973 25.5704 11.7667 25.1971 11.608V7.8H27.9691L28.0251 8.738H26.3451V10.88C26.8864 11.0667 27.4604 11.16 28.0671 11.16C28.6831 11.16 29.1684 11.0667 29.5231 10.88C29.8777 10.6933 30.1344 10.39 30.2931 9.97C30.4611 9.54067 30.5451 8.962 30.5451 8.234C30.5451 7.478 30.4564 6.89 30.2791 6.47C30.1017 6.04067 29.8124 5.73733 29.4111 5.56C29.0191 5.37333 28.4684 5.28 27.7591 5.28ZM39.7774 9.424C39.7774 10.3013 39.5534 10.9733 39.1054 11.44C38.6667 11.9067 38.0414 12.14 37.2294 12.14C36.6507 12.14 36.1421 12.0513 35.7034 11.874C35.2741 11.6967 34.8681 11.4353 34.4854 11.09L34.4154 12H33.3794V4.44H34.5274V10.124C34.8354 10.4413 35.1854 10.6933 35.5774 10.88C35.9694 11.0667 36.3941 11.16 36.8514 11.16C37.4674 11.16 37.9154 11.0247 38.1954 10.754C38.4847 10.474 38.6294 10.026 38.6294 9.41V4.44H39.7774V9.424ZM44.0149 5.28C43.1189 5.28 42.3023 5.40133 41.5649 5.644V4.692C41.9289 4.57067 42.3489 4.47733 42.8249 4.412C43.3103 4.33733 43.8049 4.3 44.3089 4.3C45.5783 4.3 46.5023 4.622 47.0809 5.266C47.6596 5.91 47.9489 6.89933 47.9489 8.234C47.9489 9.54067 47.6596 10.5207 47.0809 11.174C46.5023 11.818 45.5923 12.14 44.3509 12.14C43.8096 12.14 43.2823 12.0933 42.7689 12C42.2649 11.8973 41.8263 11.7667 41.4529 11.608V7.8H44.2249L44.2809 8.738H42.6009V10.88C43.1423 11.0667 43.7163 11.16 44.3229 11.16C44.9389 11.16 45.4243 11.0667 45.7789 10.88C46.1336 10.6933 46.3903 10.39 46.5489 9.97C46.7169 9.54067 46.8009 8.962 46.8009 8.234C46.8009 7.478 46.7123 6.89 46.5349 6.47C46.3576 6.04067 46.0683 5.73733 45.6669 5.56C45.2749 5.37333 44.7243 5.28 44.0149 5.28ZM50.3493 5.672V6.358H52.5193L52.4773 7.24H49.3553V5.672H50.3493ZM50.3493 9.536V10.236H52.5193L52.4773 11.104H49.3553V9.536H50.3493ZM54.4397 5.602C54.4397 5.042 54.547 4.56133 54.7617 4.16C54.9763 3.75867 55.275 3.44133 55.6577 3.208H53.2917V2.284H57.0717V3.194C56.5117 3.43667 56.1243 3.768 55.9097 4.188C55.695 4.608 55.5877 5.20533 55.5877 5.98V10.376C55.5877 10.6093 55.639 10.782 55.7417 10.894C55.8537 11.006 56.0217 11.062 56.2457 11.062H57.0437V12H55.7277C55.3263 12 55.009 11.8787 54.7757 11.636C54.5517 11.384 54.4397 11.0573 54.4397 10.656V5.602ZM59.4786 6.89H61.9846C62.5819 6.89 63.0019 6.76867 63.2446 6.526C63.4873 6.274 63.6086 5.88667 63.6086 5.364V4.44H64.7566V5.35C64.7566 6.42333 64.3553 7.086 63.5526 7.338C63.9913 7.478 64.2853 7.70667 64.4346 8.024C64.5933 8.332 64.6726 8.738 64.6726 9.242V12H63.5246V9.382C63.5246 8.98067 63.4733 8.668 63.3706 8.444C63.2773 8.22 63.1139 8.06133 62.8806 7.968C62.6566 7.87467 62.3346 7.828 61.9146 7.828H59.4786V12H58.3306V4.44H59.4786V6.89ZM69.5974 5.28C68.7201 5.28 67.9127 5.40133 67.1754 5.644V4.692C67.5301 4.57067 67.9407 4.47733 68.4074 4.412C68.8741 4.33733 69.3407 4.3 69.8074 4.3C70.8714 4.3 71.6461 4.524 72.1314 4.972C72.6261 5.41067 72.8734 6.11067 72.8734 7.072V12H71.7254V8.528H69.3174C68.6734 8.528 68.2021 8.63533 67.9034 8.85C67.6141 9.06467 67.4694 9.41 67.4694 9.886C67.4694 10.3527 67.6001 10.684 67.8614 10.88C68.1321 11.0667 68.5707 11.16 69.1774 11.16C69.5414 11.16 69.8587 11.1227 70.1294 11.048V12C69.7747 12.0933 69.3547 12.14 68.8694 12.14C68.1041 12.14 67.4927 11.958 67.0354 11.594C66.5781 11.2207 66.3494 10.6513 66.3494 9.886C66.3494 9.158 66.5921 8.59333 67.0774 8.192C67.5627 7.78133 68.2861 7.576 69.2474 7.576H71.7254V6.988C71.7254 6.54933 71.6601 6.20867 71.5294 5.966C71.3987 5.72333 71.1794 5.55067 70.8714 5.448C70.5727 5.336 70.1481 5.28 69.5974 5.28ZM71.7385 3.166V0.897999H72.8865V3.166H71.7385Z" fill="black"/>
</svg>
