<svg width="73" height="13" viewBox="0 0 73 13" fill="none" xmlns="http://www.w3.org/2000/svg">
<path d="M3.54799 5.28C2.82933 5.28 2.29266 5.41533 1.93799 5.686C1.59266 5.95667 1.41999 6.386 1.41999 6.974V8.724C1.85866 8.34133 2.39999 8.15 3.04399 8.15H3.96799L4.02399 9.088H3.01599C2.38133 9.088 1.84933 9.27 1.41999 9.634V12H0.271992V7.1C0.271992 5.23333 1.36399 4.3 3.54799 4.3C5.71333 4.3 6.79599 5.23333 6.79599 7.1V12H5.64799V6.974C5.64799 6.386 5.47066 5.95667 5.11599 5.686C4.77066 5.41533 4.24799 5.28 3.54799 5.28ZM11.5202 4.44H12.1362C13.1909 4.44 13.9562 4.72467 14.4322 5.294C14.9082 5.86333 15.1462 6.75 15.1462 7.954C15.1462 9.37267 14.8429 10.4273 14.2362 11.118C13.6389 11.7993 12.8409 12.14 11.8422 12.14C11.2916 12.14 10.8809 12.0887 10.6102 11.986L8.48223 6.806H9.60223L11.3942 11.16L11.6742 11.174C12.4676 11.174 13.0509 10.9127 13.4242 10.39C13.8069 9.858 13.9982 9.05067 13.9982 7.968C13.9982 7.296 13.9376 6.778 13.8162 6.414C13.6949 6.04067 13.4896 5.77467 13.2002 5.616C12.9202 5.45733 12.5236 5.378 12.0102 5.378H11.5202V4.44ZM20.1046 5.28C19.386 5.28 18.8493 5.41533 18.4946 5.686C18.1493 5.95667 17.9766 6.386 17.9766 6.974V8.724C18.4153 8.34133 18.9566 8.15 19.6006 8.15H20.5246L20.5806 9.088H19.5726C18.938 9.088 18.406 9.27 17.9766 9.634V12H16.8286V7.1C16.8286 5.23333 17.9206 4.3 20.1046 4.3C22.27 4.3 23.3526 5.23333 23.3526 7.1V12H22.2046V6.974C22.2046 6.386 22.0273 5.95667 21.6726 5.686C21.3273 5.41533 20.8046 5.28 20.1046 5.28ZM28.2869 5.28C27.4095 5.28 26.6022 5.40133 25.8649 5.644V4.692C26.2195 4.57067 26.6302 4.47733 27.0969 4.412C27.5635 4.33733 28.0302 4.3 28.4969 4.3C29.5609 4.3 30.3355 4.524 30.8209 4.972C31.3155 5.41067 31.5629 6.11067 31.5629 7.072V12H30.4149V8.528H28.0069C27.3629 8.528 26.8915 8.63533 26.5929 8.85C26.3035 9.06467 26.1589 9.41 26.1589 9.886C26.1589 10.3527 26.2895 10.684 26.5509 10.88C26.8215 11.0667 27.2602 11.16 27.8669 11.16C28.2309 11.16 28.5482 11.1227 28.8189 11.048V12C28.4642 12.0933 28.0442 12.14 27.5589 12.14C26.7935 12.14 26.1822 11.958 25.7249 11.594C25.2675 11.2207 25.0389 10.6513 25.0389 9.886C25.0389 9.158 25.2815 8.59333 25.7669 8.192C26.2522 7.78133 26.9755 7.576 27.9369 7.576H30.4149V6.988C30.4149 6.54933 30.3495 6.20867 30.2189 5.966C30.0882 5.72333 29.8689 5.55067 29.5609 5.448C29.2622 5.336 28.8375 5.28 28.2869 5.28ZM29.49 1.318V2.34H33.256L33.2 3.166H28.524V1.318H29.49ZM36.28 4.44H36.896C37.9507 4.44 38.716 4.72467 39.192 5.294C39.668 5.86333 39.906 6.75 39.906 7.954C39.906 9.37267 39.6027 10.4273 38.996 11.118C38.3987 11.7993 37.6007 12.14 36.602 12.14C36.0513 12.14 35.6407 12.0887 35.37 11.986L33.242 6.806H34.362L36.154 11.16L36.434 11.174C37.2273 11.174 37.8107 10.9127 38.184 10.39C38.5667 9.858 38.758 9.05067 38.758 7.968C38.758 7.296 38.6973 6.778 38.576 6.414C38.4547 6.04067 38.2493 5.77467 37.96 5.616C37.68 5.45733 37.2833 5.378 36.77 5.378H36.28V4.44ZM43.8704 5.28C42.9744 5.28 42.1577 5.40133 41.4204 5.644V4.692C41.7844 4.57067 42.2044 4.47733 42.6804 4.412C43.1657 4.33733 43.6604 4.3 44.1644 4.3C45.4337 4.3 46.3577 4.622 46.9364 5.266C47.5151 5.91 47.8044 6.89933 47.8044 8.234C47.8044 9.54067 47.5151 10.5207 46.9364 11.174C46.3577 11.818 45.4477 12.14 44.2064 12.14C43.6651 12.14 43.1377 12.0933 42.6244 12C42.1204 11.8973 41.6817 11.7667 41.3084 11.608V7.8H44.0804L44.1364 8.738H42.4564V10.88C42.9977 11.0667 43.5717 11.16 44.1784 11.16C44.7944 11.16 45.2797 11.0667 45.6344 10.88C45.9891 10.6933 46.2457 10.39 46.4044 9.97C46.5724 9.54067 46.6564 8.962 46.6564 8.234C46.6564 7.478 46.5677 6.89 46.3904 6.47C46.2131 6.04067 45.9237 5.73733 45.5224 5.56C45.1304 5.37333 44.5797 5.28 43.8704 5.28ZM50.2047 5.672V6.358H52.3747L52.3327 7.24H49.2107V5.672H50.2047ZM50.2047 9.536V10.236H52.3747L52.3327 11.104H49.2107V9.536H50.2047ZM54.2951 5.602C54.2951 5.042 54.4025 4.56133 54.6171 4.16C54.8318 3.75867 55.1305 3.44133 55.5131 3.208H53.1471V2.284H56.9271V3.194C56.3671 3.43667 55.9798 3.768 55.7651 4.188C55.5505 4.608 55.4431 5.20533 55.4431 5.98V10.376C55.4431 10.6093 55.4945 10.782 55.5971 10.894C55.7091 11.006 55.8771 11.062 56.1011 11.062H56.8991V12H55.5831C55.1818 12 54.8645 11.8787 54.6311 11.636C54.4071 11.384 54.2951 11.0573 54.2951 10.656V5.602ZM59.3341 6.89H61.8401C62.4374 6.89 62.8574 6.76867 63.1001 6.526C63.3427 6.274 63.4641 5.88667 63.4641 5.364V4.44H64.6121V5.35C64.6121 6.42333 64.2107 7.086 63.4081 7.338C63.8467 7.478 64.1407 7.70667 64.2901 8.024C64.4487 8.332 64.5281 8.738 64.5281 9.242V12H63.3801V9.382C63.3801 8.98067 63.3287 8.668 63.2261 8.444C63.1327 8.22 62.9694 8.06133 62.7361 7.968C62.5121 7.87467 62.1901 7.828 61.7701 7.828H59.3341V12H58.1861V4.44H59.3341V6.89ZM69.4529 5.28C68.5755 5.28 67.7682 5.40133 67.0309 5.644V4.692C67.3855 4.57067 67.7962 4.47733 68.2629 4.412C68.7295 4.33733 69.1962 4.3 69.6629 4.3C70.7269 4.3 71.5015 4.524 71.9869 4.972C72.4815 5.41067 72.7289 6.11067 72.7289 7.072V12H71.5809V8.528H69.1729C68.5289 8.528 68.0575 8.63533 67.7589 8.85C67.4695 9.06467 67.3249 9.41 67.3249 9.886C67.3249 10.3527 67.4555 10.684 67.7169 10.88C67.9875 11.0667 68.4262 11.16 69.0329 11.16C69.3969 11.16 69.7142 11.1227 69.9849 11.048V12C69.6302 12.0933 69.2102 12.14 68.7249 12.14C67.9595 12.14 67.3482 11.958 66.8909 11.594C66.4335 11.2207 66.2049 10.6513 66.2049 9.886C66.2049 9.158 66.4475 8.59333 66.9329 8.192C67.4182 7.78133 68.1415 7.576 69.1029 7.576H71.5809V6.988C71.5809 6.54933 71.5155 6.20867 71.3849 5.966C71.2542 5.72333 71.0349 5.55067 70.7269 5.448C70.4282 5.336 70.0035 5.28 69.4529 5.28ZM71.594 3.166V0.897999H72.742V3.166H71.594Z" fill="black"/>
</svg>
