<svg width="152" height="37" viewBox="0 0 152 37" fill="none" xmlns="http://www.w3.org/2000/svg">
<path d="M1.43562 6.44V11.41C1.43562 12.026 1.57095 12.474 1.84162 12.754C2.12162 13.0247 2.56962 13.16 3.18562 13.16C3.64295 13.16 4.07228 13.0667 4.47362 12.88C4.88428 12.6933 5.23895 12.4413 5.53762 12.124V6.44H6.68562V14H5.64962L5.57962 13.09C4.80495 13.79 3.88095 14.14 2.80762 14.14C1.99562 14.14 1.37028 13.9067 0.931617 13.44C0.502284 12.9733 0.287617 12.3013 0.287617 11.424V6.44H1.43562ZM4.62313 4.046C4.62313 3.64467 4.7678 3.30867 5.05713 3.038C5.33713 2.758 5.68247 2.618 6.09313 2.618C6.5038 2.618 6.84913 2.758 7.12913 3.038C7.40913 3.30867 7.54913 3.64467 7.54913 4.046C7.54913 4.44733 7.40913 4.78333 7.12913 5.054C6.84913 5.32467 6.5038 5.46 6.09313 5.46C5.68247 5.46 5.33713 5.32467 5.05713 5.054C4.7678 4.78333 4.62313 4.44733 4.62313 4.046ZM5.39313 4.046C5.39313 4.23267 5.46313 4.396 5.60313 4.536C5.7338 4.66667 5.89713 4.732 6.09313 4.732C6.2798 4.732 6.44313 4.66667 6.58313 4.536C6.7138 4.396 6.77913 4.23267 6.77913 4.046C6.77913 3.85933 6.7138 3.696 6.58313 3.556C6.44313 3.416 6.2798 3.346 6.09313 3.346C5.89713 3.346 5.7338 3.416 5.60313 3.556C5.46313 3.696 5.39313 3.85933 5.39313 4.046ZM11.6791 9.114C11.6791 8.65667 11.6325 8.302 11.5391 8.05C11.4551 7.798 11.2825 7.60667 11.0211 7.476C10.7691 7.34533 10.3865 7.28 9.87313 7.28C9.57447 7.28 9.2478 7.31267 8.89313 7.378C8.5478 7.44333 8.23047 7.532 7.94113 7.644V6.692C8.23047 6.58 8.56647 6.48667 8.94913 6.412C9.3318 6.33733 9.7098 6.3 10.0831 6.3C11.0445 6.3 11.7398 6.51467 12.1691 6.944C12.6078 7.364 12.8271 8.04533 12.8271 8.988V14H11.6791V9.114ZM17.0755 7.28C16.1795 7.28 15.3628 7.40133 14.6255 7.644V6.692C14.9895 6.57067 15.4095 6.47733 15.8855 6.412C16.3708 6.33733 16.8655 6.3 17.3695 6.3C18.6388 6.3 19.5628 6.622 20.1415 7.266C20.7201 7.91 21.0095 8.89933 21.0095 10.234C21.0095 11.5407 20.7201 12.5207 20.1415 13.174C19.5628 13.818 18.6528 14.14 17.4115 14.14C16.8701 14.14 16.3428 14.0933 15.8295 14C15.3255 13.8973 14.8868 13.7667 14.5135 13.608V9.8H17.2855L17.3415 10.738H15.6615V12.88C16.2028 13.0667 16.7768 13.16 17.3835 13.16C17.9995 13.16 18.4848 13.0667 18.8395 12.88C19.1941 12.6933 19.4508 12.39 19.6095 11.97C19.7775 11.5407 19.8615 10.962 19.8615 10.234C19.8615 9.478 19.7728 8.89 19.5955 8.47C19.4181 8.04067 19.1288 7.73733 18.7275 7.56C18.3355 7.37333 17.7848 7.28 17.0755 7.28ZM23.4098 7.672V8.358H25.5798L25.5378 9.24H22.4158V7.672H23.4098ZM23.4098 11.536V12.236H25.5798L25.5378 13.104H22.4158V11.536H23.4098ZM27.5002 7.602C27.5002 7.042 27.6076 6.56133 27.8222 6.16C28.0369 5.75867 28.3356 5.44133 28.7182 5.208H26.3522V4.284H30.1322V5.194C29.5722 5.43667 29.1849 5.768 28.9702 6.188C28.7556 6.608 28.6482 7.20533 28.6482 7.98V12.376C28.6482 12.6093 28.6996 12.782 28.8022 12.894C28.9142 13.006 29.0822 13.062 29.3062 13.062H30.1042V14H28.7882C28.3869 14 28.0696 13.8787 27.8362 13.636C27.6122 13.384 27.5002 13.0573 27.5002 12.656V7.602ZM32.5391 8.89H35.0451C35.6425 8.89 36.0625 8.76867 36.3051 8.526C36.5478 8.274 36.6691 7.88667 36.6691 7.364V6.44H37.8171V7.35C37.8171 8.42333 37.4158 9.086 36.6131 9.338C37.0518 9.478 37.3458 9.70667 37.4951 10.024C37.6538 10.332 37.7331 10.738 37.7331 11.242V14H36.5851V11.382C36.5851 10.9807 36.5338 10.668 36.4311 10.444C36.3378 10.22 36.1745 10.0613 35.9411 9.968C35.7171 9.87467 35.3951 9.828 34.9751 9.828H32.5391V14H31.3911V6.44H32.5391V8.89ZM42.658 7.28C41.7806 7.28 40.9733 7.40133 40.236 7.644V6.692C40.5906 6.57067 41.0013 6.47733 41.468 6.412C41.9346 6.33733 42.4013 6.3 42.868 6.3C43.932 6.3 44.7066 6.524 45.192 6.972C45.6866 7.41067 45.934 8.11067 45.934 9.072V14H44.786V10.528H42.378C41.734 10.528 41.2626 10.6353 40.964 10.85C40.6746 11.0647 40.53 11.41 40.53 11.886C40.53 12.3527 40.6606 12.684 40.922 12.88C41.1926 13.0667 41.6313 13.16 42.238 13.16C42.602 13.16 42.9193 13.1227 43.19 13.048V14C42.8353 14.0933 42.4153 14.14 41.93 14.14C41.1646 14.14 40.5533 13.958 40.096 13.594C39.6386 13.2207 39.41 12.6513 39.41 11.886C39.41 11.158 39.6526 10.5933 40.138 10.192C40.6233 9.78133 41.3466 9.576 42.308 9.576H44.786V8.988C44.786 8.54933 44.7206 8.20867 44.59 7.966C44.4593 7.72333 44.24 7.55067 43.932 7.448C43.6333 7.336 43.2086 7.28 42.658 7.28ZM44.7991 5.166V2.898H45.9471V5.166H44.7991ZM49.0411 6.44V12.376C49.0411 12.6093 49.0924 12.782 49.1951 12.894C49.3071 13.006 49.4751 13.062 49.6991 13.062H50.4971V14H49.1811C48.7798 14 48.4624 13.8787 48.2291 13.636C48.0051 13.384 47.8931 13.0573 47.8931 12.656V6.44H49.0411ZM52.0464 10.388C52.0464 10.1173 52.1117 9.86067 52.2424 9.618C52.3824 9.366 52.5784 9.06733 52.8304 8.722C53.017 8.45133 53.1524 8.246 53.2364 8.106C53.3204 7.966 53.3624 7.83067 53.3624 7.7C53.3624 7.55067 53.3297 7.45267 53.2644 7.406C53.199 7.35933 53.0777 7.336 52.9004 7.336H51.8924L51.9904 6.44H53.5444C54.1884 6.44 54.5104 6.75733 54.5104 7.392C54.5104 7.68133 54.4497 7.94733 54.3284 8.19C54.2164 8.42333 54.0437 8.70333 53.8104 9.03C53.5957 9.338 53.437 9.59 53.3344 9.786C53.241 9.982 53.1944 10.1967 53.1944 10.43V11.536C53.1944 12.6187 53.8337 13.16 55.1124 13.16C56.4097 13.16 57.0584 12.6093 57.0584 11.508V6.44H58.2064V11.396C58.2064 12.2733 57.9311 12.95 57.3804 13.426C56.839 13.902 56.083 14.14 55.1124 14.14C54.123 14.14 53.3624 13.9067 52.8304 13.44C52.3077 12.9733 52.0464 12.2967 52.0464 11.41V10.388ZM56.0824 4.34H59.1484L59.0924 5.166H55.2564V3.85H54.1504V3.024H56.0824V4.34ZM63.2084 9.114C63.2084 8.65667 63.1618 8.302 63.0684 8.05C62.9844 7.798 62.8118 7.60667 62.5504 7.476C62.2984 7.34533 61.9158 7.28 61.4024 7.28C61.1038 7.28 60.7771 7.31267 60.4224 7.378C60.0771 7.44333 59.7598 7.532 59.4704 7.644V6.692C59.7598 6.58 60.0958 6.48667 60.4784 6.412C60.8611 6.33733 61.2391 6.3 61.6124 6.3C62.5738 6.3 63.2691 6.51467 63.6984 6.944C64.1371 7.364 64.3564 8.04533 64.3564 8.988V14H63.2084V9.114ZM66.8968 7.364C66.8968 6.75733 66.7801 6.30467 66.5468 6.006C66.3228 5.698 65.9448 5.432 65.4128 5.208V4.284H69.2908V5.208H66.8688C67.3168 5.45067 67.6248 5.74933 67.7928 6.104C67.9608 6.45867 68.0448 6.99533 68.0448 7.714V12.376C68.0448 12.6093 68.0961 12.782 68.1988 12.894C68.3108 13.006 68.4788 13.062 68.7028 13.062H69.5008V14H68.1848C67.7834 14 67.4661 13.8787 67.2328 13.636C67.0088 13.384 66.8968 13.0573 66.8968 12.656V7.364ZM74.2661 6.3C75.0501 6.3 75.6988 6.44 76.2121 6.72C76.7348 6.99067 77.1175 7.35467 77.3601 7.812C77.6028 8.26 77.7241 8.75933 77.7241 9.31V14H76.5761V9.324C76.5761 8.68933 76.3895 8.19 76.0161 7.826C75.6521 7.462 75.0595 7.28 74.2381 7.28C73.3235 7.28 72.6608 7.53667 72.2501 8.05C71.8395 8.554 71.6341 9.30067 71.6341 10.29C71.6341 11.326 71.8021 12.0633 72.1381 12.502C72.4835 12.9407 73.0061 13.16 73.7061 13.16C74.1261 13.16 74.4481 13.1227 74.6721 13.048V14C74.3641 14.0933 73.9768 14.14 73.5101 14.14C72.5955 14.14 71.8628 13.8227 71.3121 13.188C70.7615 12.544 70.4861 11.578 70.4861 10.29C70.4861 9.03 70.7988 8.05 71.4241 7.35C72.0588 6.65 73.0061 6.3 74.2661 6.3ZM81.8922 7.28C81.0242 7.28 80.5902 7.658 80.5902 8.414C80.5902 8.81533 80.7209 9.114 80.9822 9.31C81.2435 9.506 81.6029 9.604 82.0602 9.604H82.8582L82.9282 10.472H82.0182C81.5235 10.472 81.1549 10.5887 80.9122 10.822C80.6695 11.0553 80.5482 11.396 80.5482 11.844C80.5482 12.292 80.7209 12.6233 81.0662 12.838C81.4209 13.0527 81.9622 13.16 82.6902 13.16C83.4182 13.16 83.9595 13.02 84.3142 12.74C84.6689 12.46 84.8462 12.0213 84.8462 11.424V6.44H85.9942V11.228C85.9942 12.1893 85.7282 12.9173 85.1962 13.412C84.6642 13.8973 83.8429 14.14 82.7322 14.14C81.6869 14.14 80.8702 13.9487 80.2822 13.566C79.6942 13.1833 79.4002 12.6093 79.4002 11.844C79.4002 11.4147 79.4982 11.0507 79.6942 10.752C79.8995 10.444 80.1842 10.2107 80.5482 10.052C80.2122 9.94933 79.9415 9.758 79.7362 9.478C79.5402 9.198 79.4422 8.84333 79.4422 8.414C79.4422 7.73267 79.6475 7.21 80.0582 6.846C80.4689 6.482 81.0102 6.3 81.6822 6.3C82.1302 6.3 82.5175 6.35133 82.8442 6.454V7.406C82.5922 7.322 82.2749 7.28 81.8922 7.28ZM88.1897 7.602C88.1897 7.042 88.297 6.56133 88.5117 6.16C88.7263 5.75867 89.025 5.44133 89.4077 5.208H87.0417V4.284H90.8217V5.194C90.2617 5.43667 89.8743 5.768 89.6597 6.188C89.445 6.608 89.3377 7.20533 89.3377 7.98V12.376C89.3377 12.6093 89.389 12.782 89.4917 12.894C89.6037 13.006 89.7717 13.062 89.9957 13.062H90.7937V14H89.4777C89.0763 14 88.759 13.8787 88.5257 13.636C88.3017 13.384 88.1897 13.0573 88.1897 12.656V7.602ZM98.4786 11.424C98.4786 12.3013 98.2546 12.9733 97.8066 13.44C97.3679 13.9067 96.7426 14.14 95.9306 14.14C95.3519 14.14 94.8433 14.0513 94.4046 13.874C93.9753 13.6967 93.5693 13.4353 93.1866 13.09L93.1166 14H92.0806V6.44H93.2286V12.124C93.5366 12.4413 93.8866 12.6933 94.2786 12.88C94.6706 13.0667 95.0953 13.16 95.5526 13.16C96.1686 13.16 96.6166 13.0247 96.8966 12.754C97.1859 12.474 97.3306 12.026 97.3306 11.41V6.44H98.4786V11.424ZM97.3401 5.166V2.898H98.4881V5.166H97.3401ZM106.832 11.424C106.832 12.3013 106.608 12.9733 106.16 13.44C105.721 13.9067 105.096 14.14 104.284 14.14C103.705 14.14 103.197 14.0513 102.758 13.874C102.329 13.6967 101.923 13.4353 101.54 13.09L101.47 14H100.434V6.44H101.582V12.124C101.89 12.4413 102.24 12.6933 102.632 12.88C103.024 13.0667 103.449 13.16 103.906 13.16C104.522 13.16 104.97 13.0247 105.25 12.754C105.539 12.474 105.684 12.026 105.684 11.41V6.44H106.832V11.424ZM105.848 3.15H106.814V5.166H101.256L101.312 4.34H105.848V3.15ZM108.606 9.198C108.606 8.68467 108.704 8.26467 108.9 7.938C109.105 7.61133 109.385 7.28 109.74 6.944C109.964 6.72 110.127 6.538 110.23 6.398C110.332 6.24867 110.384 6.09 110.384 5.922C110.384 5.642 110.3 5.45067 110.132 5.348C109.973 5.24533 109.716 5.194 109.362 5.194C108.848 5.194 108.33 5.33867 107.808 5.628V4.732C108.078 4.57333 108.382 4.452 108.718 4.368C109.054 4.284 109.385 4.242 109.712 4.242C110.318 4.242 110.776 4.382 111.084 4.662C111.401 4.942 111.56 5.334 111.56 5.838C111.56 6.146 111.49 6.40267 111.35 6.608C111.219 6.81333 111.014 7.056 110.734 7.336C110.416 7.63467 110.174 7.91933 110.006 8.19C109.838 8.45133 109.754 8.792 109.754 9.212V12.376C109.754 12.6093 109.805 12.782 109.908 12.894C110.02 13.006 110.188 13.062 110.412 13.062H111.21V14H109.894C109.492 14 109.175 13.8787 108.942 13.636C108.718 13.384 108.606 13.0573 108.606 12.656V9.198ZM116.139 13.16C116.857 13.16 117.399 13.006 117.763 12.698C118.127 12.39 118.309 11.9 118.309 11.228V6.44H119.457V11.144C119.457 12.1333 119.172 12.88 118.603 13.384C118.033 13.888 117.212 14.14 116.139 14.14C115.065 14.14 114.244 13.888 113.675 13.384C113.105 12.88 112.821 12.1333 112.821 11.144V6.44H113.969V11.228C113.969 11.9 114.151 12.39 114.515 12.698C114.879 13.006 115.42 13.16 116.139 13.16ZM127.23 7.378C127.52 7.77 127.664 8.33467 127.664 9.072V14H126.516V10.528H124.108C123.464 10.528 122.993 10.6353 122.694 10.85C122.405 11.0647 122.26 11.41 122.26 11.886C122.26 12.3527 122.391 12.684 122.652 12.88C122.923 13.0667 123.362 13.16 123.968 13.16C124.332 13.16 124.65 13.1227 124.92 13.048V14C124.566 14.0933 124.146 14.14 123.66 14.14C122.895 14.14 122.284 13.958 121.826 13.594C121.369 13.2207 121.14 12.6513 121.14 11.886C121.14 11.158 121.383 10.5933 121.868 10.192C122.354 9.78133 123.077 9.576 124.038 9.576H126.516V8.988C126.516 8.54933 126.451 8.20867 126.32 7.966C126.19 7.72333 125.97 7.55067 125.662 7.448C125.364 7.336 124.939 7.28 124.388 7.28C123.511 7.28 122.704 7.40133 121.966 7.644V6.692C122.321 6.57067 122.732 6.47733 123.198 6.412C123.665 6.33733 124.132 6.3 124.598 6.3C125.037 6.3 125.466 6.34667 125.886 6.44H128.294L128.238 7.378H127.23ZM125.66 3.318V4.34H129.426L129.37 5.166H124.694V3.318H125.66ZM126.752 2.464V0.517999H127.718V2.464H126.752ZM132.45 6.44H133.066C134.121 6.44 134.886 6.72467 135.362 7.294C135.838 7.86333 136.076 8.75 136.076 9.954C136.076 11.3727 135.773 12.4273 135.166 13.118C134.569 13.7993 133.771 14.14 132.772 14.14C132.221 14.14 131.811 14.0887 131.54 13.986L129.412 8.806H130.532L132.324 13.16L132.604 13.174C133.397 13.174 133.981 12.9127 134.354 12.39C134.737 11.858 134.928 11.0507 134.928 9.968C134.928 9.296 134.867 8.778 134.746 8.414C134.625 8.04067 134.419 7.77467 134.13 7.616C133.85 7.45733 133.453 7.378 132.94 7.378H132.45V6.44ZM137.646 10.654C137.646 10.3833 137.73 10.108 137.898 9.828C138.066 9.548 138.3 9.21667 138.598 8.834C138.832 8.53533 139 8.302 139.102 8.134C139.214 7.95667 139.27 7.798 139.27 7.658C139.27 7.42467 139.158 7.308 138.934 7.308C138.729 7.308 138.538 7.39667 138.36 7.574V8.12H137.478V6.44H138.36V6.832C138.64 6.57067 138.976 6.44 139.368 6.44C139.676 6.44 139.919 6.52867 140.096 6.706C140.283 6.874 140.376 7.11667 140.376 7.434C140.376 7.70467 140.306 7.96133 140.166 8.204C140.036 8.44667 139.835 8.74533 139.564 9.1C139.294 9.464 139.098 9.758 138.976 9.982C138.855 10.206 138.794 10.4393 138.794 10.682V11.536C138.794 12.6187 139.434 13.16 140.712 13.16C142.01 13.16 142.658 12.6093 142.658 11.508V10.542C142.658 10.0287 142.574 9.674 142.406 9.478C142.238 9.282 141.93 9.184 141.482 9.184H141.09L141.146 8.274H141.454C141.912 8.274 142.224 8.17133 142.392 7.966C142.57 7.75133 142.658 7.40133 142.658 6.916V6.3H143.806V6.902C143.806 7.39667 143.732 7.78867 143.582 8.078C143.442 8.36733 143.172 8.582 142.77 8.722C143.19 8.88067 143.466 9.10467 143.596 9.394C143.736 9.674 143.806 10.066 143.806 10.57V11.396C143.806 12.2733 143.531 12.95 142.98 13.426C142.439 13.902 141.683 14.14 140.712 14.14C139.723 14.14 138.962 13.9067 138.43 13.44C137.908 12.9733 137.646 12.2967 137.646 11.41V10.654ZM141.164 3.15H142.032V4.34H142.928V3.15H143.796V5.166H138.238L138.294 4.34H141.164V3.15ZM142.718 1.582H144.86L144.818 2.366H141.92V1.26H141.066V0.49H142.718V1.582ZM148.052 7.28C147.156 7.28 146.339 7.40133 145.602 7.644V6.692C145.966 6.57067 146.386 6.47733 146.862 6.412C147.347 6.33733 147.842 6.3 148.346 6.3C149.615 6.3 150.539 6.622 151.118 7.266C151.697 7.91 151.986 8.89933 151.986 10.234C151.986 11.5407 151.697 12.5207 151.118 13.174C150.539 13.818 149.629 14.14 148.388 14.14C147.847 14.14 147.319 14.0933 146.806 14C146.302 13.8973 145.863 13.7667 145.49 13.608V9.8H148.262L148.318 10.738H146.638V12.88C147.179 13.0667 147.753 13.16 148.36 13.16C148.976 13.16 149.461 13.0667 149.816 12.88C150.171 12.6933 150.427 12.39 150.586 11.97C150.754 11.5407 150.838 10.962 150.838 10.234C150.838 9.478 150.749 8.89 150.572 8.47C150.395 8.04067 150.105 7.73733 149.704 7.56C149.312 7.37333 148.761 7.28 148.052 7.28ZM14.9236 30.758C14.9236 29.722 15.073 28.7327 15.3716 27.79C15.6796 26.838 16.1696 26.0773 16.8416 25.508H18.1436C16.7623 26.684 16.0716 28.434 16.0716 30.758C16.0716 33.082 16.7623 34.832 18.1436 36.008H16.8416C16.1696 35.4387 15.6796 34.6827 15.3716 33.74C15.073 32.7973 14.9236 31.8033 14.9236 30.758ZM25.3476 28.378C25.637 28.77 25.7816 29.3347 25.7816 30.072V35H24.6336V31.528H22.2256C21.5816 31.528 21.1103 31.6353 20.8116 31.85C20.5223 32.0647 20.3776 32.41 20.3776 32.886C20.3776 33.3527 20.5083 33.684 20.7696 33.88C21.0403 34.0667 21.479 34.16 22.0856 34.16C22.4496 34.16 22.767 34.1227 23.0376 34.048V35C22.683 35.0933 22.263 35.14 21.7776 35.14C21.0123 35.14 20.401 34.958 19.9436 34.594C19.4863 34.2207 19.2576 33.6513 19.2576 32.886C19.2576 32.158 19.5003 31.5933 19.9856 31.192C20.471 30.7813 21.1943 30.576 22.1556 30.576H24.6336V29.988C24.6336 29.5493 24.5683 29.2087 24.4376 28.966C24.307 28.7233 24.0876 28.5507 23.7796 28.448C23.481 28.336 23.0563 28.28 22.5056 28.28C21.6283 28.28 20.821 28.4013 20.0836 28.644V27.692C20.4383 27.5707 20.849 27.4773 21.3156 27.412C21.7823 27.3373 22.249 27.3 22.7156 27.3C23.1543 27.3 23.5836 27.3467 24.0036 27.44H26.4116L26.3556 28.378H25.3476ZM23.7911 25.046C23.7911 24.6447 23.9358 24.3087 24.2251 24.038C24.5051 23.758 24.8504 23.618 25.2611 23.618C25.6718 23.618 26.0171 23.758 26.2971 24.038C26.5771 24.3087 26.7171 24.6447 26.7171 25.046C26.7171 25.4473 26.5771 25.7833 26.2971 26.054C26.0171 26.3247 25.6718 26.46 25.2611 26.46C24.8504 26.46 24.5051 26.3247 24.2251 26.054C23.9358 25.7833 23.7911 25.4473 23.7911 25.046ZM24.5611 25.046C24.5611 25.2327 24.6311 25.396 24.7711 25.536C24.9018 25.6667 25.0651 25.732 25.2611 25.732C25.4478 25.732 25.6111 25.6667 25.7511 25.536C25.8818 25.396 25.9471 25.2327 25.9471 25.046C25.9471 24.8593 25.8818 24.696 25.7511 24.556C25.6111 24.416 25.4478 24.346 25.2611 24.346C25.0651 24.346 24.9018 24.416 24.7711 24.556C24.6311 24.696 24.5611 24.8593 24.5611 25.046ZM30.8471 30.114C30.8471 29.6567 30.8004 29.302 30.7071 29.05C30.6231 28.798 30.4504 28.6067 30.1891 28.476C29.9371 28.3453 29.5544 28.28 29.0411 28.28C28.7424 28.28 28.4158 28.3127 28.0611 28.378C27.7158 28.4433 27.3984 28.532 27.1091 28.644V27.692C27.3984 27.58 27.7344 27.4867 28.1171 27.412C28.4998 27.3373 28.8778 27.3 29.2511 27.3C30.2124 27.3 30.9078 27.5147 31.3371 27.944C31.7758 28.364 31.9951 29.0453 31.9951 29.988V35H30.8471V30.114ZM35.1094 29.89H37.6154C38.2128 29.89 38.6328 29.7687 38.8754 29.526C39.1181 29.274 39.2394 28.8867 39.2394 28.364V27.44H40.3874V28.35C40.3874 29.4233 39.9861 30.086 39.1834 30.338C39.6221 30.478 39.9161 30.7067 40.0654 31.024C40.2241 31.332 40.3034 31.738 40.3034 32.242V35H39.1554V32.382C39.1554 31.9807 39.1041 31.668 39.0014 31.444C38.9081 31.22 38.7448 31.0613 38.5114 30.968C38.2874 30.8747 37.9654 30.828 37.5454 30.828H35.1094V35H33.9614V27.44H35.1094V29.89ZM46.5023 33.068C46.5023 32.7973 46.4369 32.5827 46.3063 32.424C46.1849 32.2653 46.0169 32.1393 45.8023 32.046C45.5969 31.9527 45.2843 31.8407 44.8643 31.71L44.3603 31.542C43.8469 31.374 43.4269 31.206 43.1003 31.038C42.7736 30.87 42.5029 30.6507 42.2883 30.38C42.0829 30.1 41.9803 29.7547 41.9803 29.344C41.9803 28.6813 42.2276 28.1773 42.7223 27.832C43.2169 27.4773 43.9449 27.3 44.9063 27.3C45.2983 27.3 45.6949 27.3327 46.0963 27.398C46.4976 27.4633 46.8429 27.5427 47.1323 27.636V28.644C46.5069 28.4013 45.8209 28.28 45.0743 28.28C44.3929 28.28 43.8983 28.3547 43.5903 28.504C43.2823 28.644 43.1283 28.9147 43.1283 29.316C43.1283 29.5773 43.2076 29.792 43.3663 29.96C43.5343 30.1187 43.7443 30.2493 43.9963 30.352C44.2576 30.4453 44.6916 30.59 45.2983 30.786C45.8209 30.954 46.2456 31.1313 46.5723 31.318C46.9083 31.4953 47.1696 31.724 47.3563 32.004C47.5523 32.284 47.6503 32.634 47.6503 33.054C47.6503 34.4447 46.6516 35.14 44.6543 35.14C44.1783 35.14 43.7163 35.1073 43.2683 35.042C42.8296 34.9767 42.4656 34.888 42.1763 34.776V33.754C42.8669 34.0247 43.6276 34.16 44.4583 34.16C45.1956 34.16 45.7183 34.09 46.0263 33.95C46.3436 33.8007 46.5023 33.5067 46.5023 33.068ZM45.2966 24.318V25.34H49.0626L49.0066 26.166H44.3306V24.318H45.2966ZM52.6466 34.16C53.3653 34.16 53.9066 34.006 54.2706 33.698C54.6346 33.39 54.8166 32.9 54.8166 32.228V27.44H55.9646V32.144C55.9646 33.1333 55.68 33.88 55.1106 34.384C54.5413 34.888 53.72 35.14 52.6466 35.14C51.5733 35.14 50.752 34.888 50.1826 34.384C49.6133 33.88 49.3286 33.1333 49.3286 32.144V27.44H50.4766V32.228C50.4766 32.9 50.6586 33.39 51.0226 33.698C51.3866 34.006 51.928 34.16 52.6466 34.16ZM58.5022 28.364C58.5022 27.7573 58.3856 27.3047 58.1522 27.006C57.9282 26.698 57.5502 26.432 57.0182 26.208V25.284H60.8962V26.208H58.4742C58.9222 26.4507 59.2302 26.7493 59.3982 27.104C59.5662 27.4587 59.6502 27.9953 59.6502 28.714V33.376C59.6502 33.6093 59.7016 33.782 59.8042 33.894C59.9162 34.006 60.0842 34.062 60.3082 34.062H61.1062V35H59.7902C59.3889 35 59.0716 34.8787 58.8382 34.636C58.6142 34.384 58.5022 34.0573 58.5022 33.656V28.364ZM64.6536 28.28C63.7576 28.28 62.9409 28.4013 62.2036 28.644V27.692C62.5676 27.5707 62.9876 27.4773 63.4636 27.412C63.9489 27.3373 64.4436 27.3 64.9476 27.3C66.2169 27.3 67.1409 27.622 67.7196 28.266C68.2983 28.91 68.5876 29.8993 68.5876 31.234C68.5876 32.5407 68.2983 33.5207 67.7196 34.174C67.1409 34.818 66.2309 35.14 64.9896 35.14C64.4483 35.14 63.9209 35.0933 63.4076 35C62.9036 34.8973 62.4649 34.7667 62.0916 34.608V30.8H64.8636L64.9196 31.738H63.2396V33.88C63.7809 34.0667 64.3549 34.16 64.9616 34.16C65.5776 34.16 66.0629 34.0667 66.4176 33.88C66.7723 33.6933 67.0289 33.39 67.1876 32.97C67.3556 32.5407 67.4396 31.962 67.4396 31.234C67.4396 30.478 67.3509 29.89 67.1736 29.47C66.9963 29.0407 66.7069 28.7373 66.3056 28.56C65.9136 28.3733 65.3629 28.28 64.6536 28.28ZM71.4219 27.44V32.41C71.4219 33.026 71.5573 33.474 71.8279 33.754C72.1079 34.0247 72.5559 34.16 73.1719 34.16C73.6293 34.16 74.0586 34.0667 74.4599 33.88C74.8706 33.6933 75.2253 33.4413 75.5239 33.124V27.44H76.6719V35H75.6359L75.5659 34.09C74.7913 34.79 73.8673 35.14 72.7939 35.14C71.9819 35.14 71.3566 34.9067 70.9179 34.44C70.4886 33.9733 70.2739 33.3013 70.2739 32.424V27.44H71.4219ZM80.8395 28.28C79.9715 28.28 79.5375 28.658 79.5375 29.414C79.5375 29.8153 79.6681 30.114 79.9295 30.31C80.1908 30.506 80.5501 30.604 81.0075 30.604H81.8055L81.8755 31.472H80.9655C80.4708 31.472 80.1021 31.5887 79.8595 31.822C79.6168 32.0553 79.4955 32.396 79.4955 32.844C79.4955 33.292 79.6681 33.6233 80.0135 33.838C80.3681 34.0527 80.9095 34.16 81.6375 34.16C82.3655 34.16 82.9068 34.02 83.2615 33.74C83.6161 33.46 83.7935 33.0213 83.7935 32.424V27.44H84.9415V32.228C84.9415 33.1893 84.6755 33.9173 84.1435 34.412C83.6115 34.8973 82.7901 35.14 81.6795 35.14C80.6341 35.14 79.8175 34.9487 79.2295 34.566C78.6415 34.1833 78.3475 33.6093 78.3475 32.844C78.3475 32.4147 78.4455 32.0507 78.6415 31.752C78.8468 31.444 79.1315 31.2107 79.4955 31.052C79.1595 30.9493 78.8888 30.758 78.6835 30.478C78.4875 30.198 78.3895 29.8433 78.3895 29.414C78.3895 28.7327 78.5948 28.21 79.0055 27.846C79.4161 27.482 79.9575 27.3 80.6295 27.3C81.0775 27.3 81.4648 27.3513 81.7915 27.454V28.406C81.5395 28.322 81.2221 28.28 80.8395 28.28ZM82.8109 25.34H85.8769L85.8209 26.166H81.9849V24.85H80.8789V24.024H82.8109V25.34ZM89.9369 30.114C89.9369 29.6567 89.8903 29.302 89.7969 29.05C89.7129 28.798 89.5403 28.6067 89.2789 28.476C89.0269 28.3453 88.6443 28.28 88.1309 28.28C87.8323 28.28 87.5056 28.3127 87.1509 28.378C86.8056 28.4433 86.4883 28.532 86.1989 28.644V27.692C86.4883 27.58 86.8243 27.4867 87.2069 27.412C87.5896 27.3373 87.9676 27.3 88.3409 27.3C89.3023 27.3 89.9976 27.5147 90.4269 27.944C90.8656 28.364 91.0849 29.0453 91.0849 29.988V35H89.9369V30.114ZM95.2633 28.28C94.3953 28.28 93.9613 28.658 93.9613 29.414C93.9613 29.8153 94.092 30.114 94.3533 30.31C94.6146 30.506 94.974 30.604 95.4313 30.604H96.2293L96.2993 31.472H95.3893C94.8946 31.472 94.526 31.5887 94.2833 31.822C94.0406 32.0553 93.9193 32.396 93.9193 32.844C93.9193 33.292 94.092 33.6233 94.4373 33.838C94.792 34.0527 95.3333 34.16 96.0613 34.16C96.7893 34.16 97.3306 34.02 97.6853 33.74C98.04 33.46 98.2173 33.0213 98.2173 32.424V27.44H99.3653V32.228C99.3653 33.1893 99.0993 33.9173 98.5673 34.412C98.0353 34.8973 97.214 35.14 96.1033 35.14C95.058 35.14 94.2413 34.9487 93.6533 34.566C93.0653 34.1833 92.7713 33.6093 92.7713 32.844C92.7713 32.4147 92.8693 32.0507 93.0653 31.752C93.2706 31.444 93.5553 31.2107 93.9193 31.052C93.5833 30.9493 93.3126 30.758 93.1073 30.478C92.9113 30.198 92.8133 29.8433 92.8133 29.414C92.8133 28.7327 93.0186 28.21 93.4293 27.846C93.84 27.482 94.3813 27.3 95.0533 27.3C95.5013 27.3 95.8886 27.3513 96.2153 27.454V28.406C95.9633 28.322 95.646 28.28 95.2633 28.28ZM103.605 28.28C102.709 28.28 101.892 28.4013 101.155 28.644V27.692C101.519 27.5707 101.939 27.4773 102.415 27.412C102.9 27.3373 103.395 27.3 103.899 27.3C105.168 27.3 106.092 27.622 106.671 28.266C107.249 28.91 107.539 29.8993 107.539 31.234C107.539 32.5407 107.249 33.5207 106.671 34.174C106.092 34.818 105.182 35.14 103.941 35.14C103.399 35.14 102.872 35.0933 102.359 35C101.855 34.8973 101.416 34.7667 101.043 34.608V30.8H103.815L103.871 31.738H102.191V33.88C102.732 34.0667 103.306 34.16 103.913 34.16C104.529 34.16 105.014 34.0667 105.369 33.88C105.723 33.6933 105.98 33.39 106.139 32.97C106.307 32.5407 106.391 31.962 106.391 31.234C106.391 30.478 106.302 29.89 106.125 29.47C105.947 29.0407 105.658 28.7373 105.257 28.56C104.865 28.3733 104.314 28.28 103.605 28.28ZM109.939 28.672V29.358H112.109L112.067 30.24H108.945V28.672H109.939ZM109.939 32.536V33.236H112.109L112.067 34.104H108.945V32.536H109.939ZM114.03 28.602C114.03 28.042 114.137 27.5613 114.352 27.16C114.566 26.7587 114.865 26.4413 115.248 26.208H112.882V25.284H116.662V26.194C116.102 26.4367 115.714 26.768 115.5 27.188C115.285 27.608 115.178 28.2053 115.178 28.98V33.376C115.178 33.6093 115.229 33.782 115.332 33.894C115.444 34.006 115.612 34.062 115.836 34.062H116.634V35H115.318C114.916 35 114.599 34.8787 114.366 34.636C114.142 34.384 114.03 34.0573 114.03 33.656V28.602ZM119.068 29.89H121.574C122.172 29.89 122.592 29.7687 122.834 29.526C123.077 29.274 123.198 28.8867 123.198 28.364V27.44H124.346V28.35C124.346 29.4233 123.945 30.086 123.142 30.338C123.581 30.478 123.875 30.7067 124.024 31.024C124.183 31.332 124.262 31.738 124.262 32.242V35H123.114V32.382C123.114 31.9807 123.063 31.668 122.96 31.444C122.867 31.22 122.704 31.0613 122.47 30.968C122.246 30.8747 121.924 30.828 121.504 30.828H119.068V35H117.92V27.44H119.068V29.89ZM129.187 28.28C128.31 28.28 127.503 28.4013 126.765 28.644V27.692C127.12 27.5707 127.531 27.4773 127.997 27.412C128.464 27.3373 128.931 27.3 129.397 27.3C130.461 27.3 131.236 27.524 131.721 27.972C132.216 28.4107 132.463 29.1107 132.463 30.072V35H131.315V31.528H128.907C128.263 31.528 127.792 31.6353 127.493 31.85C127.204 32.0647 127.059 32.41 127.059 32.886C127.059 33.3527 127.19 33.684 127.451 33.88C127.722 34.0667 128.161 34.16 128.767 34.16C129.131 34.16 129.449 34.1227 129.719 34.048V35C129.365 35.0933 128.945 35.14 128.459 35.14C127.694 35.14 127.083 34.958 126.625 34.594C126.168 34.2207 125.939 33.6513 125.939 32.886C125.939 32.158 126.182 31.5933 126.667 31.192C127.153 30.7813 127.876 30.576 128.837 30.576H131.315V29.988C131.315 29.5493 131.25 29.2087 131.119 28.966C130.989 28.7233 130.769 28.5507 130.461 28.448C130.163 28.336 129.738 28.28 129.187 28.28ZM131.328 26.166V23.898H132.476V26.166H131.328ZM137.082 30.758C137.082 31.8033 136.928 32.7973 136.62 33.74C136.322 34.6827 135.841 35.4387 135.178 36.008H133.862C135.244 34.832 135.934 33.082 135.934 30.758C135.934 28.434 135.244 26.684 133.862 25.508H135.178C135.841 26.0773 136.322 26.838 136.62 27.79C136.928 28.7327 137.082 29.722 137.082 30.758Z" fill="black"/>
</svg>
