<?xml version="1.0" encoding="utf-8"?>
<!-- Generator: Adobe Illustrator 24.0.0, SVG Export Plug-In . SVG Version: 6.00 Build 0)  -->
<svg version="1.1" id="Layer_1" xmlns="http://www.w3.org/2000/svg" xmlns:xlink="http://www.w3.org/1999/xlink" x="0px" y="0px"
	 viewBox="0 0 73 13" style="enable-background:new 0 0 73 13;" xml:space="preserve">
<path d="M27.6,5.3c-0.7,0-1.3,0.1-1.6,0.4C25.6,6,25.5,6.4,25.5,7v1.8c0.4-0.4,1-0.6,1.6-0.6H28l0.1,0.9h-1c-0.6,0-1.2,0.2-1.6,0.5
	V12h-1.1V7.1c0-1.9,1.1-2.8,3.3-2.8s3.2,0.9,3.2,2.8V12h-1.1V7c0-0.6-0.2-1-0.5-1.3C28.8,5.4,28.3,5.3,27.6,5.3z M35.8,5.3
	c-0.9,0-1.7,0.1-2.4,0.4v-1c0.4-0.1,0.8-0.2,1.2-0.3c0.5-0.1,0.9-0.1,1.4-0.1c1.1,0,1.8,0.2,2.3,0.7C38.8,5.4,39,6.1,39,7.1V12h-1.1
	V8.5h-2.4c-0.6,0-1.1,0.1-1.4,0.3s-0.4,0.6-0.4,1c0,0.5,0.1,0.8,0.4,1s0.7,0.3,1.3,0.3c0.4,0,0.7,0,1-0.1v1
	c-0.4,0.1-0.8,0.1-1.3,0.1c-0.8,0-1.4-0.2-1.8-0.5c-0.5-0.4-0.7-0.9-0.7-1.7c0-0.7,0.2-1.3,0.7-1.7c0.5-0.4,1.2-0.6,2.2-0.6H38V7
	c0-0.4-0.1-0.8-0.2-1c-0.1-0.2-0.4-0.4-0.7-0.5C36.8,5.3,36.3,5.3,35.8,5.3z M37,1.3v1h3.8l-0.1,0.8H36V1.3H37z M43.8,4.4h0.6
	c1.1,0,1.8,0.3,2.3,0.9s0.7,1.5,0.7,2.7c0,1.4-0.3,2.5-0.9,3.2c-0.6,0.7-1.4,1-2.4,1c-0.6,0-1-0.1-1.2-0.2l-2.1-5.2h1.1l1.8,4.4H44
	c0.8,0,1.4-0.3,1.8-0.8c0.4-0.5,0.6-1.3,0.6-2.4c0-0.7-0.1-1.2-0.2-1.6C46,6,45.7,5.8,45.5,5.6c-0.3-0.2-0.7-0.2-1.2-0.2h-0.5V4.4z"
	/>
</svg>
