<svg width="43" height="9" viewBox="0 0 43 9" fill="none" xmlns="http://www.w3.org/2000/svg">
<path d="M4.68977 6.068C4.68977 5.79733 4.62444 5.58267 4.49377 5.424C4.37244 5.26533 4.20444 5.13933 3.98977 5.046C3.78444 4.95267 3.47177 4.84067 3.05177 4.71L2.54777 4.542C2.03444 4.374 1.61444 4.206 1.28777 4.038C0.961107 3.87 0.69044 3.65067 0.475773 3.38C0.27044 3.1 0.167773 2.75467 0.167773 2.344C0.167773 1.68133 0.415107 1.17733 0.909774 0.832C1.40444 0.477333 2.13244 0.3 3.09377 0.3C3.48577 0.3 3.88244 0.332666 4.28377 0.397999C4.68511 0.463333 5.03044 0.542666 5.31977 0.636V1.644C4.69444 1.40133 4.00844 1.28 3.26177 1.28C2.58044 1.28 2.08577 1.35467 1.77777 1.504C1.46977 1.644 1.31577 1.91467 1.31577 2.316C1.31577 2.57733 1.39511 2.792 1.55377 2.96C1.72177 3.11867 1.93177 3.24933 2.18377 3.352C2.44511 3.44533 2.87911 3.59 3.48577 3.786C4.00844 3.954 4.43311 4.13133 4.75977 4.318C5.09577 4.49533 5.35711 4.724 5.54377 5.004C5.73977 5.284 5.83777 5.634 5.83777 6.054C5.83777 7.44467 4.83911 8.14 2.84177 8.14C2.36577 8.14 1.90377 8.10733 1.45577 8.042C1.01711 7.97667 0.653107 7.888 0.363773 7.776V6.754C1.05444 7.02467 1.81511 7.16 2.64577 7.16C3.38311 7.16 3.90577 7.09 4.21377 6.95C4.53111 6.80067 4.68977 6.50667 4.68977 6.068ZM10.5541 3.114C10.5541 2.65667 10.5075 2.302 10.4141 2.05C10.3301 1.798 10.1575 1.60667 9.89613 1.476C9.64413 1.34533 9.26147 1.28 8.74813 1.28C8.44947 1.28 8.1228 1.31267 7.76813 1.378C7.4228 1.44333 7.10547 1.532 6.81613 1.644V0.692C7.10547 0.58 7.44147 0.486666 7.82413 0.411999C8.2068 0.337333 8.5848 0.3 8.95813 0.3C9.91947 0.3 10.6148 0.514667 11.0441 0.944C11.4828 1.364 11.7021 2.04533 11.7021 2.988V8H10.5541V3.114ZM15.8805 1.28C15.0125 1.28 14.5785 1.658 14.5785 2.414C14.5785 2.81533 14.7091 3.114 14.9705 3.31C15.2318 3.506 15.5911 3.604 16.0485 3.604H16.8465L16.9165 4.472H16.0065C15.5118 4.472 15.1431 4.58867 14.9005 4.822C14.6578 5.05533 14.5365 5.396 14.5365 5.844C14.5365 6.292 14.7091 6.62333 15.0545 6.838C15.4091 7.05267 15.9505 7.16 16.6785 7.16C17.4065 7.16 17.9478 7.02 18.3025 6.74C18.6571 6.46 18.8345 6.02133 18.8345 5.424V0.44H19.9825V5.228C19.9825 6.18933 19.7165 6.91733 19.1845 7.412C18.6525 7.89733 17.8311 8.14 16.7205 8.14C15.6751 8.14 14.8585 7.94867 14.2705 7.566C13.6825 7.18333 13.3885 6.60933 13.3885 5.844C13.3885 5.41467 13.4865 5.05067 13.6825 4.752C13.8878 4.444 14.1725 4.21067 14.5365 4.052C14.2005 3.94933 13.9298 3.758 13.7245 3.478C13.5285 3.198 13.4305 2.84333 13.4305 2.414C13.4305 1.73267 13.6358 1.21 14.0465 0.845999C14.4571 0.482 14.9985 0.3 15.6705 0.3C16.1185 0.3 16.5058 0.351333 16.8325 0.454V1.406C16.5805 1.322 16.2631 1.28 15.8805 1.28ZM24.698 0.44H25.314C26.3686 0.44 27.134 0.724666 27.61 1.294C28.086 1.86333 28.324 2.75 28.324 3.954C28.324 5.37267 28.0206 6.42733 27.414 7.118C26.8166 7.79933 26.0186 8.14 25.02 8.14C24.4693 8.14 24.0586 8.08867 23.788 7.986L21.66 2.806H22.78L24.572 7.16L24.852 7.174C25.6453 7.174 26.2286 6.91267 26.602 6.39C26.9846 5.858 27.176 5.05067 27.176 3.968C27.176 3.296 27.1153 2.778 26.994 2.414C26.8726 2.04067 26.6673 1.77467 26.378 1.616C26.098 1.45733 25.7013 1.378 25.188 1.378H24.698V0.44ZM33.0444 3.114C33.0444 2.65667 32.9977 2.302 32.9044 2.05C32.8204 1.798 32.6477 1.60667 32.3864 1.476C32.1344 1.34533 31.7517 1.28 31.2384 1.28C30.9397 1.28 30.613 1.31267 30.2584 1.378C29.913 1.44333 29.5957 1.532 29.3064 1.644V0.692C29.5957 0.58 29.9317 0.486666 30.3144 0.411999C30.697 0.337333 31.075 0.3 31.4484 0.3C32.4097 0.3 33.105 0.514667 33.5344 0.944C33.973 1.364 34.1924 2.04533 34.1924 2.988V8H33.0444V3.114ZM37.3067 0.44V5.41C37.3067 6.026 37.442 6.474 37.7127 6.754C37.9927 7.02467 38.4407 7.16 39.0567 7.16C39.514 7.16 39.9434 7.06667 40.3447 6.88C40.7554 6.69333 41.11 6.44133 41.4087 6.124V0.44H42.5567V8H41.5207L41.4507 7.09C40.676 7.79 39.752 8.14 38.6787 8.14C37.8667 8.14 37.2414 7.90667 36.8027 7.44C36.3734 6.97333 36.1587 6.30133 36.1587 5.424V0.44H37.3067Z" fill="black"/>
</svg>
