<svg width="119" height="36" viewBox="0 0 119 36" fill="none" xmlns="http://www.w3.org/2000/svg">
<path d="M23.7568 5.33C23.7568 4.92867 23.6961 4.65333 23.5748 4.504C23.4628 4.35467 23.2435 4.28 22.9168 4.28C22.4315 4.28 22.1001 4.49933 21.9228 4.938H21.1528C21.0128 4.69533 20.8728 4.52733 20.7328 4.434C20.5928 4.33133 20.4015 4.28 20.1588 4.28C19.6548 4.28 19.3048 4.53667 19.1088 5.05C18.9128 5.554 18.8148 6.30067 18.8148 7.29C18.8148 8.326 18.9828 9.06333 19.3188 9.502C19.6641 9.94067 20.1868 10.16 20.8868 10.16C21.3068 10.16 21.6288 10.1227 21.8528 10.048V11C21.5448 11.0933 21.1575 11.14 20.6908 11.14C19.7761 11.14 19.0435 10.8227 18.4928 10.188C17.9421 9.544 17.6668 8.578 17.6668 7.29C17.6668 6.01133 17.8675 5.02667 18.2688 4.336C18.6795 3.64533 19.2628 3.3 20.0188 3.3C20.3735 3.3 20.6675 3.36067 20.9008 3.482C21.1341 3.60333 21.3488 3.79 21.5448 4.042C21.7501 3.80867 22.0021 3.62667 22.3008 3.496C22.6088 3.36533 22.9215 3.3 23.2388 3.3C23.7801 3.3 24.1908 3.46333 24.4708 3.79C24.7601 4.10733 24.9048 4.56933 24.9048 5.176V11H23.7568V5.33ZM31.1029 9.068C31.1029 8.79733 31.0375 8.58267 30.9069 8.424C30.7855 8.26533 30.6175 8.13933 30.4029 8.046C30.1975 7.95267 29.8849 7.84067 29.4649 7.71L28.9609 7.542C28.4475 7.374 28.0275 7.206 27.7009 7.038C27.3742 6.87 27.1035 6.65067 26.8889 6.38C26.6835 6.1 26.5809 5.75467 26.5809 5.344C26.5809 4.68133 26.8282 4.17733 27.3229 3.832C27.8175 3.47733 28.5455 3.3 29.5069 3.3C29.8989 3.3 30.2955 3.33267 30.6969 3.398C31.0982 3.46333 31.4435 3.54267 31.7329 3.636V4.644C31.1075 4.40133 30.4215 4.28 29.6749 4.28C28.9935 4.28 28.4989 4.35467 28.1909 4.504C27.8829 4.644 27.7289 4.91467 27.7289 5.316C27.7289 5.57733 27.8082 5.792 27.9669 5.96C28.1349 6.11867 28.3449 6.24933 28.5969 6.352C28.8582 6.44533 29.2922 6.59 29.8989 6.786C30.4215 6.954 30.8462 7.13133 31.1729 7.318C31.5089 7.49533 31.7702 7.724 31.9569 8.004C32.1529 8.284 32.2509 8.634 32.2509 9.054C32.2509 10.4447 31.2522 11.14 29.2549 11.14C28.7789 11.14 28.3169 11.1073 27.8689 11.042C27.4302 10.9767 27.0662 10.888 26.7769 10.776V9.754C27.4675 10.0247 28.2282 10.16 29.0589 10.16C29.7962 10.16 30.3189 10.09 30.6269 9.95C30.9442 9.80067 31.1029 9.50667 31.1029 9.068ZM33.6492 9.782C34.2652 10.034 34.8812 10.16 35.4972 10.16C36.1786 10.16 36.7106 10.062 37.0932 9.866C37.4852 9.67 37.7606 9.362 37.9192 8.942C38.0779 8.51267 38.1572 7.93867 38.1572 7.22C38.1572 6.17467 37.9472 5.42333 37.5272 4.966C37.1166 4.50867 36.4259 4.28 35.4552 4.28C34.8299 4.28 34.2279 4.41067 33.6492 4.672V3.692C34.2466 3.43067 34.9279 3.3 35.6932 3.3C38.1012 3.3 39.3052 4.60667 39.3052 7.22C39.3052 8.51733 39.0252 9.49733 38.4652 10.16C37.9052 10.8133 37.0046 11.14 35.7632 11.14C34.9606 11.14 34.2559 11.0093 33.6492 10.748V9.782ZM43.2239 4.28C42.3652 4.28 41.5719 4.40133 40.8439 4.644V3.692C41.6279 3.43067 42.5239 3.3 43.5319 3.3C46.0239 3.3 47.2699 4.57867 47.2699 7.136C47.2699 7.98533 47.1159 8.71333 46.8079 9.32C46.4999 9.91733 46.0846 10.37 45.5619 10.678C45.0392 10.986 44.4652 11.14 43.8399 11.14C43.6626 11.14 43.4712 11.126 43.2659 11.098C43.0606 11.07 42.8972 11.0327 42.7759 10.986L41.5999 7.85H40.7039L40.7599 6.912H42.3419L43.5599 10.16L43.7979 10.174C44.4699 10.174 45.0252 9.92667 45.4639 9.432C45.9026 8.928 46.1219 8.16267 46.1219 7.136C46.1219 6.42667 46.0286 5.86667 45.8419 5.456C45.6552 5.04533 45.3519 4.74667 44.9319 4.56C44.5119 4.37333 43.9426 4.28 43.2239 4.28ZM50.1026 3.44V8.41C50.1026 9.026 50.2379 9.474 50.5086 9.754C50.7886 10.0247 51.2366 10.16 51.8526 10.16C52.3099 10.16 52.7393 10.0667 53.1406 9.88C53.5513 9.69333 53.9059 9.44133 54.2046 9.124V3.44H55.3526V11H54.3166L54.2466 10.09C53.4719 10.79 52.5479 11.14 51.4746 11.14C50.6626 11.14 50.0373 10.9067 49.5986 10.44C49.1693 9.97333 48.9546 9.30133 48.9546 8.424V3.44H50.1026ZM53.2761 0.318V1.34H57.0421L56.9861 2.166H52.3101V0.318H53.2761ZM60.6261 10.16C61.3448 10.16 61.8861 10.006 62.2501 9.698C62.6141 9.39 62.7961 8.9 62.7961 8.228V3.44H63.9441V8.144C63.9441 9.13333 63.6595 9.88 63.0901 10.384C62.5208 10.888 61.6995 11.14 60.6261 11.14C59.5528 11.14 58.7315 10.888 58.1621 10.384C57.5928 9.88 57.3081 9.13333 57.3081 8.144V3.44H58.4561V8.228C58.4561 8.9 58.6381 9.39 59.0021 9.698C59.3661 10.006 59.9075 10.16 60.6261 10.16ZM71.7177 4.378C72.0071 4.77 72.1517 5.33467 72.1517 6.072V11H71.0037V7.528H68.5957C67.9517 7.528 67.4804 7.63533 67.1817 7.85C66.8924 8.06467 66.7477 8.41 66.7477 8.886C66.7477 9.35267 66.8784 9.684 67.1397 9.88C67.4104 10.0667 67.8491 10.16 68.4557 10.16C68.8197 10.16 69.1371 10.1227 69.4077 10.048V11C69.0531 11.0933 68.6331 11.14 68.1477 11.14C67.3824 11.14 66.7711 10.958 66.3137 10.594C65.8564 10.2207 65.6277 9.65133 65.6277 8.886C65.6277 8.158 65.8704 7.59333 66.3557 7.192C66.8411 6.78133 67.5644 6.576 68.5257 6.576H71.0037V5.988C71.0037 5.54933 70.9384 5.20867 70.8077 4.966C70.6771 4.72333 70.4577 4.55067 70.1497 4.448C69.8511 4.336 69.4264 4.28 68.8757 4.28C67.9984 4.28 67.1911 4.40133 66.4537 4.644V3.692C66.8084 3.57067 67.2191 3.47733 67.6857 3.412C68.1524 3.33733 68.6191 3.3 69.0857 3.3C69.5244 3.3 69.9537 3.34667 70.3737 3.44H72.7817L72.7257 4.378H71.7177ZM66.6472 2.166L66.7032 1.34H72.2052V2.166H66.6472ZM75.3272 3.44V8.41C75.3272 9.026 75.4626 9.474 75.7332 9.754C76.0132 10.0247 76.4612 10.16 77.0772 10.16C77.5346 10.16 77.9639 10.0667 78.3652 9.88C78.7759 9.69333 79.1306 9.44133 79.4292 9.124V3.44H80.5772V11H79.5412L79.4712 10.09C78.6966 10.79 77.7726 11.14 76.6992 11.14C75.8872 11.14 75.2619 10.9067 74.8232 10.44C74.3939 9.97333 74.1792 9.30133 74.1792 8.424V3.44H75.3272ZM85.8087 4.28C85.0901 4.28 84.5534 4.41533 84.1987 4.686C83.8534 4.95667 83.6807 5.386 83.6807 5.974V7.724C84.1194 7.34133 84.6607 7.15 85.3047 7.15H86.2287L86.2847 8.088H85.2767C84.6421 8.088 84.1101 8.27 83.6807 8.634V11H82.5327V6.1C82.5327 4.23333 83.6247 3.3 85.8087 3.3C87.9741 3.3 89.0567 4.23333 89.0567 6.1V11H87.9087V5.974C87.9087 5.386 87.7314 4.95667 87.3767 4.686C87.0314 4.41533 86.5087 4.28 85.8087 4.28ZM86.935 1.34H90.001L89.945 2.166H86.109V0.85H85.003V0.0239995H86.935V1.34ZM94.061 6.114C94.061 5.65667 94.0143 5.302 93.921 5.05C93.837 4.798 93.6643 4.60667 93.403 4.476C93.151 4.34533 92.7683 4.28 92.255 4.28C91.9563 4.28 91.6296 4.31267 91.275 4.378C90.9296 4.44333 90.6123 4.532 90.323 4.644V3.692C90.6123 3.58 90.9483 3.48667 91.331 3.412C91.7136 3.33733 92.0916 3.3 92.465 3.3C93.4263 3.3 94.1216 3.51467 94.551 3.944C94.9896 4.364 95.209 5.04533 95.209 5.988V11H94.061V6.114ZM100.171 1.732H101.333L98.0573 11H96.8953L100.171 1.732ZM4.30484 31.16C5.0235 31.16 5.56484 31.006 5.92884 30.698C6.29284 30.39 6.47484 29.9 6.47484 29.228V22.2H7.62284V29.144C7.62284 30.1333 7.33817 30.88 6.76884 31.384C6.1995 31.888 5.37817 32.14 4.30484 32.14C3.2315 32.14 2.41017 31.888 1.84084 31.384C1.2715 30.88 0.986836 30.1333 0.986836 29.144V24.44H2.13484V29.228C2.13484 29.9 2.31684 30.39 2.68084 30.698C3.04484 31.006 3.58617 31.16 4.30484 31.16ZM13.8284 30.068C13.8284 29.7973 13.7631 29.5827 13.6324 29.424C13.5111 29.2653 13.3431 29.1393 13.1284 29.046C12.9231 28.9527 12.6104 28.8407 12.1904 28.71L11.6864 28.542C11.1731 28.374 10.7531 28.206 10.4264 28.038C10.0998 27.87 9.82911 27.6507 9.61445 27.38C9.40911 27.1 9.30645 26.7547 9.30645 26.344C9.30645 25.6813 9.55378 25.1773 10.0484 24.832C10.5431 24.4773 11.2711 24.3 12.2324 24.3C12.6244 24.3 13.0211 24.3327 13.4224 24.398C13.8238 24.4633 14.1691 24.5427 14.4584 24.636V25.644C13.8331 25.4013 13.1471 25.28 12.4004 25.28C11.7191 25.28 11.2244 25.3547 10.9164 25.504C10.6084 25.644 10.4544 25.9147 10.4544 26.316C10.4544 26.5773 10.5338 26.792 10.6924 26.96C10.8604 27.1187 11.0704 27.2493 11.3224 27.352C11.5838 27.4453 12.0178 27.59 12.6244 27.786C13.1471 27.954 13.5718 28.1313 13.8984 28.318C14.2344 28.4953 14.4958 28.724 14.6824 29.004C14.8784 29.284 14.9764 29.634 14.9764 30.054C14.9764 31.4447 13.9778 32.14 11.9804 32.14C11.5044 32.14 11.0424 32.1073 10.5944 32.042C10.1558 31.9767 9.79178 31.888 9.50245 31.776V30.754C10.1931 31.0247 10.9538 31.16 11.7844 31.16C12.5218 31.16 13.0444 31.09 13.3524 30.95C13.6698 30.8007 13.8284 30.5067 13.8284 30.068ZM12.6228 21.318V22.34H16.3888L16.3328 23.166H11.6568V21.318H12.6228ZM19.9728 31.16C20.6915 31.16 21.2328 31.006 21.5968 30.698C21.9608 30.39 22.1428 29.9 22.1428 29.228V24.44H23.2908V29.144C23.2908 30.1333 23.0061 30.88 22.4368 31.384C21.8675 31.888 21.0461 32.14 19.9728 32.14C18.8995 32.14 18.0781 31.888 17.5088 31.384C16.9395 30.88 16.6548 30.1333 16.6548 29.144V24.44H17.8028V29.228C17.8028 29.9 17.9848 30.39 18.3488 30.698C18.7128 31.006 19.2541 31.16 19.9728 31.16ZM28.5724 31.16C29.2911 31.16 29.8324 31.006 30.1964 30.698C30.5604 30.39 30.7424 29.9 30.7424 29.228V22.2H31.8904V29.144C31.8904 30.1333 31.6057 30.88 31.0364 31.384C30.4671 31.888 29.6457 32.14 28.5724 32.14C27.4991 32.14 26.6777 31.888 26.1084 31.384C25.5391 30.88 25.2544 30.1333 25.2544 29.144V24.44H26.4024V29.228C26.4024 29.9 26.5844 30.39 26.9484 30.698C27.3124 31.006 27.8537 31.16 28.5724 31.16ZM38.096 30.068C38.096 29.7973 38.0307 29.5827 37.9 29.424C37.7787 29.2653 37.6107 29.1393 37.396 29.046C37.1907 28.9527 36.878 28.8407 36.458 28.71L35.954 28.542C35.4407 28.374 35.0207 28.206 34.694 28.038C34.3674 27.87 34.0967 27.6507 33.882 27.38C33.6767 27.1 33.574 26.7547 33.574 26.344C33.574 25.6813 33.8214 25.1773 34.316 24.832C34.8107 24.4773 35.5387 24.3 36.5 24.3C36.892 24.3 37.2887 24.3327 37.69 24.398C38.0914 24.4633 38.4367 24.5427 38.726 24.636V25.644C38.1007 25.4013 37.4147 25.28 36.668 25.28C35.9867 25.28 35.492 25.3547 35.184 25.504C34.876 25.644 34.722 25.9147 34.722 26.316C34.722 26.5773 34.8014 26.792 34.96 26.96C35.128 27.1187 35.338 27.2493 35.59 27.352C35.8514 27.4453 36.2854 27.59 36.892 27.786C37.4147 27.954 37.8394 28.1313 38.166 28.318C38.502 28.4953 38.7634 28.724 38.95 29.004C39.146 29.284 39.244 29.634 39.244 30.054C39.244 31.4447 38.2454 32.14 36.248 32.14C35.772 32.14 35.31 32.1073 34.862 32.042C34.4234 31.9767 34.0594 31.888 33.77 31.776V30.754C34.4607 31.0247 35.2214 31.16 36.052 31.16C36.7894 31.16 37.312 31.09 37.62 30.95C37.9374 30.8007 38.096 30.5067 38.096 30.068ZM38.9624 32.882V35.5H37.9684V33.666H37.0444L37.1004 32.882H38.9624ZM43.6804 24.44H44.2964C45.351 24.44 46.1164 24.7247 46.5924 25.294C47.0684 25.8633 47.3064 26.75 47.3064 27.954C47.3064 29.3727 47.003 30.4273 46.3964 31.118C45.799 31.7993 45.001 32.14 44.0024 32.14C43.4517 32.14 43.041 32.0887 42.7704 31.986L40.6424 26.806H41.7624L43.5544 31.16L43.8344 31.174C44.6277 31.174 45.211 30.9127 45.5844 30.39C45.967 29.858 46.1584 29.0507 46.1584 27.968C46.1584 27.296 46.0977 26.778 45.9764 26.414C45.855 26.0407 45.6497 25.7747 45.3604 25.616C45.0804 25.4573 44.6837 25.378 44.1704 25.378H43.6804V24.44ZM51.2288 25.28C50.3701 25.28 49.5768 25.4013 48.8488 25.644V24.692C49.6328 24.4307 50.5288 24.3 51.5368 24.3C54.0288 24.3 55.2748 25.5787 55.2748 28.136C55.2748 28.9853 55.1208 29.7133 54.8128 30.32C54.5048 30.9173 54.0895 31.37 53.5668 31.678C53.0441 31.986 52.4701 32.14 51.8448 32.14C51.6675 32.14 51.4761 32.126 51.2708 32.098C51.0655 32.07 50.9021 32.0327 50.7808 31.986L49.6048 28.85H48.7088L48.7648 27.912H50.3468L51.5648 31.16L51.8028 31.174C52.4748 31.174 53.0301 30.9267 53.4688 30.432C53.9075 29.928 54.1268 29.1627 54.1268 28.136C54.1268 27.4267 54.0335 26.8667 53.8468 26.456C53.6601 26.0453 53.3568 25.7467 52.9368 25.56C52.5168 25.3733 51.9475 25.28 51.2288 25.28ZM52.9415 22.046C52.9415 21.6447 53.0862 21.3087 53.3755 21.038C53.6555 20.758 54.0008 20.618 54.4115 20.618C54.8222 20.618 55.1675 20.758 55.4475 21.038C55.7275 21.3087 55.8675 21.6447 55.8675 22.046C55.8675 22.4473 55.7275 22.7833 55.4475 23.054C55.1675 23.3247 54.8222 23.46 54.4115 23.46C54.0008 23.46 53.6555 23.3247 53.3755 23.054C53.0862 22.7833 52.9415 22.4473 52.9415 22.046ZM53.7115 22.046C53.7115 22.2327 53.7815 22.396 53.9215 22.536C54.0522 22.6667 54.2155 22.732 54.4115 22.732C54.5982 22.732 54.7615 22.6667 54.9015 22.536C55.0322 22.396 55.0975 22.2327 55.0975 22.046C55.0975 21.8593 55.0322 21.696 54.9015 21.556C54.7615 21.416 54.5982 21.346 54.4115 21.346C54.2155 21.346 54.0522 21.416 53.9215 21.556C53.7815 21.696 53.7115 21.8593 53.7115 22.046ZM59.9975 27.114C59.9975 26.6567 59.9508 26.302 59.8575 26.05C59.7735 25.798 59.6008 25.6067 59.3395 25.476C59.0875 25.3453 58.7048 25.28 58.1915 25.28C57.8928 25.28 57.5662 25.3127 57.2115 25.378C56.8662 25.4433 56.5488 25.532 56.2595 25.644V24.692C56.5488 24.58 56.8848 24.4867 57.2675 24.412C57.6502 24.3373 58.0282 24.3 58.4015 24.3C59.3628 24.3 60.0582 24.5147 60.4875 24.944C60.9262 25.364 61.1455 26.0453 61.1455 26.988V32H59.9975V27.114ZM64.2598 24.44V29.41C64.2598 30.026 64.3952 30.474 64.6658 30.754C64.9458 31.0247 65.3938 31.16 66.0098 31.16C66.4672 31.16 66.8965 31.0667 67.2978 30.88C67.7085 30.6933 68.0632 30.4413 68.3618 30.124V24.44H69.5098V32H68.4738L68.4038 31.09C67.6292 31.79 66.7052 32.14 65.6318 32.14C64.8198 32.14 64.1945 31.9067 63.7558 31.44C63.3265 30.9733 63.1118 30.3013 63.1118 29.424V24.44H64.2598ZM71.1854 30.782C71.8014 31.034 72.4174 31.16 73.0334 31.16C73.7147 31.16 74.2467 31.062 74.6294 30.866C75.0214 30.67 75.2967 30.362 75.4554 29.942C75.614 29.5127 75.6934 28.9387 75.6934 28.22C75.6934 27.1747 75.4834 26.4233 75.0634 25.966C74.6527 25.5087 73.962 25.28 72.9914 25.28C72.366 25.28 71.764 25.4107 71.1854 25.672V24.692C71.7827 24.4307 72.464 24.3 73.2294 24.3C75.6374 24.3 76.8414 25.6067 76.8414 28.22C76.8414 29.5173 76.5614 30.4973 76.0014 31.16C75.4414 31.8133 74.5407 32.14 73.2994 32.14C72.4967 32.14 71.792 32.0093 71.1854 31.748V30.782ZM79.668 24.44V29.41C79.668 30.026 79.8034 30.474 80.074 30.754C80.354 31.0247 80.802 31.16 81.418 31.16C81.8754 31.16 82.3047 31.0667 82.706 30.88C83.1167 30.6933 83.4714 30.4413 83.77 30.124V24.44H84.918V32H83.882L83.812 31.09C83.0374 31.79 82.1134 32.14 81.04 32.14C80.228 32.14 79.6027 31.9067 79.164 31.44C78.7347 30.9733 78.52 30.3013 78.52 29.424V24.44H79.668ZM89.1556 25.28C88.2596 25.28 87.4429 25.4013 86.7056 25.644V24.692C87.0696 24.5707 87.4896 24.4773 87.9656 24.412C88.4509 24.3373 88.9456 24.3 89.4496 24.3C90.7189 24.3 91.6429 24.622 92.2216 25.266C92.8002 25.91 93.0896 26.8993 93.0896 28.234C93.0896 29.5407 92.8002 30.5207 92.2216 31.174C91.6429 31.818 90.7329 32.14 89.4916 32.14C88.9502 32.14 88.4229 32.0933 87.9096 32C87.4056 31.8973 86.9669 31.7667 86.5936 31.608V27.8H89.3656L89.4216 28.738H87.7416V30.88C88.2829 31.0667 88.8569 31.16 89.4636 31.16C90.0796 31.16 90.5649 31.0667 90.9196 30.88C91.2742 30.6933 91.5309 30.39 91.6896 29.97C91.8576 29.5407 91.9416 28.962 91.9416 28.234C91.9416 27.478 91.8529 26.89 91.6756 26.47C91.4982 26.0407 91.2089 25.7373 90.8076 25.56C90.4156 25.3733 89.8649 25.28 89.1556 25.28ZM95.4899 25.672V26.358H97.6599L97.6179 27.24H94.4959V25.672H95.4899ZM95.4899 29.536V30.236H97.6599L97.6179 31.104H94.4959V29.536H95.4899ZM99.5803 25.602C99.5803 25.042 99.6876 24.5613 99.9023 24.16C100.117 23.7587 100.416 23.4413 100.798 23.208H98.4323V22.284H102.212V23.194C101.652 23.4367 101.265 23.768 101.05 24.188C100.836 24.608 100.728 25.2053 100.728 25.98V30.376C100.728 30.6093 100.78 30.782 100.882 30.894C100.994 31.006 101.162 31.062 101.386 31.062H102.184V32H100.868C100.467 32 100.15 31.8787 99.9163 31.636C99.6923 31.384 99.5803 31.0573 99.5803 30.656V25.602ZM104.619 26.89H107.125C107.723 26.89 108.143 26.7687 108.385 26.526C108.628 26.274 108.749 25.8867 108.749 25.364V24.44H109.897V25.35C109.897 26.4233 109.496 27.086 108.693 27.338C109.132 27.478 109.426 27.7067 109.575 28.024C109.734 28.332 109.813 28.738 109.813 29.242V32H108.665V29.382C108.665 28.9807 108.614 28.668 108.511 28.444C108.418 28.22 108.255 28.0613 108.021 27.968C107.797 27.8747 107.475 27.828 107.055 27.828H104.619V32H103.471V24.44H104.619V26.89ZM114.738 25.28C113.861 25.28 113.053 25.4013 112.316 25.644V24.692C112.671 24.5707 113.081 24.4773 113.548 24.412C114.015 24.3373 114.481 24.3 114.948 24.3C116.012 24.3 116.787 24.524 117.272 24.972C117.767 25.4107 118.014 26.1107 118.014 27.072V32H116.866V28.528H114.458C113.814 28.528 113.343 28.6353 113.044 28.85C112.755 29.0647 112.61 29.41 112.61 29.886C112.61 30.3527 112.741 30.684 113.002 30.88C113.273 31.0667 113.711 31.16 114.318 31.16C114.682 31.16 114.999 31.1227 115.27 31.048V32C114.915 32.0933 114.495 32.14 114.01 32.14C113.245 32.14 112.633 31.958 112.176 31.594C111.719 31.2207 111.49 30.6513 111.49 29.886C111.49 29.158 111.733 28.5933 112.218 28.192C112.703 27.7813 113.427 27.576 114.388 27.576H116.866V26.988C116.866 26.5493 116.801 26.2087 116.67 25.966C116.539 25.7233 116.32 25.5507 116.012 25.448C115.713 25.336 115.289 25.28 114.738 25.28ZM116.879 23.166V20.898H118.027V23.166H116.879Z" fill="black"/>
</svg>
