<svg width="101" height="16" viewBox="0 0 101 16" fill="none" xmlns="http://www.w3.org/2000/svg">
<path d="M1.59773 4.44V9.41C1.59773 10.026 1.73306 10.474 2.00373 10.754C2.28373 11.0247 2.73173 11.16 3.34773 11.16C3.80506 11.16 4.23439 11.0667 4.63573 10.88C5.04639 10.6933 5.40106 10.4413 5.69973 10.124V4.44H6.84773V12H5.81173L5.74173 11.09C4.96706 11.79 4.04306 12.14 2.96973 12.14C2.15773 12.14 1.53239 11.9067 1.09373 11.44C0.664393 10.9733 0.449727 10.3013 0.449727 9.424V4.44H1.59773ZM4.78524 2.046C4.78524 1.64467 4.92991 1.30867 5.21924 1.038C5.49924 0.758 5.84458 0.618 6.25524 0.618C6.66591 0.618 7.01124 0.758 7.29124 1.038C7.57124 1.30867 7.71124 1.64467 7.71124 2.046C7.71124 2.44733 7.57124 2.78333 7.29124 3.054C7.01124 3.32467 6.66591 3.46 6.25524 3.46C5.84458 3.46 5.49924 3.32467 5.21924 3.054C4.92991 2.78333 4.78524 2.44733 4.78524 2.046ZM5.55524 2.046C5.55524 2.23267 5.62524 2.396 5.76524 2.536C5.89591 2.66667 6.05924 2.732 6.25524 2.732C6.44191 2.732 6.60524 2.66667 6.74524 2.536C6.87591 2.396 6.94124 2.23267 6.94124 2.046C6.94124 1.85933 6.87591 1.696 6.74524 1.556C6.60524 1.416 6.44191 1.346 6.25524 1.346C6.05924 1.346 5.89591 1.416 5.76524 1.556C5.62524 1.696 5.55524 1.85933 5.55524 2.046ZM11.8412 7.114C11.8412 6.65667 11.7946 6.302 11.7012 6.05C11.6172 5.798 11.4446 5.60667 11.1832 5.476C10.9312 5.34533 10.5486 5.28 10.0352 5.28C9.73658 5.28 9.40991 5.31267 9.05524 5.378C8.70991 5.44333 8.39258 5.532 8.10324 5.644V4.692C8.39258 4.58 8.72858 4.48667 9.11124 4.412C9.49391 4.33733 9.87191 4.3 10.2452 4.3C11.2066 4.3 11.9019 4.51467 12.3312 4.944C12.7699 5.364 12.9892 6.04533 12.9892 6.988V12H11.8412V7.114ZM17.2376 5.28C16.3416 5.28 15.5249 5.40133 14.7876 5.644V4.692C15.1516 4.57067 15.5716 4.47733 16.0476 4.412C16.5329 4.33733 17.0276 4.3 17.5316 4.3C18.8009 4.3 19.7249 4.622 20.3036 5.266C20.8823 5.91 21.1716 6.89933 21.1716 8.234C21.1716 9.54067 20.8823 10.5207 20.3036 11.174C19.7249 11.818 18.8149 12.14 17.5736 12.14C17.0323 12.14 16.5049 12.0933 15.9916 12C15.4876 11.8973 15.0489 11.7667 14.6756 11.608V7.8H17.4476L17.5036 8.738H15.8236V10.88C16.3649 11.0667 16.9389 11.16 17.5456 11.16C18.1616 11.16 18.6469 11.0667 19.0016 10.88C19.3563 10.6933 19.6129 10.39 19.7716 9.97C19.9396 9.54067 20.0236 8.962 20.0236 8.234C20.0236 7.478 19.9349 6.89 19.7576 6.47C19.5803 6.04067 19.2909 5.73733 18.8896 5.56C18.4976 5.37333 17.9469 5.28 17.2376 5.28ZM23.5719 5.672V6.358H25.7419L25.6999 7.24H22.5779V5.672H23.5719ZM23.5719 9.536V10.236H25.7419L25.6999 11.104H22.5779V9.536H23.5719ZM27.6623 5.602C27.6623 5.042 27.7697 4.56133 27.9843 4.16C28.199 3.75867 28.4977 3.44133 28.8803 3.208H26.5143V2.284H30.2943V3.194C29.7343 3.43667 29.347 3.768 29.1323 4.188C28.9177 4.608 28.8103 5.20533 28.8103 5.98V10.376C28.8103 10.6093 28.8617 10.782 28.9643 10.894C29.0763 11.006 29.2443 11.062 29.4683 11.062H30.2663V12H28.9503C28.549 12 28.2317 11.8787 27.9983 11.636C27.7743 11.384 27.6623 11.0573 27.6623 10.656V5.602ZM32.7012 6.89H35.2072C35.8046 6.89 36.2246 6.76867 36.4672 6.526C36.7099 6.274 36.8312 5.88667 36.8312 5.364V4.44H37.9792V5.35C37.9792 6.42333 37.5779 7.086 36.7752 7.338C37.2139 7.478 37.5079 7.70667 37.6572 8.024C37.8159 8.332 37.8952 8.738 37.8952 9.242V12H36.7472V9.382C36.7472 8.98067 36.6959 8.668 36.5932 8.444C36.4999 8.22 36.3366 8.06133 36.1032 7.968C35.8792 7.87467 35.5572 7.828 35.1372 7.828H32.7012V12H31.5532V4.44H32.7012V6.89ZM42.8201 5.28C41.9427 5.28 41.1354 5.40133 40.3981 5.644V4.692C40.7527 4.57067 41.1634 4.47733 41.6301 4.412C42.0967 4.33733 42.5634 4.3 43.0301 4.3C44.0941 4.3 44.8687 4.524 45.3541 4.972C45.8487 5.41067 46.0961 6.11067 46.0961 7.072V12H44.9481V8.528H42.5401C41.8961 8.528 41.4247 8.63533 41.1261 8.85C40.8367 9.06467 40.6921 9.41 40.6921 9.886C40.6921 10.3527 40.8227 10.684 41.0841 10.88C41.3547 11.0667 41.7934 11.16 42.4001 11.16C42.7641 11.16 43.0814 11.1227 43.3521 11.048V12C42.9974 12.0933 42.5774 12.14 42.0921 12.14C41.3267 12.14 40.7154 11.958 40.2581 11.594C39.8007 11.2207 39.5721 10.6513 39.5721 9.886C39.5721 9.158 39.8147 8.59333 40.3001 8.192C40.7854 7.78133 41.5087 7.576 42.4701 7.576H44.9481V6.988C44.9481 6.54933 44.8827 6.20867 44.7521 5.966C44.6214 5.72333 44.4021 5.55067 44.0941 5.448C43.7954 5.336 43.3707 5.28 42.8201 5.28ZM54.0892 9.396C54.0892 10.2733 53.8139 10.95 53.2632 11.426C52.7219 11.902 51.9659 12.14 50.9952 12.14C50.0059 12.14 49.2452 11.9067 48.7132 11.44C48.1905 10.9733 47.9292 10.2967 47.9292 9.41V8.388C47.9292 8.11733 47.9945 7.86067 48.1252 7.618C48.2652 7.366 48.4612 7.06733 48.7132 6.722C48.8999 6.45133 49.0352 6.246 49.1192 6.106C49.2032 5.966 49.2452 5.83067 49.2452 5.7C49.2452 5.55067 49.2125 5.45267 49.1472 5.406C49.0819 5.35933 48.9605 5.336 48.7832 5.336H47.7752L47.8732 4.44H49.4272C50.0712 4.44 50.3932 4.75733 50.3932 5.392C50.3932 5.68133 50.3325 5.94733 50.2112 6.19C50.0992 6.42333 49.9265 6.70333 49.6932 7.03C49.4785 7.338 49.3199 7.59 49.2172 7.786C49.1239 7.982 49.0772 8.19667 49.0772 8.43V9.536C49.0772 10.6187 49.7165 11.16 50.9952 11.16C52.2925 11.16 52.9412 10.6093 52.9412 9.508V8.542C52.9412 8.02867 52.8572 7.674 52.6892 7.478C52.5212 7.282 52.2132 7.184 51.7652 7.184H51.3732L51.4292 6.274H51.7372C52.1945 6.274 52.5072 6.17133 52.6752 5.966C52.8525 5.75133 52.9412 5.40133 52.9412 4.916V4.3H54.0892V4.902C54.0892 5.39667 54.0145 5.78867 53.8652 6.078C53.7252 6.36733 53.4545 6.582 53.0532 6.722C53.4732 6.88067 53.7485 7.10467 53.8792 7.394C54.0192 7.674 54.0892 8.066 54.0892 8.57V9.396ZM52.0352 2.046C52.0352 1.64467 52.1799 1.30867 52.4692 1.038C52.7492 0.758 53.0946 0.618 53.5052 0.618C53.9159 0.618 54.2612 0.758 54.5412 1.038C54.8212 1.30867 54.9612 1.64467 54.9612 2.046C54.9612 2.44733 54.8212 2.78333 54.5412 3.054C54.2612 3.32467 53.9159 3.46 53.5052 3.46C53.0946 3.46 52.7492 3.32467 52.4692 3.054C52.1799 2.78333 52.0352 2.44733 52.0352 2.046ZM52.8052 2.046C52.8052 2.23267 52.8752 2.396 53.0152 2.536C53.1459 2.66667 53.3092 2.732 53.5052 2.732C53.6919 2.732 53.8552 2.66667 53.9952 2.536C54.1259 2.396 54.1912 2.23267 54.1912 2.046C54.1912 1.85933 54.1259 1.696 53.9952 1.556C53.8552 1.416 53.6919 1.346 53.5052 1.346C53.3092 1.346 53.1459 1.416 53.0152 1.556C52.8752 1.696 52.8052 1.85933 52.8052 2.046ZM59.0912 7.114C59.0912 6.65667 59.0446 6.302 58.9512 6.05C58.8672 5.798 58.6946 5.60667 58.4332 5.476C58.1812 5.34533 57.7986 5.28 57.2852 5.28C56.9866 5.28 56.6599 5.31267 56.3052 5.378C55.9599 5.44333 55.6426 5.532 55.3532 5.644V4.692C55.6426 4.58 55.9786 4.48667 56.3612 4.412C56.7439 4.33733 57.1219 4.3 57.4952 4.3C58.4566 4.3 59.1519 4.51467 59.5812 4.944C60.0199 5.364 60.2392 6.04533 60.2392 6.988V12H59.0912V7.114ZM66.4476 10.068C66.4476 9.79733 66.3823 9.58267 66.2516 9.424C66.1303 9.26533 65.9623 9.13933 65.7476 9.046C65.5423 8.95267 65.2296 8.84067 64.8096 8.71L64.3056 8.542C63.7923 8.374 63.3723 8.206 63.0456 8.038C62.7189 7.87 62.4483 7.65067 62.2336 7.38C62.0283 7.1 61.9256 6.75467 61.9256 6.344C61.9256 5.68133 62.1729 5.17733 62.6676 4.832C63.1623 4.47733 63.8903 4.3 64.8516 4.3C65.2436 4.3 65.6403 4.33267 66.0416 4.398C66.4429 4.46333 66.7883 4.54267 67.0776 4.636V5.644C66.4523 5.40133 65.7663 5.28 65.0196 5.28C64.3383 5.28 63.8436 5.35467 63.5356 5.504C63.2276 5.644 63.0736 5.91467 63.0736 6.316C63.0736 6.57733 63.1529 6.792 63.3116 6.96C63.4796 7.11867 63.6896 7.24933 63.9416 7.352C64.2029 7.44533 64.6369 7.59 65.2436 7.786C65.7663 7.954 66.1909 8.13133 66.5176 8.318C66.8536 8.49533 67.1149 8.724 67.3016 9.004C67.4976 9.284 67.5956 9.634 67.5956 10.054C67.5956 11.4447 66.5969 12.14 64.5996 12.14C64.1236 12.14 63.6616 12.1073 63.2136 12.042C62.7749 11.9767 62.4109 11.888 62.1216 11.776V10.754C62.8123 11.0247 63.5729 11.16 64.4036 11.16C65.1409 11.16 65.6636 11.09 65.9716 10.95C66.2889 10.8007 66.4476 10.5067 66.4476 10.068ZM67.3139 12.882V15.5H66.3199V13.666H65.3959L65.4519 12.882H67.3139ZM72.7739 4.3C73.5579 4.3 74.2066 4.44 74.7199 4.72C75.2426 4.99067 75.6253 5.35467 75.8679 5.812C76.1106 6.26 76.2319 6.75933 76.2319 7.31V12H75.0839V7.324C75.0839 6.68933 74.8973 6.19 74.5239 5.826C74.1599 5.462 73.5673 5.28 72.7459 5.28C71.8313 5.28 71.1686 5.53667 70.7579 6.05C70.3473 6.554 70.1419 7.30067 70.1419 8.29C70.1419 9.326 70.3099 10.0633 70.6459 10.502C70.9913 10.9407 71.5139 11.16 72.2139 11.16C72.6339 11.16 72.9559 11.1227 73.1799 11.048V12C72.8719 12.0933 72.4846 12.14 72.0179 12.14C71.1033 12.14 70.3706 11.8227 69.8199 11.188C69.2693 10.544 68.9939 9.578 68.9939 8.29C68.9939 7.03 69.3066 6.05 69.9319 5.35C70.5666 4.65 71.5139 4.3 72.7739 4.3ZM80.47 5.28C79.574 5.28 78.7573 5.40133 78.02 5.644V4.692C78.384 4.57067 78.804 4.47733 79.28 4.412C79.7653 4.33733 80.26 4.3 80.764 4.3C82.0333 4.3 82.9573 4.622 83.536 5.266C84.1147 5.91 84.404 6.89933 84.404 8.234C84.404 9.54067 84.1147 10.5207 83.536 11.174C82.9573 11.818 82.0473 12.14 80.806 12.14C80.2647 12.14 79.7373 12.0933 79.224 12C78.72 11.8973 78.2813 11.7667 77.908 11.608V7.8H80.68L80.736 8.738H79.056V10.88C79.5973 11.0667 80.1713 11.16 80.778 11.16C81.394 11.16 81.8793 11.0667 82.234 10.88C82.5887 10.6933 82.8453 10.39 83.004 9.97C83.172 9.54067 83.256 8.962 83.256 8.234C83.256 7.478 83.1673 6.89 82.99 6.47C82.8127 6.04067 82.5233 5.73733 82.122 5.56C81.73 5.37333 81.1793 5.28 80.47 5.28ZM88.3724 5.28C87.4764 5.28 86.6597 5.40133 85.9224 5.644V4.692C86.2864 4.57067 86.7064 4.47733 87.1824 4.412C87.6677 4.33733 88.1624 4.3 88.6664 4.3C89.9357 4.3 90.8597 4.622 91.4384 5.266C92.017 5.91 92.3064 6.89933 92.3064 8.234C92.3064 9.54067 92.017 10.5207 91.4384 11.174C90.8597 11.818 89.9497 12.14 88.7084 12.14C88.167 12.14 87.6397 12.0933 87.1264 12C86.6224 11.8973 86.1837 11.7667 85.8104 11.608V7.8H88.5824L88.6384 8.738H86.9584V10.88C87.4997 11.0667 88.0737 11.16 88.6804 11.16C89.2964 11.16 89.7817 11.0667 90.1364 10.88C90.491 10.6933 90.7477 10.39 90.9064 9.97C91.0744 9.54067 91.1584 8.962 91.1584 8.234C91.1584 7.478 91.0697 6.89 90.8924 6.47C90.715 6.04067 90.4257 5.73733 90.0244 5.56C89.6324 5.37333 89.0817 5.28 88.3724 5.28ZM96.3587 7.632C95.9947 7.72533 95.7287 7.87467 95.5607 8.08C95.3927 8.28533 95.3087 8.57933 95.3087 8.962V12H94.1607V8.934C94.1607 8.52333 94.2494 8.178 94.4267 7.898C94.6134 7.60867 94.9027 7.408 95.2947 7.296L93.7127 6.932V5.588C94.1047 5.21467 94.5994 4.90667 95.1967 4.664C95.8034 4.42133 96.48 4.3 97.2267 4.3C98.3374 4.3 99.168 4.538 99.7187 5.014C100.269 5.48067 100.545 6.204 100.545 7.184V12H99.3967V7.142C99.3967 6.45133 99.2334 5.97067 98.9067 5.7C98.58 5.42 98.02 5.28 97.2267 5.28C96.704 5.28 96.214 5.35467 95.7567 5.504C95.3087 5.644 94.9634 5.83533 94.7207 6.078V6.372L96.3587 6.764V7.632Z" fill="black"/>
</svg>
