<svg width="101" height="13" viewBox="0 0 101 13" fill="none" xmlns="http://www.w3.org/2000/svg">
<path d="M3.22977 5.28C2.3711 5.28 1.57777 5.40133 0.849766 5.644V4.692C1.63377 4.43067 2.52977 4.3 3.53777 4.3C6.02977 4.3 7.27577 5.57867 7.27577 8.136C7.27577 8.98533 7.12177 9.71333 6.81377 10.32C6.50577 10.9173 6.09043 11.37 5.56777 11.678C5.0451 11.986 4.4711 12.14 3.84577 12.14C3.66843 12.14 3.4771 12.126 3.27177 12.098C3.06643 12.07 2.9031 12.0327 2.78177 11.986L1.60577 8.85H0.709766L0.765766 7.912H2.34777L3.56577 11.16L3.80377 11.174C4.47577 11.174 5.0311 10.9267 5.46977 10.432C5.90843 9.928 6.12777 9.16267 6.12777 8.136C6.12777 7.42667 6.03443 6.86667 5.84777 6.456C5.6611 6.04533 5.35777 5.74667 4.93777 5.56C4.51777 5.37333 3.94843 5.28 3.22977 5.28ZM4.94247 2.046C4.94247 1.64467 5.08714 1.30867 5.37647 1.038C5.65647 0.758 6.0018 0.618 6.41247 0.618C6.82314 0.618 7.16847 0.758 7.44847 1.038C7.72847 1.30867 7.86847 1.64467 7.86847 2.046C7.86847 2.44733 7.72847 2.78333 7.44847 3.054C7.16847 3.32467 6.82314 3.46 6.41247 3.46C6.0018 3.46 5.65647 3.32467 5.37647 3.054C5.08714 2.78333 4.94247 2.44733 4.94247 2.046ZM5.71247 2.046C5.71247 2.23267 5.78247 2.396 5.92247 2.536C6.05314 2.66667 6.21647 2.732 6.41247 2.732C6.59914 2.732 6.76247 2.66667 6.90247 2.536C7.03314 2.396 7.09847 2.23267 7.09847 2.046C7.09847 1.85933 7.03314 1.696 6.90247 1.556C6.76247 1.416 6.59914 1.346 6.41247 1.346C6.21647 1.346 6.05314 1.416 5.92247 1.556C5.78247 1.696 5.71247 1.85933 5.71247 2.046ZM11.9985 7.114C11.9985 6.65667 11.9518 6.302 11.8585 6.05C11.7745 5.798 11.6018 5.60667 11.3405 5.476C11.0885 5.34533 10.7058 5.28 10.1925 5.28C9.8938 5.28 9.56714 5.31267 9.21247 5.378C8.86714 5.44333 8.5498 5.532 8.26047 5.644V4.692C8.5498 4.58 8.8858 4.48667 9.26847 4.412C9.65114 4.33733 10.0291 4.3 10.4025 4.3C11.3638 4.3 12.0591 4.51467 12.4885 4.944C12.9271 5.364 13.1465 6.04533 13.1465 6.988V12H11.9985V7.114ZM16.2608 6.89H18.7668C19.3641 6.89 19.7841 6.76867 20.0268 6.526C20.2695 6.274 20.3908 5.88667 20.3908 5.364V4.44H21.5388V5.35C21.5388 6.42333 21.1375 7.086 20.3348 7.338C20.7735 7.478 21.0675 7.70667 21.2168 8.024C21.3755 8.332 21.4548 8.738 21.4548 9.242V12H20.3068V9.382C20.3068 8.98067 20.2555 8.668 20.1528 8.444C20.0595 8.22 19.8961 8.06133 19.6628 7.968C19.4388 7.87467 19.1168 7.828 18.6968 7.828H16.2608V12H15.1128V4.44H16.2608V6.89ZM24.5596 4.44V9.41C24.5596 10.026 24.695 10.474 24.9656 10.754C25.2456 11.0247 25.6936 11.16 26.3096 11.16C26.767 11.16 27.1963 11.0667 27.5976 10.88C28.0083 10.6933 28.363 10.4413 28.6616 10.124V4.44H29.8096V12H28.7736L28.7036 11.09C27.929 11.79 27.005 12.14 25.9316 12.14C25.1196 12.14 24.4943 11.9067 24.0556 11.44C23.6263 10.9733 23.4116 10.3013 23.4116 9.424V4.44H24.5596ZM28.6712 3.166V0.897999H29.8192V3.166H28.6712ZM34.8032 7.114C34.8032 6.65667 34.7565 6.302 34.6632 6.05C34.5792 5.798 34.4065 5.60667 34.1452 5.476C33.8932 5.34533 33.5105 5.28 32.9972 5.28C32.6985 5.28 32.3718 5.31267 32.0172 5.378C31.6718 5.44333 31.3545 5.532 31.0652 5.644V4.692C31.3545 4.58 31.6905 4.48667 32.0732 4.412C32.4558 4.33733 32.8338 4.3 33.2072 4.3C34.1685 4.3 34.8638 4.51467 35.2932 4.944C35.7318 5.364 35.9512 6.04533 35.9512 6.988V12H34.8032V7.114ZM40.1295 5.28C39.2615 5.28 38.8275 5.658 38.8275 6.414C38.8275 6.81533 38.9582 7.114 39.2195 7.31C39.4808 7.506 39.8402 7.604 40.2975 7.604H41.0955L41.1655 8.472H40.2555C39.7608 8.472 39.3922 8.58867 39.1495 8.822C38.9068 9.05533 38.7855 9.396 38.7855 9.844C38.7855 10.292 38.9582 10.6233 39.3035 10.838C39.6582 11.0527 40.1995 11.16 40.9275 11.16C41.6555 11.16 42.1968 11.02 42.5515 10.74C42.9062 10.46 43.0835 10.0213 43.0835 9.424V4.44H44.2315V9.228C44.2315 10.1893 43.9655 10.9173 43.4335 11.412C42.9015 11.8973 42.0802 12.14 40.9695 12.14C39.9242 12.14 39.1075 11.9487 38.5195 11.566C37.9315 11.1833 37.6375 10.6093 37.6375 9.844C37.6375 9.41467 37.7355 9.05067 37.9315 8.752C38.1368 8.444 38.4215 8.21067 38.7855 8.052C38.4495 7.94933 38.1788 7.758 37.9735 7.478C37.7775 7.198 37.6795 6.84333 37.6795 6.414C37.6795 5.73267 37.8848 5.21 38.2955 4.846C38.7062 4.482 39.2475 4.3 39.9195 4.3C40.3675 4.3 40.7548 4.35133 41.0815 4.454V5.406C40.8295 5.322 40.5122 5.28 40.1295 5.28ZM46.077 8.654C46.077 8.38333 46.161 8.108 46.329 7.828C46.497 7.548 46.7303 7.21667 47.029 6.834C47.2623 6.53533 47.4303 6.302 47.533 6.134C47.645 5.95667 47.701 5.798 47.701 5.658C47.701 5.42467 47.589 5.308 47.365 5.308C47.1597 5.308 46.9683 5.39667 46.791 5.574V6.12H45.909V4.44H46.791V4.832C47.071 4.57067 47.407 4.44 47.799 4.44C48.107 4.44 48.3497 4.52867 48.527 4.706C48.7137 4.874 48.807 5.11667 48.807 5.434C48.807 5.70467 48.737 5.96133 48.597 6.204C48.4663 6.44667 48.2657 6.74533 47.995 7.1C47.7243 7.464 47.5283 7.758 47.407 7.982C47.2857 8.206 47.225 8.43933 47.225 8.682V9.536C47.225 10.6187 47.8643 11.16 49.143 11.16C50.4403 11.16 51.089 10.6093 51.089 9.508V8.542C51.089 8.02867 51.005 7.674 50.837 7.478C50.669 7.282 50.361 7.184 49.913 7.184H49.521L49.577 6.274H49.885C50.3423 6.274 50.655 6.17133 50.823 5.966C51.0003 5.75133 51.089 5.40133 51.089 4.916V4.3H52.237V4.902C52.237 5.39667 52.1623 5.78867 52.013 6.078C51.873 6.36733 51.6023 6.582 51.201 6.722C51.621 6.88067 51.8963 7.10467 52.027 7.394C52.167 7.674 52.237 8.066 52.237 8.57V9.396C52.237 10.2733 51.9617 10.95 51.411 11.426C50.8697 11.902 50.1137 12.14 49.143 12.14C48.1537 12.14 47.393 11.9067 46.861 11.44C46.3383 10.9733 46.077 10.2967 46.077 9.41V8.654ZM57.2387 7.114C57.2387 6.65667 57.192 6.302 57.0987 6.05C57.0147 5.798 56.842 5.60667 56.5807 5.476C56.3287 5.34533 55.946 5.28 55.4327 5.28C55.134 5.28 54.8074 5.31267 54.4527 5.378C54.1074 5.44333 53.79 5.532 53.5007 5.644V4.692C53.79 4.58 54.126 4.48667 54.5087 4.412C54.8914 4.33733 55.2694 4.3 55.6427 4.3C56.604 4.3 57.2994 4.51467 57.7287 4.944C58.1674 5.364 58.3867 6.04533 58.3867 6.988V12H57.2387V7.114ZM62.719 7.632C62.355 7.72533 62.089 7.87467 61.921 8.08C61.753 8.28533 61.669 8.57933 61.669 8.962V12H60.521V8.934C60.521 8.52333 60.6097 8.178 60.787 7.898C60.9737 7.60867 61.263 7.408 61.655 7.296L60.073 6.932V5.588C60.465 5.21467 60.9597 4.90667 61.557 4.664C62.1637 4.42133 62.8404 4.3 63.587 4.3C64.6977 4.3 65.5284 4.538 66.079 5.014C66.6297 5.48067 66.905 6.204 66.905 7.184V12H65.757V7.142C65.757 6.45133 65.5937 5.97067 65.267 5.7C64.9404 5.42 64.3804 5.28 63.587 5.28C63.0644 5.28 62.5744 5.35467 62.117 5.504C61.669 5.644 61.3237 5.83533 61.081 6.078V6.372L62.719 6.764V7.632ZM71.1526 5.28C70.2566 5.28 69.44 5.40133 68.7026 5.644V4.692C69.0666 4.57067 69.4866 4.47733 69.9626 4.412C70.448 4.33733 70.9426 4.3 71.4466 4.3C72.716 4.3 73.64 4.622 74.2186 5.266C74.7973 5.91 75.0866 6.89933 75.0866 8.234C75.0866 9.54067 74.7973 10.5207 74.2186 11.174C73.64 11.818 72.73 12.14 71.4886 12.14C70.9473 12.14 70.42 12.0933 69.9066 12C69.4026 11.8973 68.964 11.7667 68.5906 11.608V7.8H71.3626L71.4186 8.738H69.7386V10.88C70.28 11.0667 70.854 11.16 71.4606 11.16C72.0766 11.16 72.562 11.0667 72.9166 10.88C73.2713 10.6933 73.528 10.39 73.6866 9.97C73.8546 9.54067 73.9386 8.962 73.9386 8.234C73.9386 7.478 73.85 6.89 73.6726 6.47C73.4953 6.04067 73.206 5.73733 72.8046 5.56C72.4126 5.37333 71.862 5.28 71.1526 5.28ZM77.487 5.672V6.358H79.657L79.615 7.24H76.493V5.672H77.487ZM77.487 9.536V10.236H79.657L79.615 11.104H76.493V9.536H77.487ZM81.5774 5.602C81.5774 5.042 81.6847 4.56133 81.8994 4.16C82.114 3.75867 82.4127 3.44133 82.7954 3.208H80.4294V2.284H84.2094V3.194C83.6494 3.43667 83.262 3.768 83.0474 4.188C82.8327 4.608 82.7254 5.20533 82.7254 5.98V10.376C82.7254 10.6093 82.7767 10.782 82.8794 10.894C82.9914 11.006 83.1594 11.062 83.3834 11.062H84.1814V12H82.8654C82.464 12 82.1467 11.8787 81.9134 11.636C81.6894 11.384 81.5774 11.0573 81.5774 10.656V5.602ZM86.6163 6.89H89.1223C89.7196 6.89 90.1396 6.76867 90.3823 6.526C90.6249 6.274 90.7463 5.88667 90.7463 5.364V4.44H91.8943V5.35C91.8943 6.42333 91.4929 7.086 90.6903 7.338C91.1289 7.478 91.4229 7.70667 91.5723 8.024C91.7309 8.332 91.8103 8.738 91.8103 9.242V12H90.6623V9.382C90.6623 8.98067 90.6109 8.668 90.5083 8.444C90.4149 8.22 90.2516 8.06133 90.0183 7.968C89.7943 7.87467 89.4723 7.828 89.0523 7.828H86.6163V12H85.4683V4.44H86.6163V6.89ZM96.7351 5.28C95.8578 5.28 95.0504 5.40133 94.3131 5.644V4.692C94.6678 4.57067 95.0784 4.47733 95.5451 4.412C96.0118 4.33733 96.4784 4.3 96.9451 4.3C98.0091 4.3 98.7838 4.524 99.2691 4.972C99.7638 5.41067 100.011 6.11067 100.011 7.072V12H98.8631V8.528H96.4551C95.8111 8.528 95.3398 8.63533 95.0411 8.85C94.7518 9.06467 94.6071 9.41 94.6071 9.886C94.6071 10.3527 94.7378 10.684 94.9991 10.88C95.2698 11.0667 95.7084 11.16 96.3151 11.16C96.6791 11.16 96.9964 11.1227 97.2671 11.048V12C96.9124 12.0933 96.4924 12.14 96.0071 12.14C95.2418 12.14 94.6304 11.958 94.1731 11.594C93.7158 11.2207 93.4871 10.6513 93.4871 9.886C93.4871 9.158 93.7298 8.59333 94.2151 8.192C94.7004 7.78133 95.4238 7.576 96.3851 7.576H98.8631V6.988C98.8631 6.54933 98.7978 6.20867 98.6671 5.966C98.5364 5.72333 98.3171 5.55067 98.0091 5.448C97.7104 5.336 97.2858 5.28 96.7351 5.28ZM98.8762 3.166V0.897999H100.024V3.166H98.8762Z" fill="black"/>
</svg>
