<svg width="140" height="15" viewBox="0 0 140 15" fill="none" xmlns="http://www.w3.org/2000/svg">
<path d="M1.17683 6.44V11.41C1.17683 12.026 1.31216 12.474 1.58283 12.754C1.86283 13.0247 2.31083 13.16 2.92683 13.16C3.38416 13.16 3.81349 13.0667 4.21483 12.88C4.6255 12.6933 4.98016 12.4413 5.27883 12.124V6.44H6.42683V14H5.39083L5.32083 13.09C4.54616 13.79 3.62216 14.14 2.54883 14.14C1.73683 14.14 1.11149 13.9067 0.672828 13.44C0.243495 12.9733 0.0288281 12.3013 0.0288281 11.424V6.44H1.17683ZM4.36434 4.046C4.36434 3.64467 4.50901 3.30867 4.79834 3.038C5.07834 2.758 5.42368 2.618 5.83434 2.618C6.24501 2.618 6.59034 2.758 6.87034 3.038C7.15034 3.30867 7.29034 3.64467 7.29034 4.046C7.29034 4.44733 7.15034 4.78333 6.87034 5.054C6.59034 5.32467 6.24501 5.46 5.83434 5.46C5.42368 5.46 5.07834 5.32467 4.79834 5.054C4.50901 4.78333 4.36434 4.44733 4.36434 4.046ZM5.13434 4.046C5.13434 4.23267 5.20434 4.396 5.34434 4.536C5.47501 4.66667 5.63834 4.732 5.83434 4.732C6.02101 4.732 6.18434 4.66667 6.32434 4.536C6.45501 4.396 6.52034 4.23267 6.52034 4.046C6.52034 3.85933 6.45501 3.696 6.32434 3.556C6.18434 3.416 6.02101 3.346 5.83434 3.346C5.63834 3.346 5.47501 3.416 5.34434 3.556C5.20434 3.696 5.13434 3.85933 5.13434 4.046ZM11.4203 9.114C11.4203 8.65667 11.3737 8.302 11.2803 8.05C11.1963 7.798 11.0237 7.60667 10.7623 7.476C10.5103 7.34533 10.1277 7.28 9.61434 7.28C9.31568 7.28 8.98901 7.31267 8.63434 7.378C8.28901 7.44333 7.97168 7.532 7.68234 7.644V6.692C7.97168 6.58 8.30768 6.48667 8.69034 6.412C9.07301 6.33733 9.45101 6.3 9.82434 6.3C10.7857 6.3 11.481 6.51467 11.9103 6.944C12.349 7.364 12.5683 8.04533 12.5683 8.988V14H11.4203V9.114ZM15.6827 6.44V12.376C15.6827 12.6093 15.734 12.782 15.8367 12.894C15.9487 13.006 16.1167 13.062 16.3407 13.062H17.1387V14H15.8227C15.4214 14 15.104 13.8787 14.8707 13.636C14.6467 13.384 14.5347 13.0573 14.5347 12.656V6.44H15.6827ZM18.688 10.388C18.688 10.1173 18.7533 9.86067 18.884 9.618C19.024 9.366 19.22 9.06733 19.472 8.722C19.6587 8.45133 19.794 8.246 19.878 8.106C19.962 7.966 20.004 7.83067 20.004 7.7C20.004 7.55067 19.9713 7.45267 19.906 7.406C19.8407 7.35933 19.7193 7.336 19.542 7.336H18.534L18.632 6.44H20.186C20.83 6.44 21.152 6.75733 21.152 7.392C21.152 7.68133 21.0913 7.94733 20.97 8.19C20.858 8.42333 20.6853 8.70333 20.452 9.03C20.2373 9.338 20.0787 9.59 19.976 9.786C19.8827 9.982 19.836 10.1967 19.836 10.43V11.536C19.836 12.6187 20.4753 13.16 21.754 13.16C23.0513 13.16 23.7 12.6093 23.7 11.508V6.44H24.848V11.396C24.848 12.2733 24.5727 12.95 24.022 13.426C23.4807 13.902 22.7247 14.14 21.754 14.14C20.7647 14.14 20.004 13.9067 19.472 13.44C18.9493 12.9733 18.688 12.2967 18.688 11.41V10.388ZM22.724 4.34H25.79L25.734 5.166H21.898V3.85H20.792V3.024H22.724V4.34ZM29.85 9.114C29.85 8.65667 29.8034 8.302 29.71 8.05C29.626 7.798 29.4534 7.60667 29.192 7.476C28.94 7.34533 28.5574 7.28 28.044 7.28C27.7454 7.28 27.4187 7.31267 27.064 7.378C26.7187 7.44333 26.4014 7.532 26.112 7.644V6.692C26.4014 6.58 26.7374 6.48667 27.12 6.412C27.5027 6.33733 27.8807 6.3 28.254 6.3C29.2154 6.3 29.9107 6.51467 30.34 6.944C30.7787 7.364 30.998 8.04533 30.998 8.988V14H29.85V9.114ZM35.2464 7.28C34.3504 7.28 33.5337 7.40133 32.7964 7.644V6.692C33.1604 6.57067 33.5804 6.47733 34.0564 6.412C34.5417 6.33733 35.0364 6.3 35.5404 6.3C36.8097 6.3 37.7337 6.622 38.3124 7.266C38.891 7.91 39.1804 8.89933 39.1804 10.234C39.1804 11.5407 38.891 12.5207 38.3124 13.174C37.7337 13.818 36.8237 14.14 35.5824 14.14C35.041 14.14 34.5137 14.0933 34.0004 14C33.4964 13.8973 33.0577 13.7667 32.6844 13.608V9.8H35.4564L35.5124 10.738H33.8324V12.88C34.3737 13.0667 34.9477 13.16 35.5544 13.16C36.1704 13.16 36.6557 13.0667 37.0104 12.88C37.365 12.6933 37.6217 12.39 37.7804 11.97C37.9484 11.5407 38.0324 10.962 38.0324 10.234C38.0324 9.478 37.9437 8.89 37.7664 8.47C37.589 8.04067 37.2997 7.73733 36.8984 7.56C36.5064 7.37333 35.9557 7.28 35.2464 7.28ZM41.5807 7.672V8.358H43.7507L43.7087 9.24H40.5867V7.672H41.5807ZM41.5807 11.536V12.236H43.7507L43.7087 13.104H40.5867V11.536H41.5807ZM45.6711 7.602C45.6711 7.042 45.7785 6.56133 45.9931 6.16C46.2078 5.75867 46.5065 5.44133 46.8891 5.208H44.5231V4.284H48.3031V5.194C47.7431 5.43667 47.3558 5.768 47.1411 6.188C46.9265 6.608 46.8191 7.20533 46.8191 7.98V12.376C46.8191 12.6093 46.8705 12.782 46.9731 12.894C47.0851 13.006 47.2531 13.062 47.4771 13.062H48.2751V14H46.9591C46.5578 14 46.2405 13.8787 46.0071 13.636C45.7831 13.384 45.6711 13.0573 45.6711 12.656V7.602ZM50.71 8.89H53.216C53.8134 8.89 54.2334 8.76867 54.476 8.526C54.7187 8.274 54.84 7.88667 54.84 7.364V6.44H55.988V7.35C55.988 8.42333 55.5867 9.086 54.784 9.338C55.2227 9.478 55.5167 9.70667 55.666 10.024C55.8247 10.332 55.904 10.738 55.904 11.242V14H54.756V11.382C54.756 10.9807 54.7047 10.668 54.602 10.444C54.5087 10.22 54.3454 10.0613 54.112 9.968C53.888 9.87467 53.566 9.828 53.146 9.828H50.71V14H49.562V6.44H50.71V8.89ZM60.8289 7.28C59.9515 7.28 59.1442 7.40133 58.4069 7.644V6.692C58.7615 6.57067 59.1722 6.47733 59.6389 6.412C60.1055 6.33733 60.5722 6.3 61.0389 6.3C62.1029 6.3 62.8775 6.524 63.3629 6.972C63.8575 7.41067 64.1049 8.11067 64.1049 9.072V14H62.9569V10.528H60.5489C59.9049 10.528 59.4335 10.6353 59.1349 10.85C58.8455 11.0647 58.7009 11.41 58.7009 11.886C58.7009 12.3527 58.8315 12.684 59.0929 12.88C59.3635 13.0667 59.8022 13.16 60.4089 13.16C60.7729 13.16 61.0902 13.1227 61.3609 13.048V14C61.0062 14.0933 60.5862 14.14 60.1009 14.14C59.3355 14.14 58.7242 13.958 58.2669 13.594C57.8095 13.2207 57.5809 12.6513 57.5809 11.886C57.5809 11.158 57.8235 10.5933 58.3089 10.192C58.7942 9.78133 59.5175 9.576 60.4789 9.576H62.9569V8.988C62.9569 8.54933 62.8915 8.20867 62.7609 7.966C62.6302 7.72333 62.4109 7.55067 62.1029 7.448C61.8042 7.336 61.3795 7.28 60.8289 7.28ZM62.97 5.166V2.898H64.118V5.166H62.97ZM66.638 7.364C66.638 6.75733 66.5213 6.30467 66.288 6.006C66.064 5.698 65.686 5.432 65.154 5.208V4.284H69.032V5.208H66.61C67.058 5.45067 67.366 5.74933 67.534 6.104C67.702 6.45867 67.786 6.99533 67.786 7.714V12.376C67.786 12.6093 67.8373 12.782 67.94 12.894C68.052 13.006 68.22 13.062 68.444 13.062H69.242V14H67.926C67.5247 14 67.2073 13.8787 66.974 13.636C66.75 13.384 66.638 13.0573 66.638 12.656V7.364ZM74.0073 6.3C74.7913 6.3 75.44 6.44 75.9533 6.72C76.476 6.99067 76.8587 7.35467 77.1013 7.812C77.344 8.26 77.4653 8.75933 77.4653 9.31V14H76.3173V9.324C76.3173 8.68933 76.1307 8.19 75.7573 7.826C75.3933 7.462 74.8007 7.28 73.9793 7.28C73.0647 7.28 72.402 7.53667 71.9913 8.05C71.5807 8.554 71.3753 9.30067 71.3753 10.29C71.3753 11.326 71.5433 12.0633 71.8793 12.502C72.2247 12.9407 72.7473 13.16 73.4473 13.16C73.8673 13.16 74.1893 13.1227 74.4133 13.048V14C74.1053 14.0933 73.718 14.14 73.2513 14.14C72.3367 14.14 71.604 13.8227 71.0533 13.188C70.5027 12.544 70.2273 11.578 70.2273 10.29C70.2273 9.03 70.54 8.05 71.1653 7.35C71.8 6.65 72.7473 6.3 74.0073 6.3ZM81.6334 7.28C80.7654 7.28 80.3314 7.658 80.3314 8.414C80.3314 8.81533 80.4621 9.114 80.7234 9.31C80.9847 9.506 81.3441 9.604 81.8014 9.604H82.5994L82.6694 10.472H81.7594C81.2647 10.472 80.8961 10.5887 80.6534 10.822C80.4107 11.0553 80.2894 11.396 80.2894 11.844C80.2894 12.292 80.4621 12.6233 80.8074 12.838C81.1621 13.0527 81.7034 13.16 82.4314 13.16C83.1594 13.16 83.7007 13.02 84.0554 12.74C84.4101 12.46 84.5874 12.0213 84.5874 11.424V6.44H85.7354V11.228C85.7354 12.1893 85.4694 12.9173 84.9374 13.412C84.4054 13.8973 83.5841 14.14 82.4734 14.14C81.4281 14.14 80.6114 13.9487 80.0234 13.566C79.4354 13.1833 79.1414 12.6093 79.1414 11.844C79.1414 11.4147 79.2394 11.0507 79.4354 10.752C79.6407 10.444 79.9254 10.2107 80.2894 10.052C79.9534 9.94933 79.6827 9.758 79.4774 9.478C79.2814 9.198 79.1834 8.84333 79.1834 8.414C79.1834 7.73267 79.3887 7.21 79.7994 6.846C80.2101 6.482 80.7514 6.3 81.4234 6.3C81.8714 6.3 82.2587 6.35133 82.5854 6.454V7.406C82.3334 7.322 82.0161 7.28 81.6334 7.28ZM94.0909 11.424C94.0909 12.3013 93.8669 12.9733 93.4189 13.44C92.9802 13.9067 92.3549 14.14 91.5429 14.14C90.9642 14.14 90.4556 14.0513 90.0169 13.874C89.5876 13.6967 89.1816 13.4353 88.7989 13.09L88.7289 14H87.6929V6.44H88.8409V12.124C89.1489 12.4413 89.4989 12.6933 89.8909 12.88C90.2829 13.0667 90.7076 13.16 91.1649 13.16C91.7809 13.16 92.2289 13.0247 92.5089 12.754C92.7982 12.474 92.9429 12.026 92.9429 11.41V6.44H94.0909V11.424ZM93.1064 3.15H94.0724V5.166H88.5144L88.5704 4.34H93.1064V3.15ZM95.8644 9.198C95.8644 8.68467 95.9624 8.26467 96.1584 7.938C96.3637 7.61133 96.6437 7.28 96.9984 6.944C97.2224 6.72 97.3857 6.538 97.4884 6.398C97.5911 6.24867 97.6424 6.09 97.6424 5.922C97.6424 5.642 97.5584 5.45067 97.3904 5.348C97.2317 5.24533 96.9751 5.194 96.6204 5.194C96.1071 5.194 95.5891 5.33867 95.0664 5.628V4.732C95.3371 4.57333 95.6404 4.452 95.9764 4.368C96.3124 4.284 96.6437 4.242 96.9704 4.242C97.5771 4.242 98.0344 4.382 98.3424 4.662C98.6597 4.942 98.8184 5.334 98.8184 5.838C98.8184 6.146 98.7484 6.40267 98.6084 6.608C98.4777 6.81333 98.2724 7.056 97.9924 7.336C97.6751 7.63467 97.4324 7.91933 97.2644 8.19C97.0964 8.45133 97.0124 8.792 97.0124 9.212V12.376C97.0124 12.6093 97.0637 12.782 97.1664 12.894C97.2784 13.006 97.4464 13.062 97.6704 13.062H98.4684V14H97.1524C96.7511 14 96.4337 13.8787 96.2004 13.636C95.9764 13.384 95.8644 13.0573 95.8644 12.656V9.198ZM103.398 13.16C104.116 13.16 104.658 13.006 105.022 12.698C105.386 12.39 105.568 11.9 105.568 11.228V6.44H106.716V11.144C106.716 12.1333 106.431 12.88 105.862 13.384C105.292 13.888 104.471 14.14 103.398 14.14C102.324 14.14 101.503 13.888 100.934 13.384C100.364 12.88 100.08 12.1333 100.08 11.144V6.44H101.228V11.228C101.228 11.9 101.41 12.39 101.774 12.698C102.138 13.006 102.679 13.16 103.398 13.16ZM114.489 7.378C114.779 7.77 114.923 8.33467 114.923 9.072V14H113.775V10.528H111.367C110.723 10.528 110.252 10.6353 109.953 10.85C109.664 11.0647 109.519 11.41 109.519 11.886C109.519 12.3527 109.65 12.684 109.911 12.88C110.182 13.0667 110.621 13.16 111.227 13.16C111.591 13.16 111.909 13.1227 112.179 13.048V14C111.825 14.0933 111.405 14.14 110.919 14.14C110.154 14.14 109.543 13.958 109.085 13.594C108.628 13.2207 108.399 12.6513 108.399 11.886C108.399 11.158 108.642 10.5933 109.127 10.192C109.613 9.78133 110.336 9.576 111.297 9.576H113.775V8.988C113.775 8.54933 113.71 8.20867 113.579 7.966C113.449 7.72333 113.229 7.55067 112.921 7.448C112.623 7.336 112.198 7.28 111.647 7.28C110.77 7.28 109.963 7.40133 109.225 7.644V6.692C109.58 6.57067 109.991 6.47733 110.457 6.412C110.924 6.33733 111.391 6.3 111.857 6.3C112.296 6.3 112.725 6.34667 113.145 6.44H115.553L115.497 7.378H114.489ZM112.919 3.318V4.34H116.685L116.629 5.166H111.953V3.318H112.919ZM114.011 2.464V0.517999H114.977V2.464H114.011ZM119.709 6.44H120.325C121.379 6.44 122.145 6.72467 122.621 7.294C123.097 7.86333 123.335 8.75 123.335 9.954C123.335 11.3727 123.031 12.4273 122.425 13.118C121.827 13.7993 121.029 14.14 120.031 14.14C119.48 14.14 119.069 14.0887 118.799 13.986L116.671 8.806H117.791L119.583 13.16L119.863 13.174C120.656 13.174 121.239 12.9127 121.613 12.39C121.995 11.858 122.187 11.0507 122.187 9.968C122.187 9.296 122.126 8.778 122.005 8.414C121.883 8.04067 121.678 7.77467 121.389 7.616C121.109 7.45733 120.712 7.378 120.199 7.378H119.709V6.44ZM124.905 10.654C124.905 10.3833 124.989 10.108 125.157 9.828C125.325 9.548 125.558 9.21667 125.857 8.834C126.09 8.53533 126.258 8.302 126.361 8.134C126.473 7.95667 126.529 7.798 126.529 7.658C126.529 7.42467 126.417 7.308 126.193 7.308C125.988 7.308 125.796 7.39667 125.619 7.574V8.12H124.737V6.44H125.619V6.832C125.899 6.57067 126.235 6.44 126.627 6.44C126.935 6.44 127.178 6.52867 127.355 6.706C127.542 6.874 127.635 7.11667 127.635 7.434C127.635 7.70467 127.565 7.96133 127.425 8.204C127.294 8.44667 127.094 8.74533 126.823 9.1C126.552 9.464 126.356 9.758 126.235 9.982C126.114 10.206 126.053 10.4393 126.053 10.682V11.536C126.053 12.6187 126.692 13.16 127.971 13.16C129.268 13.16 129.917 12.6093 129.917 11.508V10.542C129.917 10.0287 129.833 9.674 129.665 9.478C129.497 9.282 129.189 9.184 128.741 9.184H128.349L128.405 8.274H128.713C129.17 8.274 129.483 8.17133 129.651 7.966C129.828 7.75133 129.917 7.40133 129.917 6.916V6.3H131.065V6.902C131.065 7.39667 130.99 7.78867 130.841 8.078C130.701 8.36733 130.43 8.582 130.029 8.722C130.449 8.88067 130.724 9.10467 130.855 9.394C130.995 9.674 131.065 10.066 131.065 10.57V11.396C131.065 12.2733 130.79 12.95 130.239 13.426C129.698 13.902 128.942 14.14 127.971 14.14C126.982 14.14 126.221 13.9067 125.689 13.44C125.166 12.9733 124.905 12.2967 124.905 11.41V10.654ZM128.423 3.15H129.291V4.34H130.187V3.15H131.055V5.166H125.497L125.553 4.34H128.423V3.15ZM129.977 1.582H132.119L132.077 2.366H129.179V1.26H128.325V0.49H129.977V1.582ZM135.311 7.28C134.415 7.28 133.598 7.40133 132.861 7.644V6.692C133.225 6.57067 133.645 6.47733 134.121 6.412C134.606 6.33733 135.101 6.3 135.605 6.3C136.874 6.3 137.798 6.622 138.377 7.266C138.955 7.91 139.245 8.89933 139.245 10.234C139.245 11.5407 138.955 12.5207 138.377 13.174C137.798 13.818 136.888 14.14 135.647 14.14C135.105 14.14 134.578 14.0933 134.065 14C133.561 13.8973 133.122 13.7667 132.749 13.608V9.8H135.521L135.577 10.738H133.897V12.88C134.438 13.0667 135.012 13.16 135.619 13.16C136.235 13.16 136.72 13.0667 137.075 12.88C137.429 12.6933 137.686 12.39 137.845 11.97C138.013 11.5407 138.097 10.962 138.097 10.234C138.097 9.478 138.008 8.89 137.831 8.47C137.653 8.04067 137.364 7.73733 136.963 7.56C136.571 7.37333 136.02 7.28 135.311 7.28Z" fill="black"/>
</svg>
