<svg width="70" height="13" viewBox="0 0 70 13" fill="none" xmlns="http://www.w3.org/2000/svg">
<path d="M1.16413 4.44V9.41C1.16413 10.026 1.29947 10.474 1.57013 10.754C1.85013 11.0247 2.29813 11.16 2.91413 11.16C3.37147 11.16 3.8008 11.0667 4.20213 10.88C4.6128 10.6933 4.96747 10.4413 5.26613 10.124V4.44H6.41413V12H5.37813L5.30813 11.09C4.53347 11.79 3.60947 12.14 2.53613 12.14C1.72413 12.14 1.0988 11.9067 0.660133 11.44C0.2308 10.9733 0.0161328 10.3013 0.0161328 9.424V4.44H1.16413ZM4.35165 2.046C4.35165 1.64467 4.49632 1.30867 4.78565 1.038C5.06565 0.758 5.41098 0.618 5.82165 0.618C6.23232 0.618 6.57765 0.758 6.85765 1.038C7.13765 1.30867 7.27765 1.64467 7.27765 2.046C7.27765 2.44733 7.13765 2.78333 6.85765 3.054C6.57765 3.32467 6.23232 3.46 5.82165 3.46C5.41098 3.46 5.06565 3.32467 4.78565 3.054C4.49632 2.78333 4.35165 2.44733 4.35165 2.046ZM5.12165 2.046C5.12165 2.23267 5.19165 2.396 5.33165 2.536C5.46232 2.66667 5.62565 2.732 5.82165 2.732C6.00832 2.732 6.17165 2.66667 6.31165 2.536C6.44232 2.396 6.50765 2.23267 6.50765 2.046C6.50765 1.85933 6.44232 1.696 6.31165 1.556C6.17165 1.416 6.00832 1.346 5.82165 1.346C5.62565 1.346 5.46232 1.416 5.33165 1.556C5.19165 1.696 5.12165 1.85933 5.12165 2.046ZM11.4076 7.114C11.4076 6.65667 11.361 6.302 11.2676 6.05C11.1836 5.798 11.011 5.60667 10.7496 5.476C10.4976 5.34533 10.115 5.28 9.60165 5.28C9.30298 5.28 8.97632 5.31267 8.62165 5.378C8.27632 5.44333 7.95898 5.532 7.66965 5.644V4.692C7.95898 4.58 8.29498 4.48667 8.67765 4.412C9.06032 4.33733 9.43832 4.3 9.81165 4.3C10.773 4.3 11.4683 4.51467 11.8976 4.944C12.3363 5.364 12.5556 6.04533 12.5556 6.988V12H11.4076V7.114ZM16.804 5.28C15.908 5.28 15.0913 5.40133 14.354 5.644V4.692C14.718 4.57067 15.138 4.47733 15.614 4.412C16.0993 4.33733 16.594 4.3 17.098 4.3C18.3673 4.3 19.2913 4.622 19.87 5.266C20.4487 5.91 20.738 6.89933 20.738 8.234C20.738 9.54067 20.4487 10.5207 19.87 11.174C19.2913 11.818 18.3813 12.14 17.14 12.14C16.5987 12.14 16.0713 12.0933 15.558 12C15.054 11.8973 14.6153 11.7667 14.242 11.608V7.8H17.014L17.07 8.738H15.39V10.88C15.9313 11.0667 16.5053 11.16 17.112 11.16C17.728 11.16 18.2133 11.0667 18.568 10.88C18.9227 10.6933 19.1793 10.39 19.338 9.97C19.506 9.54067 19.59 8.962 19.59 8.234C19.59 7.478 19.5013 6.89 19.324 6.47C19.1467 6.04067 18.8573 5.73733 18.456 5.56C18.064 5.37333 17.5133 5.28 16.804 5.28ZM23.1383 5.672V6.358H25.3083L25.2663 7.24H22.1443V5.672H23.1383ZM23.1383 9.536V10.236H25.3083L25.2663 11.104H22.1443V9.536H23.1383ZM27.2287 5.602C27.2287 5.042 27.3361 4.56133 27.5507 4.16C27.7654 3.75867 28.0641 3.44133 28.4467 3.208H26.0807V2.284H29.8607V3.194C29.3007 3.43667 28.9134 3.768 28.6987 4.188C28.4841 4.608 28.3767 5.20533 28.3767 5.98V10.376C28.3767 10.6093 28.4281 10.782 28.5307 10.894C28.6427 11.006 28.8107 11.062 29.0347 11.062H29.8327V12H28.5167C28.1154 12 27.7981 11.8787 27.5647 11.636C27.3407 11.384 27.2287 11.0573 27.2287 10.656V5.602ZM32.2676 6.89H34.7736C35.371 6.89 35.791 6.76867 36.0336 6.526C36.2763 6.274 36.3976 5.88667 36.3976 5.364V4.44H37.5456V5.35C37.5456 6.42333 37.1443 7.086 36.3416 7.338C36.7803 7.478 37.0743 7.70667 37.2236 8.024C37.3823 8.332 37.4616 8.738 37.4616 9.242V12H36.3136V9.382C36.3136 8.98067 36.2623 8.668 36.1596 8.444C36.0663 8.22 35.903 8.06133 35.6696 7.968C35.4456 7.87467 35.1236 7.828 34.7036 7.828H32.2676V12H31.1196V4.44H32.2676V6.89ZM42.3865 5.28C41.5091 5.28 40.7018 5.40133 39.9645 5.644V4.692C40.3191 4.57067 40.7298 4.47733 41.1965 4.412C41.6631 4.33733 42.1298 4.3 42.5965 4.3C43.6605 4.3 44.4351 4.524 44.9205 4.972C45.4151 5.41067 45.6625 6.11067 45.6625 7.072V12H44.5145V8.528H42.1065C41.4625 8.528 40.9911 8.63533 40.6925 8.85C40.4031 9.06467 40.2585 9.41 40.2585 9.886C40.2585 10.3527 40.3891 10.684 40.6505 10.88C40.9211 11.0667 41.3598 11.16 41.9665 11.16C42.3305 11.16 42.6478 11.1227 42.9185 11.048V12C42.5638 12.0933 42.1438 12.14 41.6585 12.14C40.8931 12.14 40.2818 11.958 39.8245 11.594C39.3671 11.2207 39.1385 10.6513 39.1385 9.886C39.1385 9.158 39.3811 8.59333 39.8665 8.192C40.3518 7.78133 41.0751 7.576 42.0365 7.576H44.5145V6.988C44.5145 6.54933 44.4491 6.20867 44.3185 5.966C44.1878 5.72333 43.9685 5.55067 43.6605 5.448C43.3618 5.336 42.9371 5.28 42.3865 5.28ZM44.5276 3.166V0.897999H45.6756V3.166H44.5276ZM49.9036 5.28C49.0076 5.28 48.1909 5.40133 47.4536 5.644V4.692C47.8176 4.57067 48.2376 4.47733 48.7136 4.412C49.1989 4.33733 49.6936 4.3 50.1976 4.3C51.4669 4.3 52.3909 4.622 52.9696 5.266C53.5483 5.91 53.8376 6.89933 53.8376 8.234C53.8376 9.54067 53.5483 10.5207 52.9696 11.174C52.3909 11.818 51.4809 12.14 50.2396 12.14C49.6983 12.14 49.1709 12.0933 48.6576 12C48.1536 11.8973 47.7149 11.7667 47.3416 11.608V7.8H50.1136L50.1696 8.738H48.4896V10.88C49.0309 11.0667 49.6049 11.16 50.2116 11.16C50.8276 11.16 51.3129 11.0667 51.6676 10.88C52.0223 10.6933 52.2789 10.39 52.4376 9.97C52.6056 9.54067 52.6896 8.962 52.6896 8.234C52.6896 7.478 52.6009 6.89 52.4236 6.47C52.2463 6.04067 51.9569 5.73733 51.5556 5.56C51.1636 5.37333 50.6129 5.28 49.9036 5.28ZM57.8059 5.28C56.9099 5.28 56.0933 5.40133 55.3559 5.644V4.692C55.7199 4.57067 56.1399 4.47733 56.6159 4.412C57.1013 4.33733 57.5959 4.3 58.0999 4.3C59.3693 4.3 60.2933 4.622 60.8719 5.266C61.4506 5.91 61.7399 6.89933 61.7399 8.234C61.7399 9.54067 61.4506 10.5207 60.8719 11.174C60.2933 11.818 59.3833 12.14 58.1419 12.14C57.6006 12.14 57.0733 12.0933 56.5599 12C56.0559 11.8973 55.6173 11.7667 55.2439 11.608V7.8H58.0159L58.0719 8.738H56.3919V10.88C56.9333 11.0667 57.5073 11.16 58.1139 11.16C58.7299 11.16 59.2153 11.0667 59.5699 10.88C59.9246 10.6933 60.1813 10.39 60.3399 9.97C60.5079 9.54067 60.5919 8.962 60.5919 8.234C60.5919 7.478 60.5033 6.89 60.3259 6.47C60.1486 6.04067 59.8593 5.73733 59.4579 5.56C59.0659 5.37333 58.5153 5.28 57.8059 5.28ZM65.7923 7.632C65.4283 7.72533 65.1623 7.87467 64.9943 8.08C64.8263 8.28533 64.7423 8.57933 64.7423 8.962V12H63.5943V8.934C63.5943 8.52333 63.683 8.178 63.8603 7.898C64.047 7.60867 64.3363 7.408 64.7283 7.296L63.1463 6.932V5.588C63.5383 5.21467 64.033 4.90667 64.6303 4.664C65.237 4.42133 65.9136 4.3 66.6603 4.3C67.771 4.3 68.6016 4.538 69.1523 5.014C69.703 5.48067 69.9783 6.204 69.9783 7.184V12H68.8303V7.142C68.8303 6.45133 68.667 5.97067 68.3403 5.7C68.0136 5.42 67.4536 5.28 66.6603 5.28C66.1376 5.28 65.6476 5.35467 65.1903 5.504C64.7423 5.644 64.397 5.83533 64.1543 6.078V6.372L65.7923 6.764V7.632Z" fill="black"/>
</svg>
