<svg width="90" height="16" viewBox="0 0 90 16" fill="none" xmlns="http://www.w3.org/2000/svg">
<path d="M1.06591 8.388C1.06591 8.11733 1.13125 7.86067 1.26191 7.618C1.40191 7.366 1.59791 7.06733 1.84991 6.722C2.03658 6.45133 2.17191 6.246 2.25591 6.106C2.33991 5.966 2.38191 5.83067 2.38191 5.7C2.38191 5.55067 2.34925 5.45267 2.28391 5.406C2.21858 5.35933 2.09725 5.336 1.91991 5.336H0.911914L1.00991 4.44H2.56391C3.20791 4.44 3.52991 4.75733 3.52991 5.392C3.52991 5.68133 3.46925 5.94733 3.34791 6.19C3.23591 6.42333 3.06325 6.70333 2.82991 7.03C2.61525 7.338 2.45658 7.59 2.35391 7.786C2.26058 7.982 2.21391 8.19667 2.21391 8.43V9.536C2.21391 10.6187 2.85325 11.16 4.13191 11.16C5.42925 11.16 6.07791 10.6093 6.07791 9.508V4.44H7.22591V9.396C7.22591 10.2733 6.95058 10.95 6.39991 11.426C5.85858 11.902 5.10258 12.14 4.13191 12.14C3.14258 12.14 2.38191 11.9067 1.84991 11.44C1.32725 10.9733 1.06591 10.2967 1.06591 9.41V8.388ZM5.10196 2.34H8.16796L8.11196 3.166H4.27596V1.85H3.16996V1.024H5.10196V2.34ZM11.472 5.28C10.576 5.28 9.75929 5.40133 9.02196 5.644V4.692C9.38596 4.57067 9.80596 4.47733 10.282 4.412C10.7673 4.33733 11.262 4.3 11.766 4.3C13.0353 4.3 13.9593 4.622 14.538 5.266C15.1166 5.91 15.406 6.89933 15.406 8.234C15.406 9.54067 15.1166 10.5207 14.538 11.174C13.9593 11.818 13.0493 12.14 11.808 12.14C11.2666 12.14 10.7393 12.0933 10.226 12C9.72196 11.8973 9.28329 11.7667 8.90996 11.608V7.8H11.682L11.738 8.738H10.058V10.88C10.5993 11.0667 11.1733 11.16 11.78 11.16C12.396 11.16 12.8813 11.0667 13.236 10.88C13.5906 10.6933 13.8473 10.39 14.006 9.97C14.174 9.54067 14.258 8.962 14.258 8.234C14.258 7.478 14.1693 6.89 13.992 6.47C13.8146 6.04067 13.5253 5.73733 13.124 5.56C12.732 5.37333 12.1813 5.28 11.472 5.28ZM23.4903 9.424C23.4903 10.3013 23.2663 10.9733 22.8183 11.44C22.3796 11.9067 21.7543 12.14 20.9423 12.14C20.3636 12.14 19.855 12.0513 19.4163 11.874C18.987 11.6967 18.581 11.4353 18.1983 11.09L18.1283 12H17.0923V4.44H18.2403V10.124C18.5483 10.4413 18.8983 10.6933 19.2903 10.88C19.6823 11.0667 20.107 11.16 20.5643 11.16C21.1803 11.16 21.6283 11.0247 21.9083 10.754C22.1976 10.474 22.3423 10.026 22.3423 9.41V4.44H23.4903V9.424ZM23.4858 12.882V14.422C23.4858 14.7673 23.3505 15.052 23.0798 15.276C22.8092 15.5 22.4452 15.612 21.9878 15.612C21.5492 15.612 21.1992 15.4953 20.9378 15.262C20.6672 15.038 20.5318 14.758 20.5318 14.422V13.638H19.7898L19.8318 12.882H21.3858V14.352C21.3858 14.5107 21.4372 14.632 21.5398 14.716C21.6425 14.8 21.7918 14.842 21.9878 14.842C22.1838 14.842 22.3378 14.7953 22.4498 14.702C22.5618 14.618 22.6178 14.5013 22.6178 14.352V12.882H23.4858ZM28.4138 5.28C27.5365 5.28 26.7292 5.40133 25.9918 5.644V4.692C26.3465 4.57067 26.7572 4.47733 27.2238 4.412C27.6905 4.33733 28.1572 4.3 28.6238 4.3C29.6878 4.3 30.4625 4.524 30.9478 4.972C31.4425 5.41067 31.6898 6.11067 31.6898 7.072V12H30.5418V8.528H28.1338C27.4898 8.528 27.0185 8.63533 26.7198 8.85C26.4305 9.06467 26.2858 9.41 26.2858 9.886C26.2858 10.3527 26.4165 10.684 26.6778 10.88C26.9485 11.0667 27.3872 11.16 27.9938 11.16C28.3578 11.16 28.6752 11.1227 28.9458 11.048V12C28.5912 12.0933 28.1712 12.14 27.6858 12.14C26.9205 12.14 26.3092 11.958 25.8518 11.594C25.3945 11.2207 25.1658 10.6513 25.1658 9.886C25.1658 9.158 25.4085 8.59333 25.8938 8.192C26.3792 7.78133 27.1025 7.576 28.0638 7.576H30.5418V6.988C30.5418 6.54933 30.4765 6.20867 30.3458 5.966C30.2152 5.72333 29.9958 5.55067 29.6878 5.448C29.3892 5.336 28.9645 5.28 28.4138 5.28ZM35.9309 5.28C35.0349 5.28 34.2183 5.40133 33.4809 5.644V4.692C33.8449 4.57067 34.2649 4.47733 34.7409 4.412C35.2263 4.33733 35.7209 4.3 36.2249 4.3C37.4943 4.3 38.4183 4.622 38.9969 5.266C39.5756 5.91 39.8649 6.89933 39.8649 8.234C39.8649 9.54067 39.5756 10.5207 38.9969 11.174C38.4183 11.818 37.5083 12.14 36.2669 12.14C35.7256 12.14 35.1983 12.0933 34.6849 12C34.1809 11.8973 33.7423 11.7667 33.3689 11.608V7.8H36.1409L36.1969 8.738H34.5169V10.88C35.0583 11.0667 35.6323 11.16 36.2389 11.16C36.8549 11.16 37.3403 11.0667 37.6949 10.88C38.0496 10.6933 38.3063 10.39 38.4649 9.97C38.6329 9.54067 38.7169 8.962 38.7169 8.234C38.7169 7.478 38.6283 6.89 38.4509 6.47C38.2736 6.04067 37.9843 5.73733 37.5829 5.56C37.1909 5.37333 36.6403 5.28 35.9309 5.28ZM42.2653 5.672V6.358H44.4353L44.3933 7.24H41.2713V5.672H42.2653ZM42.2653 9.536V10.236H44.4353L44.3933 11.104H41.2713V9.536H42.2653ZM46.3557 5.602C46.3557 5.042 46.463 4.56133 46.6777 4.16C46.8924 3.75867 47.191 3.44133 47.5737 3.208H45.2077V2.284H48.9877V3.194C48.4277 3.43667 48.0404 3.768 47.8257 4.188C47.611 4.608 47.5037 5.20533 47.5037 5.98V10.376C47.5037 10.6093 47.555 10.782 47.6577 10.894C47.7697 11.006 47.9377 11.062 48.1617 11.062H48.9597V12H47.6437C47.2424 12 46.925 11.8787 46.6917 11.636C46.4677 11.384 46.3557 11.0573 46.3557 10.656V5.602ZM51.3946 6.89H53.9006C54.4979 6.89 54.9179 6.76867 55.1606 6.526C55.4033 6.274 55.5246 5.88667 55.5246 5.364V4.44H56.6726V5.35C56.6726 6.42333 56.2713 7.086 55.4686 7.338C55.9073 7.478 56.2013 7.70667 56.3506 8.024C56.5093 8.332 56.5886 8.738 56.5886 9.242V12H55.4406V9.382C55.4406 8.98067 55.3893 8.668 55.2866 8.444C55.1933 8.22 55.0299 8.06133 54.7966 7.968C54.5726 7.87467 54.2506 7.828 53.8306 7.828H51.3946V12H50.2466V4.44H51.3946V6.89ZM61.5134 5.28C60.6361 5.28 59.8288 5.40133 59.0914 5.644V4.692C59.4461 4.57067 59.8568 4.47733 60.3234 4.412C60.7901 4.33733 61.2568 4.3 61.7234 4.3C62.7874 4.3 63.5621 4.524 64.0474 4.972C64.5421 5.41067 64.7894 6.11067 64.7894 7.072V12H63.6414V8.528H61.2334C60.5894 8.528 60.1181 8.63533 59.8194 8.85C59.5301 9.06467 59.3854 9.41 59.3854 9.886C59.3854 10.3527 59.5161 10.684 59.7774 10.88C60.0481 11.0667 60.4868 11.16 61.0934 11.16C61.4574 11.16 61.7748 11.1227 62.0454 11.048V12C61.6908 12.0933 61.2708 12.14 60.7854 12.14C60.0201 12.14 59.4088 11.958 58.9514 11.594C58.4941 11.2207 58.2654 10.6513 58.2654 9.886C58.2654 9.158 58.5081 8.59333 58.9934 8.192C59.4788 7.78133 60.2021 7.576 61.1634 7.576H63.6414V6.988C63.6414 6.54933 63.5761 6.20867 63.4454 5.966C63.3148 5.72333 63.0954 5.55067 62.7874 5.448C62.4888 5.336 62.0641 5.28 61.5134 5.28ZM63.6546 3.166V0.897999H64.8026V3.166H63.6546ZM67.8966 6.89H70.4026C70.9999 6.89 71.4199 6.76867 71.6626 6.526C71.9052 6.274 72.0266 5.88667 72.0266 5.364V4.44H73.1746V5.35C73.1746 6.42333 72.7732 7.086 71.9706 7.338C72.4092 7.478 72.7032 7.70667 72.8526 8.024C73.0112 8.332 73.0906 8.738 73.0906 9.242V12H71.9426V9.382C71.9426 8.98067 71.8912 8.668 71.7886 8.444C71.6952 8.22 71.5319 8.06133 71.2986 7.968C71.0746 7.87467 70.7526 7.828 70.3326 7.828H67.8966V12H66.7486V4.44H67.8966V6.89ZM78.0154 5.28C77.138 5.28 76.3307 5.40133 75.5934 5.644V4.692C75.948 4.57067 76.3587 4.47733 76.8254 4.412C77.292 4.33733 77.7587 4.3 78.2254 4.3C79.2894 4.3 80.064 4.524 80.5494 4.972C81.044 5.41067 81.2914 6.11067 81.2914 7.072V12H80.1434V8.528H77.7354C77.0914 8.528 76.62 8.63533 76.3214 8.85C76.032 9.06467 75.8874 9.41 75.8874 9.886C75.8874 10.3527 76.018 10.684 76.2794 10.88C76.55 11.0667 76.9887 11.16 77.5954 11.16C77.9594 11.16 78.2767 11.1227 78.5474 11.048V12C78.1927 12.0933 77.7727 12.14 77.2874 12.14C76.522 12.14 75.9107 11.958 75.4534 11.594C74.996 11.2207 74.7674 10.6513 74.7674 9.886C74.7674 9.158 75.01 8.59333 75.4954 8.192C75.9807 7.78133 76.704 7.576 77.6654 7.576H80.1434V6.988C80.1434 6.54933 80.078 6.20867 79.9474 5.966C79.8167 5.72333 79.5974 5.55067 79.2894 5.448C78.9907 5.336 78.566 5.28 78.0154 5.28ZM79.2185 1.318V2.34H82.9845L82.9285 3.166H78.2525V1.318H79.2185ZM85.6165 7.632C85.2525 7.72533 84.9865 7.87467 84.8185 8.08C84.6505 8.28533 84.5665 8.57933 84.5665 8.962V12H83.4185V8.934C83.4185 8.52333 83.5072 8.178 83.6845 7.898C83.8712 7.60867 84.1605 7.408 84.5525 7.296L82.9705 6.932V5.588C83.3625 5.21467 83.8572 4.90667 84.4545 4.664C85.0612 4.42133 85.7378 4.3 86.4845 4.3C87.5952 4.3 88.4258 4.538 88.9765 5.014C89.5272 5.48067 89.8025 6.204 89.8025 7.184V12H88.6545V7.142C88.6545 6.45133 88.4912 5.97067 88.1645 5.7C87.8378 5.42 87.2778 5.28 86.4845 5.28C85.9618 5.28 85.4718 5.35467 85.0145 5.504C84.5665 5.644 84.2212 5.83533 83.9785 6.078V6.372L85.6165 6.764V7.632Z" fill="black"/>
</svg>
