<svg width="109" height="36" viewBox="0 0 109 36" fill="none" xmlns="http://www.w3.org/2000/svg">
<path d="M3.32241 7.28C2.60374 7.28 2.06707 7.41533 1.71241 7.686C1.36707 7.95667 1.19441 8.386 1.19441 8.974V10.724C1.63307 10.3413 2.17441 10.15 2.81841 10.15H3.74241L3.79841 11.088H2.79041C2.15574 11.088 1.62374 11.27 1.19441 11.634V14H0.0464063V9.1C0.0464063 7.23333 1.13841 6.3 3.32241 6.3C5.48774 6.3 6.57041 7.23333 6.57041 9.1V14H5.42241V8.974C5.42241 8.386 5.24507 7.95667 4.89041 7.686C4.54507 7.41533 4.02241 7.28 3.32241 7.28ZM3.93064 3.15H4.79864V4.34H5.69464V3.15H6.56264V5.166H1.00464L1.06064 4.34H3.93064V3.15ZM9.68464 6.44V11.41C9.68464 12.026 9.81997 12.474 10.0906 12.754C10.3706 13.0247 10.8186 13.16 11.4346 13.16C11.892 13.16 12.3213 13.0667 12.7226 12.88C13.1333 12.6933 13.488 12.4413 13.7866 12.124V6.44H14.9346V14H13.8986L13.8286 13.09C13.054 13.79 12.13 14.14 11.0566 14.14C10.2446 14.14 9.61931 13.9067 9.18064 13.44C8.75131 12.9733 8.53664 12.3013 8.53664 11.424V6.44H9.68464ZM16.7782 10.654C16.7782 10.3833 16.8622 10.108 17.0302 9.828C17.1982 9.548 17.4315 9.21667 17.7302 8.834C17.9635 8.53533 18.1315 8.302 18.2342 8.134C18.3462 7.95667 18.4022 7.798 18.4022 7.658C18.4022 7.42467 18.2902 7.308 18.0662 7.308C17.8608 7.308 17.6695 7.39667 17.4922 7.574V8.12H16.6102V6.44H17.4922V6.832C17.7722 6.57067 18.1082 6.44 18.5002 6.44C18.8082 6.44 19.0508 6.52867 19.2282 6.706C19.4148 6.874 19.5082 7.11667 19.5082 7.434C19.5082 7.70467 19.4382 7.96133 19.2982 8.204C19.1675 8.44667 18.9668 8.74533 18.6962 9.1C18.4255 9.464 18.2295 9.758 18.1082 9.982C17.9868 10.206 17.9262 10.4393 17.9262 10.682V11.536C17.9262 12.6187 18.5655 13.16 19.8442 13.16C21.1415 13.16 21.7902 12.6093 21.7902 11.508V10.542C21.7902 10.0287 21.7062 9.674 21.5382 9.478C21.3702 9.282 21.0622 9.184 20.6142 9.184H20.2222L20.2782 8.274H20.5862C21.0435 8.274 21.3562 8.17133 21.5242 7.966C21.7015 7.75133 21.7902 7.40133 21.7902 6.916V6.3H22.9382V6.902C22.9382 7.39667 22.8635 7.78867 22.7142 8.078C22.5742 8.36733 22.3035 8.582 21.9022 8.722C22.3222 8.88067 22.5975 9.10467 22.7282 9.394C22.8682 9.674 22.9382 10.066 22.9382 10.57V11.396C22.9382 12.2733 22.6628 12.95 22.1122 13.426C21.5708 13.902 20.8148 14.14 19.8442 14.14C18.8548 14.14 18.0942 13.9067 17.5622 13.44C17.0395 12.9733 16.7782 12.2967 16.7782 11.41V10.654ZM27.9399 9.114C27.9399 8.65667 27.8932 8.302 27.7999 8.05C27.7159 7.798 27.5432 7.60667 27.2819 7.476C27.0299 7.34533 26.6472 7.28 26.1339 7.28C25.8352 7.28 25.5085 7.31267 25.1539 7.378C24.8085 7.44333 24.4912 7.532 24.2019 7.644V6.692C24.4912 6.58 24.8272 6.48667 25.2099 6.412C25.5925 6.33733 25.9705 6.3 26.3439 6.3C27.3052 6.3 28.0005 6.51467 28.4299 6.944C28.8685 7.364 29.0879 8.04533 29.0879 8.988V14H27.9399V9.114ZM33.4202 9.632C33.0562 9.72533 32.7902 9.87467 32.6222 10.08C32.4542 10.2853 32.3702 10.5793 32.3702 10.962V14H31.2222V10.934C31.2222 10.5233 31.3109 10.178 31.4882 9.898C31.6749 9.60867 31.9642 9.408 32.3562 9.296L30.7742 8.932V7.588C31.1662 7.21467 31.6609 6.90667 32.2582 6.664C32.8649 6.42133 33.5416 6.3 34.2882 6.3C35.3989 6.3 36.2296 6.538 36.7802 7.014C37.3309 7.48067 37.6062 8.204 37.6062 9.184V14H36.4582V9.142C36.4582 8.45133 36.2949 7.97067 35.9682 7.7C35.6416 7.42 35.0816 7.28 34.2882 7.28C33.7656 7.28 33.2756 7.35467 32.8182 7.504C32.3702 7.644 32.0249 7.83533 31.7822 8.078V8.372L33.4202 8.764V9.632ZM41.8538 7.28C40.9578 7.28 40.1411 7.40133 39.4038 7.644V6.692C39.7678 6.57067 40.1878 6.47733 40.6638 6.412C41.1491 6.33733 41.6438 6.3 42.1478 6.3C43.4171 6.3 44.3411 6.622 44.9198 7.266C45.4985 7.91 45.7878 8.89933 45.7878 10.234C45.7878 11.5407 45.4985 12.5207 44.9198 13.174C44.3411 13.818 43.4311 14.14 42.1898 14.14C41.6485 14.14 41.1211 14.0933 40.6078 14C40.1038 13.8973 39.6651 13.7667 39.2918 13.608V9.8H42.0638L42.1198 10.738H40.4398V12.88C40.9811 13.0667 41.5551 13.16 42.1618 13.16C42.7778 13.16 43.2631 13.0667 43.6178 12.88C43.9725 12.6933 44.2291 12.39 44.3878 11.97C44.5558 11.5407 44.6398 10.962 44.6398 10.234C44.6398 9.478 44.5511 8.89 44.3738 8.47C44.1965 8.04067 43.9071 7.73733 43.5058 7.56C43.1138 7.37333 42.5631 7.28 41.8538 7.28ZM48.1881 7.672V8.358H50.3581L50.3161 9.24H47.1941V7.672H48.1881ZM48.1881 11.536V12.236H50.3581L50.3161 13.104H47.1941V11.536H48.1881ZM52.2785 7.602C52.2785 7.042 52.3859 6.56133 52.6005 6.16C52.8152 5.75867 53.1139 5.44133 53.4965 5.208H51.1305V4.284H54.9105V5.194C54.3505 5.43667 53.9632 5.768 53.7485 6.188C53.5339 6.608 53.4265 7.20533 53.4265 7.98V12.376C53.4265 12.6093 53.4779 12.782 53.5805 12.894C53.6925 13.006 53.8605 13.062 54.0845 13.062H54.8825V14H53.5665C53.1652 14 52.8479 13.8787 52.6145 13.636C52.3905 13.384 52.2785 13.0573 52.2785 12.656V7.602ZM57.3175 8.89H59.8235C60.4208 8.89 60.8408 8.76867 61.0835 8.526C61.3261 8.274 61.4475 7.88667 61.4475 7.364V6.44H62.5955V7.35C62.5955 8.42333 62.1941 9.086 61.3915 9.338C61.8301 9.478 62.1241 9.70667 62.2735 10.024C62.4321 10.332 62.5115 10.738 62.5115 11.242V14H61.3635V11.382C61.3635 10.9807 61.3121 10.668 61.2095 10.444C61.1161 10.22 60.9528 10.0613 60.7195 9.968C60.4955 9.87467 60.1735 9.828 59.7535 9.828H57.3175V14H56.1695V6.44H57.3175V8.89ZM67.4363 7.28C66.5589 7.28 65.7516 7.40133 65.0143 7.644V6.692C65.3689 6.57067 65.7796 6.47733 66.2463 6.412C66.7129 6.33733 67.1796 6.3 67.6463 6.3C68.7103 6.3 69.4849 6.524 69.9703 6.972C70.4649 7.41067 70.7123 8.11067 70.7123 9.072V14H69.5643V10.528H67.1563C66.5123 10.528 66.0409 10.6353 65.7423 10.85C65.4529 11.0647 65.3083 11.41 65.3083 11.886C65.3083 12.3527 65.4389 12.684 65.7003 12.88C65.9709 13.0667 66.4096 13.16 67.0163 13.16C67.3803 13.16 67.6976 13.1227 67.9683 13.048V14C67.6136 14.0933 67.1936 14.14 66.7083 14.14C65.9429 14.14 65.3316 13.958 64.8743 13.594C64.4169 13.2207 64.1883 12.6513 64.1883 11.886C64.1883 11.158 64.4309 10.5933 64.9163 10.192C65.4016 9.78133 66.1249 9.576 67.0863 9.576H69.5643V8.988C69.5643 8.54933 69.4989 8.20867 69.3683 7.966C69.2376 7.72333 69.0183 7.55067 68.7103 7.448C68.4116 7.336 67.9869 7.28 67.4363 7.28ZM69.5774 5.166V2.898H70.7254V5.166H69.5774ZM73.8194 6.44V12.376C73.8194 12.6093 73.8707 12.782 73.9734 12.894C74.0854 13.006 74.2534 13.062 74.4774 13.062H75.2754V14H73.9594C73.5581 14 73.2407 13.8787 73.0074 13.636C72.7834 13.384 72.6714 13.0573 72.6714 12.656V6.44H73.8194ZM79.4007 14H78.2667L76.5307 6.44H77.7067L78.9527 12.39L80.5487 7.392V6.44H81.4027L83.1107 12.39L84.3427 6.44H85.5047L83.7827 14H82.6347L81.0807 8.68L79.4007 14ZM82.0107 3.15H82.8787V4.34H83.7747V3.15H84.6427V5.166H79.0847L79.1407 4.34H82.0107V3.15ZM83.663 2.464V0.517999H84.629V2.464H83.663ZM89.3225 7.28C88.4265 7.28 87.6099 7.40133 86.8725 7.644V6.692C87.2365 6.57067 87.6565 6.47733 88.1325 6.412C88.6179 6.33733 89.1125 6.3 89.6165 6.3C90.8859 6.3 91.8099 6.622 92.3885 7.266C92.9672 7.91 93.2565 8.89933 93.2565 10.234C93.2565 11.5407 92.9672 12.5207 92.3885 13.174C91.8099 13.818 90.8999 14.14 89.6585 14.14C89.1172 14.14 88.5899 14.0933 88.0765 14C87.5725 13.8973 87.1339 13.7667 86.7605 13.608V9.8H89.5325L89.5885 10.738H87.9085V12.88C88.4499 13.0667 89.0239 13.16 89.6305 13.16C90.2465 13.16 90.7319 13.0667 91.0865 12.88C91.4412 12.6933 91.6979 12.39 91.8565 11.97C92.0245 11.5407 92.1085 10.962 92.1085 10.234C92.1085 9.478 92.0199 8.89 91.8425 8.47C91.6652 8.04067 91.3759 7.73733 90.9745 7.56C90.5825 7.37333 90.0319 7.28 89.3225 7.28ZM99.1849 12.068C99.1849 11.7973 99.1196 11.5827 98.9889 11.424C98.8676 11.2653 98.6996 11.1393 98.4849 11.046C98.2796 10.9527 97.9669 10.8407 97.5469 10.71L97.0429 10.542C96.5296 10.374 96.1096 10.206 95.7829 10.038C95.4562 9.87 95.1856 9.65067 94.9709 9.38C94.7656 9.1 94.6629 8.75467 94.6629 8.344C94.6629 7.68133 94.9102 7.17733 95.4049 6.832C95.8996 6.47733 96.6276 6.3 97.5889 6.3C97.9809 6.3 98.3776 6.33267 98.7789 6.398C99.1802 6.46333 99.5256 6.54267 99.8149 6.636V7.644C99.1896 7.40133 98.5036 7.28 97.7569 7.28C97.0756 7.28 96.5809 7.35467 96.2729 7.504C95.9649 7.644 95.8109 7.91467 95.8109 8.316C95.8109 8.57733 95.8902 8.792 96.0489 8.96C96.2169 9.11867 96.4269 9.24933 96.6789 9.352C96.9402 9.44533 97.3742 9.59 97.9809 9.786C98.5036 9.954 98.9282 10.1313 99.2549 10.318C99.5909 10.4953 99.8522 10.724 100.039 11.004C100.235 11.284 100.333 11.634 100.333 12.054C100.333 13.4447 99.3342 14.14 97.3369 14.14C96.8609 14.14 96.3989 14.1073 95.9509 14.042C95.5122 13.9767 95.1482 13.888 94.8589 13.776V12.754C95.5496 13.0247 96.3102 13.16 97.1409 13.16C97.8782 13.16 98.4009 13.09 98.7089 12.95C99.0262 12.8007 99.1849 12.5067 99.1849 12.068ZM104.293 7.28C103.397 7.28 102.581 7.40133 101.843 7.644V6.692C102.207 6.57067 102.627 6.47733 103.103 6.412C103.589 6.33733 104.083 6.3 104.587 6.3C105.857 6.3 106.781 6.622 107.359 7.266C107.938 7.91 108.227 8.89933 108.227 10.234C108.227 11.5407 107.938 12.5207 107.359 13.174C106.781 13.818 105.871 14.14 104.629 14.14C104.088 14.14 103.561 14.0933 103.047 14C102.543 13.8973 102.105 13.7667 101.731 13.608V9.8H104.503L104.559 10.738H102.879V12.88C103.421 13.0667 103.995 13.16 104.601 13.16C105.217 13.16 105.703 13.0667 106.057 12.88C106.412 12.6933 106.669 12.39 106.827 11.97C106.995 11.5407 107.079 10.962 107.079 10.234C107.079 9.478 106.991 8.89 106.813 8.47C106.636 8.04067 106.347 7.73733 105.945 7.56C105.553 7.37333 105.003 7.28 104.293 7.28ZM26.6718 29.33C26.6718 28.9287 26.6112 28.6533 26.4898 28.504C26.3778 28.3547 26.1585 28.28 25.8318 28.28C25.3465 28.28 25.0152 28.4993 24.8378 28.938H24.0678C23.9278 28.6953 23.7878 28.5273 23.6478 28.434C23.5078 28.3313 23.3165 28.28 23.0738 28.28C22.5698 28.28 22.2198 28.5367 22.0238 29.05C21.8278 29.554 21.7298 30.3007 21.7298 31.29C21.7298 32.326 21.8978 33.0633 22.2338 33.502C22.5792 33.9407 23.1018 34.16 23.8018 34.16C24.2218 34.16 24.5438 34.1227 24.7678 34.048V35C24.4598 35.0933 24.0725 35.14 23.6058 35.14C22.6912 35.14 21.9585 34.8227 21.4078 34.188C20.8572 33.544 20.5818 32.578 20.5818 31.29C20.5818 30.0113 20.7825 29.0267 21.1838 28.336C21.5945 27.6453 22.1778 27.3 22.9338 27.3C23.2885 27.3 23.5825 27.3607 23.8158 27.482C24.0492 27.6033 24.2638 27.79 24.4598 28.042C24.6652 27.8087 24.9172 27.6267 25.2158 27.496C25.5238 27.3653 25.8365 27.3 26.1538 27.3C26.6952 27.3 27.1058 27.4633 27.3858 27.79C27.6752 28.1073 27.8198 28.5693 27.8198 29.176V35H26.6718V29.33ZM25.7439 24.318V25.34H29.5099L29.4539 26.166H24.7779V24.318H25.7439ZM33.2759 27.3C34.0599 27.3 34.7086 27.44 35.2219 27.72C35.7446 27.9907 36.1272 28.3547 36.3699 28.812C36.6126 29.26 36.7339 29.7593 36.7339 30.31V35H35.5859V30.324C35.5859 29.6893 35.3992 29.19 35.0259 28.826C34.6619 28.462 34.0692 28.28 33.2479 28.28C32.3332 28.28 31.6706 28.5367 31.2599 29.05C30.8492 29.554 30.6439 30.3007 30.6439 31.29C30.6439 32.326 30.8119 33.0633 31.1479 33.502C31.4932 33.9407 32.0159 34.16 32.7159 34.16C33.1359 34.16 33.4579 34.1227 33.6819 34.048V35C33.3739 35.0933 32.9866 35.14 32.5199 35.14C31.6052 35.14 30.8726 34.8227 30.3219 34.188C29.7712 33.544 29.4959 32.578 29.4959 31.29C29.4959 30.03 29.8086 29.05 30.4339 28.35C31.0686 27.65 32.0159 27.3 33.2759 27.3ZM44.5 28.378C44.7893 28.77 44.934 29.3347 44.934 30.072V35H43.786V31.528H41.378C40.734 31.528 40.2626 31.6353 39.964 31.85C39.6746 32.0647 39.53 32.41 39.53 32.886C39.53 33.3527 39.6606 33.684 39.922 33.88C40.1926 34.0667 40.6313 34.16 41.238 34.16C41.602 34.16 41.9193 34.1227 42.19 34.048V35C41.8353 35.0933 41.4153 35.14 40.93 35.14C40.1646 35.14 39.5533 34.958 39.096 34.594C38.6386 34.2207 38.41 33.6513 38.41 32.886C38.41 32.158 38.6526 31.5933 39.138 31.192C39.6233 30.7813 40.3466 30.576 41.308 30.576H43.786V29.988C43.786 29.5493 43.7206 29.2087 43.59 28.966C43.4593 28.7233 43.24 28.5507 42.932 28.448C42.6333 28.336 42.2086 28.28 41.658 28.28C40.7806 28.28 39.9733 28.4013 39.236 28.644V27.692C39.5906 27.5707 40.0013 27.4773 40.468 27.412C40.9346 27.3373 41.4013 27.3 41.868 27.3C42.3066 27.3 42.736 27.3467 43.156 27.44H45.564L45.508 28.378H44.5ZM39.4294 26.166L39.4854 25.34H44.9874V26.166H39.4294ZM48.1094 27.44V32.41C48.1094 33.026 48.2448 33.474 48.5154 33.754C48.7954 34.0247 49.2434 34.16 49.8594 34.16C50.3168 34.16 50.7461 34.0667 51.1474 33.88C51.5581 33.6933 51.9128 33.4413 52.2114 33.124V27.44H53.3594V35H52.3234L52.2534 34.09C51.4788 34.79 50.5548 35.14 49.4814 35.14C48.6694 35.14 48.0441 34.9067 47.6054 34.44C47.1761 33.9733 46.9614 33.3013 46.9614 32.424V27.44H48.1094ZM60.565 35V30.016C60.565 29.4093 60.4203 28.9707 60.131 28.7C59.8416 28.42 59.3936 28.28 58.787 28.28C58.3296 28.28 57.905 28.3733 57.513 28.56C57.121 28.7467 56.771 29.0033 56.463 29.33V35H55.315V27.44H56.351L56.421 28.35C56.7943 28.014 57.205 27.7573 57.653 27.58C58.101 27.3933 58.6143 27.3 59.193 27.3C59.9956 27.3 60.6163 27.5333 61.055 28C61.4936 28.4667 61.713 29.134 61.713 30.002V35H60.565ZM67.9105 33.068C67.9105 32.7973 67.8451 32.5827 67.7145 32.424C67.5931 32.2653 67.4251 32.1393 67.2105 32.046C67.0051 31.9527 66.6925 31.8407 66.2725 31.71L65.7685 31.542C65.2551 31.374 64.8351 31.206 64.5085 31.038C64.1818 30.87 63.9111 30.6507 63.6965 30.38C63.4911 30.1 63.3885 29.7547 63.3885 29.344C63.3885 28.6813 63.6358 28.1773 64.1305 27.832C64.6251 27.4773 65.3531 27.3 66.3145 27.3C66.7065 27.3 67.1031 27.3327 67.5045 27.398C67.9058 27.4633 68.2511 27.5427 68.5405 27.636V28.644C67.9151 28.4013 67.2291 28.28 66.4825 28.28C65.8011 28.28 65.3065 28.3547 64.9985 28.504C64.6905 28.644 64.5365 28.9147 64.5365 29.316C64.5365 29.5773 64.6158 29.792 64.7745 29.96C64.9425 30.1187 65.1525 30.2493 65.4045 30.352C65.6658 30.4453 66.0998 30.59 66.7065 30.786C67.2291 30.954 67.6538 31.1313 67.9805 31.318C68.3165 31.4953 68.5778 31.724 68.7645 32.004C68.9605 32.284 69.0585 32.634 69.0585 33.054C69.0585 34.4447 68.0598 35.14 66.0625 35.14C65.5865 35.14 65.1245 35.1073 64.6765 35.042C64.2378 34.9767 63.8738 34.888 63.5845 34.776V33.754C64.2751 34.0247 65.0358 34.16 65.8665 34.16C66.6038 34.16 67.1265 34.09 67.4345 33.95C67.7518 33.8007 67.9105 33.5067 67.9105 33.068ZM66.7048 24.318V25.34H70.4708L70.4148 26.166H65.7388V24.318H66.7048ZM73.1868 35H72.0528L70.3168 27.44H71.4928L72.7388 33.39L74.3348 28.392V27.44H75.1888L76.8968 33.39L78.1288 27.44H79.2908L77.5688 35H76.4208L74.8668 29.68L73.1868 35ZM83.0387 28.28C82.1707 28.28 81.7367 28.658 81.7367 29.414C81.7367 29.8153 81.8673 30.114 82.1287 30.31C82.39 30.506 82.7493 30.604 83.2067 30.604H84.0047L84.0747 31.472H83.1647C82.67 31.472 82.3013 31.5887 82.0587 31.822C81.816 32.0553 81.6947 32.396 81.6947 32.844C81.6947 33.292 81.8673 33.6233 82.2127 33.838C82.5673 34.0527 83.1087 34.16 83.8367 34.16C84.5647 34.16 85.106 34.02 85.4607 33.74C85.8153 33.46 85.9927 33.0213 85.9927 32.424V27.44H87.1407V32.228C87.1407 33.1893 86.8747 33.9173 86.3427 34.412C85.8107 34.8973 84.9893 35.14 83.8787 35.14C82.8333 35.14 82.0167 34.9487 81.4287 34.566C80.8407 34.1833 80.5467 33.6093 80.5467 32.844C80.5467 32.4147 80.6447 32.0507 80.8407 31.752C81.046 31.444 81.3307 31.2107 81.6947 31.052C81.3587 30.9493 81.088 30.758 80.8827 30.478C80.6867 30.198 80.5887 29.8433 80.5887 29.414C80.5887 28.7327 80.794 28.21 81.2047 27.846C81.6153 27.482 82.1567 27.3 82.8287 27.3C83.2767 27.3 83.664 27.3513 83.9907 27.454V28.406C83.7387 28.322 83.4213 28.28 83.0387 28.28ZM85.0662 25.116V26.166H84.1002V24.29H88.0342L87.9922 25.116H85.0662Z" fill="black"/>
</svg>
