<svg width="101" height="34" viewBox="0 0 101 34" fill="none" xmlns="http://www.w3.org/2000/svg">
<path d="M15.5246 5.28C14.8059 5.28 14.2692 5.41533 13.9146 5.686C13.5692 5.95667 13.3966 6.386 13.3966 6.974V8.724C13.8352 8.34133 14.3766 8.15 15.0206 8.15H15.9446L16.0006 9.088H14.9926C14.3579 9.088 13.8259 9.27 13.3966 9.634V12H12.2486V7.1C12.2486 5.23333 13.3406 4.3 15.5246 4.3C17.6899 4.3 18.7726 5.23333 18.7726 7.1V12H17.6246V6.974C17.6246 6.386 17.4472 5.95667 17.0926 5.686C16.7472 5.41533 16.2246 5.28 15.5246 5.28ZM16.1328 1.15H17.0008V2.34H17.8968V1.15H18.7648V3.166H13.2068L13.2628 2.34H16.1328V1.15ZM21.8868 4.44V9.41C21.8868 10.026 22.0221 10.474 22.2928 10.754C22.5728 11.0247 23.0208 11.16 23.6368 11.16C24.0941 11.16 24.5235 11.0667 24.9248 10.88C25.3355 10.6933 25.6901 10.4413 25.9888 10.124V4.44H27.1368V12H26.1008L26.0308 11.09C25.2561 11.79 24.3321 12.14 23.2588 12.14C22.4468 12.14 21.8215 11.9067 21.3828 11.44C20.9535 10.9733 20.7388 10.3013 20.7388 9.424V4.44H21.8868ZM28.9803 8.654C28.9803 8.38333 29.0643 8.108 29.2323 7.828C29.4003 7.548 29.6336 7.21667 29.9323 6.834C30.1656 6.53533 30.3336 6.302 30.4363 6.134C30.5483 5.95667 30.6043 5.798 30.6043 5.658C30.6043 5.42467 30.4923 5.308 30.2683 5.308C30.063 5.308 29.8716 5.39667 29.6943 5.574V6.12H28.8123V4.44H29.6943V4.832C29.9743 4.57067 30.3103 4.44 30.7023 4.44C31.0103 4.44 31.253 4.52867 31.4303 4.706C31.617 4.874 31.7103 5.11667 31.7103 5.434C31.7103 5.70467 31.6403 5.96133 31.5003 6.204C31.3696 6.44667 31.169 6.74533 30.8983 7.1C30.6276 7.464 30.4316 7.758 30.3103 7.982C30.189 8.206 30.1283 8.43933 30.1283 8.682V9.536C30.1283 10.6187 30.7676 11.16 32.0463 11.16C33.3436 11.16 33.9923 10.6093 33.9923 9.508V8.542C33.9923 8.02867 33.9083 7.674 33.7403 7.478C33.5723 7.282 33.2643 7.184 32.8163 7.184H32.4243L32.4803 6.274H32.7883C33.2456 6.274 33.5583 6.17133 33.7263 5.966C33.9036 5.75133 33.9923 5.40133 33.9923 4.916V4.3H35.1403V4.902C35.1403 5.39667 35.0656 5.78867 34.9163 6.078C34.7763 6.36733 34.5056 6.582 34.1043 6.722C34.5243 6.88067 34.7996 7.10467 34.9303 7.394C35.0703 7.674 35.1403 8.066 35.1403 8.57V9.396C35.1403 10.2733 34.865 10.95 34.3143 11.426C33.773 11.902 33.017 12.14 32.0463 12.14C31.057 12.14 30.2963 11.9067 29.7643 11.44C29.2416 10.9733 28.9803 10.2967 28.9803 9.41V8.654ZM40.142 7.114C40.142 6.65667 40.0954 6.302 40.002 6.05C39.918 5.798 39.7454 5.60667 39.484 5.476C39.232 5.34533 38.8494 5.28 38.336 5.28C38.0374 5.28 37.7107 5.31267 37.356 5.378C37.0107 5.44333 36.6934 5.532 36.404 5.644V4.692C36.6934 4.58 37.0294 4.48667 37.412 4.412C37.7947 4.33733 38.1727 4.3 38.546 4.3C39.5074 4.3 40.2027 4.51467 40.632 4.944C41.0707 5.364 41.29 6.04533 41.29 6.988V12H40.142V7.114ZM45.6224 7.632C45.2584 7.72533 44.9924 7.87467 44.8244 8.08C44.6564 8.28533 44.5724 8.57933 44.5724 8.962V12H43.4244V8.934C43.4244 8.52333 43.513 8.178 43.6904 7.898C43.877 7.60867 44.1664 7.408 44.5584 7.296L42.9764 6.932V5.588C43.3684 5.21467 43.863 4.90667 44.4604 4.664C45.067 4.42133 45.7437 4.3 46.4904 4.3C47.601 4.3 48.4317 4.538 48.9824 5.014C49.533 5.48067 49.8084 6.204 49.8084 7.184V12H48.6604V7.142C48.6604 6.45133 48.497 5.97067 48.1704 5.7C47.8437 5.42 47.2837 5.28 46.4904 5.28C45.9677 5.28 45.4777 5.35467 45.0204 5.504C44.5724 5.644 44.227 5.83533 43.9844 6.078V6.372L45.6224 6.764V7.632ZM54.0559 5.28C53.1599 5.28 52.3433 5.40133 51.6059 5.644V4.692C51.9699 4.57067 52.3899 4.47733 52.8659 4.412C53.3513 4.33733 53.8459 4.3 54.3499 4.3C55.6193 4.3 56.5433 4.622 57.1219 5.266C57.7006 5.91 57.9899 6.89933 57.9899 8.234C57.9899 9.54067 57.7006 10.5207 57.1219 11.174C56.5433 11.818 55.6333 12.14 54.3919 12.14C53.8506 12.14 53.3233 12.0933 52.8099 12C52.3059 11.8973 51.8673 11.7667 51.4939 11.608V7.8H54.2659L54.3219 8.738H52.6419V10.88C53.1833 11.0667 53.7573 11.16 54.3639 11.16C54.9799 11.16 55.4653 11.0667 55.8199 10.88C56.1746 10.6933 56.4313 10.39 56.5899 9.97C56.7579 9.54067 56.8419 8.962 56.8419 8.234C56.8419 7.478 56.7533 6.89 56.5759 6.47C56.3986 6.04067 56.1093 5.73733 55.7079 5.56C55.3159 5.37333 54.7653 5.28 54.0559 5.28ZM60.3903 5.672V6.358H62.5603L62.5183 7.24H59.3963V5.672H60.3903ZM60.3903 9.536V10.236H62.5603L62.5183 11.104H59.3963V9.536H60.3903ZM64.4807 5.602C64.4807 5.042 64.588 4.56133 64.8027 4.16C65.0174 3.75867 65.316 3.44133 65.6987 3.208H63.3327V2.284H67.1127V3.194C66.5527 3.43667 66.1654 3.768 65.9507 4.188C65.736 4.608 65.6287 5.20533 65.6287 5.98V10.376C65.6287 10.6093 65.68 10.782 65.7827 10.894C65.8947 11.006 66.0627 11.062 66.2867 11.062H67.0847V12H65.7687C65.3674 12 65.05 11.8787 64.8167 11.636C64.5927 11.384 64.4807 11.0573 64.4807 10.656V5.602ZM69.5196 6.89H72.0256C72.6229 6.89 73.0429 6.76867 73.2856 6.526C73.5283 6.274 73.6496 5.88667 73.6496 5.364V4.44H74.7976V5.35C74.7976 6.42333 74.3963 7.086 73.5936 7.338C74.0323 7.478 74.3263 7.70667 74.4756 8.024C74.6343 8.332 74.7136 8.738 74.7136 9.242V12H73.5656V9.382C73.5656 8.98067 73.5143 8.668 73.4116 8.444C73.3183 8.22 73.1549 8.06133 72.9216 7.968C72.6976 7.87467 72.3756 7.828 71.9556 7.828H69.5196V12H68.3716V4.44H69.5196V6.89ZM79.6384 5.28C78.7611 5.28 77.9538 5.40133 77.2164 5.644V4.692C77.5711 4.57067 77.9818 4.47733 78.4484 4.412C78.9151 4.33733 79.3818 4.3 79.8484 4.3C80.9124 4.3 81.6871 4.524 82.1724 4.972C82.6671 5.41067 82.9144 6.11067 82.9144 7.072V12H81.7664V8.528H79.3584C78.7144 8.528 78.2431 8.63533 77.9444 8.85C77.6551 9.06467 77.5104 9.41 77.5104 9.886C77.5104 10.3527 77.6411 10.684 77.9024 10.88C78.1731 11.0667 78.6118 11.16 79.2184 11.16C79.5824 11.16 79.8998 11.1227 80.1704 11.048V12C79.8158 12.0933 79.3958 12.14 78.9104 12.14C78.1451 12.14 77.5338 11.958 77.0764 11.594C76.6191 11.2207 76.3904 10.6513 76.3904 9.886C76.3904 9.158 76.6331 8.59333 77.1184 8.192C77.6038 7.78133 78.3271 7.576 79.2884 7.576H81.7664V6.988C81.7664 6.54933 81.7011 6.20867 81.5704 5.966C81.4398 5.72333 81.2204 5.55067 80.9124 5.448C80.6138 5.336 80.1891 5.28 79.6384 5.28ZM81.7796 3.166V0.897999H82.9276V3.166H81.7796ZM87.8696 2.732H89.0316L85.7556 12H84.5936L87.8696 2.732ZM3.22977 26.28C2.3711 26.28 1.57777 26.4013 0.849766 26.644V25.692C1.63377 25.4307 2.52977 25.3 3.53777 25.3C6.02977 25.3 7.27577 26.5787 7.27577 29.136C7.27577 29.9853 7.12177 30.7133 6.81377 31.32C6.50577 31.9173 6.09043 32.37 5.56777 32.678C5.0451 32.986 4.4711 33.14 3.84577 33.14C3.66843 33.14 3.4771 33.126 3.27177 33.098C3.06643 33.07 2.9031 33.0327 2.78177 32.986L1.60577 29.85H0.709766L0.765766 28.912H2.34777L3.56577 32.16L3.80377 32.174C4.47577 32.174 5.0311 31.9267 5.46977 31.432C5.90843 30.928 6.12777 30.1627 6.12777 29.136C6.12777 28.4267 6.03443 27.8667 5.84777 27.456C5.6611 27.0453 5.35777 26.7467 4.93777 26.56C4.51777 26.3733 3.94843 26.28 3.22977 26.28ZM4.94247 23.046C4.94247 22.6447 5.08714 22.3087 5.37647 22.038C5.65647 21.758 6.0018 21.618 6.41247 21.618C6.82314 21.618 7.16847 21.758 7.44847 22.038C7.72847 22.3087 7.86847 22.6447 7.86847 23.046C7.86847 23.4473 7.72847 23.7833 7.44847 24.054C7.16847 24.3247 6.82314 24.46 6.41247 24.46C6.0018 24.46 5.65647 24.3247 5.37647 24.054C5.08714 23.7833 4.94247 23.4473 4.94247 23.046ZM5.71247 23.046C5.71247 23.2327 5.78247 23.396 5.92247 23.536C6.05314 23.6667 6.21647 23.732 6.41247 23.732C6.59914 23.732 6.76247 23.6667 6.90247 23.536C7.03314 23.396 7.09847 23.2327 7.09847 23.046C7.09847 22.8593 7.03314 22.696 6.90247 22.556C6.76247 22.416 6.59914 22.346 6.41247 22.346C6.21647 22.346 6.05314 22.416 5.92247 22.556C5.78247 22.696 5.71247 22.8593 5.71247 23.046ZM11.9985 28.114C11.9985 27.6567 11.9518 27.302 11.8585 27.05C11.7745 26.798 11.6018 26.6067 11.3405 26.476C11.0885 26.3453 10.7058 26.28 10.1925 26.28C9.8938 26.28 9.56714 26.3127 9.21247 26.378C8.86714 26.4433 8.5498 26.532 8.26047 26.644V25.692C8.5498 25.58 8.8858 25.4867 9.26847 25.412C9.65114 25.3373 10.0291 25.3 10.4025 25.3C11.3638 25.3 12.0591 25.5147 12.4885 25.944C12.9271 26.364 13.1465 27.0453 13.1465 27.988V33H11.9985V28.114ZM16.2608 27.89H18.7668C19.3641 27.89 19.7841 27.7687 20.0268 27.526C20.2695 27.274 20.3908 26.8867 20.3908 26.364V25.44H21.5388V26.35C21.5388 27.4233 21.1375 28.086 20.3348 28.338C20.7735 28.478 21.0675 28.7067 21.2168 29.024C21.3755 29.332 21.4548 29.738 21.4548 30.242V33H20.3068V30.382C20.3068 29.9807 20.2555 29.668 20.1528 29.444C20.0595 29.22 19.8961 29.0613 19.6628 28.968C19.4388 28.8747 19.1168 28.828 18.6968 28.828H16.2608V33H15.1128V25.44H16.2608V27.89ZM24.5596 25.44V30.41C24.5596 31.026 24.695 31.474 24.9656 31.754C25.2456 32.0247 25.6936 32.16 26.3096 32.16C26.767 32.16 27.1963 32.0667 27.5976 31.88C28.0083 31.6933 28.363 31.4413 28.6616 31.124V25.44H29.8096V33H28.7736L28.7036 32.09C27.929 32.79 27.005 33.14 25.9316 33.14C25.1196 33.14 24.4943 32.9067 24.0556 32.44C23.6263 31.9733 23.4116 31.3013 23.4116 30.424V25.44H24.5596ZM28.6712 24.166V21.898H29.8192V24.166H28.6712ZM34.8032 28.114C34.8032 27.6567 34.7565 27.302 34.6632 27.05C34.5792 26.798 34.4065 26.6067 34.1452 26.476C33.8932 26.3453 33.5105 26.28 32.9972 26.28C32.6985 26.28 32.3718 26.3127 32.0172 26.378C31.6718 26.4433 31.3545 26.532 31.0652 26.644V25.692C31.3545 25.58 31.6905 25.4867 32.0732 25.412C32.4558 25.3373 32.8338 25.3 33.2072 25.3C34.1685 25.3 34.8638 25.5147 35.2932 25.944C35.7318 26.364 35.9512 27.0453 35.9512 27.988V33H34.8032V28.114ZM40.1295 26.28C39.2615 26.28 38.8275 26.658 38.8275 27.414C38.8275 27.8153 38.9582 28.114 39.2195 28.31C39.4808 28.506 39.8402 28.604 40.2975 28.604H41.0955L41.1655 29.472H40.2555C39.7608 29.472 39.3922 29.5887 39.1495 29.822C38.9068 30.0553 38.7855 30.396 38.7855 30.844C38.7855 31.292 38.9582 31.6233 39.3035 31.838C39.6582 32.0527 40.1995 32.16 40.9275 32.16C41.6555 32.16 42.1968 32.02 42.5515 31.74C42.9062 31.46 43.0835 31.0213 43.0835 30.424V25.44H44.2315V30.228C44.2315 31.1893 43.9655 31.9173 43.4335 32.412C42.9015 32.8973 42.0802 33.14 40.9695 33.14C39.9242 33.14 39.1075 32.9487 38.5195 32.566C37.9315 32.1833 37.6375 31.6093 37.6375 30.844C37.6375 30.4147 37.7355 30.0507 37.9315 29.752C38.1368 29.444 38.4215 29.2107 38.7855 29.052C38.4495 28.9493 38.1788 28.758 37.9735 28.478C37.7775 28.198 37.6795 27.8433 37.6795 27.414C37.6795 26.7327 37.8848 26.21 38.2955 25.846C38.7062 25.482 39.2475 25.3 39.9195 25.3C40.3675 25.3 40.7548 25.3513 41.0815 25.454V26.406C40.8295 26.322 40.5122 26.28 40.1295 26.28ZM46.077 29.654C46.077 29.3833 46.161 29.108 46.329 28.828C46.497 28.548 46.7303 28.2167 47.029 27.834C47.2623 27.5353 47.4303 27.302 47.533 27.134C47.645 26.9567 47.701 26.798 47.701 26.658C47.701 26.4247 47.589 26.308 47.365 26.308C47.1597 26.308 46.9683 26.3967 46.791 26.574V27.12H45.909V25.44H46.791V25.832C47.071 25.5707 47.407 25.44 47.799 25.44C48.107 25.44 48.3497 25.5287 48.527 25.706C48.7137 25.874 48.807 26.1167 48.807 26.434C48.807 26.7047 48.737 26.9613 48.597 27.204C48.4663 27.4467 48.2657 27.7453 47.995 28.1C47.7243 28.464 47.5283 28.758 47.407 28.982C47.2857 29.206 47.225 29.4393 47.225 29.682V30.536C47.225 31.6187 47.8643 32.16 49.143 32.16C50.4403 32.16 51.089 31.6093 51.089 30.508V29.542C51.089 29.0287 51.005 28.674 50.837 28.478C50.669 28.282 50.361 28.184 49.913 28.184H49.521L49.577 27.274H49.885C50.3423 27.274 50.655 27.1713 50.823 26.966C51.0003 26.7513 51.089 26.4013 51.089 25.916V25.3H52.237V25.902C52.237 26.3967 52.1623 26.7887 52.013 27.078C51.873 27.3673 51.6023 27.582 51.201 27.722C51.621 27.8807 51.8963 28.1047 52.027 28.394C52.167 28.674 52.237 29.066 52.237 29.57V30.396C52.237 31.2733 51.9617 31.95 51.411 32.426C50.8697 32.902 50.1137 33.14 49.143 33.14C48.1537 33.14 47.393 32.9067 46.861 32.44C46.3383 31.9733 46.077 31.2967 46.077 30.41V29.654ZM57.2387 28.114C57.2387 27.6567 57.192 27.302 57.0987 27.05C57.0147 26.798 56.842 26.6067 56.5807 26.476C56.3287 26.3453 55.946 26.28 55.4327 26.28C55.134 26.28 54.8074 26.3127 54.4527 26.378C54.1074 26.4433 53.79 26.532 53.5007 26.644V25.692C53.79 25.58 54.126 25.4867 54.5087 25.412C54.8914 25.3373 55.2694 25.3 55.6427 25.3C56.604 25.3 57.2994 25.5147 57.7287 25.944C58.1674 26.364 58.3867 27.0453 58.3867 27.988V33H57.2387V28.114ZM62.719 28.632C62.355 28.7253 62.089 28.8747 61.921 29.08C61.753 29.2853 61.669 29.5793 61.669 29.962V33H60.521V29.934C60.521 29.5233 60.6097 29.178 60.787 28.898C60.9737 28.6087 61.263 28.408 61.655 28.296L60.073 27.932V26.588C60.465 26.2147 60.9597 25.9067 61.557 25.664C62.1637 25.4213 62.8404 25.3 63.587 25.3C64.6977 25.3 65.5284 25.538 66.079 26.014C66.6297 26.4807 66.905 27.204 66.905 28.184V33H65.757V28.142C65.757 27.4513 65.5937 26.9707 65.267 26.7C64.9404 26.42 64.3804 26.28 63.587 26.28C63.0644 26.28 62.5744 26.3547 62.117 26.504C61.669 26.644 61.3237 26.8353 61.081 27.078V27.372L62.719 27.764V28.632ZM71.1526 26.28C70.2566 26.28 69.44 26.4013 68.7026 26.644V25.692C69.0666 25.5707 69.4866 25.4773 69.9626 25.412C70.448 25.3373 70.9426 25.3 71.4466 25.3C72.716 25.3 73.64 25.622 74.2186 26.266C74.7973 26.91 75.0866 27.8993 75.0866 29.234C75.0866 30.5407 74.7973 31.5207 74.2186 32.174C73.64 32.818 72.73 33.14 71.4886 33.14C70.9473 33.14 70.42 33.0933 69.9066 33C69.4026 32.8973 68.964 32.7667 68.5906 32.608V28.8H71.3626L71.4186 29.738H69.7386V31.88C70.28 32.0667 70.854 32.16 71.4606 32.16C72.0766 32.16 72.562 32.0667 72.9166 31.88C73.2713 31.6933 73.528 31.39 73.6866 30.97C73.8546 30.5407 73.9386 29.962 73.9386 29.234C73.9386 28.478 73.85 27.89 73.6726 27.47C73.4953 27.0407 73.206 26.7373 72.8046 26.56C72.4126 26.3733 71.862 26.28 71.1526 26.28ZM77.487 26.672V27.358H79.657L79.615 28.24H76.493V26.672H77.487ZM77.487 30.536V31.236H79.657L79.615 32.104H76.493V30.536H77.487ZM81.5774 26.602C81.5774 26.042 81.6847 25.5613 81.8994 25.16C82.114 24.7587 82.4127 24.4413 82.7954 24.208H80.4294V23.284H84.2094V24.194C83.6494 24.4367 83.262 24.768 83.0474 25.188C82.8327 25.608 82.7254 26.2053 82.7254 26.98V31.376C82.7254 31.6093 82.7767 31.782 82.8794 31.894C82.9914 32.006 83.1594 32.062 83.3834 32.062H84.1814V33H82.8654C82.464 33 82.1467 32.8787 81.9134 32.636C81.6894 32.384 81.5774 32.0573 81.5774 31.656V26.602ZM86.6163 27.89H89.1223C89.7196 27.89 90.1396 27.7687 90.3823 27.526C90.6249 27.274 90.7463 26.8867 90.7463 26.364V25.44H91.8943V26.35C91.8943 27.4233 91.4929 28.086 90.6903 28.338C91.1289 28.478 91.4229 28.7067 91.5723 29.024C91.7309 29.332 91.8103 29.738 91.8103 30.242V33H90.6623V30.382C90.6623 29.9807 90.6109 29.668 90.5083 29.444C90.4149 29.22 90.2516 29.0613 90.0183 28.968C89.7943 28.8747 89.4723 28.828 89.0523 28.828H86.6163V33H85.4683V25.44H86.6163V27.89ZM96.7351 26.28C95.8578 26.28 95.0504 26.4013 94.3131 26.644V25.692C94.6678 25.5707 95.0784 25.4773 95.5451 25.412C96.0118 25.3373 96.4784 25.3 96.9451 25.3C98.0091 25.3 98.7838 25.524 99.2691 25.972C99.7638 26.4107 100.011 27.1107 100.011 28.072V33H98.8631V29.528H96.4551C95.8111 29.528 95.3398 29.6353 95.0411 29.85C94.7518 30.0647 94.6071 30.41 94.6071 30.886C94.6071 31.3527 94.7378 31.684 94.9991 31.88C95.2698 32.0667 95.7084 32.16 96.3151 32.16C96.6791 32.16 96.9964 32.1227 97.2671 32.048V33C96.9124 33.0933 96.4924 33.14 96.0071 33.14C95.2418 33.14 94.6304 32.958 94.1731 32.594C93.7158 32.2207 93.4871 31.6513 93.4871 30.886C93.4871 30.158 93.7298 29.5933 94.2151 29.192C94.7004 28.7813 95.4238 28.576 96.3851 28.576H98.8631V27.988C98.8631 27.5493 98.7978 27.2087 98.6671 26.966C98.5364 26.7233 98.3171 26.5507 98.0091 26.448C97.7104 26.336 97.2858 26.28 96.7351 26.28ZM98.8762 24.166V21.898H100.024V24.166H98.8762Z" fill="black"/>
</svg>
