<svg width="102" height="34" viewBox="0 0 102 34" fill="none" xmlns="http://www.w3.org/2000/svg">
<path d="M1.26374 4.44V10.376C1.26374 10.6093 1.31508 10.782 1.41774 10.894C1.52974 11.006 1.69774 11.062 1.92174 11.062H2.71974V12H1.40374C1.00241 12 0.685076 11.8787 0.451742 11.636C0.227742 11.384 0.115742 11.0573 0.115742 10.656V4.44H1.26374ZM7.71304 11.16C8.43171 11.16 8.97304 11.006 9.33704 10.698C9.70104 10.39 9.88304 9.9 9.88304 9.228V4.44H11.031V9.144C11.031 10.1333 10.7464 10.88 10.177 11.384C9.60771 11.888 8.78637 12.14 7.71304 12.14C6.63971 12.14 5.81837 11.888 5.24904 11.384C4.67971 10.88 4.39504 10.1333 4.39504 9.144V4.44H5.54304V9.228C5.54304 9.9 5.72504 10.39 6.08904 10.698C6.45304 11.006 6.99437 11.16 7.71304 11.16ZM5.46265 3.166L5.51865 2.34H11.0206V3.166H5.46265ZM15.3606 7.632C14.9966 7.72533 14.7306 7.87467 14.5626 8.08C14.3946 8.28533 14.3106 8.57933 14.3106 8.962V12H13.1626V8.934C13.1626 8.52333 13.2513 8.178 13.4286 7.898C13.6153 7.60867 13.9046 7.408 14.2966 7.296L12.7146 6.932V5.588C13.1066 5.21467 13.6013 4.90667 14.1986 4.664C14.8053 4.42133 15.482 4.3 16.2286 4.3C17.3393 4.3 18.17 4.538 18.7206 5.014C19.2713 5.48067 19.5466 6.204 19.5466 7.184V12H18.3986V7.142C18.3986 6.45133 18.2353 5.97067 17.9086 5.7C17.582 5.42 17.022 5.28 16.2286 5.28C15.706 5.28 15.216 5.35467 14.7586 5.504C14.3106 5.644 13.9653 5.83533 13.7226 6.078V6.372L15.3606 6.764V7.632ZM24.5082 2.732H25.6702L22.3942 12H21.2322L24.5082 2.732ZM27.9241 5.364C27.9241 4.75733 27.8075 4.30467 27.5741 4.006C27.3501 3.698 26.9721 3.432 26.4401 3.208V2.284H30.3181V3.208H27.8961C28.3441 3.45067 28.6521 3.74933 28.8201 4.104C28.9881 4.45867 29.0721 4.99533 29.0721 5.714V10.376C29.0721 10.6093 29.1235 10.782 29.2261 10.894C29.3381 11.006 29.5061 11.062 29.7301 11.062H30.5281V12H29.2121C28.8108 12 28.4935 11.8787 28.2601 11.636C28.0361 11.384 27.9241 11.0573 27.9241 10.656V5.364ZM34.0755 5.28C33.1795 5.28 32.3628 5.40133 31.6255 5.644V4.692C31.9895 4.57067 32.4095 4.47733 32.8855 4.412C33.3708 4.33733 33.8655 4.3 34.3695 4.3C35.6388 4.3 36.5628 4.622 37.1415 5.266C37.7201 5.91 38.0095 6.89933 38.0095 8.234C38.0095 9.54067 37.7201 10.5207 37.1415 11.174C36.5628 11.818 35.6528 12.14 34.4115 12.14C33.8701 12.14 33.3428 12.0933 32.8295 12C32.3255 11.8973 31.8868 11.7667 31.5135 11.608V7.8H34.2855L34.3415 8.738H32.6615V10.88C33.2028 11.0667 33.7768 11.16 34.3835 11.16C34.9995 11.16 35.4848 11.0667 35.8395 10.88C36.1941 10.6933 36.4508 10.39 36.6095 9.97C36.7775 9.54067 36.8615 8.962 36.8615 8.234C36.8615 7.478 36.7728 6.89 36.5955 6.47C36.4181 6.04067 36.1288 5.73733 35.7275 5.56C35.3355 5.37333 34.7848 5.28 34.0755 5.28ZM40.8438 4.44V9.41C40.8438 10.026 40.9792 10.474 41.2498 10.754C41.5298 11.0247 41.9778 11.16 42.5938 11.16C43.0512 11.16 43.4805 11.0667 43.8818 10.88C44.2925 10.6933 44.6472 10.4413 44.9458 10.124V4.44H46.0938V12H45.0578L44.9878 11.09C44.2132 11.79 43.2892 12.14 42.2158 12.14C41.4038 12.14 40.7785 11.9067 40.3398 11.44C39.9105 10.9733 39.6958 10.3013 39.6958 9.424V4.44H40.8438ZM50.2613 5.28C49.3933 5.28 48.9593 5.658 48.9593 6.414C48.9593 6.81533 49.09 7.114 49.3513 7.31C49.6127 7.506 49.972 7.604 50.4293 7.604H51.2273L51.2973 8.472H50.3873C49.8927 8.472 49.524 8.58867 49.2813 8.822C49.0387 9.05533 48.9173 9.396 48.9173 9.844C48.9173 10.292 49.09 10.6233 49.4353 10.838C49.79 11.0527 50.3313 11.16 51.0593 11.16C51.7873 11.16 52.3287 11.02 52.6833 10.74C53.038 10.46 53.2153 10.0213 53.2153 9.424V4.44H54.3633V9.228C54.3633 10.1893 54.0973 10.9173 53.5653 11.412C53.0333 11.8973 52.212 12.14 51.1013 12.14C50.056 12.14 49.2393 11.9487 48.6513 11.566C48.0633 11.1833 47.7693 10.6093 47.7693 9.844C47.7693 9.41467 47.8673 9.05067 48.0633 8.752C48.2687 8.444 48.5533 8.21067 48.9173 8.052C48.5813 7.94933 48.3107 7.758 48.1053 7.478C47.9093 7.198 47.8113 6.84333 47.8113 6.414C47.8113 5.73267 48.0167 5.21 48.4273 4.846C48.838 4.482 49.3793 4.3 50.0513 4.3C50.4993 4.3 50.8867 4.35133 51.2133 4.454V5.406C50.9613 5.322 50.644 5.28 50.2613 5.28ZM52.2328 2.34H55.2988L55.2428 3.166H51.4068V1.85H50.3008V1.024H52.2328V2.34ZM59.3588 7.114C59.3588 6.65667 59.3122 6.302 59.2188 6.05C59.1348 5.798 58.9622 5.60667 58.7008 5.476C58.4488 5.34533 58.0662 5.28 57.5528 5.28C57.2542 5.28 56.9275 5.31267 56.5728 5.378C56.2275 5.44333 55.9102 5.532 55.6208 5.644V4.692C55.9102 4.58 56.2462 4.48667 56.6288 4.412C57.0115 4.33733 57.3895 4.3 57.7628 4.3C58.7242 4.3 59.4195 4.51467 59.8488 4.944C60.2875 5.364 60.5068 6.04533 60.5068 6.988V12H59.3588V7.114ZM64.6852 5.28C63.8172 5.28 63.3832 5.658 63.3832 6.414C63.3832 6.81533 63.5138 7.114 63.7752 7.31C64.0365 7.506 64.3958 7.604 64.8532 7.604H65.6512L65.7212 8.472H64.8112C64.3165 8.472 63.9478 8.58867 63.7052 8.822C63.4625 9.05533 63.3412 9.396 63.3412 9.844C63.3412 10.292 63.5138 10.6233 63.8592 10.838C64.2138 11.0527 64.7552 11.16 65.4832 11.16C66.2112 11.16 66.7525 11.02 67.1072 10.74C67.4618 10.46 67.6392 10.0213 67.6392 9.424V4.44H68.7872V9.228C68.7872 10.1893 68.5212 10.9173 67.9892 11.412C67.4572 11.8973 66.6358 12.14 65.5252 12.14C64.4798 12.14 63.6632 11.9487 63.0752 11.566C62.4872 11.1833 62.1932 10.6093 62.1932 9.844C62.1932 9.41467 62.2912 9.05067 62.4872 8.752C62.6925 8.444 62.9772 8.21067 63.3412 8.052C63.0052 7.94933 62.7345 7.758 62.5292 7.478C62.3332 7.198 62.2352 6.84333 62.2352 6.414C62.2352 5.73267 62.4405 5.21 62.8512 4.846C63.2618 4.482 63.8032 4.3 64.4752 4.3C64.9232 4.3 65.3105 4.35133 65.6372 4.454V5.406C65.3852 5.322 65.0678 5.28 64.6852 5.28ZM73.0266 5.28C72.1306 5.28 71.314 5.40133 70.5766 5.644V4.692C70.9406 4.57067 71.3606 4.47733 71.8366 4.412C72.322 4.33733 72.8166 4.3 73.3206 4.3C74.59 4.3 75.514 4.622 76.0926 5.266C76.6713 5.91 76.9606 6.89933 76.9606 8.234C76.9606 9.54067 76.6713 10.5207 76.0926 11.174C75.514 11.818 74.604 12.14 73.3626 12.14C72.8213 12.14 72.294 12.0933 71.7806 12C71.2766 11.8973 70.838 11.7667 70.4646 11.608V7.8H73.2366L73.2926 8.738H71.6126V10.88C72.154 11.0667 72.728 11.16 73.3346 11.16C73.9506 11.16 74.436 11.0667 74.7906 10.88C75.1453 10.6933 75.402 10.39 75.5606 9.97C75.7286 9.54067 75.8126 8.962 75.8126 8.234C75.8126 7.478 75.724 6.89 75.5466 6.47C75.3693 6.04067 75.08 5.73733 74.6786 5.56C74.2866 5.37333 73.736 5.28 73.0266 5.28ZM79.361 5.672V6.358H81.531L81.489 7.24H78.367V5.672H79.361ZM79.361 9.536V10.236H81.531L81.489 11.104H78.367V9.536H79.361ZM83.4514 5.602C83.4514 5.042 83.5587 4.56133 83.7734 4.16C83.9881 3.75867 84.2867 3.44133 84.6694 3.208H82.3034V2.284H86.0834V3.194C85.5234 3.43667 85.1361 3.768 84.9214 4.188C84.7067 4.608 84.5994 5.20533 84.5994 5.98V10.376C84.5994 10.6093 84.6507 10.782 84.7534 10.894C84.8654 11.006 85.0334 11.062 85.2574 11.062H86.0554V12H84.7394C84.3381 12 84.0207 11.8787 83.7874 11.636C83.5634 11.384 83.4514 11.0573 83.4514 10.656V5.602ZM88.4903 6.89H90.9963C91.5936 6.89 92.0136 6.76867 92.2563 6.526C92.499 6.274 92.6203 5.88667 92.6203 5.364V4.44H93.7683V5.35C93.7683 6.42333 93.367 7.086 92.5643 7.338C93.003 7.478 93.297 7.70667 93.4463 8.024C93.605 8.332 93.6843 8.738 93.6843 9.242V12H92.5363V9.382C92.5363 8.98067 92.485 8.668 92.3823 8.444C92.289 8.22 92.1256 8.06133 91.8923 7.968C91.6683 7.87467 91.3463 7.828 90.9263 7.828H88.4903V12H87.3423V4.44H88.4903V6.89ZM98.6091 5.28C97.7318 5.28 96.9245 5.40133 96.1871 5.644V4.692C96.5418 4.57067 96.9525 4.47733 97.4191 4.412C97.8858 4.33733 98.3525 4.3 98.8191 4.3C99.8831 4.3 100.658 4.524 101.143 4.972C101.638 5.41067 101.885 6.11067 101.885 7.072V12H100.737V8.528H98.3291C97.6851 8.528 97.2138 8.63533 96.9151 8.85C96.6258 9.06467 96.4811 9.41 96.4811 9.886C96.4811 10.3527 96.6118 10.684 96.8731 10.88C97.1438 11.0667 97.5825 11.16 98.1891 11.16C98.5531 11.16 98.8705 11.1227 99.1411 11.048V12C98.7865 12.0933 98.3665 12.14 97.8811 12.14C97.1158 12.14 96.5045 11.958 96.0471 11.594C95.5898 11.2207 95.3611 10.6513 95.3611 9.886C95.3611 9.158 95.6038 8.59333 96.0891 8.192C96.5745 7.78133 97.2978 7.576 98.2591 7.576H100.737V6.988C100.737 6.54933 100.672 6.20867 100.541 5.966C100.41 5.72333 100.191 5.55067 99.8831 5.448C99.5845 5.336 99.1598 5.28 98.6091 5.28ZM100.75 3.166V0.897999H101.898V3.166H100.75ZM35.6347 26.378C35.9241 26.77 36.0687 27.3347 36.0687 28.072V33H34.9207V29.528H32.5127C31.8687 29.528 31.3974 29.6353 31.0987 29.85C30.8094 30.0647 30.6647 30.41 30.6647 30.886C30.6647 31.3527 30.7954 31.684 31.0567 31.88C31.3274 32.0667 31.7661 32.16 32.3727 32.16C32.7367 32.16 33.0541 32.1227 33.3247 32.048V33C32.9701 33.0933 32.5501 33.14 32.0647 33.14C31.2994 33.14 30.6881 32.958 30.2307 32.594C29.7734 32.2207 29.5447 31.6513 29.5447 30.886C29.5447 30.158 29.7874 29.5933 30.2727 29.192C30.7581 28.7813 31.4814 28.576 32.4427 28.576H34.9207V27.988C34.9207 27.5493 34.8554 27.2087 34.7247 26.966C34.5941 26.7233 34.3747 26.5507 34.0667 26.448C33.7681 26.336 33.3434 26.28 32.7927 26.28C31.9154 26.28 31.1081 26.4013 30.3707 26.644V25.692C30.7254 25.5707 31.1361 25.4773 31.6027 25.412C32.0694 25.3373 32.5361 25.3 33.0027 25.3C33.4414 25.3 33.8707 25.3467 34.2907 25.44H36.6987L36.6427 26.378H35.6347ZM37.8162 32.034H38.8522V33H37.8162V32.034ZM41.6778 24.964L40.2498 25.216V24.25L42.8258 23.844V33H41.6778V24.964ZM51.0678 30.186C51.0678 31.1007 50.7878 31.824 50.2278 32.356C49.6771 32.8787 48.8651 33.14 47.7918 33.14C46.6998 33.14 45.8784 32.8647 45.3278 32.314C44.7771 31.754 44.5018 30.886 44.5018 29.71V27.582C44.5018 26.8353 44.6464 26.182 44.9358 25.622C45.2344 25.062 45.6591 24.628 46.2098 24.32C46.7604 24.0027 47.4044 23.844 48.1418 23.844C48.9351 23.844 49.6258 23.942 50.2138 24.138V25.132C49.6444 24.9267 48.9724 24.824 48.1978 24.824C47.3204 24.824 46.6671 25.048 46.2378 25.496C45.8084 25.944 45.5938 26.5693 45.5938 27.372V28.058C45.9391 27.806 46.3311 27.6147 46.7698 27.484C47.2084 27.344 47.6238 27.274 48.0158 27.274C49.0331 27.274 49.7938 27.5213 50.2978 28.016C50.8111 28.5107 51.0678 29.234 51.0678 30.186ZM50.0318 30.214C50.0318 29.5327 49.8731 29.024 49.5558 28.688C49.2478 28.3427 48.7018 28.17 47.9178 28.17C47.0778 28.17 46.3031 28.4267 45.5938 28.94V30.032C45.5938 30.7693 45.7758 31.32 46.1398 31.684C46.5038 32.048 47.0544 32.23 47.7918 32.23C48.5291 32.23 49.0844 32.0527 49.4578 31.698C49.8404 31.3433 50.0318 30.8487 50.0318 30.214ZM55.7485 23.732H56.9105L53.6345 33H52.4725L55.7485 23.732ZM63.8124 33H62.6644V30.928H58.0304V30.06L62.7904 23.984H63.8124V29.99H64.7644V30.928H63.8124V33ZM59.1784 30.018H62.8184V25.356L59.1784 30.018ZM72.4506 30.186C72.4506 31.1007 72.1706 31.824 71.6106 32.356C71.0599 32.8787 70.2479 33.14 69.1746 33.14C68.0826 33.14 67.2612 32.8647 66.7106 32.314C66.1599 31.754 65.8846 30.886 65.8846 29.71V27.582C65.8846 26.8353 66.0292 26.182 66.3186 25.622C66.6172 25.062 67.0419 24.628 67.5926 24.32C68.1432 24.0027 68.7872 23.844 69.5246 23.844C70.3179 23.844 71.0086 23.942 71.5966 24.138V25.132C71.0272 24.9267 70.3552 24.824 69.5806 24.824C68.7032 24.824 68.0499 25.048 67.6206 25.496C67.1912 25.944 66.9766 26.5693 66.9766 27.372V28.058C67.3219 27.806 67.7139 27.6147 68.1526 27.484C68.5912 27.344 69.0066 27.274 69.3986 27.274C70.4159 27.274 71.1766 27.5213 71.6806 28.016C72.1939 28.5107 72.4506 29.234 72.4506 30.186ZM71.4146 30.214C71.4146 29.5327 71.2559 29.024 70.9386 28.688C70.6306 28.3427 70.0846 28.17 69.3006 28.17C68.4606 28.17 67.6859 28.4267 66.9766 28.94V30.032C66.9766 30.7693 67.1586 31.32 67.5226 31.684C67.8866 32.048 68.4372 32.23 69.1746 32.23C69.9119 32.23 70.4672 32.0527 70.8406 31.698C71.2232 31.3433 71.4146 30.8487 71.4146 30.214Z" fill="black"/>
</svg>
