<svg width="65" height="13" viewBox="0 0 65 13" fill="none" xmlns="http://www.w3.org/2000/svg">
<path d="M1.61042 4.44V9.41C1.61042 10.026 1.74576 10.474 2.01642 10.754C2.29642 11.0247 2.74442 11.16 3.36042 11.16C3.81776 11.16 4.24709 11.0667 4.64842 10.88C5.05909 10.6933 5.41376 10.4413 5.71242 10.124V4.44H6.86042V12H5.82442L5.75442 11.09C4.97976 11.79 4.05576 12.14 2.98242 12.14C2.17042 12.14 1.54509 11.9067 1.10642 11.44C0.677089 10.9733 0.462422 10.3013 0.462422 9.424V4.44H1.61042ZM4.79794 2.046C4.79794 1.64467 4.9426 1.30867 5.23194 1.038C5.51194 0.758 5.85727 0.618 6.26794 0.618C6.6786 0.618 7.02394 0.758 7.30394 1.038C7.58394 1.30867 7.72394 1.64467 7.72394 2.046C7.72394 2.44733 7.58394 2.78333 7.30394 3.054C7.02394 3.32467 6.6786 3.46 6.26794 3.46C5.85727 3.46 5.51194 3.32467 5.23194 3.054C4.9426 2.78333 4.79794 2.44733 4.79794 2.046ZM5.56794 2.046C5.56794 2.23267 5.63794 2.396 5.77794 2.536C5.9086 2.66667 6.07194 2.732 6.26794 2.732C6.4546 2.732 6.61794 2.66667 6.75794 2.536C6.8886 2.396 6.95394 2.23267 6.95394 2.046C6.95394 1.85933 6.8886 1.696 6.75794 1.556C6.61794 1.416 6.4546 1.346 6.26794 1.346C6.07194 1.346 5.9086 1.416 5.77794 1.556C5.63794 1.696 5.56794 1.85933 5.56794 2.046ZM11.8539 7.114C11.8539 6.65667 11.8073 6.302 11.7139 6.05C11.6299 5.798 11.4573 5.60667 11.1959 5.476C10.9439 5.34533 10.5613 5.28 10.0479 5.28C9.74927 5.28 9.4226 5.31267 9.06794 5.378C8.7226 5.44333 8.40527 5.532 8.11594 5.644V4.692C8.40527 4.58 8.74127 4.48667 9.12394 4.412C9.5066 4.33733 9.8846 4.3 10.2579 4.3C11.2193 4.3 11.9146 4.51467 12.3439 4.944C12.7826 5.364 13.0019 6.04533 13.0019 6.988V12H11.8539V7.114ZM17.2503 5.28C16.3543 5.28 15.5376 5.40133 14.8003 5.644V4.692C15.1643 4.57067 15.5843 4.47733 16.0603 4.412C16.5456 4.33733 17.0403 4.3 17.5443 4.3C18.8136 4.3 19.7376 4.622 20.3163 5.266C20.8949 5.91 21.1843 6.89933 21.1843 8.234C21.1843 9.54067 20.8949 10.5207 20.3163 11.174C19.7376 11.818 18.8276 12.14 17.5863 12.14C17.0449 12.14 16.5176 12.0933 16.0043 12C15.5003 11.8973 15.0616 11.7667 14.6883 11.608V7.8H17.4603L17.5163 8.738H15.8363V10.88C16.3776 11.0667 16.9516 11.16 17.5583 11.16C18.1743 11.16 18.6596 11.0667 19.0143 10.88C19.3689 10.6933 19.6256 10.39 19.7843 9.97C19.9523 9.54067 20.0363 8.962 20.0363 8.234C20.0363 7.478 19.9476 6.89 19.7703 6.47C19.5929 6.04067 19.3036 5.73733 18.9023 5.56C18.5103 5.37333 17.9596 5.28 17.2503 5.28ZM23.5846 5.672V6.358H25.7546L25.7126 7.24H22.5906V5.672H23.5846ZM23.5846 9.536V10.236H25.7546L25.7126 11.104H22.5906V9.536H23.5846ZM27.675 5.602C27.675 5.042 27.7824 4.56133 27.997 4.16C28.2117 3.75867 28.5104 3.44133 28.893 3.208H26.527V2.284H30.307V3.194C29.747 3.43667 29.3597 3.768 29.145 4.188C28.9304 4.608 28.823 5.20533 28.823 5.98V10.376C28.823 10.6093 28.8744 10.782 28.977 10.894C29.089 11.006 29.257 11.062 29.481 11.062H30.279V12H28.963C28.5617 12 28.2444 11.8787 28.011 11.636C27.787 11.384 27.675 11.0573 27.675 10.656V5.602ZM32.7139 6.89H35.2199C35.8173 6.89 36.2373 6.76867 36.4799 6.526C36.7226 6.274 36.8439 5.88667 36.8439 5.364V4.44H37.9919V5.35C37.9919 6.42333 37.5906 7.086 36.7879 7.338C37.2266 7.478 37.5206 7.70667 37.6699 8.024C37.8286 8.332 37.9079 8.738 37.9079 9.242V12H36.7599V9.382C36.7599 8.98067 36.7086 8.668 36.6059 8.444C36.5126 8.22 36.3493 8.06133 36.1159 7.968C35.8919 7.87467 35.5699 7.828 35.1499 7.828H32.7139V12H31.5659V4.44H32.7139V6.89ZM42.8328 5.28C41.9554 5.28 41.1481 5.40133 40.4108 5.644V4.692C40.7654 4.57067 41.1761 4.47733 41.6428 4.412C42.1094 4.33733 42.5761 4.3 43.0428 4.3C44.1068 4.3 44.8814 4.524 45.3668 4.972C45.8614 5.41067 46.1088 6.11067 46.1088 7.072V12H44.9608V8.528H42.5528C41.9088 8.528 41.4374 8.63533 41.1388 8.85C40.8494 9.06467 40.7048 9.41 40.7048 9.886C40.7048 10.3527 40.8354 10.684 41.0968 10.88C41.3674 11.0667 41.8061 11.16 42.4128 11.16C42.7768 11.16 43.0941 11.1227 43.3648 11.048V12C43.0101 12.0933 42.5901 12.14 42.1048 12.14C41.3394 12.14 40.7281 11.958 40.2708 11.594C39.8134 11.2207 39.5848 10.6513 39.5848 9.886C39.5848 9.158 39.8274 8.59333 40.3128 8.192C40.7981 7.78133 41.5214 7.576 42.4828 7.576H44.9608V6.988C44.9608 6.54933 44.8954 6.20867 44.7648 5.966C44.6341 5.72333 44.4148 5.55067 44.1068 5.448C43.8081 5.336 43.3834 5.28 42.8328 5.28ZM44.9739 3.166V0.897999H46.1219V3.166H44.9739ZM49.2159 4.44V10.376C49.2159 10.6093 49.2672 10.782 49.3699 10.894C49.4819 11.006 49.6499 11.062 49.8739 11.062H50.6719V12H49.3559C48.9546 12 48.6372 11.8787 48.4039 11.636C48.1799 11.384 48.0679 11.0573 48.0679 10.656V4.44H49.2159ZM52.2212 8.388C52.2212 8.11733 52.2865 7.86067 52.4172 7.618C52.5572 7.366 52.7532 7.06733 53.0052 6.722C53.1919 6.45133 53.3272 6.246 53.4112 6.106C53.4952 5.966 53.5372 5.83067 53.5372 5.7C53.5372 5.55067 53.5045 5.45267 53.4392 5.406C53.3739 5.35933 53.2525 5.336 53.0752 5.336H52.0672L52.1652 4.44H53.7192C54.3632 4.44 54.6852 4.75733 54.6852 5.392C54.6852 5.68133 54.6245 5.94733 54.5032 6.19C54.3912 6.42333 54.2185 6.70333 53.9852 7.03C53.7705 7.338 53.6119 7.59 53.5092 7.786C53.4159 7.982 53.3692 8.19667 53.3692 8.43V9.536C53.3692 10.6187 54.0085 11.16 55.2872 11.16C56.5845 11.16 57.2332 10.6093 57.2332 9.508V4.44H58.3812V9.396C58.3812 10.2733 58.1059 10.95 57.5552 11.426C57.0139 11.902 56.2579 12.14 55.2872 12.14C54.2979 12.14 53.5372 11.9067 53.0052 11.44C52.4825 10.9733 52.2212 10.2967 52.2212 9.41V8.388ZM56.2572 2.34H59.3232L59.2672 3.166H55.4312V1.85H54.3252V1.024H56.2572V2.34ZM63.3832 7.114C63.3832 6.65667 63.3366 6.302 63.2432 6.05C63.1592 5.798 62.9866 5.60667 62.7252 5.476C62.4732 5.34533 62.0906 5.28 61.5772 5.28C61.2786 5.28 60.9519 5.31267 60.5972 5.378C60.2519 5.44333 59.9346 5.532 59.6452 5.644V4.692C59.9346 4.58 60.2706 4.48667 60.6532 4.412C61.0359 4.33733 61.4139 4.3 61.7872 4.3C62.7486 4.3 63.4439 4.51467 63.8732 4.944C64.3119 5.364 64.5312 6.04533 64.5312 6.988V12H63.3832V7.114Z" fill="black"/>
</svg>
