<svg width="55" height="55" viewBox="0 0 55 55" fill="none" xmlns="http://www.w3.org/2000/svg">
<path fill-rule="evenodd" clip-rule="evenodd" d="M43.5417 20.6253V25.2087H48.125V15.0928L35.3242 2.29199H11.4583C8.92703 2.29199 6.875 4.34402 6.875 6.87533V25.2087H11.4583V6.87533H29.7917V16.042C29.7917 18.5733 31.8437 20.6253 34.375 20.6253H43.5417ZM43.5417 29.792H48.125V34.3753H43.5417V29.792ZM11.4583 52.7087V48.1253H6.875C6.875 50.6566 8.92703 52.7087 11.4583 52.7087ZM20.625 48.1253V52.7087H16.0417V48.1253H20.625ZM29.7917 52.7087V48.1253H25.2083V52.7087H29.7917ZM38.9583 48.1253V52.7087H34.375V48.1253H38.9583ZM43.5417 48.1253H48.125C48.125 50.6566 46.073 52.7087 43.5417 52.7087V48.1253ZM11.4583 29.792V34.3753H6.875V29.792H11.4583ZM48.125 38.9587H43.5417V43.542H48.125V38.9587ZM11.4583 38.9587V43.542H6.875V38.9587H11.4583ZM34.375 16.042V7.82457L42.5924 16.042H34.375Z" fill="#828282"/>
</svg>
