<svg xmlns="http://www.w3.org/2000/svg" viewBox="0 0 56.84 41.88"><defs><style>.cls-1,.cls-3,.cls-4{fill:#58595b;}.cls-2,.cls-9{fill:#fff;}.cls-11,.cls-12,.cls-2,.cls-3,.cls-4{stroke:#fff;}.cls-11,.cls-2,.cls-3{stroke-miterlimit:10;}.cls-11,.cls-12,.cls-2{stroke-width:0.5px;}.cls-12,.cls-4{stroke-linecap:round;stroke-linejoin:round;}.cls-4{stroke-width:1.5px;}.cls-5{fill:none;}.cls-6{fill:#e6e6e6;}.cls-7{fill:#808285;}.cls-8{fill:#939598;}.cls-10,.cls-11,.cls-12{fill:#e32a25;}.cls-13{fill:#f9d2c1;}.cls-14{fill:#ed8566;}</style></defs><title>three-three-new</title><g id="Layer_2" data-name="Layer 2"><g id="Layer_1-2" data-name="Layer 1"><path class="cls-1" d="M17.29,12.55l.05,2.09,1.22,2,2.25.43,2-1.35L24,12.55a.24.24,0,0,1,.2-.16.25.25,0,0,1,.22.12l.72,1.34a.24.24,0,0,1,0,.14l-.39,2.9a.23.23,0,0,1-.1.15L21.28,19.3a.22.22,0,0,1-.18,0l-2.3-.45L10.45,32.46l-.12.19A2.33,2.33,0,0,1,6.49,30l.13-.18,9.71-12.64-1.24-2a.25.25,0,0,1,0-.17"/><path class="cls-2" d="M7.36,30.61a1.27,1.27,0,1,1,.33,1.76A1.27,1.27,0,0,1,7.36,30.61Zm.38.26a.81.81,0,0,0,1.33.92.81.81,0,1,0-1.33-.92Z"/><path class="cls-1" d="M2,28.1a1.77,1.77,0,0,1-.81-1l-1,.12L0,26.67l.94-.41A2.78,2.78,0,0,1,1.11,25l-.8-.64.26-.46,1,.38A2,2,0,0,1,1.77,24L2,23.84l.11-.08.17-.11.11,0c.05,0,3.64,1.29,3.7,1.27"/><path class="cls-1" d="M6,24.89l1.05-.12.14.51-.94.4a1.34,1.34,0,0,1,0,.2V26a1.09,1.09,0,0,1,0,.18,2.53,2.53,0,0,1-.17.77l.8.64L6.64,28l-1-.37a2.57,2.57,0,0,1-1,.76l.12,1-.51.14-.4-.94a3.52,3.52,0,0,1-2-.58"/><path class="cls-3" d="M3.22,24.73a1.35,1.35,0,1,0,1.64,1A1.35,1.35,0,0,0,3.22,24.73Z"/><path class="cls-1" d="M10.3,20.47a5.31,5.31,0,0,1-2.58,1.4l-.29,1.44-.75,0-.14-1.46A3.68,3.68,0,0,1,4.91,21l-1.22.81-.5-.56.93-1.13a3.87,3.87,0,0,1-.61-1.7l-.6-.29,0-.75.63-.14a3.86,3.86,0,0,1,.78-1.63l-.81-1.22.56-.5,1.12.93a2.85,2.85,0,0,1,.45-.25,3.29,3.29,0,0,1,.39-.17l.17,0,.29-.08.16,0,.24,0,.3-.39.74,0,.15.42a3.77,3.77,0,0,1,1.62.78L11,14.28l.5.55L10.53,16a3.69,3.69,0,0,1,.6,1.69l1.44.29,0,.75-1.45.14a2.29,2.29,0,0,1-.08.28.83.83,0,0,1,0,.15,2.34,2.34,0,0,1-.09.24,3.58,3.58,0,0,1-.57,1"/><path class="cls-4" d="M7.4,16.14a1.92,1.92,0,1,0,1.81,2A1.91,1.91,0,0,0,7.4,16.14Z"/><path class="cls-5" d="M47.79,5.18H36.67a1.55,1.55,0,0,0-1.41.88H49.2A1.58,1.58,0,0,0,47.79,5.18Z"/><path class="cls-6" d="M50,6.06a2.28,2.28,0,0,1,.11.7V8.69a.36.36,0,0,1-.36.35h-15a.35.35,0,0,1-.35-.35V6.76a2.28,2.28,0,0,1,.11-.7H28.16V41.47H56.29V6.06Z"/><path class="cls-1" d="M27.61,20.11V5.93A.36.36,0,0,1,28,5.58h6.92a.35.35,0,0,1,.3.17.37.37,0,0,1,0,.34,1.49,1.49,0,0,0-.15.66V8.33H49.34V6.75a1.49,1.49,0,0,0-.15-.66.37.37,0,0,1,0-.34.35.35,0,0,1,.3-.17h7a.35.35,0,0,1,.35.35v35.6a.35.35,0,0,1-.35.35H28a.35.35,0,0,1-.36-.35v-13m.71.16V41.18H56.13V6.29H50a2.4,2.4,0,0,1,0,.46V8.69a.36.36,0,0,1-.36.35h-15a.36.36,0,0,1-.36-.35V6.75a2.4,2.4,0,0,1,0-.46H28.32V19.93"/><path class="cls-1" d="M47.79,4.45H36.67a2.29,2.29,0,0,0-2.29,2.31v2a.35.35,0,0,0,.35.35h15a.36.36,0,0,0,.36-.35v-2A2.3,2.3,0,0,0,47.79,4.45Z"/><path class="cls-7" d="M45.63,2.86H44a.35.35,0,0,0-.31.18,1.62,1.62,0,0,1-2.82,0,.35.35,0,0,0-.31-.18H38.83a.36.36,0,0,0-.36.35V6a.36.36,0,0,0,.36.35h6.8A.35.35,0,0,0,46,6V3.21A.35.35,0,0,0,45.63,2.86Z"/><path class="cls-8" d="M44.54,2.31A2.32,2.32,0,1,1,42.23,0,2.31,2.31,0,0,1,44.54,2.31Z"/><path class="cls-9" d="M43.93,2.32a1.65,1.65,0,0,1-3.3,0,1.65,1.65,0,0,1,3.3,0Z"/><path class="cls-1" d="M47.77,24c0-.27-.15-.49-.33-.49H32.07c-.18,0-.33.22-.33.49h0c0,.27.15.49.33.49H47.44c.18,0,.33-.22.33-.49Z"/><path class="cls-1" d="M47.77,26.56c0-.27-.15-.49-.33-.49H32.07c-.18,0-.33.22-.33.49h0c0,.27.15.49.33.49H47.44c.18,0,.33-.22.33-.49Z"/><path class="cls-1" d="M47.77,29.05c0-.28-.15-.49-.33-.49H32.07c-.18,0-.33.21-.33.49h0c0,.27.15.49.33.49H47.44c.18,0,.33-.22.33-.49Z"/><path class="cls-1" d="M53.16,24a.49.49,0,0,1-.49.49H49.49A.48.48,0,0,1,49,24h0a.48.48,0,0,1,.48-.49h3.18a.49.49,0,0,1,.49.49Z"/><path class="cls-1" d="M53.14,26.58a.48.48,0,0,1-.49.48H49.47a.47.47,0,0,1-.48-.48h0a.48.48,0,0,1,.48-.49h3.18a.49.49,0,0,1,.49.49Z"/><path class="cls-1" d="M53.14,29.1a.49.49,0,0,1-.49.49H49.47A.48.48,0,0,1,49,29.1h0a.48.48,0,0,1,.48-.48h3.18a.49.49,0,0,1,.49.48Z"/><path class="cls-1" d="M47.77,16.62c0-.27-.15-.49-.33-.49H32.07c-.18,0-.33.22-.33.49h0c0,.27.15.49.33.49H47.44c.18,0,.33-.22.33-.49Z"/><path class="cls-1" d="M47.77,19.19c0-.28-.15-.49-.33-.49H32.07c-.18,0-.33.21-.33.49h0c0,.27.15.49.33.49H47.44c.18,0,.33-.22.33-.49Z"/><path class="cls-1" d="M47.77,21.68c0-.28-.15-.5-.33-.5H32.07c-.18,0-.33.22-.33.5h0c0,.27.15.48.33.48H47.44c.18,0,.33-.21.33-.48Z"/><path class="cls-1" d="M53.16,16.64a.48.48,0,0,1-.49.48H49.49a.47.47,0,0,1-.48-.48h0a.48.48,0,0,1,.48-.49h3.18a.49.49,0,0,1,.49.49Z"/><path class="cls-1" d="M53.14,19.21a.49.49,0,0,1-.49.48H49.47a.48.48,0,0,1-.48-.48h0a.48.48,0,0,1,.48-.49h3.18a.49.49,0,0,1,.49.49Z"/><path class="cls-1" d="M53.14,21.73a.49.49,0,0,1-.49.49H49.47a.48.48,0,0,1-.48-.49h0a.48.48,0,0,1,.48-.48h3.18a.49.49,0,0,1,.49.48Z"/><path class="cls-1" d="M25.56,26.28a.18.18,0,0,1-.07.15l-3.66,2.71a.17.17,0,0,1-.18,0,.18.18,0,0,1-.1-.16V27.65H18.07a.18.18,0,0,1-.18-.18V25.1a.18.18,0,0,1,.18-.18h3.48V23.57a.18.18,0,0,1,.1-.16.15.15,0,0,1,.18,0l3.66,2.71A.16.16,0,0,1,25.56,26.28Z"/><path class="cls-1" d="M17.29,12.55l.05,2.09,1.22,2,2.25.43,2-1.35L24,12.55a.24.24,0,0,1,.2-.16.25.25,0,0,1,.22.12l.72,1.34a.24.24,0,0,1,0,.14l-.39,2.9a.23.23,0,0,1-.1.15L21.28,19.3a.22.22,0,0,1-.18,0l-2.3-.45L10.45,32.46l-.12.19A2.33,2.33,0,0,1,6.49,30l.13-.18,9.71-12.64-1.24-2a.25.25,0,0,1,0-.17"/><path class="cls-2" d="M7.36,30.61a1.27,1.27,0,1,1,.33,1.76A1.27,1.27,0,0,1,7.36,30.61Zm.38.26a.81.81,0,0,0,1.33.92.81.81,0,1,0-1.33-.92Z"/><path class="cls-1" d="M2,28.1a1.77,1.77,0,0,1-.81-1l-1,.12L0,26.67l.94-.41A2.78,2.78,0,0,1,1.11,25l-.8-.64.26-.46,1,.38A2,2,0,0,1,1.77,24L2,23.84l.11-.08.17-.11.11,0c.05,0,3.64,1.29,3.7,1.27"/><path class="cls-1" d="M6,24.89l1.05-.12.14.51-.94.4a1.34,1.34,0,0,1,0,.2V26a1.09,1.09,0,0,1,0,.18,2.53,2.53,0,0,1-.17.77l.8.64L6.64,28l-1-.37a2.57,2.57,0,0,1-1,.76l.12,1-.51.14-.4-.94a3.52,3.52,0,0,1-2-.58"/><path class="cls-3" d="M3.22,24.73a1.35,1.35,0,1,0,1.64,1A1.35,1.35,0,0,0,3.22,24.73Z"/><path class="cls-1" d="M10.3,20.47a5.31,5.31,0,0,1-2.58,1.4l-.29,1.44-.75,0-.14-1.46A3.68,3.68,0,0,1,4.91,21l-1.22.81-.5-.56.93-1.13a3.87,3.87,0,0,1-.61-1.7l-.6-.29,0-.75.63-.14a3.86,3.86,0,0,1,.78-1.63l-.81-1.22.56-.5,1.12.93a2.85,2.85,0,0,1,.45-.25,3.29,3.29,0,0,1,.39-.17l.17,0,.29-.08.16,0,.24,0,.3-.39.74,0,.15.42a3.77,3.77,0,0,1,1.62.78L11,14.28l.5.55L10.53,16a3.69,3.69,0,0,1,.6,1.69l1.44.29,0,.75-1.45.14a2.29,2.29,0,0,1-.08.28.83.83,0,0,1,0,.15,2.34,2.34,0,0,1-.09.24,3.58,3.58,0,0,1-.57,1"/><path class="cls-4" d="M7.4,16.14a1.92,1.92,0,1,0,1.81,2A1.91,1.91,0,0,0,7.4,16.14Z"/><path class="cls-5" d="M47.79,5.18H36.67a1.55,1.55,0,0,0-1.41.88H49.2A1.58,1.58,0,0,0,47.79,5.18Z"/><path class="cls-6" d="M50,6.06a2.28,2.28,0,0,1,.11.7V8.69a.36.36,0,0,1-.36.35h-15a.35.35,0,0,1-.35-.35V6.76a2.28,2.28,0,0,1,.11-.7H28.16V41.47H56.29V6.06Z"/><path class="cls-1" d="M27.61,20.11V5.93A.36.36,0,0,1,28,5.58h6.92a.35.35,0,0,1,.3.17.37.37,0,0,1,0,.34,1.49,1.49,0,0,0-.15.66V8.33H49.34V6.75a1.49,1.49,0,0,0-.15-.66.37.37,0,0,1,0-.34.35.35,0,0,1,.3-.17h7a.35.35,0,0,1,.35.35v35.6a.35.35,0,0,1-.35.35H28a.35.35,0,0,1-.36-.35v-13m.71.16V41.18H56.13V6.29H50a2.4,2.4,0,0,1,0,.46V8.69a.36.36,0,0,1-.36.35h-15a.36.36,0,0,1-.36-.35V6.75a2.4,2.4,0,0,1,0-.46H28.32V19.93"/><path class="cls-1" d="M47.79,4.45H36.67a2.29,2.29,0,0,0-2.29,2.31v2a.35.35,0,0,0,.35.35h15a.36.36,0,0,0,.36-.35v-2A2.3,2.3,0,0,0,47.79,4.45Z"/><path class="cls-7" d="M45.63,2.86H44a.35.35,0,0,0-.31.18,1.62,1.62,0,0,1-2.82,0,.35.35,0,0,0-.31-.18H38.83a.36.36,0,0,0-.36.35V6a.36.36,0,0,0,.36.35h6.8A.35.35,0,0,0,46,6V3.21A.35.35,0,0,0,45.63,2.86Z"/><path class="cls-8" d="M44.54,2.31A2.32,2.32,0,1,1,42.23,0,2.31,2.31,0,0,1,44.54,2.31Z"/><path class="cls-9" d="M43.93,2.32a1.65,1.65,0,0,1-3.3,0,1.65,1.65,0,0,1,3.3,0Z"/><path class="cls-1" d="M47.77,24c0-.27-.15-.49-.33-.49H32.07c-.18,0-.33.22-.33.49h0c0,.27.15.49.33.49H47.44c.18,0,.33-.22.33-.49Z"/><path class="cls-1" d="M47.77,26.56c0-.27-.15-.49-.33-.49H32.07c-.18,0-.33.22-.33.49h0c0,.27.15.49.33.49H47.44c.18,0,.33-.22.33-.49Z"/><path class="cls-1" d="M47.77,29.05c0-.28-.15-.49-.33-.49H32.07c-.18,0-.33.21-.33.49h0c0,.27.15.49.33.49H47.44c.18,0,.33-.22.33-.49Z"/><path class="cls-1" d="M53.16,24a.49.49,0,0,1-.49.49H49.49A.48.48,0,0,1,49,24h0a.48.48,0,0,1,.48-.49h3.18a.49.49,0,0,1,.49.49Z"/><path class="cls-1" d="M53.14,26.58a.48.48,0,0,1-.49.48H49.47a.47.47,0,0,1-.48-.48h0a.48.48,0,0,1,.48-.49h3.18a.49.49,0,0,1,.49.49Z"/><path class="cls-1" d="M53.14,29.1a.49.49,0,0,1-.49.49H49.47A.48.48,0,0,1,49,29.1h0a.48.48,0,0,1,.48-.48h3.18a.49.49,0,0,1,.49.48Z"/><path class="cls-1" d="M47.77,16.62c0-.27-.15-.49-.33-.49H32.07c-.18,0-.33.22-.33.49h0c0,.27.15.49.33.49H47.44c.18,0,.33-.22.33-.49Z"/><path class="cls-1" d="M47.77,19.19c0-.28-.15-.49-.33-.49H32.07c-.18,0-.33.21-.33.49h0c0,.27.15.49.33.49H47.44c.18,0,.33-.22.33-.49Z"/><path class="cls-1" d="M47.77,21.68c0-.28-.15-.5-.33-.5H32.07c-.18,0-.33.22-.33.5h0c0,.27.15.48.33.48H47.44c.18,0,.33-.21.33-.48Z"/><path class="cls-1" d="M53.16,16.64a.48.48,0,0,1-.49.48H49.49a.47.47,0,0,1-.48-.48h0a.48.48,0,0,1,.48-.49h3.18a.49.49,0,0,1,.49.49Z"/><path class="cls-1" d="M53.14,19.21a.49.49,0,0,1-.49.48H49.47a.48.48,0,0,1-.48-.48h0a.48.48,0,0,1,.48-.49h3.18a.49.49,0,0,1,.49.49Z"/><path class="cls-1" d="M53.14,21.73a.49.49,0,0,1-.49.49H49.47a.48.48,0,0,1-.48-.49h0a.48.48,0,0,1,.48-.48h3.18a.49.49,0,0,1,.49.48Z"/><path class="cls-1" d="M25.56,26.28a.18.18,0,0,1-.07.15l-3.66,2.71a.17.17,0,0,1-.18,0,.18.18,0,0,1-.1-.16V27.65H18.07a.18.18,0,0,1-.18-.18V25.1a.18.18,0,0,1,.18-.18h3.48V23.57a.18.18,0,0,1,.1-.16.15.15,0,0,1,.18,0l3.66,2.71A.16.16,0,0,1,25.56,26.28Z"/><path class="cls-1" d="M17.29,12.55l.05,2.09,1.22,2,2.25.43,2-1.35L24,12.55a.24.24,0,0,1,.2-.16.25.25,0,0,1,.22.12l.72,1.34a.24.24,0,0,1,0,.14l-.39,2.9a.23.23,0,0,1-.1.15L21.28,19.3a.22.22,0,0,1-.18,0l-2.3-.45L10.45,32.46l-.12.19A2.33,2.33,0,0,1,6.49,30l.13-.18,9.71-12.64-1.24-2a.25.25,0,0,1,0-.17"/><path class="cls-2" d="M7.36,30.61a1.27,1.27,0,1,1,.33,1.76A1.27,1.27,0,0,1,7.36,30.61Zm.38.26a.81.81,0,0,0,1.33.92.81.81,0,1,0-1.33-.92Z"/><path class="cls-1" d="M2,28.1a1.77,1.77,0,0,1-.81-1l-1,.12L0,26.67l.94-.41A2.78,2.78,0,0,1,1.11,25l-.8-.64.26-.46,1,.38A2,2,0,0,1,1.77,24L2,23.84l.11-.08.17-.11.11,0c.05,0,3.64,1.29,3.7,1.27"/><path class="cls-1" d="M6,24.89l1.05-.12.14.51-.94.4a1.34,1.34,0,0,1,0,.2V26a1.09,1.09,0,0,1,0,.18,2.53,2.53,0,0,1-.17.77l.8.64L6.64,28l-1-.37a2.57,2.57,0,0,1-1,.76l.12,1-.51.14-.4-.94a3.52,3.52,0,0,1-2-.58"/><path class="cls-3" d="M3.22,24.73a1.35,1.35,0,1,0,1.64,1A1.35,1.35,0,0,0,3.22,24.73Z"/><path class="cls-1" d="M10.3,20.47a5.31,5.31,0,0,1-2.58,1.4l-.29,1.44-.75,0-.14-1.46A3.68,3.68,0,0,1,4.91,21l-1.22.81-.5-.56.93-1.13a3.87,3.87,0,0,1-.61-1.7l-.6-.29,0-.75.63-.14a3.86,3.86,0,0,1,.78-1.63l-.81-1.22.56-.5,1.12.93a2.85,2.85,0,0,1,.45-.25,3.29,3.29,0,0,1,.39-.17l.17,0,.29-.08.16,0,.24,0,.3-.39.74,0,.15.42a3.77,3.77,0,0,1,1.62.78L11,14.28l.5.55L10.53,16a3.69,3.69,0,0,1,.6,1.69l1.44.29,0,.75-1.45.14a2.29,2.29,0,0,1-.08.28.83.83,0,0,1,0,.15,2.34,2.34,0,0,1-.09.24,3.58,3.58,0,0,1-.57,1"/><path class="cls-4" d="M7.4,16.14a1.92,1.92,0,1,0,1.81,2A1.91,1.91,0,0,0,7.4,16.14Z"/><path class="cls-5" d="M47.79,5.18H36.67a1.55,1.55,0,0,0-1.41.88H49.2A1.58,1.58,0,0,0,47.79,5.18Z"/><path class="cls-6" d="M50,6.06a2.28,2.28,0,0,1,.11.7V8.69a.36.36,0,0,1-.36.35h-15a.35.35,0,0,1-.35-.35V6.76a2.28,2.28,0,0,1,.11-.7H28.16V41.47H56.29V6.06Z"/><path class="cls-1" d="M27.61,20.11V5.93A.36.36,0,0,1,28,5.58h6.92a.35.35,0,0,1,.3.17.37.37,0,0,1,0,.34,1.49,1.49,0,0,0-.15.66V8.33H49.34V6.75a1.49,1.49,0,0,0-.15-.66.37.37,0,0,1,0-.34.35.35,0,0,1,.3-.17h7a.35.35,0,0,1,.35.35v35.6a.35.35,0,0,1-.35.35H28a.35.35,0,0,1-.36-.35v-13m.71.16V41.18H56.13V6.29H50a2.4,2.4,0,0,1,0,.46V8.69a.36.36,0,0,1-.36.35h-15a.36.36,0,0,1-.36-.35V6.75a2.4,2.4,0,0,1,0-.46H28.32V19.93"/><path class="cls-1" d="M47.79,4.45H36.67a2.29,2.29,0,0,0-2.29,2.31v2a.35.35,0,0,0,.35.35h15a.36.36,0,0,0,.36-.35v-2A2.3,2.3,0,0,0,47.79,4.45Z"/><path class="cls-7" d="M45.63,2.86H44a.35.35,0,0,0-.31.18,1.62,1.62,0,0,1-2.82,0,.35.35,0,0,0-.31-.18H38.83a.36.36,0,0,0-.36.35V6a.36.36,0,0,0,.36.35h6.8A.35.35,0,0,0,46,6V3.21A.35.35,0,0,0,45.63,2.86Z"/><path class="cls-8" d="M44.54,2.31A2.32,2.32,0,1,1,42.23,0,2.31,2.31,0,0,1,44.54,2.31Z"/><path class="cls-9" d="M43.93,2.32a1.65,1.65,0,0,1-3.3,0,1.65,1.65,0,0,1,3.3,0Z"/><path class="cls-1" d="M47.77,24c0-.27-.15-.49-.33-.49H32.07c-.18,0-.33.22-.33.49h0c0,.27.15.49.33.49H47.44c.18,0,.33-.22.33-.49Z"/><path class="cls-1" d="M47.77,26.56c0-.27-.15-.49-.33-.49H32.07c-.18,0-.33.22-.33.49h0c0,.27.15.49.33.49H47.44c.18,0,.33-.22.33-.49Z"/><path class="cls-1" d="M47.77,29.05c0-.28-.15-.49-.33-.49H32.07c-.18,0-.33.21-.33.49h0c0,.27.15.49.33.49H47.44c.18,0,.33-.22.33-.49Z"/><path class="cls-1" d="M53.16,24a.49.49,0,0,1-.49.49H49.49A.48.48,0,0,1,49,24h0a.48.48,0,0,1,.48-.49h3.18a.49.49,0,0,1,.49.49Z"/><path class="cls-1" d="M53.14,26.58a.48.48,0,0,1-.49.48H49.47a.47.47,0,0,1-.48-.48h0a.48.48,0,0,1,.48-.49h3.18a.49.49,0,0,1,.49.49Z"/><path class="cls-1" d="M53.14,29.1a.49.49,0,0,1-.49.49H49.47A.48.48,0,0,1,49,29.1h0a.48.48,0,0,1,.48-.48h3.18a.49.49,0,0,1,.49.48Z"/><path class="cls-1" d="M47.77,16.62c0-.27-.15-.49-.33-.49H32.07c-.18,0-.33.22-.33.49h0c0,.27.15.49.33.49H47.44c.18,0,.33-.22.33-.49Z"/><path class="cls-1" d="M47.77,19.19c0-.28-.15-.49-.33-.49H32.07c-.18,0-.33.21-.33.49h0c0,.27.15.49.33.49H47.44c.18,0,.33-.22.33-.49Z"/><path class="cls-1" d="M47.77,21.68c0-.28-.15-.5-.33-.5H32.07c-.18,0-.33.22-.33.5h0c0,.27.15.48.33.48H47.44c.18,0,.33-.21.33-.48Z"/><path class="cls-1" d="M53.16,16.64a.48.48,0,0,1-.49.48H49.49a.47.47,0,0,1-.48-.48h0a.48.48,0,0,1,.48-.49h3.18a.49.49,0,0,1,.49.49Z"/><path class="cls-1" d="M53.14,19.21a.49.49,0,0,1-.49.48H49.47a.48.48,0,0,1-.48-.48h0a.48.48,0,0,1,.48-.49h3.18a.49.49,0,0,1,.49.49Z"/><path class="cls-1" d="M53.14,21.73a.49.49,0,0,1-.49.49H49.47a.48.48,0,0,1-.48-.49h0a.48.48,0,0,1,.48-.48h3.18a.49.49,0,0,1,.49.48Z"/><path class="cls-1" d="M25.56,26.28a.18.18,0,0,1-.07.15l-3.66,2.71a.17.17,0,0,1-.18,0,.18.18,0,0,1-.1-.16V27.65H18.07a.18.18,0,0,1-.18-.18V25.1a.18.18,0,0,1,.18-.18h3.48V23.57a.18.18,0,0,1,.1-.16.15.15,0,0,1,.18,0l3.66,2.71A.16.16,0,0,1,25.56,26.28Z"/><path class="cls-10" d="M17.29,12.55l.05,2.09,1.22,2,2.25.43,2-1.35L24,12.55a.24.24,0,0,1,.2-.16.25.25,0,0,1,.22.12l.72,1.34a.24.24,0,0,1,0,.14l-.39,2.9a.23.23,0,0,1-.1.15L21.28,19.3a.22.22,0,0,1-.18,0l-2.3-.45L10.45,32.46l-.12.19A2.33,2.33,0,0,1,6.49,30l.13-.18,9.71-12.64-1.24-2a.25.25,0,0,1,0-.17"/><path class="cls-9" d="M7.36,30.61a1.27,1.27,0,1,1,.33,1.76A1.27,1.27,0,0,1,7.36,30.61Zm.38.26a.81.81,0,0,0,1.33.92.81.81,0,1,0-1.33-.92Z"/><path class="cls-10" d="M2,28.1a1.77,1.77,0,0,1-.81-1l-1,.12L0,26.67l.94-.41A2.78,2.78,0,0,1,1.11,25l-.8-.64.26-.46,1,.38A2,2,0,0,1,1.77,24L2,23.84l.11-.08.17-.11.11,0c.05,0,3.64,1.29,3.7,1.27"/><path class="cls-10" d="M6,24.89l1.05-.12.14.51-.94.4a1.34,1.34,0,0,1,0,.2V26a1.09,1.09,0,0,1,0,.18,2.53,2.53,0,0,1-.17.77l.8.64L6.64,28l-1-.37a2.57,2.57,0,0,1-1,.76l.12,1-.51.14-.4-.94a3.52,3.52,0,0,1-2-.58"/><path class="cls-11" d="M3.22,24.73a1.35,1.35,0,1,0,1.64,1A1.35,1.35,0,0,0,3.22,24.73Z"/><path class="cls-10" d="M10.3,20.47a5.31,5.31,0,0,1-2.58,1.4l-.29,1.44-.75,0-.14-1.46A3.68,3.68,0,0,1,4.91,21l-1.22.81-.5-.56.93-1.13a3.87,3.87,0,0,1-.61-1.7l-.6-.29,0-.75.63-.14a3.86,3.86,0,0,1,.78-1.63l-.81-1.22.56-.5,1.12.93a2.85,2.85,0,0,1,.45-.25,3.29,3.29,0,0,1,.39-.17l.17,0,.29-.08.16,0,.24,0,.3-.39.74,0,.15.42a3.77,3.77,0,0,1,1.62.78L11,14.28l.5.55L10.53,16a3.69,3.69,0,0,1,.6,1.69l1.44.29,0,.75-1.45.14a2.29,2.29,0,0,1-.08.28.83.83,0,0,1,0,.15,2.34,2.34,0,0,1-.09.24,3.58,3.58,0,0,1-.57,1"/><path class="cls-12" d="M7.4,16.14a1.92,1.92,0,1,0,1.81,2A1.91,1.91,0,0,0,7.4,16.14Z"/><path class="cls-5" d="M47.79,5.18H36.67a1.55,1.55,0,0,0-1.41.88H49.2A1.58,1.58,0,0,0,47.79,5.18Z"/><path class="cls-13" d="M50,6.06a2.28,2.28,0,0,1,.11.7V8.69a.36.36,0,0,1-.36.35h-15a.35.35,0,0,1-.35-.35V6.76a2.28,2.28,0,0,1,.11-.7H28.16V41.47H56.29V6.06Z"/><path class="cls-10" d="M27.61,20.11V5.93A.36.36,0,0,1,28,5.58h6.92a.35.35,0,0,1,.3.17.37.37,0,0,1,0,.34,1.49,1.49,0,0,0-.15.66V8.33H49.34V6.75a1.49,1.49,0,0,0-.15-.66.37.37,0,0,1,0-.34.35.35,0,0,1,.3-.17h7a.35.35,0,0,1,.35.35v35.6a.35.35,0,0,1-.35.35H28a.35.35,0,0,1-.36-.35v-13m.71.16V41.18H56.13V6.29H50a2.4,2.4,0,0,1,0,.46V8.69a.36.36,0,0,1-.36.35h-15a.36.36,0,0,1-.36-.35V6.75a2.4,2.4,0,0,1,0-.46H28.32V19.93"/><path class="cls-10" d="M47.79,4.45H36.67a2.29,2.29,0,0,0-2.29,2.31v2a.35.35,0,0,0,.35.35h15a.36.36,0,0,0,.36-.35v-2A2.3,2.3,0,0,0,47.79,4.45Z"/><path class="cls-14" d="M45.63,2.86H44a.35.35,0,0,0-.31.18,1.62,1.62,0,0,1-2.82,0,.35.35,0,0,0-.31-.18H38.83a.36.36,0,0,0-.36.35V6a.36.36,0,0,0,.36.35h6.8A.35.35,0,0,0,46,6V3.21A.35.35,0,0,0,45.63,2.86Z"/><path class="cls-14" d="M44.54,2.31A2.32,2.32,0,1,1,42.23,0,2.31,2.31,0,0,1,44.54,2.31Z"/><path class="cls-10" d="M43.93,2.32a1.65,1.65,0,0,1-3.3,0,1.65,1.65,0,0,1,3.3,0Z"/><path class="cls-14" d="M47.77,24c0-.27-.15-.49-.33-.49H32.07c-.18,0-.33.22-.33.49h0c0,.27.15.49.33.49H47.44c.18,0,.33-.22.33-.49Z"/><path class="cls-14" d="M47.77,26.56c0-.27-.15-.49-.33-.49H32.07c-.18,0-.33.22-.33.49h0c0,.27.15.49.33.49H47.44c.18,0,.33-.22.33-.49Z"/><path class="cls-14" d="M47.77,29.05c0-.28-.15-.49-.33-.49H32.07c-.18,0-.33.21-.33.49h0c0,.27.15.49.33.49H47.44c.18,0,.33-.22.33-.49Z"/><path class="cls-14" d="M53.16,24a.49.49,0,0,1-.49.49H49.49A.48.48,0,0,1,49,24h0a.48.48,0,0,1,.48-.49h3.18a.49.49,0,0,1,.49.49Z"/><path class="cls-14" d="M53.14,26.58a.48.48,0,0,1-.49.48H49.47a.47.47,0,0,1-.48-.48h0a.48.48,0,0,1,.48-.49h3.18a.49.49,0,0,1,.49.49Z"/><path class="cls-14" d="M53.14,29.1a.49.49,0,0,1-.49.49H49.47A.48.48,0,0,1,49,29.1h0a.48.48,0,0,1,.48-.48h3.18a.49.49,0,0,1,.49.48Z"/><path class="cls-14" d="M47.77,16.62c0-.27-.15-.49-.33-.49H32.07c-.18,0-.33.22-.33.49h0c0,.27.15.49.33.49H47.44c.18,0,.33-.22.33-.49Z"/><path class="cls-14" d="M47.77,19.19c0-.28-.15-.49-.33-.49H32.07c-.18,0-.33.21-.33.49h0c0,.27.15.49.33.49H47.44c.18,0,.33-.22.33-.49Z"/><path class="cls-14" d="M47.77,21.68c0-.28-.15-.5-.33-.5H32.07c-.18,0-.33.22-.33.5h0c0,.27.15.48.33.48H47.44c.18,0,.33-.21.33-.48Z"/><path class="cls-14" d="M53.16,16.64a.48.48,0,0,1-.49.48H49.49a.47.47,0,0,1-.48-.48h0a.48.48,0,0,1,.48-.49h3.18a.49.49,0,0,1,.49.49Z"/><path class="cls-14" d="M53.14,19.21a.49.49,0,0,1-.49.48H49.47a.48.48,0,0,1-.48-.48h0a.48.48,0,0,1,.48-.49h3.18a.49.49,0,0,1,.49.49Z"/><path class="cls-14" d="M53.14,21.73a.49.49,0,0,1-.49.49H49.47a.48.48,0,0,1-.48-.49h0a.48.48,0,0,1,.48-.48h3.18a.49.49,0,0,1,.49.48Z"/><path class="cls-10" d="M25.56,26.28a.18.18,0,0,1-.07.15l-3.66,2.71a.17.17,0,0,1-.18,0,.18.18,0,0,1-.1-.16V27.65H18.07a.18.18,0,0,1-.18-.18V25.1a.18.18,0,0,1,.18-.18h3.48V23.57a.18.18,0,0,1,.1-.16.15.15,0,0,1,.18,0l3.66,2.71A.16.16,0,0,1,25.56,26.28Z"/></g></g></svg>