<svg width="52" height="52" viewBox="0 0 52 52" fill="none" xmlns="http://www.w3.org/2000/svg">
<g clip-path="url(#clip0)">
<path d="M42.2502 0H9.75021C8.72419 0 7.89307 0.831126 7.89307 1.85714V17.6428H44.1074V1.85714C44.1074 0.831126 43.2763 0 42.2502 0ZM40.3931 13H11.6074V3.71429H40.3931V13Z" fill="black"/>
<path d="M7.89307 50.1427C7.89307 51.1687 8.72419 51.9999 9.75021 51.9999H42.2502C43.2763 51.9999 44.1074 51.1687 44.1074 50.1427V18.5713H7.89307V50.1427ZM35.7502 23.2141C35.7502 22.1881 36.5813 21.357 37.6073 21.357H40.3931C41.4191 21.357 42.2502 22.1881 42.2502 23.2141V24.1426C42.2502 25.1686 41.4191 25.9998 40.3931 25.9998H37.6073C36.5813 25.9998 35.7502 25.1686 35.7502 24.1426V23.2141ZM35.7502 30.6427C35.7502 29.6167 36.5813 28.7855 37.6073 28.7855H40.3931C41.4191 28.7855 42.2502 29.6167 42.2502 30.6427V31.5712C42.2502 32.5972 41.4191 33.4283 40.3931 33.4283H37.6073C36.5813 33.4283 35.7502 32.5972 35.7502 31.5712V30.6427ZM35.7502 38.0712C35.7502 37.0452 36.5813 36.2141 37.6073 36.2141H40.3931C41.4191 36.2141 42.2502 37.0452 42.2502 38.0712V46.4283C42.2502 47.4544 41.4191 48.2855 40.3931 48.2855H37.6073C36.5813 48.2855 35.7502 47.4544 35.7502 46.4283V38.0712ZM27.3931 23.2141C27.3931 22.1881 28.2242 21.357 29.2503 21.357H32.036C33.062 21.357 33.8932 22.1881 33.8932 23.2141V24.1426C33.8932 25.1686 33.062 25.9998 32.036 25.9998H29.2503C28.2242 25.9998 27.3931 25.1686 27.3931 24.1426V23.2141ZM27.3931 30.6427C27.3931 29.6167 28.2242 28.7855 29.2503 28.7855H32.036C33.062 28.7855 33.8932 29.6167 33.8932 30.6427V31.5712C33.8932 32.5972 33.062 33.4283 32.036 33.4283H29.2503C28.2242 33.4283 27.3931 32.5972 27.3931 31.5712V30.6427ZM27.3931 38.0712C27.3931 37.0452 28.2242 36.2141 29.2503 36.2141H32.036C33.062 36.2141 33.8932 37.0452 33.8932 38.0712V38.9998C33.8932 40.0258 33.062 40.8569 32.036 40.8569H29.2503C28.2242 40.8569 27.3931 40.0258 27.3931 38.9998V38.0712ZM27.3931 45.4998C27.3931 44.4738 28.2242 43.6427 29.2503 43.6427H32.036C33.062 43.6427 33.8932 44.4738 33.8932 45.4998V46.4283C33.8932 47.4544 33.062 48.2855 32.036 48.2855H29.2503C28.2242 48.2855 27.3931 47.4544 27.3931 46.4283V45.4998ZM19.0359 23.2141C19.0359 22.1881 19.867 21.357 20.8931 21.357H23.6788C24.7048 21.357 25.536 22.1881 25.536 23.2141V24.1426C25.536 25.1686 24.7048 25.9998 23.6788 25.9998H20.8931C19.867 25.9998 19.0359 25.1686 19.0359 24.1426V23.2141ZM19.0359 30.6427C19.0359 29.6167 19.867 28.7855 20.8931 28.7855H23.6788C24.7048 28.7855 25.536 29.6167 25.536 30.6427V31.5712C25.536 32.5972 24.7048 33.4283 23.6788 33.4283H20.8931C19.867 33.4283 19.0359 32.5972 19.0359 31.5712V30.6427ZM19.0359 38.0712C19.0359 37.0452 19.867 36.2141 20.8931 36.2141H23.6788C24.7048 36.2141 25.536 37.0452 25.536 38.0712V38.9998C25.536 40.0258 24.7048 40.8569 23.6788 40.8569H20.8931C19.867 40.8569 19.0359 40.0258 19.0359 38.9998V38.0712ZM19.0359 45.4998C19.0359 44.4738 19.867 43.6427 20.8931 43.6427H23.6788C24.7048 43.6427 25.536 44.4738 25.536 45.4998V46.4283C25.536 47.4544 24.7048 48.2855 23.6788 48.2855H20.8931C19.867 48.2855 19.0359 47.4544 19.0359 46.4283V45.4998ZM10.6788 23.2141C10.6788 22.1881 11.51 21.357 12.536 21.357H15.3217C16.3477 21.357 17.1789 22.1881 17.1789 23.2141V24.1426C17.1789 25.1686 16.3477 25.9998 15.3217 25.9998H12.536C11.51 25.9998 10.6788 25.1686 10.6788 24.1426V23.2141ZM10.6788 30.6427C10.6788 29.6167 11.51 28.7855 12.536 28.7855H15.3217C16.3477 28.7855 17.1789 29.6167 17.1789 30.6427V31.5712C17.1789 32.5972 16.3477 33.4283 15.3217 33.4283H12.536C11.51 33.4283 10.6788 32.5972 10.6788 31.5712V30.6427ZM10.6788 38.0712C10.6788 37.0452 11.51 36.2141 12.536 36.2141H15.3217C16.3477 36.2141 17.1789 37.0452 17.1789 38.0712V38.9998C17.1789 40.0258 16.3477 40.8569 15.3217 40.8569H12.536C11.51 40.8569 10.6788 40.0258 10.6788 38.9998V38.0712ZM10.6788 45.4998C10.6788 44.4738 11.51 43.6427 12.536 43.6427H15.3217C16.3477 43.6427 17.1789 44.4738 17.1789 45.4998V46.4283C17.1789 47.4544 16.3477 48.2855 15.3217 48.2855H12.536C11.51 48.2855 10.6788 47.4544 10.6788 46.4283V45.4998Z" fill="black"/>
<path d="M38.536 25.0719H39.4646V24.1433H40.3932V23.2147H39.4646V22.2861H38.536V23.2147H37.6074V24.1433H38.536V25.0719Z" fill="black"/>
<path d="M40.3932 40.8574H37.6074V41.7859H40.3932V40.8574Z" fill="black"/>
<path d="M40.3932 30.6426H37.6074V31.5711H40.3932V30.6426Z" fill="black"/>
<path d="M40.3932 42.7139H37.6074V43.6424H40.3932V42.7139Z" fill="black"/>
</g>
<defs>
<clipPath id="clip0">
<rect width="52" height="52" fill="white"/>
</clipPath>
</defs>
</svg>
