<svg xmlns="http://www.w3.org/2000/svg" viewBox="0 0 59.52 47.33"><defs><style>.cls-1,.cls-2,.cls-3{fill:#e32a25;}.cls-2,.cls-3{stroke:#fff;stroke-miterlimit:10;}.cls-2{stroke-width:0.3px;}.cls-3{stroke-width:0.5px;}.cls-4{fill:#fff;}.cls-5{fill:#f5b69d;}</style></defs><title>ss16</title><g id="Layer_2" data-name="Layer 2"><g id="Layer_1-2" data-name="Layer 1"><path class="cls-1" d="M58.59,41.49h-35a4.41,4.41,0,0,1-4.33-3.58c-1-5.46-2.6-11.33-4.12-17-.64-2.39-1.3-4.86-1.9-7.21L10,1H.48A.49.49,0,0,1,0,.48.49.49,0,0,1,.48,0h9.91a.48.48,0,0,1,.47.37l3.31,13.08c.59,2.34,1.23,4.7,1.89,7.2,1.53,5.69,3.1,11.58,4.14,17.08a3.44,3.44,0,0,0,3.38,2.79h35a.49.49,0,0,1,.49.49A.48.48,0,0,1,58.59,41.49Z"/><path class="cls-1" d="M25.56,47.33A3.29,3.29,0,1,1,28.85,44,3.29,3.29,0,0,1,25.56,47.33Zm0-5.61A2.32,2.32,0,1,0,27.88,44,2.32,2.32,0,0,0,25.56,41.72Z"/><path class="cls-1" d="M54.33,47.13a3.29,3.29,0,1,1,3.29-3.29A3.3,3.3,0,0,1,54.33,47.13Zm0-5.61a2.32,2.32,0,1,0,2.32,2.32A2.32,2.32,0,0,0,54.33,41.52Z"/><path class="cls-1" d="M47.59,22.64a2,2,0,0,1-2.77.26l-.14-.13L34.8,13.58,33,14.47a.29.29,0,0,1-.16,0l-3.23-1.09a.17.17,0,0,1-.12-.1l-1-2.28a.14.14,0,0,1,0-.11l.28-1.26A.21.21,0,0,1,29,9.49a.19.19,0,0,1,.2.08l1.63,2.3,1.94.65,1.75-.86L35,9.79l-1-1.8L31.5,6.79a.19.19,0,0,1-.11-.18.18.18,0,0,1,.12-.17l1.18-.51a.29.29,0,0,1,.13,0l2.4.57a.2.2,0,0,1,.13.09l1.63,3a.26.26,0,0,1,0,.15l-.57,1.9,10.78,8.12.15.12A2,2,0,0,1,47.59,22.64Z"/><path class="cls-1" d="M46.91,22.07a1.07,1.07,0,1,1-.13-1.51A1.07,1.07,0,0,1,46.91,22.07ZM45.57,21a.68.68,0,0,0,.08,1,.7.7,0,0,0,1-.08.69.69,0,0,0-.09-1A.68.68,0,0,0,45.57,21Z"/><path class="cls-1" d="M46.19,13.25l-.12,0-.4-.59-.33.15.2.69a1.87,1.87,0,0,0-.59.66l-.71-.13-.12.34.64.34a1.8,1.8,0,0,0,0,.89l-.6.4.16.33.69-.21a.83.83,0,0,0,.08.12s0,0,0,.05l.09.1a2,2,0,0,0,.44.33l-.14.71.35.12.34-.64a1.92,1.92,0,0,0,.89,0l.4.59.33-.15-.21-.69a2,2,0,0,0,.6-.66l.7.13.12-.34-.63-.34a1.93,1.93,0,0,0-.05-.89l.6-.4-.16-.33-.69.21a1.86,1.86,0,0,0-.65-.6l.13-.7-.34-.13-.34.64a1.15,1.15,0,0,0-.26,0,.67.67,0,0,0-.2,0h-.23Z"/><path class="cls-2" d="M46.2,14.24a.94.94,0,0,1,1.26.44A1,1,0,0,1,47,15.94a.94.94,0,1,1-.81-1.7Z"/><path class="cls-1" d="M49.38,8.7a.45.45,0,0,0-.11,0l-.41-.6-.33.16.21.69a1.87,1.87,0,0,0-.59.66l-.71-.14-.12.35.63.33a1.92,1.92,0,0,0,0,.89l-.6.4.16.34.69-.21a.76.76,0,0,0,.08.11l.05.06.08.09a2,2,0,0,0,.45.33l-.14.71.35.12.34-.63a1.88,1.88,0,0,0,.88-.05l.4.6.34-.16-.21-.69a1.87,1.87,0,0,0,.59-.66l.71.14.12-.35-.63-.34a1.93,1.93,0,0,0,0-.89l.6-.4-.16-.33-.69.21a1.87,1.87,0,0,0-.66-.59l.14-.71-.35-.12-.34.63a1,1,0,0,0-.25,0h-.29l-.15,0Z"/><path class="cls-2" d="M49.4,9.68A.95.95,0,1,1,49,10.94,1,1,0,0,1,49.4,9.68Z"/><path class="cls-1" d="M41.17,6.37l-.17,0-.63-.92-.51.24.32,1.07a2.89,2.89,0,0,0-.92,1l-1.1-.21L38,8.16l1,.52A3.08,3.08,0,0,0,39,10.06l-.92.62.25.52,1.06-.33c0,.07.09.12.13.18l.08.09a.86.86,0,0,0,.13.14,2.86,2.86,0,0,0,.68.52l-.21,1.09.54.19.53-1A2.9,2.9,0,0,0,42.66,12l.63.92.51-.24-.32-1.07a2.89,2.89,0,0,0,.92-1l1.1.21.19-.54-1-.53a2.91,2.91,0,0,0-.08-1.37l.93-.62-.25-.52-1.07.32a3,3,0,0,0-1-.92l.21-1.1-.53-.19-.53,1a2.6,2.6,0,0,0-.39,0h-.46l-.22,0Z"/><path class="cls-3" d="M41.2,7.9a1.46,1.46,0,1,1-.69,1.95A1.47,1.47,0,0,1,41.2,7.9Z"/><polyline class="cls-4" points="43.71 14.28 43.71 14.29 43.71 40.03"/><path class="cls-1" d="M57,39a.59.59,0,0,1-.58.61H24a.59.59,0,0,1-.58-.61V15.94a.59.59,0,0,1,.58-.61H56.4a.59.59,0,0,1,.58.61Z"/><path class="cls-5" d="M40.94,15.31l2.64,7a.87.87,0,0,0,.78.44H59.05c.34,0,.54-.2.45-.44l-2.65-7Z"/><path class="cls-5" d="M40.74,15.31l-2.9,7.12a1,1,0,0,1-.85.44H20.89c-.37,0-.59-.2-.49-.44l2.89-7.12Z"/><path class="cls-4" d="M27.65,36.12v.34h-.17l-.22,0a.5.5,0,0,1,.12.37V38h-.44v-.74h-.18c-.41,0-.58.07-.58.24s.09.21.25.21a.82.82,0,0,0,.21,0l.06.29a.86.86,0,0,1-.34.06c-.39,0-.62-.2-.62-.52s.32-.56,1-.56h.21v-.07c0-.23-.13-.33-.4-.33a1.18,1.18,0,0,0-.59.15l-.14-.31a1.74,1.74,0,0,1,.76-.18.9.9,0,0,1,.54.13.63.63,0,0,1,.5-.2Z"/><path class="cls-4" d="M27.92,37.74a.26.26,0,1,1,.26.26A.25.25,0,0,1,27.92,37.74Z"/><path class="cls-4" d="M29.82,35.67V38h-.49V36.17l-.37.25-.21-.3.68-.45Z"/><path class="cls-4" d="M32,37.23a.77.77,0,0,1-.85.79c-.58,0-.89-.39-.89-1.14s.36-1.25,1.08-1.25a1.46,1.46,0,0,1,.55.11l-.13.36a1.14,1.14,0,0,0-.42-.09c-.37,0-.58.23-.6.69a.63.63,0,0,1,.5-.22A.7.7,0,0,1,32,37.23Zm-.46,0a.37.37,0,0,0-.39-.4.41.41,0,0,0-.41.3q0,.51.42.51A.37.37,0,0,0,31.55,37.24Z"/><path class="cls-4" d="M33.26,35.57h.39l-1.11,2.94h-.39Z"/><path class="cls-4" d="M35.68,37.17v.35h-.27V38h-.47v-.46h-1v-.3l1-1.55h.49v1.5Zm-.74,0v-.94l-.61.94Z"/><path class="cls-4" d="M37.64,37.23a.77.77,0,0,1-.85.79c-.58,0-.89-.39-.89-1.14s.37-1.25,1.08-1.25a1.46,1.46,0,0,1,.55.11l-.12.36A1.23,1.23,0,0,0,37,36q-.55,0-.6.69a.63.63,0,0,1,.5-.22A.7.7,0,0,1,37.64,37.23Zm-.45,0a.37.37,0,0,0-.4-.4.39.39,0,0,0-.4.3c0,.34.17.51.41.51A.37.37,0,0,0,37.19,37.24Z"/></g></g></svg>