<svg width="55" height="75" viewBox="0 0 55 75" fill="none" xmlns="http://www.w3.org/2000/svg">
<path fill-rule="evenodd" clip-rule="evenodd" d="M43.5417 22.5H33.9625C33 19.6 30.4792 17.5 27.5 17.5C24.5208 17.5 22 19.6 21.0375 22.5H11.4583C8.9375 22.5 6.875 24.75 6.875 27.5V67.5C6.875 70.25 8.9375 72.5 11.4583 72.5H43.5417C46.0625 72.5 48.125 70.25 48.125 67.5V27.5C48.125 24.75 46.0625 22.5 43.5417 22.5ZM27.5 22.5C28.7604 22.5 29.7916 23.625 29.7916 25C29.7916 26.375 28.7604 27.5 27.5 27.5C26.2395 27.5 25.2083 26.375 25.2083 25C25.2083 23.625 26.2395 22.5 27.5 22.5ZM11.4583 27.5V67.5H43.5416V27.5H38.9583V35H16.0416V27.5H11.4583Z" fill="#828282"/>
<path d="M3.85113 11.16C2.95513 11.16 2.22979 10.9413 1.67513 10.504C1.12046 10.0667 0.843125 9.37867 0.843125 8.44C0.843125 7.576 1.13646 6.91467 1.72313 6.456C2.30979 5.98667 3.15246 5.752 4.25113 5.752H6.69913V5.336C6.69913 4.80267 6.54979 4.42933 6.25113 4.216C5.95246 3.992 5.42446 3.88 4.66713 3.88C3.66446 3.88 2.70979 4.024 1.80313 4.312V2.696C2.26179 2.54667 2.77913 2.42933 3.35513 2.344C3.93113 2.248 4.48579 2.2 5.01913 2.2C5.61646 2.2 6.12846 2.25333 6.55513 2.36H9.56313L9.45113 4.008H8.47513C8.73113 4.40267 8.85913 4.92 8.85913 5.56V11H6.69913V7.336H4.37913C3.88846 7.336 3.51513 7.42133 3.25913 7.592C3.01379 7.76267 2.89113 8.04533 2.89113 8.44C2.89113 8.83467 3.00313 9.10667 3.22713 9.256C3.46179 9.40533 3.86179 9.48 4.42712 9.48C4.91779 9.48 5.28579 9.43733 5.53113 9.352V10.936C5.05113 11.0853 4.49113 11.16 3.85113 11.16ZM10.7483 9.384H12.5082V11H10.7483V9.384ZM15.3658 2.648L13.6858 2.92V1.112L17.5258 0.535999V11H15.3658V2.648ZM23.0775 11.16C21.7228 11.16 20.7095 10.8293 20.0375 10.168C19.3655 9.496 19.0295 8.47733 19.0295 7.112V4.904C19.0295 4.05067 19.2108 3.29333 19.5735 2.632C19.9468 1.97067 20.4748 1.45867 21.1575 1.096C21.8508 0.722666 22.6562 0.535999 23.5735 0.535999C24.0962 0.535999 24.5548 0.568 24.9495 0.632C25.3442 0.696 25.7282 0.791999 26.1015 0.919999V2.776C25.4295 2.50933 24.6348 2.376 23.7175 2.376C22.8535 2.376 22.1922 2.56267 21.7335 2.936C21.2855 3.30933 21.0615 3.82133 21.0615 4.472V4.968C21.3922 4.73333 21.7815 4.552 22.2295 4.424C22.6882 4.296 23.1202 4.232 23.5255 4.232C24.7308 4.232 25.6268 4.52533 26.2135 5.112C26.8002 5.69867 27.0935 6.54667 27.0935 7.656C27.0935 8.73333 26.7575 9.58667 26.0855 10.216C25.4242 10.8453 24.4215 11.16 23.0775 11.16ZM23.0935 9.56C23.7655 9.56 24.2775 9.4 24.6295 9.08C24.9815 8.74933 25.1575 8.30133 25.1575 7.736C25.1575 7.11733 25.0028 6.65333 24.6935 6.344C24.3842 6.03467 23.8615 5.88 23.1255 5.88C22.7842 5.88 22.4322 5.944 22.0695 6.072C21.7068 6.2 21.3708 6.36533 21.0615 6.568V7.544C21.0615 8.888 21.7388 9.56 23.0935 9.56ZM32.0235 0.407999H34.2315L30.4875 11H28.2795L32.0235 0.407999ZM40.0921 8.84H35.1001V7.368L40.3641 0.695999H42.2521V7.096H43.2601V8.84H42.2521V11H40.0921V8.84ZM40.4601 7.176V3.08L37.1641 7.176H40.4601ZM48.1869 11.16C46.8322 11.16 45.8189 10.8293 45.1469 10.168C44.4749 9.496 44.1389 8.47733 44.1389 7.112V4.904C44.1389 4.05067 44.3202 3.29333 44.6829 2.632C45.0562 1.97067 45.5842 1.45867 46.2669 1.096C46.9602 0.722666 47.7655 0.535999 48.6829 0.535999C49.2055 0.535999 49.6642 0.568 50.0589 0.632C50.4535 0.696 50.8375 0.791999 51.2109 0.919999V2.776C50.5389 2.50933 49.7442 2.376 48.8269 2.376C47.9629 2.376 47.3015 2.56267 46.8429 2.936C46.3949 3.30933 46.1709 3.82133 46.1709 4.472V4.968C46.5015 4.73333 46.8909 4.552 47.3389 4.424C47.7975 4.296 48.2295 4.232 48.6349 4.232C49.8402 4.232 50.7362 4.52533 51.3229 5.112C51.9095 5.69867 52.2029 6.54667 52.2029 7.656C52.2029 8.73333 51.8669 9.58667 51.1949 10.216C50.5335 10.8453 49.5309 11.16 48.1869 11.16ZM48.2029 9.56C48.8749 9.56 49.3869 9.4 49.7389 9.08C50.0909 8.74933 50.2669 8.30133 50.2669 7.736C50.2669 7.11733 50.1122 6.65333 49.8029 6.344C49.4935 6.03467 48.9709 5.88 48.2349 5.88C47.8935 5.88 47.5415 5.944 47.1789 6.072C46.8162 6.2 46.4802 6.36533 46.1709 6.568V7.544C46.1709 8.888 46.8482 9.56 48.2029 9.56Z" fill="#8F8F8F"/>
</svg>
