<svg xmlns="http://www.w3.org/2000/svg" viewBox="0 0 44.57 45.31"><defs><style>.cls-1{fill:#f09779;}.cls-2{fill:#fbe2d6;}.cls-3,.cls-4,.cls-5{fill:#e32a25;}.cls-4,.cls-5{stroke:#fff;stroke-linecap:round;stroke-linejoin:round;}.cls-4{stroke-width:0.3px;}.cls-5{stroke-width:0.5px;}</style></defs><title>two-one-new</title><g id="Layer_2" data-name="Layer 2"><g id="Layer_1-2" data-name="Layer 1"><path class="cls-1" d="M44.08,15.63h-27l-.55-2.34a.35.35,0,0,0-.35-.28H10.4a.37.37,0,0,0-.37.36V17.9a.5.5,0,0,0,0,.12v7.46a.37.37,0,0,0,.37.36H34L44.12,44.41l.33.53V16A.36.36,0,0,0,44.08,15.63Z"/><polygon class="cls-2" points="15.63 20.03 16.64 42.37 42.82 43.58 42.82 20.02 15.63 20.03"/><path class="cls-3" d="M42.67,11.43a1.93,1.93,0,0,1-2.08,1.75l-.19,0L27.33,11.27,26.4,13a.18.18,0,0,1-.12.09L23.07,14a.25.25,0,0,1-.15,0l-2.05-1.29a.24.24,0,0,1-.08-.09l-.47-1.17a.2.2,0,0,1,0-.2.2.2,0,0,1,.21,0l2.59.94,1.93-.56L26,9.9l-.6-1.81-1.78-.9-2.73.46a.19.19,0,0,1-.19-.08.2.2,0,0,1,0-.21l.67-1.06a.17.17,0,0,1,.09-.08l2.25-.89a.18.18,0,0,1,.16,0l3,1.5A.18.18,0,0,1,27,7l.61,1.84,13.19.53h.19A1.93,1.93,0,0,1,42.67,11.43Z"/><path class="cls-3" d="M41.81,11.34a1,1,0,1,1-2.09-.19,1,1,0,0,1,2.09.19Zm-1.71-.15a.66.66,0,0,0,.6.73.67.67,0,1,0-.6-.73Z"/><path class="cls-3" d="M36.3,4.66l-.07.09-.66-.26-.18.31.56.44a1.84,1.84,0,0,0-.12.86l-.64.29.09.34.7-.08a1.88,1.88,0,0,0,.53.69L36.26,8l.31.17L37,7.62l.13,0,.07,0,.12,0a1.63,1.63,0,0,0,.54,0l.28.65.35-.1-.08-.7a1.76,1.76,0,0,0,.69-.53l.65.26L39.94,7l-.55-.43a1.83,1.83,0,0,0,.11-.86l.65-.29-.1-.34-.7.08a1.78,1.78,0,0,0-.53-.69l.26-.66-.32-.18-.44.55a1.93,1.93,0,0,0-.86-.11l-.28-.64-.35.09.08.7-.22.12-.16.11-.07.06-.1.1Z"/><path class="cls-4" d="M36.86,5.44a.93.93,0,1,1,.35,1.26A.93.93,0,0,1,36.86,5.44Z"/><path class="cls-3" d="M28.44,1.92a.81.81,0,0,0-.12.14l-1-.4L27,2.15l.86.68a2.65,2.65,0,0,0-.17,1.33l-1,.44.14.54L27.94,5a2.89,2.89,0,0,0,.82,1.06l-.39,1,.48.28.68-.86.2.07.11,0,.19,0a2.64,2.64,0,0,0,.84,0l.44,1,.54-.14-.13-1.09a2.85,2.85,0,0,0,1.07-.82l1,.39.27-.48-.85-.68a2.94,2.94,0,0,0,.17-1.34l1-.44-.15-.54-1.08.13a2.87,2.87,0,0,0-.83-1.07l.4-1L32.25.31l-.68.86A2.9,2.9,0,0,0,30.24,1L29.8,0l-.54.15.13,1.08a3.84,3.84,0,0,0-.35.18l-.25.18-.1.09a.8.8,0,0,0-.17.15Z"/><path class="cls-5" d="M29.31,3.13a1.44,1.44,0,1,1,.53,2A1.44,1.44,0,0,1,29.31,3.13Z"/><path class="cls-3" d="M44.53,44.77,34.35,26a.38.38,0,0,0-.32-.19H.37A.38.38,0,0,0,.05,26a.38.38,0,0,0,0,.36L10.22,45.11a.38.38,0,0,0,.32.2H44.21a.38.38,0,0,0,.31-.18A.36.36,0,0,0,44.53,44.77Z"/><path class="cls-1" d="M4.66,17.35l4.08,5.49a.26.26,0,0,1,0,.28.28.28,0,0,1-.24.15h-2v5.21a.28.28,0,0,1-.27.28H2.66a.28.28,0,0,1-.27-.28V23.27h-2a.26.26,0,0,1-.24-.15.26.26,0,0,1,0-.28l4.08-5.49a.26.26,0,0,1,.21-.11A.27.27,0,0,1,4.66,17.35Z"/></g></g></svg>