<svg xmlns="http://www.w3.org/2000/svg" viewBox="0 0 53.89 50"><defs><style>.cls-1,.cls-5{fill:#ed8566;}.cls-2,.cls-3,.cls-4{fill:#e32a25;}.cls-2,.cls-4{stroke:#fff;}.cls-2,.cls-5,.cls-6,.cls-7{stroke-miterlimit:10;}.cls-2,.cls-4,.cls-5,.cls-6,.cls-7{stroke-width:0.5px;}.cls-4{stroke-linecap:round;stroke-linejoin:round;}.cls-5,.cls-6,.cls-7{stroke:#e85e40;}.cls-6{fill:#f9d2c1;}.cls-7{fill:#fff;}</style></defs><title>two-three-new</title><g id="Layer_2" data-name="Layer 2"><g id="Layer_1-2" data-name="Layer 1"><path class="cls-1" d="M26.21,14.39s0-.15,0-.42a9.09,9.09,0,0,1,.1-1.19,16.37,16.37,0,0,1,1.06-4.12,14.24,14.24,0,0,1,1.28-2.61,12.84,12.84,0,0,1,2.07-2.69A10.82,10.82,0,0,1,33.87,1a10.25,10.25,0,0,1,4.2-1,10.83,10.83,0,0,1,4.16.84,9.4,9.4,0,0,1,.92.39l.82.5a14.22,14.22,0,0,1,1.5,1,10.83,10.83,0,0,1,1.28,1.14,12.91,12.91,0,0,1,1.07,1.19,14,14,0,0,1,.93,1.17l.75,1.15a17.12,17.12,0,0,1,1.14,2.09,13.26,13.26,0,0,1,.71,1.69,10.9,10.9,0,0,1,.37,1.12l.12.4,0,0a.15.15,0,0,1-.1.18.14.14,0,0,1-.16,0l-.92-1.2c-.29-.38-.63-.85-1.07-1.35s-.9-1.1-1.47-1.68A25.35,25.35,0,0,0,46.27,6.8a12.39,12.39,0,0,0-1.09-.93A10.65,10.65,0,0,0,44,5a12.38,12.38,0,0,0-2.75-1.43A8,8,0,0,0,38.12,3a8.7,8.7,0,0,0-5.64,2.36A18.5,18.5,0,0,0,29,9.63a32.2,32.2,0,0,0-1.87,3.48c-.4.87-.58,1.38-.58,1.38a.14.14,0,0,1-.19.09.15.15,0,0,1-.1-.14Z"/><polygon class="cls-1" points="43.84 12.27 44.16 10.8 51.39 12.34 52.4 5.02 53.89 5.22 52.66 14.15 43.84 12.27"/><path class="cls-2" d="M35,11.49l.07,2.69,1.55,2.5,2.9.56,2.57-1.73,1.45-4a.29.29,0,0,1,.26-.19.3.3,0,0,1,.28.15L45,13.16a.39.39,0,0,1,0,.18l-.51,3.71a.32.32,0,0,1-.13.21L40.1,20.14a.25.25,0,0,1-.22.05l-3-.58L26.22,37l-.16.26a3,3,0,0,1-4.93-3.4,1.88,1.88,0,0,1,.18-.24L33.76,17.43l-1.59-2.55a.37.37,0,0,1,0-.23L35,11.46"/><path class="cls-2" d="M22.26,34.65a1.63,1.63,0,1,1,.41,2.26A1.62,1.62,0,0,1,22.26,34.65Zm.48.34a1,1,0,1,0,1.44-.27A1,1,0,0,0,22.74,35Z"/><path class="cls-3" d="M16,21.66h.22l.41-1.25.67.12,0,1.32a3.26,3.26,0,0,1,1.37.87l1.18-.59.39.55-1,.91a3.42,3.42,0,0,1,.36,1.58l1.24.42-.11.67-1.32,0a1.17,1.17,0,0,1-.09.24.52.52,0,0,1-.06.13,1.24,1.24,0,0,1-.1.2,3.5,3.5,0,0,1-.62.8l.59,1.18-.55.39-.91-1a3.43,3.43,0,0,1-1.59.35l-.41,1.25L15,29.67l0-1.31a3.32,3.32,0,0,1-1.37-.87l-1.18.58-.39-.55,1-.9A3.47,3.47,0,0,1,12.69,25l-1.24-.42.11-.66,1.32,0a3.46,3.46,0,0,1,.87-1.37l-.58-1.17.55-.39.9.95a3.2,3.2,0,0,1,.43-.17,2.42,2.42,0,0,1,.36-.1l.16,0,.27,0Z"/><path class="cls-4" d="M16.44,23.4a1.73,1.73,0,1,0,1.4,2A1.72,1.72,0,0,0,16.44,23.4Z"/><path class="cls-4" d="M24.85,15.75l.31-.05.38-.51.95.05.19.54a4.77,4.77,0,0,1,2.09,1l1.56-1,.65.7L29.79,17.9a5,5,0,0,1,.78,2.17l1.83.37,0,1-1.86.18c0,.12,0,.24-.09.36l-.06.18a2.24,2.24,0,0,1-.11.31,4.58,4.58,0,0,1-.74,1.24l1,1.57-.71.64L28.37,24.7a4.88,4.88,0,0,1-2.18.77l-.37,1.84-1,0-.19-1.87a5,5,0,0,1-2.09-1l-1.56,1-.64-.71,1.18-1.45a5,5,0,0,1-.77-2.18L19,20.73l.05-1,1.86-.18a4.86,4.86,0,0,1,1-2.08l-1-1.57.71-.64L23,16.48a4.79,4.79,0,0,1,.58-.33,4.19,4.19,0,0,1,.49-.2l.22-.07.37-.1Z"/><path class="cls-4" d="M25.8,18.13a2.46,2.46,0,1,0,2.33,2.58A2.46,2.46,0,0,0,25.8,18.13Z"/><polyline class="cls-5" points="5.26 29.76 5.26 39.88 26 49.72 46.26 39.88 46.26 29.66"/><polygon class="cls-6" points="5.26 21.19 22.7 27.86 25.76 29.04 23.25 33.22 19.63 39.26 5.26 33.45 0.34 31.45 5.26 21.19"/><polygon class="cls-6" points="46.26 21.19 29.27 27.6 25.76 28.93 25.81 29.01 28.17 33.2 31.59 39.26 46.26 33.37 51.01 31.45 46.26 21.19"/><line class="cls-7" x1="5.21" y1="21.15" x2="20.24" y2="18.07"/><line class="cls-7" x1="42" y1="20.04" x2="46.28" y2="21.14"/><polyline class="cls-7" points="25.76 29.33 25.81 33.2 26 49.72"/></g></g></svg>