<svg xmlns="http://www.w3.org/2000/svg" viewBox="0 0 38.87 34.87"><defs><style>.cls-1{fill:none;stroke:#eb7353;stroke-miterlimit:10;}.cls-2{fill:#ed8566;}.cls-3{fill:#e32a25;}.cls-4{fill:#fff;}</style></defs><title>Asset 6</title><g id="Layer_2" data-name="Layer 2"><g id="Layer_1-2" data-name="Layer 1"><path class="cls-1" d="M36.49,27.19s4,1.58.3,6"/><path class="cls-1" d="M35.84,28.25s2.49,1.06.37,3.55"/><path class="cls-1" d="M.92,6.76S-1.48,13,5.24,13.7"/><path class="cls-1" d="M2,7.92S.23,10.43,4.6,12.43"/><path class="cls-2" d="M13.92,9a3.25,3.25,0,1,1,.76-4.53A3.25,3.25,0,0,1,13.92,9ZM10.83,4.7a2.08,2.08,0,1,0,2.89.49A2.08,2.08,0,0,0,10.83,4.7Z"/><path class="cls-3" d="M32,34.24a3.38,3.38,0,0,1-4.72-.78c-.06-.08-.12-.18-.18-.28L14.66,13.63l-3.33.7a.34.34,0,0,1-.26-.05l-4.9-3.2A.33.33,0,0,1,6,10.85l-.64-4.2a.34.34,0,0,1,0-.2l1-2a.35.35,0,0,1,.31-.18.34.34,0,0,1,.3.22L8.76,9.06,11.7,11,15,10.3,16.7,7.43,15.85,4,12.12.91A.33.33,0,0,1,12,.56a.33.33,0,0,1,.27-.24L14.48,0a.34.34,0,0,1,.2,0l3.76,2a.31.31,0,0,1,.16.21L20,7.92a.31.31,0,0,1,0,.25l-1.76,2.92L32.61,29.27l.21.26A3.4,3.4,0,0,1,32,34.24Z"/><path class="cls-4" d="M31.12,33a1.85,1.85,0,1,1,.43-2.57A1.85,1.85,0,0,1,31.12,33Zm-1.75-2.46a1.18,1.18,0,0,0,1.36,1.92,1.18,1.18,0,1,0-1.36-1.92Z"/></g></g></svg>