<svg width="55" height="55" viewBox="0 0 55 55" fill="none" xmlns="http://www.w3.org/2000/svg">
<path fill-rule="evenodd" clip-rule="evenodd" d="M31.1115 22.7092L51.9198 43.5176C52.8365 44.4342 52.8365 45.878 51.9198 46.7488L46.649 52.0197C45.7552 52.9134 44.3115 52.9134 43.4177 52.0197L22.5406 31.1426C17.224 33.1363 11.0136 32.0134 6.75106 27.7509C1.48023 22.503 0.998978 14.2759 5.26148 8.45507L14.0386 17.2321L17.2927 14.0009L8.49273 5.17798C14.3365 0.915482 22.5406 1.39673 27.8115 6.66757C32.1427 11.0217 33.2427 17.3467 31.1115 22.7092ZM23.3655 25.5051L45.0447 47.1842L47.0614 45.1446L25.4051 23.4884C26.4593 22.1363 27.1468 20.6238 27.4218 18.9967C27.9947 15.8113 27.0551 12.3967 24.5801 9.92172C22.403 7.76756 19.5385 6.75922 16.6968 6.91964L23.778 14.0009L14.0614 23.7176L6.98012 16.6363C6.8197 19.478 7.82804 22.3655 10.0051 24.5196C12.3885 26.903 15.6655 27.8426 18.7822 27.3842C20.4093 27.1551 21.9676 26.5363 23.3655 25.5051Z" fill="black" fill-opacity="0.54"/>
</svg>
