<svg width="65" height="65" viewBox="0 0 65 65" fill="none" xmlns="http://www.w3.org/2000/svg">
<path fill-rule="evenodd" clip-rule="evenodd" d="M54.1668 21.6663H46.0418V10.833H8.12516C5.146 10.833 2.7085 13.2705 2.7085 16.2497V46.0413H8.12516C8.12516 50.5372 11.7543 54.1663 16.2502 54.1663C20.746 54.1663 24.3752 50.5372 24.3752 46.0413H40.6252C40.6252 50.5372 44.2543 54.1663 48.7502 54.1663C53.246 54.1663 56.8752 50.5372 56.8752 46.0413H62.2918V32.4997L54.1668 21.6663ZM52.8126 25.7288L58.121 32.4997H46.0418V25.7288H52.8126ZM13.5418 46.0413C13.5418 47.5309 14.7606 48.7497 16.2502 48.7497C17.7397 48.7497 18.9585 47.5309 18.9585 46.0413C18.9585 44.5518 17.7397 43.333 16.2502 43.333C14.7606 43.333 13.5418 44.5518 13.5418 46.0413ZM22.2627 40.6247C20.7731 38.9726 18.6606 37.9163 16.2502 37.9163C13.8398 37.9163 11.7273 38.9726 10.2377 40.6247H8.12517V16.2497H40.6252V40.6247H22.2627ZM46.0418 46.0413C46.0418 47.5309 47.2606 48.7497 48.7502 48.7497C50.2397 48.7497 51.4585 47.5309 51.4585 46.0413C51.4585 44.5518 50.2397 43.333 48.7502 43.333C47.2606 43.333 46.0418 44.5518 46.0418 46.0413Z" fill="#828282"/>
</svg>
