<svg width="55" height="59" viewBox="0 0 55 59" fill="none" xmlns="http://www.w3.org/2000/svg">
<path fill-rule="evenodd" clip-rule="evenodd" d="M43.5415 31.958V22.1247H34.3749C31.8436 22.1247 29.7915 19.9234 29.7915 17.208V7.37467H11.4582V31.958H6.87486V7.37467C6.87486 4.65927 8.92689 2.45801 11.4582 2.45801H35.3241L48.1249 16.1897V31.958H43.5415ZM34.3749 8.39295V17.208H42.5923L34.3749 8.39295ZM52.7082 34.4163H2.2915V39.333H52.7082V34.4163ZM11.4581 56.5413V41.7913H16.0415V56.5413H11.4581ZM29.7915 41.7913V56.5413H34.3748V41.7913H29.7915ZM20.6249 51.6247V41.7913H25.2082V51.6247H20.6249ZM38.9581 41.7913V51.6247H43.5415V41.7913H38.9581Z" fill="#828282"/>
</svg>
