<svg xmlns="http://www.w3.org/2000/svg" viewBox="0 0 70.44 82.02"><defs><style>.cls-1{fill:none;}.cls-2{fill:#e6e6e6;}.cls-3{fill:#58595b;}.cls-4{fill:#808285;}.cls-5{fill:#939598;}.cls-6{fill:#fff;}.cls-13,.cls-7{fill:#c9ebfc;}.cls-11,.cls-12,.cls-8{fill:#00b0f0;}.cls-10,.cls-9{fill:#aee2fa;}.cls-10{stroke:#aee2fa;}.cls-10,.cls-11,.cls-12{stroke-miterlimit:10;}.cls-11,.cls-12,.cls-13{stroke:#00b0f0;}.cls-12{stroke-width:0.3px;}.cls-13{stroke-linecap:round;stroke-linejoin:round;}</style></defs><title>five-one-new</title><g id="Layer_2" data-name="Layer 2"><g id="Layer_1_copy_3" data-name="Layer 1 copy 3"><g id="_10" data-name="10"><path class="cls-1" d="M32.61,8.87h-18a2.55,2.55,0,0,0-2.28,1.42H34.88A2.52,2.52,0,0,0,32.61,8.87Z"/><path class="cls-2" d="M36.13,10.29a3.86,3.86,0,0,1,.17,1.13v3.12a.57.57,0,0,1-.57.57H11.51a.57.57,0,0,1-.58-.57V11.42a3.87,3.87,0,0,1,.18-1.13H.89V67.52H46.35V10.29Z"/><path class="cls-3" d="M0,33V10.09a.57.57,0,0,1,.57-.57H11.76a.59.59,0,0,1,.48.26.62.62,0,0,1,0,.56A2.58,2.58,0,0,0,12,11.41V14H35.11V11.41a2.46,2.46,0,0,0-.24-1.07.59.59,0,0,1,0-.56.56.56,0,0,1,.48-.26H46.66a.57.57,0,0,1,.58.57V67.62a.57.57,0,0,1-.58.57H.57A.57.57,0,0,1,0,67.62V46.7M1.14,47v20.1h45V10.66H36.18a3.82,3.82,0,0,1,.08.75v3.13a.58.58,0,0,1-.57.57H11.46a.57.57,0,0,1-.57-.57V11.41a3.81,3.81,0,0,1,.07-.75H1.14V32.72"/><path class="cls-3" d="M32.61,7.69h-18a3.72,3.72,0,0,0-3.7,3.73v3.15a.58.58,0,0,0,.58.58H35.73a.58.58,0,0,0,.57-.58V11.42A3.72,3.72,0,0,0,32.61,7.69Z"/><path class="cls-4" d="M29.12,5.12H26.39a.56.56,0,0,0-.49.29,2.62,2.62,0,0,1-4.56,0,.57.57,0,0,0-.5-.29H18.12a.58.58,0,0,0-.57.57v4.53a.57.57,0,0,0,.57.57h11a.57.57,0,0,0,.57-.57V5.69A.58.58,0,0,0,29.12,5.12Z"/><path class="cls-5" d="M27.36,4.23A3.75,3.75,0,1,1,23.62.5,3.73,3.73,0,0,1,27.36,4.23Z"/><path class="cls-6" d="M26.37,4.26a2.67,2.67,0,0,1-5.34,0,2.67,2.67,0,0,1,5.34,0Z"/><path class="cls-3" d="M32.58,39.27c0-.43-.24-.79-.53-.79H7.2c-.3,0-.53.36-.53.79h0c0,.44.23.8.53.8H32.05c.29,0,.53-.36.53-.8Z"/><path class="cls-3" d="M32.58,43.42c0-.44-.24-.79-.53-.79H7.2c-.3,0-.53.35-.53.79h0c0,.44.23.79.53.79H32.05c.29,0,.53-.35.53-.79Z"/><path class="cls-3" d="M32.58,47.44c0-.44-.24-.79-.53-.79H7.2c-.3,0-.53.35-.53.79h0c0,.44.23.8.53.8H32.05c.29,0,.53-.36.53-.8Z"/><path class="cls-3" d="M41.28,39.3a.78.78,0,0,1-.78.79H35.36a.79.79,0,0,1-.79-.79h0a.78.78,0,0,1,.79-.78H40.5a.78.78,0,0,1,.78.78Z"/><path class="cls-3" d="M41.25,43.45a.78.78,0,0,1-.78.79H35.33a.79.79,0,0,1-.79-.79h0a.78.78,0,0,1,.79-.78h5.14a.78.78,0,0,1,.78.78Z"/><path class="cls-3" d="M41.25,47.54a.78.78,0,0,1-.78.78H35.33a.78.78,0,0,1-.79-.78h0a.79.79,0,0,1,.79-.79h5.14a.78.78,0,0,1,.78.79Z"/><path class="cls-3" d="M32.58,27.36c0-.44-.24-.79-.53-.79H7.2c-.3,0-.53.35-.53.79h0c0,.44.23.79.53.79H32.05c.29,0,.53-.35.53-.79Z"/><path class="cls-3" d="M32.58,31.51c0-.44-.24-.79-.53-.79H7.2c-.3,0-.53.35-.53.79h0c0,.44.23.79.53.79H32.05c.29,0,.53-.35.53-.79Z"/><path class="cls-3" d="M32.58,35.53c0-.44-.24-.79-.53-.79H7.2c-.3,0-.53.35-.53.79h0c0,.44.23.79.53.79H32.05c.29,0,.53-.35.53-.79Z"/><path class="cls-3" d="M41.28,27.39a.78.78,0,0,1-.78.79H35.36a.79.79,0,0,1-.79-.79h0a.78.78,0,0,1,.79-.78H40.5a.78.78,0,0,1,.78.78Z"/><path class="cls-3" d="M41.25,31.54a.78.78,0,0,1-.78.78H35.33a.78.78,0,0,1-.79-.78h0a.79.79,0,0,1,.79-.79h5.14a.79.79,0,0,1,.78.79Z"/><path class="cls-3" d="M41.25,35.62a.78.78,0,0,1-.78.79H35.33a.79.79,0,0,1-.79-.79h0a.78.78,0,0,1,.79-.78h5.14a.78.78,0,0,1,.78.78Z"/><path class="cls-1" d="M32.61,8.87h-18a2.55,2.55,0,0,0-2.28,1.42H34.88A2.52,2.52,0,0,0,32.61,8.87Z"/><path class="cls-7" d="M36.13,10.29a3.86,3.86,0,0,1,.17,1.13v3.12a.57.57,0,0,1-.57.57H11.51a.57.57,0,0,1-.58-.57V11.42a3.87,3.87,0,0,1,.18-1.13H.89V67.52H46.35V10.29Z"/><path class="cls-8" d="M0,33V10.09a.57.57,0,0,1,.57-.57H11.76a.59.59,0,0,1,.48.26.62.62,0,0,1,0,.56A2.58,2.58,0,0,0,12,11.41V14H35.11V11.41a2.46,2.46,0,0,0-.24-1.07.59.59,0,0,1,0-.56.56.56,0,0,1,.48-.26H46.66a.57.57,0,0,1,.58.57V67.62a.57.57,0,0,1-.58.57H.57A.57.57,0,0,1,0,67.62V46.7M1.14,47v20.1h45V10.66H36.18a3.82,3.82,0,0,1,.08.75v3.13a.58.58,0,0,1-.57.57H11.46a.57.57,0,0,1-.57-.57V11.41a3.81,3.81,0,0,1,.07-.75H1.14V32.72"/><path class="cls-8" d="M32.61,7.69h-18a3.72,3.72,0,0,0-3.7,3.73v3.15a.58.58,0,0,0,.58.58H35.73a.58.58,0,0,0,.57-.58V11.42A3.72,3.72,0,0,0,32.61,7.69Z"/><path class="cls-9" d="M29.12,5.12H26.39a.56.56,0,0,0-.49.29,2.62,2.62,0,0,1-4.56,0,.57.57,0,0,0-.5-.29H18.12a.58.58,0,0,0-.57.57v4.53a.57.57,0,0,0,.57.57h11a.57.57,0,0,0,.57-.57V5.69A.58.58,0,0,0,29.12,5.12Z"/><path class="cls-10" d="M27.36,4.23A3.75,3.75,0,1,1,23.62.5,3.73,3.73,0,0,1,27.36,4.23Z"/><path class="cls-11" d="M26.37,4.26a2.67,2.67,0,0,1-5.34,0,2.67,2.67,0,0,1,5.34,0Z"/><path class="cls-8" d="M27.64,27.36H19.32a.44.44,0,0,1-.44-.44V18.59a.44.44,0,0,1,.44-.44,8.77,8.77,0,0,1,8.76,8.77A.44.44,0,0,1,27.64,27.36Zm-7.88-.88h7.43A7.91,7.91,0,0,0,19.76,19Z"/><path class="cls-12" d="M39,37.07h-21a.45.45,0,0,1,0-.89H39a.45.45,0,0,1,0,.89Z"/><path class="cls-12" d="M30.37,36.42a.44.44,0,0,1-.44-.44V28.77a.44.44,0,1,1,.88,0V36A.44.44,0,0,1,30.37,36.42Z"/><path class="cls-12" d="M34.63,36.51a.44.44,0,0,1-.44-.44v-12a.44.44,0,0,1,.88,0v12A.44.44,0,0,1,34.63,36.51Z"/><path class="cls-12" d="M37.85,36.52a.41.41,0,0,1-.41-.41V26.75a.42.42,0,1,1,.83,0v9.36A.41.41,0,0,1,37.85,36.52Z"/><path class="cls-11" d="M34.87,63.65H11.28a.19.19,0,0,1-.2-.19V39.88a.2.2,0,0,1,.4,0V63.26H34.87a.2.2,0,0,1,.2.2A.19.19,0,0,1,34.87,63.65Z"/><path class="cls-11" d="M11.28,63.65l-.1,0a.21.21,0,0,1-.08-.27l4.65-8.52a.19.19,0,0,1,.27-.07.2.2,0,0,1,.08.26l-4.65,8.52A.19.19,0,0,1,11.28,63.65Zm9.16-5.88a.24.24,0,0,1-.13-.05l-3.1-2.87a.2.2,0,1,1,.27-.29l3.1,2.87a.2.2,0,0,1-.14.34Zm1.09-.35h0a.21.21,0,0,1-.16-.24l1.54-7.71a.2.2,0,0,1,.23-.16.19.19,0,0,1,.15.23l-1.53,7.72A.2.2,0,0,1,21.53,57.42Zm5.29-5a.2.2,0,0,1-.15-.06l-2.74-3a.19.19,0,0,1,0-.27.19.19,0,0,1,.28,0l2.74,3a.2.2,0,0,1,0,.28A.18.18,0,0,1,26.82,52.41Zm1.31-.18a.11.11,0,0,1-.08,0A.19.19,0,0,1,28,52l4.41-8.73a.19.19,0,0,1,.26-.09.2.2,0,0,1,.09.27l-4.41,8.72A.19.19,0,0,1,28.13,52.23Z"/><path class="cls-11" d="M32.78,45.72a.19.19,0,0,1-.19-.18l-.21-1.91-1.66,1a.2.2,0,0,1-.27-.07.21.21,0,0,1,.07-.27l1.92-1.12a.21.21,0,0,1,.19,0,.21.21,0,0,1,.11.16L33,45.5a.2.2,0,0,1-.18.22Z"/><path class="cls-11" d="M16.48,55.28a1.37,1.37,0,1,1,1.37-1.37A1.36,1.36,0,0,1,16.48,55.28Zm0-2.34a1,1,0,1,0,1,1A1,1,0,0,0,16.48,52.94Z"/><path class="cls-11" d="M21.3,59.74a1.37,1.37,0,1,1,1.37-1.37A1.37,1.37,0,0,1,21.3,59.74Zm0-2.34a1,1,0,1,0,1,1A1,1,0,0,0,21.3,57.4Z"/><path class="cls-11" d="M23.29,49.72a1.37,1.37,0,1,1,1.37-1.36A1.36,1.36,0,0,1,23.29,49.72Zm0-2.33a1,1,0,0,0,0,1.94,1,1,0,1,0,0-1.94Z"/><path class="cls-11" d="M27.61,54.45A1.37,1.37,0,1,1,29,53.08,1.37,1.37,0,0,1,27.61,54.45Zm0-2.34a1,1,0,1,0,1,1A1,1,0,0,0,27.61,52.11Z"/><path class="cls-13" d="M65.87,47.52a3.56,3.56,0,0,1,4.07,3.58H62.51v-.37A3.47,3.47,0,0,1,65.87,47.52Z"/><path class="cls-13" d="M59.21,81.3s-25.37.1-27.57,0-3.14-3-3.14-3l6.76.06,21.24.18A2.94,2.94,0,0,0,59.21,81.3Z"/><path class="cls-13" d="M56.5,78.55l-21.24-.18V50.24a2.93,2.93,0,0,1,3.09-2.72H65.87a3.47,3.47,0,0,0-3.36,3.21c0,.13,0,.24,0,.37h0V78.16c0,2.29-.23,3.14-3.3,3.14A2.94,2.94,0,0,1,56.5,78.55Z"/><path class="cls-13" d="M65.07,47.51c2-.16,4.87,1,4.87,3.59H62.5"/><path class="cls-13" d="M35.26,78.16V50.24a2.93,2.93,0,0,1,3.09-2.72H65.89"/><path class="cls-13" d="M59.22,81.47a2.93,2.93,0,0,1-2.71-2.74l-21.25-.18-6.76-.06s.95,2.88,3.15,3,27.57,0,27.57,0c3.07,0,3.29-.84,3.29-3.13V50"/><line class="cls-13" x1="53.17" y1="72.66" x2="40.45" y2="72.66"/><line class="cls-13" x1="50.22" y1="66.82" x2="40.45" y2="66.82"/><line class="cls-13" x1="53.17" y1="60.99" x2="40.45" y2="60.99"/><line class="cls-13" x1="47.96" y1="55.15" x2="40.45" y2="55.15"/><line class="cls-13" x1="51.9" y1="55.15" x2="53.47" y2="55.15"/><line class="cls-13" x1="55.66" y1="60.99" x2="57.23" y2="60.99"/><line class="cls-13" x1="53.25" y1="66.82" x2="54.83" y2="66.82"/><line class="cls-13" x1="56.35" y1="72.66" x2="57.93" y2="72.66"/><path class="cls-8" d="M26.25,27.86H18.37V20a.44.44,0,0,0-.44-.44A8.77,8.77,0,0,0,16.67,37a8.3,8.3,0,0,0,1.26.09,8.78,8.78,0,0,0,8.76-8.77A.44.44,0,0,0,26.25,27.86Z"/></g></g></g></svg>