<svg width="54" height="54" viewBox="0 0 54 54" fill="none" xmlns="http://www.w3.org/2000/svg">
<path fill-rule="evenodd" clip-rule="evenodd" d="M51.0002 5.66659V32.3333C51.0002 35.2788 48.6124 37.6666 45.6668 37.6666H29.6668V41.4901L41.7055 48.7133L38.9615 53.2866L29.6668 47.7098V53.6666H24.3335V47.7098L15.0388 53.2866L12.2948 48.7133L24.3335 41.4901V37.6666H8.3335C5.38798 37.6666 3.00016 35.2788 3.00016 32.3333V5.66659H0.333496V0.333252H53.6668V5.66659H51.0002ZM8.33349 5.66659V32.3332H45.6668V5.66659H8.33349ZM16.3335 26.9999H21.6668V16.3333H16.3335V26.9999ZM29.6668 26.9999H24.3335V10.9999H29.6668V26.9999ZM32.3335 26.9999H37.6668V18.9999H32.3335V26.9999Z" fill="#828282"/>
</svg>
