<svg xmlns="http://www.w3.org/2000/svg" viewBox="0 0 60.18 68.16"><defs><style>.cls-1{fill:none;}.cls-2,.cls-6{fill:#c9ebfc;}.cls-3{font-size:10.81px;font-family:Anakotmai-Medium, Anakotmai;font-weight:500;}.cls-3,.cls-4{fill:#00b0f0;}.cls-5{fill:#50c9f5;}.cls-6{stroke:#00b0f0;stroke-linecap:round;stroke-linejoin:round;stroke-width:1.5px;}</style></defs><title>four-one-new</title><g id="Layer_2" data-name="Layer 2"><g id="Layer_1_copy_3" data-name="Layer 1 copy 3"><g id="_04" data-name="04"><path class="cls-1" d="M45.45,8.43H27.34a2.56,2.56,0,0,0-2.29,1.43H47.74A2.54,2.54,0,0,0,45.45,8.43Z"/><path class="cls-2" d="M49,9.86A3.56,3.56,0,0,1,49.17,11v3.15a.57.57,0,0,1-.58.57H24.2a.57.57,0,0,1-.58-.57V11a3.87,3.87,0,0,1,.18-1.13H13.51V67.48H59.29V9.86Z"/><text class="cls-3" transform="translate(25.76 29.14)">PMT</text><path class="cls-4" d="M12.62,32.73V9.66a.57.57,0,0,1,.57-.58H24.45a.58.58,0,0,1,.49.27.57.57,0,0,1,0,.55A2.67,2.67,0,0,0,24.73,11v2.57H48V11a2.58,2.58,0,0,0-.24-1.09.57.57,0,0,1,0-.55.58.58,0,0,1,.49-.27H59.6a.58.58,0,0,1,.58.58V67.58a.58.58,0,0,1-.58.58H13.19a.57.57,0,0,1-.57-.58V46.52m1.15.25V67H59V10.23H49a3.27,3.27,0,0,1,.08.76v3.15a.57.57,0,0,1-.57.57H24.16a.58.58,0,0,1-.58-.57V11a3.22,3.22,0,0,1,.08-.76H13.77V32.44"/><path class="cls-5" d="M43.15,34.19H21.65a.58.58,0,0,1,0-1.16h21.5a.58.58,0,0,1,0,1.16Z"/><path class="cls-5" d="M53.53,34.19H47.74a.58.58,0,1,1,0-1.16h5.79a.58.58,0,0,1,0,1.16Z"/><path class="cls-5" d="M43.15,39.27H21a.58.58,0,1,1,0-1.15h22.2a.58.58,0,1,1,0,1.15Z"/><path class="cls-5" d="M53.53,39.27H47.74a.58.58,0,1,1,0-1.15h5.79a.58.58,0,1,1,0,1.15Z"/><path class="cls-5" d="M43.15,44.35h-24a.57.57,0,0,1-.58-.57.58.58,0,0,1,.58-.58h24a.58.58,0,0,1,.58.58A.57.57,0,0,1,43.15,44.35Z"/><path class="cls-5" d="M53.53,44.35H47.74a.57.57,0,0,1-.58-.57.58.58,0,0,1,.58-.58h5.79a.58.58,0,0,1,.58.58A.57.57,0,0,1,53.53,44.35Z"/><path class="cls-5" d="M43.15,49.44h-24a.58.58,0,0,1,0-1.16h24a.58.58,0,0,1,0,1.16Z"/><path class="cls-5" d="M53.53,49.44H47.74a.58.58,0,1,1,0-1.16h5.79a.58.58,0,0,1,0,1.16Z"/><path class="cls-5" d="M43.15,54.51h-24a.58.58,0,1,1,0-1.15h24a.58.58,0,1,1,0,1.15Z"/><path class="cls-5" d="M53.53,54.51H47.74a.58.58,0,1,1,0-1.15h5.79a.58.58,0,1,1,0,1.15Z"/><path class="cls-5" d="M43.15,59.6h-24a.58.58,0,0,1,0-1.16h24a.58.58,0,1,1,0,1.16Z"/><path class="cls-5" d="M53.53,59.6H47.74a.58.58,0,1,1,0-1.16h5.79a.58.58,0,1,1,0,1.16Z"/><path class="cls-6" d="M11.19,52.83a9.06,9.06,0,1,1,9.9-8.13A9.07,9.07,0,0,1,11.19,52.83Z"/><path class="cls-6" d="M13.17,32.55A11.32,11.32,0,1,0,23.34,44.91,11.31,11.31,0,0,0,13.17,32.55Z"/><path class="cls-6" d="M13,34.8a9.06,9.06,0,1,1-9.89,8.14A9.1,9.1,0,0,1,13,34.8Z"/><path class="cls-4" d="M18.41,53.2a11.7,11.7,0,0,0,1.64-1.34l1.64,2-1.64,1.34Z"/><path class="cls-4" d="M27.22,66.46l-7.51-10a.72.72,0,0,1,.1-1L22,53.66a.73.73,0,0,1,1.06.1l8.33,9.38a2.56,2.56,0,0,1,.64,2,2.68,2.68,0,0,1-2.88,2.37A2.76,2.76,0,0,1,27.22,66.46Z"/><path class="cls-4" d="M32,65.1a2.68,2.68,0,0,1-2.88,2.37,2.76,2.76,0,0,1-1.88-1l-7.51-10a.72.72,0,0,1,.1-1L22,53.66a.73.73,0,0,1,1.06.1l8.33,9.38A2.56,2.56,0,0,1,32,65.1Z"/><path class="cls-4" d="M18.41,53.2l1.64,2,1.64-1.34-1.64-2A11.7,11.7,0,0,1,18.41,53.2Z"/><path class="cls-4" d="M45.45,7.24H27.34A3.74,3.74,0,0,0,23.62,11v3.18a.58.58,0,0,0,.58.58H48.59a.58.58,0,0,0,.58-.58V11A3.74,3.74,0,0,0,45.45,7.24Z"/><path class="cls-5" d="M41.93,4.65H39.19a.58.58,0,0,0-.5.3A2.64,2.64,0,0,1,34.1,5a.58.58,0,0,0-.5-.3H30.86a.57.57,0,0,0-.57.58V9.79a.57.57,0,0,0,.57.58H41.93a.58.58,0,0,0,.58-.58V5.23A.58.58,0,0,0,41.93,4.65Z"/><path class="cls-5" d="M40.17,3.76A3.77,3.77,0,1,1,36.4,0,3.77,3.77,0,0,1,40.17,3.76Z"/><path class="cls-4" d="M39.17,3.78a2.69,2.69,0,0,1-5.38,0,2.69,2.69,0,0,1,5.38,0Z"/></g></g></g></svg>