<svg width="88" height="71" viewBox="0 0 88 71" fill="none" xmlns="http://www.w3.org/2000/svg">
<path fill-rule="evenodd" clip-rule="evenodd" d="M66.0602 53.9216C63.0145 56.0209 59.3227 57.25 55.3438 57.25C44.9021 57.25 36.4375 48.7854 36.4375 38.3438C36.4375 27.9021 44.9021 19.4375 55.3438 19.4375C65.7854 19.4375 74.25 27.9021 74.25 38.3438C74.25 42.3227 73.0209 46.0145 70.9216 49.0602L83.5557 61.6943L78.6943 66.5557L66.0602 53.9216ZM55.3438 50.375C61.9884 50.375 67.375 44.9884 67.375 38.3438C67.375 31.6991 61.9884 26.3125 55.3438 26.3125C48.6991 26.3125 43.3125 31.6991 43.3125 38.3438C43.3125 44.9884 48.6991 50.375 55.3438 50.375Z" fill="#828282"/>
<path fill-rule="evenodd" clip-rule="evenodd" d="M43.5417 7.5H33.9625C33 4.6 30.4792 2.5 27.5 2.5C24.5208 2.5 22 4.6 21.0375 7.5H11.4583C8.9375 7.5 6.875 9.75 6.875 12.5V52.5C6.875 55.25 8.9375 57.5 11.4583 57.5H43.5417C46.0625 57.5 48.125 55.25 48.125 52.5V12.5C48.125 9.75 46.0625 7.5 43.5417 7.5ZM27.5 7.5C28.7604 7.5 29.7916 8.625 29.7916 10C29.7916 11.375 28.7604 12.5 27.5 12.5C26.2395 12.5 25.2083 11.375 25.2083 10C25.2083 8.625 26.2395 7.5 27.5 7.5ZM11.4583 12.5V52.5H43.5416V12.5H38.9583V20H16.0416V12.5H11.4583Z" fill="#828282"/>
<path d="M17.8009 37.08C17.3582 37.08 17.0009 36.968 16.7289 36.744C16.4622 36.5147 16.3289 36.1627 16.3289 35.688C16.3289 35.2347 16.4756 34.888 16.7689 34.648C17.0676 34.4027 17.4836 34.28 18.0169 34.28H19.1049V34.168C19.1049 34.008 19.0302 33.8907 18.8809 33.816C18.7369 33.736 18.5156 33.696 18.2169 33.696C17.7209 33.696 17.2276 33.7707 16.7369 33.92V32.88C16.9716 32.7947 17.2489 32.728 17.5689 32.68C17.8942 32.6267 18.2089 32.6 18.5129 32.6C18.7796 32.6 19.0409 32.6267 19.2969 32.68H21.0009L20.9289 33.776H20.4729C20.5156 33.856 20.5476 33.9627 20.5689 34.096C20.5956 34.224 20.6089 34.352 20.6089 34.48V37H19.1049V35.304H18.3609C18.1742 35.304 18.0356 35.3333 17.9449 35.392C17.8596 35.4453 17.8169 35.5467 17.8169 35.696C17.8169 35.84 17.8542 35.9413 17.9289 36C18.0036 36.0533 18.1236 36.08 18.2889 36.08C18.4436 36.08 18.5796 36.064 18.6969 36.032V36.96C18.4836 37.04 18.1849 37.08 17.8009 37.08ZM22.7931 37.08C22.3504 37.08 21.9931 36.968 21.7211 36.744C21.4544 36.5147 21.3211 36.1627 21.3211 35.688C21.3211 35.2347 21.4678 34.888 21.7611 34.648C22.0598 34.4027 22.4758 34.28 23.0091 34.28H24.0971V34.168C24.0971 34.008 24.0224 33.8907 23.8731 33.816C23.7291 33.736 23.5078 33.696 23.2091 33.696C22.7131 33.696 22.2198 33.7707 21.7291 33.92V32.88C21.9638 32.7947 22.2411 32.728 22.5611 32.68C22.8864 32.6267 23.2011 32.6 23.5051 32.6C23.7718 32.6 24.0331 32.6267 24.2891 32.68H25.9931L25.9211 33.776H25.4651C25.5078 33.856 25.5398 33.9627 25.5611 34.096C25.5878 34.224 25.6011 34.352 25.6011 34.48V37H24.0971V35.304H23.3531C23.1664 35.304 23.0278 35.3333 22.9371 35.392C22.8518 35.4453 22.8091 35.5467 22.8091 35.696C22.8091 35.84 22.8464 35.9413 22.9211 36C22.9958 36.0533 23.1158 36.08 23.2811 36.08C23.4358 36.08 23.5718 36.064 23.6891 36.032V36.96C23.4758 37.04 23.1771 37.08 22.7931 37.08ZM26.3133 35.92H27.4973V37H26.3133V35.92ZM28.7552 33.24L27.8992 33.368V32.112L30.2592 31.768V37H28.7552V33.24ZM33.2851 37.08C32.4211 37.08 31.7944 36.8587 31.4051 36.416C31.0158 35.968 30.8211 35.304 30.8211 34.424C30.8211 33.544 31.0158 32.8827 31.4051 32.44C31.7944 31.992 32.4211 31.768 33.2851 31.768C34.1491 31.768 34.7758 31.992 35.1651 32.44C35.5544 32.8827 35.7491 33.544 35.7491 34.424C35.7491 35.304 35.5544 35.968 35.1651 36.416C34.7758 36.8587 34.1491 37.08 33.2851 37.08ZM33.2851 35.8C33.6211 35.8 33.8584 35.688 33.9971 35.464C34.1411 35.24 34.2131 34.8933 34.2131 34.424C34.2131 33.9547 34.1411 33.608 33.9971 33.384C33.8584 33.16 33.6211 33.048 33.2851 33.048C32.9491 33.048 32.7091 33.16 32.5651 33.384C32.4264 33.6027 32.3571 33.9493 32.3571 34.424C32.3571 34.8933 32.4264 35.24 32.5651 35.464C32.7091 35.688 32.9491 35.8 33.2851 35.8ZM37.0052 33.24L36.1492 33.368V32.112L38.5092 31.768V37H37.0052V33.24Z" fill="#8F8F8F"/>
</svg>
