<svg xmlns="http://www.w3.org/2000/svg" viewBox="0 0 91.63 83.75"><defs><style>.cls-1{font-size:17.68px;font-family:Anakotmai-Medium, Anakotmai;font-weight:500;}.cls-1,.cls-2{fill:#00b0f0;}.cls-3{fill:#fff;stroke-miterlimit:10;stroke-width:0.5px;}.cls-3,.cls-5,.cls-7,.cls-9{stroke:#fff;}.cls-4,.cls-5{fill:#00bcf2;}.cls-4{stroke:#00bcf2;}.cls-4,.cls-5,.cls-6,.cls-7,.cls-8,.cls-9{stroke-linecap:round;stroke-linejoin:round;}.cls-4,.cls-6{stroke-width:0.8px;}.cls-5{stroke-width:1.2px;}.cls-6,.cls-7{fill:#aee2fa;}.cls-6{stroke:#aee2fa;}.cls-8,.cls-9{fill:#50c9f5;}.cls-8{stroke:#50c9f5;}.cls-9{stroke-width:2px;}</style></defs><title>four-two-new</title><g id="Layer_2" data-name="Layer 2"><g id="Layer_1_copy_3" data-name="Layer 1 copy 3"><g id="_09" data-name="09"><text class="cls-1" transform="translate(0 76.03)">ดำเนินการ...</text><path class="cls-2" d="M66,57.12a6,6,0,0,1-8.44-.46c-.12-.14-.25-.3-.37-.46l-25.6-32-5.73,1.87a.61.61,0,0,1-.46,0l-9.24-4.7a.62.62,0,0,1-.31-.38L14,13.68a.59.59,0,0,1,0-.37l1.42-3.65a.62.62,0,0,1,.52-.38.58.58,0,0,1,.56.33l3.88,7.66,5.54,2.81,5.62-1.82L34,12.89,31.85,7.05,24.71,2.29a.56.56,0,0,1-.26-.58.63.63,0,0,1,.44-.48l3.79-1a.59.59,0,0,1,.37,0L36,3a.6.6,0,0,1,.33.35l3.57,9.73a.63.63,0,0,1,0,.45L37.38,19,66.14,48.26l.41.43A6,6,0,0,1,66,57.12Z"/><path class="cls-3" d="M64.23,55.1a3.26,3.26,0,1,1,.27-4.6A3.27,3.27,0,0,1,64.23,55.1Zm-3.55-4a2.08,2.08,0,1,0,2.94.17A2.09,2.09,0,0,0,60.68,51.12Z"/><path class="cls-4" d="M34.09,39.18a3.27,3.27,0,0,0-.1-.45l2.34-1.49L35.75,36l-2.67.74a6.88,6.88,0,0,0-2.48-2.35l.6-2.71-1.32-.5-1.36,2.41a7.29,7.29,0,0,0-3.41.08L23.62,31.3l-1.29.58.74,2.65c-.15.09-.3.2-.45.31L22.4,35c-.13.1-.25.22-.37.32A7.21,7.21,0,0,0,20.72,37L18,36.42l-.5,1.31,2.4,1.37A7.3,7.3,0,0,0,20,42.51L17.67,44l.59,1.31,2.66-.75a7.2,7.2,0,0,0,2.47,2.35l-.59,2.7,1.31.5,1.38-2.4a7.17,7.17,0,0,0,3.41-.09l1.48,2.33,1.3-.58-.74-2.66a7.26,7.26,0,0,0,2.34-2.47l2.7.59.51-1.32-2.41-1.36a7.83,7.83,0,0,0,.15-1c0-.26,0-.52,0-.78a2.06,2.06,0,0,0,0-.35c0-.18,0-.36-.06-.55S34.12,39.28,34.09,39.18Z"/><path class="cls-5" d="M30.32,39.14a3.63,3.63,0,1,1-4.79-1.83A3.63,3.63,0,0,1,30.32,39.14Z"/><path class="cls-6" d="M73.22,33.12a1.28,1.28,0,0,0-.07-.28l1.44-.92-.35-.79-1.65.45a4.22,4.22,0,0,0-1.52-1.45l.36-1.67-.81-.31-.84,1.49a4.39,4.39,0,0,0-2.1.05l-.92-1.44-.8.36.46,1.64a1.85,1.85,0,0,0-.27.19l-.14.11-.23.2a4.44,4.44,0,0,0-.81,1l-1.67-.37-.31.81,1.48.85a4.4,4.4,0,0,0,.06,2.1l-1.44.91.36.81,1.64-.46a4.51,4.51,0,0,0,1.53,1.45l-.37,1.67.81.31.85-1.48a4.53,4.53,0,0,0,2.1-.06l.91,1.43.81-.35-.46-1.65a4.48,4.48,0,0,0,1.45-1.52l1.66.36.31-.81-1.48-.84a4,4,0,0,0,.09-.59c0-.17,0-.33,0-.49s0-.14,0-.21,0-.23,0-.34A1.06,1.06,0,0,0,73.22,33.12Z"/><path class="cls-7" d="M70.89,33.09a2.24,2.24,0,1,1-3-1.13A2.24,2.24,0,0,1,70.89,33.09Z"/><path class="cls-8" d="M68,11.93c0-.22-.09-.43-.14-.64l3.3-2.11-.82-1.83-3.78,1A10,10,0,0,0,63,5.06l.84-3.83L62,.5,60.07,3.92a10.14,10.14,0,0,0-4.83.13L53.13.75l-1.84.82,1.05,3.77c-.22.14-.42.28-.63.44L51.4,6a6,6,0,0,0-.53.46A10.09,10.09,0,0,0,49,8.85L45.18,8l-.72,1.88,3.42,1.94A10.14,10.14,0,0,0,48,16.65l-3.31,2.11.82,1.84,3.79-1.05a10.07,10.07,0,0,0,3.51,3.33L52,26.71l1.87.72L55.77,24a10.32,10.32,0,0,0,4.84-.13l2.1,3.3,1.85-.82L63.51,22.6a10.39,10.39,0,0,0,3.32-3.51l3.84.83.71-1.86L68,16.13a10.54,10.54,0,0,0,.21-1.37c0-.37,0-.74,0-1.11,0-.17,0-.33,0-.49a5.44,5.44,0,0,0-.09-.8Z"/><path class="cls-9" d="M62.62,11.88a5.14,5.14,0,1,1-6.78-2.61A5.13,5.13,0,0,1,62.62,11.88Z"/></g></g></g></svg>