<svg width="48" height="48" viewBox="0 0 48 48" fill="none" xmlns="http://www.w3.org/2000/svg">
<path fill-rule="evenodd" clip-rule="evenodd" d="M27.1517 19.8192L45.3117 37.9792C46.1117 38.7792 46.1117 40.0392 45.3117 40.7992L40.7117 45.3992C39.9317 46.1792 38.6717 46.1792 37.8917 45.3992L19.6717 27.1792C15.0317 28.9192 9.61172 27.9392 5.89172 24.2192C1.29172 19.6392 0.87172 12.4592 4.59172 7.37921L12.2517 15.0392L15.0917 12.2192L7.41172 4.51921C12.5117 0.79921 19.6717 1.21921 24.2717 5.81921C28.0517 9.61921 29.0117 15.1392 27.1517 19.8192ZM20.3917 22.2592L39.3117 41.1792L41.0717 39.3992L22.1717 20.4992C23.0917 19.3192 23.6917 17.9992 23.9317 16.5792C24.4317 13.7992 23.6117 10.8192 21.4517 8.65918C19.5517 6.77918 17.0517 5.89918 14.5717 6.03918L20.7517 12.2192L12.2717 20.6992L6.09166 14.5192C5.95166 16.9992 6.83166 19.5192 8.73166 21.3992C10.8117 23.4792 13.6717 24.2992 16.3917 23.8992C17.8117 23.6992 19.1717 23.1592 20.3917 22.2592Z" fill="black" fill-opacity="0.54"/>
</svg>
