<svg width="55" height="55" viewBox="0 0 55 55" fill="none" xmlns="http://www.w3.org/2000/svg">
<path fill-rule="evenodd" clip-rule="evenodd" d="M30.1506 5.22546L48.6012 15.4758C51.022 16.8207 51.022 19.8458 48.6012 21.1907L45.4947 22.9166L48.6012 24.6425C51.022 25.9874 51.022 29.0125 48.6012 30.3574L45.4947 32.0833L48.6012 33.8091C51.022 35.154 51.022 38.1792 48.6012 39.5241L30.1506 49.7744C28.6093 50.6307 26.391 50.6307 24.8497 49.7744L6.3991 39.5241C3.97829 38.1792 3.97829 35.154 6.3991 33.8091L9.50566 32.0833L6.3991 30.3574C3.97829 29.0125 3.97829 25.9874 6.3991 24.6425L9.50567 22.9166L6.3991 21.1907C3.97829 19.8458 3.97829 16.8207 6.3991 15.4758L24.8497 5.22546C26.391 4.36918 28.6093 4.36918 30.1506 5.22546ZM30.1506 31.441L40.7758 25.5382L44.307 27.4999L40.7758 29.4617L36.057 32.0833L27.9248 36.6012C27.7678 36.6884 27.2326 36.6884 27.0755 36.6012L18.9433 32.0833L14.2245 29.4617L10.6933 27.4999L14.2245 25.5382L24.8497 31.441C26.391 32.2973 28.6093 32.2973 30.1506 31.441ZM14.2245 34.7048L10.6933 36.6666L27.0755 45.7678C27.2326 45.8551 27.7678 45.8551 27.9248 45.7678L44.307 36.6666L40.7758 34.7048L30.1506 40.6077C28.6093 41.464 26.391 41.464 24.8497 40.6077L14.2245 34.7048ZM27.0754 9.23201C27.2325 9.14478 27.7676 9.14478 27.9247 9.23201L44.3069 18.3333L27.9247 27.4345C27.7676 27.5217 27.2325 27.5217 27.0754 27.4345L10.6932 18.3333L27.0754 9.23201Z" fill="#828282"/>
</svg>
