<svg xmlns="http://www.w3.org/2000/svg" viewBox="0 0 54.06 77.46"><defs><style>.cls-1{fill:none;}.cls-2{fill:#e6e6e6;}.cls-3{fill:#595a5c;}.cls-4{fill:#808184;}.cls-5{fill:#929497;}.cls-11,.cls-12,.cls-13,.cls-6{fill:#fff;}.cls-19,.cls-23,.cls-7{fill:#e2f4fd;}.cls-14,.cls-15,.cls-8{fill:#00b0f0;}.cls-20,.cls-24,.cls-9{fill:#50c9f5;}.cls-10{opacity:0.4;}.cls-11,.cls-12,.cls-13,.cls-14,.cls-19,.cls-23,.cls-24{stroke:#00b0f0;}.cls-11,.cls-12,.cls-13,.cls-14,.cls-15,.cls-16,.cls-17,.cls-18,.cls-19,.cls-20,.cls-22,.cls-23,.cls-24{stroke-miterlimit:10;}.cls-12,.cls-16,.cls-18,.cls-19{stroke-width:0.3px;}.cls-13{stroke-width:0.5px;}.cls-15{stroke:#00b5f1;}.cls-16,.cls-17,.cls-18,.cls-22{fill:#92d9f8;}.cls-16,.cls-17{stroke:#92d9f8;}.cls-18,.cls-20,.cls-22{stroke:#50c9f5;}.cls-21{fill:#eb2627;}.cls-22,.cls-23{stroke-width:0.1px;}.cls-25{fill:#f6eb16;}</style></defs><title>Asset 3</title><g id="Layer_2" data-name="Layer 2"><g id="Layer_1_copy_3" data-name="Layer 1 copy 3"><g id="_08" data-name="08"><path class="cls-1" d="M37.32,9.57H16.74a2.93,2.93,0,0,0-2.61,1.64H39.92A2.92,2.92,0,0,0,37.32,9.57Z"/><path class="cls-2" d="M41.34,11.21a4.15,4.15,0,0,1,.21,1.29v3.57a.66.66,0,0,1-.66.65H13.16a.65.65,0,0,1-.65-.65V12.5a4.15,4.15,0,0,1,.2-1.29H1V76.69H53V11.21Z"/><path class="cls-3" d="M0,37.2V11a.65.65,0,0,1,.66-.66H13.45a.65.65,0,0,1,.55.31.63.63,0,0,1,0,.62,3.07,3.07,0,0,0-.27,1.24v2.92H40.18V12.49a3,3,0,0,0-.27-1.24.6.6,0,0,1,0-.62.65.65,0,0,1,.55-.31H53.4a.66.66,0,0,1,.66.66V76.81a.66.66,0,0,1-.66.65H.66A.65.65,0,0,1,0,76.81V52.87m1.31.29v23H52.75V11.63H41.4a4.12,4.12,0,0,1,.1.86v3.58a.66.66,0,0,1-.66.65H13.12a.65.65,0,0,1-.66-.65V12.49a4.12,4.12,0,0,1,.09-.86H1.31V36.87"/><path class="cls-3" d="M37.32,8.23H16.74a4.25,4.25,0,0,0-4.23,4.27v3.6a.65.65,0,0,0,.65.66H40.89a.66.66,0,0,0,.66-.66V12.5A4.25,4.25,0,0,0,37.32,8.23Z"/><path class="cls-4" d="M33.32,5.29H30.21a.68.68,0,0,0-.58.33,3,3,0,0,1-5.21,0,.65.65,0,0,0-.57-.33H20.74a.66.66,0,0,0-.66.66v5.17a.66.66,0,0,0,.66.66H33.32a.66.66,0,0,0,.66-.66V6A.66.66,0,0,0,33.32,5.29Z"/><path class="cls-5" d="M31.31,4.27A4.29,4.29,0,1,1,27,0,4.27,4.27,0,0,1,31.31,4.27Z"/><path class="cls-6" d="M30.18,4.3a3.06,3.06,0,0,1-6.11,0,3.06,3.06,0,0,1,6.11,0Z"/><path class="cls-3" d="M37.28,44.37c0-.5-.27-.91-.6-.91H8.24c-.34,0-.61.41-.61.91h0c0,.51.27.91.61.91H36.68c.33,0,.6-.4.6-.91Z"/><path class="cls-3" d="M37.28,49.12c0-.5-.27-.91-.6-.91H8.24c-.34,0-.61.41-.61.91h0c0,.5.27.9.61.9H36.68c.33,0,.6-.4.6-.9Z"/><path class="cls-3" d="M37.28,53.72c0-.5-.27-.91-.6-.91H8.24c-.34,0-.61.41-.61.91h0c0,.5.27.91.61.91H36.68c.33,0,.6-.41.6-.91Z"/><path class="cls-3" d="M47.24,44.41a.9.9,0,0,1-.9.9H40.46a.91.91,0,0,1-.9-.9h0a.9.9,0,0,1,.9-.9h5.88a.9.9,0,0,1,.9.9Z"/><path class="cls-3" d="M47.21,49.16a.9.9,0,0,1-.9.89H40.43a.89.89,0,0,1-.9-.89h0a.9.9,0,0,1,.9-.91h5.88a.91.91,0,0,1,.9.91Z"/><path class="cls-3" d="M47.21,53.83a.9.9,0,0,1-.9.9H40.43a.9.9,0,0,1-.9-.9h0a.9.9,0,0,1,.9-.9h5.88a.9.9,0,0,1,.9.9Z"/><path class="cls-3" d="M37.28,30.74c0-.5-.27-.91-.6-.91H8.24c-.34,0-.61.41-.61.91h0c0,.5.27.91.61.91H36.68c.33,0,.6-.41.6-.91Z"/><path class="cls-3" d="M37.28,35.49c0-.51-.27-.91-.6-.91H8.24c-.34,0-.61.4-.61.91h0c0,.5.27.9.61.9H36.68c.33,0,.6-.4.6-.9Z"/><path class="cls-3" d="M37.28,40.09c0-.5-.27-.91-.6-.91H8.24c-.34,0-.61.41-.61.91h0c0,.5.27.91.61.91H36.68c.33,0,.6-.41.6-.91Z"/><path class="cls-3" d="M47.24,30.77a.9.9,0,0,1-.9.9H40.46a.9.9,0,0,1-.9-.9h0a.91.91,0,0,1,.9-.9h5.88a.9.9,0,0,1,.9.9Z"/><path class="cls-3" d="M47.21,35.52a.9.9,0,0,1-.9.9H40.43a.9.9,0,0,1-.9-.9h0a.9.9,0,0,1,.9-.9h5.88a.91.91,0,0,1,.9.9Z"/><path class="cls-3" d="M47.21,40.2a.9.9,0,0,1-.9.89H40.43a.89.89,0,0,1-.9-.89h0a.9.9,0,0,1,.9-.9h5.88a.9.9,0,0,1,.9.9Z"/><path class="cls-1" d="M37.32,9.57H16.74a2.93,2.93,0,0,0-2.61,1.64H39.92A2.92,2.92,0,0,0,37.32,9.57Z"/><path class="cls-7" d="M41.34,11.21a4.15,4.15,0,0,1,.21,1.29v3.57a.66.66,0,0,1-.66.65H13.16a.65.65,0,0,1-.65-.65V12.5a4.15,4.15,0,0,1,.2-1.29H1V76.69H53V11.21Z"/><path class="cls-8" d="M0,37.2V11a.65.65,0,0,1,.66-.66H13.45a.65.65,0,0,1,.55.31.63.63,0,0,1,0,.62,3.07,3.07,0,0,0-.27,1.24v2.92H40.18V12.49a3,3,0,0,0-.27-1.24.6.6,0,0,1,0-.62.65.65,0,0,1,.55-.31H53.4a.66.66,0,0,1,.66.66V76.81a.66.66,0,0,1-.66.65H.66A.65.65,0,0,1,0,76.81V52.87m1.31.29v23H52.75V11.63H41.4a4.12,4.12,0,0,1,.1.86v3.58a.66.66,0,0,1-.66.65H13.12a.65.65,0,0,1-.66-.65V12.49a4.12,4.12,0,0,1,.09-.86H1.31V36.87"/><path class="cls-8" d="M37.32,8.23H16.74a4.25,4.25,0,0,0-4.23,4.27v3.6a.65.65,0,0,0,.65.66H40.89a.66.66,0,0,0,.66-.66V12.5A4.25,4.25,0,0,0,37.32,8.23Z"/><path class="cls-9" d="M33.32,5.29H30.21a.68.68,0,0,0-.58.33,3,3,0,0,1-5.21,0,.65.65,0,0,0-.57-.33H20.74a.66.66,0,0,0-.66.66v5.17a.66.66,0,0,0,.66.66H33.32a.66.66,0,0,0,.66-.66V6A.66.66,0,0,0,33.32,5.29Z"/><path class="cls-9" d="M31.31,4.27A4.29,4.29,0,1,1,27,0,4.27,4.27,0,0,1,31.31,4.27Z"/><path class="cls-8" d="M30.18,4.3a3.06,3.06,0,0,1-6.11,0,3.06,3.06,0,0,1,6.11,0Z"/><path class="cls-8" d="M49,44.37a.89.89,0,0,0-.88-.91H6.34a.9.9,0,0,0-.89.91h0a.9.9,0,0,0,.89.91H48.07a.89.89,0,0,0,.88-.91Z"/><path class="cls-8" d="M49,49.12a.89.89,0,0,0-.88-.91H6.37a.89.89,0,0,0-.88.91h0a.89.89,0,0,0,.88.9h41.7a.89.89,0,0,0,.88-.9Z"/><path class="cls-8" d="M49,53.72c0-.5-.26-.91-.6-.91H19.91c-.33,0-.6.41-.6.91h0c0,.5.27.91.6.91H48.35c.34,0,.6-.41.6-.91Z"/><path class="cls-8" d="M49,30.74a.89.89,0,0,0-.88-.91H6.47a.9.9,0,0,0-.89.91h0a.9.9,0,0,0,.89.91h41.6a.89.89,0,0,0,.88-.91Z"/><path class="cls-8" d="M49,25.87a.89.89,0,0,0-.88-.9H6.47a.89.89,0,0,0-.89.9h0a.9.9,0,0,0,.89.91h41.6a.89.89,0,0,0,.88-.91Z"/><path class="cls-8" d="M49,35.49a.89.89,0,0,0-.88-.91H6.49a.89.89,0,0,0-.88.91h0a.89.89,0,0,0,.88.9H48.07a.89.89,0,0,0,.88-.9Z"/><path class="cls-8" d="M49,40.09a.89.89,0,0,0-.88-.91H6.44a.9.9,0,0,0-.89.91h0a.9.9,0,0,0,.89.91H48.07a.89.89,0,0,0,.88-.91Z"/><g class="cls-10"><polygon class="cls-11" points="20.07 62.77 21.14 61.29 22.08 63.07 22.07 75.65 20.01 75.65 20.07 62.77"/><path class="cls-12" d="M30.9,61.09a2.33,2.33,0,0,1-3-.65,1.78,1.78,0,0,1,.65-2.64,2.33,2.33,0,0,1,3,.65A1.78,1.78,0,0,1,30.9,61.09Z"/><polyline class="cls-13" points="27.63 59.08 18.91 64.31 20.17 66.09 28.79 61.12"/><polygon class="cls-8" points="28.49 59.34 29.25 60.4 28.19 61 27.42 59.94 28.49 59.34"/><polygon class="cls-8" points="26.48 60.51 27.24 61.56 26.18 62.17 25.41 61.11 26.48 60.51"/><polygon class="cls-8" points="22.48 62.71 23.24 63.77 22.18 64.37 21.41 63.31 22.48 62.71"/><polygon class="cls-8" points="24.48 61.62 25.24 62.67 24.18 63.27 23.41 62.22 24.48 61.62"/><polygon class="cls-8" points="20.59 63.84 21.36 64.89 20.29 65.49 19.53 64.44 20.59 63.84"/><path class="cls-8" d="M30.5,60.59a1.58,1.58,0,0,1-2-.43,1.2,1.2,0,0,1,.45-1.79,1.58,1.58,0,0,1,2,.43A1.21,1.21,0,0,1,30.5,60.59Z"/><polygon class="cls-14" points="25.55 75.65 16.44 75.65 16.44 75.65 25.55 75.65 25.55 75.65"/></g><g class="cls-10"><rect class="cls-15" x="9.85" y="72.65" width="1.19" height="2"/><rect class="cls-14" x="6.66" y="74.65" width="8" height="1"/><rect class="cls-16" x="8.97" y="54.43" width="8.65" height="1.97" transform="translate(-35 25.16) rotate(-44.44)"/><rect class="cls-17" x="9.77" y="57.2" width="1.9" height="2.24" transform="translate(-47.84 67.62) rotate(-88.62)"/><line class="cls-18" x1="12.11" y1="58.04" x2="11.92" y2="59.13"/><line class="cls-18" x1="9.32" y1="58.25" x2="9.38" y2="59.09"/><line class="cls-18" x1="10.64" y1="56.51" x2="15.62" y2="51.68"/><line class="cls-18" x1="12" y1="58.25" x2="17.06" y2="53.2"/><path class="cls-18" d="M15.56,51.75A1,1,0,0,1,17,51.66a1.12,1.12,0,0,1,0,1.55"/><path class="cls-18" d="M9.33,58.36,4.51,53.11c-.11-.11-.08-.49,0-.68a1.45,1.45,0,0,1,.3-.44,2.35,2.35,0,0,1,.63-.34c.18,0,.38-.08.5,0l.61.65c.47.5.94,1,1.4,1.49l1.55,1.63c.34.37,1.16,1.12,1.16,1.12"/><path class="cls-19" d="M6.15,52.87a.62.62,0,0,1-1.24,0,.62.62,0,0,1,1.24,0Z"/><path class="cls-19" d="M7.42,54.14a.62.62,0,1,1-.62-.59A.6.6,0,0,1,7.42,54.14Z"/><path class="cls-19" d="M8.68,55.3a.6.6,0,0,1-.62.59.59.59,0,1,1,0-1.18A.6.6,0,0,1,8.68,55.3Z"/><path class="cls-19" d="M10.06,56.78a.6.6,0,0,1-.62.59.6.6,0,0,1-.62-.59.61.61,0,0,1,.62-.6A.61.61,0,0,1,10.06,56.78Z"/><path class="cls-19" d="M11.32,57.94a.62.62,0,1,1-.62-.6A.61.61,0,0,1,11.32,57.94Z"/><path class="cls-19" d="M12.59,56.67a.62.62,0,1,1-.62-.59A.6.6,0,0,1,12.59,56.67Z"/><path class="cls-19" d="M13.85,55.4a.61.61,0,0,1-.62.6.6.6,0,1,1,0-1.19A.6.6,0,0,1,13.85,55.4Z"/><path class="cls-19" d="M15.22,54a.62.62,0,1,1-.62-.59A.61.61,0,0,1,15.22,54Z"/><path class="cls-19" d="M16.49,52.77a.62.62,0,0,1-1.24,0,.62.62,0,0,1,1.24,0Z"/><path class="cls-20" d="M13.66,71.65V59.48a1.35,1.35,0,0,0-.92-.83h-4c-.32,0-1.06.58-1.06.83V71.65Z"/><path class="cls-8" d="M13.16,70.15V60.24a2.36,2.36,0,0,0-1.48-1l-1.25-.07-1.08.19c-.33.14-1.19.67-1.19.9v9.91Z"/><path class="cls-6" d="M11.49,62.25a1,1,0,1,1-1-1A1,1,0,0,1,11.49,62.25Z"/><path class="cls-6" d="M11.46,65.49a1,1,0,1,1-1-1A1,1,0,0,1,11.46,65.49Z"/><path class="cls-21" d="M11.46,68.72a1,1,0,1,1-1-1A1,1,0,0,1,11.46,68.72Z"/></g><g class="cls-10"><rect class="cls-15" x="35.87" y="73.73" width="0.71" height="1.14"/><rect class="cls-14" x="33.66" y="75.65" width="5" height="1"/><rect class="cls-16" x="35.2" y="63.63" width="4.86" height="1.1" transform="translate(-34.18 44.71) rotate(-44.45)"/><rect class="cls-17" x="35.65" y="65.19" width="1.07" height="1.26" transform="translate(-30.51 100.36) rotate(-88.58)"/><line class="cls-22" x1="36.97" y1="65.66" x2="36.86" y2="66.27"/><line class="cls-22" x1="35.39" y1="65.78" x2="35.43" y2="66.25"/><line class="cls-22" x1="36.14" y1="64.8" x2="38.93" y2="62.09"/><line class="cls-22" x1="36.9" y1="65.77" x2="39.75" y2="62.94"/><path class="cls-22" d="M38.9,62.12a.59.59,0,0,1,.83,0,.62.62,0,0,1,0,.86"/><path class="cls-22" d="M35.4,65.84l-2.71-3c-.06-.06,0-.28,0-.38a1,1,0,0,1,.16-.25,1.39,1.39,0,0,1,.36-.19c.1,0,.22,0,.28,0l.34.36.79.84.87.92c.19.21.65.63.65.63"/><path class="cls-23" d="M33.62,62.75a.35.35,0,1,1-.35-.33A.35.35,0,0,1,33.62,62.75Z"/><path class="cls-23" d="M34.33,63.47a.35.35,0,1,1-.35-.34A.34.34,0,0,1,34.33,63.47Z"/><path class="cls-23" d="M35,64.12a.35.35,0,0,1-.7,0,.35.35,0,0,1,.7,0Z"/><path class="cls-23" d="M35.81,65a.35.35,0,1,1-.35-.34A.34.34,0,0,1,35.81,65Z"/><path class="cls-23" d="M36.52,65.6a.34.34,0,0,1-.35.33.33.33,0,1,1,0-.66A.34.34,0,0,1,36.52,65.6Z"/><path class="cls-23" d="M37.23,64.89a.35.35,0,1,1-.35-.34A.34.34,0,0,1,37.23,64.89Z"/><path class="cls-23" d="M37.94,64.18a.35.35,0,1,1-.35-.34A.34.34,0,0,1,37.94,64.18Z"/><path class="cls-23" d="M38.71,63.41a.35.35,0,0,1-.69,0,.35.35,0,0,1,.69,0Z"/><path class="cls-23" d="M39.43,62.7a.34.34,0,0,1-.35.33.34.34,0,1,1,0-.67A.35.35,0,0,1,39.43,62.7Z"/><path class="cls-24" d="M34.65,66.29v7.36h3V66.54c0-.16-.17-.29-.48-.29,0,0-2.49-.28-2.52.15"/><path class="cls-6" d="M36.62,68a.58.58,0,1,1-.58-.57A.57.57,0,0,1,36.62,68Z"/><path class="cls-25" d="M36.6,69.84a.58.58,0,1,1-.57-.56A.57.57,0,0,1,36.6,69.84Z"/><path class="cls-6" d="M36.6,71.66a.58.58,0,0,1-1.15,0,.58.58,0,0,1,1.15,0Z"/></g></g></g></g></svg>