<svg width="63" height="75" viewBox="0 0 63 75" fill="none" xmlns="http://www.w3.org/2000/svg">
<path fill-rule="evenodd" clip-rule="evenodd" d="M23.6143 6.25C25.589 4.2593 28.4527 3.125 31.5 3.125C34.5473 3.125 37.411 4.2593 39.3857 6.25H42C44.8995 6.25 47.25 9.04822 47.25 12.5L49.875 12.5C52.7745 12.5 55.125 15.2982 55.125 18.75V65.625C55.125 69.0768 52.7745 71.875 49.875 71.875H13.125C10.2255 71.875 7.875 69.0768 7.875 65.625V18.75C7.875 15.2982 10.2255 12.5 13.125 12.5L15.75 12.5C15.75 9.04822 18.1005 6.25 21 6.25H23.6143ZM42 21.875C43.9432 21.875 45.6399 20.6181 46.5476 18.75H49.875V65.625H13.125V18.75H16.4524C17.3601 20.6181 19.0568 21.875 21 21.875H42ZM25.8763 12.5L26.6612 11.4231C27.5236 10.2398 29.3722 9.37501 31.5 9.37501C33.6278 9.37501 35.4764 10.2398 36.3388 11.4231L37.1238 12.5H42V15.625H21V12.5H24.6786H25.8763Z" fill="#8F8F8F"/>
<rect x="28" y="26" width="17" height="2" fill="#C4C4C4"/>
<rect x="28" y="29" width="17" height="2" fill="#C4C4C4"/>
<rect x="28" y="37" width="17" height="2" fill="#C4C4C4"/>
<rect x="28" y="40" width="17" height="2" fill="#C4C4C4"/>
<rect x="28" y="48" width="17" height="2" fill="#C4C4C4"/>
<rect x="28" y="51" width="17" height="2" fill="#C4C4C4"/>
<path fill-rule="evenodd" clip-rule="evenodd" d="M16.5 25.5H23.5C24.05 25.5 24.5 25.95 24.5 26.5V33.5C24.5 34.05 24.05 34.5 23.5 34.5H16.5C15.95 34.5 15.5 34.05 15.5 33.5V26.5C15.5 25.95 15.95 25.5 16.5 25.5ZM23.5 33.5V26.5H16.5V33.5H23.5Z" fill="black" fill-opacity="0.54"/>
<path fill-rule="evenodd" clip-rule="evenodd" d="M16.5 47.5H23.5C24.05 47.5 24.5 47.95 24.5 48.5V55.5C24.5 56.05 24.05 56.5 23.5 56.5H16.5C15.95 56.5 15.5 56.05 15.5 55.5V48.5C15.5 47.95 15.95 47.5 16.5 47.5ZM23.5 55.5V48.5H16.5V55.5H23.5Z" fill="black" fill-opacity="0.54"/>
<path fill-rule="evenodd" clip-rule="evenodd" d="M16.5 36.5H23.5C24.05 36.5 24.5 36.95 24.5 37.5V44.5C24.5 45.05 24.05 45.5 23.5 45.5H16.5C15.95 45.5 15.5 45.05 15.5 44.5V37.5C15.5 36.95 15.95 36.5 16.5 36.5ZM23.5 44.5V37.5H16.5V44.5H23.5Z" fill="black" fill-opacity="0.54"/>
</svg>
