<svg xmlns="http://www.w3.org/2000/svg" viewBox="0 0 90.86 50.74"><defs><style>.cls-1{fill:#00b0f0;}.cls-2{fill:#50c9f5;}</style></defs><title>wr</title><g id="Layer_2" data-name="Layer 2"><g id="Layer_1_copy_3" data-name="Layer 1 copy 3"><g id="_01" data-name="01"><path class="cls-1" d="M62.7,33V21.11A17.63,17.63,0,0,0,49.11,4,4,4,0,0,0,41,4,17.63,17.63,0,0,0,27.44,21.11V33a5.31,5.31,0,0,0-5.31,5.31V42H68V38.27A5.31,5.31,0,0,0,62.7,33Z"/><path class="cls-1" d="M45.07,50.74a7.69,7.69,0,0,0,7.39-5.59H37.68A7.69,7.69,0,0,0,45.07,50.74Z"/><path class="cls-2" d="M13.07,20.84a17.3,17.3,0,0,1,2.64-9.21,1.93,1.93,0,0,0-3.28-2.05,21.24,21.24,0,0,0,.16,22.77,1.93,1.93,0,1,0,3.25-2.1A17.31,17.31,0,0,1,13.07,20.84Z"/><path class="cls-2" d="M4.12,20.84a26.27,26.27,0,0,1,4-13.95A2.06,2.06,0,1,0,4.62,4.7a30.47,30.47,0,0,0,.24,32.64A2.06,2.06,0,1,0,8.31,35.1,26.23,26.23,0,0,1,4.12,20.84Z"/><path class="cls-2" d="M75.77,9a1.93,1.93,0,0,0-.62,2.66A17.38,17.38,0,0,1,75,30.25a1.94,1.94,0,0,0,.58,2.68,1.92,1.92,0,0,0,1.05.31,2,2,0,0,0,1.63-.89,21.24,21.24,0,0,0,.16-22.77A1.93,1.93,0,0,0,75.77,9Z"/><path class="cls-2" d="M86.24,4.7a2.06,2.06,0,0,0-3.49,2.19,26.32,26.32,0,0,1-.2,28.21A2.07,2.07,0,0,0,83.16,38a2.11,2.11,0,0,0,1.12.33A2.05,2.05,0,0,0,86,37.34,30.5,30.5,0,0,0,86.24,4.7Z"/></g></g></g></svg>