<svg xmlns="http://www.w3.org/2000/svg" viewBox="0 0 47.23 68.19"><defs><style>.cls-1,.cls-5{fill:#00b0f0;}.cls-2{fill:#c9ebfc;}.cls-3,.cls-4{fill:#50c9f5;}.cls-4{stroke:#50c9f5;}.cls-4,.cls-5{stroke-miterlimit:10;}.cls-5{stroke:#00b0f0;}.cls-6{fill:#fff;}</style></defs><title>one-two</title><g id="Layer_2" data-name="Layer 2"><g id="Layer_1_copy_3" data-name="Layer 1 copy 3"><g id="_05" data-name="05"><path class="cls-1" d="M0,33V10.09a.57.57,0,0,1,.57-.57H11.76a.59.59,0,0,1,.48.26.62.62,0,0,1,0,.56A2.58,2.58,0,0,0,12,11.41V14H35.11V11.41a2.46,2.46,0,0,0-.24-1.07.59.59,0,0,1,0-.56.56.56,0,0,1,.48-.26H46.66a.56.56,0,0,1,.57.57V67.62a.56.56,0,0,1-.57.57H.57A.57.57,0,0,1,0,67.62V46.7M1.14,47v20.1h45V10.66H36.18a3.82,3.82,0,0,1,.08.75v3.13a.58.58,0,0,1-.57.57H11.46a.57.57,0,0,1-.57-.57V11.41a3.81,3.81,0,0,1,.07-.75H1.14V32.72"/><path class="cls-2" d="M36,10.49a3.73,3.73,0,0,1,.17,1.11v3.09a.57.57,0,0,1-.56.57H11.62a.57.57,0,0,1-.56-.57V11.6a3.73,3.73,0,0,1,.17-1.11H1.13V67H46.05V10.49Z"/><path class="cls-1" d="M32.61,7.69h-18a3.72,3.72,0,0,0-3.7,3.73v3.15a.58.58,0,0,0,.58.58H35.73a.58.58,0,0,0,.57-.58V11.42A3.72,3.72,0,0,0,32.61,7.69Z"/><path class="cls-3" d="M29.12,5.12H26.39a.56.56,0,0,0-.49.29,2.62,2.62,0,0,1-4.56,0,.57.57,0,0,0-.5-.29H18.12a.58.58,0,0,0-.57.57v4.53a.57.57,0,0,0,.57.57h11a.57.57,0,0,0,.57-.57V5.69A.58.58,0,0,0,29.12,5.12Z"/><path class="cls-4" d="M27.36,4.23A3.75,3.75,0,1,1,23.62.5,3.73,3.73,0,0,1,27.36,4.23Z"/><path class="cls-5" d="M26.37,4.26a2.67,2.67,0,0,1-5.34,0,2.67,2.67,0,0,1,5.34,0Z"/><path class="cls-1" d="M33.61,25.65s0,0,0,0l1-3.63-.45-.32a.05.05,0,0,1,0,0L34,20.67s0,0,0,0l.43-.54h0l.34-.1s.05,0,.06,0a.07.07,0,0,1,0,.06l-.36.7.09.57.44.31.54-.11.31-.47,0-.79a.05.05,0,0,1,0-.05s.05,0,.06,0l.28.22s0,0,0,0l.17.67s0,0,0,0l-.53.79,0,0-.55.11-.59,3.71a.43.43,0,0,1,0,.05.55.55,0,0,1-1.08-.23Z"/><path class="cls-6" d="M33.86,25.71a.28.28,0,0,1,.35-.23.3.3,0,1,1-.35.23Zm.1,0a.19.19,0,0,0,.15.22.19.19,0,0,0,.23-.14.2.2,0,0,0-.15-.23A.21.21,0,0,0,34,25.73Z"/><path class="cls-1" d="M35.75,24.31l0-.06,2.92-3.87-.38-.6s0,0,0-.05l.27-1.2a.05.05,0,0,1,0-.05l.78-.43h0l.46.06a.06.06,0,0,1,.06,0,.07.07,0,0,1,0,.07l-.77.67-.16.72.38.59.68.12.61-.41L41,19s0,0,.06-.05a.08.08,0,0,1,.06,0l.23.41s0,0,0,0l-.11.88a.05.05,0,0,1,0,.05l-1,.69a0,0,0,0,1,0,0l-.7-.13L37,25a.16.16,0,0,1,0,.06.71.71,0,0,1-1.18-.79Z"/><path class="cls-6" d="M36,24.49a.39.39,0,0,1,.64.43.39.39,0,1,1-.64-.43Zm.11.08a.25.25,0,0,0,.07.34.24.24,0,0,0,.34-.07.24.24,0,0,0-.06-.34A.26.26,0,0,0,36.13,24.57Z"/><path class="cls-3" d="M41,42.24H17.66a.57.57,0,0,1-.56-.56.56.56,0,0,1,.56-.56H41a.56.56,0,0,1,.57.56A.57.57,0,0,1,41,42.24Z"/><path class="cls-3" d="M41,44.12H17.66a.56.56,0,0,1,0-1.12H41a.56.56,0,1,1,0,1.12Z"/><path class="cls-3" d="M41,46.05H17.66a.56.56,0,0,1,0-1.12H41a.56.56,0,1,1,0,1.12Z"/><path class="cls-3" d="M41,55.07H17.66a.57.57,0,0,1,0-1.13H41a.57.57,0,1,1,0,1.13Z"/><path class="cls-3" d="M41,57H17.66a.56.56,0,1,1,0-1.12H41A.56.56,0,1,1,41,57Z"/><path class="cls-3" d="M41,58.77H17.66a.56.56,0,1,1,0-1.12H41a.56.56,0,1,1,0,1.12Z"/><path class="cls-3" d="M41,29.11H17.66a.57.57,0,0,1-.56-.56.56.56,0,0,1,.56-.56H41a.56.56,0,0,1,.57.56A.57.57,0,0,1,41,29.11Z"/><path class="cls-3" d="M41,31H17.66a.56.56,0,0,1-.56-.56.57.57,0,0,1,.56-.57H41a.57.57,0,0,1,.57.57A.56.56,0,0,1,41,31Z"/><path class="cls-3" d="M41,32.75H17.66a.56.56,0,0,1,0-1.12H41a.56.56,0,1,1,0,1.12Z"/><rect class="cls-1" x="5.84" y="25.38" width="7.57" height="7.76" rx="0.25"/><path class="cls-1" d="M13.16,25.63v7.26H6.09V25.63h7.07m0-.5H6.09a.5.5,0,0,0-.5.5v7.26a.5.5,0,0,0,.5.5h7.07a.5.5,0,0,0,.5-.5V25.63a.51.51,0,0,0-.5-.5Z"/><rect class="cls-1" x="5.84" y="38.18" width="7.57" height="7.76" rx="0.25"/><path class="cls-1" d="M13.16,38.43v7.26H6.09V38.43h7.07m0-.5H6.09a.5.5,0,0,0-.5.5v7.26a.5.5,0,0,0,.5.5h7.07a.5.5,0,0,0,.5-.5V38.43a.51.51,0,0,0-.5-.5Z"/><rect class="cls-1" x="5.84" y="51.27" width="7.57" height="7.76" rx="0.25"/><path class="cls-1" d="M13.16,51.52v7.26H6.09V51.52h7.07m0-.5H6.09a.5.5,0,0,0-.5.5v7.26a.5.5,0,0,0,.5.5h7.07a.5.5,0,0,0,.5-.5V51.52a.51.51,0,0,0-.5-.5Z"/></g></g></g></svg>