<svg width="114" height="13" viewBox="0 0 114 13" fill="none" xmlns="http://www.w3.org/2000/svg">
<path d="M3.9009 4.3C4.6849 4.3 5.33357 4.44 5.8469 4.72C6.36957 4.99067 6.75223 5.35467 6.9949 5.812C7.23757 6.26 7.3589 6.75933 7.3589 7.31V12H6.2109V7.324C6.2109 6.68933 6.02423 6.19 5.6509 5.826C5.2869 5.462 4.69423 5.28 3.8729 5.28C2.95823 5.28 2.29557 5.53667 1.8849 6.05C1.47423 6.554 1.2689 7.30067 1.2689 8.29C1.2689 9.326 1.4369 10.0633 1.7729 10.502C2.11823 10.9407 2.6409 11.16 3.3409 11.16C3.7609 11.16 4.0829 11.1227 4.3069 11.048V12C3.9989 12.0933 3.61157 12.14 3.1449 12.14C2.23023 12.14 1.49757 11.8227 0.946899 11.188C0.396232 10.544 0.120898 9.578 0.120898 8.29C0.120898 7.03 0.433565 6.05 1.0589 5.35C1.69357 4.65 2.6409 4.3 3.9009 4.3ZM5.29696 2.046C5.29696 1.64467 5.44163 1.30867 5.73096 1.038C6.01096 0.758 6.35629 0.618 6.76696 0.618C7.17763 0.618 7.52296 0.758 7.80296 1.038C8.08296 1.30867 8.22296 1.64467 8.22296 2.046C8.22296 2.44733 8.08296 2.78333 7.80296 3.054C7.52296 3.32467 7.17763 3.46 6.76696 3.46C6.35629 3.46 6.01096 3.32467 5.73096 3.054C5.44163 2.78333 5.29696 2.44733 5.29696 2.046ZM6.06696 2.046C6.06696 2.23267 6.13696 2.396 6.27696 2.536C6.40763 2.66667 6.57096 2.732 6.76696 2.732C6.95363 2.732 7.11696 2.66667 7.25696 2.536C7.38763 2.396 7.45296 2.23267 7.45296 2.046C7.45296 1.85933 7.38763 1.696 7.25696 1.556C7.11696 1.416 6.95363 1.346 6.76696 1.346C6.57096 1.346 6.40763 1.416 6.27696 1.556C6.13696 1.696 6.06696 1.85933 6.06696 2.046ZM12.353 7.114C12.353 6.65667 12.3063 6.302 12.213 6.05C12.129 5.798 11.9563 5.60667 11.695 5.476C11.443 5.34533 11.0603 5.28 10.547 5.28C10.2483 5.28 9.92163 5.31267 9.56696 5.378C9.22163 5.44333 8.90429 5.532 8.61496 5.644V4.692C8.90429 4.58 9.24029 4.48667 9.62296 4.412C10.0056 4.33733 10.3836 4.3 10.757 4.3C11.7183 4.3 12.4136 4.51467 12.843 4.944C13.2816 5.364 13.501 6.04533 13.501 6.988V12H12.353V7.114ZM16.6153 4.44V10.376C16.6153 10.6093 16.6666 10.782 16.7693 10.894C16.8813 11.006 17.0493 11.062 17.2733 11.062H18.0713V12H16.7553C16.354 12 16.0366 11.8787 15.8033 11.636C15.5793 11.384 15.4673 11.0573 15.4673 10.656V4.44H16.6153ZM20.8946 4.44V9.41C20.8946 10.026 21.0299 10.474 21.3006 10.754C21.5806 11.0247 22.0286 11.16 22.6446 11.16C23.1019 11.16 23.5313 11.0667 23.9326 10.88C24.3433 10.6933 24.6979 10.4413 24.9966 10.124V4.44H26.1446V12H25.1086L25.0386 11.09C24.2639 11.79 23.3399 12.14 22.2666 12.14C21.4546 12.14 20.8293 11.9067 20.3906 11.44C19.9613 10.9733 19.7466 10.3013 19.7466 9.424V4.44H20.8946ZM20.5681 3.166L20.6241 2.34H26.1261V3.166H20.5681ZM29.2481 4.44V9.41C29.2481 10.026 29.3835 10.474 29.6541 10.754C29.9341 11.0247 30.3821 11.16 30.9981 11.16C31.4555 11.16 31.8848 11.0667 32.2861 10.88C32.6968 10.6933 33.0515 10.4413 33.3501 10.124V4.44H34.4981V12H33.4621L33.3921 11.09C32.6175 11.79 31.6935 12.14 30.6201 12.14C29.8081 12.14 29.1828 11.9067 28.7441 11.44C28.3148 10.9733 28.1001 10.3013 28.1001 9.424V4.44H29.2481ZM38.8196 7.632C38.4556 7.72533 38.1896 7.87467 38.0216 8.08C37.8536 8.28533 37.7696 8.57933 37.7696 8.962V12H36.6216V8.934C36.6216 8.52333 36.7103 8.178 36.8876 7.898C37.0743 7.60867 37.3636 7.408 37.7556 7.296L36.1736 6.932V5.588C36.5656 5.21467 37.0603 4.90667 37.6576 4.664C38.2643 4.42133 38.941 4.3 39.6876 4.3C40.7983 4.3 41.629 4.538 42.1796 5.014C42.7303 5.48067 43.0056 6.204 43.0056 7.184V12H41.8576V7.142C41.8576 6.45133 41.6943 5.97067 41.3676 5.7C41.041 5.42 40.481 5.28 39.6876 5.28C39.165 5.28 38.675 5.35467 38.2176 5.504C37.7696 5.644 37.4243 5.83533 37.1816 6.078V6.372L38.8196 6.764V7.632ZM48.0092 7.114C48.0092 6.65667 47.9625 6.302 47.8692 6.05C47.7852 5.798 47.6125 5.60667 47.3512 5.476C47.0992 5.34533 46.7165 5.28 46.2032 5.28C45.9045 5.28 45.5779 5.31267 45.2232 5.378C44.8779 5.44333 44.5605 5.532 44.2712 5.644V4.692C44.5605 4.58 44.8965 4.48667 45.2792 4.412C45.6619 4.33733 46.0399 4.3 46.4132 4.3C47.3745 4.3 48.0699 4.51467 48.4992 4.944C48.9379 5.364 49.1572 6.04533 49.1572 6.988V12H48.0092V7.114ZM55.3656 10.068C55.3656 9.79733 55.3002 9.58267 55.1696 9.424C55.0482 9.26533 54.8802 9.13933 54.6656 9.046C54.4602 8.95267 54.1476 8.84067 53.7276 8.71L53.2236 8.542C52.7102 8.374 52.2902 8.206 51.9636 8.038C51.6369 7.87 51.3662 7.65067 51.1516 7.38C50.9462 7.1 50.8436 6.75467 50.8436 6.344C50.8436 5.68133 51.0909 5.17733 51.5856 4.832C52.0802 4.47733 52.8082 4.3 53.7696 4.3C54.1616 4.3 54.5582 4.33267 54.9596 4.398C55.3609 4.46333 55.7062 4.54267 55.9956 4.636V5.644C55.3702 5.40133 54.6842 5.28 53.9376 5.28C53.2562 5.28 52.7616 5.35467 52.4536 5.504C52.1456 5.644 51.9916 5.91467 51.9916 6.316C51.9916 6.57733 52.0709 6.792 52.2296 6.96C52.3976 7.11867 52.6076 7.24933 52.8596 7.352C53.1209 7.44533 53.5549 7.59 54.1616 7.786C54.6842 7.954 55.1089 8.13133 55.4356 8.318C55.7716 8.49533 56.0329 8.724 56.2196 9.004C56.4156 9.284 56.5136 9.634 56.5136 10.054C56.5136 11.4447 55.5149 12.14 53.5176 12.14C53.0416 12.14 52.5796 12.1073 52.1316 12.042C51.6929 11.9767 51.3289 11.888 51.0396 11.776V10.754C51.7302 11.0247 52.4909 11.16 53.3216 11.16C54.0589 11.16 54.5816 11.09 54.8896 10.95C55.2069 10.8007 55.3656 10.5067 55.3656 10.068ZM58.0799 8.654C58.0799 8.38333 58.1639 8.108 58.3319 7.828C58.4999 7.548 58.7332 7.21667 59.0319 6.834C59.2652 6.53533 59.4332 6.302 59.5359 6.134C59.6479 5.95667 59.7039 5.798 59.7039 5.658C59.7039 5.42467 59.5919 5.308 59.3679 5.308C59.1626 5.308 58.9712 5.39667 58.7939 5.574V6.12H57.9119V4.44H58.7939V4.832C59.0739 4.57067 59.4099 4.44 59.8019 4.44C60.1099 4.44 60.3526 4.52867 60.5299 4.706C60.7166 4.874 60.8099 5.11667 60.8099 5.434C60.8099 5.70467 60.7399 5.96133 60.5999 6.204C60.4692 6.44667 60.2686 6.74533 59.9979 7.1C59.7272 7.464 59.5312 7.758 59.4099 7.982C59.2886 8.206 59.2279 8.43933 59.2279 8.682V9.536C59.2279 10.6187 59.8672 11.16 61.1459 11.16C62.4432 11.16 63.0919 10.6093 63.0919 9.508V8.542C63.0919 8.02867 63.0079 7.674 62.8399 7.478C62.6719 7.282 62.3639 7.184 61.9159 7.184H61.5239L61.5799 6.274H61.8879C62.3452 6.274 62.6579 6.17133 62.8259 5.966C63.0032 5.75133 63.0919 5.40133 63.0919 4.916V4.3H64.2399V4.902C64.2399 5.39667 64.1652 5.78867 64.0159 6.078C63.8759 6.36733 63.6052 6.582 63.2039 6.722C63.6239 6.88067 63.8992 7.10467 64.0299 7.394C64.1699 7.674 64.2399 8.066 64.2399 8.57V9.396C64.2399 10.2733 63.9646 10.95 63.4139 11.426C62.8726 11.902 62.1166 12.14 61.1459 12.14C60.1566 12.14 59.3959 11.9067 58.8639 11.44C58.3412 10.9733 58.0799 10.2967 58.0799 9.41V8.654ZM63.1096 3.166V0.897999H64.2576V3.166H63.1096ZM68.4856 5.28C67.5896 5.28 66.773 5.40133 66.0356 5.644V4.692C66.3996 4.57067 66.8196 4.47733 67.2956 4.412C67.781 4.33733 68.2756 4.3 68.7796 4.3C70.049 4.3 70.973 4.622 71.5516 5.266C72.1303 5.91 72.4196 6.89933 72.4196 8.234C72.4196 9.54067 72.1303 10.5207 71.5516 11.174C70.973 11.818 70.063 12.14 68.8216 12.14C68.2803 12.14 67.753 12.0933 67.2396 12C66.7356 11.8973 66.297 11.7667 65.9236 11.608V7.8H68.6956L68.7516 8.738H67.0716V10.88C67.613 11.0667 68.187 11.16 68.7936 11.16C69.4096 11.16 69.895 11.0667 70.2496 10.88C70.6043 10.6933 70.861 10.39 71.0196 9.97C71.1876 9.54067 71.2716 8.962 71.2716 8.234C71.2716 7.478 71.183 6.89 71.0056 6.47C70.8283 6.04067 70.539 5.73733 70.1376 5.56C69.7456 5.37333 69.195 5.28 68.4856 5.28ZM80.504 9.424C80.504 10.3013 80.28 10.9733 79.832 11.44C79.3933 11.9067 78.768 12.14 77.956 12.14C77.3773 12.14 76.8686 12.0513 76.43 11.874C76.0006 11.6967 75.5946 11.4353 75.212 11.09L75.142 12H74.106V4.44H75.254V10.124C75.562 10.4413 75.912 10.6933 76.304 10.88C76.696 11.0667 77.1206 11.16 77.578 11.16C78.194 11.16 78.642 11.0247 78.922 10.754C79.2113 10.474 79.356 10.026 79.356 9.41V4.44H80.504V9.424ZM84.7415 5.28C83.8455 5.28 83.0288 5.40133 82.2915 5.644V4.692C82.6555 4.57067 83.0755 4.47733 83.5515 4.412C84.0368 4.33733 84.5315 4.3 85.0355 4.3C86.3048 4.3 87.2288 4.622 87.8075 5.266C88.3862 5.91 88.6755 6.89933 88.6755 8.234C88.6755 9.54067 88.3862 10.5207 87.8075 11.174C87.2288 11.818 86.3188 12.14 85.0775 12.14C84.5362 12.14 84.0088 12.0933 83.4955 12C82.9915 11.8973 82.5528 11.7667 82.1795 11.608V7.8H84.9515L85.0075 8.738H83.3275V10.88C83.8688 11.0667 84.4428 11.16 85.0495 11.16C85.6655 11.16 86.1508 11.0667 86.5055 10.88C86.8602 10.6933 87.1168 10.39 87.2755 9.97C87.4435 9.54067 87.5275 8.962 87.5275 8.234C87.5275 7.478 87.4388 6.89 87.2615 6.47C87.0842 6.04067 86.7948 5.73733 86.3935 5.56C86.0015 5.37333 85.4508 5.28 84.7415 5.28ZM91.0758 5.672V6.358H93.2458L93.2038 7.24H90.0818V5.672H91.0758ZM91.0758 9.536V10.236H93.2458L93.2038 11.104H90.0818V9.536H91.0758ZM95.1662 5.602C95.1662 5.042 95.2736 4.56133 95.4882 4.16C95.7029 3.75867 96.0016 3.44133 96.3842 3.208H94.0182V2.284H97.7982V3.194C97.2382 3.43667 96.8509 3.768 96.6362 4.188C96.4216 4.608 96.3142 5.20533 96.3142 5.98V10.376C96.3142 10.6093 96.3656 10.782 96.4682 10.894C96.5802 11.006 96.7482 11.062 96.9722 11.062H97.7702V12H96.4542C96.0529 12 95.7356 11.8787 95.5022 11.636C95.2782 11.384 95.1662 11.0573 95.1662 10.656V5.602ZM100.205 6.89H102.711C103.308 6.89 103.728 6.76867 103.971 6.526C104.214 6.274 104.335 5.88667 104.335 5.364V4.44H105.483V5.35C105.483 6.42333 105.082 7.086 104.279 7.338C104.718 7.478 105.012 7.70667 105.161 8.024C105.32 8.332 105.399 8.738 105.399 9.242V12H104.251V9.382C104.251 8.98067 104.2 8.668 104.097 8.444C104.004 8.22 103.84 8.06133 103.607 7.968C103.383 7.87467 103.061 7.828 102.641 7.828H100.205V12H99.0571V4.44H100.205V6.89ZM110.324 5.28C109.447 5.28 108.639 5.40133 107.902 5.644V4.692C108.257 4.57067 108.667 4.47733 109.134 4.412C109.601 4.33733 110.067 4.3 110.534 4.3C111.598 4.3 112.373 4.524 112.858 4.972C113.353 5.41067 113.6 6.11067 113.6 7.072V12H112.452V8.528H110.044C109.4 8.528 108.929 8.63533 108.63 8.85C108.341 9.06467 108.196 9.41 108.196 9.886C108.196 10.3527 108.327 10.684 108.588 10.88C108.859 11.0667 109.297 11.16 109.904 11.16C110.268 11.16 110.585 11.1227 110.856 11.048V12C110.501 12.0933 110.081 12.14 109.596 12.14C108.831 12.14 108.219 11.958 107.762 11.594C107.305 11.2207 107.076 10.6513 107.076 9.886C107.076 9.158 107.319 8.59333 107.804 8.192C108.289 7.78133 109.013 7.576 109.974 7.576H112.452V6.988C112.452 6.54933 112.387 6.20867 112.256 5.966C112.125 5.72333 111.906 5.55067 111.598 5.448C111.299 5.336 110.875 5.28 110.324 5.28ZM112.465 3.166V0.897999H113.613V3.166H112.465Z" fill="black"/>
</svg>
