<svg width="85" height="15" viewBox="0 0 85 15" fill="none" xmlns="http://www.w3.org/2000/svg">
<path d="M6.1816 8.33C6.1816 7.92867 6.12094 7.65333 5.9996 7.504C5.8876 7.35467 5.66827 7.28 5.3416 7.28C4.85627 7.28 4.52494 7.49933 4.3476 7.938H3.5776C3.4376 7.69533 3.2976 7.52733 3.1576 7.434C3.0176 7.33133 2.82627 7.28 2.5836 7.28C2.0796 7.28 1.7296 7.53667 1.5336 8.05C1.3376 8.554 1.2396 9.30067 1.2396 10.29C1.2396 11.326 1.4076 12.0633 1.7436 12.502C2.08894 12.9407 2.6116 13.16 3.3116 13.16C3.7316 13.16 4.0536 13.1227 4.2776 13.048V14C3.9696 14.0933 3.58227 14.14 3.1156 14.14C2.20094 14.14 1.46827 13.8227 0.917602 13.188C0.366935 12.544 0.0916016 11.578 0.0916016 10.29C0.0916016 9.01133 0.292268 8.02667 0.693602 7.336C1.10427 6.64533 1.6876 6.3 2.4436 6.3C2.79827 6.3 3.09227 6.36067 3.3256 6.482C3.55894 6.60333 3.7736 6.79 3.9696 7.042C4.17494 6.80867 4.42694 6.62667 4.7256 6.496C5.0336 6.36533 5.34627 6.3 5.6636 6.3C6.20494 6.3 6.6156 6.46333 6.8956 6.79C7.18494 7.10733 7.3296 7.56933 7.3296 8.176V14H6.1816V8.33ZM1.75366 5.166L1.80966 4.34H7.31166V5.166H1.75366ZM12.7857 6.3C13.5697 6.3 14.2183 6.44 14.7317 6.72C15.2543 6.99067 15.637 7.35467 15.8797 7.812C16.1223 8.26 16.2437 8.75933 16.2437 9.31V14H15.0957V9.324C15.0957 8.68933 14.909 8.19 14.5357 7.826C14.1717 7.462 13.579 7.28 12.7577 7.28C11.843 7.28 11.1803 7.53667 10.7697 8.05C10.359 8.554 10.1537 9.30067 10.1537 10.29C10.1537 11.326 10.3217 12.0633 10.6577 12.502C11.003 12.9407 11.5257 13.16 12.2257 13.16C12.6457 13.16 12.9677 13.1227 13.1917 13.048V14C12.8837 14.0933 12.4963 14.14 12.0297 14.14C11.115 14.14 10.3823 13.8227 9.83166 13.188C9.281 12.544 9.00566 11.578 9.00566 10.29C9.00566 9.03 9.31833 8.05 9.94366 7.35C10.5783 6.65 11.5257 6.3 12.7857 6.3ZM24.0097 8.33C24.0097 7.92867 23.9491 7.65333 23.8277 7.504C23.7157 7.35467 23.4964 7.28 23.1697 7.28C22.6844 7.28 22.3531 7.49933 22.1757 7.938H21.4057C21.2657 7.69533 21.1257 7.52733 20.9857 7.434C20.8457 7.33133 20.6544 7.28 20.4117 7.28C19.9077 7.28 19.5577 7.53667 19.3617 8.05C19.1657 8.554 19.0677 9.30067 19.0677 10.29C19.0677 11.326 19.2357 12.0633 19.5717 12.502C19.9171 12.9407 20.4397 13.16 21.1397 13.16C21.5597 13.16 21.8817 13.1227 22.1057 13.048V14C21.7977 14.0933 21.4104 14.14 20.9437 14.14C20.0291 14.14 19.2964 13.8227 18.7457 13.188C18.1951 12.544 17.9197 11.578 17.9197 10.29C17.9197 9.01133 18.1204 8.02667 18.5217 7.336C18.9324 6.64533 19.5157 6.3 20.2717 6.3C20.6264 6.3 20.9204 6.36067 21.1537 6.482C21.3871 6.60333 21.6017 6.79 21.7977 7.042C22.0031 6.80867 22.2551 6.62667 22.5537 6.496C22.8617 6.36533 23.1744 6.3 23.4917 6.3C24.0331 6.3 24.4437 6.46333 24.7237 6.79C25.0131 7.10733 25.1577 7.56933 25.1577 8.176V14H24.0097V8.33ZM23.0818 3.318V4.34H26.8478L26.7918 5.166H22.1158V3.318H23.0818ZM24.0758 1.582H26.2178L26.1758 2.366H23.2778V1.26H22.4238V0.49H24.0758V1.582ZM29.8718 6.44H30.4878C31.5425 6.44 32.3078 6.72467 32.7838 7.294C33.2598 7.86333 33.4978 8.75 33.4978 9.954C33.4978 11.3727 33.1945 12.4273 32.5878 13.118C31.9905 13.7993 31.1925 14.14 30.1938 14.14C29.6431 14.14 29.2325 14.0887 28.9618 13.986L26.8338 8.806H27.9538L29.7458 13.16L30.0258 13.174C30.8191 13.174 31.4025 12.9127 31.7758 12.39C32.1585 11.858 32.3498 11.0507 32.3498 9.968C32.3498 9.296 32.2891 8.778 32.1678 8.414C32.0465 8.04067 31.8411 7.77467 31.5518 7.616C31.2718 7.45733 30.8751 7.378 30.3618 7.378H29.8718V6.44ZM40.9902 7.378C41.2795 7.77 41.4242 8.33467 41.4242 9.072V14H40.2762V10.528H37.8682C37.2242 10.528 36.7529 10.6353 36.4542 10.85C36.1649 11.0647 36.0202 11.41 36.0202 11.886C36.0202 12.3527 36.1509 12.684 36.4122 12.88C36.6829 13.0667 37.1215 13.16 37.7282 13.16C38.0922 13.16 38.4095 13.1227 38.6802 13.048V14C38.3255 14.0933 37.9055 14.14 37.4202 14.14C36.6549 14.14 36.0435 13.958 35.5862 13.594C35.1289 13.2207 34.9002 12.6513 34.9002 11.886C34.9002 11.158 35.1429 10.5933 35.6282 10.192C36.1135 9.78133 36.8369 9.576 37.7982 9.576H40.2762V8.988C40.2762 8.54933 40.2109 8.20867 40.0802 7.966C39.9495 7.72333 39.7302 7.55067 39.4222 7.448C39.1235 7.336 38.6989 7.28 38.1482 7.28C37.2709 7.28 36.4635 7.40133 35.7262 7.644V6.692C36.0809 6.57067 36.4915 6.47733 36.9582 6.412C37.4249 6.33733 37.8915 6.3 38.3582 6.3C38.7969 6.3 39.2262 6.34667 39.6462 6.44H42.0542L41.9982 7.378H40.9902ZM35.9197 5.166L35.9757 4.34H41.4777V5.166H35.9197ZM44.5997 6.44V11.41C44.5997 12.026 44.735 12.474 45.0057 12.754C45.2857 13.0247 45.7337 13.16 46.3497 13.16C46.807 13.16 47.2363 13.0667 47.6377 12.88C48.0483 12.6933 48.403 12.4413 48.7017 12.124V6.44H49.8497V14H48.8137L48.7437 13.09C47.969 13.79 47.045 14.14 45.9717 14.14C45.1597 14.14 44.5343 13.9067 44.0957 13.44C43.6663 12.9733 43.4517 12.3013 43.4517 11.424V6.44H44.5997ZM57.0552 14V9.016C57.0552 8.40933 56.9105 7.97067 56.6212 7.7C56.3319 7.42 55.8839 7.28 55.2772 7.28C54.8199 7.28 54.3952 7.37333 54.0032 7.56C53.6112 7.74667 53.2612 8.00333 52.9532 8.33V14H51.8052V6.44H52.8412L52.9112 7.35C53.2845 7.014 53.6952 6.75733 54.1432 6.58C54.5912 6.39333 55.1045 6.3 55.6832 6.3C56.4859 6.3 57.1065 6.53333 57.5452 7C57.9839 7.46667 58.2032 8.134 58.2032 9.002V14H57.0552ZM64.4007 12.068C64.4007 11.7973 64.3354 11.5827 64.2047 11.424C64.0834 11.2653 63.9154 11.1393 63.7007 11.046C63.4954 10.9527 63.1827 10.8407 62.7627 10.71L62.2587 10.542C61.7454 10.374 61.3254 10.206 60.9987 10.038C60.672 9.87 60.4014 9.65067 60.1867 9.38C59.9814 9.1 59.8787 8.75467 59.8787 8.344C59.8787 7.68133 60.126 7.17733 60.6207 6.832C61.1154 6.47733 61.8434 6.3 62.8047 6.3C63.1967 6.3 63.5934 6.33267 63.9947 6.398C64.396 6.46333 64.7414 6.54267 65.0307 6.636V7.644C64.4054 7.40133 63.7194 7.28 62.9727 7.28C62.2914 7.28 61.7967 7.35467 61.4887 7.504C61.1807 7.644 61.0267 7.91467 61.0267 8.316C61.0267 8.57733 61.106 8.792 61.2647 8.96C61.4327 9.11867 61.6427 9.24933 61.8947 9.352C62.156 9.44533 62.59 9.59 63.1967 9.786C63.7194 9.954 64.144 10.1313 64.4707 10.318C64.8067 10.4953 65.068 10.724 65.2547 11.004C65.4507 11.284 65.5487 11.634 65.5487 12.054C65.5487 13.4447 64.55 14.14 62.5527 14.14C62.0767 14.14 61.6147 14.1073 61.1667 14.042C60.728 13.9767 60.364 13.888 60.0747 13.776V12.754C60.7654 13.0247 61.526 13.16 62.3567 13.16C63.094 13.16 63.6167 13.09 63.9247 12.95C64.242 12.8007 64.4007 12.5067 64.4007 12.068ZM63.1951 3.318V4.34H66.9611L66.9051 5.166H62.2291V3.318H63.1951ZM69.6771 14H68.5431L66.8071 6.44H67.9831L69.2291 12.39L70.8251 7.392V6.44H71.6791L73.3871 12.39L74.6191 6.44H75.7811L74.0591 14H72.9111L71.3571 8.68L69.6771 14ZM79.5289 7.28C78.6609 7.28 78.2269 7.658 78.2269 8.414C78.2269 8.81533 78.3576 9.114 78.6189 9.31C78.8802 9.506 79.2396 9.604 79.6969 9.604H80.4949L80.5649 10.472H79.6549C79.1602 10.472 78.7916 10.5887 78.5489 10.822C78.3062 11.0553 78.1849 11.396 78.1849 11.844C78.1849 12.292 78.3576 12.6233 78.7029 12.838C79.0576 13.0527 79.5989 13.16 80.3269 13.16C81.0549 13.16 81.5962 13.02 81.9509 12.74C82.3056 12.46 82.4829 12.0213 82.4829 11.424V6.44H83.6309V11.228C83.6309 12.1893 83.3649 12.9173 82.8329 13.412C82.3009 13.8973 81.4796 14.14 80.3689 14.14C79.3236 14.14 78.5069 13.9487 77.9189 13.566C77.3309 13.1833 77.0369 12.6093 77.0369 11.844C77.0369 11.4147 77.1349 11.0507 77.3309 10.752C77.5362 10.444 77.8209 10.2107 78.1849 10.052C77.8489 9.94933 77.5782 9.758 77.3729 9.478C77.1769 9.198 77.0789 8.84333 77.0789 8.414C77.0789 7.73267 77.2842 7.21 77.6949 6.846C78.1056 6.482 78.6469 6.3 79.3189 6.3C79.7669 6.3 80.1542 6.35133 80.4809 6.454V7.406C80.2289 7.322 79.9116 7.28 79.5289 7.28ZM81.5564 4.116V5.166H80.5904V3.29H84.5244L84.4824 4.116H81.5564Z" fill="black"/>
</svg>
