<svg width="38" height="13" viewBox="0 0 38 13" fill="none" xmlns="http://www.w3.org/2000/svg">
<path d="M5.55617 12V7.016C5.55617 6.40933 5.41151 5.97067 5.12217 5.7C4.83284 5.42 4.38484 5.28 3.77817 5.28C3.32084 5.28 2.89617 5.37333 2.50417 5.56C2.11217 5.74667 1.76217 6.00333 1.45417 6.33V12H0.306172V4.44H1.34217L1.41217 5.35C1.78551 5.014 2.19617 4.75733 2.64417 4.58C3.09217 4.39333 3.60551 4.3 4.18417 4.3C4.98684 4.3 5.60751 4.53333 6.04617 5C6.48484 5.46667 6.70417 6.134 6.70417 7.002V12H5.55617ZM4.64169 2.046C4.64169 1.64467 4.78635 1.30867 5.07569 1.038C5.35569 0.758 5.70102 0.618 6.11169 0.618C6.52235 0.618 6.86769 0.758 7.14769 1.038C7.42769 1.30867 7.56769 1.64467 7.56769 2.046C7.56769 2.44733 7.42769 2.78333 7.14769 3.054C6.86769 3.32467 6.52235 3.46 6.11169 3.46C5.70102 3.46 5.35569 3.32467 5.07569 3.054C4.78635 2.78333 4.64169 2.44733 4.64169 2.046ZM5.41169 2.046C5.41169 2.23267 5.48169 2.396 5.62169 2.536C5.75235 2.66667 5.91569 2.732 6.11169 2.732C6.29835 2.732 6.46169 2.66667 6.60169 2.536C6.73235 2.396 6.79769 2.23267 6.79769 2.046C6.79769 1.85933 6.73235 1.696 6.60169 1.556C6.46169 1.416 6.29835 1.346 6.11169 1.346C5.91569 1.346 5.75235 1.416 5.62169 1.556C5.48169 1.696 5.41169 1.85933 5.41169 2.046ZM11.6977 7.114C11.6977 6.65667 11.651 6.302 11.5577 6.05C11.4737 5.798 11.301 5.60667 11.0397 5.476C10.7877 5.34533 10.405 5.28 9.89169 5.28C9.59302 5.28 9.26635 5.31267 8.91169 5.378C8.56635 5.44333 8.24902 5.532 7.95969 5.644V4.692C8.24902 4.58 8.58502 4.48667 8.96769 4.412C9.35035 4.33733 9.72835 4.3 10.1017 4.3C11.063 4.3 11.7584 4.51467 12.1877 4.944C12.6264 5.364 12.8457 6.04533 12.8457 6.988V12H11.6977V7.114ZM14.532 10.782C15.148 11.034 15.764 11.16 16.38 11.16C17.0614 11.16 17.5934 11.062 17.976 10.866C18.368 10.67 18.6434 10.362 18.802 9.942C18.9607 9.51267 19.04 8.93867 19.04 8.22C19.04 7.17467 18.83 6.42333 18.41 5.966C17.9994 5.50867 17.3087 5.28 16.338 5.28C15.7127 5.28 15.1107 5.41067 14.532 5.672V4.692C15.1294 4.43067 15.8107 4.3 16.576 4.3C18.984 4.3 20.188 5.60667 20.188 8.22C20.188 9.51733 19.908 10.4973 19.348 11.16C18.788 11.8133 17.8874 12.14 16.646 12.14C15.8434 12.14 15.1387 12.0093 14.532 11.748V10.782ZM24.9047 7.114C24.9047 6.65667 24.8581 6.302 24.7647 6.05C24.6807 5.798 24.5081 5.60667 24.2467 5.476C23.9947 5.34533 23.6121 5.28 23.0987 5.28C22.8001 5.28 22.4734 5.31267 22.1187 5.378C21.7734 5.44333 21.4561 5.532 21.1667 5.644V4.692C21.4561 4.58 21.7921 4.48667 22.1747 4.412C22.5574 4.33733 22.9354 4.3 23.3087 4.3C24.2701 4.3 24.9654 4.51467 25.3947 4.944C25.8334 5.364 26.0527 6.04533 26.0527 6.988V12H24.9047V7.114ZM32.2611 10.068C32.2611 9.79733 32.1957 9.58267 32.0651 9.424C31.9437 9.26533 31.7757 9.13933 31.5611 9.046C31.3557 8.95267 31.0431 8.84067 30.6231 8.71L30.1191 8.542C29.6057 8.374 29.1857 8.206 28.8591 8.038C28.5324 7.87 28.2617 7.65067 28.0471 7.38C27.8417 7.1 27.7391 6.75467 27.7391 6.344C27.7391 5.68133 27.9864 5.17733 28.4811 4.832C28.9757 4.47733 29.7037 4.3 30.6651 4.3C31.0571 4.3 31.4537 4.33267 31.8551 4.398C32.2564 4.46333 32.6017 4.54267 32.8911 4.636V5.644C32.2657 5.40133 31.5797 5.28 30.8331 5.28C30.1517 5.28 29.6571 5.35467 29.3491 5.504C29.0411 5.644 28.8871 5.91467 28.8871 6.316C28.8871 6.57733 28.9664 6.792 29.1251 6.96C29.2931 7.11867 29.5031 7.24933 29.7551 7.352C30.0164 7.44533 30.4504 7.59 31.0571 7.786C31.5797 7.954 32.0044 8.13133 32.3311 8.318C32.6671 8.49533 32.9284 8.724 33.1151 9.004C33.3111 9.284 33.4091 9.634 33.4091 10.054C33.4091 11.4447 32.4104 12.14 30.4131 12.14C29.9371 12.14 29.4751 12.1073 29.0271 12.042C28.5884 11.9767 28.2244 11.888 27.9351 11.776V10.754C28.6257 11.0247 29.3864 11.16 30.2171 11.16C30.9544 11.16 31.4771 11.09 31.7851 10.95C32.1024 10.8007 32.2611 10.5067 32.2611 10.068ZM35.8014 5.672V6.358H37.9714L37.9294 7.24H34.8074V5.672H35.8014ZM35.8014 9.536V10.236H37.9714L37.9294 11.104H34.8074V9.536H35.8014Z" fill="black"/>
</svg>
