<svg width="100" height="34" viewBox="0 0 100 34" fill="none" xmlns="http://www.w3.org/2000/svg">
<path d="M6.87398 5.378C7.16332 5.77 7.30798 6.33467 7.30798 7.072V12H6.15998V8.528H3.75198C3.10798 8.528 2.63665 8.63533 2.33798 8.85C2.04865 9.06467 1.90398 9.41 1.90398 9.886C1.90398 10.3527 2.03465 10.684 2.29598 10.88C2.56665 11.0667 3.00532 11.16 3.61198 11.16C3.97598 11.16 4.29332 11.1227 4.56398 11.048V12C4.20932 12.0933 3.78932 12.14 3.30398 12.14C2.53865 12.14 1.92732 11.958 1.46998 11.594C1.01265 11.2207 0.783984 10.6513 0.783984 9.886C0.783984 9.158 1.02665 8.59333 1.51198 8.192C1.99732 7.78133 2.72065 7.576 3.68198 7.576H6.15998V6.988C6.15998 6.54933 6.09465 6.20867 5.96398 5.966C5.83332 5.72333 5.61398 5.55067 5.30598 5.448C5.00732 5.336 4.58265 5.28 4.03198 5.28C3.15465 5.28 2.34732 5.40133 1.60998 5.644V4.692C1.96465 4.57067 2.37532 4.47733 2.84198 4.412C3.30865 4.33733 3.77532 4.3 4.24198 4.3C4.68065 4.3 5.10998 4.34667 5.52998 4.44H7.93799L7.88198 5.378H6.87398ZM13.5775 10.068C13.5775 9.79733 13.5121 9.58267 13.3815 9.424C13.2601 9.26533 13.0921 9.13933 12.8775 9.046C12.6721 8.95267 12.3595 8.84067 11.9395 8.71L11.4355 8.542C10.9221 8.374 10.5021 8.206 10.1755 8.038C9.8488 7.87 9.57814 7.65067 9.36347 7.38C9.15814 7.1 9.05547 6.75467 9.05547 6.344C9.05547 5.68133 9.3028 5.17733 9.79747 4.832C10.2921 4.47733 11.0201 4.3 11.9815 4.3C12.3735 4.3 12.7701 4.33267 13.1715 4.398C13.5728 4.46333 13.9181 4.54267 14.2075 4.636V5.644C13.5821 5.40133 12.8961 5.28 12.1495 5.28C11.4681 5.28 10.9735 5.35467 10.6655 5.504C10.3575 5.644 10.2035 5.91467 10.2035 6.316C10.2035 6.57733 10.2828 6.792 10.4415 6.96C10.6095 7.11867 10.8195 7.24933 11.0715 7.352C11.3328 7.44533 11.7668 7.59 12.3735 7.786C12.8961 7.954 13.3208 8.13133 13.6475 8.318C13.9835 8.49533 14.2448 8.724 14.4315 9.004C14.6275 9.284 14.7255 9.634 14.7255 10.054C14.7255 11.4447 13.7268 12.14 11.7295 12.14C11.2535 12.14 10.7915 12.1073 10.3435 12.042C9.9048 11.9767 9.5408 11.888 9.25147 11.776V10.754C9.94214 11.0247 10.7028 11.16 11.5335 11.16C12.2708 11.16 12.7935 11.09 13.1015 10.95C13.4188 10.8007 13.5775 10.5067 13.5775 10.068ZM14.4438 12.882V15.5H13.4498V13.666H12.5258L12.5818 12.882H14.4438ZM19.7218 11.16C20.4405 11.16 20.9818 11.006 21.3458 10.698C21.7098 10.39 21.8918 9.9 21.8918 9.228V2.2H23.0398V9.144C23.0398 10.1333 22.7552 10.88 22.1858 11.384C21.6165 11.888 20.7952 12.14 19.7218 12.14C18.6485 12.14 17.8272 11.888 17.2578 11.384C16.6885 10.88 16.4038 10.1333 16.4038 9.144V4.44H17.5518V9.228C17.5518 9.9 17.7338 10.39 18.0978 10.698C18.4618 11.006 19.0032 11.16 19.7218 11.16ZM27.3694 7.632C27.0054 7.72533 26.7394 7.87467 26.5714 8.08C26.4034 8.28533 26.3194 8.57933 26.3194 8.962V12H25.1714V8.934C25.1714 8.52333 25.2601 8.178 25.4374 7.898C25.6241 7.60867 25.9134 7.408 26.3054 7.296L24.7234 6.932V5.588C25.1154 5.21467 25.6101 4.90667 26.2074 4.664C26.8141 4.42133 27.4908 4.3 28.2374 4.3C29.3481 4.3 30.1788 4.538 30.7294 5.014C31.2801 5.48067 31.5554 6.204 31.5554 7.184V12H30.4074V7.142C30.4074 6.45133 30.2441 5.97067 29.9174 5.7C29.5908 5.42 29.0308 5.28 28.2374 5.28C27.7148 5.28 27.2248 5.35467 26.7674 5.504C26.3194 5.644 25.9741 5.83533 25.7314 6.078V6.372L27.3694 6.764V7.632ZM36.559 7.114C36.559 6.65667 36.5123 6.302 36.419 6.05C36.335 5.798 36.1623 5.60667 35.901 5.476C35.649 5.34533 35.2663 5.28 34.753 5.28C34.4543 5.28 34.1277 5.31267 33.773 5.378C33.4277 5.44333 33.1103 5.532 32.821 5.644V4.692C33.1103 4.58 33.4463 4.48667 33.829 4.412C34.2117 4.33733 34.5897 4.3 34.963 4.3C35.9243 4.3 36.6197 4.51467 37.049 4.944C37.4877 5.364 37.707 6.04533 37.707 6.988V12H36.559V7.114ZM43.9154 10.068C43.9154 9.79733 43.85 9.58267 43.7194 9.424C43.598 9.26533 43.43 9.13933 43.2154 9.046C43.01 8.95267 42.6974 8.84067 42.2774 8.71L41.7734 8.542C41.26 8.374 40.84 8.206 40.5134 8.038C40.1867 7.87 39.916 7.65067 39.7014 7.38C39.496 7.1 39.3934 6.75467 39.3934 6.344C39.3934 5.68133 39.6407 5.17733 40.1354 4.832C40.63 4.47733 41.358 4.3 42.3194 4.3C42.7114 4.3 43.108 4.33267 43.5094 4.398C43.9107 4.46333 44.256 4.54267 44.5454 4.636V5.644C43.92 5.40133 43.234 5.28 42.4874 5.28C41.806 5.28 41.3114 5.35467 41.0034 5.504C40.6954 5.644 40.5414 5.91467 40.5414 6.316C40.5414 6.57733 40.6207 6.792 40.7794 6.96C40.9474 7.11867 41.1574 7.24933 41.4094 7.352C41.6707 7.44533 42.1047 7.59 42.7114 7.786C43.234 7.954 43.6587 8.13133 43.9854 8.318C44.3214 8.49533 44.5827 8.724 44.7694 9.004C44.9654 9.284 45.0634 9.634 45.0634 10.054C45.0634 11.4447 44.0647 12.14 42.0674 12.14C41.5914 12.14 41.1294 12.1073 40.6814 12.042C40.2427 11.9767 39.8787 11.888 39.5894 11.776V10.754C40.28 11.0247 41.0407 11.16 41.8714 11.16C42.6087 11.16 43.1314 11.09 43.4394 10.95C43.7567 10.8007 43.9154 10.5067 43.9154 10.068ZM46.6297 8.654C46.6297 8.38333 46.7137 8.108 46.8817 7.828C47.0497 7.548 47.2831 7.21667 47.5817 6.834C47.8151 6.53533 47.9831 6.302 48.0857 6.134C48.1977 5.95667 48.2537 5.798 48.2537 5.658C48.2537 5.42467 48.1417 5.308 47.9177 5.308C47.7124 5.308 47.5211 5.39667 47.3437 5.574V6.12H46.4617V4.44H47.3437V4.832C47.6237 4.57067 47.9597 4.44 48.3517 4.44C48.6597 4.44 48.9024 4.52867 49.0797 4.706C49.2664 4.874 49.3597 5.11667 49.3597 5.434C49.3597 5.70467 49.2897 5.96133 49.1497 6.204C49.0191 6.44667 48.8184 6.74533 48.5477 7.1C48.2771 7.464 48.0811 7.758 47.9597 7.982C47.8384 8.206 47.7777 8.43933 47.7777 8.682V9.536C47.7777 10.6187 48.4171 11.16 49.6957 11.16C50.9931 11.16 51.6417 10.6093 51.6417 9.508V8.542C51.6417 8.02867 51.5577 7.674 51.3897 7.478C51.2217 7.282 50.9137 7.184 50.4657 7.184H50.0737L50.1297 6.274H50.4377C50.8951 6.274 51.2077 6.17133 51.3757 5.966C51.5531 5.75133 51.6417 5.40133 51.6417 4.916V4.3H52.7897V4.902C52.7897 5.39667 52.7151 5.78867 52.5657 6.078C52.4257 6.36733 52.1551 6.582 51.7537 6.722C52.1737 6.88067 52.4491 7.10467 52.5797 7.394C52.7197 7.674 52.7897 8.066 52.7897 8.57V9.396C52.7897 10.2733 52.5144 10.95 51.9637 11.426C51.4224 11.902 50.6664 12.14 49.6957 12.14C48.7064 12.14 47.9457 11.9067 47.4137 11.44C46.8911 10.9733 46.6297 10.2967 46.6297 9.41V8.654ZM51.6594 3.166V0.897999H52.8074V3.166H51.6594ZM57.0354 5.28C56.1394 5.28 55.3228 5.40133 54.5854 5.644V4.692C54.9494 4.57067 55.3694 4.47733 55.8454 4.412C56.3308 4.33733 56.8254 4.3 57.3294 4.3C58.5988 4.3 59.5228 4.622 60.1014 5.266C60.6801 5.91 60.9694 6.89933 60.9694 8.234C60.9694 9.54067 60.6801 10.5207 60.1014 11.174C59.5228 11.818 58.6128 12.14 57.3714 12.14C56.8301 12.14 56.3028 12.0933 55.7894 12C55.2854 11.8973 54.8468 11.7667 54.4734 11.608V7.8H57.2454L57.3014 8.738H55.6214V10.88C56.1628 11.0667 56.7368 11.16 57.3434 11.16C57.9594 11.16 58.4448 11.0667 58.7994 10.88C59.1541 10.6933 59.4108 10.39 59.5694 9.97C59.7374 9.54067 59.8214 8.962 59.8214 8.234C59.8214 7.478 59.7328 6.89 59.5554 6.47C59.3781 6.04067 59.0888 5.73733 58.6874 5.56C58.2954 5.37333 57.7448 5.28 57.0354 5.28ZM69.0538 9.424C69.0538 10.3013 68.8298 10.9733 68.3818 11.44C67.9431 11.9067 67.3178 12.14 66.5058 12.14C65.9271 12.14 65.4184 12.0513 64.9798 11.874C64.5504 11.6967 64.1444 11.4353 63.7618 11.09L63.6918 12H62.6558V4.44H63.8038V10.124C64.1118 10.4413 64.4618 10.6933 64.8538 10.88C65.2458 11.0667 65.6704 11.16 66.1278 11.16C66.7438 11.16 67.1918 11.0247 67.4718 10.754C67.7611 10.474 67.9058 10.026 67.9058 9.41V4.44H69.0538V9.424ZM74.3273 11.16C75.046 11.16 75.5873 11.006 75.9513 10.698C76.3153 10.39 76.4973 9.9 76.4973 9.228V4.44H77.6453V9.144C77.6453 10.1333 77.3606 10.88 76.7913 11.384C76.222 11.888 75.4006 12.14 74.3273 12.14C73.254 12.14 72.4326 11.888 71.8633 11.384C71.294 10.88 71.0093 10.1333 71.0093 9.144V4.44H72.1573V9.228C72.1573 9.9 72.3393 10.39 72.7033 10.698C73.0673 11.006 73.6086 11.16 74.3273 11.16ZM75.5909 2.046C75.5909 1.64467 75.7356 1.30867 76.0249 1.038C76.3049 0.758 76.6502 0.618 77.0609 0.618C77.4716 0.618 77.8169 0.758 78.0969 1.038C78.3769 1.30867 78.5169 1.64467 78.5169 2.046C78.5169 2.44733 78.3769 2.78333 78.0969 3.054C77.8169 3.32467 77.4716 3.46 77.0609 3.46C76.6502 3.46 76.3049 3.32467 76.0249 3.054C75.7356 2.78333 75.5909 2.44733 75.5909 2.046ZM76.3609 2.046C76.3609 2.23267 76.4309 2.396 76.5709 2.536C76.7016 2.66667 76.8649 2.732 77.0609 2.732C77.2476 2.732 77.4109 2.66667 77.5509 2.536C77.6816 2.396 77.7469 2.23267 77.7469 2.046C77.7469 1.85933 77.6816 1.696 77.5509 1.556C77.4109 1.416 77.2476 1.346 77.0609 1.346C76.8649 1.346 76.7016 1.416 76.5709 1.556C76.4309 1.696 76.3609 1.85933 76.3609 2.046ZM82.6469 7.114C82.6469 6.65667 82.6002 6.302 82.5069 6.05C82.4229 5.798 82.2502 5.60667 81.9889 5.476C81.7369 5.34533 81.3542 5.28 80.8409 5.28C80.5422 5.28 80.2156 5.31267 79.8609 5.378C79.5156 5.44333 79.1982 5.532 78.9089 5.644V4.692C79.1982 4.58 79.5342 4.48667 79.9169 4.412C80.2996 4.33733 80.6776 4.3 81.0509 4.3C82.0122 4.3 82.7076 4.51467 83.1369 4.944C83.5756 5.364 83.7949 6.04533 83.7949 6.988V12H82.6469V7.114ZM90.0033 10.068C90.0033 9.79733 89.9379 9.58267 89.8073 9.424C89.6859 9.26533 89.5179 9.13933 89.3033 9.046C89.0979 8.95267 88.7853 8.84067 88.3653 8.71L87.8613 8.542C87.3479 8.374 86.9279 8.206 86.6013 8.038C86.2746 7.87 86.0039 7.65067 85.7893 7.38C85.5839 7.1 85.4813 6.75467 85.4813 6.344C85.4813 5.68133 85.7286 5.17733 86.2233 4.832C86.7179 4.47733 87.4459 4.3 88.4073 4.3C88.7993 4.3 89.1959 4.33267 89.5973 4.398C89.9986 4.46333 90.3439 4.54267 90.6333 4.636V5.644C90.0079 5.40133 89.3219 5.28 88.5753 5.28C87.8939 5.28 87.3993 5.35467 87.0913 5.504C86.7833 5.644 86.6292 5.91467 86.6292 6.316C86.6292 6.57733 86.7086 6.792 86.8673 6.96C87.0353 7.11867 87.2453 7.24933 87.4973 7.352C87.7586 7.44533 88.1926 7.59 88.7993 7.786C89.3219 7.954 89.7466 8.13133 90.0733 8.318C90.4093 8.49533 90.6706 8.724 90.8573 9.004C91.0533 9.284 91.1513 9.634 91.1513 10.054C91.1513 11.4447 90.1526 12.14 88.1553 12.14C87.6793 12.14 87.2173 12.1073 86.7693 12.042C86.3306 11.9767 85.9666 11.888 85.6773 11.776V10.754C86.3679 11.0247 87.1286 11.16 87.9593 11.16C88.6966 11.16 89.2193 11.09 89.5273 10.95C89.8446 10.8007 90.0033 10.5067 90.0033 10.068ZM90.8696 12.882V15.5H89.8756V13.666H88.9516L89.0076 12.882H90.8696ZM95.5876 4.44H96.2036C97.2583 4.44 98.0236 4.72467 98.4996 5.294C98.9756 5.86333 99.2136 6.75 99.2136 7.954C99.2136 9.37267 98.9103 10.4273 98.3036 11.118C97.7063 11.7993 96.9083 12.14 95.9096 12.14C95.3589 12.14 94.9483 12.0887 94.6776 11.986L92.5496 6.806H93.6696L95.4616 11.16L95.7416 11.174C96.5349 11.174 97.1183 10.9127 97.4916 10.39C97.8743 9.858 98.0656 9.05067 98.0656 7.968C98.0656 7.296 98.0049 6.778 97.8836 6.414C97.7623 6.04067 97.5569 5.77467 97.2676 5.616C96.9876 5.45733 96.5909 5.378 96.0776 5.378H95.5876V4.44ZM38.5175 26.378C38.8069 26.77 38.9515 27.3347 38.9515 28.072V33H37.8035V29.528H35.3955C34.7515 29.528 34.2802 29.6353 33.9815 29.85C33.6922 30.0647 33.5475 30.41 33.5475 30.886C33.5475 31.3527 33.6782 31.684 33.9395 31.88C34.2102 32.0667 34.6489 32.16 35.2555 32.16C35.6195 32.16 35.9369 32.1227 36.2075 32.048V33C35.8529 33.0933 35.4329 33.14 34.9475 33.14C34.1822 33.14 33.5709 32.958 33.1135 32.594C32.6562 32.2207 32.4275 31.6513 32.4275 30.886C32.4275 30.158 32.6702 29.5933 33.1555 29.192C33.6409 28.7813 34.3642 28.576 35.3255 28.576H37.8035V27.988C37.8035 27.5493 37.7382 27.2087 37.6075 26.966C37.4769 26.7233 37.2575 26.5507 36.9495 26.448C36.6509 26.336 36.2262 26.28 35.6755 26.28C34.7982 26.28 33.9909 26.4013 33.2535 26.644V25.692C33.6082 25.5707 34.0189 25.4773 34.4855 25.412C34.9522 25.3373 35.4189 25.3 35.8855 25.3C36.3242 25.3 36.7535 25.3467 37.1735 25.44H39.5815L39.5255 26.378H38.5175ZM46.789 26.378C47.0784 26.77 47.223 27.3347 47.223 28.072V33H46.075V29.528H43.667C43.023 29.528 42.5517 29.6353 42.253 29.85C41.9637 30.0647 41.819 30.41 41.819 30.886C41.819 31.3527 41.9497 31.684 42.211 31.88C42.4817 32.0667 42.9204 32.16 43.527 32.16C43.891 32.16 44.2084 32.1227 44.479 32.048V33C44.1244 33.0933 43.7044 33.14 43.219 33.14C42.4537 33.14 41.8424 32.958 41.385 32.594C40.9277 32.2207 40.699 31.6513 40.699 30.886C40.699 30.158 40.9417 29.5933 41.427 29.192C41.9124 28.7813 42.6357 28.576 43.597 28.576H46.075V27.988C46.075 27.5493 46.0097 27.2087 45.879 26.966C45.7484 26.7233 45.529 26.5507 45.221 26.448C44.9224 26.336 44.4977 26.28 43.947 26.28C43.0697 26.28 42.2624 26.4013 41.525 26.644V25.692C41.8797 25.5707 42.2904 25.4773 42.757 25.412C43.2237 25.3373 43.6904 25.3 44.157 25.3C44.5957 25.3 45.025 25.3467 45.445 25.44H47.853L47.797 26.378H46.789ZM48.9705 32.034H50.0065V33H48.9705V32.034ZM52.8321 24.964L51.4041 25.216V24.25L53.9801 23.844V33H52.8321V24.964ZM59.4921 33.14C56.9347 33.14 55.6561 31.628 55.6561 28.604C55.6561 27.0267 55.9501 25.8413 56.5381 25.048C57.1354 24.2453 58.1201 23.844 59.4921 23.844C60.8547 23.844 61.8301 24.2453 62.4181 25.048C63.0154 25.8413 63.3141 27.0267 63.3141 28.604C63.3141 31.628 62.0401 33.14 59.4921 33.14ZM59.4921 32.16C60.4347 32.16 61.1161 31.852 61.5361 31.236C61.9561 30.62 62.1661 29.7427 62.1661 28.604C62.1661 27.3347 61.9607 26.3873 61.5501 25.762C61.1487 25.1367 60.4627 24.824 59.4921 24.824C58.5121 24.824 57.8167 25.1367 57.4061 25.762C57.0047 26.378 56.8041 27.3253 56.8041 28.604C56.8041 29.7333 57.0141 30.6107 57.4341 31.236C57.8634 31.852 58.5494 32.16 59.4921 32.16ZM66.1485 24.964L64.7205 25.216V24.25L67.2965 23.844V33H66.1485V24.964Z" fill="black"/>
</svg>
