<svg width="120" height="16" viewBox="0 0 120 16" fill="none" xmlns="http://www.w3.org/2000/svg">
<path d="M1.26081 4.44V10.376C1.26081 10.6093 1.31215 10.782 1.41481 10.894C1.52681 11.006 1.69481 11.062 1.91881 11.062H2.57681V12H1.40081C0.999479 12 0.682146 11.8787 0.448813 11.636C0.224813 11.384 0.112813 11.0573 0.112813 10.656V4.44H1.26081ZM4.46681 4.44V10.376C4.46681 10.6093 4.51815 10.782 4.62081 10.894C4.73281 11.006 4.90081 11.062 5.12481 11.062H5.78281V12H4.60681C4.20548 12 3.88815 11.8787 3.65481 11.636C3.43081 11.384 3.31881 11.0573 3.31881 10.656V4.44H4.46681ZM9.70828 5.28C8.84961 5.28 8.05628 5.40133 7.32828 5.644V4.692C8.11228 4.43067 9.00828 4.3 10.0163 4.3C12.5083 4.3 13.7543 5.57867 13.7543 8.136C13.7543 8.98533 13.6003 9.71333 13.2923 10.32C12.9843 10.9173 12.5689 11.37 12.0463 11.678C11.5236 11.986 10.9496 12.14 10.3243 12.14C10.1469 12.14 9.95561 12.126 9.75028 12.098C9.54495 12.07 9.38161 12.0327 9.26028 11.986L8.08428 8.85H7.18828L7.24428 7.912H8.82628L10.0443 11.16L10.2823 11.174C10.9543 11.174 11.5096 10.9267 11.9483 10.432C12.3869 9.928 12.6063 9.16267 12.6063 8.136C12.6063 7.42667 12.5129 6.86667 12.3263 6.456C12.1396 6.04533 11.8363 5.74667 11.4163 5.56C10.9963 5.37333 10.4269 5.28 9.70828 5.28ZM11.351 2.34H14.417L14.361 3.166H10.525V1.85H9.41898V1.024H11.351V2.34ZM18.197 4.44H18.813C19.8677 4.44 20.633 4.72467 21.109 5.294C21.585 5.86333 21.823 6.75 21.823 7.954C21.823 9.37267 21.5197 10.4273 20.913 11.118C20.3157 11.7993 19.5177 12.14 18.519 12.14C17.9683 12.14 17.5577 12.0887 17.287 11.986L15.159 6.806H16.279L18.071 11.16L18.351 11.174C19.1443 11.174 19.7277 10.9127 20.101 10.39C20.4837 9.858 20.675 9.05067 20.675 7.968C20.675 7.296 20.6143 6.778 20.493 6.414C20.3717 6.04067 20.1663 5.77467 19.877 5.616C19.597 5.45733 19.2003 5.378 18.687 5.378H18.197V4.44ZM24.6534 4.44V10.376C24.6534 10.6093 24.7047 10.782 24.8074 10.894C24.9194 11.006 25.0874 11.062 25.3114 11.062H26.1094V12H24.7934C24.3921 12 24.0747 11.8787 23.8414 11.636C23.6174 11.384 23.5054 11.0573 23.5054 10.656V4.44H24.6534ZM28.9327 6.89H31.4387C32.036 6.89 32.456 6.76867 32.6987 6.526C32.9414 6.274 33.0627 5.88667 33.0627 5.364V4.44H34.2107V5.35C34.2107 6.42333 33.8094 7.086 33.0067 7.338C33.4454 7.478 33.7394 7.70667 33.8887 8.024C34.0474 8.332 34.1267 8.738 34.1267 9.242V12H32.9787V9.382C32.9787 8.98067 32.9274 8.668 32.8247 8.444C32.7314 8.22 32.568 8.06133 32.3347 7.968C32.1107 7.87467 31.7887 7.828 31.3687 7.828H28.9327V12H27.7847V4.44H28.9327V6.89ZM41.8935 6.33C41.8935 5.92867 41.8328 5.65333 41.7115 5.504C41.5995 5.35467 41.3802 5.28 41.0535 5.28C40.5682 5.28 40.2368 5.49933 40.0595 5.938H39.2895C39.1495 5.69533 39.0095 5.52733 38.8695 5.434C38.7295 5.33133 38.5382 5.28 38.2955 5.28C37.7915 5.28 37.4415 5.53667 37.2455 6.05C37.0495 6.554 36.9515 7.30067 36.9515 8.29C36.9515 9.326 37.1195 10.0633 37.4555 10.502C37.8008 10.9407 38.3235 11.16 39.0235 11.16C39.4435 11.16 39.7655 11.1227 39.9895 11.048V12C39.6815 12.0933 39.2942 12.14 38.8275 12.14C37.9128 12.14 37.1802 11.8227 36.6295 11.188C36.0788 10.544 35.8035 9.578 35.8035 8.29C35.8035 7.01133 36.0042 6.02667 36.4055 5.336C36.8162 4.64533 37.3995 4.3 38.1555 4.3C38.5102 4.3 38.8042 4.36067 39.0375 4.482C39.2708 4.60333 39.4855 4.79 39.6815 5.042C39.8868 4.80867 40.1388 4.62667 40.4375 4.496C40.7455 4.36533 41.0582 4.3 41.3755 4.3C41.9168 4.3 42.3275 4.46333 42.6075 4.79C42.8968 5.10733 43.0415 5.56933 43.0415 6.176V12H41.8935V6.33ZM43.0376 12.882V15.5H42.0436V13.666H41.1196L41.1756 12.882H43.0376ZM44.8716 8.388C44.8716 8.11733 44.9369 7.86067 45.0676 7.618C45.2076 7.366 45.4036 7.06733 45.6556 6.722C45.8422 6.45133 45.9776 6.246 46.0616 6.106C46.1456 5.966 46.1876 5.83067 46.1876 5.7C46.1876 5.55067 46.1549 5.45267 46.0896 5.406C46.0242 5.35933 45.9029 5.336 45.7256 5.336H44.7176L44.8156 4.44H46.3696C47.0136 4.44 47.3356 4.75733 47.3356 5.392C47.3356 5.68133 47.2749 5.94733 47.1536 6.19C47.0416 6.42333 46.8689 6.70333 46.6356 7.03C46.4209 7.338 46.2622 7.59 46.1596 7.786C46.0662 7.982 46.0196 8.19667 46.0196 8.43V9.536C46.0196 10.6187 46.6589 11.16 47.9376 11.16C49.2349 11.16 49.8836 10.6093 49.8836 9.508V4.44H51.0316V9.396C51.0316 10.2733 50.7562 10.95 50.2056 11.426C49.6642 11.902 48.9082 12.14 47.9376 12.14C46.9482 12.14 46.1876 11.9067 45.6556 11.44C45.1329 10.9733 44.8716 10.2967 44.8716 9.41V8.388ZM48.9636 1.318V2.34H52.7296L52.6736 3.166H47.9976V1.318H48.9636ZM56.4956 4.3C57.2796 4.3 57.9283 4.44 58.4416 4.72C58.9643 4.99067 59.347 5.35467 59.5896 5.812C59.8323 6.26 59.9536 6.75933 59.9536 7.31V12H58.8056V7.324C58.8056 6.68933 58.619 6.19 58.2456 5.826C57.8816 5.462 57.289 5.28 56.4676 5.28C55.553 5.28 54.8903 5.53667 54.4796 6.05C54.069 6.554 53.8636 7.30067 53.8636 8.29C53.8636 9.326 54.0316 10.0633 54.3676 10.502C54.713 10.9407 55.2356 11.16 55.9356 11.16C56.3556 11.16 56.6776 11.1227 56.9016 11.048V12C56.5936 12.0933 56.2063 12.14 55.7396 12.14C54.825 12.14 54.0923 11.8227 53.5416 11.188C52.991 10.544 52.7156 9.578 52.7156 8.29C52.7156 7.03 53.0283 6.05 53.6536 5.35C54.2883 4.65 55.2356 4.3 56.4956 4.3ZM61.7837 8.388C61.7837 8.11733 61.849 7.86067 61.9797 7.618C62.1197 7.366 62.3157 7.06733 62.5677 6.722C62.7544 6.45133 62.8897 6.246 62.9737 6.106C63.0577 5.966 63.0997 5.83067 63.0997 5.7C63.0997 5.55067 63.067 5.45267 63.0017 5.406C62.9364 5.35933 62.815 5.336 62.6377 5.336H61.6297L61.7277 4.44H63.2817C63.9257 4.44 64.2477 4.75733 64.2477 5.392C64.2477 5.68133 64.187 5.94733 64.0657 6.19C63.9537 6.42333 63.781 6.70333 63.5477 7.03C63.333 7.338 63.1744 7.59 63.0717 7.786C62.9784 7.982 62.9317 8.19667 62.9317 8.43V9.536C62.9317 10.6187 63.571 11.16 64.8497 11.16C66.147 11.16 66.7957 10.6093 66.7957 9.508V4.44H67.9437V9.396C67.9437 10.2733 67.6684 10.95 67.1177 11.426C66.5764 11.902 65.8204 12.14 64.8497 12.14C63.8604 12.14 63.0997 11.9067 62.5677 11.44C62.045 10.9733 61.7837 10.2967 61.7837 9.41V8.388ZM65.8197 2.34H68.8857L68.8297 3.166H64.9937V1.85H63.8877V1.024H65.8197V2.34ZM72.1897 5.28C71.2937 5.28 70.4771 5.40133 69.7397 5.644V4.692C70.1037 4.57067 70.5237 4.47733 70.9997 4.412C71.4851 4.33733 71.9797 4.3 72.4837 4.3C73.7531 4.3 74.6771 4.622 75.2557 5.266C75.8344 5.91 76.1237 6.89933 76.1237 8.234C76.1237 9.54067 75.8344 10.5207 75.2557 11.174C74.6771 11.818 73.7671 12.14 72.5257 12.14C71.9844 12.14 71.4571 12.0933 70.9437 12C70.4397 11.8973 70.0011 11.7667 69.6277 11.608V7.8H72.3997L72.4557 8.738H70.7757V10.88C71.3171 11.0667 71.8911 11.16 72.4977 11.16C73.1137 11.16 73.5991 11.0667 73.9537 10.88C74.3084 10.6933 74.5651 10.39 74.7237 9.97C74.8917 9.54067 74.9757 8.962 74.9757 8.234C74.9757 7.478 74.8871 6.89 74.7097 6.47C74.5324 6.04067 74.2431 5.73733 73.8417 5.56C73.4497 5.37333 72.8991 5.28 72.1897 5.28ZM80.5681 4.44H81.1841C82.2387 4.44 83.0041 4.72467 83.4801 5.294C83.9561 5.86333 84.1941 6.75 84.1941 7.954C84.1941 9.37267 83.8907 10.4273 83.2841 11.118C82.6867 11.7993 81.8887 12.14 80.8901 12.14C80.3394 12.14 79.9287 12.0887 79.6581 11.986L77.5301 6.806H78.6501L80.4421 11.16L80.7221 11.174C81.5154 11.174 82.0987 10.9127 82.4721 10.39C82.8547 9.858 83.0461 9.05067 83.0461 7.968C83.0461 7.296 82.9854 6.778 82.8641 6.414C82.7427 6.04067 82.5374 5.77467 82.2481 5.616C81.9681 5.45733 81.5714 5.378 81.0581 5.378H80.5681V4.44ZM88.8725 2.732H90.0345L86.7585 12H85.5965L88.8725 2.732ZM97.7484 9.396C97.7484 10.2733 97.473 10.95 96.9224 11.426C96.381 11.902 95.625 12.14 94.6544 12.14C93.665 12.14 92.9044 11.9067 92.3724 11.44C91.8497 10.9733 91.5884 10.2967 91.5884 9.41V8.388C91.5884 8.11733 91.6537 7.86067 91.7844 7.618C91.9244 7.366 92.1204 7.06733 92.3724 6.722C92.559 6.45133 92.6944 6.246 92.7784 6.106C92.8624 5.966 92.9044 5.83067 92.9044 5.7C92.9044 5.55067 92.8717 5.45267 92.8064 5.406C92.741 5.35933 92.6197 5.336 92.4424 5.336H91.4344L91.5324 4.44H93.0864C93.7304 4.44 94.0524 4.75733 94.0524 5.392C94.0524 5.68133 93.9917 5.94733 93.8704 6.19C93.7584 6.42333 93.5857 6.70333 93.3524 7.03C93.1377 7.338 92.979 7.59 92.8764 7.786C92.783 7.982 92.7364 8.19667 92.7364 8.43V9.536C92.7364 10.6187 93.3757 11.16 94.6544 11.16C95.9517 11.16 96.6004 10.6093 96.6004 9.508V8.542C96.6004 8.02867 96.5164 7.674 96.3484 7.478C96.1804 7.282 95.8724 7.184 95.4244 7.184H95.0324L95.0884 6.274H95.3964C95.8537 6.274 96.1664 6.17133 96.3344 5.966C96.5117 5.75133 96.6004 5.40133 96.6004 4.916V4.3H97.7484V4.902C97.7484 5.39667 97.6737 5.78867 97.5244 6.078C97.3844 6.36733 97.1137 6.582 96.7124 6.722C97.1324 6.88067 97.4077 7.10467 97.5384 7.394C97.6784 7.674 97.7484 8.066 97.7484 8.57V9.396ZM95.6944 2.046C95.6944 1.64467 95.8391 1.30867 96.1284 1.038C96.4084 0.758 96.7538 0.618 97.1644 0.618C97.5751 0.618 97.9204 0.758 98.2004 1.038C98.4804 1.30867 98.6204 1.64467 98.6204 2.046C98.6204 2.44733 98.4804 2.78333 98.2004 3.054C97.9204 3.32467 97.5751 3.46 97.1644 3.46C96.7538 3.46 96.4084 3.32467 96.1284 3.054C95.8391 2.78333 95.6944 2.44733 95.6944 2.046ZM96.4644 2.046C96.4644 2.23267 96.5344 2.396 96.6744 2.536C96.8051 2.66667 96.9684 2.732 97.1644 2.732C97.3511 2.732 97.5144 2.66667 97.6544 2.536C97.7851 2.396 97.8504 2.23267 97.8504 2.046C97.8504 1.85933 97.7851 1.696 97.6544 1.556C97.5144 1.416 97.3511 1.346 97.1644 1.346C96.9684 1.346 96.8051 1.416 96.6744 1.556C96.5344 1.696 96.4644 1.85933 96.4644 2.046ZM102.75 7.114C102.75 6.65667 102.704 6.302 102.61 6.05C102.526 5.798 102.354 5.60667 102.092 5.476C101.84 5.34533 101.458 5.28 100.944 5.28C100.646 5.28 100.319 5.31267 99.9644 5.378C99.6191 5.44333 99.3018 5.532 99.0124 5.644V4.692C99.3018 4.58 99.6378 4.48667 100.02 4.412C100.403 4.33733 100.781 4.3 101.154 4.3C102.116 4.3 102.811 4.51467 103.24 4.944C103.679 5.364 103.898 6.04533 103.898 6.988V12H102.75V7.114ZM110.107 10.068C110.107 9.79733 110.041 9.58267 109.911 9.424C109.789 9.26533 109.621 9.13933 109.407 9.046C109.201 8.95267 108.889 8.84067 108.469 8.71L107.965 8.542C107.451 8.374 107.031 8.206 106.705 8.038C106.378 7.87 106.107 7.65067 105.893 7.38C105.687 7.1 105.585 6.75467 105.585 6.344C105.585 5.68133 105.832 5.17733 106.327 4.832C106.821 4.47733 107.549 4.3 108.511 4.3C108.903 4.3 109.299 4.33267 109.701 4.398C110.102 4.46333 110.447 4.54267 110.737 4.636V5.644C110.111 5.40133 109.425 5.28 108.679 5.28C107.997 5.28 107.503 5.35467 107.195 5.504C106.887 5.644 106.733 5.91467 106.733 6.316C106.733 6.57733 106.812 6.792 106.971 6.96C107.139 7.11867 107.349 7.24933 107.601 7.352C107.862 7.44533 108.296 7.59 108.903 7.786C109.425 7.954 109.85 8.13133 110.177 8.318C110.513 8.49533 110.774 8.724 110.961 9.004C111.157 9.284 111.255 9.634 111.255 10.054C111.255 11.4447 110.256 12.14 108.259 12.14C107.783 12.14 107.321 12.1073 106.873 12.042C106.434 11.9767 106.07 11.888 105.781 11.776V10.754C106.471 11.0247 107.232 11.16 108.063 11.16C108.8 11.16 109.323 11.09 109.631 10.95C109.948 10.8007 110.107 10.5067 110.107 10.068ZM110.973 12.882V15.5H109.979V13.666H109.055L109.111 12.882H110.973ZM116.433 4.3C117.217 4.3 117.866 4.44 118.379 4.72C118.902 4.99067 119.284 5.35467 119.527 5.812C119.77 6.26 119.891 6.75933 119.891 7.31V12H118.743V7.324C118.743 6.68933 118.556 6.19 118.183 5.826C117.819 5.462 117.226 5.28 116.405 5.28C115.49 5.28 114.828 5.53667 114.417 6.05C114.006 6.554 113.801 7.30067 113.801 8.29C113.801 9.326 113.969 10.0633 114.305 10.502C114.65 10.9407 115.173 11.16 115.873 11.16C116.293 11.16 116.615 11.1227 116.839 11.048V12C116.531 12.0933 116.144 12.14 115.677 12.14C114.762 12.14 114.03 11.8227 113.479 11.188C112.928 10.544 112.653 9.578 112.653 8.29C112.653 7.03 112.966 6.05 113.591 5.35C114.226 4.65 115.173 4.3 116.433 4.3Z" fill="black"/>
</svg>
