<svg width="151" height="37" viewBox="0 0 151 37" fill="none" xmlns="http://www.w3.org/2000/svg">
<path d="M6.90426 8.33C6.90426 7.92867 6.84359 7.65333 6.72226 7.504C6.61026 7.35467 6.39092 7.28 6.06426 7.28C5.57892 7.28 5.24759 7.49933 5.07026 7.938H4.30026C4.16026 7.69533 4.02026 7.52733 3.88026 7.434C3.74026 7.33133 3.54892 7.28 3.30626 7.28C2.80226 7.28 2.45226 7.53667 2.25626 8.05C2.06026 8.554 1.96226 9.30067 1.96226 10.29C1.96226 11.326 2.13026 12.0633 2.46626 12.502C2.81159 12.9407 3.33426 13.16 4.03426 13.16C4.45426 13.16 4.77626 13.1227 5.00026 13.048V14C4.69226 14.0933 4.30492 14.14 3.83826 14.14C2.92359 14.14 2.19092 13.8227 1.64026 13.188C1.08959 12.544 0.814258 11.578 0.814258 10.29C0.814258 9.01133 1.01492 8.02667 1.41626 7.336C1.82692 6.64533 2.41026 6.3 3.16626 6.3C3.52092 6.3 3.81492 6.36067 4.04826 6.482C4.28159 6.60333 4.49626 6.79 4.69226 7.042C4.89759 6.80867 5.14959 6.62667 5.44826 6.496C5.75626 6.36533 6.06892 6.3 6.38626 6.3C6.92759 6.3 7.33826 6.46333 7.61826 6.79C7.90759 7.10733 8.05226 7.56933 8.05226 8.176V14H6.90426V8.33ZM14.2503 12.068C14.2503 11.7973 14.185 11.5827 14.0543 11.424C13.933 11.2653 13.765 11.1393 13.5503 11.046C13.345 10.9527 13.0323 10.8407 12.6123 10.71L12.1083 10.542C11.595 10.374 11.175 10.206 10.8483 10.038C10.5217 9.87 10.251 9.65067 10.0363 9.38C9.83099 9.1 9.72832 8.75467 9.72832 8.344C9.72832 7.68133 9.97565 7.17733 10.4703 6.832C10.965 6.47733 11.693 6.3 12.6543 6.3C13.0463 6.3 13.443 6.33267 13.8443 6.398C14.2457 6.46333 14.591 6.54267 14.8803 6.636V7.644C14.255 7.40133 13.569 7.28 12.8223 7.28C12.141 7.28 11.6463 7.35467 11.3383 7.504C11.0303 7.644 10.8763 7.91467 10.8763 8.316C10.8763 8.57733 10.9557 8.792 11.1143 8.96C11.2823 9.11867 11.4923 9.24933 11.7443 9.352C12.0057 9.44533 12.4397 9.59 13.0463 9.786C13.569 9.954 13.9937 10.1313 14.3203 10.318C14.6563 10.4953 14.9177 10.724 15.1043 11.004C15.3003 11.284 15.3983 11.634 15.3983 12.054C15.3983 13.4447 14.3997 14.14 12.4023 14.14C11.9263 14.14 11.4643 14.1073 11.0163 14.042C10.5777 13.9767 10.2137 13.888 9.92432 13.776V12.754C10.615 13.0247 11.3757 13.16 12.2063 13.16C12.9437 13.16 13.4663 13.09 13.7743 12.95C14.0917 12.8007 14.2503 12.5067 14.2503 12.068ZM16.7967 12.782C17.4127 13.034 18.0287 13.16 18.6447 13.16C19.326 13.16 19.858 13.062 20.2407 12.866C20.6327 12.67 20.908 12.362 21.0667 11.942C21.2253 11.5127 21.3047 10.9387 21.3047 10.22C21.3047 9.17467 21.0947 8.42333 20.6747 7.966C20.264 7.50867 19.5733 7.28 18.6027 7.28C17.9773 7.28 17.3753 7.41067 16.7967 7.672V6.692C17.394 6.43067 18.0753 6.3 18.8407 6.3C21.2487 6.3 22.4527 7.60667 22.4527 10.22C22.4527 11.5173 22.1727 12.4973 21.6127 13.16C21.0527 13.8133 20.152 14.14 18.9107 14.14C18.108 14.14 17.4033 14.0093 16.7967 13.748V12.782ZM26.3714 7.28C25.5127 7.28 24.7194 7.40133 23.9914 7.644V6.692C24.7754 6.43067 25.6714 6.3 26.6794 6.3C29.1714 6.3 30.4174 7.57867 30.4174 10.136C30.4174 10.9853 30.2634 11.7133 29.9554 12.32C29.6474 12.9173 29.232 13.37 28.7094 13.678C28.1867 13.986 27.6127 14.14 26.9874 14.14C26.81 14.14 26.6187 14.126 26.4134 14.098C26.208 14.07 26.0447 14.0327 25.9234 13.986L24.7474 10.85H23.8514L23.9074 9.912H25.4894L26.7074 13.16L26.9454 13.174C27.6174 13.174 28.1727 12.9267 28.6114 12.432C29.05 11.928 29.2694 11.1627 29.2694 10.136C29.2694 9.42667 29.176 8.86667 28.9894 8.456C28.8027 8.04533 28.4994 7.74667 28.0794 7.56C27.6594 7.37333 27.09 7.28 26.3714 7.28ZM37.9121 7.378C38.2014 7.77 38.3461 8.33467 38.3461 9.072V14H37.1981V10.528H34.7901C34.1461 10.528 33.6747 10.6353 33.3761 10.85C33.0867 11.0647 32.9421 11.41 32.9421 11.886C32.9421 12.3527 33.0727 12.684 33.3341 12.88C33.6047 13.0667 34.0434 13.16 34.6501 13.16C35.0141 13.16 35.3314 13.1227 35.6021 13.048V14C35.2474 14.0933 34.8274 14.14 34.3421 14.14C33.5767 14.14 32.9654 13.958 32.5081 13.594C32.0507 13.2207 31.8221 12.6513 31.8221 11.886C31.8221 11.158 32.0647 10.5933 32.5501 10.192C33.0354 9.78133 33.7587 9.576 34.7201 9.576H37.1981V8.988C37.1981 8.54933 37.1327 8.20867 37.0021 7.966C36.8714 7.72333 36.6521 7.55067 36.3441 7.448C36.0454 7.336 35.6207 7.28 35.0701 7.28C34.1927 7.28 33.3854 7.40133 32.6481 7.644V6.692C33.0027 6.57067 33.4134 6.47733 33.8801 6.412C34.3467 6.33733 34.8134 6.3 35.2801 6.3C35.7187 6.3 36.1481 6.34667 36.5681 6.44H38.9761L38.9201 7.378H37.9121ZM42.6556 7.28C41.7596 7.28 40.9429 7.40133 40.2056 7.644V6.692C40.5696 6.57067 40.9896 6.47733 41.4656 6.412C41.9509 6.33733 42.4456 6.3 42.9496 6.3C44.2189 6.3 45.1429 6.622 45.7216 7.266C46.3002 7.91 46.5896 8.89933 46.5896 10.234C46.5896 11.5407 46.3002 12.5207 45.7216 13.174C45.1429 13.818 44.2329 14.14 42.9916 14.14C42.4502 14.14 41.9229 14.0933 41.4096 14C40.9056 13.8973 40.4669 13.7667 40.0936 13.608V9.8H42.8656L42.9216 10.738H41.2416V12.88C41.7829 13.0667 42.3569 13.16 42.9636 13.16C43.5796 13.16 44.0649 13.0667 44.4196 12.88C44.7742 12.6933 45.0309 12.39 45.1896 11.97C45.3576 11.5407 45.4416 10.962 45.4416 10.234C45.4416 9.478 45.3529 8.89 45.1756 8.47C44.9982 8.04067 44.7089 7.73733 44.3076 7.56C43.9156 7.37333 43.3649 7.28 42.6556 7.28ZM51.5939 13.16C52.3126 13.16 52.8539 13.006 53.2179 12.698C53.5819 12.39 53.7639 11.9 53.7639 11.228V6.44H54.9119V11.144C54.9119 12.1333 54.6272 12.88 54.0579 13.384C53.4886 13.888 52.6672 14.14 51.5939 14.14C50.5206 14.14 49.6992 13.888 49.1299 13.384C48.5606 12.88 48.2759 12.1333 48.2759 11.144V6.44H49.4239V11.228C49.4239 11.9 49.6059 12.39 49.9699 12.698C50.3339 13.006 50.8752 13.16 51.5939 13.16ZM58.0235 6.44V12.376C58.0235 12.6093 58.0748 12.782 58.1775 12.894C58.2895 13.006 58.4575 13.062 58.6815 13.062H59.3395V14H58.1635C57.7622 14 57.4448 13.8787 57.2115 13.636C56.9875 13.384 56.8755 13.0573 56.8755 12.656V6.44H58.0235ZM61.2295 6.44V12.376C61.2295 12.6093 61.2808 12.782 61.3835 12.894C61.4955 13.006 61.6635 13.062 61.8875 13.062H62.5455V14H61.3695C60.9682 14 60.6508 13.8787 60.4175 13.636C60.1935 13.384 60.0815 13.0573 60.0815 12.656V6.44H61.2295ZM67.199 7.28C66.3216 7.28 65.5143 7.40133 64.777 7.644V6.692C65.1316 6.57067 65.5423 6.47733 66.009 6.412C66.4756 6.33733 66.9423 6.3 67.409 6.3C68.473 6.3 69.2476 6.524 69.733 6.972C70.2276 7.41067 70.475 8.11067 70.475 9.072V14H69.327V10.528H66.919C66.275 10.528 65.8036 10.6353 65.505 10.85C65.2156 11.0647 65.071 11.41 65.071 11.886C65.071 12.3527 65.2016 12.684 65.463 12.88C65.7336 13.0667 66.1723 13.16 66.779 13.16C67.143 13.16 67.4603 13.1227 67.731 13.048V14C67.3763 14.0933 66.9563 14.14 66.471 14.14C65.7056 14.14 65.0943 13.958 64.637 13.594C64.1796 13.2207 63.951 12.6513 63.951 11.886C63.951 11.158 64.1936 10.5933 64.679 10.192C65.1643 9.78133 65.8876 9.576 66.849 9.576H69.327V8.988C69.327 8.54933 69.2616 8.20867 69.131 7.966C69.0003 7.72333 68.781 7.55067 68.473 7.448C68.1743 7.336 67.7496 7.28 67.199 7.28ZM73.1481 7.672V8.358H75.3181L75.2761 9.24H72.1541V7.672H73.1481ZM73.1481 11.536V12.236H75.3181L75.2761 13.104H72.1541V11.536H73.1481ZM79.2825 7.28C78.3865 7.28 77.5698 7.40133 76.8325 7.644V6.692C77.1965 6.57067 77.6165 6.47733 78.0925 6.412C78.5778 6.33733 79.0725 6.3 79.5765 6.3C80.8458 6.3 81.7698 6.622 82.3485 7.266C82.9272 7.91 83.2165 8.89933 83.2165 10.234C83.2165 11.5407 82.9272 12.5207 82.3485 13.174C81.7698 13.818 80.8598 14.14 79.6185 14.14C79.0772 14.14 78.5498 14.0933 78.0365 14C77.5325 13.8973 77.0938 13.7667 76.7205 13.608V9.8H79.4925L79.5485 10.738H77.8685V12.88C78.4098 13.0667 78.9838 13.16 79.5905 13.16C80.2065 13.16 80.6918 13.0667 81.0465 12.88C81.4012 12.6933 81.6578 12.39 81.8165 11.97C81.9845 11.5407 82.0685 10.962 82.0685 10.234C82.0685 9.478 81.9798 8.89 81.8025 8.47C81.6252 8.04067 81.3358 7.73733 80.9345 7.56C80.5425 7.37333 79.9918 7.28 79.2825 7.28ZM87.1849 7.28C86.2889 7.28 85.4722 7.40133 84.7349 7.644V6.692C85.0989 6.57067 85.5189 6.47733 85.9949 6.412C86.4802 6.33733 86.9749 6.3 87.4789 6.3C88.7482 6.3 89.6722 6.622 90.2509 7.266C90.8295 7.91 91.1189 8.89933 91.1189 10.234C91.1189 11.5407 90.8295 12.5207 90.2509 13.174C89.6722 13.818 88.7622 14.14 87.5209 14.14C86.9795 14.14 86.4522 14.0933 85.9389 14C85.4349 13.8973 84.9962 13.7667 84.6229 13.608V9.8H87.3949L87.4509 10.738H85.7709V12.88C86.3122 13.0667 86.8862 13.16 87.4929 13.16C88.1089 13.16 88.5942 13.0667 88.9489 12.88C89.3035 12.6933 89.5602 12.39 89.7189 11.97C89.8869 11.5407 89.9709 10.962 89.9709 10.234C89.9709 9.478 89.8822 8.89 89.7049 8.47C89.5275 8.04067 89.2382 7.73733 88.8369 7.56C88.4449 7.37333 87.8942 7.28 87.1849 7.28ZM95.1712 9.632C94.8072 9.72533 94.5412 9.87467 94.3732 10.08C94.2052 10.2853 94.1212 10.5793 94.1212 10.962V14H92.9732V10.934C92.9732 10.5233 93.0619 10.178 93.2392 9.898C93.4259 9.60867 93.7152 9.408 94.1072 9.296L92.5252 8.932V7.588C92.9172 7.21467 93.4119 6.90667 94.0092 6.664C94.6159 6.42133 95.2925 6.3 96.0392 6.3C97.1499 6.3 97.9805 6.538 98.5312 7.014C99.0819 7.48067 99.3572 8.204 99.3572 9.184V14H98.2092V9.142C98.2092 8.45133 98.0459 7.97067 97.7192 7.7C97.3925 7.42 96.8325 7.28 96.0392 7.28C95.5165 7.28 95.0265 7.35467 94.5692 7.504C94.1212 7.644 93.7759 7.83533 93.5332 8.078V8.372L95.1712 8.764V9.632ZM101.141 9.198C101.141 8.68467 101.239 8.26467 101.435 7.938C101.64 7.61133 101.92 7.28 102.275 6.944C102.499 6.72 102.662 6.538 102.765 6.398C102.867 6.24867 102.919 6.09 102.919 5.922C102.919 5.642 102.835 5.45067 102.667 5.348C102.508 5.24533 102.251 5.194 101.897 5.194C101.383 5.194 100.865 5.33867 100.343 5.628V4.732C100.613 4.57333 100.917 4.452 101.253 4.368C101.589 4.284 101.92 4.242 102.247 4.242C102.853 4.242 103.311 4.382 103.619 4.662C103.936 4.942 104.095 5.334 104.095 5.838C104.095 6.146 104.025 6.40267 103.885 6.608C103.754 6.81333 103.549 7.056 103.269 7.336C102.951 7.63467 102.709 7.91933 102.541 8.19C102.373 8.45133 102.289 8.792 102.289 9.212V12.376C102.289 12.6093 102.34 12.782 102.443 12.894C102.555 13.006 102.723 13.062 102.947 13.062H103.745V14H102.429C102.027 14 101.71 13.8787 101.477 13.636C101.253 13.384 101.141 13.0573 101.141 12.656V9.198ZM108.674 13.16C109.393 13.16 109.934 13.006 110.298 12.698C110.662 12.39 110.844 11.9 110.844 11.228V6.44H111.992V11.144C111.992 12.1333 111.707 12.88 111.138 13.384C110.569 13.888 109.747 14.14 108.674 14.14C107.601 14.14 106.779 13.888 106.21 13.384C105.641 12.88 105.356 12.1333 105.356 11.144V6.44H106.504V11.228C106.504 11.9 106.686 12.39 107.05 12.698C107.414 13.006 107.955 13.16 108.674 13.16ZM119.766 7.378C120.055 7.77 120.2 8.33467 120.2 9.072V14H119.052V10.528H116.644C116 10.528 115.528 10.6353 115.23 10.85C114.94 11.0647 114.796 11.41 114.796 11.886C114.796 12.3527 114.926 12.684 115.188 12.88C115.458 13.0667 115.897 13.16 116.504 13.16C116.868 13.16 117.185 13.1227 117.456 13.048V14C117.101 14.0933 116.681 14.14 116.196 14.14C115.43 14.14 114.819 13.958 114.362 13.594C113.904 13.2207 113.676 12.6513 113.676 11.886C113.676 11.158 113.918 10.5933 114.404 10.192C114.889 9.78133 115.612 9.576 116.574 9.576H119.052V8.988C119.052 8.54933 118.986 8.20867 118.856 7.966C118.725 7.72333 118.506 7.55067 118.198 7.448C117.899 7.336 117.474 7.28 116.924 7.28C116.046 7.28 115.239 7.40133 114.502 7.644V6.692C114.856 6.57067 115.267 6.47733 115.734 6.412C116.2 6.33733 116.667 6.3 117.134 6.3C117.572 6.3 118.002 6.34667 118.422 6.44H120.83L120.774 7.378H119.766ZM118.195 3.318V4.34H121.961L121.905 5.166H117.229V3.318H118.195ZM119.287 2.464V0.517999H120.253V2.464H119.287ZM124.985 6.44H125.601C126.656 6.44 127.421 6.72467 127.897 7.294C128.373 7.86333 128.611 8.75 128.611 9.954C128.611 11.3727 128.308 12.4273 127.701 13.118C127.104 13.7993 126.306 14.14 125.307 14.14C124.756 14.14 124.346 14.0887 124.075 13.986L121.947 8.806H123.067L124.859 13.16L125.139 13.174C125.932 13.174 126.516 12.9127 126.889 12.39C127.272 11.858 127.463 11.0507 127.463 9.968C127.463 9.296 127.402 8.778 127.281 8.414C127.16 8.04067 126.954 7.77467 126.665 7.616C126.385 7.45733 125.988 7.378 125.475 7.378H124.985V6.44ZM133.051 6.44H133.667C134.722 6.44 135.487 6.72467 135.963 7.294C136.439 7.86333 136.677 8.75 136.677 9.954C136.677 11.3727 136.374 12.4273 135.767 13.118C135.17 13.7993 134.372 14.14 133.373 14.14C132.823 14.14 132.412 14.0887 132.141 13.986L130.013 8.806H131.133L132.925 13.16L133.205 13.174C133.999 13.174 134.582 12.9127 134.955 12.39C135.338 11.858 135.529 11.0507 135.529 9.968C135.529 9.296 135.469 8.778 135.347 8.414C135.226 8.04067 135.021 7.77467 134.731 7.616C134.451 7.45733 134.055 7.378 133.541 7.378H133.051V6.44ZM141.398 9.114C141.398 8.65667 141.351 8.302 141.258 8.05C141.174 7.798 141.001 7.60667 140.74 7.476C140.488 7.34533 140.105 7.28 139.592 7.28C139.293 7.28 138.967 7.31267 138.612 7.378C138.267 7.44333 137.949 7.532 137.66 7.644V6.692C137.949 6.58 138.285 6.48667 138.668 6.412C139.051 6.33733 139.429 6.3 139.802 6.3C140.763 6.3 141.459 6.51467 141.888 6.944C142.327 7.364 142.546 8.04533 142.546 8.988V14H141.398V9.114ZM145.66 6.44V11.41C145.66 12.026 145.796 12.474 146.066 12.754C146.346 13.0247 146.794 13.16 147.41 13.16C147.868 13.16 148.297 13.0667 148.698 12.88C149.109 12.6933 149.464 12.4413 149.762 12.124V6.44H150.91V14H149.874L149.804 13.09C149.03 13.79 148.106 14.14 147.032 14.14C146.22 14.14 145.595 13.9067 145.156 13.44C144.727 12.9733 144.512 12.3013 144.512 11.424V6.44H145.66ZM36.6824 30.758C36.6824 29.722 36.8318 28.7327 37.1304 27.79C37.4384 26.838 37.9284 26.0773 38.6004 25.508H39.9024C38.5211 26.684 37.8304 28.434 37.8304 30.758C37.8304 33.082 38.5211 34.832 39.9024 36.008H38.6004C37.9284 35.4387 37.4384 34.6827 37.1304 33.74C36.8318 32.7973 36.6824 31.8033 36.6824 30.758ZM44.3484 35H43.1164L41.0164 25.984H42.1504L43.8444 33.404L45.7904 26.978V25.984H46.7284L48.8284 33.404L50.5504 25.984H51.6704L49.5844 35H48.3664L46.4064 28.14L44.3484 35ZM55.3403 28.224C57.5523 28.224 58.6583 29.3767 58.6583 31.682C58.6583 32.83 58.3876 33.6933 57.8463 34.272C57.3143 34.8507 56.4789 35.14 55.3403 35.14C54.2016 35.14 53.3616 34.8507 52.8203 34.272C52.2883 33.6933 52.0223 32.83 52.0223 31.682C52.0223 29.3767 53.1283 28.224 55.3403 28.224ZM55.3403 34.16C56.1243 34.16 56.6796 33.964 57.0063 33.572C57.3423 33.18 57.5103 32.55 57.5103 31.682C57.5103 30.814 57.3423 30.184 57.0063 29.792C56.6703 29.4 56.1149 29.204 55.3403 29.204C54.5656 29.204 54.0103 29.4 53.6743 29.792C53.3383 30.184 53.1703 30.814 53.1703 31.682C53.1703 32.55 53.3336 33.18 53.6603 33.572C53.9963 33.964 54.5563 34.16 55.3403 34.16ZM61.4613 29.204C61.788 28.9893 62.1707 28.7933 62.6093 28.616C63.0573 28.4387 63.496 28.308 63.9253 28.224V29.12C63.5147 29.204 63.0713 29.3347 62.5953 29.512C62.1287 29.6893 61.76 29.8713 61.4893 30.058V35H60.3413V28.364H61.3773L61.4613 29.204ZM71.0716 35H69.8676L67.4736 31.612L66.4796 32.55V35H65.3316V25.564H66.4796V31.29L69.5876 28.364H70.9176L68.2016 30.996L71.0716 35ZM86.1098 30.492C86.1098 32.0973 85.7691 33.2733 85.0878 34.02C84.4158 34.7667 83.3704 35.14 81.9518 35.14C80.5331 35.14 79.4831 34.7667 78.8018 34.02C78.1298 33.2733 77.7938 32.0973 77.7938 30.492C77.7938 28.8867 78.1298 27.7107 78.8018 26.964C79.4831 26.2173 80.5331 25.844 81.9518 25.844C83.3704 25.844 84.4158 26.2173 85.0878 26.964C85.7691 27.7107 86.1098 28.8867 86.1098 30.492ZM84.9618 30.492C84.9618 29.596 84.8544 28.882 84.6398 28.35C84.4251 27.8087 84.0984 27.4213 83.6598 27.188C83.2211 26.9453 82.6518 26.824 81.9518 26.824C81.2518 26.824 80.6824 26.9453 80.2438 27.188C79.8051 27.4213 79.4784 27.8087 79.2638 28.35C79.0491 28.882 78.9417 29.596 78.9417 30.492C78.9417 31.388 79.0491 32.1067 79.2638 32.648C79.4784 33.18 79.8051 33.5673 80.2438 33.81C80.6824 34.0433 81.2518 34.16 81.9518 34.16C82.6518 34.16 83.2211 34.0433 83.6598 33.81C84.0984 33.5673 84.4251 33.18 84.6398 32.648C84.8544 32.1067 84.9618 31.388 84.9618 30.492ZM88.9145 29.204C89.2411 28.9893 89.6238 28.7933 90.0625 28.616C90.5105 28.4387 90.9491 28.308 91.3785 28.224V29.12C90.9678 29.204 90.5245 29.3347 90.0485 29.512C89.5818 29.6893 89.2131 29.8713 88.9425 30.058V35H87.7945V28.364H88.8305L88.9145 29.204ZM91.8758 31.78C91.8758 30.6133 92.1464 29.7313 92.6878 29.134C93.2291 28.5273 93.9804 28.224 94.9418 28.224C95.3711 28.224 95.7584 28.2753 96.1038 28.378C96.4491 28.4807 96.7804 28.6393 97.0978 28.854V25.564H98.2458V35H97.2658L97.1818 34.3C96.8738 34.5893 96.5331 34.804 96.1598 34.944C95.7958 35.0747 95.3664 35.14 94.8718 35.14C93.9011 35.14 93.1591 34.874 92.6458 34.342C92.1324 33.8007 91.8758 32.9467 91.8758 31.78ZM95.1938 29.148C94.4471 29.148 93.8964 29.3627 93.5418 29.792C93.1964 30.212 93.0238 30.8747 93.0238 31.78C93.0238 32.648 93.1871 33.2733 93.5138 33.656C93.8404 34.0293 94.3911 34.216 95.1658 34.216C95.9591 34.216 96.6031 33.95 97.0978 33.418V29.806C96.6031 29.3673 95.9684 29.148 95.1938 29.148ZM101.077 32.214C101.114 32.7273 101.221 33.1287 101.399 33.418C101.585 33.698 101.861 33.9033 102.225 34.034C102.589 34.1553 103.079 34.216 103.695 34.216C104.376 34.216 105.001 34.0993 105.571 33.866V34.762C105.001 35.014 104.301 35.14 103.471 35.14C102.285 35.14 101.399 34.8553 100.811 34.286C100.223 33.7167 99.9285 32.8393 99.9285 31.654C99.9285 30.562 100.19 29.7173 100.713 29.12C101.235 28.5227 102.033 28.224 103.107 28.224C104.049 28.224 104.763 28.476 105.249 28.98C105.743 29.484 105.991 30.1467 105.991 30.968V32.214H101.077ZM103.135 29.148C102.369 29.148 101.833 29.33 101.525 29.694C101.226 30.0487 101.077 30.6133 101.077 31.388H104.969V30.842C104.969 30.2913 104.819 29.8713 104.521 29.582C104.231 29.2927 103.769 29.148 103.135 29.148ZM108.793 29.204C109.12 28.9893 109.503 28.7933 109.941 28.616C110.389 28.4387 110.828 28.308 111.257 28.224V29.12C110.847 29.204 110.403 29.3347 109.927 29.512C109.461 29.6893 109.092 29.8713 108.821 30.058V35H107.673V28.364H108.709L108.793 29.204ZM115.324 30.758C115.324 31.8033 115.17 32.7973 114.862 33.74C114.563 34.6827 114.082 35.4387 113.42 36.008H112.104C113.485 34.832 114.176 33.082 114.176 30.758C114.176 28.434 113.485 26.684 112.104 25.508H113.42C114.082 26.0773 114.563 26.838 114.862 27.79C115.17 28.7327 115.324 29.722 115.324 30.758Z" fill="black"/>
</svg>
