<svg width="84" height="11" viewBox="0 0 84 11" fill="none" xmlns="http://www.w3.org/2000/svg">
<path d="M7.07027 4.33C7.07027 3.92867 7.00961 3.65333 6.88827 3.504C6.77627 3.35467 6.55694 3.28 6.23027 3.28C5.74494 3.28 5.41361 3.49933 5.23627 3.938H4.46627C4.32627 3.69533 4.18627 3.52733 4.04627 3.434C3.90627 3.33133 3.71494 3.28 3.47227 3.28C2.96827 3.28 2.61827 3.53667 2.42227 4.05C2.22627 4.554 2.12827 5.30067 2.12827 6.29C2.12827 7.326 2.29627 8.06333 2.63227 8.502C2.97761 8.94067 3.50027 9.16 4.20027 9.16C4.62027 9.16 4.94227 9.12267 5.16627 9.048V10C4.85827 10.0933 4.47094 10.14 4.00427 10.14C3.08961 10.14 2.35694 9.82267 1.80627 9.188C1.25561 8.544 0.980273 7.578 0.980273 6.29C0.980273 5.01133 1.18094 4.02667 1.58227 3.336C1.99294 2.64533 2.57627 2.3 3.33227 2.3C3.68694 2.3 3.98094 2.36067 4.21427 2.482C4.44761 2.60333 4.66227 2.79 4.85827 3.042C5.06361 2.80867 5.31561 2.62667 5.61427 2.496C5.92227 2.36533 6.23494 2.3 6.55227 2.3C7.09361 2.3 7.50427 2.46333 7.78427 2.79C8.07361 3.10733 8.21827 3.56933 8.21827 4.176V10H7.07027V4.33ZM2.64234 1.166L2.69834 0.339999H8.20034V1.166H2.64234ZM13.6743 2.3C14.4583 2.3 15.107 2.44 15.6203 2.72C16.143 2.99067 16.5257 3.35467 16.7683 3.812C17.011 4.26 17.1323 4.75933 17.1323 5.31V10H15.9843V5.324C15.9843 4.68933 15.7977 4.19 15.4243 3.826C15.0603 3.462 14.4677 3.28 13.6463 3.28C12.7317 3.28 12.069 3.53667 11.6583 4.05C11.2477 4.554 11.0423 5.30067 11.0423 6.29C11.0423 7.326 11.2103 8.06333 11.5463 8.502C11.8917 8.94067 12.4143 9.16 13.1143 9.16C13.5343 9.16 13.8563 9.12267 14.0803 9.048V10C13.7723 10.0933 13.385 10.14 12.9183 10.14C12.0037 10.14 11.271 9.82267 10.7203 9.188C10.1697 8.544 9.89434 7.578 9.89434 6.29C9.89434 5.03 10.207 4.05 10.8323 3.35C11.467 2.65 12.4143 2.3 13.6743 2.3ZM24.8984 4.33C24.8984 3.92867 24.8377 3.65333 24.7164 3.504C24.6044 3.35467 24.3851 3.28 24.0584 3.28C23.5731 3.28 23.2417 3.49933 23.0644 3.938H22.2944C22.1544 3.69533 22.0144 3.52733 21.8744 3.434C21.7344 3.33133 21.5431 3.28 21.3004 3.28C20.7964 3.28 20.4464 3.53667 20.2504 4.05C20.0544 4.554 19.9564 5.30067 19.9564 6.29C19.9564 7.326 20.1244 8.06333 20.4604 8.502C20.8057 8.94067 21.3284 9.16 22.0284 9.16C22.4484 9.16 22.7704 9.12267 22.9944 9.048V10C22.6864 10.0933 22.2991 10.14 21.8324 10.14C20.9177 10.14 20.1851 9.82267 19.6344 9.188C19.0837 8.544 18.8084 7.578 18.8084 6.29C18.8084 5.01133 19.0091 4.02667 19.4104 3.336C19.8211 2.64533 20.4044 2.3 21.1604 2.3C21.5151 2.3 21.8091 2.36067 22.0424 2.482C22.2757 2.60333 22.4904 2.79 22.6864 3.042C22.8917 2.80867 23.1437 2.62667 23.4424 2.496C23.7504 2.36533 24.0631 2.3 24.3804 2.3C24.9217 2.3 25.3324 2.46333 25.6124 2.79C25.9017 3.10733 26.0464 3.56933 26.0464 4.176V10H24.8984V4.33ZM31.0405 5.114C31.0405 4.65667 30.9938 4.302 30.9005 4.05C30.8165 3.798 30.6438 3.60667 30.3825 3.476C30.1305 3.34533 29.7478 3.28 29.2345 3.28C28.9358 3.28 28.6091 3.31267 28.2545 3.378C27.9091 3.44333 27.5918 3.532 27.3025 3.644V2.692C27.5918 2.58 27.9278 2.48667 28.3105 2.412C28.6931 2.33733 29.0711 2.3 29.4445 2.3C30.4058 2.3 31.1011 2.51467 31.5305 2.944C31.9691 3.364 32.1885 4.04533 32.1885 4.988V10H31.0405V5.114ZM40.5528 7.424C40.5528 8.30133 40.3288 8.97333 39.8808 9.44C39.4421 9.90667 38.8168 10.14 38.0048 10.14C37.4261 10.14 36.9175 10.0513 36.4788 9.874C36.0495 9.69667 35.6435 9.43533 35.2608 9.09L35.1908 10H34.1548V2.44H35.3028V8.124C35.6108 8.44133 35.9608 8.69333 36.3528 8.88C36.7448 9.06667 37.1695 9.16 37.6268 9.16C38.2428 9.16 38.6908 9.02467 38.9708 8.754C39.2601 8.474 39.4048 8.026 39.4048 7.41V2.44H40.5528V7.424ZM43.6563 2.44V8.376C43.6563 8.60933 43.7077 8.782 43.8103 8.894C43.9223 9.006 44.0903 9.062 44.3143 9.062H45.1123V10H43.7963C43.395 10 43.0777 9.87867 42.8443 9.636C42.6203 9.384 42.5083 9.05733 42.5083 8.656V2.44H43.6563ZM49.0696 3.28C48.1736 3.28 47.357 3.40133 46.6196 3.644V2.692C46.9836 2.57067 47.4036 2.47733 47.8796 2.412C48.365 2.33733 48.8596 2.3 49.3636 2.3C50.633 2.3 51.557 2.622 52.1356 3.266C52.7143 3.91 53.0036 4.89933 53.0036 6.234C53.0036 7.54067 52.7143 8.52067 52.1356 9.174C51.557 9.818 50.647 10.14 49.4056 10.14C48.8643 10.14 48.337 10.0933 47.8236 10C47.3196 9.89733 46.881 9.76667 46.5076 9.608V5.8H49.2796L49.3356 6.738H47.6556V8.88C48.197 9.06667 48.771 9.16 49.3776 9.16C49.9936 9.16 50.479 9.06667 50.8336 8.88C51.1883 8.69333 51.445 8.39 51.6036 7.97C51.7716 7.54067 51.8556 6.962 51.8556 6.234C51.8556 5.478 51.767 4.89 51.5896 4.47C51.4123 4.04067 51.123 3.73733 50.7216 3.56C50.3296 3.37333 49.779 3.28 49.0696 3.28ZM57.056 5.632C56.692 5.72533 56.426 5.87467 56.258 6.08C56.09 6.28533 56.006 6.57933 56.006 6.962V10H54.858V6.934C54.858 6.52333 54.9466 6.178 55.124 5.898C55.3106 5.60867 55.6 5.408 55.992 5.296L54.41 4.932V3.588C54.802 3.21467 55.2966 2.90667 55.894 2.664C56.5006 2.42133 57.1773 2.3 57.924 2.3C59.0346 2.3 59.8653 2.538 60.416 3.014C60.9666 3.48067 61.242 4.204 61.242 5.184V10H60.094V5.142C60.094 4.45133 59.9306 3.97067 59.604 3.7C59.2773 3.42 58.7173 3.28 57.924 3.28C57.4013 3.28 56.9113 3.35467 56.454 3.504C56.006 3.644 55.6606 3.83533 55.418 4.078V4.372L57.056 4.764V5.632ZM69.0175 3.378C69.3069 3.77 69.4515 4.33467 69.4515 5.072V10H68.3035V6.528H65.8955C65.2515 6.528 64.7802 6.63533 64.4815 6.85C64.1922 7.06467 64.0475 7.41 64.0475 7.886C64.0475 8.35267 64.1782 8.684 64.4395 8.88C64.7102 9.06667 65.1489 9.16 65.7555 9.16C66.1195 9.16 66.4369 9.12267 66.7075 9.048V10C66.3529 10.0933 65.9329 10.14 65.4475 10.14C64.6822 10.14 64.0709 9.958 63.6135 9.594C63.1562 9.22067 62.9275 8.65133 62.9275 7.886C62.9275 7.158 63.1702 6.59333 63.6555 6.192C64.1409 5.78133 64.8642 5.576 65.8255 5.576H68.3035V4.988C68.3035 4.54933 68.2382 4.20867 68.1075 3.966C67.9769 3.72333 67.7575 3.55067 67.4495 3.448C67.1509 3.336 66.7262 3.28 66.1755 3.28C65.2982 3.28 64.4909 3.40133 63.7535 3.644V2.692C64.1082 2.57067 64.5189 2.47733 64.9855 2.412C65.4522 2.33733 65.9189 2.3 66.3855 2.3C66.8242 2.3 67.2535 2.34667 67.6735 2.44H70.0815L70.0255 3.378H69.0175ZM74.517 5.114C74.517 4.65667 74.4704 4.302 74.377 4.05C74.293 3.798 74.1204 3.60667 73.859 3.476C73.607 3.34533 73.2244 3.28 72.711 3.28C72.4124 3.28 72.0857 3.31267 71.731 3.378C71.3857 3.44333 71.0684 3.532 70.779 3.644V2.692C71.0684 2.58 71.4044 2.48667 71.787 2.412C72.1697 2.33733 72.5477 2.3 72.921 2.3C73.8824 2.3 74.5777 2.51467 75.007 2.944C75.4457 3.364 75.665 4.04533 75.665 4.988V10H74.517V5.114ZM81.8734 8.068C81.8734 7.79733 81.808 7.58267 81.6774 7.424C81.556 7.26533 81.388 7.13933 81.1734 7.046C80.968 6.95267 80.6554 6.84067 80.2354 6.71L79.7314 6.542C79.218 6.374 78.798 6.206 78.4714 6.038C78.1447 5.87 77.874 5.65067 77.6594 5.38C77.454 5.1 77.3514 4.75467 77.3514 4.344C77.3514 3.68133 77.5987 3.17733 78.0934 2.832C78.588 2.47733 79.316 2.3 80.2774 2.3C80.6694 2.3 81.066 2.33267 81.4674 2.398C81.8687 2.46333 82.214 2.54267 82.5034 2.636V3.644C81.878 3.40133 81.192 3.28 80.4454 3.28C79.764 3.28 79.2694 3.35467 78.9614 3.504C78.6534 3.644 78.4994 3.91467 78.4994 4.316C78.4994 4.57733 78.5787 4.792 78.7374 4.96C78.9054 5.11867 79.1154 5.24933 79.3674 5.352C79.6287 5.44533 80.0627 5.59 80.6694 5.786C81.192 5.954 81.6167 6.13133 81.9434 6.318C82.2794 6.49533 82.5407 6.724 82.7274 7.004C82.9234 7.284 83.0214 7.634 83.0214 8.054C83.0214 9.44467 82.0227 10.14 80.0254 10.14C79.5494 10.14 79.0874 10.1073 78.6394 10.042C78.2007 9.97667 77.8367 9.888 77.5474 9.776V8.754C78.238 9.02467 78.9987 9.16 79.8294 9.16C80.5667 9.16 81.0894 9.09 81.3974 8.95C81.7147 8.80067 81.8734 8.50667 81.8734 8.068Z" fill="black"/>
</svg>
