<svg width="107" height="17" viewBox="0 0 107 17" fill="none" xmlns="http://www.w3.org/2000/svg">
<path d="M0.911617 9.388C0.911617 9.11733 0.976951 8.86067 1.10762 8.618C1.24762 8.366 1.44362 8.06733 1.69562 7.722C1.88228 7.45133 2.01762 7.246 2.10162 7.106C2.18562 6.966 2.22762 6.83067 2.22762 6.7C2.22762 6.55067 2.19495 6.45267 2.12962 6.406C2.06428 6.35933 1.94295 6.336 1.76562 6.336H0.757617L0.855617 5.44H2.40962C3.05362 5.44 3.37562 5.75733 3.37562 6.392C3.37562 6.68133 3.31495 6.94733 3.19362 7.19C3.08162 7.42333 2.90895 7.70333 2.67562 8.03C2.46095 8.338 2.30228 8.59 2.19962 8.786C2.10628 8.982 2.05962 9.19667 2.05962 9.43V10.536C2.05962 11.6187 2.69895 12.16 3.97762 12.16C5.27495 12.16 5.92362 11.6093 5.92362 10.508V5.44H7.07162V10.396C7.07162 11.2733 6.79628 11.95 6.24562 12.426C5.70428 12.902 4.94828 13.14 3.97762 13.14C2.98828 13.14 2.22762 12.9067 1.69562 12.44C1.17295 11.9733 0.911617 11.2967 0.911617 10.41V9.388ZM4.94766 3.34H8.01366L7.95766 4.166H4.12166V2.85H3.01566V2.024H4.94766V3.34ZM11.3177 6.28C10.4217 6.28 9.605 6.40133 8.86766 6.644V5.692C9.23166 5.57067 9.65166 5.47733 10.1277 5.412C10.613 5.33733 11.1077 5.3 11.6117 5.3C12.881 5.3 13.805 5.622 14.3837 6.266C14.9623 6.91 15.2517 7.89933 15.2517 9.234C15.2517 10.5407 14.9623 11.5207 14.3837 12.174C13.805 12.818 12.895 13.14 11.6537 13.14C11.1123 13.14 10.585 13.0933 10.0717 13C9.56766 12.8973 9.129 12.7667 8.75566 12.608V8.8H11.5277L11.5837 9.738H9.90366V11.88C10.445 12.0667 11.019 12.16 11.6257 12.16C12.2417 12.16 12.727 12.0667 13.0817 11.88C13.4363 11.6933 13.693 11.39 13.8517 10.97C14.0197 10.5407 14.1037 9.962 14.1037 9.234C14.1037 8.478 14.015 7.89 13.8377 7.47C13.6603 7.04067 13.371 6.73733 12.9697 6.56C12.5777 6.37333 12.027 6.28 11.3177 6.28ZM23.336 10.424C23.336 11.3013 23.112 11.9733 22.664 12.44C22.2253 12.9067 21.6 13.14 20.788 13.14C20.2093 13.14 19.7007 13.0513 19.262 12.874C18.8327 12.6967 18.4267 12.4353 18.044 12.09L17.974 13H16.938V5.44H18.086V11.124C18.394 11.4413 18.744 11.6933 19.136 11.88C19.528 12.0667 19.9527 12.16 20.41 12.16C21.026 12.16 21.474 12.0247 21.754 11.754C22.0433 11.474 22.188 11.026 22.188 10.41V5.44H23.336V10.424ZM23.3315 13.882V15.422C23.3315 15.7673 23.1962 16.052 22.9255 16.276C22.6549 16.5 22.2909 16.612 21.8335 16.612C21.3949 16.612 21.0449 16.4953 20.7835 16.262C20.5129 16.038 20.3775 15.758 20.3775 15.422V14.638H19.6355L19.6775 13.882H21.2315V15.352C21.2315 15.5107 21.2829 15.632 21.3855 15.716C21.4882 15.8 21.6375 15.842 21.8335 15.842C22.0295 15.842 22.1835 15.7953 22.2955 15.702C22.4075 15.618 22.4635 15.5013 22.4635 15.352V13.882H23.3315ZM28.2595 6.28C27.3822 6.28 26.5749 6.40133 25.8375 6.644V5.692C26.1922 5.57067 26.6029 5.47733 27.0695 5.412C27.5362 5.33733 28.0029 5.3 28.4695 5.3C29.5335 5.3 30.3082 5.524 30.7935 5.972C31.2882 6.41067 31.5355 7.11067 31.5355 8.072V13H30.3875V9.528H27.9795C27.3355 9.528 26.8642 9.63533 26.5655 9.85C26.2762 10.0647 26.1315 10.41 26.1315 10.886C26.1315 11.3527 26.2622 11.684 26.5235 11.88C26.7942 12.0667 27.2329 12.16 27.8395 12.16C28.2035 12.16 28.5209 12.1227 28.7915 12.048V13C28.4369 13.0933 28.0169 13.14 27.5315 13.14C26.7662 13.14 26.1549 12.958 25.6975 12.594C25.2402 12.2207 25.0115 11.6513 25.0115 10.886C25.0115 10.158 25.2542 9.59333 25.7395 9.192C26.2249 8.78133 26.9482 8.576 27.9095 8.576H30.3875V7.988C30.3875 7.54933 30.3222 7.20867 30.1915 6.966C30.0609 6.72333 29.8415 6.55067 29.5335 6.448C29.2349 6.336 28.8102 6.28 28.2595 6.28ZM39.3046 6.378C39.594 6.77 39.7386 7.33467 39.7386 8.072V13H38.5906V9.528H36.1826C35.5386 9.528 35.0673 9.63533 34.7686 9.85C34.4793 10.0647 34.3346 10.41 34.3346 10.886C34.3346 11.3527 34.4653 11.684 34.7266 11.88C34.9973 12.0667 35.436 12.16 36.0426 12.16C36.4066 12.16 36.724 12.1227 36.9946 12.048V13C36.64 13.0933 36.22 13.14 35.7346 13.14C34.9693 13.14 34.358 12.958 33.9006 12.594C33.4433 12.2207 33.2146 11.6513 33.2146 10.886C33.2146 10.158 33.4573 9.59333 33.9426 9.192C34.428 8.78133 35.1513 8.576 36.1126 8.576H38.5906V7.988C38.5906 7.54933 38.5253 7.20867 38.3946 6.966C38.264 6.72333 38.0446 6.55067 37.7366 6.448C37.438 6.336 37.0133 6.28 36.4626 6.28C35.5853 6.28 34.778 6.40133 34.0406 6.644V5.692C34.3953 5.57067 34.806 5.47733 35.2726 5.412C35.7393 5.33733 36.206 5.3 36.6726 5.3C37.1113 5.3 37.5406 5.34667 37.9606 5.44H40.3686L40.3126 6.378H39.3046ZM34.2341 4.166L34.2901 3.34H39.7921V4.166H34.2341ZM42.9141 5.44V10.41C42.9141 11.026 43.0495 11.474 43.3201 11.754C43.6001 12.0247 44.0481 12.16 44.6641 12.16C45.1215 12.16 45.5508 12.0667 45.9521 11.88C46.3628 11.6933 46.7175 11.4413 47.0161 11.124V5.44H48.1641V13H47.1281L47.0581 12.09C46.2835 12.79 45.3595 13.14 44.2861 13.14C43.4741 13.14 42.8488 12.9067 42.4101 12.44C41.9808 11.9733 41.7661 11.3013 41.7661 10.424V5.44H42.9141ZM55.3696 13V8.016C55.3696 7.40933 55.225 6.97067 54.9356 6.7C54.6463 6.42 54.1983 6.28 53.5916 6.28C53.1343 6.28 52.7096 6.37333 52.3176 6.56C51.9256 6.74667 51.5756 7.00333 51.2676 7.33V13H50.1196V5.44H51.1556L51.2256 6.35C51.599 6.014 52.0096 5.75733 52.4576 5.58C52.9056 5.39333 53.419 5.3 53.9976 5.3C54.8003 5.3 55.421 5.53333 55.8596 6C56.2983 6.46667 56.5176 7.134 56.5176 8.002V13H55.3696ZM62.7152 11.068C62.7152 10.7973 62.6498 10.5827 62.5192 10.424C62.3978 10.2653 62.2298 10.1393 62.0152 10.046C61.8098 9.95267 61.4972 9.84067 61.0772 9.71L60.5732 9.542C60.0598 9.374 59.6398 9.206 59.3132 9.038C58.9865 8.87 58.7158 8.65067 58.5012 8.38C58.2958 8.1 58.1932 7.75467 58.1932 7.344C58.1932 6.68133 58.4405 6.17733 58.9352 5.832C59.4298 5.47733 60.1578 5.3 61.1192 5.3C61.5112 5.3 61.9078 5.33267 62.3092 5.398C62.7105 5.46333 63.0558 5.54267 63.3452 5.636V6.644C62.7198 6.40133 62.0338 6.28 61.2872 6.28C60.6058 6.28 60.1112 6.35467 59.8032 6.504C59.4952 6.644 59.3412 6.91467 59.3412 7.316C59.3412 7.57733 59.4205 7.792 59.5792 7.96C59.7472 8.11867 59.9572 8.24933 60.2092 8.352C60.4705 8.44533 60.9045 8.59 61.5112 8.786C62.0338 8.954 62.4585 9.13133 62.7852 9.318C63.1212 9.49533 63.3825 9.724 63.5692 10.004C63.7652 10.284 63.8632 10.634 63.8632 11.054C63.8632 12.4447 62.8645 13.14 60.8672 13.14C60.3912 13.14 59.9292 13.1073 59.4812 13.042C59.0425 12.9767 58.6785 12.888 58.3892 12.776V11.754C59.0798 12.0247 59.8405 12.16 60.6712 12.16C61.4085 12.16 61.9312 12.09 62.2392 11.95C62.5565 11.8007 62.7152 11.5067 62.7152 11.068ZM61.5095 2.318V3.34H65.2755L65.2195 4.166H60.5435V2.318H61.5095ZM67.9915 13H66.8575L65.1215 5.44H66.2975L67.5435 11.39L69.1395 6.392V5.44H69.9935L71.7015 11.39L72.9335 5.44H74.0955L72.3735 13H71.2255L69.6715 7.68L67.9915 13ZM77.8434 6.28C76.9754 6.28 76.5414 6.658 76.5414 7.414C76.5414 7.81533 76.672 8.114 76.9334 8.31C77.1947 8.506 77.554 8.604 78.0114 8.604H78.8094L78.8794 9.472H77.9694C77.4747 9.472 77.106 9.58867 76.8634 9.822C76.6207 10.0553 76.4994 10.396 76.4994 10.844C76.4994 11.292 76.672 11.6233 77.0174 11.838C77.372 12.0527 77.9134 12.16 78.6414 12.16C79.3694 12.16 79.9107 12.02 80.2654 11.74C80.62 11.46 80.7974 11.0213 80.7974 10.424V5.44H81.9454V10.228C81.9454 11.1893 81.6794 11.9173 81.1474 12.412C80.6154 12.8973 79.794 13.14 78.6834 13.14C77.638 13.14 76.8214 12.9487 76.2334 12.566C75.6454 12.1833 75.3514 11.6093 75.3514 10.844C75.3514 10.4147 75.4494 10.0507 75.6454 9.752C75.8507 9.444 76.1354 9.21067 76.4994 9.052C76.1634 8.94933 75.8927 8.758 75.6874 8.478C75.4914 8.198 75.3934 7.84333 75.3934 7.414C75.3934 6.73267 75.5987 6.21 76.0094 5.846C76.42 5.482 76.9614 5.3 77.6334 5.3C78.0814 5.3 78.4687 5.35133 78.7954 5.454V6.406C78.5434 6.322 78.226 6.28 77.8434 6.28ZM79.8709 3.116V4.166H78.9049V2.29H82.8389L82.7969 3.116H79.8709ZM80.3469 1.47V2.422H79.4509V0.686H83.1049L83.0489 1.47H80.3469ZM85.0509 7.89H87.5569C88.1542 7.89 88.5742 7.76867 88.8169 7.526C89.0595 7.274 89.1809 6.88667 89.1809 6.364V5.44H90.3289V6.35C90.3289 7.42333 89.9275 8.086 89.1249 8.338C89.5635 8.478 89.8575 8.70667 90.0069 9.024C90.1655 9.332 90.2449 9.738 90.2449 10.242V13H89.0969V10.382C89.0969 9.98067 89.0455 9.668 88.9429 9.444C88.8495 9.22 88.6862 9.06133 88.4529 8.968C88.2289 8.87467 87.9069 8.828 87.4869 8.828H85.0509V13H83.9029V5.44H85.0509V7.89ZM95.1697 6.28C94.2923 6.28 93.485 6.40133 92.7477 6.644V5.692C93.1023 5.57067 93.513 5.47733 93.9797 5.412C94.4463 5.33733 94.913 5.3 95.3797 5.3C96.4437 5.3 97.2183 5.524 97.7037 5.972C98.1983 6.41067 98.4457 7.11067 98.4457 8.072V13H97.2977V9.528H94.8897C94.2457 9.528 93.7743 9.63533 93.4757 9.85C93.1863 10.0647 93.0417 10.41 93.0417 10.886C93.0417 11.3527 93.1723 11.684 93.4337 11.88C93.7043 12.0667 94.143 12.16 94.7497 12.16C95.1137 12.16 95.431 12.1227 95.7017 12.048V13C95.347 13.0933 94.927 13.14 94.4417 13.14C93.6763 13.14 93.065 12.958 92.6077 12.594C92.1503 12.2207 91.9217 11.6513 91.9217 10.886C91.9217 10.158 92.1643 9.59333 92.6497 9.192C93.135 8.78133 93.8583 8.576 94.8197 8.576H97.2977V7.988C97.2977 7.54933 97.2323 7.20867 97.1017 6.966C96.971 6.72333 96.7517 6.55067 96.4437 6.448C96.145 6.336 95.7203 6.28 95.1697 6.28ZM96.3728 2.318V3.34H100.139L100.083 4.166H95.4068V2.318H96.3728ZM102.771 8.632C102.407 8.72533 102.141 8.87467 101.973 9.08C101.805 9.28533 101.721 9.57933 101.721 9.962V13H100.573V9.934C100.573 9.52333 100.661 9.178 100.839 8.898C101.025 8.60867 101.315 8.408 101.707 8.296L100.125 7.932V6.588C100.517 6.21467 101.011 5.90667 101.609 5.664C102.215 5.42133 102.892 5.3 103.639 5.3C104.749 5.3 105.58 5.538 106.131 6.014C106.681 6.48067 106.957 7.204 106.957 8.184V13H105.809V8.142C105.809 7.45133 105.645 6.97067 105.319 6.7C104.992 6.42 104.432 6.28 103.639 6.28C103.116 6.28 102.626 6.35467 102.169 6.504C101.721 6.644 101.375 6.83533 101.133 7.078V7.372L102.771 7.764V8.632Z" fill="black"/>
</svg>
