<svg width="53" height="12" viewBox="0 0 53 12" fill="none" xmlns="http://www.w3.org/2000/svg">
<path d="M6.0898 4.378C6.37914 4.77 6.52381 5.33467 6.52381 6.072V11H5.3758V7.528H2.96781C2.3238 7.528 1.85247 7.63533 1.5538 7.85C1.26447 8.06467 1.1198 8.41 1.1198 8.886C1.1198 9.35267 1.25047 9.684 1.5118 9.88C1.78247 10.0667 2.22114 10.16 2.8278 10.16C3.1918 10.16 3.50914 10.1227 3.77981 10.048V11C3.42514 11.0933 3.00514 11.14 2.5198 11.14C1.75447 11.14 1.14314 10.958 0.685805 10.594C0.228471 10.2207 -0.000195302 9.65133 -0.000195302 8.886C-0.000195302 8.158 0.242471 7.59333 0.727805 7.192C1.21314 6.78133 1.93647 6.576 2.8978 6.576H5.3758V5.988C5.3758 5.54933 5.31047 5.20867 5.1798 4.966C5.04914 4.72333 4.8298 4.55067 4.52181 4.448C4.22314 4.336 3.79847 4.28 3.2478 4.28C2.37047 4.28 1.56314 4.40133 0.825805 4.644V3.692C1.18047 3.57067 1.59114 3.47733 2.0578 3.412C2.52447 3.33733 2.99114 3.3 3.4578 3.3C3.89647 3.3 4.3258 3.34667 4.74581 3.44H7.15381L7.09781 4.378H6.0898ZM12.7933 9.068C12.7933 8.79733 12.728 8.58267 12.5973 8.424C12.476 8.26533 12.308 8.13933 12.0933 8.046C11.888 7.95267 11.5753 7.84067 11.1553 7.71L10.6513 7.542C10.138 7.374 9.71796 7.206 9.39129 7.038C9.06462 6.87 8.79396 6.65067 8.57929 6.38C8.37396 6.1 8.27129 5.75467 8.27129 5.344C8.27129 4.68133 8.51862 4.17733 9.01329 3.832C9.50796 3.47733 10.236 3.3 11.1973 3.3C11.5893 3.3 11.986 3.33267 12.3873 3.398C12.7886 3.46333 13.134 3.54267 13.4233 3.636V4.644C12.798 4.40133 12.112 4.28 11.3653 4.28C10.684 4.28 10.1893 4.35467 9.88129 4.504C9.57329 4.644 9.41929 4.91467 9.41929 5.316C9.41929 5.57733 9.49862 5.792 9.65729 5.96C9.82529 6.11867 10.0353 6.24933 10.2873 6.352C10.5486 6.44533 10.9826 6.59 11.5893 6.786C12.112 6.954 12.5366 7.13133 12.8633 7.318C13.1993 7.49533 13.4606 7.724 13.6473 8.004C13.8433 8.284 13.9413 8.634 13.9413 9.054C13.9413 10.4447 12.9426 11.14 10.9453 11.14C10.4693 11.14 10.0073 11.1073 9.55929 11.042C9.12062 10.9767 8.75662 10.888 8.46729 10.776V9.754C9.15796 10.0247 9.91862 10.16 10.7493 10.16C11.4866 10.16 12.0093 10.09 12.3173 9.95C12.6346 9.80067 12.7933 9.50667 12.7933 9.068ZM11.5316 1.34H14.5976L14.5416 2.166H10.7056V0.85H9.59965V0.0239995H11.5316V1.34ZM18.6576 6.114C18.6576 5.65667 18.611 5.302 18.5176 5.05C18.4336 4.798 18.261 4.60667 17.9996 4.476C17.7476 4.34533 17.365 4.28 16.8516 4.28C16.553 4.28 16.2263 4.31267 15.8716 4.378C15.5263 4.44333 15.209 4.532 14.9196 4.644V3.692C15.209 3.58 15.545 3.48667 15.9276 3.412C16.3103 3.33733 16.6883 3.3 17.0616 3.3C18.023 3.3 18.7183 3.51467 19.1476 3.944C19.5863 4.364 19.8056 5.04533 19.8056 5.988V11H18.6576V6.114ZM24.53 3.44H25.146C26.2007 3.44 26.966 3.72467 27.442 4.294C27.918 4.86333 28.156 5.75 28.156 6.954C28.156 8.37267 27.8527 9.42733 27.246 10.118C26.6487 10.7993 25.8507 11.14 24.852 11.14C24.3013 11.14 23.8907 11.0887 23.62 10.986L21.492 5.806H22.612L24.404 10.16L24.684 10.174C25.4773 10.174 26.0607 9.91267 26.434 9.39C26.8167 8.858 27.008 8.05067 27.008 6.968C27.008 6.296 26.9473 5.778 26.826 5.414C26.7047 5.04067 26.4993 4.77467 26.21 4.616C25.93 4.45733 25.5333 4.378 25.02 4.378H24.53V3.44ZM29.5584 9.782C30.1744 10.034 30.7904 10.16 31.4064 10.16C32.0877 10.16 32.6197 10.062 33.0024 9.866C33.3944 9.67 33.6697 9.362 33.8284 8.942C33.9871 8.51267 34.0664 7.93867 34.0664 7.22C34.0664 6.17467 33.8564 5.42333 33.4364 4.966C33.0257 4.50867 32.3351 4.28 31.3644 4.28C30.7391 4.28 30.1371 4.41067 29.5584 4.672V3.692C30.1557 3.43067 30.8371 3.3 31.6024 3.3C34.0104 3.3 35.2144 4.60667 35.2144 7.22C35.2144 8.51733 34.9344 9.49733 34.3744 10.16C33.8144 10.8133 32.9137 11.14 31.6724 11.14C30.8697 11.14 30.1651 11.0093 29.5584 10.748V9.782ZM39.9311 6.114C39.9311 5.65667 39.8844 5.302 39.7911 5.05C39.7071 4.798 39.5344 4.60667 39.2731 4.476C39.0211 4.34533 38.6384 4.28 38.1251 4.28C37.8264 4.28 37.4998 4.31267 37.1451 4.378C36.7998 4.44333 36.4824 4.532 36.1931 4.644V3.692C36.4824 3.58 36.8184 3.48667 37.2011 3.412C37.5838 3.33733 37.9618 3.3 38.3351 3.3C39.2964 3.3 39.9918 3.51467 40.4211 3.944C40.8598 4.364 41.0791 5.04533 41.0791 5.988V11H39.9311V6.114ZM47.2874 9.068C47.2874 8.79733 47.2221 8.58267 47.0914 8.424C46.9701 8.26533 46.8021 8.13933 46.5874 8.046C46.3821 7.95267 46.0694 7.84067 45.6494 7.71L45.1454 7.542C44.6321 7.374 44.2121 7.206 43.8854 7.038C43.5588 6.87 43.2881 6.65067 43.0734 6.38C42.8681 6.1 42.7654 5.75467 42.7654 5.344C42.7654 4.68133 43.0128 4.17733 43.5074 3.832C44.0021 3.47733 44.7301 3.3 45.6914 3.3C46.0834 3.3 46.4801 3.33267 46.8814 3.398C47.2828 3.46333 47.6281 3.54267 47.9174 3.636V4.644C47.2921 4.40133 46.6061 4.28 45.8594 4.28C45.1781 4.28 44.6834 4.35467 44.3754 4.504C44.0674 4.644 43.9134 4.91467 43.9134 5.316C43.9134 5.57733 43.9928 5.792 44.1514 5.96C44.3194 6.11867 44.5294 6.24933 44.7814 6.352C45.0428 6.44533 45.4768 6.59 46.0834 6.786C46.6061 6.954 47.0308 7.13133 47.3574 7.318C47.6934 7.49533 47.9548 7.724 48.1414 8.004C48.3374 8.284 48.4354 8.634 48.4354 9.054C48.4354 10.4447 47.4368 11.14 45.4394 11.14C44.9634 11.14 44.5014 11.1073 44.0534 11.042C43.6148 10.9767 43.2508 10.888 42.9614 10.776V9.754C43.6521 10.0247 44.4128 10.16 45.2434 10.16C45.9808 10.16 46.5034 10.09 46.8114 9.95C47.1288 9.80067 47.2874 9.50667 47.2874 9.068ZM50.8278 4.672V5.358H52.9978L52.9558 6.24H49.8338V4.672H50.8278ZM50.8278 8.536V9.236H52.9978L52.9558 10.104H49.8338V8.536H50.8278Z" fill="black"/>
</svg>
