<svg width="125" height="13" viewBox="0 0 125 13" fill="none" xmlns="http://www.w3.org/2000/svg">
<path d="M2.83916 7.632C2.47516 7.72533 2.20916 7.87467 2.04116 8.08C1.87316 8.28533 1.78916 8.57933 1.78916 8.962V12H0.641164V8.934C0.641164 8.52333 0.729831 8.178 0.907164 7.898C1.09383 7.60867 1.38316 7.408 1.77516 7.296L0.193164 6.932V5.588C0.585164 5.21467 1.07983 4.90667 1.67716 4.664C2.28383 4.42133 2.9605 4.3 3.70716 4.3C4.81783 4.3 5.6485 4.538 6.19916 5.014C6.74983 5.48067 7.02516 6.204 7.02516 7.184V12H5.87716V7.142C5.87716 6.45133 5.71383 5.97067 5.38716 5.7C5.0605 5.42 4.5005 5.28 3.70716 5.28C3.1845 5.28 2.6945 5.35467 2.23716 5.504C1.78916 5.644 1.44383 5.83533 1.20116 6.078V6.372L2.83916 6.764V7.632ZM4.97274 2.046C4.97274 1.64467 5.11741 1.30867 5.40674 1.038C5.68674 0.758 6.03208 0.618 6.44274 0.618C6.85341 0.618 7.19874 0.758 7.47874 1.038C7.75874 1.30867 7.89874 1.64467 7.89874 2.046C7.89874 2.44733 7.75874 2.78333 7.47874 3.054C7.19874 3.32467 6.85341 3.46 6.44274 3.46C6.03208 3.46 5.68674 3.32467 5.40674 3.054C5.11741 2.78333 4.97274 2.44733 4.97274 2.046ZM5.74274 2.046C5.74274 2.23267 5.81274 2.396 5.95274 2.536C6.08341 2.66667 6.24674 2.732 6.44274 2.732C6.62941 2.732 6.79274 2.66667 6.93274 2.536C7.06341 2.396 7.12874 2.23267 7.12874 2.046C7.12874 1.85933 7.06341 1.696 6.93274 1.556C6.79274 1.416 6.62941 1.346 6.44274 1.346C6.24674 1.346 6.08341 1.416 5.95274 1.556C5.81274 1.696 5.74274 1.85933 5.74274 2.046ZM12.0287 7.114C12.0287 6.65667 11.9821 6.302 11.8887 6.05C11.8047 5.798 11.6321 5.60667 11.3707 5.476C11.1187 5.34533 10.7361 5.28 10.2227 5.28C9.92408 5.28 9.59741 5.31267 9.24274 5.378C8.89741 5.44333 8.58008 5.532 8.29074 5.644V4.692C8.58008 4.58 8.91608 4.48667 9.29874 4.412C9.68141 4.33733 10.0594 4.3 10.4327 4.3C11.3941 4.3 12.0894 4.51467 12.5187 4.944C12.9574 5.364 13.1767 6.04533 13.1767 6.988V12H12.0287V7.114ZM16.2911 6.89H18.7971C19.3944 6.89 19.8144 6.76867 20.0571 6.526C20.2998 6.274 20.4211 5.88667 20.4211 5.364V4.44H21.5691V5.35C21.5691 6.42333 21.1678 7.086 20.3651 7.338C20.8038 7.478 21.0978 7.70667 21.2471 8.024C21.4058 8.332 21.4851 8.738 21.4851 9.242V12H20.3371V9.382C20.3371 8.98067 20.2858 8.668 20.1831 8.444C20.0898 8.22 19.9264 8.06133 19.6931 7.968C19.4691 7.87467 19.1471 7.828 18.7271 7.828H16.2911V12H15.1431V4.44H16.2911V6.89ZM24.5899 4.44V9.41C24.5899 10.026 24.7252 10.474 24.9959 10.754C25.2759 11.0247 25.7239 11.16 26.3399 11.16C26.7972 11.16 27.2266 11.0667 27.6279 10.88C28.0386 10.6933 28.3932 10.4413 28.6919 10.124V4.44H29.8399V12H28.8039L28.7339 11.09C27.9592 11.79 27.0352 12.14 25.9619 12.14C25.1499 12.14 24.5246 11.9067 24.0859 11.44C23.6566 10.9733 23.4419 10.3013 23.4419 9.424V4.44H24.5899ZM35.2954 4.3C36.0794 4.3 36.7281 4.44 37.2414 4.72C37.7641 4.99067 38.1468 5.35467 38.3894 5.812C38.6321 6.26 38.7534 6.75933 38.7534 7.31V12H37.6054V7.324C37.6054 6.68933 37.4188 6.19 37.0454 5.826C36.6814 5.462 36.0888 5.28 35.2674 5.28C34.3528 5.28 33.6901 5.53667 33.2794 6.05C32.8688 6.554 32.6634 7.30067 32.6634 8.29C32.6634 9.326 32.8314 10.0633 33.1674 10.502C33.5128 10.9407 34.0354 11.16 34.7354 11.16C35.1554 11.16 35.4774 11.1227 35.7014 11.048V12C35.3934 12.0933 35.0061 12.14 34.5394 12.14C33.6248 12.14 32.8921 11.8227 32.3414 11.188C31.7908 10.544 31.5154 9.578 31.5154 8.29C31.5154 7.03 31.8281 6.05 32.4534 5.35C33.0881 4.65 34.0354 4.3 35.2954 4.3ZM41.8575 4.44V10.376C41.8575 10.6093 41.9088 10.782 42.0115 10.894C42.1235 11.006 42.2915 11.062 42.5155 11.062H43.1735V12H41.9975C41.5962 12 41.2788 11.8787 41.0455 11.636C40.8215 11.384 40.7095 11.0573 40.7095 10.656V4.44H41.8575ZM45.0635 4.44V10.376C45.0635 10.6093 45.1148 10.782 45.2175 10.894C45.3295 11.006 45.4975 11.062 45.7215 11.062H46.3795V12H45.2035C44.8022 12 44.4848 11.8787 44.2515 11.636C44.0275 11.384 43.9155 11.0573 43.9155 10.656V4.44H45.0635ZM48.065 5.826C48.065 5.42467 48.1863 5.09333 48.429 4.832C48.6716 4.57067 48.9936 4.44 49.395 4.44H50.599L50.641 5.392H49.899C49.647 5.392 49.465 5.448 49.353 5.56C49.2503 5.672 49.199 5.86333 49.199 6.134V10.404L51.313 6.75H51.859L53.973 10.404V4.44H55.093V12H53.917L51.593 7.926L49.241 12H48.065V5.826ZM58.1954 4.44V9.41C58.1954 10.026 58.3307 10.474 58.6014 10.754C58.8814 11.0247 59.3294 11.16 59.9454 11.16C60.4027 11.16 60.832 11.0667 61.2334 10.88C61.644 10.6933 61.9987 10.4413 62.2974 10.124V4.44H63.4454V12H62.4094L62.3394 11.09C61.5647 11.79 60.6407 12.14 59.5674 12.14C58.7554 12.14 58.13 11.9067 57.6914 11.44C57.262 10.9733 57.0474 10.3013 57.0474 9.424V4.44H58.1954ZM67.7669 7.632C67.4029 7.72533 67.1369 7.87467 66.9689 8.08C66.8009 8.28533 66.7169 8.57933 66.7169 8.962V12H65.5689V8.934C65.5689 8.52333 65.6576 8.178 65.8349 7.898C66.0216 7.60867 66.3109 7.408 66.7029 7.296L65.1209 6.932V5.588C65.5129 5.21467 66.0076 4.90667 66.6049 4.664C67.2116 4.42133 67.8882 4.3 68.6349 4.3C69.7456 4.3 70.5762 4.538 71.1269 5.014C71.6776 5.48067 71.9529 6.204 71.9529 7.184V12H70.8049V7.142C70.8049 6.45133 70.6416 5.97067 70.3149 5.7C69.9882 5.42 69.4282 5.28 68.6349 5.28C68.1122 5.28 67.6222 5.35467 67.1649 5.504C66.7169 5.644 66.3716 5.83533 66.1289 6.078V6.372L67.7669 6.764V7.632ZM76.9565 7.114C76.9565 6.65667 76.9098 6.302 76.8165 6.05C76.7325 5.798 76.5598 5.60667 76.2985 5.476C76.0465 5.34533 75.6638 5.28 75.1505 5.28C74.8518 5.28 74.5251 5.31267 74.1705 5.378C73.8251 5.44333 73.5078 5.532 73.2185 5.644V4.692C73.5078 4.58 73.8438 4.48667 74.2265 4.412C74.6091 4.33733 74.9871 4.3 75.3605 4.3C76.3218 4.3 77.0171 4.51467 77.4465 4.944C77.8851 5.364 78.1045 6.04533 78.1045 6.988V12H76.9565V7.114ZM84.3128 10.068C84.3128 9.79733 84.2475 9.58267 84.1168 9.424C83.9955 9.26533 83.8275 9.13933 83.6128 9.046C83.4075 8.95267 83.0948 8.84067 82.6748 8.71L82.1708 8.542C81.6575 8.374 81.2375 8.206 80.9108 8.038C80.5842 7.87 80.3135 7.65067 80.0988 7.38C79.8935 7.1 79.7908 6.75467 79.7908 6.344C79.7908 5.68133 80.0382 5.17733 80.5328 4.832C81.0275 4.47733 81.7555 4.3 82.7168 4.3C83.1088 4.3 83.5055 4.33267 83.9068 4.398C84.3082 4.46333 84.6535 4.54267 84.9428 4.636V5.644C84.3175 5.40133 83.6315 5.28 82.8848 5.28C82.2035 5.28 81.7088 5.35467 81.4008 5.504C81.0928 5.644 80.9388 5.91467 80.9388 6.316C80.9388 6.57733 81.0182 6.792 81.1768 6.96C81.3448 7.11867 81.5548 7.24933 81.8068 7.352C82.0682 7.44533 82.5022 7.59 83.1088 7.786C83.6315 7.954 84.0562 8.13133 84.3828 8.318C84.7188 8.49533 84.9802 8.724 85.1668 9.004C85.3628 9.284 85.4608 9.634 85.4608 10.054C85.4608 11.4447 84.4622 12.14 82.4648 12.14C81.9888 12.14 81.5268 12.1073 81.0788 12.042C80.6402 11.9767 80.2762 11.888 79.9868 11.776V10.754C80.6775 11.0247 81.4382 11.16 82.2688 11.16C83.0062 11.16 83.5288 11.09 83.8368 10.95C84.1542 10.8007 84.3128 10.5067 84.3128 10.068ZM92.3892 12V7.016C92.3892 6.40933 92.2445 5.97067 91.9552 5.7C91.6658 5.42 91.2178 5.28 90.6112 5.28C90.1538 5.28 89.7292 5.37333 89.3372 5.56C88.9452 5.74667 88.5952 6.00333 88.2872 6.33V12H87.1392V4.44H88.1752L88.2452 5.35C88.6185 5.014 89.0292 4.75733 89.4772 4.58C89.9252 4.39333 90.4385 4.3 91.0172 4.3C91.8198 4.3 92.4405 4.53333 92.8792 5C93.3178 5.46667 93.5372 6.134 93.5372 7.002V12H92.3892ZM91.4747 2.046C91.4747 1.64467 91.6194 1.30867 91.9087 1.038C92.1887 0.758 92.534 0.618 92.9447 0.618C93.3554 0.618 93.7007 0.758 93.9807 1.038C94.2607 1.30867 94.4007 1.64467 94.4007 2.046C94.4007 2.44733 94.2607 2.78333 93.9807 3.054C93.7007 3.32467 93.3554 3.46 92.9447 3.46C92.534 3.46 92.1887 3.32467 91.9087 3.054C91.6194 2.78333 91.4747 2.44733 91.4747 2.046ZM92.2447 2.046C92.2447 2.23267 92.3147 2.396 92.4547 2.536C92.5854 2.66667 92.7487 2.732 92.9447 2.732C93.1314 2.732 93.2947 2.66667 93.4347 2.536C93.5654 2.396 93.6307 2.23267 93.6307 2.046C93.6307 1.85933 93.5654 1.696 93.4347 1.556C93.2947 1.416 93.1314 1.346 92.9447 1.346C92.7487 1.346 92.5854 1.416 92.4547 1.556C92.3147 1.696 92.2447 1.85933 92.2447 2.046ZM98.5307 7.114C98.5307 6.65667 98.484 6.302 98.3907 6.05C98.3067 5.798 98.134 5.60667 97.8727 5.476C97.6207 5.34533 97.238 5.28 96.7247 5.28C96.426 5.28 96.0994 5.31267 95.7447 5.378C95.3994 5.44333 95.082 5.532 94.7927 5.644V4.692C95.082 4.58 95.418 4.48667 95.8007 4.412C96.1834 4.33733 96.5614 4.3 96.9347 4.3C97.896 4.3 98.5914 4.51467 99.0207 4.944C99.4594 5.364 99.6787 6.04533 99.6787 6.988V12H98.5307V7.114ZM101.365 10.782C101.981 11.034 102.597 11.16 103.213 11.16C103.894 11.16 104.426 11.062 104.809 10.866C105.201 10.67 105.476 10.362 105.635 9.942C105.794 9.51267 105.873 8.93867 105.873 8.22C105.873 7.17467 105.663 6.42333 105.243 5.966C104.832 5.50867 104.142 5.28 103.171 5.28C102.546 5.28 101.944 5.41067 101.365 5.672V4.692C101.962 4.43067 102.644 4.3 103.409 4.3C105.817 4.3 107.021 5.60667 107.021 8.22C107.021 9.51733 106.741 10.4973 106.181 11.16C105.621 11.8133 104.72 12.14 103.479 12.14C102.676 12.14 101.972 12.0093 101.365 11.748V10.782ZM111.738 7.114C111.738 6.65667 111.691 6.302 111.598 6.05C111.514 5.798 111.341 5.60667 111.08 5.476C110.828 5.34533 110.445 5.28 109.932 5.28C109.633 5.28 109.306 5.31267 108.952 5.378C108.606 5.44333 108.289 5.532 108 5.644V4.692C108.289 4.58 108.625 4.48667 109.008 4.412C109.39 4.33733 109.768 4.3 110.142 4.3C111.103 4.3 111.798 4.51467 112.228 4.944C112.666 5.364 112.886 6.04533 112.886 6.988V12H111.738V7.114ZM119.094 10.068C119.094 9.79733 119.029 9.58267 118.898 9.424C118.777 9.26533 118.609 9.13933 118.394 9.046C118.189 8.95267 117.876 8.84067 117.456 8.71L116.952 8.542C116.439 8.374 116.019 8.206 115.692 8.038C115.365 7.87 115.095 7.65067 114.88 7.38C114.675 7.1 114.572 6.75467 114.572 6.344C114.572 5.68133 114.819 5.17733 115.314 4.832C115.809 4.47733 116.537 4.3 117.498 4.3C117.89 4.3 118.287 4.33267 118.688 4.398C119.089 4.46333 119.435 4.54267 119.724 4.636V5.644C119.099 5.40133 118.413 5.28 117.666 5.28C116.985 5.28 116.49 5.35467 116.182 5.504C115.874 5.644 115.72 5.91467 115.72 6.316C115.72 6.57733 115.799 6.792 115.958 6.96C116.126 7.11867 116.336 7.24933 116.588 7.352C116.849 7.44533 117.283 7.59 117.89 7.786C118.413 7.954 118.837 8.13133 119.164 8.318C119.5 8.49533 119.761 8.724 119.948 9.004C120.144 9.284 120.242 9.634 120.242 10.054C120.242 11.4447 119.243 12.14 117.246 12.14C116.77 12.14 116.308 12.1073 115.86 12.042C115.421 11.9767 115.057 11.888 114.768 11.776V10.754C115.459 11.0247 116.219 11.16 117.05 11.16C117.787 11.16 118.31 11.09 118.618 10.95C118.935 10.8007 119.094 10.5067 119.094 10.068ZM122.634 5.672V6.358H124.804L124.762 7.24H121.64V5.672H122.634ZM122.634 9.536V10.236H124.804L124.762 11.104H121.64V9.536H122.634Z" fill="black"/>
</svg>
