<svg xmlns="http://www.w3.org/2000/svg" viewBox="0 0 47.24 68.19"><defs><style>.cls-1,.cls-10{fill:#50c9f5;}.cls-2{fill:none;}.cls-3{fill:#e6e6e6;}.cls-4{fill:#58595b;}.cls-5{fill:#808285;}.cls-6{fill:#939598;}.cls-7{fill:#fff;}.cls-8{fill:#c9ebfc;}.cls-11,.cls-12,.cls-9{fill:#00b0f0;}.cls-10{stroke:#50c9f5;}.cls-10,.cls-11{stroke-miterlimit:10;}.cls-11{stroke:#00b0f0;}.cls-12{font-size:5.57px;font-family:Anakotmai-Medium, Anakotmai;font-weight:500;}</style></defs><title>three-one-new</title><g id="Layer_2" data-name="Layer 2"><g id="Layer_1_copy_3" data-name="Layer 1 copy 3"><g id="_03" data-name="03"><path class="cls-1" d="M41,61.11H35.13a.59.59,0,0,1-.59-.59.58.58,0,0,1,.59-.59H41a.59.59,0,0,1,.59.59A.6.6,0,0,1,41,61.11Z"/><path class="cls-1" d="M30.45,60.84H6a.59.59,0,1,1,0-1.17H30.45a.59.59,0,1,1,0,1.17Z"/><path class="cls-2" d="M32.61,8.87h-18a2.55,2.55,0,0,0-2.28,1.42H34.88A2.52,2.52,0,0,0,32.61,8.87Z"/><path class="cls-3" d="M36.13,10.29a3.86,3.86,0,0,1,.17,1.13v3.12a.57.57,0,0,1-.57.57H11.5a.57.57,0,0,1-.57-.57V11.42a3.87,3.87,0,0,1,.18-1.13H.89V67.52H46.35V10.29Z"/><path class="cls-4" d="M0,33V10.09a.57.57,0,0,1,.57-.57H11.75a.59.59,0,0,1,.49.26.62.62,0,0,1,0,.56A2.58,2.58,0,0,0,12,11.41V14H35.11V11.41a2.49,2.49,0,0,0-.24-1.07.59.59,0,0,1,0-.56.56.56,0,0,1,.48-.26H46.66a.57.57,0,0,1,.58.57V67.62a.57.57,0,0,1-.58.57H.57A.57.57,0,0,1,0,67.62V46.7M1.14,47v20.1h45V10.66H36.18a3.82,3.82,0,0,1,.08.75v3.13a.58.58,0,0,1-.57.57H11.46a.57.57,0,0,1-.57-.57V11.41a4.76,4.76,0,0,1,.07-.75H1.14V32.72"/><path class="cls-4" d="M32.61,7.69h-18a3.72,3.72,0,0,0-3.7,3.73v3.15a.58.58,0,0,0,.57.58H35.73a.58.58,0,0,0,.57-.58V11.42A3.72,3.72,0,0,0,32.61,7.69Z"/><path class="cls-5" d="M29.12,5.12H26.39a.59.59,0,0,0-.5.29,2.61,2.61,0,0,1-4.55,0,.57.57,0,0,0-.5-.29H18.12a.58.58,0,0,0-.57.57v4.53a.57.57,0,0,0,.57.57h11a.57.57,0,0,0,.57-.57V5.69A.58.58,0,0,0,29.12,5.12Z"/><path class="cls-6" d="M27.36,4.23A3.75,3.75,0,1,1,23.62.5,3.73,3.73,0,0,1,27.36,4.23Z"/><path class="cls-7" d="M26.37,4.26a2.67,2.67,0,0,1-5.34,0,2.67,2.67,0,0,1,5.34,0Z"/><path class="cls-4" d="M32.58,39.27c0-.43-.24-.79-.53-.79H7.2c-.3,0-.53.36-.53.79h0c0,.44.23.8.53.8H32.05c.29,0,.53-.36.53-.8Z"/><path class="cls-4" d="M32.58,43.42c0-.44-.24-.79-.53-.79H7.2c-.3,0-.53.35-.53.79h0c0,.44.23.79.53.79H32.05c.29,0,.53-.35.53-.79Z"/><path class="cls-4" d="M32.58,47.44c0-.44-.24-.79-.53-.79H7.2c-.3,0-.53.35-.53.79h0c0,.44.23.8.53.8H32.05c.29,0,.53-.36.53-.8Z"/><path class="cls-4" d="M32.58,27.36c0-.44-.24-.79-.53-.79H7.2c-.3,0-.53.35-.53.79h0c0,.44.23.79.53.79H32.05c.29,0,.53-.35.53-.79Z"/><path class="cls-4" d="M32.58,31.51c0-.44-.24-.79-.53-.79H7.2c-.3,0-.53.35-.53.79h0c0,.44.23.79.53.79H32.05c.29,0,.53-.35.53-.79Z"/><path class="cls-4" d="M32.58,35.53c0-.44-.24-.79-.53-.79H7.2c-.3,0-.53.35-.53.79h0c0,.44.23.79.53.79H32.05c.29,0,.53-.35.53-.79Z"/><path class="cls-2" d="M32.61,8.87h-18a2.55,2.55,0,0,0-2.28,1.42H34.88A2.52,2.52,0,0,0,32.61,8.87Z"/><path class="cls-8" d="M36.13,10.29a3.86,3.86,0,0,1,.17,1.13v3.12a.57.57,0,0,1-.57.57H11.5a.57.57,0,0,1-.57-.57V11.42a3.87,3.87,0,0,1,.18-1.13H.89V67.52H46.35V10.29Z"/><path class="cls-9" d="M0,33V10.09a.57.57,0,0,1,.57-.57H11.75a.59.59,0,0,1,.49.26.62.62,0,0,1,0,.56A2.58,2.58,0,0,0,12,11.41V14H35.11V11.41a2.49,2.49,0,0,0-.24-1.07.59.59,0,0,1,0-.56.56.56,0,0,1,.48-.26H46.66a.57.57,0,0,1,.58.57V67.62a.57.57,0,0,1-.58.57H.57A.57.57,0,0,1,0,67.62V46.7M1.14,47v20.1h45V10.66H36.18a3.82,3.82,0,0,1,.08.75v3.13a.58.58,0,0,1-.57.57H11.46a.57.57,0,0,1-.57-.57V11.41a4.76,4.76,0,0,1,.07-.75H1.14V32.72"/><path class="cls-9" d="M32.61,7.69h-18a3.72,3.72,0,0,0-3.7,3.73v3.15a.58.58,0,0,0,.57.58H35.73a.58.58,0,0,0,.57-.58V11.42A3.72,3.72,0,0,0,32.61,7.69Z"/><path class="cls-1" d="M29.12,5.12H26.39a.59.59,0,0,0-.5.29,2.61,2.61,0,0,1-4.55,0,.57.57,0,0,0-.5-.29H18.12a.58.58,0,0,0-.57.57v4.53a.57.57,0,0,0,.57.57h11a.57.57,0,0,0,.57-.57V5.69A.58.58,0,0,0,29.12,5.12Z"/><path class="cls-10" d="M27.36,4.23A3.75,3.75,0,1,1,23.62.5,3.73,3.73,0,0,1,27.36,4.23Z"/><path class="cls-11" d="M26.37,4.26a2.67,2.67,0,0,1-5.34,0,2.67,2.67,0,0,1,5.34,0Z"/><path class="cls-1" d="M41,35H35.13a.58.58,0,0,1-.59-.59.59.59,0,0,1,.59-.59H41a.6.6,0,0,1,.59.59A.59.59,0,0,1,41,35Z"/><path class="cls-1" d="M41,40.13H35.13a.58.58,0,0,1-.59-.59.59.59,0,0,1,.59-.59H41a.6.6,0,0,1,.59.59A.59.59,0,0,1,41,40.13Z"/><path class="cls-1" d="M30.45,45.31H6a.59.59,0,1,1,0-1.17H30.45a.59.59,0,1,1,0,1.17Z"/><path class="cls-1" d="M41,45.31H35.13a.59.59,0,1,1,0-1.17H41a.59.59,0,1,1,0,1.17Z"/><path class="cls-1" d="M41,50.45H35.13a.59.59,0,1,1,0-1.17H41a.59.59,0,1,1,0,1.17Z"/><path class="cls-1" d="M41,55.67H35.13a.59.59,0,0,1-.59-.59.58.58,0,0,1,.59-.59H41a.59.59,0,0,1,.59.59A.6.6,0,0,1,41,55.67Z"/><path class="cls-1" d="M30.45,50.49H6a.59.59,0,0,1-.59-.59A.6.6,0,0,1,6,49.31H30.45a.59.59,0,0,1,.59.59A.58.58,0,0,1,30.45,50.49Z"/><path class="cls-1" d="M30.45,55.66H6a.59.59,0,1,1,0-1.17H30.45a.59.59,0,1,1,0,1.17Z"/><path class="cls-1" d="M30.45,35.15H6a.6.6,0,0,1-.59-.59A.59.59,0,0,1,6,34H30.45a.58.58,0,0,1,.59.59A.59.59,0,0,1,30.45,35.15Z"/><path class="cls-1" d="M30.45,40.32H6a.59.59,0,1,1,0-1.17H30.45a.59.59,0,1,1,0,1.17Z"/><path class="cls-9" d="M25.8,29.52a.37.37,0,0,1-.37-.36v-9a.37.37,0,0,1,.37-.36.36.36,0,0,1,.36.36v9A.36.36,0,0,1,25.8,29.52Z"/><path class="cls-9" d="M30.06,29.52a.37.37,0,0,1-.37-.36V22.3a.37.37,0,0,1,.37-.36.36.36,0,0,1,.36.36v6.86A.36.36,0,0,1,30.06,29.52Z"/><path class="cls-9" d="M34.32,29.52a.36.36,0,0,1-.36-.36V16.86a.36.36,0,0,1,.72,0v12.3A.36.36,0,0,1,34.32,29.52Z"/><path class="cls-9" d="M38.59,29.52a.36.36,0,0,1-.36-.36V21A.36.36,0,1,1,39,21v8.15A.36.36,0,0,1,38.59,29.52Z"/><path class="cls-9" d="M41.38,29.6H6a.36.36,0,1,1,0-.72h35.4a.36.36,0,1,1,0,.72Z"/><text class="cls-12" transform="translate(5.81 27.62)">สส.101</text></g></g></g></svg>