<svg width="64" height="56" viewBox="0 0 64 56" fill="none" xmlns="http://www.w3.org/2000/svg">
<path fill-rule="evenodd" clip-rule="evenodd" d="M47.0607 23.1032L61.8157 37.8582C62.4657 38.5082 62.4657 39.5319 61.8157 40.1494L58.0782 43.8869C57.4445 44.5207 56.4207 44.5207 55.787 43.8869L40.9832 29.0832C37.2132 30.4969 32.8095 29.7007 29.787 26.6782C26.0495 22.9569 25.7082 17.1232 28.7307 12.9957L34.9545 19.2194L37.262 16.9282L31.022 10.6719C35.1657 7.6494 40.9832 7.99065 44.7207 11.7282C47.792 14.8157 48.572 19.3007 47.0607 23.1032ZM41.5682 25.0856L56.9407 40.4581L58.3707 39.0118L43.0145 23.6556C43.762 22.6968 44.2495 21.6243 44.4445 20.4706C44.8507 18.2118 44.1845 15.7906 42.4295 14.0356C40.8857 12.5081 38.8545 11.7931 36.8395 11.9068L41.8607 16.9281L34.9707 23.8181L29.9495 18.7968C29.8357 20.8118 30.5507 22.8593 32.0945 24.3868C33.7845 26.0768 36.1082 26.7431 38.3182 26.4181C39.472 26.2556 40.577 25.8168 41.5682 25.0856Z" fill="black" fill-opacity="0.54"/>
<path fill-rule="evenodd" clip-rule="evenodd" d="M15.8333 20.5H4.16667C3.25 20.5 2.5 21.25 2.5 22.1667V33.8333C2.5 34.75 3.25 35.5 4.16667 35.5H15.8333C16.75 35.5 17.5 34.75 17.5 33.8333V22.1667C17.5 21.25 16.75 20.5 15.8333 20.5ZM15.8333 33.8333H4.16667V22.1667H15.8333V33.8333ZM13.8167 24.3167L14.9917 25.5L8.32501 32.1667L4.99168 28.8417L6.17501 27.6667L8.32501 29.8083L13.8167 24.3167Z" fill="black" fill-opacity="0.54"/>
<path fill-rule="evenodd" clip-rule="evenodd" d="M15.8333 2.5H4.16667C3.25 2.5 2.5 3.25 2.5 4.16667V15.8333C2.5 16.75 3.25 17.5 4.16667 17.5H15.8333C16.75 17.5 17.5 16.75 17.5 15.8333V4.16667C17.5 3.25 16.75 2.5 15.8333 2.5ZM15.8333 15.8333H4.16667V4.16667H15.8333V15.8333ZM13.8167 6.31667L14.9917 7.5L8.32501 14.1667L4.99168 10.8417L6.17501 9.66667L8.32501 11.8083L13.8167 6.31667Z" fill="black" fill-opacity="0.54"/>
<path fill-rule="evenodd" clip-rule="evenodd" d="M4.16667 38.5H15.8333C16.75 38.5 17.5 39.25 17.5 40.1667V51.8333C17.5 52.75 16.75 53.5 15.8333 53.5H4.16667C3.25 53.5 2.5 52.75 2.5 51.8333V40.1667C2.5 39.25 3.25 38.5 4.16667 38.5ZM15.8333 51.8333V40.1667H4.16667V51.8333H15.8333Z" fill="black" fill-opacity="0.54"/>
</svg>
