<svg width="72" height="76" viewBox="0 0 72 76" fill="none" xmlns="http://www.w3.org/2000/svg">
<path d="M16.0175 3.378C16.3069 3.77 16.4515 4.33467 16.4515 5.072V10H15.3035V6.528H12.8955C12.2515 6.528 11.7802 6.63533 11.4815 6.85C11.1922 7.06467 11.0475 7.41 11.0475 7.886C11.0475 8.35267 11.1782 8.684 11.4395 8.88C11.7102 9.06667 12.1489 9.16 12.7555 9.16C13.1195 9.16 13.4369 9.12267 13.7075 9.048V10C13.3529 10.0933 12.9329 10.14 12.4475 10.14C11.6822 10.14 11.0709 9.958 10.6135 9.594C10.1562 9.22067 9.92754 8.65133 9.92754 7.886C9.92754 7.158 10.1702 6.59333 10.6555 6.192C11.1409 5.78133 11.8642 5.576 12.8255 5.576H15.3035V4.988C15.3035 4.54933 15.2382 4.20867 15.1075 3.966C14.9769 3.72333 14.7575 3.55067 14.4495 3.448C14.1509 3.336 13.7262 3.28 13.1755 3.28C12.2982 3.28 11.4909 3.40133 10.7535 3.644V2.692C11.1082 2.57067 11.5189 2.47733 11.9855 2.412C12.4522 2.33733 12.9189 2.3 13.3855 2.3C13.8242 2.3 14.2535 2.34667 14.6735 2.44H17.0815L17.0255 3.378H16.0175ZM24.289 3.378C24.5784 3.77 24.723 4.33467 24.723 5.072V10H23.575V6.528H21.167C20.523 6.528 20.0517 6.63533 19.753 6.85C19.4637 7.06467 19.319 7.41 19.319 7.886C19.319 8.35267 19.4497 8.684 19.711 8.88C19.9817 9.06667 20.4204 9.16 21.027 9.16C21.391 9.16 21.7084 9.12267 21.979 9.048V10C21.6244 10.0933 21.2044 10.14 20.719 10.14C19.9537 10.14 19.3424 9.958 18.885 9.594C18.4277 9.22067 18.199 8.65133 18.199 7.886C18.199 7.158 18.4417 6.59333 18.927 6.192C19.4124 5.78133 20.1357 5.576 21.097 5.576H23.575V4.988C23.575 4.54933 23.5097 4.20867 23.379 3.966C23.2484 3.72333 23.029 3.55067 22.721 3.448C22.4224 3.336 21.9977 3.28 21.447 3.28C20.5697 3.28 19.7624 3.40133 19.025 3.644V2.692C19.3797 2.57067 19.7904 2.47733 20.257 2.412C20.7237 2.33733 21.1904 2.3 21.657 2.3C22.0957 2.3 22.525 2.34667 22.945 2.44H25.353L25.297 3.378H24.289ZM26.4705 9.034H27.5065V10H26.4705V9.034ZM30.3321 1.964L28.9041 2.216V1.25L31.4801 0.843999V10H30.3321V1.964ZM36.9921 10.14C34.4347 10.14 33.1561 8.628 33.1561 5.604C33.1561 4.02667 33.4501 2.84133 34.0381 2.048C34.6354 1.24533 35.6201 0.843999 36.9921 0.843999C38.3547 0.843999 39.3301 1.24533 39.9181 2.048C40.5154 2.84133 40.8141 4.02667 40.8141 5.604C40.8141 8.628 39.5401 10.14 36.9921 10.14ZM36.9921 9.16C37.9347 9.16 38.6161 8.852 39.0361 8.236C39.4561 7.62 39.6661 6.74267 39.6661 5.604C39.6661 4.33467 39.4607 3.38733 39.0501 2.762C38.6487 2.13667 37.9627 1.824 36.9921 1.824C36.0121 1.824 35.3167 2.13667 34.9061 2.762C34.5047 3.378 34.3041 4.32533 34.3041 5.604C34.3041 6.73333 34.5141 7.61067 34.9341 8.236C35.3634 8.852 36.0494 9.16 36.9921 9.16ZM43.6485 1.964L42.2205 2.216V1.25L44.7965 0.843999V10H43.6485V1.964Z" fill="black"/>
<path fill-rule="evenodd" clip-rule="evenodd" d="M60 54C54.48 54 50 58.48 50 64C50 69.52 54.48 74 60 74C65.52 74 70 69.52 70 64C70 58.48 65.52 54 60 54ZM60 72C55.59 72 52 68.41 52 64C52 59.59 55.59 56 60 56C64.41 56 68 59.59 68 64C68 68.41 64.41 72 60 72ZM58 66.17L64.59 59.58L66 61L58 69L54 65L55.41 63.59L58 66.17Z" fill="black" fill-opacity="0.54"/>
<path fill-rule="evenodd" clip-rule="evenodd" d="M43.5417 22.5H33.9625C33 19.6 30.4792 17.5 27.5 17.5C24.5208 17.5 22 19.6 21.0375 22.5H11.4583C8.9375 22.5 6.875 24.75 6.875 27.5V67.5C6.875 70.25 8.9375 72.5 11.4583 72.5H43.5417C46.0625 72.5 48.125 70.25 48.125 67.5V27.5C48.125 24.75 46.0625 22.5 43.5417 22.5ZM27.5 22.5C28.7604 22.5 29.7916 23.625 29.7916 25C29.7916 26.375 28.7604 27.5 27.5 27.5C26.2395 27.5 25.2083 26.375 25.2083 25C25.2083 23.625 26.2395 22.5 27.5 22.5ZM11.4583 27.5V67.5H43.5416V27.5H38.9583V35H16.0416V27.5H11.4583Z" fill="#828282"/>
</svg>
