<svg xmlns="http://www.w3.org/2000/svg" viewBox="0 0 81.99 88.47"><defs><style>.cls-1,.cls-12,.cls-2,.cls-3{fill:#fff;}.cls-1,.cls-10,.cls-2,.cls-3,.cls-6{stroke:#00b0f0;}.cls-1,.cls-10,.cls-11,.cls-2,.cls-3,.cls-5,.cls-6,.cls-7,.cls-8,.cls-9{stroke-miterlimit:10;}.cls-10,.cls-2,.cls-7,.cls-9{stroke-width:0.3px;}.cls-3{stroke-width:0.5px;}.cls-4,.cls-5,.cls-6{fill:#00b0f0;}.cls-5{stroke:#00b5f1;}.cls-7,.cls-8,.cls-9{fill:#92d9f8;}.cls-7,.cls-8{stroke:#92d9f8;}.cls-11,.cls-9{stroke:#50c9f5;}.cls-10{fill:#e2f4fd;}.cls-11{fill:#50c9f5;}.cls-13{fill:#ed2224;}.cls-14{fill:#fcee23;}.cls-15{fill:#231f20;}</style></defs><title>two-two-new</title><g id="Layer_2" data-name="Layer 2"><g id="Layer_1_copy_3" data-name="Layer 1 copy 3"><g id="_07" data-name="07"><polygon class="cls-1" points="36.44 16.88 41.74 11.57 46.42 17.36 46.39 76.97 36.12 76.97 36.44 16.88"/><path class="cls-2" d="M76.77,13.86a9,9,0,0,1-11.41-2.49A6.85,6.85,0,0,1,67.85,1.22,9,9,0,0,1,79.27,3.71,6.85,6.85,0,0,1,76.77,13.86Z"/><polyline class="cls-3" points="64.21 6.15 30.68 26.26 35.51 33.1 68.65 13.95"/><polygon class="cls-4" points="67.5 7.14 70.44 11.22 66.34 13.52 63.4 9.45 67.5 7.14"/><polygon class="cls-4" points="59.77 11.63 62.71 15.7 58.61 18.01 55.67 13.93 59.77 11.63"/><polygon class="cls-4" points="44.38 20.11 47.32 24.19 43.22 26.49 40.28 22.42 44.38 20.11"/><polygon class="cls-4" points="52.08 15.89 55.01 19.97 50.91 22.27 47.97 18.2 52.08 15.89"/><polygon class="cls-4" points="37.13 24.43 40.07 28.51 35.97 30.81 33.03 26.74 37.13 24.43"/><path class="cls-4" d="M75.24,12a6.11,6.11,0,0,1-7.78-1.66,4.66,4.66,0,0,1,1.73-6.9A6.1,6.1,0,0,1,77,5.05,4.66,4.66,0,0,1,75.24,12Z"/><rect class="cls-4" x="24.29" y="75.47" width="31" height="2"/><rect class="cls-5" x="13.79" y="79.97" width="4" height="6"/><rect class="cls-6" x="10.79" y="85.97" width="10" height="2"/><rect class="cls-7" x="11.75" y="34.23" width="22.13" height="5.03" transform="translate(-19.2 26.48) rotate(-44.43)"/><rect class="cls-8" x="13.79" y="41.31" width="4.86" height="5.73" transform="translate(-28.33 59.33) rotate(-88.62)"/><line class="cls-9" x1="19.79" y1="43.47" x2="19.31" y2="46.25"/><line class="cls-9" x1="12.64" y1="44.01" x2="12.8" y2="46.14"/><line class="cls-9" x1="16.01" y1="39.55" x2="28.75" y2="27.19"/><line class="cls-9" x1="19.49" y1="43.99" x2="32.44" y2="31.09"/><path class="cls-9" d="M28.6,27.35a2.64,2.64,0,0,1,3.76-.19,2.85,2.85,0,0,1,.07,3.94"/><path class="cls-9" d="M12.67,44.29.34,30.86a2,2,0,0,1,0-1.74A3.85,3.85,0,0,1,1.12,28a5.94,5.94,0,0,1,1.61-.86c.47-.11,1-.2,1.28.09l1.57,1.67,3.6,3.81,3.94,4.19c.88.93,3,2.84,3,2.84"/><path class="cls-10" d="M4.54,30.24A1.55,1.55,0,0,1,3,31.76a1.52,1.52,0,1,1,0-3A1.55,1.55,0,0,1,4.54,30.24Z"/><path class="cls-10" d="M7.78,33.48A1.55,1.55,0,0,1,6.19,35a1.52,1.52,0,1,1,0-3A1.55,1.55,0,0,1,7.78,33.48Z"/><path class="cls-10" d="M11,36.45a1.59,1.59,0,1,1-1.59-1.52A1.55,1.55,0,0,1,11,36.45Z"/><path class="cls-10" d="M14.53,40.23a1.59,1.59,0,1,1-1.59-1.52A1.55,1.55,0,0,1,14.53,40.23Z"/><path class="cls-10" d="M17.77,43.2a1.59,1.59,0,1,1-1.59-1.52A1.55,1.55,0,0,1,17.77,43.2Z"/><path class="cls-10" d="M21,40a1.59,1.59,0,1,1-1.59-1.52A1.56,1.56,0,0,1,21,40Z"/><path class="cls-10" d="M24.24,36.72a1.59,1.59,0,1,1-1.58-1.52A1.55,1.55,0,0,1,24.24,36.72Z"/><path class="cls-10" d="M27.75,33.21a1.59,1.59,0,1,1-1.58-1.52A1.55,1.55,0,0,1,27.75,33.21Z"/><path class="cls-10" d="M31,30a1.59,1.59,0,1,1-1.58-1.51A1.55,1.55,0,0,1,31,30Z"/><path class="cls-11" d="M21.79,80V47.48c0-.74.44-1.51-.39-1.51H11.12a1.42,1.42,0,0,0-1.33,1.51V80Z"/><path class="cls-4" d="M21.29,75.47V49.09c0-.59-.31-.83-.93-.83l-7.54-.07h-.75c-.62,0-1.78.31-1.78.9V75.47Z"/><path class="cls-12" d="M18.2,54.25a2.61,2.61,0,1,1-2.6-2.58A2.6,2.6,0,0,1,18.2,54.25Z"/><path class="cls-12" d="M18.12,62.52a2.61,2.61,0,1,1-2.6-2.58A2.59,2.59,0,0,1,18.12,62.52Z"/><path class="cls-13" d="M18.12,70.8a2.61,2.61,0,1,1-2.6-2.58A2.6,2.6,0,0,1,18.12,70.8Z"/><rect class="cls-5" x="62.79" y="79.97" width="3" height="6"/><rect class="cls-6" x="59.79" y="85.97" width="10" height="2"/><rect class="cls-7" x="60.41" y="34.23" width="22.13" height="5.03" transform="translate(-5.29 60.54) rotate(-44.43)"/><rect class="cls-8" x="62.44" y="41.31" width="4.86" height="5.73" transform="translate(19.15 107.96) rotate(-88.62)"/><line class="cls-9" x1="68.44" y1="43.47" x2="67.96" y2="46.25"/><line class="cls-9" x1="61.29" y1="44.01" x2="61.45" y2="46.14"/><line class="cls-9" x1="64.66" y1="39.55" x2="77.4" y2="27.19"/><line class="cls-9" x1="68.14" y1="43.99" x2="81.09" y2="31.09"/><path class="cls-9" d="M77.26,27.35A2.63,2.63,0,0,1,81,27.16a2.85,2.85,0,0,1,.07,3.94"/><path class="cls-9" d="M61.32,44.29,49,30.86a2,2,0,0,1,0-1.74A3.85,3.85,0,0,1,49.77,28a5.94,5.94,0,0,1,1.61-.86c.47-.11,1-.2,1.28.09l1.57,1.67,3.6,3.81,3.94,4.19c.88.93,3,2.84,3,2.84"/><path class="cls-10" d="M53.19,30.24a1.59,1.59,0,1,1-1.58-1.51A1.55,1.55,0,0,1,53.19,30.24Z"/><path class="cls-10" d="M56.43,33.48A1.59,1.59,0,1,1,54.84,32,1.55,1.55,0,0,1,56.43,33.48Z"/><path class="cls-10" d="M59.67,36.45a1.59,1.59,0,1,1-1.59-1.52A1.55,1.55,0,0,1,59.67,36.45Z"/><path class="cls-10" d="M63.18,40.23a1.59,1.59,0,1,1-1.59-1.52A1.55,1.55,0,0,1,63.18,40.23Z"/><path class="cls-10" d="M66.42,43.2a1.59,1.59,0,1,1-1.59-1.52A1.55,1.55,0,0,1,66.42,43.2Z"/><path class="cls-10" d="M69.66,40a1.59,1.59,0,1,1-1.59-1.52A1.55,1.55,0,0,1,69.66,40Z"/><path class="cls-10" d="M72.89,36.72a1.59,1.59,0,1,1-1.58-1.52A1.55,1.55,0,0,1,72.89,36.72Z"/><path class="cls-10" d="M76.4,33.21a1.59,1.59,0,1,1-1.58-1.52A1.55,1.55,0,0,1,76.4,33.21Z"/><path class="cls-10" d="M79.64,30a1.59,1.59,0,1,1-1.58-1.51A1.55,1.55,0,0,1,79.64,30Z"/><path class="cls-11" d="M70.79,80V47.48c0-.74.09-1.51-.74-1.51H59.77c-.83,0-2,.77-2,1.51V80Z"/><path class="cls-4" d="M70.29,75.47V49.09c0-.59-.48-.83-1.1-.83l-7.63-.07H60.44c-.62,0-2.15.31-2.15.9V75.47Z"/><path class="cls-12" d="M66.85,54.25a2.61,2.61,0,1,1-2.6-2.58A2.6,2.6,0,0,1,66.85,54.25Z"/><path class="cls-14" d="M66.77,62.52a2.6,2.6,0,1,1-2.6-2.58A2.59,2.59,0,0,1,66.77,62.52Z"/><path class="cls-12" d="M66.77,70.8a2.6,2.6,0,1,1-2.6-2.58A2.6,2.6,0,0,1,66.77,70.8Z"/><polygon class="cls-15" points="38.96 85.95 30.25 81.02 32.46 77.22 37.3 79.93 49.55 59.38 52.93 61.3 38.96 85.95"/></g></g></g></svg>