<svg width="55" height="60" viewBox="0 0 55 60" fill="none" xmlns="http://www.w3.org/2000/svg">
<path fill-rule="evenodd" clip-rule="evenodd" d="M43.5417 7.5H33.9625C33 4.6 30.4792 2.5 27.5 2.5C24.5208 2.5 22 4.6 21.0375 7.5H11.4583C8.9375 7.5 6.875 9.75 6.875 12.5V52.5C6.875 55.25 8.9375 57.5 11.4583 57.5H43.5417C46.0625 57.5 48.125 55.25 48.125 52.5V12.5C48.125 9.75 46.0625 7.5 43.5417 7.5ZM27.5 7.5C28.7604 7.5 29.7916 8.625 29.7916 10C29.7916 11.375 28.7604 12.5 27.5 12.5C26.2395 12.5 25.2083 11.375 25.2083 10C25.2083 8.625 26.2395 7.5 27.5 7.5ZM11.4583 12.5V52.5H43.5416V12.5H38.9583V20H16.0416V12.5H11.4583Z" fill="#828282"/>
</svg>
