<svg xmlns="http://www.w3.org/2000/svg" viewBox="0 0 70.44 82.02"><defs><style>.cls-1{fill:none;}.cls-2{fill:#e6e6e6;}.cls-3{fill:#58595b;}.cls-4{fill:#808285;}.cls-5{fill:#939598;}.cls-6{fill:#fff;}.cls-12,.cls-7{fill:#c9ebfc;}.cls-11,.cls-8{fill:#00b0f0;}.cls-10,.cls-13,.cls-9{fill:#50c9f5;}.cls-10,.cls-13{stroke:#50c9f5;}.cls-10,.cls-11{stroke-miterlimit:10;}.cls-11,.cls-12{stroke:#00b0f0;}.cls-12,.cls-13{stroke-linecap:round;stroke-linejoin:round;}</style></defs><title>two-one-new</title><g id="Layer_2" data-name="Layer 2"><g id="Layer_1_copy_3" data-name="Layer 1 copy 3"><g id="_02" data-name="02"><path class="cls-1" d="M32.61,8.87h-18a2.55,2.55,0,0,0-2.28,1.42H34.88A2.52,2.52,0,0,0,32.61,8.87Z"/><path class="cls-2" d="M36.13,10.29a3.86,3.86,0,0,1,.17,1.13v3.12a.57.57,0,0,1-.57.57H11.51a.57.57,0,0,1-.58-.57V11.42a3.87,3.87,0,0,1,.18-1.13H.89V67.52H46.35V10.29Z"/><path class="cls-3" d="M0,33V10.09a.57.57,0,0,1,.57-.57H11.75a.56.56,0,0,1,.52.81A2.66,2.66,0,0,0,12,11.41V14H35.11V11.41a2.54,2.54,0,0,0-.24-1.08.56.56,0,0,1,.52-.81H46.66a.56.56,0,0,1,.57.57V67.62a.56.56,0,0,1-.57.57H.57A.57.57,0,0,1,0,67.62V46.7M1.14,47v20.1h45V10.66H36.18a3.82,3.82,0,0,1,.08.75v3.13a.58.58,0,0,1-.58.57H11.46a.57.57,0,0,1-.57-.57V11.41a3.81,3.81,0,0,1,.07-.75H1.14V32.72"/><path class="cls-3" d="M32.61,7.69h-18a3.72,3.72,0,0,0-3.7,3.73v3.15a.58.58,0,0,0,.58.58H35.73a.58.58,0,0,0,.57-.58V11.42A3.72,3.72,0,0,0,32.61,7.69Z"/><path class="cls-4" d="M29.11,5.12H26.39a.59.59,0,0,0-.5.29,2.61,2.61,0,0,1-4.55,0,.57.57,0,0,0-.5-.29H18.12a.58.58,0,0,0-.57.57v4.53a.57.57,0,0,0,.57.57h11a.57.57,0,0,0,.58-.57V5.69A.58.58,0,0,0,29.11,5.12Z"/><path class="cls-5" d="M27.36,4.23A3.75,3.75,0,1,1,23.62.5,3.73,3.73,0,0,1,27.36,4.23Z"/><path class="cls-6" d="M26.37,4.26a2.67,2.67,0,0,1-5.34,0,2.67,2.67,0,0,1,5.34,0Z"/><path class="cls-3" d="M32.58,39.27c0-.43-.24-.79-.53-.79H7.2c-.3,0-.53.36-.53.79h0c0,.44.23.8.53.8H32.05c.29,0,.53-.36.53-.8Z"/><path class="cls-3" d="M32.58,43.42c0-.44-.24-.79-.53-.79H7.2c-.3,0-.53.35-.53.79h0c0,.44.23.79.53.79H32.05c.29,0,.53-.35.53-.79Z"/><path class="cls-3" d="M32.58,47.44c0-.44-.24-.79-.53-.79H7.2c-.3,0-.53.35-.53.79h0c0,.44.23.8.53.8H32.05c.29,0,.53-.36.53-.8Z"/><path class="cls-3" d="M41.28,39.3a.78.78,0,0,1-.78.79H35.36a.79.79,0,0,1-.79-.79h0a.78.78,0,0,1,.79-.78H40.5a.78.78,0,0,1,.78.78Z"/><path class="cls-3" d="M41.25,43.45a.78.78,0,0,1-.78.79H35.33a.79.79,0,0,1-.79-.79h0a.78.78,0,0,1,.79-.78h5.14a.78.78,0,0,1,.78.78Z"/><path class="cls-3" d="M41.25,47.54a.78.78,0,0,1-.78.78H35.33a.78.78,0,0,1-.79-.78h0a.79.79,0,0,1,.79-.79h5.14a.78.78,0,0,1,.78.79Z"/><path class="cls-3" d="M32.58,27.36c0-.44-.24-.79-.53-.79H7.2c-.3,0-.53.35-.53.79h0c0,.44.23.79.53.79H32.05c.29,0,.53-.35.53-.79Z"/><path class="cls-3" d="M32.58,31.51c0-.44-.24-.79-.53-.79H7.2c-.3,0-.53.35-.53.79h0c0,.44.23.79.53.79H32.05c.29,0,.53-.35.53-.79Z"/><path class="cls-3" d="M32.58,35.53c0-.44-.24-.79-.53-.79H7.2c-.3,0-.53.35-.53.79h0c0,.44.23.79.53.79H32.05c.29,0,.53-.35.53-.79Z"/><path class="cls-3" d="M41.28,27.39a.78.78,0,0,1-.78.79H35.36a.79.79,0,0,1-.79-.79h0a.78.78,0,0,1,.79-.78H40.5a.78.78,0,0,1,.78.78Z"/><path class="cls-3" d="M41.25,31.54a.78.78,0,0,1-.78.78H35.33a.78.78,0,0,1-.79-.78h0a.79.79,0,0,1,.79-.79h5.14a.79.79,0,0,1,.78.79Z"/><path class="cls-3" d="M41.25,35.62a.78.78,0,0,1-.78.79H35.33a.79.79,0,0,1-.79-.79h0a.78.78,0,0,1,.79-.78h5.14a.78.78,0,0,1,.78.78Z"/><path class="cls-1" d="M32.61,8.87h-18a2.55,2.55,0,0,0-2.28,1.42H34.88A2.52,2.52,0,0,0,32.61,8.87Z"/><path class="cls-7" d="M36.13,10.29a3.86,3.86,0,0,1,.17,1.13v3.12a.57.57,0,0,1-.57.57H11.51a.57.57,0,0,1-.58-.57V11.42a3.87,3.87,0,0,1,.18-1.13H.89V67.52H46.35V10.29Z"/><path class="cls-8" d="M0,33V10.09a.57.57,0,0,1,.57-.57H11.75a.56.56,0,0,1,.52.81A2.66,2.66,0,0,0,12,11.41V14H35.11V11.41a2.54,2.54,0,0,0-.24-1.08.56.56,0,0,1,.52-.81H46.66a.56.56,0,0,1,.57.57V67.62a.56.56,0,0,1-.57.57H.57A.57.57,0,0,1,0,67.62V46.7M1.14,47v20.1h45V10.66H36.18a3.82,3.82,0,0,1,.08.75v3.13a.58.58,0,0,1-.58.57H11.46a.57.57,0,0,1-.57-.57V11.41a3.81,3.81,0,0,1,.07-.75H1.14V32.72"/><path class="cls-8" d="M32.61,7.69h-18a3.72,3.72,0,0,0-3.7,3.73v3.15a.58.58,0,0,0,.58.58H35.73a.58.58,0,0,0,.57-.58V11.42A3.72,3.72,0,0,0,32.61,7.69Z"/><path class="cls-9" d="M29.11,5.12H26.39a.59.59,0,0,0-.5.29,2.61,2.61,0,0,1-4.55,0,.57.57,0,0,0-.5-.29H18.12a.58.58,0,0,0-.57.57v4.53a.57.57,0,0,0,.57.57h11a.57.57,0,0,0,.58-.57V5.69A.58.58,0,0,0,29.11,5.12Z"/><path class="cls-10" d="M27.36,4.23A3.75,3.75,0,1,1,23.62.5,3.73,3.73,0,0,1,27.36,4.23Z"/><path class="cls-11" d="M26.37,4.26a2.67,2.67,0,0,1-5.34,0,2.67,2.67,0,0,1,5.34,0Z"/><path class="cls-9" d="M43.4,33.07H37.26a.61.61,0,0,1,0-1.22H43.4a.61.61,0,0,1,0,1.22Z"/><path class="cls-9" d="M43.4,38.44H37.26a.6.6,0,0,1-.6-.6.61.61,0,0,1,.6-.62H43.4a.62.62,0,0,1,.61.62A.61.61,0,0,1,43.4,38.44Z"/><path class="cls-9" d="M32.41,43.82H7A.61.61,0,0,1,7,42.6H32.41a.61.61,0,0,1,0,1.22Z"/><path class="cls-9" d="M43.4,43.82H37.26a.61.61,0,0,1,0-1.22H43.4a.61.61,0,0,1,0,1.22Z"/><path class="cls-9" d="M32.41,49.19H7a.6.6,0,0,1-.61-.6A.61.61,0,0,1,7,48H32.41a.61.61,0,0,1,.61.62A.6.6,0,0,1,32.41,49.19Z"/><path class="cls-8" d="M43.4,49.19H37.26a.6.6,0,0,1-.6-.6.61.61,0,0,1,.6-.62H43.4a.62.62,0,0,1,.61.62A.61.61,0,0,1,43.4,49.19Z"/><path class="cls-9" d="M32.41,54.56H7a.61.61,0,1,1,0-1.22H32.41a.61.61,0,0,1,0,1.22Z"/><path class="cls-8" d="M43.4,54.56H37.26a.61.61,0,0,1,0-1.22H43.4a.61.61,0,0,1,0,1.22Z"/><path class="cls-9" d="M32.41,59.94H7a.61.61,0,0,1-.61-.61A.61.61,0,0,1,7,58.72H32.41a.61.61,0,0,1,.61.61A.61.61,0,0,1,32.41,59.94Z"/><path class="cls-8" d="M43.4,59.94H37.26a.61.61,0,0,1-.6-.61.6.6,0,0,1,.6-.61H43.4a.61.61,0,0,1,.61.61A.62.62,0,0,1,43.4,59.94Z"/><path class="cls-9" d="M32.41,33.27H7a.61.61,0,0,1-.61-.61A.61.61,0,0,1,7,32.05H32.41a.61.61,0,0,1,.61.61A.61.61,0,0,1,32.41,33.27Z"/><path class="cls-9" d="M32.41,38.65H7A.61.61,0,0,1,6.41,38,.61.61,0,0,1,7,37.43H32.41A.61.61,0,0,1,33,38,.61.61,0,0,1,32.41,38.65Z"/><path class="cls-12" d="M65.87,47.52a3.56,3.56,0,0,1,4.07,3.58H62.51v-.37A3.47,3.47,0,0,1,65.87,47.52Z"/><path class="cls-12" d="M59.21,81.3s-25.37.1-27.57,0-3.14-3-3.14-3l6.76.06,21.24.18A2.94,2.94,0,0,0,59.21,81.3Z"/><path class="cls-12" d="M56.5,78.55l-21.24-.18V50.24a2.93,2.93,0,0,1,3.09-2.72H65.87a3.47,3.47,0,0,0-3.36,3.21c0,.13,0,.24,0,.37h0V78.16c0,2.29-.23,3.14-3.3,3.14A2.94,2.94,0,0,1,56.5,78.55Z"/><path class="cls-12" d="M65.06,47.51c2-.16,4.88,1,4.88,3.59H62.49"/><path class="cls-12" d="M35.26,78.16V50.24a2.93,2.93,0,0,1,3.09-2.72H65.88"/><path class="cls-12" d="M59.22,81.47a2.93,2.93,0,0,1-2.71-2.74l-21.25-.18-6.76-.06s.95,2.88,3.15,3,27.57,0,27.57,0c3.07,0,3.29-.84,3.29-3.13V50"/><line class="cls-13" x1="53.17" y1="72.66" x2="40.45" y2="72.66"/><line class="cls-13" x1="50.22" y1="66.82" x2="40.45" y2="66.82"/><line class="cls-13" x1="53.17" y1="60.99" x2="40.45" y2="60.99"/><line class="cls-13" x1="47.96" y1="55.15" x2="40.45" y2="55.15"/><line class="cls-13" x1="51.9" y1="55.15" x2="53.47" y2="55.15"/><line class="cls-13" x1="55.66" y1="60.99" x2="57.23" y2="60.99"/><line class="cls-13" x1="53.25" y1="66.82" x2="54.82" y2="66.82"/><line class="cls-13" x1="56.35" y1="72.66" x2="57.93" y2="72.66"/><path class="cls-8" d="M31.42,18.21a.92.92,0,0,0-1.29,0l-7.95,8L20.52,24.4a.91.91,0,1,0-1.33,1.24l2.3,2.46v0h0v0l0,0h0l0,0h0l0,0h.06l0,0h.83l0,0h.11l0,0h0l0,0h0l0,0h0l8.62-8.63A.91.91,0,0,0,31.42,18.21Z"/></g></g></g></svg>