<svg xmlns="http://www.w3.org/2000/svg" viewBox="0 0 48.38 69.83"><defs><style>.cls-1{fill:#c9ebfc;}.cls-2,.cls-5{fill:#00b0f0;}.cls-3,.cls-4{fill:#50c9f5;}.cls-4{stroke:#50c9f5;}.cls-4,.cls-5{stroke-miterlimit:10;}.cls-5{stroke:#00b0f0;}.cls-6{fill:#fff;}.cls-7{fill:#e2f4fd;}</style></defs><title>two-three-new</title><g id="Layer_2" data-name="Layer 2"><g id="Layer_1_copy_3" data-name="Layer 1 copy 3"><g id="_06" data-name="06"><path class="cls-1" d="M37,10.56a3.64,3.64,0,0,1,.18,1.15v3.2a.58.58,0,0,1-.59.59H11.78a.58.58,0,0,1-.58-.59v-3.2a3.64,3.64,0,0,1,.18-1.15H.9V69.17H47.47V10.56Z"/><path class="cls-2" d="M0,33.79V10.32a.58.58,0,0,1,.59-.58H12a.57.57,0,0,1,.49.27.59.59,0,0,1,0,.56,2.61,2.61,0,0,0-.24,1.11v2.61H36V11.68a2.67,2.67,0,0,0-.24-1.11.56.56,0,0,1,0-.56.6.6,0,0,1,.5-.27H47.79a.58.58,0,0,1,.59.58V69.24a.58.58,0,0,1-.59.59H.59A.58.58,0,0,1,0,69.24V47.82m1.17.26V68.66h46V10.91H37.06a3.94,3.94,0,0,1,.08.77v3.2a.6.6,0,0,1-.59.59H11.74a.59.59,0,0,1-.59-.59v-3.2a3.94,3.94,0,0,1,.08-.77H1.17V33.5"/><path class="cls-2" d="M33.4,7.87H15a3.8,3.8,0,0,0-3.78,3.81v3.23a.58.58,0,0,0,.59.59H36.6a.58.58,0,0,0,.58-.59V11.68A3.8,3.8,0,0,0,33.4,7.87Z"/><path class="cls-3" d="M29.82,5.23H27a.61.61,0,0,0-.51.3,2.68,2.68,0,0,1-4.66,0,.61.61,0,0,0-.51-.3H18.56a.6.6,0,0,0-.59.59v4.64a.59.59,0,0,0,.59.58H29.82a.58.58,0,0,0,.59-.58V5.82A.59.59,0,0,0,29.82,5.23Z"/><path class="cls-4" d="M28,4.32A3.83,3.83,0,1,1,24.19.5,3.82,3.82,0,0,1,28,4.32Z"/><path class="cls-5" d="M27,4.35a2.74,2.74,0,0,1-5.47,0,2.74,2.74,0,0,1,5.47,0Z"/><path class="cls-2" d="M36.45,65.39a0,0,0,0,1,0,0l.74-2.78-.34-.25,0,0-.12-.72s0,0,0,0l.33-.41,0,0,.27-.07a0,0,0,0,1,0,0s0,0,0,0l-.28.54.07.43.34.24.41-.08.24-.37,0-.6a.05.05,0,0,1,0,0h0l.21.17v0l.14.51s0,0,0,0l-.4.61,0,0-.42.08-.45,2.84a.06.06,0,0,0,0,0,.42.42,0,1,1-.82-.18Z"/><path class="cls-6" d="M36.63,65.43a.23.23,0,0,1,.45.1.24.24,0,0,1-.27.18A.25.25,0,0,1,36.63,65.43Zm.08,0a.15.15,0,0,0,.12.17.14.14,0,0,0,.17-.11.15.15,0,0,0-.11-.17A.15.15,0,0,0,36.71,65.45Z"/><path class="cls-2" d="M38.08,64.37l0,0,2.23-3-.29-.46s0,0,0,0l.21-.91a.05.05,0,0,1,0,0l.59-.33h0l.35,0a0,0,0,0,1,0,0,.07.07,0,0,1,0,.06l-.58.51-.13.54.29.46.52.09.47-.32.25-.73a.05.05,0,0,1,0,0,0,0,0,0,1,.05,0l.17.31a.06.06,0,0,1,0,0l-.09.67a.08.08,0,0,1,0,0l-.77.53h0l-.54-.1L39,64.93s0,0,0,0a.55.55,0,0,1-.75.14A.54.54,0,0,1,38.08,64.37Z"/><path class="cls-6" d="M38.28,64.51a.3.3,0,1,1,.49.33.3.3,0,0,1-.49-.33Zm.09.06a.19.19,0,0,0,.05.26.19.19,0,0,0,.26,0,.19.19,0,1,0-.31-.21Z"/><path class="cls-3" d="M42,39.21H18.08a.58.58,0,0,1,0-1.15H42a.58.58,0,0,1,0,1.15Z"/><path class="cls-3" d="M42,41.13H18.08a.57.57,0,0,1-.57-.57.58.58,0,0,1,.57-.58H42a.57.57,0,0,1,.57.58A.56.56,0,0,1,42,41.13Z"/><path class="cls-3" d="M42,43.12H18.08a.58.58,0,0,1,0-1.16H42a.58.58,0,0,1,0,1.16Z"/><path class="cls-3" d="M42,52.35H18.08a.58.58,0,0,1,0-1.15H42a.58.58,0,0,1,0,1.15Z"/><path class="cls-3" d="M42,54.28H18.08a.58.58,0,0,1-.57-.58.57.57,0,0,1,.57-.57H42a.56.56,0,0,1,.57.57A.57.57,0,0,1,42,54.28Z"/><path class="cls-3" d="M42,56.14H18.08a.58.58,0,0,1,0-1.15H42a.58.58,0,0,1,0,1.15Z"/><path class="cls-3" d="M42,25.76H18.08a.58.58,0,0,1,0-1.15H42a.58.58,0,0,1,0,1.15Z"/><path class="cls-3" d="M42,27.68H18.08a.57.57,0,0,1,0-1.14H42a.57.57,0,1,1,0,1.14Z"/><path class="cls-3" d="M42,29.49H18.08a.58.58,0,0,1,0-1.15H42a.58.58,0,0,1,0,1.15Z"/><rect class="cls-2" x="5.99" y="21.95" width="7.74" height="7.94" rx="0.25"/><path class="cls-2" d="M13.48,22.2v7.44H6.24V22.2h7.24m0-.5H6.24a.5.5,0,0,0-.5.5v7.44a.5.5,0,0,0,.5.5h7.24a.51.51,0,0,0,.5-.5V22.2a.5.5,0,0,0-.5-.5Z"/><rect class="cls-2" x="5.99" y="35.06" width="7.74" height="7.94" rx="0.25"/><path class="cls-2" d="M13.48,35.31v7.44H6.24V35.31h7.24m0-.5H6.24a.5.5,0,0,0-.5.5v7.44a.5.5,0,0,0,.5.5h7.24a.51.51,0,0,0,.5-.5V35.31a.51.51,0,0,0-.5-.5Z"/><rect class="cls-2" x="5.99" y="48.47" width="7.74" height="7.94" rx="0.25"/><path class="cls-2" d="M13.48,48.72v7.43H6.24V48.72h7.24m0-.5H6.24a.5.5,0,0,0-.5.5v7.43a.5.5,0,0,0,.5.5h7.24a.5.5,0,0,0,.5-.5V48.72a.5.5,0,0,0-.5-.5Z"/><path class="cls-7" d="M13.48,22.82a.56.56,0,0,0-.79,0L7.85,27.66l-1-1.08a.55.55,0,0,0-.78,0,.54.54,0,0,0,0,.78l1.4,1.5h.06a0,0,0,0,1,0,0h.73l5.25-5.25A.56.56,0,0,0,13.48,22.82Z"/><path class="cls-7" d="M13.55,36.21a.56.56,0,0,0-.78,0L7.92,41.05,6.92,40a.56.56,0,0,0-.79,0,.55.55,0,0,0,0,.78l1.4,1.5h0s0,0,0,0h0a0,0,0,0,0,0,0h.71L13.55,37A.56.56,0,0,0,13.55,36.21Z"/><path class="cls-7" d="M13.67,49.41a.56.56,0,0,0-.79,0L8,54.25,7,53.17a.56.56,0,0,0-.79,0,.55.55,0,0,0,0,.78l1.4,1.5h.8l5.25-5.25A.57.57,0,0,0,13.67,49.41Z"/></g></g></g></svg>