<svg xmlns="http://www.w3.org/2000/svg" viewBox="0 0 82.98 77.61"><defs><style>.cls-1{fill:#f4f7e7;}.cls-2{fill:#dce7ad;}.cls-3{fill:#aecc36;}.cls-4{fill:#d4e299;}.cls-5,.cls-6{fill:none;}.cls-5{stroke:#aecc36;stroke-linecap:round;stroke-linejoin:round;stroke-width:1.3px;}</style></defs><title>two-two-new</title><g id="Layer_2" data-name="Layer 2"><g id="Layer_1_copy_4" data-name="Layer 1 copy 4"><g id="_03" data-name="03"><rect class="cls-1" x="0.52" width="81.87" height="76.58"/><rect class="cls-2" x="0.66" y="0.92" width="81.23" height="12.43"/><path class="cls-3" d="M82.12,77.61H.87A1,1,0,0,1,0,76.54V1.09A1,1,0,0,1,.87,0H82.12A1,1,0,0,1,83,1.09V76.54A1,1,0,0,1,82.12,77.61ZM1.73,75.47H81.25V2.16H1.73Z"/><path class="cls-3" d="M82.12,14.42H.87a.81.81,0,1,1,0-1.62H82.12a.81.81,0,1,1,0,1.62Z"/><path class="cls-3" d="M9.07,10A3.07,3.07,0,0,1,5.9,7.08,3.07,3.07,0,0,1,9.07,4.13a3.07,3.07,0,0,1,3.18,3A3.07,3.07,0,0,1,9.07,10Zm0-4.29A1.4,1.4,0,0,0,7.63,7.08,1.4,1.4,0,0,0,9.07,8.42a1.4,1.4,0,0,0,1.45-1.34A1.4,1.4,0,0,0,9.07,5.74Z"/><path class="cls-3" d="M19.1,10a3.07,3.07,0,0,1-3.18-2.95A3.07,3.07,0,0,1,19.1,4.13a3.07,3.07,0,0,1,3.17,3A3.07,3.07,0,0,1,19.1,10Zm0-4.29a1.4,1.4,0,0,0-1.45,1.34,1.45,1.45,0,0,0,2.89,0A1.4,1.4,0,0,0,19.1,5.74Z"/><path class="cls-3" d="M82.12,7.89H37a.81.81,0,1,1,0-1.62H82.12a.81.81,0,1,1,0,1.62Z"/><path class="cls-4" d="M33.35,25.36l0,10.54-10.22-.09a8.09,8.09,0,0,1,2.54-7.09A11.06,11.06,0,0,1,33.35,25.36Z"/><path class="cls-4" d="M22.8,35.83a10.45,10.45,0,0,0,20.89,0"/><path class="cls-4" d="M42.65,27.49C40.06,24.1,35,23.88,35,23.88l0,10.17,10.31,0A11.54,11.54,0,0,0,42.65,27.49Z"/><path class="cls-3" d="M33.37,46.29a10.58,10.58,0,0,1,0-21.16.19.19,0,0,1,.18.19v10.2H43.76a.19.19,0,0,1,.18.19A10.59,10.59,0,0,1,33.37,46.29Zm-.19-20.78A10.2,10.2,0,1,0,43.57,35.9H33.37a.2.2,0,0,1-.19-.19Z"/><path class="cls-3" d="M45.28,34.38H34.89a.19.19,0,0,1-.19-.19V23.8a.18.18,0,0,1,.19-.19A10.59,10.59,0,0,1,45.46,34.19.19.19,0,0,1,45.28,34.38ZM35.07,34h10a10.22,10.22,0,0,0-10-10Z"/><path class="cls-3" d="M33.37,46.29a.2.2,0,0,1-.19-.19V35.71a.2.2,0,0,1,.19-.19.19.19,0,0,1,.18.19V46.1A.19.19,0,0,1,33.37,46.29Z"/><path class="cls-3" d="M33.37,35.9H23a.19.19,0,1,1,0-.38H33.37a.19.19,0,0,1,0,.38Z"/><polyline class="cls-5" points="65.9 68.69 19.71 68.69 19.71 22.54"/><line class="cls-5" x1="27.6" y1="63.73" x2="27.6" y2="68.68"/><line class="cls-5" x1="35.48" y1="54.99" x2="35.48" y2="68.54"/><line class="cls-5" x1="43.37" y1="49.58" x2="43.37" y2="68.54"/><line class="cls-5" x1="51.26" y1="45.06" x2="51.26" y2="68.54"/><line class="cls-5" x1="59.15" y1="40.18" x2="59.15" y2="68.54"/><polyline class="cls-5" points="59.52 33.73 51.51 41.23 35.48 48.61 19.71 68.69"/><path class="cls-6" d="M29.25,26.21a.48.48,0,0,1,.2,0"/></g></g></g></svg>