<svg xmlns="http://www.w3.org/2000/svg" viewBox="0 0 71.82 99.35"><defs><style>.cls-1{fill:#ecf2d4;}.cls-2,.cls-5,.cls-8{fill:#aecc36;}.cls-3,.cls-4{fill:#cddd87;}.cls-4{stroke:#cddd87;}.cls-4,.cls-5,.cls-8{stroke-miterlimit:10;}.cls-5{stroke:#aecc36;}.cls-6{fill:#fff;}.cls-7{fill:#f4f7e7;}.cls-8{stroke:#e4ecc0;fill-rule:evenodd;}</style></defs><title>four-one-new</title><g id="Layer_2" data-name="Layer 2"><g id="Layer_8" data-name="Layer 8"><path class="cls-1" d="M62.85,43.33a3,3,0,0,1,.14.91v2.52a.46.46,0,0,1-.46.46H43a.47.47,0,0,1-.46-.46V44.24a3,3,0,0,1,.14-.91H34.41V89.51H71.1V43.33Z"/><path class="cls-2" d="M33.7,61.63V43.14a.47.47,0,0,1,.46-.46h9a.48.48,0,0,1,.39.21.48.48,0,0,1,0,.45,2.09,2.09,0,0,0-.19.87v2.06H62V44.21a2,2,0,0,0-.2-.87.46.46,0,0,1,.42-.66h9.1a.47.47,0,0,1,.46.46V89.56a.47.47,0,0,1-.46.47H34.16a.47.47,0,0,1-.46-.47V72.68m.92.21V89.1H70.9V43.6h-8a3.15,3.15,0,0,1,.06.61v2.52a.46.46,0,0,1-.46.46H43a.45.45,0,0,1-.46-.46V44.21a3.15,3.15,0,0,1,.06-.61H34.62V61.4"/><path class="cls-2" d="M60,41.2H45.5a3,3,0,0,0-3,3v2.54a.47.47,0,0,0,.47.47H62.54a.47.47,0,0,0,.46-.47V44.21A3,3,0,0,0,60,41.2Z"/><path class="cls-3" d="M57.2,39.13H55a.46.46,0,0,0-.4.23,2.11,2.11,0,0,1-3.68,0,.46.46,0,0,0-.4-.23H48.33a.47.47,0,0,0-.47.46v3.66a.47.47,0,0,0,.47.46H57.2a.47.47,0,0,0,.46-.46V39.59A.47.47,0,0,0,57.2,39.13Z"/><path class="cls-4" d="M55.78,38.41a3,3,0,1,1-3-3A3,3,0,0,1,55.78,38.41Z"/><path class="cls-5" d="M55,38.43a2.15,2.15,0,1,1-2.15-2.1A2.12,2.12,0,0,1,55,38.43Z"/><path class="cls-2" d="M62.42,86.53v0L63,84.31l-.27-.19s0,0,0,0l-.1-.57s0,0,0,0l.26-.32a0,0,0,0,1,0,0l.21,0s0,0,0,0a0,0,0,0,1,0,0l-.21.43.06.34.26.19.32-.07.19-.29,0-.47s0,0,0,0,0,0,0,0l.17.14a0,0,0,0,1,0,0l.11.4s0,0,0,0l-.31.48,0,0-.32.06-.36,2.24s0,0,0,0a.32.32,0,0,1-.39.25A.32.32,0,0,1,62.42,86.53Z"/><path class="cls-6" d="M62.56,86.56a.18.18,0,0,1,.36.08.19.19,0,0,1-.22.14A.18.18,0,0,1,62.56,86.56Zm.07,0a.1.1,0,0,0,.08.13.11.11,0,1,0,0-.22A.11.11,0,0,0,62.63,86.58Z"/><path class="cls-2" d="M63.7,85.72l0,0,1.76-2.33L65.25,83v0l.16-.72,0,0L65.9,82h0l.28,0s0,0,0,0a.06.06,0,0,1,0,0l-.46.4-.09.43.22.36.42.07.36-.25.2-.57s0,0,0,0,0,0,0,0l.13.24a0,0,0,0,1,0,0l-.07.53,0,0-.6.42s0,0,0,0l-.42-.07-1.51,2.49,0,0a.43.43,0,0,1-.59.11A.42.42,0,0,1,63.7,85.72Z"/><path class="cls-6" d="M63.86,85.83a.24.24,0,0,1,.33-.06.24.24,0,0,1,.06.32.22.22,0,0,1-.32.06A.23.23,0,0,1,63.86,85.83Zm.07,0a.15.15,0,0,0,0,.2.15.15,0,0,0,.21,0,.15.15,0,0,0,0-.2A.15.15,0,0,0,63.93,85.88Z"/><path class="cls-3" d="M66.78,65.9H48A.46.46,0,0,1,48,65H66.78a.46.46,0,0,1,0,.91Z"/><path class="cls-3" d="M66.78,67.42H48a.46.46,0,0,1,0-.91H66.78a.46.46,0,0,1,0,.91Z"/><path class="cls-3" d="M66.78,69H48a.46.46,0,0,1,0-.91H66.78a.46.46,0,0,1,0,.91Z"/><path class="cls-3" d="M66.78,76.25H48a.45.45,0,0,1,0-.9H66.78a.45.45,0,0,1,0,.9Z"/><path class="cls-3" d="M66.78,77.77H48a.45.45,0,1,1,0-.9H66.78a.45.45,0,1,1,0,.9Z"/><path class="cls-3" d="M66.78,79.24H48a.45.45,0,0,1,0-.9H66.78a.45.45,0,0,1,0,.9Z"/><path class="cls-3" d="M66.78,55.3H48a.45.45,0,0,1,0-.9H66.78a.45.45,0,0,1,0,.9Z"/><path class="cls-3" d="M66.78,56.82H48a.45.45,0,0,1-.45-.45.46.46,0,0,1,.45-.46H66.78a.46.46,0,0,1,.45.46A.45.45,0,0,1,66.78,56.82Z"/><path class="cls-3" d="M66.78,58.24H48a.45.45,0,0,1,0-.9H66.78a.45.45,0,1,1,0,.9Z"/><path class="cls-2" d="M38.56,58.56a.23.23,0,0,1-.17-.07.24.24,0,0,1-.07-.18l.09-5.86a.24.24,0,0,1,.25-.24l5.71.08a.23.23,0,0,1,.17.08.24.24,0,0,1,.07.18l-.09,5.86a.25.25,0,0,1-.25.24Z"/><path class="cls-2" d="M38.66,52.46l5.7.08-.09,5.86-5.7-.09.09-5.85m0-.5a.49.49,0,0,0-.5.49l-.09,5.86a.5.5,0,0,0,.14.35.47.47,0,0,0,.35.15l5.7.09h0a.49.49,0,0,0,.5-.49l.09-5.86a.46.46,0,0,0-.14-.35.52.52,0,0,0-.35-.16L38.67,52Z"/><rect class="cls-2" x="38.36" y="62.58" width="6.21" height="6.36" rx="0.25"/><path class="cls-2" d="M44.32,62.83v5.86H38.61V62.83h5.71m0-.5H38.61a.5.5,0,0,0-.5.5v5.86a.51.51,0,0,0,.5.5h5.71a.51.51,0,0,0,.5-.5V62.83a.5.5,0,0,0-.5-.5Z"/><rect class="cls-2" x="38.36" y="73.14" width="6.21" height="6.36" rx="0.25"/><path class="cls-2" d="M44.32,73.39v5.86H38.61V73.39h5.71m0-.5H38.61a.5.5,0,0,0-.5.5v5.86a.5.5,0,0,0,.5.5h5.71a.5.5,0,0,0,.5-.5V73.39a.5.5,0,0,0-.5-.5Z"/><path class="cls-7" d="M44.32,53a.44.44,0,0,0-.62,0L39.88,56.8,39.09,56a.44.44,0,1,0-.64.6l1.1,1.18h.63l4.14-4.14A.43.43,0,0,0,44.32,53Z"/><path class="cls-7" d="M44.38,63.54a.44.44,0,0,0-.62,0L40,67.35l-.8-.85a.44.44,0,1,0-.64.6l1.11,1.18h0a0,0,0,0,1,0,0h.6l4.14-4.13A.44.44,0,0,0,44.38,63.54Z"/><path class="cls-7" d="M44.47,73.94a.44.44,0,0,0-.62,0L40,77.75l-.8-.85a.44.44,0,0,0-.64.6l1.11,1.18h.62l4.14-4.13A.44.44,0,0,0,44.47,73.94Z"/><path class="cls-1" d="M29.15,43a3,3,0,0,1,.14.91v2.52a.46.46,0,0,1-.46.46H9.28a.47.47,0,0,1-.46-.46V43.87A3,3,0,0,1,9,43H.71V89.14H37.4V43Z"/><path class="cls-2" d="M0,61.26V42.77a.47.47,0,0,1,.46-.46h9a.48.48,0,0,1,.39.21.48.48,0,0,1,0,.45,2.13,2.13,0,0,0-.19.87V45.9H28.34V43.84a2,2,0,0,0-.2-.87.46.46,0,0,1,.42-.66h9.1a.47.47,0,0,1,.46.46V89.2a.47.47,0,0,1-.46.46H.46A.47.47,0,0,1,0,89.2V72.31m.92.21V88.73H37.2V43.23h-8a3.15,3.15,0,0,1,.06.61v2.52a.46.46,0,0,1-.46.46H9.25a.45.45,0,0,1-.46-.46V43.84a3.15,3.15,0,0,1,.06-.61H.92V61"/><path class="cls-2" d="M26.32,40.84H11.8a3,3,0,0,0-3,3v2.54a.47.47,0,0,0,.47.47H28.83a.47.47,0,0,0,.47-.47V43.84A3,3,0,0,0,26.32,40.84Z"/><path class="cls-3" d="M23.5,38.76H21.3a.45.45,0,0,0-.4.24,2.12,2.12,0,0,1-3.68,0,.45.45,0,0,0-.4-.24h-2.2a.47.47,0,0,0-.46.46v3.66a.47.47,0,0,0,.46.46H23.5a.47.47,0,0,0,.46-.46V39.22A.47.47,0,0,0,23.5,38.76Z"/><path class="cls-4" d="M22.08,38a3,3,0,1,1-3-3A3,3,0,0,1,22.08,38Z"/><path class="cls-5" d="M21.28,38.06A2.16,2.16,0,1,1,19.13,36,2.12,2.12,0,0,1,21.28,38.06Z"/><path class="cls-2" d="M28.71,86.16a0,0,0,0,0,0,0l.59-2.19L29,83.75v0l-.1-.57s0,0,0,0l.26-.32,0,0,.21,0h0a0,0,0,0,1,0,0l-.21.43.06.34.26.19.32-.07.19-.28,0-.48s0,0,0,0h0l.17.14s0,0,0,0l.11.4s0,0,0,0l-.31.48,0,0-.32.06-.36,2.24s0,0,0,0a.32.32,0,0,1-.39.25A.34.34,0,0,1,28.71,86.16Z"/><path class="cls-6" d="M28.86,86.19a.19.19,0,0,1,.22-.13.18.18,0,0,1,.14.21.19.19,0,0,1-.22.14A.18.18,0,0,1,28.86,86.19Zm.07,0a.1.1,0,0,0,.08.13.11.11,0,0,0,.14-.08.11.11,0,0,0-.09-.14A.11.11,0,0,0,28.93,86.21Z"/><path class="cls-2" d="M30,85.35l0,0L31.79,83l-.24-.37v0l.16-.72s0,0,0,0l.47-.26h0l.28,0s0,0,0,0,0,0,0,0l-.46.4-.09.43.22.36.42.07L33,82.7l.2-.57s0,0,0,0a0,0,0,0,1,0,0l.13.24a0,0,0,0,1,0,0l-.07.53s0,0,0,0l-.6.42h0l-.42-.08-1.51,2.5,0,0a.43.43,0,0,1-.71-.48Z"/><path class="cls-6" d="M30.16,85.46a.25.25,0,0,1,.33-.06.24.24,0,0,1,.06.32.23.23,0,0,1-.33.06A.24.24,0,0,1,30.16,85.46Zm.07.05a.17.17,0,0,0,0,.21.16.16,0,0,0,.21,0,.15.15,0,0,0,0-.2A.15.15,0,0,0,30.23,85.51Z"/><path class="cls-3" d="M33.07,65.53H14.25a.45.45,0,1,1,0-.9H33.07a.45.45,0,1,1,0,.9Z"/><path class="cls-3" d="M33.07,67.05H14.25a.46.46,0,1,1,0-.91H33.07a.46.46,0,1,1,0,.91Z"/><path class="cls-3" d="M33.07,68.61H14.25a.46.46,0,0,1-.46-.45.47.47,0,0,1,.46-.46H33.07a.46.46,0,0,1,.46.46A.45.45,0,0,1,33.07,68.61Z"/><path class="cls-3" d="M33.07,75.88H14.25a.45.45,0,1,1,0-.9H33.07a.45.45,0,1,1,0,.9Z"/><path class="cls-3" d="M33.07,77.4H14.25a.45.45,0,1,1,0-.9H33.07a.45.45,0,1,1,0,.9Z"/><path class="cls-3" d="M33.07,78.87H14.25a.45.45,0,1,1,0-.9H33.07a.45.45,0,1,1,0,.9Z"/><path class="cls-3" d="M33.07,54.93H14.25a.45.45,0,1,1,0-.9H33.07a.45.45,0,1,1,0,.9Z"/><path class="cls-3" d="M33.07,56.45H14.25a.45.45,0,1,1,0-.9H33.07a.45.45,0,1,1,0,.9Z"/><path class="cls-3" d="M33.07,57.87H14.25a.45.45,0,1,1,0-.9H33.07a.45.45,0,1,1,0,.9Z"/><path class="cls-2" d="M4.87,58.2a.3.3,0,0,1-.18-.08.24.24,0,0,1-.07-.18l.09-5.86A.25.25,0,0,1,5,51.84l5.71.08a.23.23,0,0,1,.17.08.24.24,0,0,1,.07.18L10.82,58a.25.25,0,0,1-.25.24Z"/><path class="cls-2" d="M5,52.09l5.7.08L10.57,58,4.87,58,5,52.09m0-.5a.5.5,0,0,0-.35.14.51.51,0,0,0-.15.35l-.09,5.86a.5.5,0,0,0,.14.35.52.52,0,0,0,.35.16l5.7.08h0a.49.49,0,0,0,.5-.49l.09-5.86a.5.5,0,0,0-.14-.35.52.52,0,0,0-.35-.16L5,51.59Z"/><rect class="cls-2" x="4.66" y="62.21" width="6.2" height="6.36" rx="0.25"/><path class="cls-2" d="M10.62,62.46v5.86H4.91V62.46h5.71m0-.5H4.91a.5.5,0,0,0-.5.5v5.86a.5.5,0,0,0,.5.5h5.71a.5.5,0,0,0,.5-.5V62.46a.5.5,0,0,0-.5-.5Z"/><rect class="cls-2" x="4.66" y="72.77" width="6.2" height="6.36" rx="0.25"/><path class="cls-2" d="M10.62,73v5.86H4.91V73h5.71m0-.5H4.91a.51.51,0,0,0-.5.5v5.86a.5.5,0,0,0,.5.5h5.71a.5.5,0,0,0,.5-.5V73a.51.51,0,0,0-.5-.5Z"/><path class="cls-7" d="M10.62,52.62a.44.44,0,0,0-.62,0L6.18,56.43l-.79-.85a.44.44,0,0,0-.64.6l1.1,1.18h.63l4.14-4.13A.44.44,0,0,0,10.62,52.62Z"/><path class="cls-7" d="M10.68,63.17a.44.44,0,0,0-.62,0L6.24,67l-.79-.85a.45.45,0,0,0-.62,0,.44.44,0,0,0,0,.62l1.1,1.18h.63l4.14-4.13A.44.44,0,0,0,10.68,63.17Z"/><path class="cls-7" d="M10.77,73.57a.44.44,0,0,0-.62,0L6.34,77.38l-.8-.85a.44.44,0,0,0-.64.6L6,78.31h.63l4.14-4.13A.44.44,0,0,0,10.77,73.57Z"/><path class="cls-1" d="M46.44,52.65a3.09,3.09,0,0,1,.14.91v2.52a.47.47,0,0,1-.46.47H26.57a.46.46,0,0,1-.46-.47V53.56a3.09,3.09,0,0,1,.14-.91H18V98.84H54.69V52.65Z"/><path class="cls-2" d="M17.29,71V52.47a.45.45,0,0,1,.46-.46h9a.46.46,0,0,1,.39.21.45.45,0,0,1,0,.45,2,2,0,0,0-.19.87v2.05H45.62V53.54a2.16,2.16,0,0,0-.19-.87.45.45,0,0,1,0-.45.46.46,0,0,1,.39-.21h9.09a.45.45,0,0,1,.46.46V98.89a.45.45,0,0,1-.46.46H17.75a.45.45,0,0,1-.46-.46V82m.92.21V98.43H54.48V52.93h-8a2.48,2.48,0,0,1,.07.61v2.52a.47.47,0,0,1-.46.46H26.54a.47.47,0,0,1-.47-.46V53.54a3.08,3.08,0,0,1,.06-.61H18.21v17.8"/><path class="cls-2" d="M43.6,50.53H29.09a3,3,0,0,0-3,3v2.54a.47.47,0,0,0,.46.47H46.12a.47.47,0,0,0,.46-.47V53.54A3,3,0,0,0,43.6,50.53Z"/><path class="cls-3" d="M40.78,48.46H38.59a.49.49,0,0,0-.41.23,2.1,2.1,0,0,1-3.67,0,.47.47,0,0,0-.4-.23h-2.2a.47.47,0,0,0-.46.46v3.66a.47.47,0,0,0,.46.46h8.87a.47.47,0,0,0,.47-.46V48.92A.47.47,0,0,0,40.78,48.46Z"/><path class="cls-4" d="M39.37,47.74a3,3,0,1,1-3-3A3,3,0,0,1,39.37,47.74Z"/><path class="cls-5" d="M38.57,47.76a2.16,2.16,0,1,1-2.16-2.1A2.13,2.13,0,0,1,38.57,47.76Z"/><path class="cls-2" d="M46,95.86s0,0,0,0l.59-2.19-.27-.19,0,0-.09-.57a0,0,0,0,1,0,0l.26-.32h0l.21,0s0,0,0,0,0,0,0,0l-.21.42.05.34.27.19.32-.06.19-.29,0-.47s0,0,0,0a0,0,0,0,1,0,0l.17.14v0l.1.4a0,0,0,0,1,0,0l-.32.48,0,0-.32.06L46.66,96a0,0,0,0,0,0,0,.32.32,0,0,1-.39.25A.33.33,0,0,1,46,95.86Z"/><path class="cls-6" d="M46.15,95.89a.18.18,0,0,1,.21-.14.18.18,0,0,1,.14.22.19.19,0,0,1-.21.14A.19.19,0,0,1,46.15,95.89Zm.06,0a.11.11,0,0,0,.09.13.12.12,0,0,0,.14-.09.12.12,0,0,0-.23,0Z"/><path class="cls-2" d="M47.29,95.05l0,0,1.76-2.34-.23-.36a0,0,0,0,1,0,0l.16-.72,0,0,.46-.26h0l.28,0a0,0,0,0,1,0,0s0,0,0,0l-.46.41-.1.43.23.35.41.08.37-.25.2-.58a.05.05,0,0,1,0,0s0,0,0,0l.13.24a0,0,0,0,1,0,0l-.07.53,0,0-.61.42h0L49.53,93,48,95.49s0,0,0,0a.43.43,0,0,1-.59.11A.42.42,0,0,1,47.29,95.05Z"/><path class="cls-6" d="M47.45,95.16a.23.23,0,0,1,.39.26.24.24,0,0,1-.33.06A.24.24,0,0,1,47.45,95.16Zm.07,0a.14.14,0,0,0,0,.2.15.15,0,0,0,.21,0,.15.15,0,0,0,0-.2A.15.15,0,0,0,47.52,95.21Z"/><path class="cls-3" d="M50.36,75.23H31.54a.47.47,0,0,1-.46-.46.46.46,0,0,1,.46-.45H50.36a.46.46,0,0,1,.46.45A.47.47,0,0,1,50.36,75.23Z"/><path class="cls-3" d="M50.36,76.74H31.54a.45.45,0,1,1,0-.9H50.36a.45.45,0,1,1,0,.9Z"/><path class="cls-3" d="M50.36,78.31H31.54a.47.47,0,0,1-.46-.46.46.46,0,0,1,.46-.45H50.36a.46.46,0,0,1,.46.45A.47.47,0,0,1,50.36,78.31Z"/><path class="cls-3" d="M50.36,85.58H31.54a.46.46,0,0,1-.46-.45.47.47,0,0,1,.46-.46H50.36a.47.47,0,0,1,.46.46A.46.46,0,0,1,50.36,85.58Z"/><path class="cls-3" d="M50.36,87.1H31.54a.46.46,0,0,1-.46-.45.47.47,0,0,1,.46-.46H50.36a.47.47,0,0,1,.46.46A.46.46,0,0,1,50.36,87.1Z"/><path class="cls-3" d="M50.36,88.57H31.54a.46.46,0,0,1-.46-.45.47.47,0,0,1,.46-.46H50.36a.47.47,0,0,1,.46.46A.46.46,0,0,1,50.36,88.57Z"/><path class="cls-3" d="M50.36,64.63H31.54a.45.45,0,1,1,0-.9H50.36a.45.45,0,1,1,0,.9Z"/><path class="cls-3" d="M50.36,66.15H31.54a.46.46,0,1,1,0-.91H50.36a.46.46,0,1,1,0,.91Z"/><path class="cls-3" d="M50.36,67.57H31.54a.45.45,0,1,1,0-.9H50.36a.45.45,0,1,1,0,.9Z"/><path class="cls-2" d="M22.15,67.89a.24.24,0,0,1-.17-.07.22.22,0,0,1-.07-.18L22,61.78a.25.25,0,0,1,.25-.25l5.7.09a.25.25,0,0,1,.18.08.27.27,0,0,1,.07.18l-.09,5.85a.25.25,0,0,1-.08.18.26.26,0,0,1-.17.07Z"/><path class="cls-2" d="M22.25,61.78l5.7.09-.09,5.86-5.7-.09.09-5.86m0-.5a.5.5,0,0,0-.5.5l-.09,5.85a.43.43,0,0,0,.14.36.45.45,0,0,0,.35.15l5.7.09h0a.52.52,0,0,0,.35-.14.51.51,0,0,0,.15-.35l.09-5.86a.51.51,0,0,0-.49-.51l-5.71-.09Z"/><rect class="cls-2" x="21.95" y="71.91" width="6.2" height="6.36" rx="0.25"/><path class="cls-2" d="M27.9,72.16V78H22.2V72.16h5.7m0-.5H22.2a.5.5,0,0,0-.5.5V78a.5.5,0,0,0,.5.5h5.7a.5.5,0,0,0,.5-.5V72.16a.5.5,0,0,0-.5-.5Z"/><rect class="cls-2" x="21.95" y="82.47" width="6.2" height="6.36" rx="0.25"/><path class="cls-2" d="M27.9,82.72v5.86H22.2V82.72h5.7m0-.5H22.2a.5.5,0,0,0-.5.5v5.86a.5.5,0,0,0,.5.5h5.7a.5.5,0,0,0,.5-.5V82.72a.5.5,0,0,0-.5-.5Z"/><path class="cls-7" d="M27.9,62.32a.42.42,0,0,0-.62,0l-3.81,3.81-.79-.85a.44.44,0,1,0-.64.6l1.1,1.18h.63l4.13-4.14A.41.41,0,0,0,27.9,62.32Z"/><path class="cls-7" d="M28,72.87a.44.44,0,0,0-.62,0l-3.82,3.81-.79-.85a.44.44,0,0,0-.64.6l1.1,1.18h0a0,0,0,0,1,0,0h.6L28,73.49A.46.46,0,0,0,28,72.87Z"/><path class="cls-7" d="M28.06,83.27a.44.44,0,0,0-.62,0l-3.82,3.81-.79-.85a.43.43,0,0,0-.62,0,.44.44,0,0,0,0,.62L23.29,88h.63l4.14-4.14A.43.43,0,0,0,28.06,83.27Z"/><path class="cls-8" d="M35.6,8.49h.32l-1.23,2.77,4.25-1.06,4.18-1.12L41.19,5.13l-2-3.95-1,2.37a16.58,16.58,0,0,0-2.57-.26,15.75,15.75,0,0,0-15.31,12.9l5.34-.59a10.69,10.69,0,0,1,10-7.11Zm0,21.73a10.65,10.65,0,0,1-9.46-6L29,24,26,20.8l-3-3.22-2.44,3.68L18.17,25l2.7-.2A15.72,15.72,0,0,0,35.6,35.36a16.37,16.37,0,0,0,5.72-1.06l-3.09-4.41a11.48,11.48,0,0,1-2.63.33ZM51.28,19.35A16.24,16.24,0,0,0,45.62,7l-2.25,4.87a11.19,11.19,0,0,1,2.83,7.44,10.86,10.86,0,0,1-1.41,5.4l-1.54-2.17-1.16,4.28L41,31.14l4.31.2,4.37.2L48,29.17a16.18,16.18,0,0,0,3.28-9.82Z"/></g></g></svg>