<svg xmlns="http://www.w3.org/2000/svg" viewBox="0 0 57.54 53.81"><defs><style>.cls-1{fill:#f4f7e7;}.cls-2{fill:#dce7ad;}.cls-3{fill:#aecc36;}.cls-4{fill:#c5d874;}.cls-5{fill:#d4e299;}.cls-6{fill:none;stroke:#aecc36;}.cls-10,.cls-6,.cls-7,.cls-8{stroke-linecap:round;stroke-linejoin:round;}.cls-10,.cls-7,.cls-8,.cls-9{fill:#cddd87;}.cls-10,.cls-7{stroke:#cddd87;}.cls-8,.cls-9{stroke:#fff;}.cls-9{stroke-miterlimit:10;}.cls-10,.cls-9{stroke-width:0.5px;}</style></defs><title>one-one-new</title><g id="Layer_2" data-name="Layer 2"><g id="Layer_7" data-name="Layer 7"><g id="_03" data-name="03"><rect class="cls-1" x="0.36" width="56.76" height="53.09"/><rect class="cls-2" x="0.46" y="0.64" width="56.32" height="8.62"/><path class="cls-3" d="M56.93,53.81H.6a.68.68,0,0,1-.6-.74V.76A.68.68,0,0,1,.6,0H56.93a.68.68,0,0,1,.61.74V53.07A.68.68,0,0,1,56.93,53.81ZM1.2,52.32H56.33V1.5H1.2Z"/><path class="cls-3" d="M56.93,10H.6a.56.56,0,1,1,0-1.12H56.93a.56.56,0,1,1,0,1.12Z"/><path class="cls-3" d="M6.29,7a2.13,2.13,0,0,1-2.2-2,2.13,2.13,0,0,1,2.2-2.05A2.14,2.14,0,0,1,8.5,4.91,2.14,2.14,0,0,1,6.29,7Zm0-3a1,1,0,0,0-1,.93,1,1,0,0,0,2,0A1,1,0,0,0,6.29,4Z"/><path class="cls-3" d="M13.24,7a2.13,2.13,0,0,1-2.2-2,2.13,2.13,0,0,1,2.2-2.05,2.13,2.13,0,0,1,2.2,2.05A2.13,2.13,0,0,1,13.24,7Zm0-3a1,1,0,0,0-1,.93,1,1,0,0,0,2,0A1,1,0,0,0,13.24,4Z"/><path class="cls-3" d="M56.93,5.47H25.64a.56.56,0,1,1,0-1.12H56.93a.56.56,0,1,1,0,1.12Z"/></g><rect class="cls-4" x="25.94" y="45.15" width="1.8" height="3.89"/><rect class="cls-3" x="14.23" y="40.74" width="1.8" height="8.28"/><rect class="cls-4" x="17.74" y="39.67" width="1.8" height="9.27"/><rect class="cls-5" x="16.02" y="36.34" width="1.8" height="12.6"/><rect class="cls-3" x="22.43" y="37.45" width="1.8" height="11.64"/><rect class="cls-5" x="24.23" y="41.13" width="1.8" height="7.92"/><rect class="cls-3" x="30.63" y="44.02" width="1.8" height="5"/><rect class="cls-4" x="34.15" y="35.5" width="1.8" height="13.44"/><rect class="cls-5" x="32.43" y="33.6" width="1.8" height="15.34"/><rect class="cls-3" x="43.17" y="45.88" width="2.09" height="3.36"/><rect class="cls-4" x="41.75" y="41.43" width="1.8" height="7.76"/><rect class="cls-5" x="40.03" y="40.33" width="1.8" height="8.86"/><path class="cls-3" d="M46.8,49.5H11.38a.29.29,0,0,1-.29-.3V13.82a.3.3,0,1,1,.59,0V48.9H46.8a.3.3,0,0,1,.29.3A.29.29,0,0,1,46.8,49.5Z"/><polyline class="cls-6" points="11.68 27.8 17.56 29.18 19.96 30.58 25.28 24.8 25.26 29.81 29 26.78 31.88 29.7 33.33 27.96 34.7 28.72 36.66 25.78 37.86 26.78 41.86 22.52"/><path class="cls-7" d="M19.61,16.92a.94.94,0,0,0,0-.16l.85-.54-.21-.47-1,.27a2.58,2.58,0,0,0-.89-.85l.21-1L18.08,14l-.49.88a2.61,2.61,0,0,0-1.24,0l-.53-.84-.48.21.27,1-.16.11-.08.07a.69.69,0,0,0-.13.11,2.59,2.59,0,0,0-.48.61l-1-.22-.18.48.87.5a2.56,2.56,0,0,0,0,1.23l-.84.54.21.47,1-.27a2.61,2.61,0,0,0,.9.85l-.21,1,.47.19.5-.87a2.75,2.75,0,0,0,1.24,0l.53.85.48-.21-.27-1a2.61,2.61,0,0,0,.85-.9l1,.22.18-.48L19.61,18c0-.12,0-.23.05-.35a2.81,2.81,0,0,0,0-.29.49.49,0,0,1,0-.12,1.52,1.52,0,0,0,0-.21A.52.52,0,0,0,19.61,16.92Z"/><path class="cls-8" d="M18.24,16.91a1.31,1.31,0,1,1-1.73-.67A1.32,1.32,0,0,1,18.24,16.91Z"/><path class="cls-7" d="M23.52,19.41s0-.05,0-.07l.37-.23-.09-.21-.42.12a1.06,1.06,0,0,0-.39-.37l.09-.42-.2-.09-.22.38a1.19,1.19,0,0,0-.53,0l-.24-.37-.2.09.12.42-.07.05,0,0-.06,0a.86.86,0,0,0-.2.26L21,19l-.08.2.38.22a1.06,1.06,0,0,0,0,.53l-.37.24.09.2.42-.12a1,1,0,0,0,.39.37l-.1.43.21.08.22-.38a1.19,1.19,0,0,0,.53,0l.24.36.2-.09L23,20.59a1.06,1.06,0,0,0,.37-.39l.43.1.07-.21-.37-.21a.78.78,0,0,0,0-.16v-.17s0-.06,0-.09S23.52,19.43,23.52,19.41Z"/><path class="cls-9" d="M22.93,19.41a.58.58,0,0,1-.29.75.58.58,0,0,1-.76-.29.57.57,0,0,1,.29-.75A.58.58,0,0,1,22.93,19.41Z"/><path class="cls-10" d="M20.28,22.29a.11.11,0,0,1,0-.05l.27-.18-.07-.15-.31.08a.93.93,0,0,0-.29-.27l.06-.32-.15-.06-.16.28a1,1,0,0,0-.41,0L19,21.36l-.16.07.09.31,0,0,0,0s0,0,0,0a.7.7,0,0,0-.15.19L18.38,22l-.06.16.28.16a.9.9,0,0,0,0,.4l-.27.18.06.15.32-.09a.78.78,0,0,0,.29.28l-.07.32.16.06.16-.28a1.08,1.08,0,0,0,.4,0l.18.27.15-.07-.09-.31a1,1,0,0,0,.28-.29l.32.07.06-.16-.28-.16s0-.08,0-.12v-.23Z"/><path class="cls-9" d="M19.83,22.29a.43.43,0,1,1-.57-.22A.43.43,0,0,1,19.83,22.29Z"/></g></g></svg>