<svg width="109" height="13" viewBox="0 0 109 13" fill="none" xmlns="http://www.w3.org/2000/svg">
<path d="M4.01245 7.632C3.66711 7.73467 3.42911 7.87933 3.29845 8.066C3.17711 8.25267 3.11645 8.55133 3.11645 8.962V10.46C3.11645 11.4867 2.63578 12 1.67445 12H0.806445V11.062H1.36645C1.58111 11.062 1.73511 11.0107 1.82845 10.908C1.92178 10.796 1.96845 10.6233 1.96845 10.39V8.934C1.96845 8.514 2.03845 8.16867 2.17845 7.898C2.32778 7.618 2.58445 7.41733 2.94845 7.296L1.28245 6.932V5.588C1.67445 5.21467 2.16911 4.90667 2.76645 4.664C3.37311 4.42133 4.04978 4.3 4.79645 4.3C5.90711 4.3 6.73778 4.538 7.28845 5.014C7.83911 5.48067 8.11445 6.204 8.11445 7.184V12H6.96645V7.142C6.96645 6.45133 6.80311 5.97067 6.47645 5.7C6.14978 5.42 5.58978 5.28 4.79645 5.28C4.27378 5.28 3.78378 5.35467 3.32645 5.504C2.87845 5.644 2.53311 5.83533 2.29045 6.078V6.372L4.01245 6.764V7.632ZM13.1069 7.114C13.1069 6.65667 13.0602 6.302 12.9669 6.05C12.8829 5.798 12.7102 5.60667 12.4489 5.476C12.1969 5.34533 11.8142 5.28 11.3009 5.28C11.0022 5.28 10.6755 5.31267 10.3209 5.378C9.97553 5.44333 9.6582 5.532 9.36887 5.644V4.692C9.6582 4.58 9.9942 4.48667 10.3769 4.412C10.7595 4.33733 11.1375 4.3 11.5109 4.3C12.4722 4.3 13.1675 4.51467 13.5969 4.944C14.0355 5.364 14.2549 6.04533 14.2549 6.988V12H13.1069V7.114ZM18.6712 12H17.5372L15.8012 4.44H16.9772L18.2232 10.39L19.8192 5.392V4.44H20.6732L22.3812 10.39L23.6132 4.44H24.7752L23.0532 12H21.9052L20.3512 6.68L18.6712 12ZM30.5531 10.068C30.5531 9.79733 30.4877 9.58267 30.3571 9.424C30.2357 9.26533 30.0677 9.13933 29.8531 9.046C29.6477 8.95267 29.3351 8.84067 28.9151 8.71L28.4111 8.542C27.8977 8.374 27.4777 8.206 27.1511 8.038C26.8244 7.87 26.5537 7.65067 26.3391 7.38C26.1337 7.1 26.0311 6.75467 26.0311 6.344C26.0311 5.68133 26.2784 5.17733 26.7731 4.832C27.2677 4.47733 27.9957 4.3 28.9571 4.3C29.3491 4.3 29.7457 4.33267 30.1471 4.398C30.5484 4.46333 30.8937 4.54267 31.1831 4.636V5.644C30.5577 5.40133 29.8717 5.28 29.1251 5.28C28.4437 5.28 27.9491 5.35467 27.6411 5.504C27.3331 5.644 27.1791 5.91467 27.1791 6.316C27.1791 6.57733 27.2584 6.792 27.4171 6.96C27.5851 7.11867 27.7951 7.24933 28.0471 7.352C28.3084 7.44533 28.7424 7.59 29.3491 7.786C29.8717 7.954 30.2964 8.13133 30.6231 8.318C30.9591 8.49533 31.2204 8.724 31.4071 9.004C31.6031 9.284 31.7011 9.634 31.7011 10.054C31.7011 11.4447 30.7024 12.14 28.7051 12.14C28.2291 12.14 27.7671 12.1073 27.3191 12.042C26.8804 11.9767 26.5164 11.888 26.2271 11.776V10.754C26.9177 11.0247 27.6784 11.16 28.5091 11.16C29.2464 11.16 29.7691 11.09 30.0771 10.95C30.3944 10.8007 30.5531 10.5067 30.5531 10.068ZM33.0994 10.782C33.7154 11.034 34.3314 11.16 34.9474 11.16C35.6287 11.16 36.1607 11.062 36.5434 10.866C36.9354 10.67 37.2107 10.362 37.3694 9.942C37.5281 9.51267 37.6074 8.93867 37.6074 8.22C37.6074 7.17467 37.3974 6.42333 36.9774 5.966C36.5667 5.50867 35.8761 5.28 34.9054 5.28C34.2801 5.28 33.6781 5.41067 33.0994 5.672V4.692C33.6967 4.43067 34.3781 4.3 35.1434 4.3C37.5514 4.3 38.7554 5.60667 38.7554 8.22C38.7554 9.51733 38.4754 10.4973 37.9154 11.16C37.3554 11.8133 36.4547 12.14 35.2134 12.14C34.4107 12.14 33.7061 12.0093 33.0994 11.748V10.782ZM46.8321 9.424C46.8321 10.3013 46.6081 10.9733 46.1601 11.44C45.7214 11.9067 45.0961 12.14 44.2841 12.14C43.7054 12.14 43.1968 12.0513 42.7581 11.874C42.3288 11.6967 41.9228 11.4353 41.5401 11.09L41.4701 12H40.4341V4.44H41.5821V10.124C41.8901 10.4413 42.2401 10.6933 42.6321 10.88C43.0241 11.0667 43.4488 11.16 43.9061 11.16C44.5221 11.16 44.9701 11.0247 45.2501 10.754C45.5394 10.474 45.6841 10.026 45.6841 9.41V4.44H46.8321V9.424ZM51.1536 7.632C50.7896 7.72533 50.5236 7.87467 50.3556 8.08C50.1876 8.28533 50.1036 8.57933 50.1036 8.962V12H48.9556V8.934C48.9556 8.52333 49.0443 8.178 49.2216 7.898C49.4083 7.60867 49.6976 7.408 50.0896 7.296L48.5076 6.932V5.588C48.8996 5.21467 49.3943 4.90667 49.9916 4.664C50.5983 4.42133 51.275 4.3 52.0216 4.3C53.1323 4.3 53.963 4.538 54.5136 5.014C55.0643 5.48067 55.3396 6.204 55.3396 7.184V12H54.1916V7.142C54.1916 6.45133 54.0283 5.97067 53.7016 5.7C53.375 5.42 52.815 5.28 52.0216 5.28C51.499 5.28 51.009 5.35467 50.5516 5.504C50.1036 5.644 49.7583 5.83533 49.5156 6.078V6.372L51.1536 6.764V7.632ZM60.3432 7.114C60.3432 6.65667 60.2965 6.302 60.2032 6.05C60.1192 5.798 59.9465 5.60667 59.6852 5.476C59.4332 5.34533 59.0505 5.28 58.5372 5.28C58.2385 5.28 57.9119 5.31267 57.5572 5.378C57.2119 5.44333 56.8945 5.532 56.6052 5.644V4.692C56.8945 4.58 57.2305 4.48667 57.6132 4.412C57.9959 4.33733 58.3739 4.3 58.7472 4.3C59.7085 4.3 60.4039 4.51467 60.8332 4.944C61.2719 5.364 61.4912 6.04533 61.4912 6.988V12H60.3432V7.114ZM67.6995 10.068C67.6995 9.79733 67.6342 9.58267 67.5035 9.424C67.3822 9.26533 67.2142 9.13933 66.9995 9.046C66.7942 8.95267 66.4815 8.84067 66.0615 8.71L65.5575 8.542C65.0442 8.374 64.6242 8.206 64.2975 8.038C63.9709 7.87 63.7002 7.65067 63.4855 7.38C63.2802 7.1 63.1775 6.75467 63.1775 6.344C63.1775 5.68133 63.4249 5.17733 63.9195 4.832C64.4142 4.47733 65.1422 4.3 66.1035 4.3C66.4955 4.3 66.8922 4.33267 67.2935 4.398C67.6949 4.46333 68.0402 4.54267 68.3295 4.636V5.644C67.7042 5.40133 67.0182 5.28 66.2715 5.28C65.5902 5.28 65.0955 5.35467 64.7875 5.504C64.4795 5.644 64.3255 5.91467 64.3255 6.316C64.3255 6.57733 64.4049 6.792 64.5635 6.96C64.7315 7.11867 64.9415 7.24933 65.1935 7.352C65.4549 7.44533 65.8889 7.59 66.4955 7.786C67.0182 7.954 67.4429 8.13133 67.7695 8.318C68.1055 8.49533 68.3669 8.724 68.5535 9.004C68.7495 9.284 68.8475 9.634 68.8475 10.054C68.8475 11.4447 67.8489 12.14 65.8515 12.14C65.3755 12.14 64.9135 12.1073 64.4655 12.042C64.0269 11.9767 63.6629 11.888 63.3735 11.776V10.754C64.0642 11.0247 64.8249 11.16 65.6555 11.16C66.3929 11.16 66.9155 11.09 67.2235 10.95C67.5409 10.8007 67.6995 10.5067 67.6995 10.068ZM75.7759 12V7.016C75.7759 6.40933 75.6312 5.97067 75.3419 5.7C75.0526 5.42 74.6046 5.28 73.9979 5.28C73.5406 5.28 73.1159 5.37333 72.7239 5.56C72.3319 5.74667 71.9819 6.00333 71.6739 6.33V12H70.5259V4.44H71.5619L71.6319 5.35C72.0052 5.014 72.4159 4.75733 72.8639 4.58C73.3119 4.39333 73.8252 4.3 74.4039 4.3C75.2066 4.3 75.8272 4.53333 76.2659 5C76.7046 5.46667 76.9239 6.134 76.9239 7.002V12H75.7759ZM74.8614 2.046C74.8614 1.64467 75.0061 1.30867 75.2954 1.038C75.5754 0.758 75.9207 0.618 76.3314 0.618C76.7421 0.618 77.0874 0.758 77.3674 1.038C77.6474 1.30867 77.7874 1.64467 77.7874 2.046C77.7874 2.44733 77.6474 2.78333 77.3674 3.054C77.0874 3.32467 76.7421 3.46 76.3314 3.46C75.9207 3.46 75.5754 3.32467 75.2954 3.054C75.0061 2.78333 74.8614 2.44733 74.8614 2.046ZM75.6314 2.046C75.6314 2.23267 75.7014 2.396 75.8414 2.536C75.9721 2.66667 76.1354 2.732 76.3314 2.732C76.5181 2.732 76.6814 2.66667 76.8214 2.536C76.9521 2.396 77.0174 2.23267 77.0174 2.046C77.0174 1.85933 76.9521 1.696 76.8214 1.556C76.6814 1.416 76.5181 1.346 76.3314 1.346C76.1354 1.346 75.9721 1.416 75.8414 1.556C75.7014 1.696 75.6314 1.85933 75.6314 2.046ZM81.9174 7.114C81.9174 6.65667 81.8707 6.302 81.7774 6.05C81.6934 5.798 81.5207 5.60667 81.2594 5.476C81.0074 5.34533 80.6247 5.28 80.1114 5.28C79.8127 5.28 79.4861 5.31267 79.1314 5.378C78.7861 5.44333 78.4687 5.532 78.1794 5.644V4.692C78.4687 4.58 78.8047 4.48667 79.1874 4.412C79.5701 4.33733 79.9481 4.3 80.3214 4.3C81.2827 4.3 81.9781 4.51467 82.4074 4.944C82.8461 5.364 83.0654 6.04533 83.0654 6.988V12H81.9174V7.114ZM84.7518 10.782C85.3678 11.034 85.9838 11.16 86.5998 11.16C87.2811 11.16 87.8131 11.062 88.1958 10.866C88.5878 10.67 88.8631 10.362 89.0218 9.942C89.1804 9.51267 89.2598 8.93867 89.2598 8.22C89.2598 7.17467 89.0498 6.42333 88.6298 5.966C88.2191 5.50867 87.5284 5.28 86.5578 5.28C85.9324 5.28 85.3304 5.41067 84.7518 5.672V4.692C85.3491 4.43067 86.0304 4.3 86.7958 4.3C89.2038 4.3 90.4078 5.60667 90.4078 8.22C90.4078 9.51733 90.1278 10.4973 89.5678 11.16C89.0078 11.8133 88.1071 12.14 86.8658 12.14C86.0631 12.14 85.3584 12.0093 84.7518 11.748V10.782ZM95.1244 7.114C95.1244 6.65667 95.0778 6.302 94.9844 6.05C94.9004 5.798 94.7278 5.60667 94.4664 5.476C94.2144 5.34533 93.8318 5.28 93.3184 5.28C93.0198 5.28 92.6931 5.31267 92.3384 5.378C91.9931 5.44333 91.6758 5.532 91.3864 5.644V4.692C91.6758 4.58 92.0118 4.48667 92.3944 4.412C92.7771 4.33733 93.1551 4.3 93.5284 4.3C94.4898 4.3 95.1851 4.51467 95.6144 4.944C96.0531 5.364 96.2724 6.04533 96.2724 6.988V12H95.1244V7.114ZM102.481 10.068C102.481 9.79733 102.415 9.58267 102.285 9.424C102.163 9.26533 101.995 9.13933 101.781 9.046C101.575 8.95267 101.263 8.84067 100.843 8.71L100.339 8.542C99.8255 8.374 99.4055 8.206 99.0788 8.038C98.7521 7.87 98.4815 7.65067 98.2668 7.38C98.0615 7.1 97.9588 6.75467 97.9588 6.344C97.9588 5.68133 98.2061 5.17733 98.7008 4.832C99.1955 4.47733 99.9235 4.3 100.885 4.3C101.277 4.3 101.673 4.33267 102.075 4.398C102.476 4.46333 102.821 4.54267 103.111 4.636V5.644C102.485 5.40133 101.799 5.28 101.053 5.28C100.371 5.28 99.8768 5.35467 99.5688 5.504C99.2608 5.644 99.1068 5.91467 99.1068 6.316C99.1068 6.57733 99.1861 6.792 99.3448 6.96C99.5128 7.11867 99.7228 7.24933 99.9748 7.352C100.236 7.44533 100.67 7.59 101.277 7.786C101.799 7.954 102.224 8.13133 102.551 8.318C102.887 8.49533 103.148 8.724 103.335 9.004C103.531 9.284 103.629 9.634 103.629 10.054C103.629 11.4447 102.63 12.14 100.633 12.14C100.157 12.14 99.6948 12.1073 99.2468 12.042C98.8081 11.9767 98.4441 11.888 98.1548 11.776V10.754C98.8455 11.0247 99.6061 11.16 100.437 11.16C101.174 11.16 101.697 11.09 102.005 10.95C102.322 10.8007 102.481 10.5067 102.481 10.068ZM106.021 5.672V6.358H108.191L108.149 7.24H105.027V5.672H106.021ZM106.021 9.536V10.236H108.191L108.149 11.104H105.027V9.536H106.021Z" fill="black"/>
</svg>
