<svg width="217" height="16" viewBox="0 0 217 16" fill="none" xmlns="http://www.w3.org/2000/svg">
<path d="M4.55208 10.068C4.55208 9.79733 4.48675 9.58267 4.35608 9.424C4.23475 9.26533 4.06675 9.13933 3.85208 9.046C3.64675 8.95267 3.33408 8.84067 2.91408 8.71L2.41008 8.542C1.89674 8.374 1.47674 8.206 1.15008 8.038C0.823412 7.87 0.552745 7.65067 0.338078 7.38C0.132745 7.1 0.0300781 6.75467 0.0300781 6.344C0.0300781 5.68133 0.277412 5.17733 0.772078 4.832C1.26674 4.47733 1.99474 4.3 2.95608 4.3C3.34808 4.3 3.74475 4.33267 4.14608 4.398C4.54741 4.46333 4.89275 4.54267 5.18208 4.636V5.644C4.55674 5.40133 3.87075 5.28 3.12408 5.28C2.44275 5.28 1.94808 5.35467 1.64008 5.504C1.33208 5.644 1.17808 5.91467 1.17808 6.316C1.17808 6.57733 1.25741 6.792 1.41608 6.96C1.58408 7.11867 1.79408 7.24933 2.04608 7.352C2.30741 7.44533 2.74141 7.59 3.34808 7.786C3.87075 7.954 4.29541 8.13133 4.62208 8.318C4.95808 8.49533 5.21941 8.724 5.40608 9.004C5.60208 9.284 5.70008 9.634 5.70008 10.054C5.70008 11.4447 4.70141 12.14 2.70408 12.14C2.22808 12.14 1.76608 12.1073 1.31808 12.042C0.879412 11.9767 0.515412 11.888 0.226078 11.776V10.754C0.916745 11.0247 1.67741 11.16 2.50808 11.16C3.24541 11.16 3.76808 11.09 4.07608 10.95C4.39341 10.8007 4.55208 10.5067 4.55208 10.068ZM8.09244 5.672V6.358H10.2624L10.2204 7.24H7.09844V5.672H8.09244ZM8.09244 9.536V10.236H10.2624L10.2204 11.104H7.09844V9.536H8.09244ZM15.2628 11.16C15.9815 11.16 16.5228 11.006 16.8868 10.698C17.2508 10.39 17.4328 9.9 17.4328 9.228V4.44H18.5808V9.144C18.5808 10.1333 18.2962 10.88 17.7268 11.384C17.1575 11.888 16.3362 12.14 15.2628 12.14C14.1895 12.14 13.3682 11.888 12.7988 11.384C12.2295 10.88 11.9448 10.1333 11.9448 9.144V4.44H13.0928V9.228C13.0928 9.9 13.2748 10.39 13.6388 10.698C14.0028 11.006 14.5442 11.16 15.2628 11.16ZM23.8625 11.16C24.5811 11.16 25.1225 11.006 25.4865 10.698C25.8505 10.39 26.0325 9.9 26.0325 9.228V4.44H27.1805V9.144C27.1805 10.1333 26.8958 10.88 26.3265 11.384C25.7571 11.888 24.9358 12.14 23.8625 12.14C22.7891 12.14 21.9678 11.888 21.3985 11.384C20.8291 10.88 20.5445 10.1333 20.5445 9.144V4.44H21.6925V9.228C21.6925 9.9 21.8745 10.39 22.2385 10.698C22.6025 11.006 23.1438 11.16 23.8625 11.16ZM28.8641 10.782C29.4801 11.034 30.0961 11.16 30.7121 11.16C31.3934 11.16 31.9254 11.062 32.3081 10.866C32.7001 10.67 32.9754 10.362 33.1341 9.942C33.2927 9.51267 33.3721 8.93867 33.3721 8.22C33.3721 7.17467 33.1621 6.42333 32.7421 5.966C32.3314 5.50867 31.6407 5.28 30.6701 5.28C30.0447 5.28 29.4427 5.41067 28.8641 5.672V4.692C29.4614 4.43067 30.1427 4.3 30.9081 4.3C33.3161 4.3 34.5201 5.60667 34.5201 8.22C34.5201 9.51733 34.2401 10.4973 33.6801 11.16C33.1201 11.8133 32.2194 12.14 30.9781 12.14C30.1754 12.14 29.4707 12.0093 28.8641 11.748V10.782ZM28.6667 3.166L28.7227 2.34H34.2247V3.166H28.6667ZM37.3468 4.44V10.376C37.3468 10.6093 37.3981 10.782 37.5008 10.894C37.6128 11.006 37.7808 11.062 38.0048 11.062H38.8028V12H37.4868C37.0854 12 36.7681 11.8787 36.5348 11.636C36.3108 11.384 36.1988 11.0573 36.1988 10.656V4.44H37.3468ZM43.754 5.28C43.0354 5.28 42.4987 5.41533 42.144 5.686C41.7987 5.95667 41.626 6.386 41.626 6.974V8.724C42.0647 8.34133 42.606 8.15 43.25 8.15H44.174L44.23 9.088H43.222C42.5874 9.088 42.0554 9.27 41.626 9.634V12H40.478V7.1C40.478 5.23333 41.57 4.3 43.754 4.3C45.9194 4.3 47.002 5.23333 47.002 7.1V12H45.854V6.974C45.854 6.386 45.6767 5.95667 45.322 5.686C44.9767 5.41533 44.454 5.28 43.754 5.28ZM53.2103 10.068C53.2103 9.79733 53.1449 9.58267 53.0143 9.424C52.8929 9.26533 52.7249 9.13933 52.5103 9.046C52.3049 8.95267 51.9923 8.84067 51.5723 8.71L51.0683 8.542C50.5549 8.374 50.1349 8.206 49.8083 8.038C49.4816 7.87 49.2109 7.65067 48.9963 7.38C48.7909 7.1 48.6883 6.75467 48.6883 6.344C48.6883 5.68133 48.9356 5.17733 49.4303 4.832C49.9249 4.47733 50.6529 4.3 51.6143 4.3C52.0063 4.3 52.4029 4.33267 52.8043 4.398C53.2056 4.46333 53.5509 4.54267 53.8403 4.636V5.644C53.2149 5.40133 52.5289 5.28 51.7823 5.28C51.1009 5.28 50.6063 5.35467 50.2983 5.504C49.9903 5.644 49.8363 5.91467 49.8363 6.316C49.8363 6.57733 49.9156 6.792 50.0743 6.96C50.2423 7.11867 50.4523 7.24933 50.7043 7.352C50.9656 7.44533 51.3996 7.59 52.0063 7.786C52.5289 7.954 52.9536 8.13133 53.2803 8.318C53.6163 8.49533 53.8776 8.724 54.0643 9.004C54.2603 9.284 54.3583 9.634 54.3583 10.054C54.3583 11.4447 53.3596 12.14 51.3623 12.14C50.8863 12.14 50.4243 12.1073 49.9763 12.042C49.5376 11.9767 49.1736 11.888 48.8843 11.776V10.754C49.5749 11.0247 50.3356 11.16 51.1663 11.16C51.9036 11.16 52.4263 11.09 52.7343 10.95C53.0516 10.8007 53.2103 10.5067 53.2103 10.068ZM59.0746 7.114C59.0746 6.65667 59.028 6.302 58.9346 6.05C58.8506 5.798 58.678 5.60667 58.4166 5.476C58.1646 5.34533 57.782 5.28 57.2686 5.28C56.97 5.28 56.6433 5.31267 56.2886 5.378C55.9433 5.44333 55.626 5.532 55.3366 5.644V4.692C55.626 4.58 55.962 4.48667 56.3446 4.412C56.7273 4.33733 57.1053 4.3 57.4786 4.3C58.44 4.3 59.1353 4.51467 59.5646 4.944C60.0033 5.364 60.2226 6.04533 60.2226 6.988V12H59.0746V7.114ZM62.903 5.672V6.358H65.073L65.031 7.24H61.909V5.672H62.903ZM62.903 9.536V10.236H65.073L65.031 11.104H61.909V9.536H62.903ZM67.9034 6.89H70.4094C71.0067 6.89 71.4267 6.76867 71.6694 6.526C71.9121 6.274 72.0334 5.88667 72.0334 5.364V4.44H73.1814V5.35C73.1814 6.42333 72.7801 7.086 71.9774 7.338C72.4161 7.478 72.7101 7.70667 72.8594 8.024C73.0181 8.332 73.0974 8.738 73.0974 9.242V12H71.9494V9.382C71.9494 8.98067 71.8981 8.668 71.7954 8.444C71.7021 8.22 71.5387 8.06133 71.3054 7.968C71.0814 7.87467 70.7594 7.828 70.3394 7.828H67.9034V12H66.7554V4.44H67.9034V6.89ZM71.0222 2.116V3.166H70.0562V1.29H73.9902L73.9482 2.116H71.0222ZM77.4202 7.632C77.0562 7.72533 76.7902 7.87467 76.6222 8.08C76.4542 8.28533 76.3702 8.57933 76.3702 8.962V12H75.2222V8.934C75.2222 8.52333 75.3109 8.178 75.4882 7.898C75.6749 7.60867 75.9642 7.408 76.3562 7.296L74.7742 6.932V5.588C75.1662 5.21467 75.6609 4.90667 76.2582 4.664C76.8649 4.42133 77.5416 4.3 78.2882 4.3C79.3989 4.3 80.2296 4.538 80.7802 5.014C81.3309 5.48067 81.6062 6.204 81.6062 7.184V12H80.4582V7.142C80.4582 6.45133 80.2949 5.97067 79.9682 5.7C79.6416 5.42 79.0816 5.28 78.2882 5.28C77.7656 5.28 77.2756 5.35467 76.8182 5.504C76.3702 5.644 76.0249 5.83533 75.7822 6.078V6.372L77.4202 6.764V7.632ZM86.6098 7.114C86.6098 6.65667 86.5631 6.302 86.4698 6.05C86.3858 5.798 86.2131 5.60667 85.9518 5.476C85.6998 5.34533 85.3171 5.28 84.8038 5.28C84.5051 5.28 84.1785 5.31267 83.8238 5.378C83.4785 5.44333 83.1611 5.532 82.8718 5.644V4.692C83.1611 4.58 83.4971 4.48667 83.8798 4.412C84.2625 4.33733 84.6405 4.3 85.0138 4.3C85.9751 4.3 86.6705 4.51467 87.0998 4.944C87.5385 5.364 87.7578 6.04533 87.7578 6.988V12H86.6098V7.114ZM93.9661 10.068C93.9661 9.79733 93.9008 9.58267 93.7701 9.424C93.6488 9.26533 93.4808 9.13933 93.2661 9.046C93.0608 8.95267 92.7481 8.84067 92.3281 8.71L91.8241 8.542C91.3108 8.374 90.8908 8.206 90.5641 8.038C90.2375 7.87 89.9668 7.65067 89.7521 7.38C89.5468 7.1 89.4441 6.75467 89.4441 6.344C89.4441 5.68133 89.6915 5.17733 90.1861 4.832C90.6808 4.47733 91.4088 4.3 92.3701 4.3C92.7621 4.3 93.1588 4.33267 93.5601 4.398C93.9615 4.46333 94.3068 4.54267 94.5961 4.636V5.644C93.9708 5.40133 93.2848 5.28 92.5381 5.28C91.8568 5.28 91.3621 5.35467 91.0541 5.504C90.7461 5.644 90.5921 5.91467 90.5921 6.316C90.5921 6.57733 90.6715 6.792 90.8301 6.96C90.9981 7.11867 91.2081 7.24933 91.4601 7.352C91.7215 7.44533 92.1555 7.59 92.7621 7.786C93.2848 7.954 93.7095 8.13133 94.0361 8.318C94.3721 8.49533 94.6335 8.724 94.8201 9.004C95.0161 9.284 95.1141 9.634 95.1141 10.054C95.1141 11.4447 94.1155 12.14 92.1181 12.14C91.6421 12.14 91.1801 12.1073 90.7321 12.042C90.2935 11.9767 89.9295 11.888 89.6401 11.776V10.754C90.3308 11.0247 91.0915 11.16 91.9221 11.16C92.6595 11.16 93.1821 11.09 93.4901 10.95C93.8075 10.8007 93.9661 10.5067 93.9661 10.068ZM96.5125 10.782C97.1285 11.034 97.7445 11.16 98.3605 11.16C99.0418 11.16 99.5738 11.062 99.9565 10.866C100.349 10.67 100.624 10.362 100.783 9.942C100.941 9.51267 101.021 8.93867 101.021 8.22C101.021 7.17467 100.811 6.42333 100.391 5.966C99.9798 5.50867 99.2892 5.28 98.3185 5.28C97.6932 5.28 97.0912 5.41067 96.5125 5.672V4.692C97.1098 4.43067 97.7912 4.3 98.5565 4.3C100.965 4.3 102.169 5.60667 102.169 8.22C102.169 9.51733 101.889 10.4973 101.329 11.16C100.769 11.8133 99.8678 12.14 98.6265 12.14C97.8238 12.14 97.1192 12.0093 96.5125 11.748V10.782ZM106.885 7.114C106.885 6.65667 106.839 6.302 106.745 6.05C106.661 5.798 106.489 5.60667 106.227 5.476C105.975 5.34533 105.593 5.28 105.079 5.28C104.781 5.28 104.454 5.31267 104.099 5.378C103.754 5.44333 103.437 5.532 103.147 5.644V4.692C103.437 4.58 103.773 4.48667 104.155 4.412C104.538 4.33733 104.916 4.3 105.289 4.3C106.251 4.3 106.946 4.51467 107.375 4.944C107.814 5.364 108.033 6.04533 108.033 6.988V12H106.885V7.114ZM112.758 4.44H113.374C114.428 4.44 115.194 4.72467 115.67 5.294C116.146 5.86333 116.384 6.75 116.384 7.954C116.384 9.37267 116.08 10.4273 115.474 11.118C114.876 11.7993 114.078 12.14 113.08 12.14C112.529 12.14 112.118 12.0887 111.848 11.986L109.72 6.806H110.84L112.632 11.16L112.912 11.174C113.705 11.174 114.288 10.9127 114.662 10.39C115.044 9.858 115.236 9.05067 115.236 7.968C115.236 7.296 115.175 6.778 115.054 6.414C114.932 6.04067 114.727 5.77467 114.438 5.616C114.158 5.45733 113.761 5.378 113.248 5.378H112.758V4.44ZM119.214 4.44V10.376C119.214 10.6093 119.265 10.782 119.368 10.894C119.48 11.006 119.648 11.062 119.872 11.062H120.53V12H119.354C118.953 12 118.635 11.8787 118.402 11.636C118.178 11.384 118.066 11.0573 118.066 10.656V4.44H119.214ZM122.42 4.44V10.376C122.42 10.6093 122.471 10.782 122.574 10.894C122.686 11.006 122.854 11.062 123.078 11.062H123.736V12H122.56C122.159 12 121.841 11.8787 121.608 11.636C121.384 11.384 121.272 11.0573 121.272 10.656V4.44H122.42ZM125.421 5.826C125.421 5.42467 125.543 5.09333 125.785 4.832C126.028 4.57067 126.35 4.44 126.751 4.44H127.955L127.997 5.392H127.255C127.003 5.392 126.821 5.448 126.709 5.56C126.607 5.672 126.555 5.86333 126.555 6.134V10.404L128.669 6.75H129.215L131.329 10.404V4.44H132.449V12H131.273L128.949 7.926L126.597 12H125.421V5.826ZM135.552 4.44V9.41C135.552 10.026 135.687 10.474 135.958 10.754C136.238 11.0247 136.686 11.16 137.302 11.16C137.759 11.16 138.188 11.0667 138.59 10.88C139 10.6933 139.355 10.4413 139.654 10.124V4.44H140.802V12H139.766L139.696 11.09C138.921 11.79 137.997 12.14 136.924 12.14C136.112 12.14 135.486 11.9067 135.048 11.44C134.618 10.9733 134.404 10.3013 134.404 9.424V4.44H135.552ZM145.123 7.632C144.759 7.72533 144.493 7.87467 144.325 8.08C144.157 8.28533 144.073 8.57933 144.073 8.962V12H142.925V8.934C142.925 8.52333 143.014 8.178 143.191 7.898C143.378 7.60867 143.667 7.408 144.059 7.296L142.477 6.932V5.588C142.869 5.21467 143.364 4.90667 143.961 4.664C144.568 4.42133 145.245 4.3 145.991 4.3C147.102 4.3 147.933 4.538 148.483 5.014C149.034 5.48067 149.309 6.204 149.309 7.184V12H148.161V7.142C148.161 6.45133 147.998 5.97067 147.671 5.7C147.345 5.42 146.785 5.28 145.991 5.28C145.469 5.28 144.979 5.35467 144.521 5.504C144.073 5.644 143.728 5.83533 143.485 6.078V6.372L145.123 6.764V7.632ZM154.313 7.114C154.313 6.65667 154.266 6.302 154.173 6.05C154.089 5.798 153.916 5.60667 153.655 5.476C153.403 5.34533 153.02 5.28 152.507 5.28C152.208 5.28 151.882 5.31267 151.527 5.378C151.182 5.44333 150.864 5.532 150.575 5.644V4.692C150.864 4.58 151.2 4.48667 151.583 4.412C151.966 4.33733 152.344 4.3 152.717 4.3C153.678 4.3 154.374 4.51467 154.803 4.944C155.242 5.364 155.461 6.04533 155.461 6.988V12H154.313V7.114ZM161.669 10.068C161.669 9.79733 161.604 9.58267 161.473 9.424C161.352 9.26533 161.184 9.13933 160.969 9.046C160.764 8.95267 160.451 8.84067 160.031 8.71L159.527 8.542C159.014 8.374 158.594 8.206 158.267 8.038C157.941 7.87 157.67 7.65067 157.455 7.38C157.25 7.1 157.147 6.75467 157.147 6.344C157.147 5.68133 157.395 5.17733 157.889 4.832C158.384 4.47733 159.112 4.3 160.073 4.3C160.465 4.3 160.862 4.33267 161.263 4.398C161.665 4.46333 162.01 4.54267 162.299 4.636V5.644C161.674 5.40133 160.988 5.28 160.241 5.28C159.56 5.28 159.065 5.35467 158.757 5.504C158.449 5.644 158.295 5.91467 158.295 6.316C158.295 6.57733 158.375 6.792 158.533 6.96C158.701 7.11867 158.911 7.24933 159.163 7.352C159.425 7.44533 159.859 7.59 160.465 7.786C160.988 7.954 161.413 8.13133 161.739 8.318C162.075 8.49533 162.337 8.724 162.523 9.004C162.719 9.284 162.817 9.634 162.817 10.054C162.817 11.4447 161.819 12.14 159.821 12.14C159.345 12.14 158.883 12.1073 158.435 12.042C157.997 11.9767 157.633 11.888 157.343 11.776V10.754C158.034 11.0247 158.795 11.16 159.625 11.16C160.363 11.16 160.885 11.09 161.193 10.95C161.511 10.8007 161.669 10.5067 161.669 10.068ZM164.384 8.654C164.384 8.38333 164.468 8.108 164.636 7.828C164.804 7.548 165.037 7.21667 165.336 6.834C165.569 6.53533 165.737 6.302 165.84 6.134C165.952 5.95667 166.008 5.798 166.008 5.658C166.008 5.42467 165.896 5.308 165.672 5.308C165.466 5.308 165.275 5.39667 165.098 5.574V6.12H164.216V4.44H165.098V4.832C165.378 4.57067 165.714 4.44 166.106 4.44C166.414 4.44 166.656 4.52867 166.834 4.706C167.02 4.874 167.114 5.11667 167.114 5.434C167.114 5.70467 167.044 5.96133 166.904 6.204C166.773 6.44667 166.572 6.74533 166.302 7.1C166.031 7.464 165.835 7.758 165.714 7.982C165.592 8.206 165.532 8.43933 165.532 8.682V9.536C165.532 10.6187 166.171 11.16 167.45 11.16C168.747 11.16 169.396 10.6093 169.396 9.508V8.542C169.396 8.02867 169.312 7.674 169.144 7.478C168.976 7.282 168.668 7.184 168.22 7.184H167.828L167.884 6.274H168.192C168.649 6.274 168.962 6.17133 169.13 5.966C169.307 5.75133 169.396 5.40133 169.396 4.916V4.3H170.544V4.902C170.544 5.39667 170.469 5.78867 170.32 6.078C170.18 6.36733 169.909 6.582 169.508 6.722C169.928 6.88067 170.203 7.10467 170.334 7.394C170.474 7.674 170.544 8.066 170.544 8.57V9.396C170.544 10.2733 170.268 10.95 169.718 11.426C169.176 11.902 168.42 12.14 167.45 12.14C166.46 12.14 165.7 11.9067 165.168 11.44C164.645 10.9733 164.384 10.2967 164.384 9.41V8.654ZM169.413 3.166V0.897999H170.561V3.166H169.413ZM174.789 5.28C173.893 5.28 173.077 5.40133 172.339 5.644V4.692C172.703 4.57067 173.123 4.47733 173.599 4.412C174.085 4.33733 174.579 4.3 175.083 4.3C176.353 4.3 177.277 4.622 177.855 5.266C178.434 5.91 178.723 6.89933 178.723 8.234C178.723 9.54067 178.434 10.5207 177.855 11.174C177.277 11.818 176.367 12.14 175.125 12.14C174.584 12.14 174.057 12.0933 173.543 12C173.039 11.8973 172.601 11.7667 172.227 11.608V7.8H174.999L175.055 8.738H173.375V10.88C173.917 11.0667 174.491 11.16 175.097 11.16C175.713 11.16 176.199 11.0667 176.553 10.88C176.908 10.6933 177.165 10.39 177.323 9.97C177.491 9.54067 177.575 8.962 177.575 8.234C177.575 7.478 177.487 6.89 177.309 6.47C177.132 6.04067 176.843 5.73733 176.441 5.56C176.049 5.37333 175.499 5.28 174.789 5.28ZM186.808 9.424C186.808 10.3013 186.584 10.9733 186.136 11.44C185.697 11.9067 185.072 12.14 184.26 12.14C183.681 12.14 183.172 12.0513 182.734 11.874C182.304 11.6967 181.898 11.4353 181.516 11.09L181.446 12H180.41V4.44H181.558V10.124C181.866 10.4413 182.216 10.6933 182.608 10.88C183 11.0667 183.424 11.16 183.882 11.16C184.498 11.16 184.946 11.0247 185.226 10.754C185.515 10.474 185.66 10.026 185.66 9.41V4.44H186.808V9.424ZM192.081 11.16C192.8 11.16 193.341 11.006 193.705 10.698C194.069 10.39 194.251 9.9 194.251 9.228V4.44H195.399V9.144C195.399 10.1333 195.115 10.88 194.545 11.384C193.976 11.888 193.155 12.14 192.081 12.14C191.008 12.14 190.187 11.888 189.617 11.384C189.048 10.88 188.763 10.1333 188.763 9.144V4.44H189.911V9.228C189.911 9.9 190.093 10.39 190.457 10.698C190.821 11.006 191.363 11.16 192.081 11.16ZM193.345 2.046C193.345 1.64467 193.489 1.30867 193.779 1.038C194.059 0.758 194.404 0.618 194.815 0.618C195.225 0.618 195.571 0.758 195.851 1.038C196.131 1.30867 196.271 1.64467 196.271 2.046C196.271 2.44733 196.131 2.78333 195.851 3.054C195.571 3.32467 195.225 3.46 194.815 3.46C194.404 3.46 194.059 3.32467 193.779 3.054C193.489 2.78333 193.345 2.44733 193.345 2.046ZM194.115 2.046C194.115 2.23267 194.185 2.396 194.325 2.536C194.455 2.66667 194.619 2.732 194.815 2.732C195.001 2.732 195.165 2.66667 195.305 2.536C195.435 2.396 195.501 2.23267 195.501 2.046C195.501 1.85933 195.435 1.696 195.305 1.556C195.165 1.416 195.001 1.346 194.815 1.346C194.619 1.346 194.455 1.416 194.325 1.556C194.185 1.696 194.115 1.85933 194.115 2.046ZM200.401 7.114C200.401 6.65667 200.354 6.302 200.261 6.05C200.177 5.798 200.004 5.60667 199.743 5.476C199.491 5.34533 199.108 5.28 198.595 5.28C198.296 5.28 197.969 5.31267 197.615 5.378C197.269 5.44333 196.952 5.532 196.663 5.644V4.692C196.952 4.58 197.288 4.48667 197.671 4.412C198.053 4.33733 198.431 4.3 198.805 4.3C199.766 4.3 200.461 4.51467 200.891 4.944C201.329 5.364 201.549 6.04533 201.549 6.988V12H200.401V7.114ZM207.757 10.068C207.757 9.79733 207.692 9.58267 207.561 9.424C207.44 9.26533 207.272 9.13933 207.057 9.046C206.852 8.95267 206.539 8.84067 206.119 8.71L205.615 8.542C205.102 8.374 204.682 8.206 204.355 8.038C204.028 7.87 203.758 7.65067 203.543 7.38C203.338 7.1 203.235 6.75467 203.235 6.344C203.235 5.68133 203.482 5.17733 203.977 4.832C204.472 4.47733 205.2 4.3 206.161 4.3C206.553 4.3 206.95 4.33267 207.351 4.398C207.752 4.46333 208.098 4.54267 208.387 4.636V5.644C207.762 5.40133 207.076 5.28 206.329 5.28C205.648 5.28 205.153 5.35467 204.845 5.504C204.537 5.644 204.383 5.91467 204.383 6.316C204.383 6.57733 204.462 6.792 204.621 6.96C204.789 7.11867 204.999 7.24933 205.251 7.352C205.512 7.44533 205.946 7.59 206.553 7.786C207.076 7.954 207.5 8.13133 207.827 8.318C208.163 8.49533 208.424 8.724 208.611 9.004C208.807 9.284 208.905 9.634 208.905 10.054C208.905 11.4447 207.906 12.14 205.909 12.14C205.433 12.14 204.971 12.1073 204.523 12.042C204.084 11.9767 203.72 11.888 203.431 11.776V10.754C204.122 11.0247 204.882 11.16 205.713 11.16C206.45 11.16 206.973 11.09 207.281 10.95C207.598 10.8007 207.757 10.5067 207.757 10.068ZM208.624 12.882V15.5H207.63V13.666H206.706L206.762 12.882H208.624ZM213.342 4.44H213.958C215.012 4.44 215.778 4.72467 216.254 5.294C216.73 5.86333 216.968 6.75 216.968 7.954C216.968 9.37267 216.664 10.4273 216.058 11.118C215.46 11.7993 214.662 12.14 213.664 12.14C213.113 12.14 212.702 12.0887 212.432 11.986L210.304 6.806H211.424L213.216 11.16L213.496 11.174C214.289 11.174 214.872 10.9127 215.246 10.39C215.628 9.858 215.82 9.05067 215.82 7.968C215.82 7.296 215.759 6.778 215.638 6.414C215.516 6.04067 215.311 5.77467 215.022 5.616C214.742 5.45733 214.345 5.378 213.832 5.378H213.342V4.44Z" fill="black"/>
</svg>
