<svg width="160" height="12" viewBox="0 0 160 12" fill="none" xmlns="http://www.w3.org/2000/svg">
<path d="M1.61335 3.44V9.376C1.61335 9.60933 1.66469 9.782 1.76735 9.894C1.87935 10.006 2.04735 10.062 2.27135 10.062H2.92935V11H1.75335C1.35202 11 1.03468 10.8787 0.801352 10.636C0.577352 10.384 0.465352 10.0573 0.465352 9.656V3.44H1.61335ZM4.81935 3.44V9.376C4.81935 9.60933 4.87069 9.782 4.97335 9.894C5.08535 10.006 5.25335 10.062 5.47735 10.062H6.13535V11H4.95935C4.55802 11 4.24069 10.8787 4.00735 10.636C3.78335 10.384 3.67135 10.0573 3.67135 9.656V3.44H4.81935ZM13.6308 4.378C13.9202 4.77 14.0648 5.33467 14.0648 6.072V11H12.9168V7.528H10.5088C9.86482 7.528 9.39349 7.63533 9.09482 7.85C8.80549 8.06467 8.66082 8.41 8.66082 8.886C8.66082 9.35267 8.79149 9.684 9.05282 9.88C9.32349 10.0667 9.76215 10.16 10.3688 10.16C10.7328 10.16 11.0502 10.1227 11.3208 10.048V11C10.9662 11.0933 10.5462 11.14 10.0608 11.14C9.29549 11.14 8.68415 10.958 8.22682 10.594C7.76949 10.2207 7.54082 9.65133 7.54082 8.886C7.54082 8.158 7.78349 7.59333 8.26882 7.192C8.75415 6.78133 9.47749 6.576 10.4388 6.576H12.9168V5.988C12.9168 5.54933 12.8515 5.20867 12.7208 4.966C12.5902 4.72333 12.3708 4.55067 12.0628 4.448C11.7642 4.336 11.3395 4.28 10.7888 4.28C9.91149 4.28 9.10415 4.40133 8.36682 4.644V3.692C8.72149 3.57067 9.13215 3.47733 9.59882 3.412C10.0655 3.33733 10.5322 3.3 10.9988 3.3C11.4375 3.3 11.8668 3.34667 12.2868 3.44H14.6948L14.6388 4.378H13.6308ZM19.5923 3.3C20.3763 3.3 21.025 3.44 21.5383 3.72C22.061 3.99067 22.4436 4.35467 22.6863 4.812C22.929 5.26 23.0503 5.75933 23.0503 6.31V11H21.9023V6.324C21.9023 5.68933 21.7156 5.19 21.3423 4.826C20.9783 4.462 20.3856 4.28 19.5643 4.28C18.6496 4.28 17.987 4.53667 17.5763 5.05C17.1656 5.554 16.9603 6.30067 16.9603 7.29C16.9603 8.326 17.1283 9.06333 17.4643 9.502C17.8096 9.94067 18.3323 10.16 19.0323 10.16C19.4523 10.16 19.7743 10.1227 19.9983 10.048V11C19.6903 11.0933 19.303 11.14 18.8363 11.14C17.9216 11.14 17.189 10.8227 16.6383 10.188C16.0876 9.544 15.8123 8.578 15.8123 7.29C15.8123 6.03 16.125 5.05 16.7503 4.35C17.385 3.65 18.3323 3.3 19.5923 3.3ZM27.7644 3.44H28.3804C29.435 3.44 30.2004 3.72467 30.6764 4.294C31.1524 4.86333 31.3904 5.75 31.3904 6.954C31.3904 8.37267 31.087 9.42733 30.4804 10.118C29.883 10.7993 29.085 11.14 28.0864 11.14C27.5357 11.14 27.125 11.0887 26.8544 10.986L24.7264 5.806H25.8464L27.6384 10.16L27.9184 10.174C28.7117 10.174 29.295 9.91267 29.6684 9.39C30.051 8.858 30.2424 8.05067 30.2424 6.968C30.2424 6.296 30.1817 5.778 30.0604 5.414C29.939 5.04067 29.7337 4.77467 29.4444 4.616C29.1644 4.45733 28.7677 4.378 28.2544 4.378H27.7644V3.44ZM33.0728 4.826C33.0728 4.42467 33.1941 4.09333 33.4368 3.832C33.6794 3.57067 34.0014 3.44 34.4028 3.44H35.6068L35.6488 4.392H34.9068C34.6548 4.392 34.4728 4.448 34.3608 4.56C34.2581 4.672 34.2068 4.86333 34.2068 5.134V9.404L36.3208 5.75H36.8668L38.9808 9.404V3.44H40.1008V11H38.9248L36.6008 6.926L34.2488 11H33.0728V4.826ZM45.0232 4.28C44.1459 4.28 43.3385 4.40133 42.6012 4.644V3.692C42.9559 3.57067 43.3665 3.47733 43.8332 3.412C44.2999 3.33733 44.7665 3.3 45.2332 3.3C46.2972 3.3 47.0719 3.524 47.5572 3.972C48.0519 4.41067 48.2992 5.11067 48.2992 6.072V11H47.1512V7.528H44.7432C44.0992 7.528 43.6279 7.63533 43.3292 7.85C43.0399 8.06467 42.8952 8.41 42.8952 8.886C42.8952 9.35267 43.0259 9.684 43.2872 9.88C43.5579 10.0667 43.9965 10.16 44.6032 10.16C44.9672 10.16 45.2845 10.1227 45.5552 10.048V11C45.2005 11.0933 44.7805 11.14 44.2952 11.14C43.5299 11.14 42.9185 10.958 42.4612 10.594C42.0039 10.2207 41.7752 9.65133 41.7752 8.886C41.7752 8.158 42.0179 7.59333 42.5032 7.192C42.9885 6.78133 43.7119 6.576 44.6732 6.576H47.1512V5.988C47.1512 5.54933 47.0859 5.20867 46.9552 4.966C46.8245 4.72333 46.6052 4.55067 46.2972 4.448C45.9985 4.336 45.5739 4.28 45.0232 4.28ZM56.0683 4.378C56.3577 4.77 56.5023 5.33467 56.5023 6.072V11H55.3543V7.528H52.9463C52.3023 7.528 51.831 7.63533 51.5323 7.85C51.243 8.06467 51.0983 8.41 51.0983 8.886C51.0983 9.35267 51.229 9.684 51.4903 9.88C51.761 10.0667 52.1997 10.16 52.8063 10.16C53.1703 10.16 53.4877 10.1227 53.7583 10.048V11C53.4037 11.0933 52.9837 11.14 52.4983 11.14C51.733 11.14 51.1217 10.958 50.6643 10.594C50.207 10.2207 49.9783 9.65133 49.9783 8.886C49.9783 8.158 50.221 7.59333 50.7063 7.192C51.1917 6.78133 51.915 6.576 52.8763 6.576H55.3543V5.988C55.3543 5.54933 55.289 5.20867 55.1583 4.966C55.0277 4.72333 54.8083 4.55067 54.5003 4.448C54.2017 4.336 53.777 4.28 53.2263 4.28C52.349 4.28 51.5417 4.40133 50.8043 4.644V3.692C51.159 3.57067 51.5697 3.47733 52.0363 3.412C52.503 3.33733 52.9697 3.3 53.4363 3.3C53.875 3.3 54.3043 3.34667 54.7243 3.44H57.1323L57.0763 4.378H56.0683ZM59.8458 9.376C59.8458 9.60933 59.8971 9.782 59.9998 9.894C60.1118 10.006 60.2798 10.062 60.5038 10.062H61.3018V11H59.9858C59.5845 11 59.2671 10.8787 59.0338 10.636C58.8098 10.384 58.6978 10.0573 58.6978 9.656V7.934C58.6978 7.52333 58.7865 7.178 58.9638 6.898C59.1505 6.60867 59.4398 6.408 59.8318 6.296L58.2498 5.932V4.588C58.6418 4.21467 59.1365 3.90667 59.7338 3.664C60.3405 3.42133 61.0171 3.3 61.7638 3.3C62.8745 3.3 63.7051 3.538 64.2558 4.014C64.8065 4.48067 65.0818 5.204 65.0818 6.184V11H63.9338V6.142C63.9338 5.45133 63.7705 4.97067 63.4438 4.7C63.1171 4.42 62.5571 4.28 61.7638 4.28C61.2411 4.28 60.7511 4.35467 60.2938 4.504C59.8458 4.644 59.5005 4.83533 59.2578 5.078V5.372L60.8958 5.764V6.632C60.5318 6.72533 60.2658 6.87467 60.0978 7.08C59.9298 7.28533 59.8458 7.57933 59.8458 7.962V9.376ZM70.0854 6.114C70.0854 5.65667 70.0387 5.302 69.9454 5.05C69.8614 4.798 69.6887 4.60667 69.4274 4.476C69.1754 4.34533 68.7927 4.28 68.2794 4.28C67.9807 4.28 67.654 4.31267 67.2994 4.378C66.954 4.44333 66.6367 4.532 66.3474 4.644V3.692C66.6367 3.58 66.9727 3.48667 67.3554 3.412C67.738 3.33733 68.116 3.3 68.4894 3.3C69.4507 3.3 70.146 3.51467 70.5754 3.944C71.014 4.364 71.2334 5.04533 71.2334 5.988V11H70.0854V6.114ZM74.3477 3.44V8.41C74.3477 9.026 74.4831 9.474 74.7537 9.754C75.0337 10.0247 75.4817 10.16 76.0977 10.16C76.5551 10.16 76.9844 10.0667 77.3857 9.88C77.7964 9.69333 78.1511 9.44133 78.4497 9.124V3.44H79.5977V11H78.5617L78.4917 10.09C77.7171 10.79 76.7931 11.14 75.7197 11.14C74.9077 11.14 74.2824 10.9067 73.8437 10.44C73.4144 9.97333 73.1997 9.30133 73.1997 8.424V3.44H74.3477ZM82.2672 4.672V5.358H84.4372L84.3952 6.24H81.2732V4.672H82.2672ZM82.2672 8.536V9.236H84.4372L84.3952 10.104H81.2732V8.536H82.2672ZM85.9936 7.388C85.9936 7.11733 86.059 6.86067 86.1896 6.618C86.3296 6.366 86.5256 6.06733 86.7776 5.722C86.9643 5.45133 87.0996 5.246 87.1836 5.106C87.2676 4.966 87.3096 4.83067 87.3096 4.7C87.3096 4.55067 87.277 4.45267 87.2116 4.406C87.1463 4.35933 87.025 4.336 86.8476 4.336H85.8396L85.9376 3.44H87.4916C88.1356 3.44 88.4576 3.75733 88.4576 4.392C88.4576 4.68133 88.397 4.94733 88.2756 5.19C88.1636 5.42333 87.991 5.70333 87.7576 6.03C87.543 6.338 87.3843 6.59 87.2816 6.786C87.1883 6.982 87.1416 7.19667 87.1416 7.43V8.536C87.1416 9.61867 87.781 10.16 89.0596 10.16C90.357 10.16 91.0056 9.60933 91.0056 8.508V3.44H92.1536V8.396C92.1536 9.27333 91.8783 9.95 91.3276 10.426C90.7863 10.902 90.0303 11.14 89.0596 11.14C88.0703 11.14 87.3096 10.9067 86.7776 10.44C86.255 9.97333 85.9936 9.29667 85.9936 8.41V7.388ZM96.3997 4.28C95.5037 4.28 94.687 4.40133 93.9497 4.644V3.692C94.3137 3.57067 94.7337 3.47733 95.2097 3.412C95.695 3.33733 96.1897 3.3 96.6937 3.3C97.963 3.3 98.887 3.622 99.4657 4.266C100.044 4.91 100.334 5.89933 100.334 7.234C100.334 8.54067 100.044 9.52067 99.4657 10.174C98.887 10.818 97.977 11.14 96.7357 11.14C96.1944 11.14 95.667 11.0933 95.1537 11C94.6497 10.8973 94.211 10.7667 93.8377 10.608V6.8H96.6097L96.6657 7.738H94.9857V9.88C95.527 10.0667 96.101 10.16 96.7077 10.16C97.3237 10.16 97.809 10.0667 98.1637 9.88C98.5184 9.69333 98.775 9.39 98.9337 8.97C99.1017 8.54067 99.1857 7.962 99.1857 7.234C99.1857 6.478 99.097 5.89 98.9197 5.47C98.7424 5.04067 98.453 4.73733 98.0517 4.56C97.6597 4.37333 97.109 4.28 96.3997 4.28ZM104.778 3.44H105.394C106.449 3.44 107.214 3.72467 107.69 4.294C108.166 4.86333 108.404 5.75 108.404 6.954C108.404 8.37267 108.101 9.42733 107.494 10.118C106.897 10.7993 106.099 11.14 105.1 11.14C104.549 11.14 104.139 11.0887 103.868 10.986L101.74 5.806H102.86L104.652 10.16L104.932 10.174C105.725 10.174 106.309 9.91267 106.682 9.39C107.065 8.858 107.256 8.05067 107.256 6.968C107.256 6.296 107.195 5.778 107.074 5.414C106.953 5.04067 106.747 4.77467 106.458 4.616C106.178 4.45733 105.781 4.378 105.268 4.378H104.778V3.44ZM115.896 4.378C116.186 4.77 116.33 5.33467 116.33 6.072V11H115.182V7.528H112.774C112.13 7.528 111.659 7.63533 111.36 7.85C111.071 8.06467 110.926 8.41 110.926 8.886C110.926 9.35267 111.057 9.684 111.318 9.88C111.589 10.0667 112.028 10.16 112.634 10.16C112.998 10.16 113.316 10.1227 113.586 10.048V11C113.232 11.0933 112.812 11.14 112.326 11.14C111.561 11.14 110.95 10.958 110.492 10.594C110.035 10.2207 109.806 9.65133 109.806 8.886C109.806 8.158 110.049 7.59333 110.534 7.192C111.02 6.78133 111.743 6.576 112.704 6.576H115.182V5.988C115.182 5.54933 115.117 5.20867 114.986 4.966C114.856 4.72333 114.636 4.55067 114.328 4.448C114.03 4.336 113.605 4.28 113.054 4.28C112.177 4.28 111.37 4.40133 110.632 4.644V3.692C110.987 3.57067 111.398 3.47733 111.864 3.412C112.331 3.33733 112.798 3.3 113.264 3.3C113.703 3.3 114.132 3.34667 114.552 3.44H116.96L116.904 4.378H115.896ZM110.826 2.166L110.882 1.34H116.384V2.166H110.826ZM119.506 3.44V8.41C119.506 9.026 119.641 9.474 119.912 9.754C120.192 10.0247 120.64 10.16 121.256 10.16C121.713 10.16 122.143 10.0667 122.544 9.88C122.955 9.69333 123.309 9.44133 123.608 9.124V3.44H124.756V11H123.72L123.65 10.09C122.875 10.79 121.951 11.14 120.878 11.14C120.066 11.14 119.441 10.9067 119.002 10.44C118.573 9.97333 118.358 9.30133 118.358 8.424V3.44H119.506ZM131.961 11V6.016C131.961 5.40933 131.817 4.97067 131.527 4.7C131.238 4.42 130.79 4.28 130.183 4.28C129.726 4.28 129.301 4.37333 128.909 4.56C128.517 4.74667 128.167 5.00333 127.859 5.33V11H126.711V3.44H127.747L127.817 4.35C128.191 4.014 128.601 3.75733 129.049 3.58C129.497 3.39333 130.011 3.3 130.589 3.3C131.392 3.3 132.013 3.53333 132.451 4C132.89 4.46667 133.109 5.134 133.109 6.002V11H131.961ZM139.307 9.068C139.307 8.79733 139.242 8.58267 139.111 8.424C138.99 8.26533 138.822 8.13933 138.607 8.046C138.402 7.95267 138.089 7.84067 137.669 7.71L137.165 7.542C136.652 7.374 136.232 7.206 135.905 7.038C135.578 6.87 135.308 6.65067 135.093 6.38C134.888 6.1 134.785 5.75467 134.785 5.344C134.785 4.68133 135.032 4.17733 135.527 3.832C136.022 3.47733 136.75 3.3 137.711 3.3C138.103 3.3 138.5 3.33267 138.901 3.398C139.302 3.46333 139.648 3.54267 139.937 3.636V4.644C139.312 4.40133 138.626 4.28 137.879 4.28C137.198 4.28 136.703 4.35467 136.395 4.504C136.087 4.644 135.933 4.91467 135.933 5.316C135.933 5.57733 136.012 5.792 136.171 5.96C136.339 6.11867 136.549 6.24933 136.801 6.352C137.062 6.44533 137.496 6.59 138.103 6.786C138.626 6.954 139.05 7.13133 139.377 7.318C139.713 7.49533 139.974 7.724 140.161 8.004C140.357 8.284 140.455 8.634 140.455 9.054C140.455 10.4447 139.456 11.14 137.459 11.14C136.983 11.14 136.521 11.1073 136.073 11.042C135.634 10.9767 135.27 10.888 134.981 10.776V9.754C135.672 10.0247 136.432 10.16 137.263 10.16C138 10.16 138.523 10.09 138.831 9.95C139.148 9.80067 139.307 9.50667 139.307 9.068ZM138.101 0.318V1.34H141.867L141.811 2.166H137.135V0.318H138.101ZM144.583 11H143.449L141.713 3.44H142.889L144.135 9.39L145.731 4.392V3.44H146.585L148.293 9.39L149.525 3.44H150.687L148.965 11H147.817L146.263 5.68L144.583 11ZM154.435 4.28C153.567 4.28 153.133 4.658 153.133 5.414C153.133 5.81533 153.264 6.114 153.525 6.31C153.786 6.506 154.146 6.604 154.603 6.604H155.401L155.471 7.472H154.561C154.066 7.472 153.698 7.58867 153.455 7.822C153.212 8.05533 153.091 8.396 153.091 8.844C153.091 9.292 153.264 9.62333 153.609 9.838C153.964 10.0527 154.505 10.16 155.233 10.16C155.961 10.16 156.502 10.02 156.857 9.74C157.212 9.46 157.389 9.02133 157.389 8.424V3.44H158.537V8.228C158.537 9.18933 158.271 9.91733 157.739 10.412C157.207 10.8973 156.386 11.14 155.275 11.14C154.23 11.14 153.413 10.9487 152.825 10.566C152.237 10.1833 151.943 9.60933 151.943 8.844C151.943 8.41467 152.041 8.05067 152.237 7.752C152.442 7.444 152.727 7.21067 153.091 7.052C152.755 6.94933 152.484 6.758 152.279 6.478C152.083 6.198 151.985 5.84333 151.985 5.414C151.985 4.73267 152.19 4.21 152.601 3.846C153.012 3.482 153.553 3.3 154.225 3.3C154.673 3.3 155.06 3.35133 155.387 3.454V4.406C155.135 4.322 154.818 4.28 154.435 4.28ZM156.463 1.116V2.166H155.497V0.289999H159.431L159.389 1.116H156.463Z" fill="black"/>
</svg>
