<svg width="263" height="15" viewBox="0 0 263 15" fill="none" xmlns="http://www.w3.org/2000/svg">
<path d="M3.91674 6.632C3.57141 6.73467 3.33341 6.87933 3.20274 7.066C3.08141 7.25267 3.02074 7.55133 3.02074 7.962V9.46C3.02074 10.4867 2.54008 11 1.57874 11H0.710742V10.062H1.27074C1.48541 10.062 1.63941 10.0107 1.73274 9.908C1.82608 9.796 1.87274 9.62333 1.87274 9.39V7.934C1.87274 7.514 1.94274 7.16867 2.08274 6.898C2.23208 6.618 2.48874 6.41733 2.85274 6.296L1.18674 5.932V4.588C1.57874 4.21467 2.07341 3.90667 2.67074 3.664C3.27741 3.42133 3.95408 3.3 4.70074 3.3C5.81141 3.3 6.64208 3.538 7.19274 4.014C7.74341 4.48067 8.01874 5.204 8.01874 6.184V11H6.87074V6.142C6.87074 5.45133 6.70741 4.97067 6.38074 4.7C6.05408 4.42 5.49408 4.28 4.70074 4.28C4.17808 4.28 3.68808 4.35467 3.23074 4.504C2.78274 4.644 2.43741 4.83533 2.19474 5.078V5.372L3.91674 5.764V6.632ZM13.0112 6.114C13.0112 5.65667 12.9645 5.302 12.8712 5.05C12.7872 4.798 12.6145 4.60667 12.3532 4.476C12.1012 4.34533 11.7185 4.28 11.2052 4.28C10.9065 4.28 10.5798 4.31267 10.2252 4.378C9.87983 4.44333 9.5625 4.532 9.27316 4.644V3.692C9.5625 3.58 9.8985 3.48667 10.2812 3.412C10.6638 3.33733 11.0418 3.3 11.4152 3.3C12.3765 3.3 13.0718 3.51467 13.5012 3.944C13.9398 4.364 14.1592 5.04533 14.1592 5.988V11H13.0112V6.114ZM18.5755 11H17.4415L15.7055 3.44H16.8815L18.1275 9.39L19.7235 4.392V3.44H20.5775L22.2855 9.39L23.5175 3.44H24.6795L22.9575 11H21.8095L20.2555 5.68L18.5755 11ZM30.4574 9.068C30.4574 8.79733 30.392 8.58267 30.2614 8.424C30.14 8.26533 29.972 8.13933 29.7574 8.046C29.552 7.95267 29.2394 7.84067 28.8194 7.71L28.3154 7.542C27.802 7.374 27.382 7.206 27.0554 7.038C26.7287 6.87 26.458 6.65067 26.2434 6.38C26.038 6.1 25.9354 5.75467 25.9354 5.344C25.9354 4.68133 26.1827 4.17733 26.6774 3.832C27.172 3.47733 27.9 3.3 28.8614 3.3C29.2534 3.3 29.65 3.33267 30.0514 3.398C30.4527 3.46333 30.798 3.54267 31.0874 3.636V4.644C30.462 4.40133 29.776 4.28 29.0294 4.28C28.348 4.28 27.8534 4.35467 27.5454 4.504C27.2374 4.644 27.0834 4.91467 27.0834 5.316C27.0834 5.57733 27.1627 5.792 27.3214 5.96C27.4894 6.11867 27.6994 6.24933 27.9514 6.352C28.2127 6.44533 28.6467 6.59 29.2534 6.786C29.776 6.954 30.2007 7.13133 30.5274 7.318C30.8634 7.49533 31.1247 7.724 31.3114 8.004C31.5074 8.284 31.6054 8.634 31.6054 9.054C31.6054 10.4447 30.6067 11.14 28.6094 11.14C28.1334 11.14 27.6714 11.1073 27.2234 11.042C26.7847 10.9767 26.4207 10.888 26.1314 10.776V9.754C26.822 10.0247 27.5827 10.16 28.4134 10.16C29.1507 10.16 29.6734 10.09 29.9814 9.95C30.2987 9.80067 30.4574 9.50667 30.4574 9.068ZM33.0037 9.782C33.6197 10.034 34.2357 10.16 34.8517 10.16C35.533 10.16 36.065 10.062 36.4477 9.866C36.8397 9.67 37.115 9.362 37.2737 8.942C37.4324 8.51267 37.5117 7.93867 37.5117 7.22C37.5117 6.17467 37.3017 5.42333 36.8817 4.966C36.471 4.50867 35.7804 4.28 34.8097 4.28C34.1844 4.28 33.5824 4.41067 33.0037 4.672V3.692C33.601 3.43067 34.2824 3.3 35.0477 3.3C37.4557 3.3 38.6597 4.60667 38.6597 7.22C38.6597 8.51733 38.3797 9.49733 37.8197 10.16C37.2597 10.8133 36.359 11.14 35.1177 11.14C34.315 11.14 33.6104 11.0093 33.0037 10.748V9.782ZM46.7364 8.424C46.7364 9.30133 46.5124 9.97333 46.0644 10.44C45.6257 10.9067 45.0004 11.14 44.1884 11.14C43.6097 11.14 43.1011 11.0513 42.6624 10.874C42.2331 10.6967 41.8271 10.4353 41.4444 10.09L41.3744 11H40.3384V3.44H41.4864V9.124C41.7944 9.44133 42.1444 9.69333 42.5364 9.88C42.9284 10.0667 43.3531 10.16 43.8104 10.16C44.4264 10.16 44.8744 10.0247 45.1544 9.754C45.4437 9.474 45.5884 9.026 45.5884 8.41V3.44H46.7364V8.424ZM48.5659 7.388C48.5659 7.11733 48.6312 6.86067 48.7619 6.618C48.9019 6.366 49.0979 6.06733 49.3499 5.722C49.5366 5.45133 49.6719 5.246 49.7559 5.106C49.8399 4.966 49.8819 4.83067 49.8819 4.7C49.8819 4.55067 49.8492 4.45267 49.7839 4.406C49.7186 4.35933 49.5972 4.336 49.4199 4.336H48.4119L48.5099 3.44H50.0639C50.7079 3.44 51.0299 3.75733 51.0299 4.392C51.0299 4.68133 50.9692 4.94733 50.8479 5.19C50.7359 5.42333 50.5632 5.70333 50.3299 6.03C50.1152 6.338 49.9566 6.59 49.8539 6.786C49.7606 6.982 49.7139 7.19667 49.7139 7.43V8.536C49.7139 9.61867 50.3532 10.16 51.6319 10.16C52.9292 10.16 53.5779 9.60933 53.5779 8.508V3.44H54.7259V8.396C54.7259 9.27333 54.4506 9.95 53.8999 10.426C53.3586 10.902 52.6026 11.14 51.6319 11.14C50.6426 11.14 49.8819 10.9067 49.3499 10.44C48.8272 9.97333 48.5659 9.29667 48.5659 8.41V7.388ZM58.972 4.28C58.076 4.28 57.2593 4.40133 56.522 4.644V3.692C56.886 3.57067 57.306 3.47733 57.782 3.412C58.2673 3.33733 58.762 3.3 59.266 3.3C60.5353 3.3 61.4593 3.622 62.038 4.266C62.6166 4.91 62.906 5.89933 62.906 7.234C62.906 8.54067 62.6166 9.52067 62.038 10.174C61.4593 10.818 60.5493 11.14 59.308 11.14C58.7666 11.14 58.2393 11.0933 57.726 11C57.222 10.8973 56.7833 10.7667 56.41 10.608V6.8H59.182L59.238 7.738H57.558V9.88C58.0993 10.0667 58.6733 10.16 59.28 10.16C59.896 10.16 60.3813 10.0667 60.736 9.88C61.0906 9.69333 61.3473 9.39 61.506 8.97C61.674 8.54067 61.758 7.962 61.758 7.234C61.758 6.478 61.6693 5.89 61.492 5.47C61.3146 5.04067 61.0253 4.73733 60.624 4.56C60.232 4.37333 59.6813 4.28 58.972 4.28ZM67.3503 3.44H67.9663C69.021 3.44 69.7863 3.72467 70.2623 4.294C70.7383 4.86333 70.9763 5.75 70.9763 6.954C70.9763 8.37267 70.673 9.42733 70.0663 10.118C69.469 10.7993 68.671 11.14 67.6723 11.14C67.1216 11.14 66.711 11.0887 66.4403 10.986L64.3123 5.806H65.4323L67.2243 10.16L67.5043 10.174C68.2976 10.174 68.881 9.91267 69.2543 9.39C69.637 8.858 69.8283 8.05067 69.8283 6.968C69.8283 6.296 69.7676 5.778 69.6463 5.414C69.525 5.04067 69.3196 4.77467 69.0303 4.616C68.7503 4.45733 68.3536 4.378 67.8403 4.378H67.3503V3.44ZM78.4687 4.378C78.758 4.77 78.9027 5.33467 78.9027 6.072V11H77.7547V7.528H75.3467C74.7027 7.528 74.2314 7.63533 73.9327 7.85C73.6434 8.06467 73.4987 8.41 73.4987 8.886C73.4987 9.35267 73.6294 9.684 73.8907 9.88C74.1614 10.0667 74.6 10.16 75.2067 10.16C75.5707 10.16 75.888 10.1227 76.1587 10.048V11C75.804 11.0933 75.384 11.14 74.8987 11.14C74.1334 11.14 73.522 10.958 73.0647 10.594C72.6074 10.2207 72.3787 9.65133 72.3787 8.886C72.3787 8.158 72.6214 7.59333 73.1067 7.192C73.592 6.78133 74.3154 6.576 75.2767 6.576H77.7547V5.988C77.7547 5.54933 77.6894 5.20867 77.5587 4.966C77.428 4.72333 77.2087 4.55067 76.9007 4.448C76.602 4.336 76.1774 4.28 75.6267 4.28C74.7494 4.28 73.942 4.40133 73.2047 4.644V3.692C73.5594 3.57067 73.97 3.47733 74.4367 3.412C74.9034 3.33733 75.37 3.3 75.8367 3.3C76.2754 3.3 76.7047 3.34667 77.1247 3.44H79.5327L79.4767 4.378H78.4687ZM82.2462 9.376C82.2462 9.60933 82.2975 9.782 82.4002 9.894C82.5122 10.006 82.6802 10.062 82.9042 10.062H83.7022V11H82.3862C81.9849 11 81.6675 10.8787 81.4342 10.636C81.2102 10.384 81.0982 10.0573 81.0982 9.656V7.934C81.0982 7.52333 81.1869 7.178 81.3642 6.898C81.5509 6.60867 81.8402 6.408 82.2322 6.296L80.6502 5.932V4.588C81.0422 4.21467 81.5369 3.90667 82.1342 3.664C82.7409 3.42133 83.4175 3.3 84.1642 3.3C85.2749 3.3 86.1055 3.538 86.6562 4.014C87.2069 4.48067 87.4822 5.204 87.4822 6.184V11H86.3342V6.142C86.3342 5.45133 86.1709 4.97067 85.8442 4.7C85.5175 4.42 84.9575 4.28 84.1642 4.28C83.6415 4.28 83.1515 4.35467 82.6942 4.504C82.2462 4.644 81.9009 4.83533 81.6582 5.078V5.372L83.2962 5.764V6.632C82.9322 6.72533 82.6662 6.87467 82.4982 7.08C82.3302 7.28533 82.2462 7.57933 82.2462 7.962V9.376ZM81.9158 2.166L81.9718 1.34H87.4738V2.166H81.9158ZM95.2578 5.33C95.2578 4.92867 95.1971 4.65333 95.0758 4.504C94.9638 4.35467 94.7444 4.28 94.4178 4.28C93.9324 4.28 93.6011 4.49933 93.4238 4.938H92.6538C92.5138 4.69533 92.3738 4.52733 92.2338 4.434C92.0938 4.33133 91.9024 4.28 91.6598 4.28C91.1558 4.28 90.8058 4.53667 90.6098 5.05C90.4138 5.554 90.3158 6.30067 90.3158 7.29C90.3158 8.326 90.4838 9.06333 90.8198 9.502C91.1651 9.94067 91.6878 10.16 92.3878 10.16C92.8078 10.16 93.1298 10.1227 93.3538 10.048V11C93.0458 11.0933 92.6584 11.14 92.1918 11.14C91.2771 11.14 90.5444 10.8227 89.9938 10.188C89.4431 9.544 89.1678 8.578 89.1678 7.29C89.1678 6.01133 89.3684 5.02667 89.7698 4.336C90.1804 3.64533 90.7638 3.3 91.5198 3.3C91.8744 3.3 92.1684 3.36067 92.4018 3.482C92.6351 3.60333 92.8498 3.79 93.0458 4.042C93.2511 3.80867 93.5031 3.62667 93.8018 3.496C94.1098 3.36533 94.4224 3.3 94.7398 3.3C95.2811 3.3 95.6918 3.46333 95.9718 3.79C96.2611 4.10733 96.4058 4.56933 96.4058 5.176V11H95.2578V5.33ZM90.8298 2.166L90.8858 1.34H96.3878V2.166H90.8298ZM99.5098 3.44V9.376C99.5098 9.60933 99.5612 9.782 99.6638 9.894C99.7758 10.006 99.9438 10.062 100.168 10.062H100.966V11H99.6498C99.2485 11 98.9312 10.8787 98.6978 10.636C98.4738 10.384 98.3618 10.0573 98.3618 9.656V3.44H99.5098ZM103.789 5.89H106.295C106.892 5.89 107.312 5.76867 107.555 5.526C107.798 5.274 107.919 4.88667 107.919 4.364V3.44H109.067V4.35C109.067 5.42333 108.666 6.086 107.863 6.338C108.302 6.478 108.596 6.70667 108.745 7.024C108.904 7.332 108.983 7.738 108.983 8.242V11H107.835V8.382C107.835 7.98067 107.784 7.668 107.681 7.444C107.588 7.22 107.424 7.06133 107.191 6.968C106.967 6.87467 106.645 6.828 106.225 6.828H103.789V11H102.641V3.44H103.789V5.89ZM116.75 5.33C116.75 4.92867 116.689 4.65333 116.568 4.504C116.456 4.35467 116.237 4.28 115.91 4.28C115.425 4.28 115.093 4.49933 114.916 4.938H114.146C114.006 4.69533 113.866 4.52733 113.726 4.434C113.586 4.33133 113.395 4.28 113.152 4.28C112.648 4.28 112.298 4.53667 112.102 5.05C111.906 5.554 111.808 6.30067 111.808 7.29C111.808 8.326 111.976 9.06333 112.312 9.502C112.657 9.94067 113.18 10.16 113.88 10.16C114.3 10.16 114.622 10.1227 114.846 10.048V11C114.538 11.0933 114.151 11.14 113.684 11.14C112.769 11.14 112.037 10.8227 111.486 10.188C110.935 9.544 110.66 8.578 110.66 7.29C110.66 6.01133 110.861 5.02667 111.262 4.336C111.673 3.64533 112.256 3.3 113.012 3.3C113.367 3.3 113.661 3.36067 113.894 3.482C114.127 3.60333 114.342 3.79 114.538 4.042C114.743 3.80867 114.995 3.62667 115.294 3.496C115.602 3.36533 115.915 3.3 116.232 3.3C116.773 3.3 117.184 3.46333 117.464 3.79C117.753 4.10733 117.898 4.56933 117.898 5.176V11H116.75V5.33ZM117.894 11.882V14.5H116.9V12.666H115.976L116.032 11.882H117.894ZM119.728 7.388C119.728 7.11733 119.793 6.86067 119.924 6.618C120.064 6.366 120.26 6.06733 120.512 5.722C120.699 5.45133 120.834 5.246 120.918 5.106C121.002 4.966 121.044 4.83067 121.044 4.7C121.044 4.55067 121.011 4.45267 120.946 4.406C120.881 4.35933 120.759 4.336 120.582 4.336H119.574L119.672 3.44H121.226C121.87 3.44 122.192 3.75733 122.192 4.392C122.192 4.68133 122.131 4.94733 122.01 5.19C121.898 5.42333 121.725 5.70333 121.492 6.03C121.277 6.338 121.119 6.59 121.016 6.786C120.923 6.982 120.876 7.19667 120.876 7.43V8.536C120.876 9.61867 121.515 10.16 122.794 10.16C124.091 10.16 124.74 9.60933 124.74 8.508V3.44H125.888V8.396C125.888 9.27333 125.613 9.95 125.062 10.426C124.521 10.902 123.765 11.14 122.794 11.14C121.805 11.14 121.044 10.9067 120.512 10.44C119.989 9.97333 119.728 9.29667 119.728 8.41V7.388ZM123.82 0.318V1.34H127.586L127.53 2.166H122.854V0.318H123.82ZM131.352 3.3C132.136 3.3 132.785 3.44 133.298 3.72C133.821 3.99067 134.203 4.35467 134.446 4.812C134.689 5.26 134.81 5.75933 134.81 6.31V11H133.662V6.324C133.662 5.68933 133.475 5.19 133.102 4.826C132.738 4.462 132.145 4.28 131.324 4.28C130.409 4.28 129.747 4.53667 129.336 5.05C128.925 5.554 128.72 6.30067 128.72 7.29C128.72 8.326 128.888 9.06333 129.224 9.502C129.569 9.94067 130.092 10.16 130.792 10.16C131.212 10.16 131.534 10.1227 131.758 10.048V11C131.45 11.0933 131.063 11.14 130.596 11.14C129.681 11.14 128.949 10.8227 128.398 10.188C127.847 9.544 127.572 8.578 127.572 7.29C127.572 6.03 127.885 5.05 128.51 4.35C129.145 3.65 130.092 3.3 131.352 3.3ZM136.64 7.388C136.64 7.11733 136.705 6.86067 136.836 6.618C136.976 6.366 137.172 6.06733 137.424 5.722C137.611 5.45133 137.746 5.246 137.83 5.106C137.914 4.966 137.956 4.83067 137.956 4.7C137.956 4.55067 137.923 4.45267 137.858 4.406C137.793 4.35933 137.671 4.336 137.494 4.336H136.486L136.584 3.44H138.138C138.782 3.44 139.104 3.75733 139.104 4.392C139.104 4.68133 139.043 4.94733 138.922 5.19C138.81 5.42333 138.637 5.70333 138.404 6.03C138.189 6.338 138.031 6.59 137.928 6.786C137.835 6.982 137.788 7.19667 137.788 7.43V8.536C137.788 9.61867 138.427 10.16 139.706 10.16C141.003 10.16 141.652 9.60933 141.652 8.508V3.44H142.8V8.396C142.8 9.27333 142.525 9.95 141.974 10.426C141.433 10.902 140.677 11.14 139.706 11.14C138.717 11.14 137.956 10.9067 137.424 10.44C136.901 9.97333 136.64 9.29667 136.64 8.41V7.388ZM140.676 1.34H143.742L143.686 2.166H139.85V0.85H138.744V0.0239995H140.676V1.34ZM147.046 4.28C146.15 4.28 145.334 4.40133 144.596 4.644V3.692C144.96 3.57067 145.38 3.47733 145.856 3.412C146.342 3.33733 146.836 3.3 147.34 3.3C148.61 3.3 149.534 3.622 150.112 4.266C150.691 4.91 150.98 5.89933 150.98 7.234C150.98 8.54067 150.691 9.52067 150.112 10.174C149.534 10.818 148.624 11.14 147.382 11.14C146.841 11.14 146.314 11.0933 145.8 11C145.296 10.8973 144.858 10.7667 144.484 10.608V6.8H147.256L147.312 7.738H145.632V9.88C146.174 10.0667 146.748 10.16 147.354 10.16C147.97 10.16 148.456 10.0667 148.81 9.88C149.165 9.69333 149.422 9.39 149.58 8.97C149.748 8.54067 149.832 7.962 149.832 7.234C149.832 6.478 149.744 5.89 149.566 5.47C149.389 5.04067 149.1 4.73733 148.698 4.56C148.306 4.37333 147.756 4.28 147.046 4.28ZM155.425 3.44H156.041C157.095 3.44 157.861 3.72467 158.337 4.294C158.813 4.86333 159.051 5.75 159.051 6.954C159.051 8.37267 158.747 9.42733 158.141 10.118C157.543 10.7993 156.745 11.14 155.747 11.14C155.196 11.14 154.785 11.0887 154.515 10.986L152.387 5.806H153.507L155.299 10.16L155.579 10.174C156.372 10.174 156.955 9.91267 157.329 9.39C157.711 8.858 157.903 8.05067 157.903 6.968C157.903 6.296 157.842 5.778 157.721 5.414C157.599 5.04067 157.394 4.77467 157.105 4.616C156.825 4.45733 156.428 4.378 155.915 4.378H155.425V3.44ZM163.729 1.732H164.891L161.615 11H160.453L163.729 1.732ZM167.719 3.44V9.376C167.719 9.60933 167.77 9.782 167.873 9.894C167.985 10.006 168.153 10.062 168.377 10.062H169.175V11H167.859C167.457 11 167.14 10.8787 166.907 10.636C166.683 10.384 166.571 10.0573 166.571 9.656V3.44H167.719ZM176.66 4.378C176.949 4.77 177.094 5.33467 177.094 6.072V11H175.946V7.528H173.538C172.894 7.528 172.423 7.63533 172.124 7.85C171.835 8.06467 171.69 8.41 171.69 8.886C171.69 9.35267 171.821 9.684 172.082 9.88C172.353 10.0667 172.791 10.16 173.398 10.16C173.762 10.16 174.079 10.1227 174.35 10.048V11C173.995 11.0933 173.575 11.14 173.09 11.14C172.325 11.14 171.713 10.958 171.256 10.594C170.799 10.2207 170.57 9.65133 170.57 8.886C170.57 8.158 170.813 7.59333 171.298 7.192C171.783 6.78133 172.507 6.576 173.468 6.576H175.946V5.988C175.946 5.54933 175.881 5.20867 175.75 4.966C175.619 4.72333 175.4 4.55067 175.092 4.448C174.793 4.336 174.369 4.28 173.818 4.28C172.941 4.28 172.133 4.40133 171.396 4.644V3.692C171.751 3.57067 172.161 3.47733 172.628 3.412C173.095 3.33733 173.561 3.3 174.028 3.3C174.467 3.3 174.896 3.34667 175.316 3.44H177.724L177.668 4.378H176.66ZM176.182 0.149999H177.148V2.166H171.59L171.646 1.34H176.182V0.149999ZM181.334 4.28C180.466 4.28 180.032 4.658 180.032 5.414C180.032 5.81533 180.162 6.114 180.424 6.31C180.685 6.506 181.044 6.604 181.502 6.604H182.3L182.37 7.472H181.46C180.965 7.472 180.596 7.58867 180.354 7.822C180.111 8.05533 179.99 8.396 179.99 8.844C179.99 9.292 180.162 9.62333 180.508 9.838C180.862 10.0527 181.404 10.16 182.132 10.16C182.86 10.16 183.401 10.02 183.756 9.74C184.11 9.46 184.288 9.02133 184.288 8.424V3.44H185.436V8.228C185.436 9.18933 185.17 9.91733 184.638 10.412C184.106 10.8973 183.284 11.14 182.174 11.14C181.128 11.14 180.312 10.9487 179.724 10.566C179.136 10.1833 178.842 9.60933 178.842 8.844C178.842 8.41467 178.94 8.05067 179.136 7.752C179.341 7.444 179.626 7.21067 179.99 7.052C179.654 6.94933 179.383 6.758 179.178 6.478C178.982 6.198 178.884 5.84333 178.884 5.414C178.884 4.73267 179.089 4.21 179.5 3.846C179.91 3.482 180.452 3.3 181.124 3.3C181.572 3.3 181.959 3.35133 182.286 3.454V4.406C182.034 4.322 181.716 4.28 181.334 4.28ZM188.541 5.89H191.047C191.644 5.89 192.064 5.76867 192.307 5.526C192.55 5.274 192.671 4.88667 192.671 4.364V3.44H193.819V4.35C193.819 5.42333 193.418 6.086 192.615 6.338C193.054 6.478 193.348 6.70667 193.497 7.024C193.656 7.332 193.735 7.738 193.735 8.242V11H192.587V8.382C192.587 7.98067 192.536 7.668 192.433 7.444C192.34 7.22 192.176 7.06133 191.943 6.968C191.719 6.87467 191.397 6.828 190.977 6.828H188.541V11H187.393V3.44H188.541V5.89ZM198.73 6.114C198.73 5.65667 198.683 5.302 198.59 5.05C198.506 4.798 198.333 4.60667 198.072 4.476C197.82 4.34533 197.437 4.28 196.924 4.28C196.625 4.28 196.299 4.31267 195.944 4.378C195.599 4.44333 195.281 4.532 194.992 4.644V3.692C195.281 3.58 195.617 3.48667 196 3.412C196.383 3.33733 196.761 3.3 197.134 3.3C198.095 3.3 198.791 3.51467 199.22 3.944C199.659 4.364 199.878 5.04533 199.878 5.988V11H198.73V6.114ZM204.056 4.28C203.188 4.28 202.754 4.658 202.754 5.414C202.754 5.81533 202.885 6.114 203.146 6.31C203.408 6.506 203.767 6.604 204.224 6.604H205.022L205.092 7.472H204.182C203.688 7.472 203.319 7.58867 203.076 7.822C202.834 8.05533 202.712 8.396 202.712 8.844C202.712 9.292 202.885 9.62333 203.23 9.838C203.585 10.0527 204.126 10.16 204.854 10.16C205.582 10.16 206.124 10.02 206.478 9.74C206.833 9.46 207.01 9.02133 207.01 8.424V3.44H208.158V8.228C208.158 9.18933 207.892 9.91733 207.36 10.412C206.828 10.8973 206.007 11.14 204.896 11.14C203.851 11.14 203.034 10.9487 202.446 10.566C201.858 10.1833 201.564 9.60933 201.564 8.844C201.564 8.41467 201.662 8.05067 201.858 7.752C202.064 7.444 202.348 7.21067 202.712 7.052C202.376 6.94933 202.106 6.758 201.9 6.478C201.704 6.198 201.606 5.84333 201.606 5.414C201.606 4.73267 201.812 4.21 202.222 3.846C202.633 3.482 203.174 3.3 203.846 3.3C204.294 3.3 204.682 3.35133 205.008 3.454V4.406C204.756 4.322 204.439 4.28 204.056 4.28ZM220.432 7.696H215.154V6.786H220.432V7.696ZM233.234 4.378C233.524 4.77 233.668 5.33467 233.668 6.072V11H232.52V7.528H230.112C229.468 7.528 228.997 7.63533 228.698 7.85C228.409 8.06467 228.264 8.41 228.264 8.886C228.264 9.35267 228.395 9.684 228.656 9.88C228.927 10.0667 229.366 10.16 229.972 10.16C230.336 10.16 230.654 10.1227 230.924 10.048V11C230.57 11.0933 230.15 11.14 229.664 11.14C228.899 11.14 228.288 10.958 227.83 10.594C227.373 10.2207 227.144 9.65133 227.144 8.886C227.144 8.158 227.387 7.59333 227.872 7.192C228.358 6.78133 229.081 6.576 230.042 6.576H232.52V5.988C232.52 5.54933 232.455 5.20867 232.324 4.966C232.194 4.72333 231.974 4.55067 231.666 4.448C231.368 4.336 230.943 4.28 230.392 4.28C229.515 4.28 228.708 4.40133 227.97 4.644V3.692C228.325 3.57067 228.736 3.47733 229.202 3.412C229.669 3.33733 230.136 3.3 230.602 3.3C231.041 3.3 231.47 3.34667 231.89 3.44H234.298L234.242 4.378H233.234ZM241.506 4.378C241.795 4.77 241.94 5.33467 241.94 6.072V11H240.792V7.528H238.384C237.74 7.528 237.268 7.63533 236.97 7.85C236.68 8.06467 236.536 8.41 236.536 8.886C236.536 9.35267 236.666 9.684 236.928 9.88C237.198 10.0667 237.637 10.16 238.244 10.16C238.608 10.16 238.925 10.1227 239.196 10.048V11C238.841 11.0933 238.421 11.14 237.936 11.14C237.17 11.14 236.559 10.958 236.102 10.594C235.644 10.2207 235.416 9.65133 235.416 8.886C235.416 8.158 235.658 7.59333 236.144 7.192C236.629 6.78133 237.352 6.576 238.314 6.576H240.792V5.988C240.792 5.54933 240.726 5.20867 240.596 4.966C240.465 4.72333 240.246 4.55067 239.938 4.448C239.639 4.336 239.214 4.28 238.664 4.28C237.786 4.28 236.979 4.40133 236.242 4.644V3.692C236.596 3.57067 237.007 3.47733 237.474 3.412C237.94 3.33733 238.407 3.3 238.874 3.3C239.312 3.3 239.742 3.34667 240.162 3.44H242.57L242.514 4.378H241.506ZM243.687 10.034H244.723V11H243.687V10.034ZM247.549 2.964L246.121 3.216V2.25L248.697 1.844V11H247.549V2.964ZM254.209 11.14C251.652 11.14 250.373 9.628 250.373 6.604C250.373 5.02667 250.667 3.84133 251.255 3.048C251.852 2.24533 252.837 1.844 254.209 1.844C255.572 1.844 256.547 2.24533 257.135 3.048C257.732 3.84133 258.031 5.02667 258.031 6.604C258.031 9.628 256.757 11.14 254.209 11.14ZM254.209 10.16C255.152 10.16 255.833 9.852 256.253 9.236C256.673 8.62 256.883 7.74267 256.883 6.604C256.883 5.33467 256.678 4.38733 256.267 3.762C255.866 3.13667 255.18 2.824 254.209 2.824C253.229 2.824 252.534 3.13667 252.123 3.762C251.722 4.378 251.521 5.32533 251.521 6.604C251.521 7.73333 251.731 8.61067 252.151 9.236C252.58 9.852 253.266 10.16 254.209 10.16ZM260.865 2.964L259.437 3.216V2.25L262.013 1.844V11H260.865V2.964Z" fill="black"/>
</svg>
