<svg width="212" height="13" viewBox="0 0 212 13" fill="none" xmlns="http://www.w3.org/2000/svg">
<path d="M4.71809 10.068C4.71809 9.79733 4.65276 9.58267 4.52209 9.424C4.40076 9.26533 4.23276 9.13933 4.01809 9.046C3.81276 8.95267 3.50009 8.84067 3.08009 8.71L2.57609 8.542C2.06276 8.374 1.64276 8.206 1.31609 8.038C0.989427 7.87 0.71876 7.65067 0.504094 7.38C0.29876 7.1 0.196094 6.75467 0.196094 6.344C0.196094 5.68133 0.443427 5.17733 0.938094 4.832C1.43276 4.47733 2.16076 4.3 3.12209 4.3C3.51409 4.3 3.91076 4.33267 4.31209 4.398C4.71343 4.46333 5.05876 4.54267 5.34809 4.636V5.644C4.72276 5.40133 4.03676 5.28 3.29009 5.28C2.60876 5.28 2.11409 5.35467 1.80609 5.504C1.49809 5.644 1.34409 5.91467 1.34409 6.316C1.34409 6.57733 1.42343 6.792 1.58209 6.96C1.75009 7.11867 1.96009 7.24933 2.21209 7.352C2.47343 7.44533 2.90743 7.59 3.51409 7.786C4.03676 7.954 4.46143 8.13133 4.78809 8.318C5.12409 8.49533 5.38543 8.724 5.57209 9.004C5.76809 9.284 5.86609 9.634 5.86609 10.054C5.86609 11.4447 4.86743 12.14 2.87009 12.14C2.39409 12.14 1.93209 12.1073 1.48409 12.042C1.04543 11.9767 0.681427 11.888 0.392094 11.776V10.754C1.08276 11.0247 1.84343 11.16 2.67409 11.16C3.41143 11.16 3.93409 11.09 4.24209 10.95C4.55943 10.8007 4.71809 10.5067 4.71809 10.068ZM8.25845 5.672V6.358H10.4285L10.3865 7.24H7.26445V5.672H8.25845ZM8.25845 9.536V10.236H10.4285L10.3865 11.104H7.26445V9.536H8.25845ZM15.4289 11.16C16.1475 11.16 16.6889 11.006 17.0529 10.698C17.4169 10.39 17.5989 9.9 17.5989 9.228V4.44H18.7469V9.144C18.7469 10.1333 18.4622 10.88 17.8929 11.384C17.3235 11.888 16.5022 12.14 15.4289 12.14C14.3555 12.14 13.5342 11.888 12.9649 11.384C12.3955 10.88 12.1109 10.1333 12.1109 9.144V4.44H13.2589V9.228C13.2589 9.9 13.4409 10.39 13.8049 10.698C14.1689 11.006 14.7102 11.16 15.4289 11.16ZM24.0285 11.16C24.7471 11.16 25.2885 11.006 25.6525 10.698C26.0165 10.39 26.1985 9.9 26.1985 9.228V4.44H27.3465V9.144C27.3465 10.1333 27.0618 10.88 26.4925 11.384C25.9231 11.888 25.1018 12.14 24.0285 12.14C22.9551 12.14 22.1338 11.888 21.5645 11.384C20.9951 10.88 20.7105 10.1333 20.7105 9.144V4.44H21.8585V9.228C21.8585 9.9 22.0405 10.39 22.4045 10.698C22.7685 11.006 23.3098 11.16 24.0285 11.16ZM29.0301 10.782C29.6461 11.034 30.2621 11.16 30.8781 11.16C31.5594 11.16 32.0914 11.062 32.4741 10.866C32.8661 10.67 33.1414 10.362 33.3001 9.942C33.4587 9.51267 33.5381 8.93867 33.5381 8.22C33.5381 7.17467 33.3281 6.42333 32.9081 5.966C32.4974 5.50867 31.8067 5.28 30.8361 5.28C30.2107 5.28 29.6087 5.41067 29.0301 5.672V4.692C29.6274 4.43067 30.3087 4.3 31.0741 4.3C33.4821 4.3 34.6861 5.60667 34.6861 8.22C34.6861 9.51733 34.4061 10.4973 33.8461 11.16C33.2861 11.8133 32.3854 12.14 31.1441 12.14C30.3414 12.14 29.6367 12.0093 29.0301 11.748V10.782ZM28.8328 3.166L28.8888 2.34H34.3908V3.166H28.8328ZM37.5128 4.44V10.376C37.5128 10.6093 37.5641 10.782 37.6668 10.894C37.7788 11.006 37.9468 11.062 38.1708 11.062H38.9688V12H37.6528C37.2514 12 36.9341 11.8787 36.7008 11.636C36.4768 11.384 36.3648 11.0573 36.3648 10.656V4.44H37.5128ZM43.9201 5.28C43.2014 5.28 42.6647 5.41533 42.3101 5.686C41.9647 5.95667 41.7921 6.386 41.7921 6.974V8.724C42.2307 8.34133 42.7721 8.15 43.4161 8.15H44.3401L44.3961 9.088H43.3881C42.7534 9.088 42.2214 9.27 41.7921 9.634V12H40.6441V7.1C40.6441 5.23333 41.7361 4.3 43.9201 4.3C46.0854 4.3 47.1681 5.23333 47.1681 7.1V12H46.0201V6.974C46.0201 6.386 45.8427 5.95667 45.4881 5.686C45.1427 5.41533 44.6201 5.28 43.9201 5.28ZM53.3763 10.068C53.3763 9.79733 53.311 9.58267 53.1803 9.424C53.059 9.26533 52.891 9.13933 52.6763 9.046C52.471 8.95267 52.1583 8.84067 51.7383 8.71L51.2343 8.542C50.721 8.374 50.301 8.206 49.9743 8.038C49.6476 7.87 49.377 7.65067 49.1623 7.38C48.957 7.1 48.8543 6.75467 48.8543 6.344C48.8543 5.68133 49.1016 5.17733 49.5963 4.832C50.091 4.47733 50.819 4.3 51.7803 4.3C52.1723 4.3 52.569 4.33267 52.9703 4.398C53.3716 4.46333 53.717 4.54267 54.0063 4.636V5.644C53.381 5.40133 52.695 5.28 51.9483 5.28C51.267 5.28 50.7723 5.35467 50.4643 5.504C50.1563 5.644 50.0023 5.91467 50.0023 6.316C50.0023 6.57733 50.0816 6.792 50.2403 6.96C50.4083 7.11867 50.6183 7.24933 50.8703 7.352C51.1316 7.44533 51.5656 7.59 52.1723 7.786C52.695 7.954 53.1196 8.13133 53.4463 8.318C53.7823 8.49533 54.0436 8.724 54.2303 9.004C54.4263 9.284 54.5243 9.634 54.5243 10.054C54.5243 11.4447 53.5256 12.14 51.5283 12.14C51.0523 12.14 50.5903 12.1073 50.1423 12.042C49.7036 11.9767 49.3396 11.888 49.0503 11.776V10.754C49.741 11.0247 50.5016 11.16 51.3323 11.16C52.0696 11.16 52.5923 11.09 52.9003 10.95C53.2176 10.8007 53.3763 10.5067 53.3763 10.068ZM59.2407 7.114C59.2407 6.65667 59.194 6.302 59.1007 6.05C59.0167 5.798 58.844 5.60667 58.5827 5.476C58.3307 5.34533 57.948 5.28 57.4347 5.28C57.136 5.28 56.8093 5.31267 56.4547 5.378C56.1093 5.44333 55.792 5.532 55.5027 5.644V4.692C55.792 4.58 56.128 4.48667 56.5107 4.412C56.8933 4.33733 57.2713 4.3 57.6447 4.3C58.606 4.3 59.3013 4.51467 59.7307 4.944C60.1693 5.364 60.3887 6.04533 60.3887 6.988V12H59.2407V7.114ZM63.069 5.672V6.358H65.239L65.197 7.24H62.075V5.672H63.069ZM63.069 9.536V10.236H65.239L65.197 11.104H62.075V9.536H63.069ZM68.0694 6.89H70.5754C71.1727 6.89 71.5927 6.76867 71.8354 6.526C72.0781 6.274 72.1994 5.88667 72.1994 5.364V4.44H73.3474V5.35C73.3474 6.42333 72.9461 7.086 72.1434 7.338C72.5821 7.478 72.8761 7.70667 73.0254 8.024C73.1841 8.332 73.2634 8.738 73.2634 9.242V12H72.1154V9.382C72.1154 8.98067 72.0641 8.668 71.9614 8.444C71.8681 8.22 71.7047 8.06133 71.4714 7.968C71.2474 7.87467 70.9254 7.828 70.5054 7.828H68.0694V12H66.9214V4.44H68.0694V6.89ZM71.1882 2.116V3.166H70.2222V1.29H74.1562L74.1142 2.116H71.1882ZM77.5862 7.632C77.2222 7.72533 76.9562 7.87467 76.7882 8.08C76.6202 8.28533 76.5362 8.57933 76.5362 8.962V12H75.3882V8.934C75.3882 8.52333 75.4769 8.178 75.6542 7.898C75.8409 7.60867 76.1302 7.408 76.5222 7.296L74.9402 6.932V5.588C75.3322 5.21467 75.8269 4.90667 76.4242 4.664C77.0309 4.42133 77.7076 4.3 78.4542 4.3C79.5649 4.3 80.3956 4.538 80.9462 5.014C81.4969 5.48067 81.7722 6.204 81.7722 7.184V12H80.6242V7.142C80.6242 6.45133 80.4609 5.97067 80.1342 5.7C79.8076 5.42 79.2476 5.28 78.4542 5.28C77.9316 5.28 77.4416 5.35467 76.9842 5.504C76.5362 5.644 76.1909 5.83533 75.9482 6.078V6.372L77.5862 6.764V7.632ZM86.7758 7.114C86.7758 6.65667 86.7291 6.302 86.6358 6.05C86.5518 5.798 86.3791 5.60667 86.1178 5.476C85.8658 5.34533 85.4831 5.28 84.9698 5.28C84.6711 5.28 84.3445 5.31267 83.9898 5.378C83.6445 5.44333 83.3271 5.532 83.0378 5.644V4.692C83.3271 4.58 83.6631 4.48667 84.0458 4.412C84.4285 4.33733 84.8065 4.3 85.1798 4.3C86.1411 4.3 86.8365 4.51467 87.2658 4.944C87.7045 5.364 87.9238 6.04533 87.9238 6.988V12H86.7758V7.114ZM94.1322 10.068C94.1322 9.79733 94.0668 9.58267 93.9362 9.424C93.8148 9.26533 93.6468 9.13933 93.4322 9.046C93.2268 8.95267 92.9142 8.84067 92.4942 8.71L91.9902 8.542C91.4768 8.374 91.0568 8.206 90.7302 8.038C90.4035 7.87 90.1328 7.65067 89.9182 7.38C89.7128 7.1 89.6102 6.75467 89.6102 6.344C89.6102 5.68133 89.8575 5.17733 90.3522 4.832C90.8468 4.47733 91.5748 4.3 92.5362 4.3C92.9282 4.3 93.3248 4.33267 93.7262 4.398C94.1275 4.46333 94.4728 4.54267 94.7622 4.636V5.644C94.1368 5.40133 93.4508 5.28 92.7042 5.28C92.0228 5.28 91.5282 5.35467 91.2202 5.504C90.9122 5.644 90.7582 5.91467 90.7582 6.316C90.7582 6.57733 90.8375 6.792 90.9962 6.96C91.1642 7.11867 91.3742 7.24933 91.6262 7.352C91.8875 7.44533 92.3215 7.59 92.9282 7.786C93.4508 7.954 93.8755 8.13133 94.2022 8.318C94.5382 8.49533 94.7995 8.724 94.9862 9.004C95.1822 9.284 95.2802 9.634 95.2802 10.054C95.2802 11.4447 94.2815 12.14 92.2842 12.14C91.8082 12.14 91.3462 12.1073 90.8982 12.042C90.4595 11.9767 90.0955 11.888 89.8062 11.776V10.754C90.4968 11.0247 91.2575 11.16 92.0882 11.16C92.8255 11.16 93.3482 11.09 93.6562 10.95C93.9735 10.8007 94.1322 10.5067 94.1322 10.068ZM96.6785 10.782C97.2945 11.034 97.9105 11.16 98.5265 11.16C99.2078 11.16 99.7398 11.062 100.123 10.866C100.515 10.67 100.79 10.362 100.949 9.942C101.107 9.51267 101.187 8.93867 101.187 8.22C101.187 7.17467 100.977 6.42333 100.557 5.966C100.146 5.50867 99.4552 5.28 98.4845 5.28C97.8592 5.28 97.2572 5.41067 96.6785 5.672V4.692C97.2758 4.43067 97.9572 4.3 98.7225 4.3C101.131 4.3 102.335 5.60667 102.335 8.22C102.335 9.51733 102.055 10.4973 101.495 11.16C100.935 11.8133 100.034 12.14 98.7925 12.14C97.9898 12.14 97.2852 12.0093 96.6785 11.748V10.782ZM107.051 7.114C107.051 6.65667 107.005 6.302 106.911 6.05C106.827 5.798 106.655 5.60667 106.393 5.476C106.141 5.34533 105.759 5.28 105.245 5.28C104.947 5.28 104.62 5.31267 104.265 5.378C103.92 5.44333 103.603 5.532 103.313 5.644V4.692C103.603 4.58 103.939 4.48667 104.321 4.412C104.704 4.33733 105.082 4.3 105.455 4.3C106.417 4.3 107.112 4.51467 107.541 4.944C107.98 5.364 108.199 6.04533 108.199 6.988V12H107.051V7.114ZM112.924 4.44H113.54C114.594 4.44 115.36 4.72467 115.836 5.294C116.312 5.86333 116.55 6.75 116.55 7.954C116.55 9.37267 116.246 10.4273 115.64 11.118C115.042 11.7993 114.244 12.14 113.246 12.14C112.695 12.14 112.284 12.0887 112.014 11.986L109.886 6.806H111.006L112.798 11.16L113.078 11.174C113.871 11.174 114.454 10.9127 114.828 10.39C115.21 9.858 115.402 9.05067 115.402 7.968C115.402 7.296 115.341 6.778 115.22 6.414C115.098 6.04067 114.893 5.77467 114.604 5.616C114.324 5.45733 113.927 5.378 113.414 5.378H112.924V4.44ZM119.38 4.44V10.376C119.38 10.6093 119.431 10.782 119.534 10.894C119.646 11.006 119.814 11.062 120.038 11.062H120.696V12H119.52C119.119 12 118.801 11.8787 118.568 11.636C118.344 11.384 118.232 11.0573 118.232 10.656V4.44H119.38ZM122.586 4.44V10.376C122.586 10.6093 122.637 10.782 122.74 10.894C122.852 11.006 123.02 11.062 123.244 11.062H123.902V12H122.726C122.325 12 122.007 11.8787 121.774 11.636C121.55 11.384 121.438 11.0573 121.438 10.656V4.44H122.586ZM125.587 5.826C125.587 5.42467 125.709 5.09333 125.951 4.832C126.194 4.57067 126.516 4.44 126.917 4.44H128.121L128.163 5.392H127.421C127.169 5.392 126.987 5.448 126.875 5.56C126.773 5.672 126.721 5.86333 126.721 6.134V10.404L128.835 6.75H129.381L131.495 10.404V4.44H132.615V12H131.439L129.115 7.926L126.763 12H125.587V5.826ZM135.718 4.44V9.41C135.718 10.026 135.853 10.474 136.124 10.754C136.404 11.0247 136.852 11.16 137.468 11.16C137.925 11.16 138.355 11.0667 138.756 10.88C139.167 10.6933 139.521 10.4413 139.82 10.124V4.44H140.968V12H139.932L139.862 11.09C139.087 11.79 138.163 12.14 137.09 12.14C136.278 12.14 135.653 11.9067 135.214 11.44C134.785 10.9733 134.57 10.3013 134.57 9.424V4.44H135.718ZM148.733 5.378C149.023 5.77 149.167 6.33467 149.167 7.072V12H148.019V8.528H145.611C144.967 8.528 144.496 8.63533 144.197 8.85C143.908 9.06467 143.763 9.41 143.763 9.886C143.763 10.3527 143.894 10.684 144.155 10.88C144.426 11.0667 144.865 11.16 145.471 11.16C145.835 11.16 146.153 11.1227 146.423 11.048V12C146.069 12.0933 145.649 12.14 145.163 12.14C144.398 12.14 143.787 11.958 143.329 11.594C142.872 11.2207 142.643 10.6513 142.643 9.886C142.643 9.158 142.886 8.59333 143.371 8.192C143.857 7.78133 144.58 7.576 145.541 7.576H148.019V6.988C148.019 6.54933 147.954 6.20867 147.823 5.966C147.693 5.72333 147.473 5.55067 147.165 5.448C146.867 5.336 146.442 5.28 145.891 5.28C145.014 5.28 144.207 5.40133 143.469 5.644V4.692C143.824 4.57067 144.235 4.47733 144.701 4.412C145.168 4.33733 145.635 4.3 146.101 4.3C146.54 4.3 146.969 4.34667 147.389 4.44H149.797L149.741 5.378H148.733ZM147.177 2.046C147.177 1.64467 147.322 1.30867 147.611 1.038C147.891 0.758 148.236 0.618 148.647 0.618C149.058 0.618 149.403 0.758 149.683 1.038C149.963 1.30867 150.103 1.64467 150.103 2.046C150.103 2.44733 149.963 2.78333 149.683 3.054C149.403 3.32467 149.058 3.46 148.647 3.46C148.236 3.46 147.891 3.32467 147.611 3.054C147.322 2.78333 147.177 2.44733 147.177 2.046ZM147.947 2.046C147.947 2.23267 148.017 2.396 148.157 2.536C148.288 2.66667 148.451 2.732 148.647 2.732C148.834 2.732 148.997 2.66667 149.137 2.536C149.268 2.396 149.333 2.23267 149.333 2.046C149.333 1.85933 149.268 1.696 149.137 1.556C148.997 1.416 148.834 1.346 148.647 1.346C148.451 1.346 148.288 1.416 148.157 1.556C148.017 1.696 147.947 1.85933 147.947 2.046ZM154.233 7.114C154.233 6.65667 154.186 6.302 154.093 6.05C154.009 5.798 153.836 5.60667 153.575 5.476C153.323 5.34533 152.94 5.28 152.427 5.28C152.128 5.28 151.802 5.31267 151.447 5.378C151.102 5.44333 150.784 5.532 150.495 5.644V4.692C150.784 4.58 151.12 4.48667 151.503 4.412C151.886 4.33733 152.264 4.3 152.637 4.3C153.598 4.3 154.294 4.51467 154.723 4.944C155.162 5.364 155.381 6.04533 155.381 6.988V12H154.233V7.114ZM161.589 10.068C161.589 9.79733 161.524 9.58267 161.393 9.424C161.272 9.26533 161.104 9.13933 160.889 9.046C160.684 8.95267 160.371 8.84067 159.951 8.71L159.447 8.542C158.934 8.374 158.514 8.206 158.187 8.038C157.861 7.87 157.59 7.65067 157.375 7.38C157.17 7.1 157.067 6.75467 157.067 6.344C157.067 5.68133 157.315 5.17733 157.809 4.832C158.304 4.47733 159.032 4.3 159.993 4.3C160.385 4.3 160.782 4.33267 161.183 4.398C161.585 4.46333 161.93 4.54267 162.219 4.636V5.644C161.594 5.40133 160.908 5.28 160.161 5.28C159.48 5.28 158.985 5.35467 158.677 5.504C158.369 5.644 158.215 5.91467 158.215 6.316C158.215 6.57733 158.295 6.792 158.453 6.96C158.621 7.11867 158.831 7.24933 159.083 7.352C159.345 7.44533 159.779 7.59 160.385 7.786C160.908 7.954 161.333 8.13133 161.659 8.318C161.995 8.49533 162.257 8.724 162.443 9.004C162.639 9.284 162.737 9.634 162.737 10.054C162.737 11.4447 161.739 12.14 159.741 12.14C159.265 12.14 158.803 12.1073 158.355 12.042C157.917 11.9767 157.553 11.888 157.263 11.776V10.754C157.954 11.0247 158.715 11.16 159.545 11.16C160.283 11.16 160.805 11.09 161.113 10.95C161.431 10.8007 161.589 10.5067 161.589 10.068ZM166.698 5.28C165.802 5.28 164.985 5.40133 164.248 5.644V4.692C164.612 4.57067 165.032 4.47733 165.508 4.412C165.993 4.33733 166.488 4.3 166.992 4.3C168.261 4.3 169.185 4.622 169.764 5.266C170.342 5.91 170.632 6.89933 170.632 8.234C170.632 9.54067 170.342 10.5207 169.764 11.174C169.185 11.818 168.275 12.14 167.034 12.14C166.492 12.14 165.965 12.0933 165.452 12C164.948 11.8973 164.509 11.7667 164.136 11.608V7.8H166.908L166.964 8.738H165.284V10.88C165.825 11.0667 166.399 11.16 167.006 11.16C167.622 11.16 168.107 11.0667 168.462 10.88C168.816 10.6933 169.073 10.39 169.232 9.97C169.4 9.54067 169.484 8.962 169.484 8.234C169.484 7.478 169.395 6.89 169.218 6.47C169.04 6.04067 168.751 5.73733 168.35 5.56C167.958 5.37333 167.407 5.28 166.698 5.28ZM175.076 4.44H175.692C176.747 4.44 177.512 4.72467 177.988 5.294C178.464 5.86333 178.702 6.75 178.702 7.954C178.702 9.37267 178.399 10.4273 177.792 11.118C177.195 11.7993 176.397 12.14 175.398 12.14C174.847 12.14 174.437 12.0887 174.166 11.986L172.038 6.806H173.158L174.95 11.16L175.23 11.174C176.023 11.174 176.607 10.9127 176.98 10.39C177.363 9.858 177.554 9.05067 177.554 7.968C177.554 7.296 177.493 6.778 177.372 6.414C177.251 6.04067 177.045 5.77467 176.756 5.616C176.476 5.45733 176.079 5.378 175.566 5.378H175.076V4.44ZM182.666 5.28C181.77 5.28 180.954 5.40133 180.216 5.644V4.692C180.58 4.57067 181 4.47733 181.476 4.412C181.962 4.33733 182.456 4.3 182.96 4.3C184.23 4.3 185.154 4.622 185.732 5.266C186.311 5.91 186.6 6.89933 186.6 8.234C186.6 9.54067 186.311 10.5207 185.732 11.174C185.154 11.818 184.244 12.14 183.002 12.14C182.461 12.14 181.934 12.0933 181.42 12C180.916 11.8973 180.478 11.7667 180.104 11.608V7.8H182.876L182.932 8.738H181.252V10.88C181.794 11.0667 182.368 11.16 182.974 11.16C183.59 11.16 184.076 11.0667 184.43 10.88C184.785 10.6933 185.042 10.39 185.2 9.97C185.368 9.54067 185.452 8.962 185.452 8.234C185.452 7.478 185.364 6.89 185.186 6.47C185.009 6.04067 184.72 5.73733 184.318 5.56C183.926 5.37333 183.376 5.28 182.666 5.28ZM189.001 5.672V6.358H191.171L191.129 7.24H188.007V5.672H189.001ZM189.001 9.536V10.236H191.171L191.129 11.104H188.007V9.536H189.001ZM193.091 5.602C193.091 5.042 193.198 4.56133 193.413 4.16C193.628 3.75867 193.926 3.44133 194.309 3.208H191.943V2.284H195.723V3.194C195.163 3.43667 194.776 3.768 194.561 4.188C194.346 4.608 194.239 5.20533 194.239 5.98V10.376C194.239 10.6093 194.29 10.782 194.393 10.894C194.505 11.006 194.673 11.062 194.897 11.062H195.695V12H194.379C193.978 12 193.66 11.8787 193.427 11.636C193.203 11.384 193.091 11.0573 193.091 10.656V5.602ZM198.13 6.89H200.636C201.233 6.89 201.653 6.76867 201.896 6.526C202.139 6.274 202.26 5.88667 202.26 5.364V4.44H203.408V5.35C203.408 6.42333 203.007 7.086 202.204 7.338C202.643 7.478 202.937 7.70667 203.086 8.024C203.245 8.332 203.324 8.738 203.324 9.242V12H202.176V9.382C202.176 8.98067 202.125 8.668 202.022 8.444C201.929 8.22 201.765 8.06133 201.532 7.968C201.308 7.87467 200.986 7.828 200.566 7.828H198.13V12H196.982V4.44H198.13V6.89ZM208.249 5.28C207.371 5.28 206.564 5.40133 205.827 5.644V4.692C206.181 4.57067 206.592 4.47733 207.059 4.412C207.525 4.33733 207.992 4.3 208.459 4.3C209.523 4.3 210.297 4.524 210.783 4.972C211.277 5.41067 211.525 6.11067 211.525 7.072V12H210.377V8.528H207.969C207.325 8.528 206.853 8.63533 206.555 8.85C206.265 9.06467 206.121 9.41 206.121 9.886C206.121 10.3527 206.251 10.684 206.513 10.88C206.783 11.0667 207.222 11.16 207.829 11.16C208.193 11.16 208.51 11.1227 208.781 11.048V12C208.426 12.0933 208.006 12.14 207.521 12.14C206.755 12.14 206.144 11.958 205.687 11.594C205.229 11.2207 205.001 10.6513 205.001 9.886C205.001 9.158 205.243 8.59333 205.729 8.192C206.214 7.78133 206.937 7.576 207.899 7.576H210.377V6.988C210.377 6.54933 210.311 6.20867 210.181 5.966C210.05 5.72333 209.831 5.55067 209.523 5.448C209.224 5.336 208.799 5.28 208.249 5.28ZM210.39 3.166V0.897999H211.538V3.166H210.39Z" fill="black"/>
</svg>
