<svg xmlns="http://www.w3.org/2000/svg" viewBox="0 0 68.63 98.85"><defs><style>.cls-1{fill:none;}.cls-2{fill:#ecf2d4;}.cls-3,.cls-6,.cls-7{fill:#aecc36;}.cls-4,.cls-5{fill:#cddd87;}.cls-5{stroke:#cddd87;}.cls-5,.cls-6{stroke-miterlimit:10;}.cls-6{stroke:#aecc36;}.cls-7{font-size:12.28px;font-family:Anakotmai-Medium, Anakotmai;font-weight:500;}</style></defs><title>three-one-new</title><g id="Layer_2" data-name="Layer 2"><g id="Layer_1_copy_4" data-name="Layer 1 copy 4"><g id="_02" data-name="02"><path class="cls-1" d="M47.38,12.66H21.25A3.68,3.68,0,0,0,18,14.73H50.69A3.71,3.71,0,0,0,47.38,12.66Z"/><path class="cls-2" d="M52.49,14.73a5.15,5.15,0,0,1,.26,1.63V20.9a.83.83,0,0,1-.83.83H16.72a.83.83,0,0,1-.83-.83V16.36a5.45,5.45,0,0,1,.25-1.63H1.29V97.88H67.34V14.73Z"/><path class="cls-3" d="M0,47.73V14.44a.84.84,0,0,1,.83-.84H17.08a.84.84,0,0,1,.75,1.19,3.63,3.63,0,0,0-.34,1.57v3.7H51v-3.7a3.71,3.71,0,0,0-.35-1.57.79.79,0,0,1,0-.8.82.82,0,0,1,.7-.39H67.8a.84.84,0,0,1,.83.84V98a.83.83,0,0,1-.83.83H.83A.83.83,0,0,1,0,98V67.62M1.66,68v29.2H67V15.27H52.57a5.68,5.68,0,0,1,.11,1.09V20.9a.83.83,0,0,1-.83.83H16.65a.83.83,0,0,1-.83-.83V16.36a5.68,5.68,0,0,1,.11-1.09H1.66v32"/><path class="cls-3" d="M47.38,11H21.25a5.39,5.39,0,0,0-5.36,5.41v4.58a.83.83,0,0,0,.83.84h35.2a.84.84,0,0,0,.83-.84V16.36A5.4,5.4,0,0,0,47.38,11Z"/><path class="cls-4" d="M42.3,7.22H38.35a.84.84,0,0,0-.73.42,3.79,3.79,0,0,1-6.61,0,.84.84,0,0,0-.72-.42h-4a.83.83,0,0,0-.83.83v6.57a.83.83,0,0,0,.83.84h16a.84.84,0,0,0,.84-.84V8.05A.84.84,0,0,0,42.3,7.22Z"/><path class="cls-5" d="M39.75,5.92A5.44,5.44,0,1,1,34.31.5,5.42,5.42,0,0,1,39.75,5.92Z"/><path class="cls-6" d="M38.31,6a3.88,3.88,0,0,1-7.75,0,3.88,3.88,0,0,1,7.75,0Z"/><rect class="cls-3" x="16.27" y="41.17" width="5.16" height="17.24"/><rect class="cls-3" x="24.54" y="38.06" width="4.96" height="19.84"/><rect class="cls-3" x="33.44" y="43.06" width="3.74" height="14.37"/><rect class="cls-3" x="41.86" y="51.68" width="3.19" height="5.83"/><rect class="cls-3" x="49.34" y="43.34" width="4.25" height="14.49"/><path class="cls-3" d="M21.29,59H16.52a1,1,0,0,1-1-1V41.51a1,1,0,0,1,1-1h4.77a1,1,0,0,1,1,1V58A1,1,0,0,1,21.29,59Zm-3.81-1.93h2.85V42.47H17.48Z"/><path class="cls-3" d="M29.45,59H24.68a1,1,0,0,1-1-1V38.18a1,1,0,0,1,1-1h4.77a1,1,0,0,1,1,1V58A1,1,0,0,1,29.45,59Zm-3.81-1.93h2.85V39.15H25.64Z"/><path class="cls-3" d="M37.62,59H32.84a1,1,0,0,1-1-1V42.89a1,1,0,0,1,1-1h4.78a1,1,0,0,1,1,1V58A1,1,0,0,1,37.62,59ZM33.8,57.06h2.85V43.86H33.8Z"/><path class="cls-3" d="M45.78,59H41a1,1,0,0,1-1-1V51.44a1,1,0,0,1,1-1h4.77a1,1,0,0,1,1,1V58A1,1,0,0,1,45.78,59ZM42,57.06h2.84V52.4H42Z"/><path class="cls-3" d="M53.94,59H49.17a1,1,0,0,1-1-1V43a1,1,0,0,1,1-1h4.77a1,1,0,0,1,1,1V58A1,1,0,0,1,53.94,59Zm-3.81-1.93H53V44H50.13Z"/><path class="cls-3" d="M60.93,63.19H9.28a1,1,0,1,1,0-1.93H60.93a1,1,0,1,1,0,1.93Z"/><text class="cls-7" transform="translate(15.67 75.91)">สส.101</text></g></g></g></svg>