<svg xmlns="http://www.w3.org/2000/svg" viewBox="0 0 116.67 125.8"><defs><style>.cls-1,.cls-12,.cls-2,.cls-3{fill:#fff;}.cls-1,.cls-10,.cls-2,.cls-3,.cls-6{stroke:#aecc36;}.cls-1,.cls-10,.cls-11,.cls-2,.cls-3,.cls-5,.cls-6,.cls-7,.cls-8,.cls-9{stroke-miterlimit:10;}.cls-10,.cls-2,.cls-7,.cls-9{stroke-width:0.3px;}.cls-3{stroke-width:0.5px;}.cls-4,.cls-5,.cls-6{fill:#aecc36;}.cls-5{stroke:#b6d049;}.cls-7,.cls-8,.cls-9{fill:#dce7ad;}.cls-7,.cls-8{stroke:#dce7ad;}.cls-11,.cls-9{stroke:#cddd87;}.cls-10{fill:#f4f7e7;}.cls-11{fill:#cddd87;}.cls-13{fill:#ed2224;}.cls-14{fill:#fcee23;}</style></defs><title>one-one-new</title><g id="Layer_2" data-name="Layer 2"><g id="Layer_1_copy_4" data-name="Layer 1 copy 4"><g id="_01" data-name="01"><polygon class="cls-1" points="51.85 23.84 59.4 16.34 66.07 24.49 66.02 109.3 51.39 109.3 51.85 23.84"/><path class="cls-2" d="M109.31,19.68a12.78,12.78,0,0,1-16.26-3.55c-3.51-5-1.93-11.44,3.54-14.46a12.79,12.79,0,0,1,16.27,3.55C116.37,10.19,114.78,16.67,109.31,19.68Z"/><polyline class="cls-3" points="91.41 8.7 43.64 37.35 50.52 47.08 97.73 19.82"/><polygon class="cls-4" points="96.1 10.11 100.28 15.92 94.44 19.2 90.26 13.4 96.1 10.11"/><polygon class="cls-4" points="85.09 16.5 89.28 22.3 83.43 25.59 79.25 19.78 85.09 16.5"/><polygon class="cls-4" points="63.16 28.59 67.35 34.39 61.5 37.67 57.32 31.87 63.16 28.59"/><polygon class="cls-4" points="74.12 22.58 78.31 28.38 72.46 31.67 68.28 25.86 74.12 22.58"/><polygon class="cls-4" points="52.84 34.74 57.02 40.55 51.18 43.83 46.99 38.03 52.84 34.74"/><path class="cls-4" d="M107.13,17A8.72,8.72,0,0,1,96,14.6,6.66,6.66,0,0,1,98.5,4.76a8.71,8.71,0,0,1,11.09,2.37A6.65,6.65,0,0,1,107.13,17Z"/><rect class="cls-4" x="35.29" y="107.8" width="44" height="2"/><rect class="cls-5" x="19.79" y="113.3" width="5" height="10"/><rect class="cls-6" x="14.79" y="123.3" width="14" height="2"/><rect class="cls-7" x="16.68" y="48.7" width="31.53" height="7.17" transform="translate(-27.32 37.67) rotate(-44.43)"/><rect class="cls-8" x="19.58" y="58.79" width="6.93" height="8.16" transform="translate(-40.36 84.4) rotate(-88.63)"/><line class="cls-9" x1="28.13" y1="61.87" x2="27.44" y2="65.82"/><line class="cls-9" x1="17.94" y1="62.63" x2="18.17" y2="65.67"/><line class="cls-9" x1="22.75" y1="56.28" x2="40.9" y2="38.68"/><line class="cls-9" x1="27.7" y1="62.6" x2="46.15" y2="44.22"/><path class="cls-9" d="M40.69,38.9A3.76,3.76,0,0,1,46,38.62a4.08,4.08,0,0,1,.1,5.62"/><path class="cls-9" d="M18,63,.42,43.9c-.42-.42-.31-1.8,0-2.49a5.55,5.55,0,0,1,1.07-1.62,8.44,8.44,0,0,1,2.3-1.21c.67-.17,1.41-.3,1.82.12.75.79,1.5,1.58,2.24,2.38L13,46.51l5.62,6c1.25,1.32,4.23,4.06,4.23,4.06"/><path class="cls-10" d="M6.4,43a2.2,2.2,0,0,1-2.25,2.16,2.16,2.16,0,1,1,0-4.32A2.21,2.21,0,0,1,6.4,43Z"/><path class="cls-10" d="M11,47.64A2.21,2.21,0,0,1,8.76,49.8a2.17,2.17,0,1,1,0-4.33A2.21,2.21,0,0,1,11,47.64Z"/><path class="cls-10" d="M15.63,51.87a2.26,2.26,0,1,1-2.26-2.17A2.21,2.21,0,0,1,15.63,51.87Z"/><path class="cls-10" d="M20.63,57.25a2.26,2.26,0,1,1-2.26-2.16A2.21,2.21,0,0,1,20.63,57.25Z"/><path class="cls-10" d="M25.25,61.48A2.26,2.26,0,1,1,23,59.31,2.22,2.22,0,0,1,25.25,61.48Z"/><path class="cls-10" d="M29.86,56.86A2.26,2.26,0,1,1,27.6,54.7,2.21,2.21,0,0,1,29.86,56.86Z"/><path class="cls-10" d="M34.47,52.25a2.26,2.26,0,1,1-2.26-2.16A2.21,2.21,0,0,1,34.47,52.25Z"/><path class="cls-10" d="M39.47,47.25a2.26,2.26,0,1,1-2.26-2.16A2.21,2.21,0,0,1,39.47,47.25Z"/><path class="cls-10" d="M44.09,42.64a2.26,2.26,0,1,1-2.26-2.17A2.21,2.21,0,0,1,44.09,42.64Z"/><path class="cls-11" d="M31.79,113.3V67.58c0-1.06-.19-2.28-1.37-2.28H15.77c-1.17,0-3,1.22-3,2.28V113.3Z"/><path class="cls-4" d="M30.29,107.8V69.87c0-.84-.45-1.19-1.33-1.19l-10.75-.09H17c-.88,0-2.68.44-2.68,1.28V107.8Z"/><path class="cls-12" d="M25.86,77.22a3.71,3.71,0,1,1-3.71-3.67A3.7,3.7,0,0,1,25.86,77.22Z"/><path class="cls-12" d="M25.75,89A3.71,3.71,0,1,1,22,85.33,3.69,3.69,0,0,1,25.75,89Z"/><path class="cls-13" d="M25.75,100.79A3.71,3.71,0,1,1,22,97.12,3.7,3.7,0,0,1,25.75,100.79Z"/><rect class="cls-5" x="89.79" y="113.3" width="4" height="10"/><rect class="cls-6" x="84.79" y="123.3" width="14" height="2"/><rect class="cls-7" x="85.99" y="48.7" width="31.53" height="7.17" transform="translate(-7.5 86.19) rotate(-44.43)"/><rect class="cls-8" x="88.89" y="58.79" width="6.93" height="8.16" transform="translate(27.29 153.69) rotate(-88.63)"/><line class="cls-9" x1="97.44" y1="61.87" x2="96.75" y2="65.82"/><line class="cls-9" x1="87.25" y1="62.63" x2="87.48" y2="65.67"/><line class="cls-9" x1="92.06" y1="56.28" x2="110.21" y2="38.68"/><line class="cls-9" x1="97.01" y1="62.6" x2="115.46" y2="44.22"/><path class="cls-9" d="M110,38.9a3.76,3.76,0,0,1,5.35-.28,4.07,4.07,0,0,1,.11,5.62"/><path class="cls-9" d="M87.3,63,69.73,43.9c-.42-.42-.31-1.8,0-2.49a5.55,5.55,0,0,1,1.07-1.62,8.44,8.44,0,0,1,2.3-1.21c.66-.17,1.4-.3,1.82.12l2.24,2.38,5.12,5.43,5.62,6c1.24,1.32,4.23,4.06,4.23,4.06"/><path class="cls-10" d="M75.71,43a2.26,2.26,0,1,1-2.26-2.16A2.21,2.21,0,0,1,75.71,43Z"/><path class="cls-10" d="M80.33,47.64a2.26,2.26,0,1,1-2.26-2.17A2.21,2.21,0,0,1,80.33,47.64Z"/><path class="cls-10" d="M84.94,51.87a2.26,2.26,0,1,1-2.26-2.17A2.21,2.21,0,0,1,84.94,51.87Z"/><path class="cls-10" d="M89.94,57.25a2.26,2.26,0,1,1-2.26-2.16A2.21,2.21,0,0,1,89.94,57.25Z"/><path class="cls-10" d="M94.55,61.48a2.26,2.26,0,1,1-2.26-2.17A2.21,2.21,0,0,1,94.55,61.48Z"/><path class="cls-10" d="M99.17,56.86a2.26,2.26,0,1,1-2.26-2.16A2.21,2.21,0,0,1,99.17,56.86Z"/><path class="cls-10" d="M103.78,52.25a2.26,2.26,0,1,1-2.26-2.16A2.21,2.21,0,0,1,103.78,52.25Z"/><path class="cls-10" d="M108.78,47.25a2.26,2.26,0,1,1-2.26-2.16A2.21,2.21,0,0,1,108.78,47.25Z"/><path class="cls-10" d="M113.4,42.64a2.26,2.26,0,1,1-2.26-2.17A2.22,2.22,0,0,1,113.4,42.64Z"/><path class="cls-11" d="M100.79,113.3V67.58c0-1.06.12-2.28-1.06-2.28H85.08a2.49,2.49,0,0,0-2.29,2.28V113.3Z"/><path class="cls-4" d="M100.29,107.8V69.87c0-.84-.8-1.19-1.68-1.19l-10.92-.09H86.22c-.89,0-2.93.44-2.93,1.28V107.8Z"/><path class="cls-12" d="M95.17,77.22a3.71,3.71,0,1,1-3.71-3.67A3.7,3.7,0,0,1,95.17,77.22Z"/><path class="cls-14" d="M95.06,89a3.71,3.71,0,1,1-3.71-3.68A3.69,3.69,0,0,1,95.06,89Z"/><path class="cls-12" d="M95.06,100.79a3.71,3.71,0,1,1-3.71-3.67A3.7,3.7,0,0,1,95.06,100.79Z"/></g></g></g></svg>