<svg width="59" height="59" viewBox="0 0 59 59" fill="none" xmlns="http://www.w3.org/2000/svg">
<path fill-rule="evenodd" clip-rule="evenodd" d="M36.4325 9.83333H46.7083C49.4125 9.83333 51.625 12.0458 51.625 14.75V49.1667C51.625 51.8708 49.4125 54.0833 46.7083 54.0833H12.2917C11.9475 54.0833 11.6279 54.0588 11.3083 54.0096C10.3496 53.8129 9.48917 53.3213 8.82542 52.6575C8.38292 52.1904 8.01417 51.6742 7.76833 51.0842C7.5225 50.4942 7.375 49.8304 7.375 49.1667V14.75C7.375 14.0617 7.5225 13.4225 7.76833 12.8571C8.01417 12.2671 8.38292 11.7262 8.82542 11.2837C9.48917 10.62 10.3496 10.1283 11.3083 9.93166C11.6279 9.85791 11.9475 9.83333 12.2917 9.83333H22.5675C23.6 6.98166 26.3042 4.91666 29.5 4.91666C32.6958 4.91666 35.4 6.98166 36.4325 9.83333ZM17.2083 19.6667H41.7917V24.5833H17.2083V19.6667ZM41.7917 29.5H17.2083V34.4167H41.7917V29.5ZM34.4167 39.3333H17.2083V44.25H34.4167V39.3333ZM29.5 9.21875C30.5079 9.21875 31.3438 10.0546 31.3438 11.0625C31.3438 12.0704 30.5079 12.9062 29.5 12.9062C28.4921 12.9062 27.6562 12.0704 27.6562 11.0625C27.6562 10.0546 28.4921 9.21875 29.5 9.21875ZM12.2917 49.1667H46.7083V14.75H12.2917V49.1667Z" fill="black" fill-opacity="0.54"/>
</svg>
