<svg xmlns="http://www.w3.org/2000/svg" viewBox="0 0 109.6 109.5"><defs><style>.cls-1{fill:#231f20;}</style></defs><title>Asset 5</title><g id="Layer_2" data-name="Layer 2"><g id="Layer_5" data-name="Layer 5"><path class="cls-1" d="M44.29,22.15H27.78a.87.87,0,0,1-.87-.88V4.75a.87.87,0,0,1,.87-.87A17.41,17.41,0,0,1,45.17,21.27.87.87,0,0,1,44.29,22.15ZM28.66,20.4H43.4A15.68,15.68,0,0,0,28.66,5.65Z"/><path class="cls-1" d="M83,108.64a1.33,1.33,0,0,1-1.33-1.32V85.52a1.34,1.34,0,1,1,2.67,0v21.8A1.33,1.33,0,0,1,83,108.64Z"/><path class="cls-1" d="M95.86,108.92a1.33,1.33,0,0,1-1.34-1.33V71.33a1.34,1.34,0,0,1,2.67,0v36.26A1.32,1.32,0,0,1,95.86,108.92Z"/><path class="cls-1" d="M105.62,109a1.24,1.24,0,0,1-1.25-1.25V79.39a1.25,1.25,0,1,1,2.49,0V107.7A1.25,1.25,0,0,1,105.62,109Z"/><path class="cls-1" d="M41.54,23.14H25.91V7.51A.88.88,0,0,0,25,6.63a17.4,17.4,0,0,0-2.51,34.61,16.46,16.46,0,0,0,2.51.18A17.42,17.42,0,0,0,42.42,24,.88.88,0,0,0,41.54,23.14Z"/><path class="cls-1" d="M108.7,109.5H.9a.9.9,0,0,1-.9-.9V.9A.9.9,0,0,1,1.8.9V107.69H108.7a.91.91,0,0,1,0,1.81Z"/><path class="cls-1" d="M.9,109.5a.84.84,0,0,1-.43-.11.91.91,0,0,1-.36-1.22L21.35,69.25a.91.91,0,0,1,1.22-.36.93.93,0,0,1,.36,1.23L1.69,109A.89.89,0,0,1,.9,109.5ZM42.78,82.63a.87.87,0,0,1-.6-.25L28,69.29A.92.92,0,0,1,28,68,.91.91,0,0,1,29.23,68L43.4,81.06a.91.91,0,0,1-.62,1.57Zm5-1.61-.18,0a.9.9,0,0,1-.71-1.06l7-35.26a.9.9,0,1,1,1.77.36l-7,35.25A.89.89,0,0,1,47.74,81ZM71.9,58.15a.92.92,0,0,1-.67-.29L58.72,44.17a.9.9,0,0,1,.05-1.27.91.91,0,0,1,1.28.06L72.56,56.64a.89.89,0,0,1-.06,1.27A.82.82,0,0,1,71.9,58.15Zm6-.83a.89.89,0,0,1-.8-1.31L97.26,16.14a.88.88,0,0,1,1.2-.39.89.89,0,0,1,.4,1.2L78.72,56.82A.88.88,0,0,1,77.92,57.32Z"/><path class="cls-1" d="M99.15,27.56a.9.9,0,0,1-.89-.8l-1-8.73-7.57,4.42a.9.9,0,1,1-.9-1.56l8.76-5.12a.91.91,0,0,1,.86,0,.92.92,0,0,1,.5.7l1.09,10.11a.92.92,0,0,1-.8,1Z"/><path class="cls-1" d="M24.69,71.25A6.25,6.25,0,1,1,30.94,65,6.25,6.25,0,0,1,24.69,71.25Zm0-10.7A4.45,4.45,0,1,0,29.14,65,4.44,4.44,0,0,0,24.69,60.55Z"/><path class="cls-1" d="M46.71,91.6a6.25,6.25,0,1,1,6.23-6.24A6.25,6.25,0,0,1,46.71,91.6Zm0-10.69a4.45,4.45,0,1,0,4.42,4.45A4.45,4.45,0,0,0,46.71,80.91Z"/><path class="cls-1" d="M55.78,45.85A6.24,6.24,0,1,1,62,39.61,6.24,6.24,0,0,1,55.78,45.85Zm0-10.68a4.44,4.44,0,1,0,4.44,4.44A4.44,4.44,0,0,0,55.78,35.17Z"/><path class="cls-1" d="M75.51,67.44a6.25,6.25,0,1,1,6.25-6.24A6.26,6.26,0,0,1,75.51,67.44Zm0-10.7A4.45,4.45,0,1,0,80,61.2,4.47,4.47,0,0,0,75.51,56.74Z"/></g></g></svg>