<svg xmlns="http://www.w3.org/2000/svg" viewBox="0 0 149.58 150.05"><defs><style>.cls-1{fill:#e6e7e8;}.cls-1,.cls-3,.cls-9{stroke:#231f20;}.cls-1,.cls-3,.cls-5,.cls-9{stroke-miterlimit:10;}.cls-2{fill:#d1d3d4;}.cls-3,.cls-9{fill:#fff;}.cls-3,.cls-4,.cls-5,.cls-6,.cls-7,.cls-8{fill-rule:evenodd;}.cls-10,.cls-4{fill:#231f20;}.cls-5{fill:#414142;stroke:#414142;}.cls-6{fill:#58595b;}.cls-7{fill:#a7a9ac;}.cls-8{fill:#808285;}</style></defs><title>Asset 6</title><g id="Layer_2" data-name="Layer 2"><g id="Layer_6" data-name="Layer 6"><rect class="cls-1" x="18.62" y="11.28" width="77.39" height="109.46" transform="translate(-20.87 26.9) rotate(-22.46)"/><rect class="cls-2" x="32.05" y="32.16" width="43.34" height="0.91" transform="translate(-8.38 22.99) rotate(-22.46)"/><rect class="cls-2" x="32.68" y="33.68" width="43.34" height="0.91" transform="translate(-8.92 23.35) rotate(-22.46)"/><rect class="cls-2" x="33.31" y="35.2" width="43.34" height="0.91" transform="translate(-9.45 23.71) rotate(-22.46)"/><rect class="cls-2" x="33.94" y="36.72" width="43.34" height="0.91" transform="translate(-9.98 24.06) rotate(-22.46)"/><rect class="cls-2" x="34.57" y="38.24" width="43.34" height="0.91" transform="translate(-10.52 24.42) rotate(-22.46)"/><rect class="cls-2" x="35.79" y="42.77" width="27.6" height="0.91" transform="translate(-12.75 22.22) rotate(-22.46)"/><rect class="cls-2" x="41.66" y="56.33" width="27.6" height="0.91" transform="translate(-17.49 25.49) rotate(-22.46)"/><rect class="cls-2" x="37.71" y="45.84" width="43.34" height="0.91" transform="matrix(0.92, -0.38, 0.38, 0.92, -13.18, 26.19)"/><rect class="cls-2" x="38.34" y="47.36" width="43.34" height="0.91" transform="translate(-13.72 26.55) rotate(-22.46)"/><rect class="cls-2" x="38.96" y="48.89" width="43.35" height="0.91" transform="translate(-14.25 26.9) rotate(-22.46)"/><rect class="cls-2" x="39.59" y="50.41" width="43.34" height="0.91" transform="translate(-14.78 27.26) rotate(-22.46)"/><rect class="cls-2" x="40.22" y="51.93" width="43.34" height="0.91" transform="translate(-15.32 27.61) rotate(-22.46)"/><rect class="cls-2" x="43.36" y="59.53" width="43.34" height="0.91" transform="translate(-17.98 29.39) rotate(-22.46)"/><rect class="cls-2" x="43.99" y="61.05" width="43.34" height="0.91" transform="translate(-18.51 29.75) rotate(-22.46)"/><rect class="cls-2" x="44.62" y="62.57" width="43.34" height="0.91" transform="matrix(0.92, -0.38, 0.38, 0.92, -19.05, 30.1)"/><rect class="cls-2" x="45.25" y="64.09" width="43.34" height="0.91" transform="translate(-19.58 30.46) rotate(-22.46)"/><rect class="cls-2" x="46.38" y="68.16" width="29.99" height="0.91" transform="translate(-21.56 28.65) rotate(-22.45)"/><rect class="cls-2" x="48.23" y="70.85" width="43.34" height="0.91" transform="translate(-21.94 32.11) rotate(-22.46)"/><rect class="cls-2" x="48.86" y="72.37" width="43.34" height="0.91" transform="translate(-22.47 32.46) rotate(-22.46)"/><rect class="cls-2" x="49.49" y="73.89" width="43.34" height="0.91" transform="translate(-23 32.82) rotate(-22.46)"/><path class="cls-3" d="M78.83,91.14a17.84,17.84,0,0,0,3.57-5C83.3,84,85,75,88.32,74.08s7.81,4,9.19,5a7.76,7.76,0,0,0,3.73,1.8,58.43,58.43,0,0,0,6.46.74c4,.19,7.42,1.09,11,7.12,6.13,10.36,4,7.3,6.13,13.55,1.4,4.21,6.27,11.1,7.33,13s7.44,5.84,11.08,8.51-20,17.78-23.71,14.7-7.08-6-11.11-7.54-14.52-5.62-19.62-9S76,113.21,74.22,111.82s-1.49-3-.74-4.66.79-2.57,2.63-3.49,1.91-1.44,2.09-2.37A1.62,1.62,0,0,1,80,99.93a4.49,4.49,0,0,1,3.1,2.26c.91,1.61,1.33,3,2.3,3.91s2.86,1.92,4.66,1.14,2.11-1.9,3.28-4.22,1-5.62.78-7.41a44.72,44.72,0,0,0-1.75-6.22c-.22-.82-.64-.93-1.48-1.17s-2.68,3.41-4.26,5-3.54,1.88-5.42,2.12C76,96,77.53,92.67,78.83,91.14Z"/><path class="cls-4" d="M87.78,97.82c.77.81,4.67-5.66,5.48-6.63-.12,0-.22-.12-.25-.45C92,92.32,89,96.83,87.78,97.82Z"/><path class="cls-5" d="M79.83,100a4.3,4.3,0,0,1,3.27,2.23c.78,1.38,1.33,3,2.3,3.91A4.42,4.42,0,0,0,90,107c1.73-.81,2-1.66,3.18-4s.89-5.52.7-7.3a51.68,51.68,0,0,0-1.51-6.36c-.22-.82-.64-.93-1.48-1.17s-2.82,3.55-4.26,5A8.07,8.07,0,0,1,78,94.92a8.46,8.46,0,0,0,5.68-.45,12.31,12.31,0,0,0,3.7-3.27c1.12-1.42,2-3.64,1.33-4.53a13,13,0,0,1-2-4.53c-.31-1.74.11-3,.34-1.2s1.54,5.34,3.16,6,2.28,1.43,2.45,2.12A37.89,37.89,0,0,1,94,94.33c2.06,9.45-2.44,12.63-4.12,13.3s-4-.11-6.36-.26.36-1.56-.06-2.9-4.58-1.71-3.62-1.8S81.65,101.11,79.83,100Z"/><path class="cls-6" d="M77.1,98.9c.52.18,35,9.65,35,9.65,3.07.54,4.76-5.75.86-6.52L78.11,95.16C76,94.75,74.86,98.17,77.1,98.9Z"/><path class="cls-7" d="M73.05,96.28l1.75.93c1,.54,1.56-1.67.49-1.7l-2.08-.05A.42.42,0,0,0,73.05,96.28Z"/><path class="cls-8" d="M74.89,97.44l2,1.11c2.53,1.4,3.76-3.09,1-3.15l-2.67-.05A1.07,1.07,0,0,0,74.89,97.44Z"/><path class="cls-4" d="M137.14,115.52c-.21-1.15-3-2.12-3-2.12-3.7,2.48-16.94,19.2-21.15,27,0,0,1.73,2.31,5.93,1.72S140.58,122.68,137.14,115.52Z"/><path class="cls-4" d="M149.58,123.41c-4.93-4.36-10.66-7.93-11.93-9-1.53-1.25-3.56,1.41-7.55,5.89s-15.42,19.56-16.29,21.26c3.18,2.84,6.22,5.67,9.12,8.46h26.65Z"/><path class="cls-4" d="M149.58,124.63c-4-3.35-10.63-8.1-11.81-9.07-1.45-1.18-3.37,1.34-7.15,5.58S116,139.63,115.18,141.29c1.77.77,5.63,4.17,10.34,8.76h24.06Z"/><path class="cls-4" d="M123.79,132.89A197.44,197.44,0,0,1,142,147.38C137.33,144.59,130,138.39,123.79,132.89Z"/><path class="cls-4" d="M137.1,135.84a2.59,2.59,0,0,0-2.41-1.63v.61a2,2,0,0,1,.73,3.82,2.1,2.1,0,0,1-.73.14v.61a2.53,2.53,0,0,0,1-.19A2.59,2.59,0,0,0,137.1,135.84Zm-2.41-1.63a2.72,2.72,0,0,0-1,.18,2.59,2.59,0,0,0,1,5v-.61A2,2,0,0,1,134,135a1.89,1.89,0,0,1,.73-.14Z"/><path class="cls-4" d="M135.88,136.32a.5.5,0,1,0-.92.37.49.49,0,0,0,.65.27A.48.48,0,0,0,135.88,136.32Z"/><path class="cls-4" d="M134.42,136.9a.5.5,0,0,0-.65-.27.5.5,0,0,0,.37.92A.5.5,0,0,0,134.42,136.9Z"/><path class="cls-4" d="M141.63,142.2a2.6,2.6,0,0,0-2.08-4.15v.61a1.94,1.94,0,0,1,1.19.4,2,2,0,0,1-1.19,3.56v.61A2.61,2.61,0,0,0,141.63,142.2Zm-2.08-4.15a2.59,2.59,0,0,0,0,5.18v-.61a2,2,0,0,1,0-4Z"/><path class="cls-4" d="M140.58,141.41a.49.49,0,1,0-.69.1A.49.49,0,0,0,140.58,141.41Z"/><path class="cls-4" d="M139.32,140.47a.5.5,0,1,0-.69.1A.5.5,0,0,0,139.32,140.47Z"/><path class="cls-4" d="M131.37,134.19a2.6,2.6,0,0,0,.16-3.66,2.57,2.57,0,0,0-1.91-.84v.61a2,2,0,0,1,1.46.64,2,2,0,0,1-.12,2.8,2,2,0,0,1-1.34.52v.61A2.62,2.62,0,0,0,131.37,134.19Zm-1.75-4.5a2.56,2.56,0,0,0-1.75.68,2.59,2.59,0,0,0-.16,3.66,2.65,2.65,0,0,0,1.91.84v-.61a2,2,0,1,1,0-4Z"/><path class="cls-4" d="M130.49,133.22a.5.5,0,1,0-.67-.73.5.5,0,0,0,.67.73Z"/><path class="cls-4" d="M129.42,132.06a.5.5,0,0,0-.67-.73.5.5,0,0,0,0,.7A.49.49,0,0,0,129.42,132.06Z"/><rect class="cls-9" x="22.23" y="45.33" width="7.04" height="7.23" transform="translate(-16.69 13.48) rotate(-22.36)"/><rect class="cls-9" x="28.28" y="59.06" width="7.04" height="7.23" transform="translate(-21.46 16.82) rotate(-22.37)"/><rect class="cls-9" x="34.05" y="72.75" width="7.04" height="7.23" transform="translate(-26.23 20.04) rotate(-22.37)"/><polygon class="cls-10" points="26.14 50.35 23.5 48.86 24.18 47.71 25.64 48.53 29.35 42.31 30.38 42.89 26.14 50.35"/><polygon class="cls-10" points="32.17 64.96 29.54 63.47 30.2 62.32 31.67 63.14 35.38 56.91 36.41 57.5 32.17 64.96"/></g></g></svg>