<svg xmlns="http://www.w3.org/2000/svg" viewBox="0 0 114.24 102.93"><defs><style>.cls-1{fill:#58595b;stroke:#58595b;stroke-width:0.52px;}.cls-1,.cls-11,.cls-12,.cls-4,.cls-6,.cls-8{stroke-miterlimit:10;}.cls-12,.cls-2,.cls-9{fill:#fff;}.cls-3,.cls-4{fill:#808285;}.cls-4,.cls-6,.cls-8{stroke:#fff;}.cls-4,.cls-8{stroke-width:0.5px;}.cls-5,.cls-6{fill:#a7a9ac;}.cls-6{stroke-width:0.3px;}.cls-7,.cls-8{fill:#6d6f71;}.cls-10,.cls-11,.cls-12,.cls-9{stroke:#231f20;}.cls-10,.cls-9{stroke-linecap:round;stroke-linejoin:round;}.cls-10{fill:none;}</style></defs><title>Asset 4</title><g id="Layer_2" data-name="Layer 2"><g id="Layer_4" data-name="Layer 4"><path class="cls-1" d="M52.51,94.43a5,5,0,0,1-7-1c-.09-.13-.19-.26-.28-.41L26.11,64.71l-4.89,1.17a.51.51,0,0,1-.38-.07l-7.37-4.53a.46.46,0,0,1-.23-.33l-1.11-6.17a.46.46,0,0,1,0-.3l1.43-2.94a.5.5,0,0,1,.45-.28.47.47,0,0,1,.44.32l2.71,6.62,4.42,2.72,4.8-1.14,2.43-4.3-1.39-5L21.85,46a.48.48,0,0,1-.17-.51.48.48,0,0,1,.39-.36l3.22-.56a.55.55,0,0,1,.31,0l5.62,2.77a.52.52,0,0,1,.25.31l2.32,8.34a.56.56,0,0,1,0,.38l-2.48,4.38,22,26.24.31.38A5,5,0,0,1,52.51,94.43Z"/><path class="cls-2" d="M51.16,92.63a2.72,2.72,0,1,1,.54-3.8A2.72,2.72,0,0,1,51.16,92.63Zm-2.68-3.55a1.74,1.74,0,1,0,2.43.34A1.73,1.73,0,0,0,48.48,89.08Z"/><path class="cls-3" d="M12,71.42l.48-.19-.16-3.08,1.54-.32,1.06,2.9a7.9,7.9,0,0,1,3.74.72l2.07-2.29L22,70l-1.3,2.8A8,8,0,0,1,22.85,76l3.08-.15.32,1.55-2.89,1c0,.2,0,.41,0,.61s0,.21,0,.31a4.68,4.68,0,0,1-.05.55,8.11,8.11,0,0,1-.66,2.27l2.29,2.07-.87,1.31-2.8-1.3a7.94,7.94,0,0,1-3.15,2.13l.16,3.08-1.55.31-1.06-2.9a7.88,7.88,0,0,1-3.73-.72L9.85,88.43l-1.31-.87,1.3-2.8a8,8,0,0,1-2.13-3.15l-3.08.16-.31-1.56,2.89-1a8,8,0,0,1,.73-3.72L5.65,73.36l.87-1.31,2.8,1.31a5.6,5.6,0,0,1,.78-.76c.22-.19.46-.36.7-.53l.32-.2a5.86,5.86,0,0,1,.55-.3Z"/><path class="cls-4" d="M14.48,74.83A4,4,0,1,0,19.24,78,4.05,4.05,0,0,0,14.48,74.83Z"/><path class="cls-5" d="M3.68,58.22l.23-.1-.08-1.47.74-.15.51,1.39a3.75,3.75,0,0,1,1.79.34l1-1.09.63.41-.63,1.34a4,4,0,0,1,1,1.51l1.47-.08.15.75-1.39.5a1.41,1.41,0,0,1,0,.29V62a2.06,2.06,0,0,1,0,.26,4,4,0,0,1-.31,1.09l1.09,1L9.46,65l-1.35-.62a3.78,3.78,0,0,1-1.51,1l.08,1.47L5.94,67l-.51-1.4a3.75,3.75,0,0,1-1.79-.34l-1,1.1L2,66l.63-1.34a3.85,3.85,0,0,1-1-1.51l-1.48.08L0,62.43l1.39-.51a3.86,3.86,0,0,1,.35-1.78l-1.1-1,.42-.63,1.34.62a2.53,2.53,0,0,1,.37-.36l.34-.25.15-.1a2.29,2.29,0,0,1,.27-.14Z"/><path class="cls-6" d="M4.87,59.85a1.94,1.94,0,1,0,2.28,1.51A1.94,1.94,0,0,0,4.87,59.85Z"/><path class="cls-7" d="M41.29,52.11l.33-.14-.11-2.17,1.09-.22.75,2a5.62,5.62,0,0,1,2.64.51l1.46-1.61.93.6-.92,2A5.61,5.61,0,0,1,49,55.33l2.17-.12.22,1.1-2,.74a3.08,3.08,0,0,1,0,.43.79.79,0,0,1,0,.22c0,.14,0,.27,0,.39a5.79,5.79,0,0,1-.47,1.6l1.62,1.46-.62.93-2-.92a5.44,5.44,0,0,1-2.22,1.5l.11,2.18-1.09.23-.75-2a5.77,5.77,0,0,1-2.64-.51l-1.45,1.61-.93-.61.92-2a5.63,5.63,0,0,1-1.51-2.23l-2.17.12-.23-1.1,2-.74A5.68,5.68,0,0,1,38.42,55l-1.61-1.47.61-.92,2,.92a4.68,4.68,0,0,1,.55-.54l.49-.37.23-.14.39-.22Z"/><path class="cls-8" d="M43,54.52a2.86,2.86,0,1,0,3.37,2.23A2.86,2.86,0,0,0,43,54.52Z"/><path class="cls-9" d="M87.89,34.82V32.71a19.3,19.3,0,1,0-38.6,0v2.11c-2,0-3.7,2.35-3.7,5.25s1.66,5.24,3.7,5.24h.18a19.3,19.3,0,0,0,38.24,0h.18c2,0,3.7-2.35,3.7-5.24S89.94,34.82,87.89,34.82Z"/><path class="cls-2" d="M59.82,60.16v4.22L60,67.51l2.81,1.73,3.08,1.82,1.87,1.11,3.62-1.58L75,68.77l1.93-1.17.15-.41-.26-6.68v-.35l-1,.53-2.1.74L72.07,62l-1.88.39H68.78l-2-.27s-1.82-.38-2-.44-2.49-.77-2.72-.77S59.82,60.16,59.82,60.16Z"/><path class="cls-3" d="M51.14,69.73,61,81.09l6.86-8.93,8.54,8.94,9.71-11.83,14.58,4,2.93,1.41,2.57,1.64,3.4,5.19,1.5,6.36,1.67,9.27,1,5.2h-90L26,88.52l1.29-6.8,3.4-5.39s2.81-2,3.16-2.11l5.27-1.76,7.15-1.4Z"/><path class="cls-10" d="M110.56,84.32C107.83,74,99.66,72.86,99.66,72.86L77.24,67.51V60A19.34,19.34,0,0,1,60,60v7.47L37.52,72.86S29.35,74,26.62,84.32l-3.18,18.11h90.3Z"/><polygon class="cls-9" points="59.57 67.18 51.11 69.2 60.89 81.11 68.04 72.38 59.57 67.18"/><polygon class="cls-9" points="77.66 67.26 86.07 69.27 76.35 81.11 68.04 72.38 77.66 67.26"/><polygon class="cls-11" points="71.13 11.24 70.24 0.5 68.59 0.5 66.93 0.5 66.05 11.24 71.13 11.24"/><path class="cls-12" d="M90.66,28.83A24.63,24.63,0,0,0,81.85,9.75a21.43,21.43,0,0,0-4.72-2.91l-.49-3.12A19.71,19.71,0,0,0,70.37,2l.76,9.28H66.05l.76-9.31a16.2,16.2,0,0,0-6.27,1.79L60,6.84a23.34,23.34,0,0,0-12,13.57,25.53,25.53,0,0,0-1.41,8.42H90.66"/><line class="cls-12" x1="76.64" y1="3.72" x2="78.33" y2="14.61"/><line class="cls-12" x1="58.6" y1="14.61" x2="60.54" y2="3.72"/><path class="cls-12" d="M53.76,17.53s-2.23,3.93-2.06,6.92H65.5"/><path class="cls-12" d="M90.9,28.83H46.31s-2,.08-2,3.17H92.87C92.89,28.91,90.9,28.83,90.9,28.83Z"/></g></g></svg>