<svg xmlns="http://www.w3.org/2000/svg" viewBox="0 0 117.03 112.76"><defs><style>.cls-1{fill:#939598;}.cls-2{fill:#6d6f71;}.cls-3{fill:#808285;}.cls-4{fill:#58595b;}.cls-5{fill:#bcbdc0;}.cls-6{fill:#231f20;stroke-width:3px;}.cls-6,.cls-7{stroke:#231f20;stroke-miterlimit:10;}.cls-7{fill:none;stroke-width:2px;}</style></defs><title>Asset 3</title><g id="Layer_2" data-name="Layer 2"><g id="Layer_7" data-name="Layer 7"><rect class="cls-1" x="14.29" y="14.29" width="88.45" height="84.18" rx="10.93"/><path class="cls-2" d="M102.18,89.5H35.59A10.93,10.93,0,0,1,24.66,78.57V16.24a11.08,11.08,0,0,1,.18-1.93A10.92,10.92,0,0,0,14.29,25.22V87.54A10.93,10.93,0,0,0,25.22,98.47H91.81a10.92,10.92,0,0,0,10.75-9Z"/><rect class="cls-3" x="31.45" y="30.62" width="54.14" height="51.52" rx="6.69"/><path class="cls-4" d="M85.22,76.79H44.46a6.7,6.7,0,0,1-6.69-6.69V32a6.45,6.45,0,0,1,.14-1.33,6.68,6.68,0,0,0-6.46,6.68V75.45a6.68,6.68,0,0,0,6.69,6.69H78.9a6.69,6.69,0,0,0,6.55-5.36Z"/><path class="cls-5" d="M74,56.58c0-.48,0-.94-.07-1.4l3.1-.81-1.39-5.32-3.16.83a15.3,15.3,0,0,0-2.57-3.78l2-2.63L67.6,40.11l-2,2.66a15.28,15.28,0,0,0-4.29-1.44V38H55.77v3.38a15.7,15.7,0,0,0-4.09,1.34l-2-2.69-4.39,3.29,2,2.67a15.65,15.65,0,0,0-2,2.63l-3.08-1.14-1.9,5.16,3,1.11A16,16,0,0,0,43,56.58c0,.33,0,.67,0,1L40,58.39l1.39,5.32,3-.79a15.49,15.49,0,0,0,2.56,4l-1.86,2.42,4.35,3.36,1.84-2.38a15.57,15.57,0,0,0,4.5,1.55v3h5.49v-3a15.36,15.36,0,0,0,4.3-1.45l1.8,2.41,4.4-3.29L69.93,67a15,15,0,0,0,2-2.78l2.91,1.07,1.89-5.16-3-1.09A15.81,15.81,0,0,0,74,56.58ZM58.51,66.93A10.55,10.55,0,1,1,69.07,56.38,10.55,10.55,0,0,1,58.51,66.93Z"/><line class="cls-6" x1="27.4" x2="27.4" y2="14.29"/><line class="cls-6" x1="37.77" x2="37.77" y2="14.29"/><line class="cls-6" x1="48.15" x2="48.15" y2="14.29"/><line class="cls-6" x1="58.51" x2="58.51" y2="14.29"/><line class="cls-6" x1="68.89" x2="68.89" y2="14.29"/><line class="cls-6" x1="79.25" x2="79.25" y2="14.29"/><line class="cls-6" x1="89.63" x2="89.63" y2="14.29"/><line class="cls-6" x1="117.03" y1="25.27" x2="102.74" y2="25.27"/><line class="cls-6" x1="117.03" y1="35.64" x2="102.74" y2="35.64"/><line class="cls-6" x1="117.03" y1="46.01" x2="102.74" y2="46.01"/><line class="cls-6" x1="117.03" y1="56.38" x2="102.74" y2="56.38"/><line class="cls-6" x1="117.03" y1="66.75" x2="102.74" y2="66.75"/><line class="cls-6" x1="117.03" y1="77.12" x2="102.74" y2="77.12"/><line class="cls-6" x1="117.03" y1="87.49" x2="102.74" y2="87.49"/><line class="cls-6" x1="89.63" y1="112.76" x2="89.63" y2="98.47"/><line class="cls-6" x1="79.25" y1="112.76" x2="79.25" y2="98.47"/><line class="cls-6" x1="68.89" y1="112.76" x2="68.89" y2="98.47"/><line class="cls-6" x1="58.51" y1="112.76" x2="58.51" y2="98.47"/><line class="cls-6" x1="48.15" y1="112.76" x2="48.15" y2="98.47"/><line class="cls-6" x1="37.77" y1="112.76" x2="37.77" y2="98.47"/><line class="cls-6" x1="27.4" y1="112.76" x2="27.4" y2="98.47"/><line class="cls-6" y1="87.49" x2="14.29" y2="87.49"/><line class="cls-6" y1="77.12" x2="14.29" y2="77.12"/><line class="cls-6" y1="66.75" x2="14.29" y2="66.75"/><line class="cls-6" y1="56.38" x2="14.29" y2="56.38"/><line class="cls-6" y1="46.01" x2="14.29" y2="46.01"/><line class="cls-6" y1="35.64" x2="14.29" y2="35.64"/><line class="cls-6" y1="25.27" x2="14.29" y2="25.27"/><path class="cls-7" d="M28.48,26.32a3.24,3.24,0,1,1-3.24-3.23A3.24,3.24,0,0,1,28.48,26.32Z"/><path class="cls-7" d="M28.48,86.43a3.24,3.24,0,1,1-3.24-3.23A3.24,3.24,0,0,1,28.48,86.43Z"/><path class="cls-7" d="M96.1,26.32a3.24,3.24,0,1,1-3.24-3.23A3.24,3.24,0,0,1,96.1,26.32Z"/><path class="cls-7" d="M96.1,86.43a3.24,3.24,0,1,1-3.24-3.23A3.24,3.24,0,0,1,96.1,86.43Z"/></g></g></svg>