<svg xmlns="http://www.w3.org/2000/svg" viewBox="0 0 158.12 141.75"><defs><style>.cls-1,.cls-2,.cls-6{fill:#fff;}.cls-1,.cls-4,.cls-5,.cls-6{stroke:#231f20;}.cls-1,.cls-4{stroke-linecap:round;stroke-linejoin:round;}.cls-3{fill:#808285;}.cls-4{fill:none;}.cls-5,.cls-6{stroke-miterlimit:10;}.cls-7{fill:#333;fill-rule:evenodd;}</style></defs><title>Asset 1</title><g id="Layer_2" data-name="Layer 2"><g id="Layer_8" data-name="Layer 8"><path class="cls-1" d="M45.65,93.89V92.41a13.52,13.52,0,1,0-27,0v1.48c-1.43,0-2.59,1.65-2.59,3.68s1.16,3.67,2.59,3.67h.12a13.52,13.52,0,0,0,26.79,0h.13c1.43,0,2.59-1.64,2.59-3.67S47.08,93.89,45.65,93.89Z"/><path class="cls-2" d="M25.71,111.64v3l.29,2.19L28,118l2.19,1.27,1.32.78L34.1,119l2.51-1.27,1.35-.82,0-.29-.27-4.68v-.25l-.63.37-1.43.53-1.11.36-1.29.27h-1L30.82,113s-1.27-.27-1.39-.31-1.88-.54-2.05-.54S25.71,111.64,25.71,111.64Z"/><path class="cls-3" d="M19.9,118.35l6.89,8,4.8-6.25,6,6.26,6.8-8.29,10.21,2.82,2,1L58.45,123l2.38,3.64,1,4.45L63,137.55l.71,3.62H.74L2.3,131.5l.9-4.76L5.58,123s2-1.39,2.22-1.48l3.69-1.23,5-1Z"/><path class="cls-4" d="M61.53,128.57c-1.92-7.24-7.64-8-7.64-8l-15.71-3.75v-5.23a13.53,13.53,0,0,1-12.11,0v5.23l-15.71,3.75s-5.72.79-7.63,8L.5,141.25H63.75Z"/><polygon class="cls-1" points="25.81 116.56 19.88 117.98 26.73 126.32 31.74 120.2 25.81 116.56"/><polygon class="cls-1" points="38.48 116.62 44.37 118.03 37.56 126.32 31.74 120.2 38.48 116.62"/><polygon class="cls-5" points="33.91 77.37 33.28 69.85 32.13 69.85 30.97 69.85 30.35 77.37 33.91 77.37"/><path class="cls-6" d="M47.59,89.7a17.26,17.26,0,0,0-6.18-13.37,15,15,0,0,0-3.3-2l-.35-2.2a14.19,14.19,0,0,0-4.39-1.23l.54,6.5H30.35l.53-6.52a11.26,11.26,0,0,0-4.39,1.25l-.39,2.2a16.32,16.32,0,0,0-8.44,9.5,17.74,17.74,0,0,0-1,5.9H47.59"/><line class="cls-6" x1="37.76" y1="72.1" x2="38.95" y2="79.74"/><line class="cls-6" x1="25.12" y1="79.74" x2="26.49" y2="72.1"/><path class="cls-6" d="M21.74,81.78s-1.57,2.75-1.45,4.85H30"/><path class="cls-6" d="M47.76,89.7H16.52s-1.41,0-1.4,2.22h34C49.15,89.75,47.76,89.7,47.76,89.7Z"/><path class="cls-1" d="M139.52,93.19V91.71a13.52,13.52,0,1,0-27,0v1.48c-1.43,0-2.59,1.65-2.59,3.68s1.16,3.67,2.59,3.67h.12a13.52,13.52,0,0,0,26.79,0h.13c1.43,0,2.59-1.64,2.59-3.67S141,93.19,139.52,93.19Z"/><path class="cls-2" d="M119.71,110.94v3l.22,2.19,2,1.22,2.18,1.27,1.31.78,2.55-1.11,2.5-1.27,1.35-.82.08-.29-.2-4.68v-.25l-.7.37-1.45.53-1.13.71-1.32.62h-1l-1.44-.54-1.39-.47c-.13,0-1.82-.63-2-.63A16.68,16.68,0,0,1,119.71,110.94Z"/><path class="cls-3" d="M113.77,117.65l6.89,7.95,4.8-6.25,6,6.26,6.81-8.29,10.21,2.82,2,1,1.81,1.15,2.38,3.64,1,4.45,1.17,6.33.71,3.48h-63l1.56-9.52.9-4.68,2.38-3.74s2-1.37,2.22-1.45,3.69-1.23,3.69-1.23l5-1Z"/><path class="cls-4" d="M155.39,127.87c-1.91-7.24-7.63-8-7.63-8l-15.71-3.75v-5.23a13.53,13.53,0,0,1-12.11,0v5.23l-15.71,3.75s-5.72.79-7.63,8l-2.23,12.68h63.25Z"/><polygon class="cls-1" points="119.68 115.86 113.75 117.28 120.6 125.62 125.61 119.5 119.68 115.86"/><polygon class="cls-1" points="132.35 115.92 138.24 117.33 131.43 125.62 125.61 119.5 132.35 115.92"/><polygon class="cls-5" points="127.78 76.67 127.15 69.15 126 69.15 124.83 69.15 124.22 76.67 127.78 76.67"/><path class="cls-6" d="M141.45,89a17.25,17.25,0,0,0-6.17-13.37,15,15,0,0,0-3.3-2l-.35-2.2a14.19,14.19,0,0,0-4.39-1.23l.54,6.5h-3.56l.53-6.52a11.26,11.26,0,0,0-4.39,1.25l-.4,2.2a16.34,16.34,0,0,0-8.43,9.5,17.74,17.74,0,0,0-1,5.9h30.91"/><line class="cls-6" x1="131.63" y1="71.4" x2="132.82" y2="79.04"/><line class="cls-6" x1="118.99" y1="79.04" x2="120.36" y2="71.4"/><path class="cls-6" d="M115.61,81.08s-1.57,2.75-1.45,4.85h9.67"/><path class="cls-6" d="M141.63,89H110.39s-1.41,0-1.4,2.22h34C143,89.05,141.63,89,141.63,89Z"/><path class="cls-1" d="M91.88,24.54V23.06a13.52,13.52,0,0,0-27,0v1.48c-1.43,0-2.59,1.65-2.59,3.68s1.16,3.67,2.59,3.67H65a13.51,13.51,0,0,0,26.78,0h.13c1.43,0,2.59-1.64,2.59-3.67S93.31,24.54,91.88,24.54Z"/><path class="cls-2" d="M72.71,42.29v3l-.1,2.19,1.85,1.22,2.1,1.27,1.27.78,2.53-1.11,2.49-1.27,1.35-.82-.1-.29-.39-4.68v-.25l-.52.37-1.36.53-1.08,0-1.27-.06h-1l-1.43.14s-1.27-.1-1.4-.14-1.5-.46-1.66-.46A12.31,12.31,0,0,1,72.71,42.29Z"/><path class="cls-3" d="M66.13,49,73,57l4.81-6.25,6,6.26,6.8-8.29,10.22,2.82,2,1,1.8,1.15,2.38,3.63,1,4.46,1.17,6.66.71,3.8H47l1.56-9.85.9-4.84,2.38-3.82s2-1.41,2.22-1.5l3.7-1.24,5-1Z"/><path class="cls-4" d="M107.76,59.22c-1.91-7.24-7.64-8-7.64-8l-15.7-3.75V42.21a13.53,13.53,0,0,1-12.11,0v5.23L56.6,51.19s-5.73.79-7.64,8L46.73,71.9H110Z"/><polygon class="cls-1" points="72.04 47.21 66.12 48.63 72.97 56.97 77.97 50.85 72.04 47.21"/><polygon class="cls-1" points="84.71 47.27 90.61 48.67 83.79 56.97 77.97 50.85 84.71 47.27"/><polygon class="cls-5" points="80.14 8.02 79.52 0.5 78.36 0.5 77.2 0.5 76.58 8.02 80.14 8.02"/><path class="cls-6" d="M93.82,20.35A17.25,17.25,0,0,0,87.65,7a15.06,15.06,0,0,0-3.31-2L84,2.75a14.27,14.27,0,0,0-4.39-1.23L80.14,8H76.58l.54-6.52a11.35,11.35,0,0,0-4.4,1.25l-.39,2.19a16.43,16.43,0,0,0-8.44,9.51,18,18,0,0,0-1,5.9H93.82"/><line class="cls-6" x1="84" y1="2.75" x2="85.18" y2="10.39"/><line class="cls-6" x1="71.36" y1="10.39" x2="72.72" y2="2.75"/><path class="cls-6" d="M68,12.43s-1.56,2.75-1.44,4.85H76.2"/><path class="cls-6" d="M94,20.35H62.75s-1.41,0-1.4,2.22h34C95.38,20.4,94,20.35,94,20.35Z"/><path class="cls-7" d="M80,88.93h.35L79,91.87l4.62-1.11,4.55-1.2-2.1-4.19-2.17-4.2-1.12,2.52a18.07,18.07,0,0,0-2.8-.28A17,17,0,0,0,63.32,97.12l5.8-.63A11.63,11.63,0,0,1,80,88.93ZM80,112a11.59,11.59,0,0,1-10.29-6.36l3.08-.28L69.55,102l-3.29-3.43-2.66,3.92L61,106.43l2.94-.21a17,17,0,0,0,16,11.26,18.22,18.22,0,0,0,6.23-1.12l-3.36-4.68A12.88,12.88,0,0,1,80,112ZM97,100.48A17.08,17.08,0,0,0,90.89,87.4l-2.45,5.17a11.73,11.73,0,0,1,3.07,7.91A11.34,11.34,0,0,1,90,106.22l-1.68-2.31L87,108.46,85.85,113l4.69.22,4.75.2-1.82-2.51A16.93,16.93,0,0,0,97,100.48Z"/></g></g></svg>